<svg xmlns="http://www.w3.org/2000/svg" viewBox="0 0 440 650"><defs><style>.cls-1,.cls-2{fill:#fff;}.cls-1{opacity:0.05;}.cls-3{fill:#c10cc1;}.cls-4,.cls-5{fill:none;stroke-miterlimit:10;}.cls-4{stroke:#fff;}.cls-5{stroke:aqua;stroke-linecap:round;stroke-width:0.9px;stroke-dasharray:1.79 4.48;}.cls-6{fill:#8c33ff;}.cls-7{fill:#1a171b;}</style></defs><g id="Layer_2" data-name="Layer 2"><g id="Layer_1-2" data-name="Layer 1"><rect class="cls-1" width="440" height="650" rx="21.66"/><path class="cls-2" d="M130.29,602.84a3.58,3.58,0,0,1-1.72-.41,3,3,0,0,1-1.2-1.15,3.46,3.46,0,0,1-.43-1.77,3.39,3.39,0,0,1,.43-1.75,3,3,0,0,1,1.2-1.13,3.69,3.69,0,0,1,1.72-.39,3.49,3.49,0,0,1,1.29.22,2.76,2.76,0,0,1,.95.58,2.63,2.63,0,0,1,.6.79,2.07,2.07,0,0,1,.2.86v0H132a.2.2,0,0,0,0-.07.17.17,0,0,0,0-.07,1.19,1.19,0,0,0-.27-.63,1.74,1.74,0,0,0-.61-.44,2.06,2.06,0,0,0-.86-.16,2.15,2.15,0,0,0-1,.24,1.67,1.67,0,0,0-.73.71,2.32,2.32,0,0,0-.28,1.2,2.46,2.46,0,0,0,.27,1.21,1.86,1.86,0,0,0,.73.74,2.08,2.08,0,0,0,1,.25,2.27,2.27,0,0,0,1-.18,1.31,1.31,0,0,0,.57-.49,1.48,1.48,0,0,0,.22-.67h1.29a2.12,2.12,0,0,1-.2.87,2.34,2.34,0,0,1-.58.8,2.67,2.67,0,0,1-1,.58A3.78,3.78,0,0,1,130.29,602.84Z"/><path class="cls-2" d="M136.14,593.33v9.38h-1.28v-9.38Z"/><path class="cls-2" d="M138.55,595a.93.93,0,0,1-.58-.18.63.63,0,0,1-.24-.51.59.59,0,0,1,.24-.5,1,1,0,0,1,1.15,0,.59.59,0,0,1,.24.5.63.63,0,0,1-.24.51A.92.92,0,0,1,138.55,595Zm-.65,7.69v-6.37h1.29v6.37Z"/><path class="cls-2" d="M144,602.84a3.61,3.61,0,0,1-1.72-.41,3,3,0,0,1-1.19-1.15,3.47,3.47,0,0,1-.44-1.77,3.39,3.39,0,0,1,.44-1.75,3,3,0,0,1,1.19-1.13,3.72,3.72,0,0,1,1.72-.39,3.42,3.42,0,0,1,1.29.22,2.71,2.71,0,0,1,1,.58,2.59,2.59,0,0,1,.59.79,1.93,1.93,0,0,1,.2.86v0h-1.29v-.14a1.29,1.29,0,0,0-.28-.63,1.62,1.62,0,0,0-.6-.44,2.14,2.14,0,0,0-.87-.16,2.11,2.11,0,0,0-1,.24,1.74,1.74,0,0,0-.74.71,2.42,2.42,0,0,0-.27,1.2,2.46,2.46,0,0,0,.27,1.21,1.8,1.8,0,0,0,.73.74,2,2,0,0,0,1,.25,2.24,2.24,0,0,0,1-.18,1.31,1.31,0,0,0,.57-.49,1.48,1.48,0,0,0,.22-.67H147a2.1,2.1,0,0,1-.19.87,2.64,2.64,0,0,1-.58.8,2.71,2.71,0,0,1-1,.58A3.7,3.7,0,0,1,144,602.84Z"/><path class="cls-2" d="M148.48,602.71v-9.38h1.24V599l-.32-.15,2.85-2.46h1.63l-3.08,2.73.31-.58,2.77,4.22H152.5l-2.23-3.52.29.09-1,.89.16-.6v3.14Z"/><path class="cls-2" d="M158.55,595a1,1,0,0,1-.58-.18.63.63,0,0,1-.24-.51.59.59,0,0,1,.24-.5,1,1,0,0,1,1.16,0,.59.59,0,0,1,.24.5.63.63,0,0,1-.24.51A1,1,0,0,1,158.55,595Zm-.65,7.69v-6.37h1.29v6.37Z"/><path class="cls-2" d="M163.64,602.82a2.7,2.7,0,0,1-.63-.07,1.49,1.49,0,0,1-.58-.24A1.34,1.34,0,0,1,162,602a2.11,2.11,0,0,1-.15-.86v-3.72h-1.53v-1.08h.8l.41,0a.35.35,0,0,0,.21-.1.45.45,0,0,0,.09-.27c0-.12,0-.28,0-.49v-1.23h1.3v2.11h2v1.08h-2v3.29a1.89,1.89,0,0,0,.12.75c.07.19.25.28.53.28a2,2,0,0,0,.35,0,.87.87,0,0,0,.24-.07v1.06a1.26,1.26,0,0,1-.3.08A2.19,2.19,0,0,1,163.64,602.82Z"/><path class="cls-2" d="M172.08,602.82a2.73,2.73,0,0,1-.64-.07,1.45,1.45,0,0,1-.57-.24,1.18,1.18,0,0,1-.42-.51,2.09,2.09,0,0,1-.16-.86v-3.72h-1.53v-1.08h.81l.4,0a.41.41,0,0,0,.22-.1.65.65,0,0,0,.09-.27c0-.12,0-.28,0-.49v-1.23h1.31v2.11h2v1.08h-2v3.29a2.12,2.12,0,0,0,.11.75.52.52,0,0,0,.54.28,1.87,1.87,0,0,0,.34,0,1,1,0,0,0,.25-.07v1.06a1.37,1.37,0,0,1-.31.08A2,2,0,0,1,172.08,602.82Z"/><path class="cls-2" d="M177.67,602.83a3.49,3.49,0,0,1-1.73-.42,3.11,3.11,0,0,1-1.18-1.18,3.44,3.44,0,0,1-.42-1.71,3.37,3.37,0,0,1,.42-1.7,3,3,0,0,1,1.18-1.16,3.79,3.79,0,0,1,3.47,0,3,3,0,0,1,1.18,1.16,3.37,3.37,0,0,1,.42,1.7,3.44,3.44,0,0,1-.42,1.71,3.11,3.11,0,0,1-1.18,1.18A3.5,3.5,0,0,1,177.67,602.83Zm0-1.12a2.13,2.13,0,0,0,1.06-.26,2,2,0,0,0,.71-.77,2.39,2.39,0,0,0,.26-1.16,2.35,2.35,0,0,0-.26-1.15,1.9,1.9,0,0,0-.71-.75,2.27,2.27,0,0,0-2.11,0,1.92,1.92,0,0,0-.72.75,2.47,2.47,0,0,0-.25,1.15,2.51,2.51,0,0,0,.25,1.16,2,2,0,0,0,.72.77A2.15,2.15,0,0,0,177.67,601.71Z"/><path class="cls-2" d="M188,602.84a4.7,4.7,0,0,1-1.08-.13,2.92,2.92,0,0,1-.88-.37,1.72,1.72,0,0,1-.6-.6,1.63,1.63,0,0,1-.21-.83v-.17h1.3v.12a.72.72,0,0,0,.4.67,2.29,2.29,0,0,0,1.1.22,3.52,3.52,0,0,0,.75-.08,1.24,1.24,0,0,0,.54-.26.59.59,0,0,0,.2-.45.63.63,0,0,0-.43-.62,6.29,6.29,0,0,0-1.3-.33,8.63,8.63,0,0,1-.91-.22,2.71,2.71,0,0,1-.79-.35,1.53,1.53,0,0,1-.56-.54,1.43,1.43,0,0,1-.21-.79,1.51,1.51,0,0,1,.36-1,2.26,2.26,0,0,1,1-.64,4.15,4.15,0,0,1,1.35-.21,3.61,3.61,0,0,1,1.33.23,2.36,2.36,0,0,1,1,.66,1.64,1.64,0,0,1,.37,1.07v.11h-1.29v-.09a.69.69,0,0,0-.2-.51,1.16,1.16,0,0,0-.51-.29,2.13,2.13,0,0,0-.67-.1,2.88,2.88,0,0,0-.65.07,1.31,1.31,0,0,0-.55.23.54.54,0,0,0-.21.45.57.57,0,0,0,.21.46,1.91,1.91,0,0,0,.59.28c.26.07.56.14.9.2s.61.13.91.21a3.85,3.85,0,0,1,.8.34,1.64,1.64,0,0,1,.57.54,1.48,1.48,0,0,1,.21.81,1.52,1.52,0,0,1-.23.86,1.79,1.79,0,0,1-.62.6,3.37,3.37,0,0,1-.89.35A4.51,4.51,0,0,1,188,602.84Z"/><path class="cls-2" d="M192.67,600v-1h4.7l-.18.3v-.15a1.91,1.91,0,0,0-.21-.89,1.54,1.54,0,0,0-.63-.66,2,2,0,0,0-1-.25,2.29,2.29,0,0,0-1.1.26,1.91,1.91,0,0,0-.73.76,2.52,2.52,0,0,0-.26,1.17,2.6,2.6,0,0,0,.25,1.2,1.81,1.81,0,0,0,.73.77,2.22,2.22,0,0,0,1.13.27,3.09,3.09,0,0,0,.8-.09,1.72,1.72,0,0,0,.56-.25,1.17,1.17,0,0,0,.33-.34.9.9,0,0,0,.14-.36h1.29a1.93,1.93,0,0,1-.25.77,2.49,2.49,0,0,1-.62.69,3.27,3.27,0,0,1-1,.49,4.39,4.39,0,0,1-1.32.18,3.54,3.54,0,0,1-1.75-.42,3,3,0,0,1-1.17-1.16,3.45,3.45,0,0,1-.42-1.72,3.49,3.49,0,0,1,.43-1.73,3.06,3.06,0,0,1,1.18-1.16,3.64,3.64,0,0,1,1.74-.41,3.37,3.37,0,0,1,1.72.42,2.91,2.91,0,0,1,1.13,1.15,3.61,3.61,0,0,1,.39,1.7v.27a1.8,1.8,0,0,1,0,.2Z"/><path class="cls-2" d="M200.45,600v-1h4.69l-.18.3v-.15a1.91,1.91,0,0,0-.21-.89,1.58,1.58,0,0,0-.62-.66,2,2,0,0,0-1-.25,2.25,2.25,0,0,0-1.09.26,1.85,1.85,0,0,0-.73.76,2.41,2.41,0,0,0-.26,1.17,2.6,2.6,0,0,0,.25,1.2,1.85,1.85,0,0,0,.72.77,2.29,2.29,0,0,0,1.14.27,3.15,3.15,0,0,0,.8-.09,1.82,1.82,0,0,0,.56-.25,1.5,1.5,0,0,0,.33-.34.75.75,0,0,0,.13-.36h1.3a2,2,0,0,1-.26.77,2.45,2.45,0,0,1-.61.69,3.21,3.21,0,0,1-1,.49,4.37,4.37,0,0,1-1.31.18,3.51,3.51,0,0,1-1.75-.42,3,3,0,0,1-1.17-1.16,3.45,3.45,0,0,1-.42-1.72,3.39,3.39,0,0,1,.43-1.73,3,3,0,0,1,1.18-1.16,3.6,3.6,0,0,1,1.73-.41,3.41,3.41,0,0,1,1.73.42,2.88,2.88,0,0,1,1.12,1.15,3.5,3.5,0,0,1,.4,1.7,2.62,2.62,0,0,1,0,.27.75.75,0,0,1,0,.2Z"/><path class="cls-2" d="M213.28,602.84a4.61,4.61,0,0,1-1.07-.13,3,3,0,0,1-.89-.37,1.78,1.78,0,0,1-.59-.6,1.63,1.63,0,0,1-.21-.83v-.17h1.29v.12a.72.72,0,0,0,.41.67,2.29,2.29,0,0,0,1.1.22,3.52,3.52,0,0,0,.75-.08,1.36,1.36,0,0,0,.54-.26.59.59,0,0,0,.2-.45.64.64,0,0,0-.43-.62,6.47,6.47,0,0,0-1.3-.33,8.07,8.07,0,0,1-.91-.22,2.9,2.9,0,0,1-.8-.35,1.7,1.7,0,0,1-.56-.54,1.64,1.64,0,0,1,.16-1.81,2.26,2.26,0,0,1,1-.64,4.15,4.15,0,0,1,1.35-.21,3.52,3.52,0,0,1,1.32.23,2.24,2.24,0,0,1,1,.66,1.59,1.59,0,0,1,.38,1.07v.11h-1.29v-.09a.69.69,0,0,0-.2-.51,1.16,1.16,0,0,0-.51-.29,2.13,2.13,0,0,0-.67-.1,3,3,0,0,0-.66.07,1.32,1.32,0,0,0-.54.23.54.54,0,0,0-.21.45.57.57,0,0,0,.21.46,1.8,1.8,0,0,0,.59.28c.26.07.55.14.89.2s.62.13.92.21a3.85,3.85,0,0,1,.8.34,1.74,1.74,0,0,1,.57.54,1.48,1.48,0,0,1,.21.81,1.6,1.6,0,0,1-.23.86,1.88,1.88,0,0,1-.62.6,3.37,3.37,0,0,1-.89.35A4.59,4.59,0,0,1,213.28,602.84Z"/><path class="cls-2" d="M220.6,602.83a3.5,3.5,0,0,1-1.74-.42,3.08,3.08,0,0,1-1.17-1.18,3.34,3.34,0,0,1-.43-1.71,3.28,3.28,0,0,1,.43-1.7,3,3,0,0,1,1.17-1.16,3.5,3.5,0,0,1,1.74-.42,3.56,3.56,0,0,1,1.74.42,3,3,0,0,1,1.17,1.16,3.37,3.37,0,0,1,.42,1.7,3.44,3.44,0,0,1-.42,1.71,3.08,3.08,0,0,1-1.17,1.18A3.56,3.56,0,0,1,220.6,602.83Zm0-1.12a2.1,2.1,0,0,0,1.05-.26,1.91,1.91,0,0,0,.72-.77,2.51,2.51,0,0,0,.26-1.16,2.47,2.47,0,0,0-.26-1.15,1.86,1.86,0,0,0-.72-.75,2.25,2.25,0,0,0-2.1,0,1.86,1.86,0,0,0-.72.75,2.47,2.47,0,0,0-.26,1.15,2.51,2.51,0,0,0,.26,1.16,1.91,1.91,0,0,0,.72.77A2.1,2.1,0,0,0,220.6,601.71Z"/><path class="cls-2" d="M225.38,602.71v-6.37h1.3v6.37Zm3.94,0v-3.79a4.29,4.29,0,0,0,0-.49,1.45,1.45,0,0,0-.15-.5.81.81,0,0,0-.34-.37,1.19,1.19,0,0,0-.64-.15,1.36,1.36,0,0,0-.69.17,1.33,1.33,0,0,0-.46.42,2,2,0,0,0-.25.6,3,3,0,0,0-.08.65l-.55-.3a3,3,0,0,1,.3-1.36,2.36,2.36,0,0,1,.84-1,2.19,2.19,0,0,1,1.28-.37,2.05,2.05,0,0,1,1.2.31,1.73,1.73,0,0,1,.66.84,3.43,3.43,0,0,1,.2,1.2v4.12Zm3.93,0v-3.8a4.36,4.36,0,0,0,0-.51,1.34,1.34,0,0,0-.15-.48.88.88,0,0,0-.35-.37,1.35,1.35,0,0,0-.66-.14,1.46,1.46,0,0,0-.69.16,1.51,1.51,0,0,0-.45.42,2,2,0,0,0-.24.57,3.37,3.37,0,0,0-.07.62l-.55-.29a3,3,0,0,1,.29-1.32,2.38,2.38,0,0,1,.83-1,2.23,2.23,0,0,1,1.27-.36,2.17,2.17,0,0,1,1.19.29,1.75,1.75,0,0,1,.68.79,2.92,2.92,0,0,1,.22,1.18v4.21Z"/><path class="cls-2" d="M236.65,600v-1h4.7l-.18.3v-.15a1.91,1.91,0,0,0-.21-.89,1.6,1.6,0,0,0-.63-.66,2,2,0,0,0-1-.25,2.29,2.29,0,0,0-1.1.26,1.91,1.91,0,0,0-.73.76,2.52,2.52,0,0,0-.26,1.17,2.6,2.6,0,0,0,.25,1.2,1.81,1.81,0,0,0,.73.77,2.22,2.22,0,0,0,1.13.27,3.09,3.09,0,0,0,.8-.09,1.82,1.82,0,0,0,.56-.25,1.17,1.17,0,0,0,.33-.34.9.9,0,0,0,.14-.36h1.29a1.93,1.93,0,0,1-.25.77,2.66,2.66,0,0,1-.62.69,3.27,3.27,0,0,1-1,.49,4.39,4.39,0,0,1-1.32.18,3.54,3.54,0,0,1-1.75-.42,3,3,0,0,1-1.17-1.16,3.45,3.45,0,0,1-.42-1.72,3.49,3.49,0,0,1,.43-1.73,3.06,3.06,0,0,1,1.18-1.16,3.64,3.64,0,0,1,1.74-.41,3.4,3.4,0,0,1,1.72.42,2.91,2.91,0,0,1,1.13,1.15,3.61,3.61,0,0,1,.39,1.7v.27a1.8,1.8,0,0,1,0,.2Z"/><path class="cls-2" d="M250.07,602.84a3.61,3.61,0,0,1-1.72-.41,2.93,2.93,0,0,1-1.19-1.15,3.47,3.47,0,0,1-.44-1.77,3.39,3.39,0,0,1,.44-1.75,2.94,2.94,0,0,1,1.19-1.13,3.72,3.72,0,0,1,1.72-.39,3.49,3.49,0,0,1,1.29.22,2.67,2.67,0,0,1,.95.58,2.63,2.63,0,0,1,.6.79,2.07,2.07,0,0,1,.2.86v0h-1.29v-.07s0,0,0-.07a1.19,1.19,0,0,0-.27-.63,1.62,1.62,0,0,0-.6-.44,2.33,2.33,0,0,0-1.88.08,1.72,1.72,0,0,0-.73.71,2.32,2.32,0,0,0-.28,1.2,2.46,2.46,0,0,0,.27,1.21,1.88,1.88,0,0,0,.74.74,2,2,0,0,0,1,.25,2.27,2.27,0,0,0,1-.18,1.31,1.31,0,0,0,.57-.49,1.48,1.48,0,0,0,.22-.67h1.29a2,2,0,0,1-.2.87,2.34,2.34,0,0,1-.58.8,2.58,2.58,0,0,1-1,.58A3.78,3.78,0,0,1,250.07,602.84Z"/><path class="cls-2" d="M257.63,602.83a3.5,3.5,0,0,1-1.74-.42,3.08,3.08,0,0,1-1.17-1.18,3.44,3.44,0,0,1-.43-1.71,3.38,3.38,0,0,1,.43-1.7,3,3,0,0,1,1.17-1.16,3.81,3.81,0,0,1,3.48,0,3,3,0,0,1,1.17,1.16,3.38,3.38,0,0,1,.43,1.7,3.44,3.44,0,0,1-.43,1.71,3.08,3.08,0,0,1-1.17,1.18A3.53,3.53,0,0,1,257.63,602.83Zm0-1.12a2.16,2.16,0,0,0,1.06-.26,2,2,0,0,0,.71-.77,2.51,2.51,0,0,0,.26-1.16,2.47,2.47,0,0,0-.26-1.15,1.9,1.9,0,0,0-.71-.75,2.16,2.16,0,0,0-1.06-.26,2.1,2.1,0,0,0-1.05.26,1.86,1.86,0,0,0-.72.75,2.47,2.47,0,0,0-.26,1.15,2.51,2.51,0,0,0,.26,1.16,1.91,1.91,0,0,0,.72.77A2.1,2.1,0,0,0,257.63,601.71Z"/><path class="cls-2" d="M262.41,602.71v-6.37h1.3v6.37Zm4.54,0V599a2.12,2.12,0,0,0-.15-.83,1.12,1.12,0,0,0-.47-.56,1.71,1.71,0,0,0-.88-.2,1.64,1.64,0,0,0-.88.24,1.87,1.87,0,0,0-.63.65,2,2,0,0,0-.23.94l-.55-.28a2.72,2.72,0,0,1,.36-1.39,2.76,2.76,0,0,1,1-1,2.85,2.85,0,0,1,2.64-.07,2,2,0,0,1,.83.83,2.78,2.78,0,0,1,.28,1.28v4.07Z"/><path class="cls-2" d="M272.4,602.84a4.54,4.54,0,0,1-1.07-.13,3,3,0,0,1-.89-.37,1.78,1.78,0,0,1-.59-.6,1.63,1.63,0,0,1-.21-.83v-.17h1.29v.12a.72.72,0,0,0,.41.67,2.26,2.26,0,0,0,1.1.22,3.36,3.36,0,0,0,.74-.08,1.24,1.24,0,0,0,.54-.26.57.57,0,0,0,.21-.45.64.64,0,0,0-.43-.62,6.47,6.47,0,0,0-1.3-.33,8.82,8.82,0,0,1-.92-.22,2.83,2.83,0,0,1-.79-.35,1.7,1.7,0,0,1-.56-.54,1.43,1.43,0,0,1-.2-.79,1.51,1.51,0,0,1,.36-1,2.26,2.26,0,0,1,1-.64,4.15,4.15,0,0,1,1.35-.21,3.59,3.59,0,0,1,1.32.23,2.3,2.3,0,0,1,1,.66,1.58,1.58,0,0,1,.37,1.07v.11h-1.29v-.09a.69.69,0,0,0-.19-.51,1.26,1.26,0,0,0-.52-.29,2.09,2.09,0,0,0-.67-.1,2.94,2.94,0,0,0-.65.07,1.21,1.21,0,0,0-.54.23.55.55,0,0,0-.22.45.57.57,0,0,0,.21.46,1.87,1.87,0,0,0,.6.28c.25.07.55.14.89.2s.62.13.91.21a3.44,3.44,0,0,1,.8.34,1.64,1.64,0,0,1,.57.54,1.4,1.4,0,0,1,.22.81,1.6,1.6,0,0,1-.23.86,1.88,1.88,0,0,1-.62.6,3.31,3.31,0,0,1-.9.35A4.44,4.44,0,0,1,272.4,602.84Z"/><path class="cls-2" d="M277.1,600v-1h4.69l-.18.3v-.15a1.91,1.91,0,0,0-.21-.89,1.54,1.54,0,0,0-.63-.66,1.93,1.93,0,0,0-1-.25,2.25,2.25,0,0,0-1.09.26,1.79,1.79,0,0,0-.73.76,2.41,2.41,0,0,0-.26,1.17,2.6,2.6,0,0,0,.25,1.2,1.85,1.85,0,0,0,.72.77,2.29,2.29,0,0,0,1.14.27,3.15,3.15,0,0,0,.8-.09,1.93,1.93,0,0,0,.56-.25,1.5,1.5,0,0,0,.33-.34.75.75,0,0,0,.13-.36h1.3a2,2,0,0,1-.26.77,2.34,2.34,0,0,1-.62.69,3.15,3.15,0,0,1-1,.49,4.37,4.37,0,0,1-1.31.18,3.51,3.51,0,0,1-1.75-.42,3,3,0,0,1-1.17-1.16,3.45,3.45,0,0,1-.42-1.72,3.39,3.39,0,0,1,.43-1.73,3,3,0,0,1,1.18-1.16,3.6,3.6,0,0,1,1.73-.41,3.41,3.41,0,0,1,1.73.42,2.88,2.88,0,0,1,1.12,1.15,3.5,3.5,0,0,1,.4,1.7,2.62,2.62,0,0,1,0,.27.75.75,0,0,1,0,.2Z"/><path class="cls-2" d="M287.5,602.84a3.61,3.61,0,0,1-1.72-.41,3,3,0,0,1-1.19-1.15,3.46,3.46,0,0,1-.43-1.77,3.39,3.39,0,0,1,.43-1.75,3,3,0,0,1,1.19-1.13,3.72,3.72,0,0,1,1.72-.39,3.42,3.42,0,0,1,1.29.22,2.71,2.71,0,0,1,1,.58,2.44,2.44,0,0,1,.59.79,1.94,1.94,0,0,1,.21.86v0h-1.29s0,0,0-.07,0,0,0-.07A1.21,1.21,0,0,0,289,598a1.62,1.62,0,0,0-.6-.44,2.14,2.14,0,0,0-.87-.16,2.11,2.11,0,0,0-1,.24,1.74,1.74,0,0,0-.74.71,2.42,2.42,0,0,0-.27,1.2,2.46,2.46,0,0,0,.27,1.21,1.86,1.86,0,0,0,.73.74,2,2,0,0,0,1,.25,2.24,2.24,0,0,0,1-.18A1.21,1.21,0,0,0,289,601a1.49,1.49,0,0,0,.23-.67h1.29a2.12,2.12,0,0,1-.2.87,2.48,2.48,0,0,1-.58.8,2.71,2.71,0,0,1-1,.58A3.7,3.7,0,0,1,287.5,602.84Z"/><path class="cls-2" d="M294.31,602.83a2.39,2.39,0,0,1-1.13-.24,1.83,1.83,0,0,1-.71-.6,2.55,2.55,0,0,1-.38-.82,3.83,3.83,0,0,1-.1-.88v-3.95h1.3V600a2.86,2.86,0,0,0,.12.85,1.28,1.28,0,0,0,.43.63,1.39,1.39,0,0,0,.85.23,1.36,1.36,0,0,0,.88-.3,2,2,0,0,0,.59-.77,2.24,2.24,0,0,0,.21-.93l.57.3a3.21,3.21,0,0,1-.18,1.07,2.86,2.86,0,0,1-.53.91,2.48,2.48,0,0,1-1.92.88Zm2.06-.12v-6.37h1.3v6.37Z"/><path class="cls-2" d="M299.78,600v-1h4.69l-.18.3v-.15a1.91,1.91,0,0,0-.21-.89,1.58,1.58,0,0,0-.62-.66,2,2,0,0,0-1-.25,2.25,2.25,0,0,0-1.09.26,1.85,1.85,0,0,0-.73.76,2.41,2.41,0,0,0-.26,1.17,2.6,2.6,0,0,0,.25,1.2,1.85,1.85,0,0,0,.72.77,2.29,2.29,0,0,0,1.14.27,3.15,3.15,0,0,0,.8-.09,1.82,1.82,0,0,0,.56-.25,1.5,1.5,0,0,0,.33-.34.75.75,0,0,0,.13-.36h1.3a2,2,0,0,1-.26.77,2.45,2.45,0,0,1-.61.69,3.21,3.21,0,0,1-1,.49,4.37,4.37,0,0,1-1.31.18,3.51,3.51,0,0,1-1.75-.42,3,3,0,0,1-1.17-1.16,3.45,3.45,0,0,1-.42-1.72,3.39,3.39,0,0,1,.43-1.73,3,3,0,0,1,1.18-1.16,3.6,3.6,0,0,1,1.73-.41,3.41,3.41,0,0,1,1.73.42,2.88,2.88,0,0,1,1.12,1.15,3.5,3.5,0,0,1,.4,1.7,2.62,2.62,0,0,1,0,.27.75.75,0,0,1,0,.2Z"/><path class="cls-2" d="M307.09,602.71v-6.37h1.31v6.37Zm4.54,0V599a2.33,2.33,0,0,0-.14-.83,1.19,1.19,0,0,0-.48-.56,1.71,1.71,0,0,0-.88-.2,1.66,1.66,0,0,0-.88.24,1.76,1.76,0,0,0-.62.65,1.85,1.85,0,0,0-.23.94l-.56-.28a2.72,2.72,0,0,1,.36-1.39,2.79,2.79,0,0,1,1-1,2.59,2.59,0,0,1,1.34-.36,2.63,2.63,0,0,1,1.3.29,2,2,0,0,1,.82.83,2.66,2.66,0,0,1,.28,1.28v4.07Z"/><path class="cls-2" d="M317.67,602.84a3.58,3.58,0,0,1-1.72-.41,3,3,0,0,1-1.2-1.15,3.46,3.46,0,0,1-.43-1.77,3.39,3.39,0,0,1,.43-1.75,3,3,0,0,1,1.2-1.13,3.69,3.69,0,0,1,1.72-.39,3.49,3.49,0,0,1,1.29.22,2.76,2.76,0,0,1,1,.58,2.44,2.44,0,0,1,.59.79,1.94,1.94,0,0,1,.21.86v0h-1.29a.2.2,0,0,0,0-.07s0,0,0-.07a1.13,1.13,0,0,0-.28-.63,1.62,1.62,0,0,0-.6-.44,2.08,2.08,0,0,0-.87-.16,2.14,2.14,0,0,0-1,.24,1.74,1.74,0,0,0-.74.71,2.42,2.42,0,0,0-.27,1.2,2.46,2.46,0,0,0,.27,1.21,1.86,1.86,0,0,0,.73.74,2.07,2.07,0,0,0,1,.25,2.32,2.32,0,0,0,1-.18,1.31,1.31,0,0,0,.57-.49,1.61,1.61,0,0,0,.22-.67h1.29a2.12,2.12,0,0,1-.2.87,2.48,2.48,0,0,1-.58.8,2.76,2.76,0,0,1-.95.58A3.78,3.78,0,0,1,317.67,602.84Z"/><path class="cls-2" d="M322.61,600v-1h4.69l-.18.3v-.15a1.91,1.91,0,0,0-.21-.89,1.58,1.58,0,0,0-.62-.66,2,2,0,0,0-1.05-.25,2.25,2.25,0,0,0-1.09.26,1.85,1.85,0,0,0-.73.76,2.41,2.41,0,0,0-.26,1.17,2.6,2.6,0,0,0,.25,1.2,1.85,1.85,0,0,0,.72.77,2.29,2.29,0,0,0,1.14.27,3.15,3.15,0,0,0,.8-.09,1.82,1.82,0,0,0,.56-.25,1.5,1.5,0,0,0,.33-.34.75.75,0,0,0,.13-.36h1.3a2,2,0,0,1-.26.77,2.45,2.45,0,0,1-.61.69,3.21,3.21,0,0,1-1,.49,4.37,4.37,0,0,1-1.31.18,3.51,3.51,0,0,1-1.75-.42,3,3,0,0,1-1.17-1.16,3.45,3.45,0,0,1-.42-1.72,3.39,3.39,0,0,1,.43-1.73,3,3,0,0,1,1.18-1.16,3.6,3.6,0,0,1,1.73-.41,3.41,3.41,0,0,1,1.73.42,2.88,2.88,0,0,1,1.12,1.15,3.5,3.5,0,0,1,.4,1.7,2.62,2.62,0,0,1,0,.27.75.75,0,0,1,0,.2Z"/><path class="cls-2" d="M332.43,602.84a4.54,4.54,0,0,1-1.07-.13,3,3,0,0,1-.89-.37,1.78,1.78,0,0,1-.59-.6,1.63,1.63,0,0,1-.21-.83v-.17H331v.12a.72.72,0,0,0,.41.67,2.26,2.26,0,0,0,1.1.22,3.52,3.52,0,0,0,.75-.08,1.36,1.36,0,0,0,.54-.26.59.59,0,0,0,.2-.45.64.64,0,0,0-.43-.62,6.47,6.47,0,0,0-1.3-.33,8.82,8.82,0,0,1-.92-.22,3,3,0,0,1-.79-.35,1.7,1.7,0,0,1-.56-.54,1.64,1.64,0,0,1,.16-1.81,2.26,2.26,0,0,1,1-.64,4.15,4.15,0,0,1,1.35-.21,3.56,3.56,0,0,1,1.32.23,2.3,2.3,0,0,1,1,.66,1.58,1.58,0,0,1,.37,1.07v.11h-1.29v-.09a.69.69,0,0,0-.19-.51,1.26,1.26,0,0,0-.52-.29,2.09,2.09,0,0,0-.67-.1,2.94,2.94,0,0,0-.65.07,1.26,1.26,0,0,0-.54.23.55.55,0,0,0-.22.45.57.57,0,0,0,.21.46,1.87,1.87,0,0,0,.6.28c.25.07.55.14.89.2s.62.13.91.21a3.72,3.72,0,0,1,.81.34,1.84,1.84,0,0,1,.57.54,1.48,1.48,0,0,1,.21.81,1.6,1.6,0,0,1-.23.86,1.88,1.88,0,0,1-.62.6,3.37,3.37,0,0,1-.89.35A4.59,4.59,0,0,1,332.43,602.84Z"/><path class="cls-2" d="M337.33,602.87a.79.79,0,0,1-.56-1.35.8.8,0,0,1,1.12,0,.77.77,0,0,1,0,1.12A.73.73,0,0,1,337.33,602.87Zm.65-9-.24,6.63h-.82l-.24-6.63Z"/><circle class="cls-3" cx="79.78" cy="598.98" r="8.28"/><line class="cls-4" x1="115.58" y1="598.87" x2="101.92" y2="598.87"/><line class="cls-4" x1="107.25" y1="595.78" x2="101.44" y2="598.98"/><line class="cls-4" x1="107.25" y1="602" x2="101.41" y2="598.77"/><path class="cls-2" d="M94.51,78a2.77,2.77,0,0,1,2,.71,2.55,2.55,0,0,1,.76,2,2.71,2.71,0,0,1-.83,2,3.25,3.25,0,0,1-2.35.8,2.91,2.91,0,0,1-2.39-1,4.06,4.06,0,0,1-.83-2.65,5,5,0,0,1,.75-2.74,7.45,7.45,0,0,1,1.92-2,10.48,10.48,0,0,1,2.28-1.28L96.41,75a7.07,7.07,0,0,0-1.55.86,5.78,5.78,0,0,0-1.28,1.23,2.42,2.42,0,0,0-.53,1.39,1.11,1.11,0,0,1,.47-.31A2.34,2.34,0,0,1,94.51,78Zm7.72,0a2.72,2.72,0,0,1,2,.71,2.52,2.52,0,0,1,.76,2,2.7,2.7,0,0,1-.82,2,3.28,3.28,0,0,1-2.35.8,2.92,2.92,0,0,1-2.4-1,4.12,4.12,0,0,1-.83-2.65,4.93,4.93,0,0,1,.76-2.74,7.41,7.41,0,0,1,1.91-2,10.54,10.54,0,0,1,2.29-1.28l.61,1.23a6.85,6.85,0,0,0-1.55.86,5.57,5.57,0,0,0-1.28,1.23,2.43,2.43,0,0,0-.54,1.39,1.11,1.11,0,0,1,.47-.31A2.39,2.39,0,0,1,102.23,78Z"/><path class="cls-2" d="M126.41,78.82h-8.87l1.84-2.49v26.53h-5V76.33l1.93,2.49h-8.94v-4h19Z"/><path class="cls-2" d="M130.27,102.86V73.16h5v29.7Zm14.29,0v-11a6.45,6.45,0,0,0-1-3.85,3.87,3.87,0,0,0-3.34-1.34,5.34,5.34,0,0,0-2.68.62,4.12,4.12,0,0,0-1.7,1.71,5.27,5.27,0,0,0-.59,2.55l-1.83-1a8.41,8.41,0,0,1,1.09-4.28,7.75,7.75,0,0,1,3-2.94A9.05,9.05,0,0,1,142,82.34a7.13,7.13,0,0,1,5.61,2.17,8.8,8.8,0,0,1,1.93,6.06v12.29Z"/><path class="cls-2" d="M156.24,94.38V90.83h14.12l-.57,1v-.49a5.31,5.31,0,0,0-.59-2.46A4.59,4.59,0,0,0,167.41,87a5.9,5.9,0,0,0-3-.71,6.27,6.27,0,0,0-3.16.77,5.23,5.23,0,0,0-2.07,2.22,7.51,7.51,0,0,0-.73,3.45,8.33,8.33,0,0,0,.7,3.57,5.13,5.13,0,0,0,2.06,2.28,6.58,6.58,0,0,0,3.32.78,9.73,9.73,0,0,0,2.3-.24,4.92,4.92,0,0,0,1.58-.68,3.18,3.18,0,0,0,.94-.92,2.51,2.51,0,0,0,.37-1h5a5.6,5.6,0,0,1-.84,2.48,7.78,7.78,0,0,1-2,2.19,10.66,10.66,0,0,1-3.19,1.56,14.6,14.6,0,0,1-4.26.57,11.71,11.71,0,0,1-5.68-1.32,9.59,9.59,0,0,1-3.79-3.71,10.68,10.68,0,0,1-1.36-5.43,10.82,10.82,0,0,1,1.37-5.5,9.66,9.66,0,0,1,3.83-3.67,11.7,11.7,0,0,1,5.63-1.32A11.38,11.38,0,0,1,170,83.67a9.27,9.27,0,0,1,3.68,3.69,11.32,11.32,0,0,1,1.29,5.5c0,.27,0,.55,0,.86a4.13,4.13,0,0,1-.06.66Z"/><path class="cls-2" d="M103.31,156.28a10.93,10.93,0,0,1-5.94-1.68,11.57,11.57,0,0,1-4.24-4.88,17.46,17.46,0,0,1-1.58-7.81,17.18,17.18,0,0,1,1.63-7.84,11.91,11.91,0,0,1,4.42-4.94,11.74,11.74,0,0,1,6.22-1.7,11.38,11.38,0,0,1,4.84.94,9.45,9.45,0,0,1,3.23,2.43,9.68,9.68,0,0,1,1.8,3.11,9.28,9.28,0,0,1,.56,3v.23h-4.86V137a5.81,5.81,0,0,0-.34-1.93,5.15,5.15,0,0,0-1-1.73,5.09,5.09,0,0,0-1.75-1.24,6.06,6.06,0,0,0-2.43-.45,6.4,6.4,0,0,0-3.52,1A7.24,7.24,0,0,0,97.64,136a14.63,14.63,0,0,0-1,5.95,17.16,17.16,0,0,0,.57,4.75,8.94,8.94,0,0,0,1.55,3.17,5.88,5.88,0,0,0,2.24,1.78,6.4,6.4,0,0,0,2.67.56,6.89,6.89,0,0,0,3.16-.64,5.38,5.38,0,0,0,2-1.62,4.69,4.69,0,0,0,.9-1.9v-2.18h-6v-3.77h10.47v13.8h-2.89l-.42-3.12a3.66,3.66,0,0,1-.62.93,6.19,6.19,0,0,1-1.37,1.19,8.41,8.41,0,0,1-2.27,1A11.8,11.8,0,0,1,103.31,156.28Z"/><path class="cls-2" d="M129.13,156.26a11.48,11.48,0,0,1-5.62-1.34,9.67,9.67,0,0,1-3.81-3.72,11.37,11.37,0,0,1,0-10.86,9.61,9.61,0,0,1,3.81-3.67,12.54,12.54,0,0,1,11.24,0,9.68,9.68,0,0,1,3.81,3.67,11.37,11.37,0,0,1,0,10.86,9.74,9.74,0,0,1-3.81,3.72A11.48,11.48,0,0,1,129.13,156.26Zm0-4.09a5.56,5.56,0,0,0,3-.8,5.37,5.37,0,0,0,2-2.23,7.28,7.28,0,0,0,.73-3.37,7.17,7.17,0,0,0-.73-3.35,5.29,5.29,0,0,0-2-2.2,6.22,6.22,0,0,0-6,0,5.25,5.25,0,0,0-2,2.2,7.17,7.17,0,0,0-.73,3.35,7.28,7.28,0,0,0,.73,3.37,5.33,5.33,0,0,0,2,2.23A5.58,5.58,0,0,0,129.13,152.17Z"/><path class="cls-2" d="M161.11,135.68l-6.33,20.18h-6.71l-6.48-20.18h5.17l5.07,18.43H151l4.9-18.43Z"/><path class="cls-2" d="M165.27,147.38v-3.55h14.12l-.58.95v-.49a5.31,5.31,0,0,0-.58-2.46,4.65,4.65,0,0,0-1.79-1.87,5.92,5.92,0,0,0-3-.71,6.24,6.24,0,0,0-3.16.77,5.12,5.12,0,0,0-2.07,2.22,7.51,7.51,0,0,0-.74,3.45,8.33,8.33,0,0,0,.71,3.57,5.08,5.08,0,0,0,2.06,2.28,6.54,6.54,0,0,0,3.31.78,9.61,9.61,0,0,0,2.3-.24,4.88,4.88,0,0,0,1.59-.68,3.26,3.26,0,0,0,.93-.92,2.36,2.36,0,0,0,.37-1h5a5.74,5.74,0,0,1-.85,2.48,7.5,7.5,0,0,1-2,2.19,10.49,10.49,0,0,1-3.18,1.56,14.67,14.67,0,0,1-4.27.57,11.74,11.74,0,0,1-5.68-1.32,9.66,9.66,0,0,1-3.79-3.71,11.59,11.59,0,0,1,0-10.93,9.66,9.66,0,0,1,3.83-3.67,11.66,11.66,0,0,1,5.62-1.32,11.42,11.42,0,0,1,5.66,1.33,9.18,9.18,0,0,1,3.67,3.69,11.32,11.32,0,0,1,1.29,5.5c0,.27,0,.55,0,.86a6.41,6.41,0,0,1-.05.66Z"/><path class="cls-2" d="M188.09,155.86V135.68h5v6.71l-1.15-.65a9.42,9.42,0,0,1,.7-2.48,6.88,6.88,0,0,1,1.37-2,6,6,0,0,1,2.07-1.38,7.28,7.28,0,0,1,2.77-.49,8.38,8.38,0,0,1,1.95.18,4,4,0,0,1,.88.29l-.91,4.58a3.39,3.39,0,0,0-.77-.33,5,5,0,0,0-1.55-.2,5.66,5.66,0,0,0-2.57.52,4.38,4.38,0,0,0-1.65,1.41,6.08,6.08,0,0,0-.87,1.94,8.4,8.4,0,0,0-.27,2.1v10Z"/><path class="cls-2" d="M204.83,155.86V135.68h5v20.18Zm14.26,0V144.52a7.58,7.58,0,0,0-.38-2.47,3.45,3.45,0,0,0-1.33-1.72,5.41,5.41,0,0,0-5.16.07,4.81,4.81,0,0,0-1.76,1.9,5.82,5.82,0,0,0-.64,2.78l-1.69-1a8.7,8.7,0,0,1,1.15-4.49,8.48,8.48,0,0,1,3.09-3.09,8.38,8.38,0,0,1,4.29-1.12,8.21,8.21,0,0,1,4.1.95,6,6,0,0,1,2.5,2.7,9.21,9.21,0,0,1,.85,4.1v12.77Z"/><path class="cls-2" d="M228.92,155.86V135.68h5v20.18Zm12.54,0V144.29a12,12,0,0,0-.1-1.55,4.51,4.51,0,0,0-.42-1.49,2.52,2.52,0,0,0-1-1.11,3.41,3.41,0,0,0-1.86-.43,3.69,3.69,0,0,0-1.92.46,4,4,0,0,0-1.3,1.24,5.39,5.39,0,0,0-.73,1.75,8.89,8.89,0,0,0-.23,2L232.24,144a10.27,10.27,0,0,1,.93-4.45,7.57,7.57,0,0,1,2.65-3.1,7.16,7.16,0,0,1,4.08-1.15,6.59,6.59,0,0,1,3.86,1,5.61,5.61,0,0,1,2,2.75,11.48,11.48,0,0,1,.62,3.88v12.88Zm12.46,0V144.25a14.61,14.61,0,0,0-.09-1.61,4.85,4.85,0,0,0-.42-1.46,2.51,2.51,0,0,0-1-1.06,3.54,3.54,0,0,0-1.86-.41,3.91,3.91,0,0,0-1.95.45,3.59,3.59,0,0,0-1.26,1.22,5.39,5.39,0,0,0-.69,1.71,8.21,8.21,0,0,0-.22,1.9l-1.68-1.1a10.05,10.05,0,0,1,.92-4.35,7.06,7.06,0,0,1,6.68-4.2,6.7,6.7,0,0,1,3.82,1,5.42,5.42,0,0,1,2.1,2.65,10.43,10.43,0,0,1,.66,3.83v13.07Z"/><path class="cls-2" d="M265.61,147.38v-3.55h14.11l-.57.95v-.49a5.19,5.19,0,0,0-.59-2.46,4.56,4.56,0,0,0-1.78-1.87,5.92,5.92,0,0,0-3-.71,6.31,6.31,0,0,0-3.17.77,5.23,5.23,0,0,0-2.07,2.22,7.64,7.64,0,0,0-.73,3.45,8.33,8.33,0,0,0,.71,3.57,5,5,0,0,0,2.06,2.28,6.54,6.54,0,0,0,3.31.78,9.67,9.67,0,0,0,2.3-.24,4.88,4.88,0,0,0,1.59-.68,3.26,3.26,0,0,0,.93-.92,2.36,2.36,0,0,0,.37-1h5a5.74,5.74,0,0,1-.85,2.48,7.78,7.78,0,0,1-2,2.19,10.72,10.72,0,0,1-3.18,1.56,14.67,14.67,0,0,1-4.27.57A11.74,11.74,0,0,1,268,155a9.59,9.59,0,0,1-3.79-3.71,11.59,11.59,0,0,1,0-10.93,9.6,9.6,0,0,1,3.83-3.67,11.63,11.63,0,0,1,5.62-1.32,11.38,11.38,0,0,1,5.65,1.33,9.2,9.2,0,0,1,3.68,3.69,11.32,11.32,0,0,1,1.29,5.5c0,.27,0,.55,0,.86a6.41,6.41,0,0,1,0,.66Z"/><path class="cls-2" d="M288.42,155.86V135.68h5v20.18Zm14.27,0V144.52a7.32,7.32,0,0,0-.39-2.47,3.4,3.4,0,0,0-1.33-1.72,4.68,4.68,0,0,0-2.59-.62,4.76,4.76,0,0,0-2.56.69,4.81,4.81,0,0,0-1.76,1.9,5.82,5.82,0,0,0-.64,2.78l-1.69-1a8.7,8.7,0,0,1,1.15-4.49,8.48,8.48,0,0,1,3.09-3.09,8.38,8.38,0,0,1,4.29-1.12,8.21,8.21,0,0,1,4.1.95,6.06,6.06,0,0,1,2.5,2.7,9.21,9.21,0,0,1,.85,4.1v12.77Z"/><path class="cls-2" d="M321.29,156.24a12,12,0,0,1-2.2-.21,6,6,0,0,1-2-.78,4.15,4.15,0,0,1-1.5-1.67,6.38,6.38,0,0,1-.57-2.91v-11H310.2v-4h1.94a10.47,10.47,0,0,0,1.55-.09,1.29,1.29,0,0,0,.84-.4,2,2,0,0,0,.35-1,15.93,15.93,0,0,0,.09-1.93V129h5v6.65h6v4h-6v9.48a6.36,6.36,0,0,0,.34,2.26,1.55,1.55,0,0,0,1.62.86,5.27,5.27,0,0,0,1.15-.12,4.87,4.87,0,0,0,.81-.22v3.91a7,7,0,0,1-1,.27A8.92,8.92,0,0,1,321.29,156.24Z"/><path class="cls-2" d="M100.52,209.28a14.59,14.59,0,0,1-3.43-.4,9.77,9.77,0,0,1-2.89-1.2,6.2,6.2,0,0,1-2-2,5.23,5.23,0,0,1-.73-2.75v-.44h5v.34a2,2,0,0,0,1.13,1.86,6.49,6.49,0,0,0,3.09.61,8.51,8.51,0,0,0,2-.22,3.77,3.77,0,0,0,1.52-.71,1.48,1.48,0,0,0,.58-1.21,1.76,1.76,0,0,0-1.22-1.71,17.8,17.8,0,0,0-3.85-.93,25.61,25.61,0,0,1-2.85-.67,10.79,10.79,0,0,1-2.56-1.12A5.82,5.82,0,0,1,92.45,197a4.48,4.48,0,0,1-.69-2.54,4.94,4.94,0,0,1,1.18-3.36,7.49,7.49,0,0,1,3.2-2.06,13.2,13.2,0,0,1,4.41-.7,12,12,0,0,1,4.32.76,7.86,7.86,0,0,1,3.22,2.18,5.13,5.13,0,0,1,1.22,3.44V195h-4.94v-.25a1.94,1.94,0,0,0-.55-1.43,3.36,3.36,0,0,0-1.42-.81,6.27,6.27,0,0,0-1.85-.27,9,9,0,0,0-1.76.18,3.69,3.69,0,0,0-1.52.63,1.44,1.44,0,0,0-.61,1.24,1.49,1.49,0,0,0,.63,1.24,5.34,5.34,0,0,0,1.74.79c.75.21,1.61.39,2.59.56a26.61,26.61,0,0,1,2.8.62A12,12,0,0,1,107,198.6a5.43,5.43,0,0,1,1.91,1.74,4.57,4.57,0,0,1,.73,2.65,5.14,5.14,0,0,1-.76,2.85,6.13,6.13,0,0,1-2.06,1.95,9.87,9.87,0,0,1-2.93,1.12A15.09,15.09,0,0,1,100.52,209.28Z"/><path class="cls-2" d="M113.78,208.86v-29.7h5v29.7Zm14.29,0v-11a6.45,6.45,0,0,0-1-3.85,3.87,3.87,0,0,0-3.34-1.34,5.4,5.4,0,0,0-2.69.62,4.24,4.24,0,0,0-1.7,1.71,5.39,5.39,0,0,0-.59,2.55l-1.82-1a8.31,8.31,0,0,1,1.09-4.28,7.79,7.79,0,0,1,3-2.94,9.12,9.12,0,0,1,4.45-1.06,7.1,7.1,0,0,1,5.6,2.17,8.76,8.76,0,0,1,1.94,6.06v12.29Z"/><path class="cls-2" d="M147.81,209.26a11.52,11.52,0,0,1-5.63-1.34,9.8,9.8,0,0,1-3.81-3.72,11.45,11.45,0,0,1,0-10.86,9.75,9.75,0,0,1,3.81-3.67,12.56,12.56,0,0,1,11.25,0,9.75,9.75,0,0,1,3.81,3.67,11.37,11.37,0,0,1,0,10.86,9.8,9.8,0,0,1-3.81,3.72A11.48,11.48,0,0,1,147.81,209.26Zm0-4.09a5.56,5.56,0,0,0,3-.8,5.37,5.37,0,0,0,2-2.23,7.41,7.41,0,0,0,.72-3.37,7.29,7.29,0,0,0-.72-3.35,5.29,5.29,0,0,0-2-2.2,6.22,6.22,0,0,0-6,0,5.27,5.27,0,0,0-2,2.2,7.29,7.29,0,0,0-.72,3.35,7.41,7.41,0,0,0,.72,3.37,5.35,5.35,0,0,0,2,2.23A5.55,5.55,0,0,0,147.81,205.17Z"/><path class="cls-2" d="M170,209.24a7.81,7.81,0,0,1-3.56-.72,5.88,5.88,0,0,1-2.23-1.9,7.63,7.63,0,0,1-1.14-2.61,12.6,12.6,0,0,1-.33-2.85V188.68h5v11.19a9.06,9.06,0,0,0,.32,2.5,3.49,3.49,0,0,0,1.19,1.85,3.75,3.75,0,0,0,2.44.71,4,4,0,0,0,2.58-.89,6,6,0,0,0,1.68-2.23,6.68,6.68,0,0,0,.6-2.74l1.71,1.14a10.39,10.39,0,0,1-.57,3.47,8.94,8.94,0,0,1-1.65,2.88,7.7,7.7,0,0,1-2.61,2A8.15,8.15,0,0,1,170,209.24Zm6.57-.38V188.68h5v20.18Z"/><path class="cls-2" d="M191.6,179.16v29.7h-4.92v-29.7Z"/><path class="cls-2" d="M205.09,209.28a9.23,9.23,0,0,1-4.61-1.21,8.77,8.77,0,0,1-3.39-3.56,12.07,12.07,0,0,1-1.27-5.8,11.39,11.39,0,0,1,1.3-5.66,8.9,8.9,0,0,1,3.42-3.51,9.08,9.08,0,0,1,4.55-1.2,8.59,8.59,0,0,1,4.39,1.17,8.88,8.88,0,0,1,3.23,3.24,9.2,9.2,0,0,1,1.22,4.75v.3l-2.47.06v-.25a4.6,4.6,0,0,0-.75-2.62,5.46,5.46,0,0,0-1.94-1.76,5.3,5.3,0,0,0-2.52-.64,5.14,5.14,0,0,0-3.72,1.48,6.15,6.15,0,0,0-1.54,4.64,6.23,6.23,0,0,0,1.54,4.66,5.12,5.12,0,0,0,3.72,1.5,5,5,0,0,0,2.56-.67,5.16,5.16,0,0,0,1.91-1.83,4.94,4.94,0,0,0,.74-2.69l2.47.11a9.84,9.84,0,0,1-1.19,4.82,9.09,9.09,0,0,1-3.18,3.41A8.2,8.2,0,0,1,205.09,209.28Zm6.37-.42v-29.7h5v29.7Z"/><path class="cls-2" d="M105.93,259.86a12.93,12.93,0,0,1,3.14.67,4.62,4.62,0,0,1,2.11,1.47,4.17,4.17,0,0,1,.76,2.61,4.51,4.51,0,0,1-1.24,3.16,8,8,0,0,1-3.62,2.05,20.51,20.51,0,0,1-5.86.72,16.76,16.76,0,0,1-7.77-1.45c-1.81-1-2.72-2.29-2.72-3.94a4.61,4.61,0,0,1,.17-1.28,4.22,4.22,0,0,1,.42-.95l4.58.67a1.79,1.79,0,0,0-.23.48,2.69,2.69,0,0,0-.11.81c0,.78.53,1.35,1.58,1.7a13.89,13.89,0,0,0,4.23.52,17.23,17.23,0,0,0,3.24-.26,5.14,5.14,0,0,0,2-.76,1.42,1.42,0,0,0,.67-1.16,1.22,1.22,0,0,0-.89-1.28,9.94,9.94,0,0,0-2.13-.38l-7.66-.7a6.57,6.57,0,0,1-3.37-1.21,3.2,3.2,0,0,1-1.32-2.66,3.43,3.43,0,0,1,.54-1.87,6,6,0,0,1,1.25-1.43,3.32,3.32,0,0,1,1.19-.71l2.85,1.4a2,2,0,0,0-.94.52,1.36,1.36,0,0,0-.54,1.08,1.19,1.19,0,0,0,.53,1,4.54,4.54,0,0,0,2,.54Zm2.26-18.18h4.49l-1.83,7.83a12.23,12.23,0,0,1-1.65,4,8.1,8.1,0,0,1-3,2.76,10.18,10.18,0,0,1-4.79,1,12.44,12.44,0,0,1-5.18-1,7.71,7.71,0,0,1-3.35-2.75,7.22,7.22,0,0,1-1.18-4.1,7.36,7.36,0,0,1,1.21-4.19,8.18,8.18,0,0,1,3.32-2.84,11,11,0,0,1,4.8-1,10.27,10.27,0,0,1,3.9.71,7.6,7.6,0,0,1,2.76,1.85,3.92,3.92,0,0,1,1.11,2.43l-1.12.21Zm-6.84,11.69a6.11,6.11,0,0,0,2.53-.48,3.75,3.75,0,0,0,1.65-1.38,3.93,3.93,0,0,0,.59-2.19,4,4,0,0,0-.59-2.19,3.77,3.77,0,0,0-1.65-1.39,6.56,6.56,0,0,0-5,0,4,4,0,0,0-1.7,1.41,3.89,3.89,0,0,0-.62,2.2,3.84,3.84,0,0,0,.6,2.17,3.77,3.77,0,0,0,1.67,1.37A6.33,6.33,0,0,0,101.35,253.37Z"/><path class="cls-2" d="M118.45,238a3.49,3.49,0,0,1-2.12-.66,2.14,2.14,0,0,1-.9-1.83,2.11,2.11,0,0,1,.9-1.81,3.55,3.55,0,0,1,2.12-.64,3.46,3.46,0,0,1,2.09.64,2.1,2.1,0,0,1,.89,1.81,2.13,2.13,0,0,1-.89,1.83A3.41,3.41,0,0,1,118.45,238ZM116,261.86V241.68h4.94v20.18Z"/><path class="cls-2" d="M143.55,241.68l-6.33,20.18h-6.7L124,241.68h5.17l5.07,18.43h-.8l4.9-18.43Z"/><path class="cls-2" d="M147.71,253.38v-3.55h14.12l-.57.95v-.49a5.31,5.31,0,0,0-.59-2.46,4.59,4.59,0,0,0-1.79-1.87,5.9,5.9,0,0,0-3-.71,6.27,6.27,0,0,0-3.16.77,5.23,5.23,0,0,0-2.07,2.22,7.51,7.51,0,0,0-.73,3.45,8.33,8.33,0,0,0,.7,3.57,5.13,5.13,0,0,0,2.06,2.28,6.58,6.58,0,0,0,3.32.78,9.73,9.73,0,0,0,2.3-.24,4.92,4.92,0,0,0,1.58-.68,3.26,3.26,0,0,0,.93-.92,2.24,2.24,0,0,0,.37-1h5a5.72,5.72,0,0,1-.84,2.48,7.68,7.68,0,0,1-2.05,2.19,10.49,10.49,0,0,1-3.18,1.56,14.64,14.64,0,0,1-4.26.57,11.71,11.71,0,0,1-5.68-1.32,9.62,9.62,0,0,1-3.8-3.71,11.66,11.66,0,0,1,0-10.93,9.66,9.66,0,0,1,3.83-3.67,11.7,11.7,0,0,1,5.63-1.32,11.38,11.38,0,0,1,5.65,1.33,9.27,9.27,0,0,1,3.68,3.69,11.32,11.32,0,0,1,1.29,5.5c0,.27,0,.55,0,.86a4.13,4.13,0,0,1-.06.66Z"/><path class="cls-2" d="M178.68,262.28a14.65,14.65,0,0,1-3.43-.4,10,10,0,0,1-2.89-1.2,6.17,6.17,0,0,1-2-2,5.14,5.14,0,0,1-.73-2.75v-.44h5v.34a2,2,0,0,0,1.14,1.86,6.48,6.48,0,0,0,3.08.61,8.66,8.66,0,0,0,2-.22,3.9,3.9,0,0,0,1.52-.71,1.51,1.51,0,0,0,.58-1.21,1.76,1.76,0,0,0-1.23-1.71,17.8,17.8,0,0,0-3.85-.93,25.61,25.61,0,0,1-2.85-.67,10.89,10.89,0,0,1-2.55-1.12,5.72,5.72,0,0,1-1.84-1.75,4.41,4.41,0,0,1-.7-2.54,5,5,0,0,1,1.19-3.36A7.46,7.46,0,0,1,174.3,242a13.26,13.26,0,0,1,4.42-.7,12,12,0,0,1,4.31.76,7.8,7.8,0,0,1,3.22,2.18,5.09,5.09,0,0,1,1.23,3.44V248h-4.94v-.25a2,2,0,0,0-.55-1.43,3.39,3.39,0,0,0-1.43-.81,6.21,6.21,0,0,0-1.84-.27,9.17,9.17,0,0,0-1.77.18,3.75,3.75,0,0,0-1.52.63,1.47,1.47,0,0,0-.61,1.24,1.49,1.49,0,0,0,.63,1.24,5.4,5.4,0,0,0,1.75.79c.75.21,1.61.39,2.58.56a26.79,26.79,0,0,1,2.81.62,12.25,12.25,0,0,1,2.59,1.07,5.61,5.61,0,0,1,1.91,1.74,4.57,4.57,0,0,1,.73,2.65,5.14,5.14,0,0,1-.76,2.85,6.23,6.23,0,0,1-2.06,2,10,10,0,0,1-2.94,1.12A15,15,0,0,1,178.68,262.28Z"/><path class="cls-2" d="M208.7,262.24a7.81,7.81,0,0,1-3.56-.72,5.77,5.77,0,0,1-2.22-1.9,7.85,7.85,0,0,1-1.15-2.61,12.6,12.6,0,0,1-.33-2.85V241.68h5v11.19a9.45,9.45,0,0,0,.32,2.5,3.55,3.55,0,0,0,1.19,1.85,3.77,3.77,0,0,0,2.44.71A4,4,0,0,0,213,257a5.88,5.88,0,0,0,1.69-2.23,6.83,6.83,0,0,0,.59-2.74l1.71,1.14a10.15,10.15,0,0,1-.57,3.47,8.94,8.94,0,0,1-1.65,2.88,7.7,7.7,0,0,1-2.61,2A8.15,8.15,0,0,1,208.7,262.24Zm6.57-.38V241.68h5v20.18Z"/><path class="cls-2" d="M233.25,262.28a14.59,14.59,0,0,1-3.43-.4,9.88,9.88,0,0,1-2.89-1.2,6.07,6.07,0,0,1-2-2,5.14,5.14,0,0,1-.74-2.75v-.44h5v.34a2,2,0,0,0,1.13,1.86,6.55,6.55,0,0,0,3.09.61,8.51,8.51,0,0,0,2-.22,3.88,3.88,0,0,0,1.53-.71,1.5,1.5,0,0,0,.57-1.21,1.75,1.75,0,0,0-1.22-1.71,17.8,17.8,0,0,0-3.85-.93,25.61,25.61,0,0,1-2.85-.67,10.54,10.54,0,0,1-2.55-1.12,5.76,5.76,0,0,1-1.85-1.75,4.48,4.48,0,0,1-.69-2.54,5,5,0,0,1,1.19-3.36,7.4,7.4,0,0,1,3.19-2.06,13.26,13.26,0,0,1,4.42-.7,12,12,0,0,1,4.31.76,7.86,7.86,0,0,1,3.22,2.18,5.09,5.09,0,0,1,1.23,3.44V248h-5v-.25a1.94,1.94,0,0,0-.55-1.43,3.3,3.3,0,0,0-1.42-.81,6.21,6.21,0,0,0-1.84-.27,9.17,9.17,0,0,0-1.77.18,3.69,3.69,0,0,0-1.52.63,1.44,1.44,0,0,0-.61,1.24,1.49,1.49,0,0,0,.63,1.24,5.4,5.4,0,0,0,1.75.79,25.73,25.73,0,0,0,2.58.56,26.61,26.61,0,0,1,2.8.62,12.12,12.12,0,0,1,2.6,1.07,5.61,5.61,0,0,1,1.91,1.74,4.64,4.64,0,0,1,.73,2.65,5.22,5.22,0,0,1-.76,2.85,6.32,6.32,0,0,1-2.06,2,10,10,0,0,1-2.94,1.12A15.09,15.09,0,0,1,233.25,262.28Z"/><path class="cls-2" d="M92.36,314.86V294.68h5v20.18Zm12.54,0V303.29a14,14,0,0,0-.09-1.55,4.51,4.51,0,0,0-.42-1.49,2.55,2.55,0,0,0-1-1.11,3.38,3.38,0,0,0-1.85-.43,3.75,3.75,0,0,0-1.93.46,4,4,0,0,0-1.29,1.24,5.39,5.39,0,0,0-.73,1.75,8.89,8.89,0,0,0-.23,2L95.69,303a10.27,10.27,0,0,1,.93-4.45,7.57,7.57,0,0,1,2.65-3.1,7.16,7.16,0,0,1,4.08-1.15,6.56,6.56,0,0,1,3.85,1,5.69,5.69,0,0,1,2,2.75,11.49,11.49,0,0,1,.61,3.88v12.88Zm12.47,0V303.25a12.54,12.54,0,0,0-.1-1.61,4.57,4.57,0,0,0-.41-1.46,2.51,2.51,0,0,0-1-1.06,3.56,3.56,0,0,0-1.86-.41,3.85,3.85,0,0,0-1.95.45,3.51,3.51,0,0,0-1.26,1.22,5.65,5.65,0,0,0-.7,1.71,8.79,8.79,0,0,0-.22,1.9l-1.67-1.1a10.2,10.2,0,0,1,.91-4.35,7.31,7.31,0,0,1,2.63-3.07,7.21,7.21,0,0,1,4.06-1.13,6.7,6.7,0,0,1,3.82,1,5.53,5.53,0,0,1,2.1,2.65,10.43,10.43,0,0,1,.66,3.83v13.07Z"/><path class="cls-2" d="M137.11,315.26a11.48,11.48,0,0,1-5.62-1.34,9.67,9.67,0,0,1-3.81-3.72,11.37,11.37,0,0,1,0-10.86,9.61,9.61,0,0,1,3.81-3.67,12.54,12.54,0,0,1,11.24,0,9.75,9.75,0,0,1,3.81,3.67,11.37,11.37,0,0,1,0,10.86,9.8,9.8,0,0,1-3.81,3.72A11.48,11.48,0,0,1,137.11,315.26Zm0-4.09a5.56,5.56,0,0,0,3-.8,5.37,5.37,0,0,0,2-2.23,7.28,7.28,0,0,0,.73-3.37,7.17,7.17,0,0,0-.73-3.35,5.29,5.29,0,0,0-2-2.2,6.22,6.22,0,0,0-6,0,5.34,5.34,0,0,0-2,2.2,7.29,7.29,0,0,0-.72,3.35,7.41,7.41,0,0,0,.72,3.37,5.42,5.42,0,0,0,2,2.23A5.58,5.58,0,0,0,137.11,311.17Z"/><path class="cls-2" d="M152,314.86V294.68h5v6.71l-1.16-.65a9.81,9.81,0,0,1,.7-2.48,7.08,7.08,0,0,1,1.37-2.05,6,6,0,0,1,2.07-1.38,7.33,7.33,0,0,1,2.78-.49,8.22,8.22,0,0,1,1.94.18,4.2,4.2,0,0,1,.89.29l-.91,4.58a3.62,3.62,0,0,0-.77-.33,5,5,0,0,0-1.55-.2,5.67,5.67,0,0,0-2.58.52,4.34,4.34,0,0,0-1.64,1.41,5.67,5.67,0,0,0-.87,1.94,8.4,8.4,0,0,0-.27,2.1v10Z"/><path class="cls-2" d="M170.26,306.38v-3.55h14.12l-.57.95v-.49a5.31,5.31,0,0,0-.59-2.46,4.63,4.63,0,0,0-1.78-1.87,6,6,0,0,0-3-.71,6.31,6.31,0,0,0-3.17.77,5.23,5.23,0,0,0-2.07,2.22,7.51,7.51,0,0,0-.73,3.45,8.33,8.33,0,0,0,.7,3.57,5.13,5.13,0,0,0,2.06,2.28,6.6,6.6,0,0,0,3.32.78,9.67,9.67,0,0,0,2.3-.24,5,5,0,0,0,1.59-.68,3.26,3.26,0,0,0,.93-.92,2.36,2.36,0,0,0,.37-1h5a5.74,5.74,0,0,1-.85,2.48,7.78,7.78,0,0,1-2,2.19,10.66,10.66,0,0,1-3.19,1.56,14.55,14.55,0,0,1-4.26.57,11.71,11.71,0,0,1-5.68-1.32,9.59,9.59,0,0,1-3.79-3.71,11.59,11.59,0,0,1,0-10.93,9.6,9.6,0,0,1,3.83-3.67,11.63,11.63,0,0,1,5.62-1.32,11.38,11.38,0,0,1,5.65,1.33,9.2,9.2,0,0,1,3.68,3.69,11.32,11.32,0,0,1,1.29,5.5c0,.27,0,.55,0,.86a4.13,4.13,0,0,1-.06.66Z"/><path class="cls-2" d="M94.82,367.86V351.67H90.54v-4h4.28v-1.81a9.18,9.18,0,0,1,.47-3.1,7.05,7.05,0,0,1,1.29-2.27A6.91,6.91,0,0,1,98.45,339a8.49,8.49,0,0,1,2.27-.85,10.89,10.89,0,0,1,2.4-.26,8.53,8.53,0,0,1,1.74.13,4.34,4.34,0,0,1,.81.23v4a5.39,5.39,0,0,0-.79-.19,7.69,7.69,0,0,0-1.21-.1,4.86,4.86,0,0,0-1.92.33,2.76,2.76,0,0,0-1.18.92,3.88,3.88,0,0,0-.59,1.36,8.1,8.1,0,0,0-.17,1.68v1.41h5.59v4H99.81v16.19ZM111,344a3.49,3.49,0,0,1-2.12-.66,2.14,2.14,0,0,1-.9-1.83,2.11,2.11,0,0,1,.9-1.81A3.55,3.55,0,0,1,111,339a3.46,3.46,0,0,1,2.09.64,2.1,2.1,0,0,1,.89,1.81,2.13,2.13,0,0,1-.89,1.83A3.41,3.41,0,0,1,111,344Zm-2.49,23.9V347.68h4.94v20.18Z"/><path class="cls-2" d="M118.41,367.86V347.68h5v20.18Zm14.27,0V356.52a7.32,7.32,0,0,0-.39-2.47,3.4,3.4,0,0,0-1.33-1.72,4.68,4.68,0,0,0-2.59-.62,4.71,4.71,0,0,0-4.32,2.59,5.82,5.82,0,0,0-.64,2.78l-1.69-1a8.7,8.7,0,0,1,1.15-4.49,8.4,8.4,0,0,1,7.38-4.21,8.21,8.21,0,0,1,4.1,1,6.06,6.06,0,0,1,2.5,2.7,9.21,9.21,0,0,1,.85,4.1v12.77Z"/><path class="cls-2" d="M149.42,368.28a10.15,10.15,0,0,1-4-.72,6.07,6.07,0,0,1-2.68-2.06,5.39,5.39,0,0,1-1-3.25,5.14,5.14,0,0,1,1.13-3.41,7.37,7.37,0,0,1,3-2.07,15.83,15.83,0,0,1,4.26-.94c2.3-.23,3.91-.45,4.83-.65s1.38-.55,1.38-1v0a2.27,2.27,0,0,0-1.2-2.05,6.56,6.56,0,0,0-3.38-.72,6.36,6.36,0,0,0-3.52.81,2.81,2.81,0,0,0-1.23,2.55h-4.94a6.37,6.37,0,0,1,1.27-4,7.82,7.82,0,0,1,3.46-2.5,13.76,13.76,0,0,1,5-.85,14,14,0,0,1,4.77.78,7.94,7.94,0,0,1,3.48,2.35,6,6,0,0,1,1.31,3.94v9.19c0,.48,0,1,0,1.42a7,7,0,0,0,.2,1.24,4.3,4.3,0,0,0,.46,1,3.79,3.79,0,0,0,.42.57h-4.94a3.13,3.13,0,0,1-.37-.52,5.15,5.15,0,0,1-.43-.91,7.5,7.5,0,0,1-.29-1.22,10.79,10.79,0,0,1-.09-1.46l1,.69a5.54,5.54,0,0,1-1.74,2,8.66,8.66,0,0,1-2.78,1.34A12.33,12.33,0,0,1,149.42,368.28Zm1.22-3.94a7.53,7.53,0,0,0,2.88-.53,4.76,4.76,0,0,0,2.15-1.64,4.68,4.68,0,0,0,.82-2.86v-2.7L157.7,358a16.87,16.87,0,0,1-2.92.75c-1.14.2-2.29.35-3.46.46A9.82,9.82,0,0,0,148,360a1.93,1.93,0,0,0-1.13,1.86,2.1,2.1,0,0,0,1,1.89A5.34,5.34,0,0,0,150.64,364.34Z"/><path class="cls-2" d="M166.12,367.86V347.68h5v20.18Zm14.27,0V356.52a7.32,7.32,0,0,0-.39-2.47,3.4,3.4,0,0,0-1.33-1.72,4.7,4.7,0,0,0-2.59-.62,4.8,4.8,0,0,0-2.57.69,4.86,4.86,0,0,0-1.75,1.9,5.82,5.82,0,0,0-.64,2.78l-1.69-1a8.7,8.7,0,0,1,1.15-4.49,8.37,8.37,0,0,1,7.38-4.21,8.17,8.17,0,0,1,4.09,1,6,6,0,0,1,2.51,2.7,9.35,9.35,0,0,1,.85,4.1v12.77Z"/><path class="cls-2" d="M200.19,368.28a11.87,11.87,0,0,1-5.65-1.31,9.65,9.65,0,0,1-3.83-3.69,10.79,10.79,0,0,1-1.39-5.57,10.57,10.57,0,0,1,1.39-5.51,9.3,9.3,0,0,1,3.83-3.6,12.21,12.21,0,0,1,5.65-1.26,11.86,11.86,0,0,1,4.24.7,9.54,9.54,0,0,1,3.1,1.87,8.47,8.47,0,0,1,1.93,2.57,6.47,6.47,0,0,1,.66,2.78v.15h-5a1.83,1.83,0,0,0,0-.21l0-.22a3.64,3.64,0,0,0-.78-1.76,4.5,4.5,0,0,0-1.67-1.27,6.21,6.21,0,0,0-2.53-.47,6.07,6.07,0,0,0-2.88.69,5.12,5.12,0,0,0-2.07,2.08,7.11,7.11,0,0,0-.77,3.46,7.47,7.47,0,0,0,.76,3.49,5.36,5.36,0,0,0,2.06,2.18,5.72,5.72,0,0,0,2.9.75,6.26,6.26,0,0,0,2.76-.52,3.89,3.89,0,0,0,1.63-1.4,4.16,4.16,0,0,0,.63-1.93h5a6.76,6.76,0,0,1-.64,2.82,8.32,8.32,0,0,1-1.9,2.59,9.23,9.23,0,0,1-3.11,1.88A12,12,0,0,1,200.19,368.28Z"/><path class="cls-2" d="M216.64,344a3.49,3.49,0,0,1-2.12-.66,2.14,2.14,0,0,1-.9-1.83,2.11,2.11,0,0,1,.9-1.81,3.55,3.55,0,0,1,2.12-.64,3.46,3.46,0,0,1,2.09.64,2.1,2.1,0,0,1,.89,1.81,2.13,2.13,0,0,1-.89,1.83A3.41,3.41,0,0,1,216.64,344Zm-2.49,23.9V347.68h4.94v20.18Z"/><path class="cls-2" d="M231,368.28a10.15,10.15,0,0,1-4-.72,6,6,0,0,1-2.68-2.06,5.39,5.39,0,0,1-1-3.25,5.14,5.14,0,0,1,1.13-3.41,7.31,7.31,0,0,1,3-2.07,15.83,15.83,0,0,1,4.26-.94c2.3-.23,3.91-.45,4.83-.65s1.38-.55,1.38-1v0a2.27,2.27,0,0,0-1.2-2.05,6.58,6.58,0,0,0-3.38-.72,6.36,6.36,0,0,0-3.52.81,2.81,2.81,0,0,0-1.23,2.55h-4.94a6.43,6.43,0,0,1,1.26-4,7.91,7.91,0,0,1,3.47-2.5,13.76,13.76,0,0,1,5-.85,14,14,0,0,1,4.77.78,7.85,7.85,0,0,1,3.47,2.35,6,6,0,0,1,1.31,3.94v9.19c0,.48,0,1,0,1.42a6.18,6.18,0,0,0,.2,1.24,4.3,4.3,0,0,0,.46,1,3.2,3.2,0,0,0,.42.57h-4.94a2.63,2.63,0,0,1-.37-.52,4.53,4.53,0,0,1-.43-.91,7.5,7.5,0,0,1-.29-1.22,10.79,10.79,0,0,1-.09-1.46l1,.69a5.54,5.54,0,0,1-1.74,2,8.61,8.61,0,0,1-2.79,1.34A12.21,12.21,0,0,1,231,368.28Zm1.21-3.94a7.58,7.58,0,0,0,2.89-.53,4.82,4.82,0,0,0,2.15-1.64,4.75,4.75,0,0,0,.82-2.86v-2.7l1.21,1.37a16.87,16.87,0,0,1-2.92.75c-1.14.2-2.3.35-3.46.46a9.76,9.76,0,0,0-3.37.78,1.93,1.93,0,0,0-1.13,1.86,2.1,2.1,0,0,0,1,1.89A5.33,5.33,0,0,0,232.16,364.34Z"/><path class="cls-2" d="M252.85,338.16v29.7h-4.92v-29.7Z"/><path class="cls-2" d="M267.47,367.86v-29.7h5v29.7Zm14.28,0v-11a6.46,6.46,0,0,0-1-3.85,3.89,3.89,0,0,0-3.34-1.34,5.38,5.38,0,0,0-2.69.62,4.18,4.18,0,0,0-1.7,1.71,5.39,5.39,0,0,0-.59,2.55l-1.82-1a8.31,8.31,0,0,1,1.09-4.28,7.79,7.79,0,0,1,3-2.94,9.09,9.09,0,0,1,4.45-1.06,7.1,7.1,0,0,1,5.6,2.17,8.76,8.76,0,0,1,1.94,6.06v12.29Z"/><path class="cls-2" d="M293.44,359.38v-3.55h14.12l-.57.95v-.49a5.31,5.31,0,0,0-.59-2.46,4.65,4.65,0,0,0-1.79-1.87,5.92,5.92,0,0,0-3-.71,6.24,6.24,0,0,0-3.16.77,5.12,5.12,0,0,0-2.07,2.22,7.51,7.51,0,0,0-.74,3.45,8.33,8.33,0,0,0,.71,3.57,5.08,5.08,0,0,0,2.06,2.28,6.55,6.55,0,0,0,3.32.78,9.58,9.58,0,0,0,2.29-.24,4.88,4.88,0,0,0,1.59-.68,3.26,3.26,0,0,0,.93-.92,2.36,2.36,0,0,0,.37-1h5A5.74,5.74,0,0,1,311,364a7.5,7.5,0,0,1-2,2.19,10.49,10.49,0,0,1-3.18,1.56,14.67,14.67,0,0,1-4.27.57,11.74,11.74,0,0,1-5.68-1.32,9.66,9.66,0,0,1-3.79-3.71,11.59,11.59,0,0,1,0-10.93,9.66,9.66,0,0,1,3.83-3.67,11.66,11.66,0,0,1,5.62-1.32,11.42,11.42,0,0,1,5.66,1.33,9.18,9.18,0,0,1,3.67,3.69,11.32,11.32,0,0,1,1.3,5.5c0,.27,0,.55,0,.86s0,.52-.06.66Z"/><path class="cls-2" d="M321.46,338.16v29.7h-4.92v-29.7Z"/><path class="cls-2" d="M326.57,376.16V347.68h5v28.48Zm11.37-7.88a8.17,8.17,0,0,1-4.36-1.23,9.19,9.19,0,0,1-3.23-3.35,9.41,9.41,0,0,1-1.23-4.79v-.27l2.47-.05v.19a4.8,4.8,0,0,0,.74,2.63,5.37,5.37,0,0,0,1.93,1.8,5.31,5.31,0,0,0,6.26-.84,7.81,7.81,0,0,0,0-9.3,5.15,5.15,0,0,0-3.73-1.48,5.3,5.3,0,0,0-2.52.64,5.38,5.38,0,0,0-1.94,1.76,4.6,4.6,0,0,0-.75,2.62l-2.47-.11a9.11,9.11,0,0,1,1.23-4.75,8.88,8.88,0,0,1,3.23-3.24,8.48,8.48,0,0,1,4.36-1.17,9.15,9.15,0,0,1,4.57,1.2,8.9,8.9,0,0,1,3.42,3.51,11.5,11.5,0,0,1,1.3,5.66,12.07,12.07,0,0,1-1.28,5.8,8.69,8.69,0,0,1-3.38,3.56A9.19,9.19,0,0,1,337.94,368.28Z"/><path class="cls-2" d="M353.82,368.39a2.8,2.8,0,0,1-2.81-2.81,2.72,2.72,0,0,1,.82-2,2.67,2.67,0,0,1,2-.82,2.8,2.8,0,0,1,2.81,2.81,2.69,2.69,0,0,1-.82,2A2.73,2.73,0,0,1,353.82,368.39Zm2.47-28.52-1,20.56h-3.06l-1-20.56Z"/><path class="cls-2" d="M363.87,344.62a2.74,2.74,0,0,1-2-.72,2.54,2.54,0,0,1-.76-1.94,2.74,2.74,0,0,1,.83-2,3.21,3.21,0,0,1,2.35-.81,2.86,2.86,0,0,1,2.38,1,4.15,4.15,0,0,1,.83,2.67,5,5,0,0,1-.75,2.72,7.31,7.31,0,0,1-1.9,2,10.66,10.66,0,0,1-2.31,1.28L362,347.6a7.52,7.52,0,0,0,1.56-.86,5.46,5.46,0,0,0,1.26-1.23,2.35,2.35,0,0,0,.52-1.38,1.49,1.49,0,0,1-.45.3A2.18,2.18,0,0,1,363.87,344.62Zm7.71,0a2.74,2.74,0,0,1-2-.72,2.57,2.57,0,0,1-.75-1.94,2.71,2.71,0,0,1,.83-2,3.17,3.17,0,0,1,2.32-.81,2.92,2.92,0,0,1,2.41,1,4.15,4.15,0,0,1,.82,2.67,4.91,4.91,0,0,1-.76,2.72,7.31,7.31,0,0,1-1.9,2,10.16,10.16,0,0,1-2.3,1.28l-.59-1.24a7.39,7.39,0,0,0,1.54-.86,5.77,5.77,0,0,0,1.28-1.23,2.36,2.36,0,0,0,.53-1.38,1.54,1.54,0,0,1-.47.3A2.17,2.17,0,0,1,371.58,344.62Z"/><polyline class="cls-5" points="89.86 402.27 232.66 402.27 273.13 423.82 267.19 402.27 379.27 402.27"/><path class="cls-2" d="M266.4,555.35A62.39,62.39,0,0,1,271.81,539c3.94-7.51,5.32-9.85,7.21-12a47.36,47.36,0,0,1,5.32-4.78s.06-5,2.19-6.17a16.16,16.16,0,0,1,4.7-1.61v-4.68a18.13,18.13,0,0,1-4.61-3.23,23.82,23.82,0,0,1-2.63-3.27,18,18,0,0,1-6.55,2.82c-3.42.56-11.93-3.69-11.93-3.69s-2.49-1.64-3-3.5a20.41,20.41,0,0,1,0-11.44c1.56-5.09,4.77-16.14,4.77-16.14s2-11,2.87-13.08,4.21-9.53,8.77-12.14a40.6,40.6,0,0,1,18-5.57c7.84-.59,11.47-.17,15.6,2.53s6.83,5,9.87,12.49,8.85,23.93,8.85,23.93,3.41,11.36,2.34,14.42-1.32,3.16-2.75,4.12a18.9,18.9,0,0,1-6.33,2.48,24,24,0,0,1-6.33-.25,28.25,28.25,0,0,1-2.53,4.47,11.85,11.85,0,0,0-1.53,2.34l1.81,4.5a3.69,3.69,0,0,1,2.51.16,11.61,11.61,0,0,1,2.76,2.73l1.71,3.43.24,1.66a15,15,0,0,1,4.74,2.69c2,1.81,5.64,4.25,8.43,10.58a86.35,86.35,0,0,1,4.05,11l2,9.28s-9,5.66-36.74,6.13C280.51,559.71,266.4,555.35,266.4,555.35Z"/><path class="cls-2" d="M284,521.68l-16.73,5.13a24.68,24.68,0,0,1-7.7,1.39c-4.61.15-6.27-.66-6.27-.66a51.18,51.18,0,0,0,3.06-9.22,66.7,66.7,0,0,0,1.2-12c0-2.18.86-13.34.86-13.34l.24-17.76a50.78,50.78,0,0,0-.6-9.61c-.8-3.68-1-6.36-2.49-6.18s-1.51,4.42-1.51,4.42l.38,10.65v3.3s-1.15-.76-1.79-.55-2,2.14-2,2.14a3,3,0,0,0-2.21-1.24,3.94,3.94,0,0,0-2.6,1.24s-1.56-.63-2.3,0a9.32,9.32,0,0,0-2.27,5.44c.12,1.86-.56,2.67,0,3.67s.12,3.32.12,3.32-.49,4.75.45,6.61,1.95,2.7,2.16,3.95a4.07,4.07,0,0,1-.19,2.15s-.81-.44-1.88.87-5.54,7.78-7.34,12.43-3.08,7.74-2.44,11.59a19.44,19.44,0,0,0,1.89,6.47c.67,1.35,17.67,26.63,72.05,22.06C360.59,553.33,284,521.68,284,521.68Z"/><path class="cls-6" d="M283.77,503.45s-3.86,2.59-7.37,2.82-10.6-3.44-10.6-3.44-3-1.52-3.55-4.34a23.94,23.94,0,0,1,.38-12.09c1.53-5.11,4-12.42,4.69-16.23s2.74-12.8,4.37-15.56,4.63-8.36,10.62-10.48,10.62-3.73,17.46-3.81,10.88.55,14.78,4.51,7,7.19,10.44,18.49,6.33,16.84,7.19,20.94,2.08,9.06.41,11.69a11.6,11.6,0,0,1-8.38,4.74,31.82,31.82,0,0,1-6.24-.44,18.37,18.37,0,0,0,1.65-6.16,36.62,36.62,0,0,1,.87-5.75,4.4,4.4,0,0,0,3.08-.53,5.41,5.41,0,0,0,2.72-4.64c-.14-1.78-.72-3.95-2.56-4.71a17.55,17.55,0,0,1-2.82-1.41s-1.27,1.08-1.77.91-1.49-2.78-1.49-2.78.15-1.8-.64-1.89-2,1-2,1a22.05,22.05,0,0,1-1.17-5.26c-.25-2.84-.39-3.46-.39-3.46l-3.76,3.05a21.57,21.57,0,0,1-12.19,4.68c-5.78.24-7.65-1.08-11.22,0a39.07,39.07,0,0,0-5.23,1.89l-2,9.6a8.53,8.53,0,0,1-1.83-2.5A11.78,11.78,0,0,0,276,480s-3.42-.09-3.92,1.58-2.21,4.48.31,6.79,4.69,3,5.39,4.21,2.83,5.76,3.45,6.77S283.77,503.45,283.77,503.45Z"/><path d="M276.56,479.71c-3.15-.79-6,2.18-5.88,5.27a7.12,7.12,0,0,0,1.87,4.22,9.54,9.54,0,0,0,1.91,1.62c1,.63,2.11,1,2.87,1.86,1.31,1.54,2,3.81,2.88,5.59a40.43,40.43,0,0,0,3.15,5.3,21.32,21.32,0,0,0,8.79,7.37,20,20,0,0,0,20.56-2.63,21.29,21.29,0,0,0,6.1-8.55,22.56,22.56,0,0,0,1.38-5.37c.12-.95.17-1.91.26-2.87.05-.58,0-2.39.55-2.69.16-.09.81.1,1,.09a3.81,3.81,0,0,0,1.06-.19,4.64,4.64,0,0,0,1.72-1.06,7.24,7.24,0,0,0,2.06-4.05,6.14,6.14,0,0,0-5.82-6.91c-.63,0-.63,1,0,1a5.13,5.13,0,0,1,4.49,7.05,5,5,0,0,1-2.64,3c-.76.27-1.3,0-2,0a.84.84,0,0,0-.68.35c-.69.84-.62,2.61-.71,3.6a30.77,30.77,0,0,1-.69,5,21,21,0,0,1-4.54,8.76,18.61,18.61,0,0,1-18.27,5.68c-7.33-1.7-11.82-7.31-15.06-13.74a34,34,0,0,0-2.61-5.14c-1-1.36-2.72-1.77-4-2.8-1.56-1.27-2.91-3.3-2.56-5.41s2.41-3.95,4.59-3.4a.49.49,0,0,0,.26-1Z"/><path d="M299.08,495.16l2.37-.6a.49.49,0,0,0,.34-.6.5.5,0,0,0-.6-.35l-2.38.6a.49.49,0,0,0-.34.6.5.5,0,0,0,.61.35Z"/><path d="M290.64,510a24.51,24.51,0,0,1-.64,8.23.49.49,0,0,0,.95.27,24.83,24.83,0,0,0,.67-8.5c-.05-.62-1-.63-1,0Z"/><path d="M313.46,507.37l3.61,9c.24.58,1.19.32,1-.27l-3.61-9c-.24-.58-1.19-.33-1,.26Z"/><path d="M288.2,518.86c9.59,3.86,21.18,4.34,29.7-2.27.5-.39-.2-1.08-.7-.7-8.23,6.39-19.52,5.73-28.74,2-.59-.23-.84.72-.26,1Z"/><path d="M290.86,514.15a6.54,6.54,0,0,0-4,1.1,7.84,7.84,0,0,0-2.5,3.59,20.49,20.49,0,0,0-.91,3.17c-.14.62.82.88.95.26.42-1.89.94-4,2.26-5.51a5.32,5.32,0,0,1,4.24-1.63.49.49,0,0,0,0-1Z"/><path d="M315.74,512.24a4.87,4.87,0,0,1,4.17,1.61,10.65,10.65,0,0,1,1.84,3.16,7.59,7.59,0,0,1,.59,1.52c.21,1.28-.26,1.47-1,2a35.32,35.32,0,0,1-11.73,5.12c-8.16,2-18.55,1.63-25.34-3.86-.49-.4-1.2.3-.7.7,6.1,4.93,14.9,5.87,22.45,4.84A38.13,38.13,0,0,0,317.14,524a26.25,26.25,0,0,0,5.31-3.08c1.45-1.17.95-2.49.33-4a11.1,11.1,0,0,0-3.09-4.64,5.78,5.78,0,0,0-3.95-1,.5.5,0,0,0,0,1Z"/><path d="M322.63,520.11c13.1,5.65,16.53,20.72,19.12,33.35.13.62,1.08.36.95-.26-2.63-12.87-6.23-28.19-19.57-33.94-.57-.25-1.08.6-.5.85Z"/><path d="M276.52,480.35a6.51,6.51,0,0,0,2.35,4.79.49.49,0,0,0,.82-.22l1-5.28c.22-1.2.23-3.07.91-4.12.31-.48.76-.45,1.29-.54a13.2,13.2,0,0,0,2.93-1c2.91-1.14,6.48-.42,9.52-.33a21.61,21.61,0,0,0,14-4.08,29.54,29.54,0,0,0,2.36-2c.36-.33.72-.68,1.09-1a4.77,4.77,0,0,0,.73-.58l-.29-.16a1.21,1.21,0,0,1,.05.18,2.21,2.21,0,0,0,.07.47c.06.46.08.92.11,1.38.08,1.19.13,2.38.25,3.57.09.86.1,3.41,1.42,3.43.47,0,.81-.42,1.1-.73.12-.12.4-.58.6-.58,0,0,.3.92.35,1.14.25,1.13.21,2.63,1.36,3.3a2.5,2.5,0,0,0,2.82-.51c.47-.43-.23-1.13-.7-.7-1.18,1.05-2.11,0-2.34-1.22a14.2,14.2,0,0,0-.34-1.7c-.17-.5-.42-1.15-1-1.27a1.23,1.23,0,0,0-1,.42c-.18.16-.32.35-.49.52s-.17.24-.25.27,0,0,0,0c-.51-.27-.51-2.58-.55-3-.1-1.16-.14-2.32-.23-3.49-.06-.74,0-2.66-1.24-2.23a4.56,4.56,0,0,0-1.41,1.1c-.8.74-1.59,1.48-2.45,2.15a21.4,21.4,0,0,1-8.24,3.87,26.15,26.15,0,0,1-7.23.37c-2.78-.12-5.83-.59-8.48.49a17.16,17.16,0,0,1-3.24,1,1.83,1.83,0,0,0-1.28.73c-.68.95-.74,2.49-1,3.58l-1.16,6.25.82-.22a5.57,5.57,0,0,1-2.05-4.09c0-.64-1-.64-1,0Z"/><ellipse class="cls-7" cx="291.27" cy="484.79" rx="1.27" ry="1.95" transform="translate(-27.19 17.41) rotate(-3.27)"/><path class="cls-7" d="M289.61,484l2.9-.33a.51.51,0,0,0,.5-.49c0-.25-.22-.53-.5-.5l-2.9.34a.49.49,0,1,0,0,1Z"/><ellipse class="cls-7" cx="309.07" cy="483.77" rx="1.95" ry="1.27" transform="translate(-194.52 759.36) rotate(-86.12)"/><path class="cls-7" d="M307.58,482.78l2.92,0a.5.5,0,0,0,.5-.49.51.51,0,0,0-.5-.49l-2.92,0a.5.5,0,1,0,0,1Z"/><path d="M283.64,503c-2.79,1.51-5.73,3-9,2.71a15.32,15.32,0,0,1-4.81-1.64c-1.1-.49-2.21-1-3.26-1.54a7.58,7.58,0,0,1-4-5.31,23.18,23.18,0,0,1,.6-10.69c.9-3.58,2.23-7,3.3-10.57.91-3,1.56-6.07,2.19-9.14,1.2-5.9,2.53-11.89,6.54-16.6,4.15-4.88,10.13-7.25,16.29-8.4,6.47-1.21,13.67-2,19.67,1.21,4.93,2.65,8.27,7.26,10.46,12.31,1.44,3.31,2.56,6.76,3.8,10.14l4,10.91c1.94,5.29,4.12,11.39,3.42,17.11a6.41,6.41,0,0,1-1.18,3.25,8.27,8.27,0,0,1-2.58,1.78,15,15,0,0,1-10.39,1.4c-.62-.14-.89.81-.27,1a15.63,15.63,0,0,0,9.39-.69c1.78-.71,4-1.67,5-3.38,1.2-2,1.21-4.54,1-6.76a42.56,42.56,0,0,0-1.64-8.44c-.95-3.28-2.2-6.46-3.38-9.66l-4.43-12.07c-2.14-5.82-4.57-11.58-9.55-15.57a20.71,20.71,0,0,0-7.79-4c-3.58-.91-7.41-.56-11-.17-6.35.68-13,2.15-18.13,6.1s-7.92,10-9.37,16.39c-.76,3.29-1.32,6.63-2.14,9.91-1,3.81-2.37,7.49-3.5,11.26a30.72,30.72,0,0,0-1.62,11.24c.21,2.54.84,5.16,2.81,6.92s4.33,2.48,6.54,3.5a11.69,11.69,0,0,0,9.55.3,36,36,0,0,0,4-1.95c.55-.3.06-1.16-.5-.85Z"/><path d="M285.43,480.14a28.48,28.48,0,0,1,9.69-.7c.63.06.63-.92,0-1a29.82,29.82,0,0,0-10,.73.5.5,0,0,0,.27,1Z"/><path d="M303.91,479.82a28.42,28.42,0,0,1,9.56-.18c.63.1.89-.85.27-.95a29.54,29.54,0,0,0-10.1.18c-.62.12-.36,1.07.27.95Z"/><path d="M284.84,521.17c-5.62,1.39-11.09,3.19-16.63,4.84-4.67,1.39-9.75,2.42-14.54,1a.53.53,0,0,0-.28,1c4.79,1.41,9.92.51,14.61-.86,5.71-1.67,11.34-3.55,17.12-5,.66-.16.38-1.18-.28-1Z"/><path d="M243,504.21c1.08,2.18,2.23,4,4.7,4.66,3.44.93,6.79-1,9.81-2.46l-.78-.32a11,11,0,0,1,.23,3.71,45.92,45.92,0,0,1-.8,6.6,41.37,41.37,0,0,1-5.62,15c-.37.58.55,1.11.92.54a42.68,42.68,0,0,0,5.79-15.55,48.3,48.3,0,0,0,.77-6.56,12.15,12.15,0,0,0-.26-4,.55.55,0,0,0-.78-.32c-2.74,1.32-5.88,3.2-9,2.36-2.19-.6-3.12-2.26-4.06-4.17-.31-.62-1.22-.08-.92.53Z"/><path d="M243.23,503.49a16.1,16.1,0,0,0-4.26,4.84,55,55,0,0,0-4.51,8.34,33.15,33.15,0,0,0-2.75,8.72,18.43,18.43,0,0,0,1.83,10.73c.31.61,1.23.07.92-.54a17.3,17.3,0,0,1-1.52-11.16,37,37,0,0,1,2.73-7.86,55.79,55.79,0,0,1,4.05-7.44c1.09-1.66,2.33-3.62,4.05-4.72.57-.36,0-1.28-.54-.91Z"/><path d="M244.74,505.5a5.34,5.34,0,0,0-.42-3.66c-.63-1.33-1.64-2.41-2.09-3.83-.86-2.71-.39-5.67.08-8.41.11-.67-.91-1-1-.28a21.88,21.88,0,0,0-.32,8,9.89,9.89,0,0,0,1.56,3.53,5.4,5.4,0,0,1,1.2,4.35.53.53,0,0,0,1,.28Z"/><path d="M258.11,505.63c.65-6.49,1-13,1.05-19.52.07-5.6.13-11.26-.21-16.85-.18-2.88-.37-6.21-1.7-8.83-.42-.83-1.25-1.84-2.32-1.52s-1.23,1.9-1.33,2.81a47.46,47.46,0,0,0,.08,7.54c.16,3.12.34,6.24.27,9.36a.53.53,0,0,0,1.06,0c.1-4.75-.42-9.47-.45-14.22,0-.81,0-1.63.08-2.44.05-.46.07-1.54.46-1.89.72-.63,1.44,1.31,1.61,1.82a29.2,29.2,0,0,1,1.21,8.1c.22,5.37.24,10.75.18,16.12-.07,6.52-.4,13-1.06,19.52-.07.68,1,.68,1.07,0Z"/><path d="M254.89,477.49a2.08,2.08,0,0,0-2.13-.65,3.22,3.22,0,0,0-2.23,1.57c-1.16,1.72-1.31,3.94-1.41,5.95,0,.68,1,.68,1.06,0a12,12,0,0,1,1-4.92,2.69,2.69,0,0,1,1.49-1.49,2.19,2.19,0,0,1,.88-.09,2.13,2.13,0,0,1,.31.07l.14.08s0,0,0,0a.53.53,0,0,0,.92-.54Z"/><path d="M250.84,479a2.8,2.8,0,0,0-2.4-1.37,3.68,3.68,0,0,0-2.76,1.1,7.4,7.4,0,0,0-1.68,3,13.76,13.76,0,0,0-.76,4.11.53.53,0,0,0,1.06,0,12.69,12.69,0,0,1,.62-3.51,7.11,7.11,0,0,1,1.22-2.52,2.77,2.77,0,0,1,2-1.11,1.82,1.82,0,0,1,1.75.84c.33.6,1.25.07.92-.53Z"/><path d="M245.66,479c-1.16-.79-2.52-.05-3.24,1a11.92,11.92,0,0,0-1.68,4,10.55,10.55,0,0,0-.35,3.06,3.53,3.53,0,0,0,.7,2.18,2.11,2.11,0,0,0,2.69.06c.59-.33.06-1.25-.54-.92s-1.25.55-1.57-.2a4.34,4.34,0,0,1-.21-2,12.66,12.66,0,0,1,1-4c.38-.88,1.36-3.14,2.68-2.24.56.38,1.09-.54.53-.92Z"/><path d="M252.79,482.24a11.83,11.83,0,0,0,.4,3.93.53.53,0,0,0,1-.28,11.2,11.2,0,0,1-.36-3.65.53.53,0,0,0-.53-.53.55.55,0,0,0-.53.53Z"/><path d="M255.56,485.59a59,59,0,0,0-6.91-.35,19.38,19.38,0,0,0-3.14.15,2.43,2.43,0,0,0-1.86,1.31,3,3,0,0,0,1.66,3.82,5.6,5.6,0,0,0,2.56.42c.75,0,1.72-.22,2.25.43l-.08-.64-1.78,3a.53.53,0,0,0,.92.53l1.78-3a.55.55,0,0,0-.09-.64c-1-1.2-2.69-.6-4-.76s-3-1.25-2.23-2.74c.35-.72,1.28-.73,2-.76,1-.05,1.94-.06,2.92-.06a57.92,57.92,0,0,1,6,.35c.68.07.68-1,0-1.06Z"/><path d="M304.28,498.15A32.71,32.71,0,0,0,299,498a13.12,13.12,0,0,0-4.07.74A4.84,4.84,0,0,0,292.2,501c-.6,1.27.31,2.16,1.28,2.89a10.54,10.54,0,0,0,7.08,2,9.67,9.67,0,0,0,6.52-2.89c.73-.84,1.39-2.16.9-3.27-.61-1.37-2.33-1.38-3.59-1.62-.52-.09-.75.71-.22.81.94.17,2.56.1,3,1.14.41.89-.36,2-1,2.63a9.19,9.19,0,0,1-5.47,2.35,10,10,0,0,1-5.85-1.22,8.16,8.16,0,0,1-1.25-.86c-.62-.52-1.06-1.11-.56-1.89a4.65,4.65,0,0,1,2.7-1.77,22.82,22.82,0,0,1,8.48-.37c.53.06.53-.78,0-.83Z"/></g></g></svg>