<svg xmlns="http://www.w3.org/2000/svg" viewBox="0 0 375 650"><defs><style>.cls-1,.cls-2{fill:#fff;}.cls-1{opacity:0.05;}</style></defs><g id="Layer_2" data-name="Layer 2"><g id="Layer_1-2" data-name="Layer 1"><rect class="cls-1" width="375" height="650" rx="20"/><path class="cls-2" d="M116.77,209.8,112.06,187h5.87L121.26,208h-.92L125.47,187h4.33l-5.23,22.83Zm15.74,0L127.19,187h4.32L136.7,208h-.93L139.08,187H145l-4.68,22.83Z"/><path class="cls-2" d="M148.61,209.8V176.2h5.65v33.6Zm16.16,0V197.4a7.29,7.29,0,0,0-1.1-4.36,4.38,4.38,0,0,0-3.78-1.51,6.24,6.24,0,0,0-3,.69,4.74,4.74,0,0,0-1.92,1.95,6,6,0,0,0-.67,2.88L152.2,196a9.45,9.45,0,0,1,1.23-4.85,8.83,8.83,0,0,1,3.43-3.32,10.23,10.23,0,0,1,5-1.21,8.08,8.08,0,0,1,6.35,2.46,10,10,0,0,1,2.19,6.85V209.8Z"/><path class="cls-2" d="M183.72,210.27a11.78,11.78,0,0,1-4.5-.8,6.89,6.89,0,0,1-3-2.34,6.11,6.11,0,0,1-1.09-3.67,5.79,5.79,0,0,1,1.27-3.86,8.29,8.29,0,0,1,3.46-2.34,17.66,17.66,0,0,1,4.81-1.07,50.92,50.92,0,0,0,5.47-.74c1-.24,1.56-.62,1.56-1.15v0a2.58,2.58,0,0,0-1.35-2.33,7.52,7.52,0,0,0-3.83-.81,7.27,7.27,0,0,0-4,.91,3.22,3.22,0,0,0-1.39,2.89h-5.59a7.24,7.24,0,0,1,1.43-4.54,8.88,8.88,0,0,1,3.93-2.83,15.43,15.43,0,0,1,5.65-1,16,16,0,0,1,5.4.88,8.94,8.94,0,0,1,3.93,2.67,6.72,6.72,0,0,1,1.49,4.45V205c0,.55,0,1.08.05,1.61a7.16,7.16,0,0,0,.23,1.41,5,5,0,0,0,.51,1.16,3.68,3.68,0,0,0,.48.64H193a3.72,3.72,0,0,1-.42-.59,6.07,6.07,0,0,1-.49-1,8.09,8.09,0,0,1-.32-1.39,11.65,11.65,0,0,1-.11-1.64l1.12.77a6.19,6.19,0,0,1-2,2.29,10,10,0,0,1-3.15,1.52A14.28,14.28,0,0,1,183.72,210.27Zm1.37-4.45a8.73,8.73,0,0,0,3.27-.6,5.49,5.49,0,0,0,2.43-1.86,5.3,5.3,0,0,0,.92-3.23v-3.06l1.38,1.55a18.63,18.63,0,0,1-3.31.85c-1.29.22-2.6.4-3.91.53a11,11,0,0,0-3.82.88,2.2,2.2,0,0,0-1.28,2.11,2.37,2.37,0,0,0,1.08,2.12A5.85,5.85,0,0,0,185.09,205.82Z"/><path class="cls-2" d="M212.55,210.23a13.47,13.47,0,0,1-2.5-.24,6.65,6.65,0,0,1-2.32-.88,4.68,4.68,0,0,1-1.7-1.89,7.19,7.19,0,0,1-.64-3.29V191.48H200V187h2.19a11.72,11.72,0,0,0,1.77-.1,1.43,1.43,0,0,0,.94-.46,2.12,2.12,0,0,0,.4-1.15,17.56,17.56,0,0,0,.1-2.18v-3.64h5.68V187h6.79v4.51h-6.79v10.73a7,7,0,0,0,.38,2.56,1.74,1.74,0,0,0,1.83,1,6.74,6.74,0,0,0,1.3-.13,5.05,5.05,0,0,0,.91-.26v4.43a7.86,7.86,0,0,1-1.18.3A9.24,9.24,0,0,1,212.55,210.23Z"/><path class="cls-2" d="M125.39,277.27a13.33,13.33,0,0,1-6.39-1.48,10.89,10.89,0,0,1-4.34-4.17,12.22,12.22,0,0,1-1.57-6.3,11.94,11.94,0,0,1,1.57-6.23A10.54,10.54,0,0,1,119,255a13.8,13.8,0,0,1,6.39-1.43,13.4,13.4,0,0,1,4.79.8,10.86,10.86,0,0,1,3.52,2.11,9.62,9.62,0,0,1,2.18,2.91,7.27,7.27,0,0,1,.75,3.15v.17H131a2.32,2.32,0,0,0,0-.24c0-.08,0-.17,0-.26a4.22,4.22,0,0,0-.88-2,5,5,0,0,0-1.9-1.43,7.46,7.46,0,0,0-6.11.24,5.75,5.75,0,0,0-2.35,2.36,8,8,0,0,0-.87,3.91,8.34,8.34,0,0,0,.86,3.94,6,6,0,0,0,2.33,2.48,6.54,6.54,0,0,0,3.28.85,7.22,7.22,0,0,0,3.13-.59,4.39,4.39,0,0,0,1.84-1.6,4.65,4.65,0,0,0,.71-2.18h5.63a7.64,7.64,0,0,1-.73,3.2,9.42,9.42,0,0,1-2.15,2.93,10.47,10.47,0,0,1-3.51,2.13A13.67,13.67,0,0,1,125.39,277.27Z"/><path class="cls-2" d="M152.52,277.25a13,13,0,0,1-6.36-1.51,11,11,0,0,1-4.31-4.21,12,12,0,0,1-1.56-6.15,11.87,11.87,0,0,1,1.56-6.13,11,11,0,0,1,4.31-4.16,14.15,14.15,0,0,1,12.72,0,11,11,0,0,1,4.32,4.16,12,12,0,0,1,1.55,6.13,12.11,12.11,0,0,1-1.55,6.15,11,11,0,0,1-4.32,4.21A13,13,0,0,1,152.52,277.25Zm0-4.62a6.39,6.39,0,0,0,3.42-.9,6.22,6.22,0,0,0,2.28-2.53,8.44,8.44,0,0,0,.82-3.82,8.31,8.31,0,0,0-.82-3.79,6,6,0,0,0-2.28-2.48,7,7,0,0,0-6.83,0,6,6,0,0,0-2.29,2.48,8.31,8.31,0,0,0-.81,3.79,8.44,8.44,0,0,0,.81,3.82,6.18,6.18,0,0,0,2.29,2.53A6.43,6.43,0,0,0,152.52,272.63Z"/><path class="cls-2" d="M177.63,277.23a8.76,8.76,0,0,1-4-.82,6.47,6.47,0,0,1-2.51-2.15,8.54,8.54,0,0,1-1.29-2.94,13.7,13.7,0,0,1-.38-3.23V254h5.68v12.66a10.59,10.59,0,0,0,.36,2.83,4,4,0,0,0,1.34,2.09,4.25,4.25,0,0,0,2.77.8,4.46,4.46,0,0,0,2.92-1,6.69,6.69,0,0,0,1.9-2.53,7.41,7.41,0,0,0,.68-3.09L187,267a11.72,11.72,0,0,1-.65,3.92,10,10,0,0,1-1.87,3.26,8.55,8.55,0,0,1-3,2.22A9.07,9.07,0,0,1,177.63,277.23Zm7.44-.43V254h5.66V276.8Z"/><path class="cls-2" d="M202.08,243.2v33.6h-5.57V243.2Z"/><path class="cls-2" d="M217.34,277.27a10.34,10.34,0,0,1-5.21-1.36,10,10,0,0,1-3.84-4,13.68,13.68,0,0,1-1.44-6.56,13,13,0,0,1,1.47-6.41,10.19,10.19,0,0,1,9-5.33,9.75,9.75,0,0,1,5,1.32,10,10,0,0,1,3.65,3.67,10.37,10.37,0,0,1,1.38,5.37v.35l-2.79.06v-.28a5.22,5.22,0,0,0-.85-3,6,6,0,0,0-2.2-2,6.1,6.1,0,0,0-7.06.94c-1.16,1.11-1.74,2.87-1.74,5.26s.58,4.14,1.74,5.27a5.83,5.83,0,0,0,4.21,1.7,5.75,5.75,0,0,0,2.91-.76,6,6,0,0,0,2.16-2.07,5.63,5.63,0,0,0,.83-3l2.79.13A11.2,11.2,0,0,1,226,272a10.43,10.43,0,0,1-3.6,3.85A9.29,9.29,0,0,1,217.34,277.27Zm7.21-.47V243.2h5.67v33.6Z"/><path class="cls-2" d="M129.45,341.54a14,14,0,0,1,3.55.76,5.18,5.18,0,0,1,2.39,1.66,4.73,4.73,0,0,1,.86,3,5.1,5.1,0,0,1-1.4,3.57,9.11,9.11,0,0,1-4.1,2.32,23.33,23.33,0,0,1-6.63.82q-5.72,0-8.79-1.65c-2-1.1-3.08-2.58-3.08-4.46a5.34,5.34,0,0,1,.19-1.44,4.17,4.17,0,0,1,.48-1.08l5.18.76a1.88,1.88,0,0,0-.26.55,3,3,0,0,0-.13.91q0,1.33,1.8,1.92a15.51,15.51,0,0,0,4.78.59,18.83,18.83,0,0,0,3.67-.3,5.64,5.64,0,0,0,2.23-.86,1.61,1.61,0,0,0,.77-1.31,1.38,1.38,0,0,0-1-1.44,11,11,0,0,0-2.41-.43l-8.67-.79a7.4,7.4,0,0,1-3.81-1.38,3.59,3.59,0,0,1-1.5-3,3.88,3.88,0,0,1,.62-2.11,6.71,6.71,0,0,1,1.4-1.62,3.93,3.93,0,0,1,1.36-.81l3.22,1.59a2.34,2.34,0,0,0-1.06.59,1.54,1.54,0,0,0-.61,1.22,1.33,1.33,0,0,0,.6,1.11,5.1,5.1,0,0,0,2.32.61ZM132,321h5.07L135,329.83a14,14,0,0,1-1.87,4.47,9.16,9.16,0,0,1-3.44,3.12,11.61,11.61,0,0,1-5.42,1.13,14.19,14.19,0,0,1-5.86-1.1,8.72,8.72,0,0,1-3.79-3.12,8.16,8.16,0,0,1-1.33-4.63,8.36,8.36,0,0,1,1.36-4.74,9.27,9.27,0,0,1,3.76-3.22,12.37,12.37,0,0,1,5.43-1.16,11.44,11.44,0,0,1,4.41.81,8.47,8.47,0,0,1,3.13,2.09,4.48,4.48,0,0,1,1.26,2.76l-1.27.23Zm-7.74,13.22a7,7,0,0,0,2.86-.54,4.11,4.11,0,0,0,1.87-1.56,4.91,4.91,0,0,0,0-4.95,4.21,4.21,0,0,0-1.87-1.58,7.49,7.49,0,0,0-5.66,0,4.58,4.58,0,0,0-1.92,1.6,4.78,4.78,0,0,0,0,4.95,4.19,4.19,0,0,0,1.89,1.54A7.14,7.14,0,0,0,124.27,334.19Z"/><path class="cls-2" d="M151.23,344.25a13,13,0,0,1-6.36-1.51,11,11,0,0,1-4.31-4.21,12,12,0,0,1-1.56-6.15,11.87,11.87,0,0,1,1.56-6.13,11,11,0,0,1,4.31-4.16,14.17,14.17,0,0,1,12.73,0,11.05,11.05,0,0,1,4.31,4.16,12,12,0,0,1,1.55,6.13,12.11,12.11,0,0,1-1.55,6.15,11,11,0,0,1-4.31,4.21A13,13,0,0,1,151.23,344.25Zm0-4.62a6.42,6.42,0,0,0,3.42-.9,6.22,6.22,0,0,0,2.28-2.53,8.44,8.44,0,0,0,.82-3.82,8.31,8.31,0,0,0-.82-3.79,6,6,0,0,0-2.28-2.48,7,7,0,0,0-6.83,0,6,6,0,0,0-2.29,2.48,8.31,8.31,0,0,0-.81,3.79,8.44,8.44,0,0,0,.81,3.82,6.18,6.18,0,0,0,2.29,2.53A6.41,6.41,0,0,0,151.23,339.63Z"/><path class="cls-2" d="M116.77,410.8,112.06,388h5.87l3.33,21h-.92l5.13-21h4.33l-5.23,22.83Zm15.74,0L127.19,388h4.32l5.19,21h-.93l3.31-21H145l-4.68,22.83Z"/><path class="cls-2" d="M148.61,410.8V388h5.65v7.59l-1.31-.73a10.57,10.57,0,0,1,.8-2.81,7.83,7.83,0,0,1,1.54-2.32,6.72,6.72,0,0,1,2.35-1.56,8.3,8.3,0,0,1,3.14-.56,9.11,9.11,0,0,1,2.2.21,3.77,3.77,0,0,1,1,.33l-1,5.18a4.33,4.33,0,0,0-.87-.38,5.57,5.57,0,0,0-1.75-.22,6.36,6.36,0,0,0-2.92.59,4.82,4.82,0,0,0-1.86,1.59,6.78,6.78,0,0,0-1,2.19,9.76,9.76,0,0,0-.3,2.38V410.8Z"/><path class="cls-2" d="M178.34,411.25a13,13,0,0,1-6.36-1.51,11,11,0,0,1-4.31-4.21,12,12,0,0,1-1.56-6.15,11.87,11.87,0,0,1,1.56-6.13,11,11,0,0,1,4.31-4.16,14.17,14.17,0,0,1,12.73,0,11.05,11.05,0,0,1,4.31,4.16,11.87,11.87,0,0,1,1.56,6.13,12,12,0,0,1-1.56,6.15,11,11,0,0,1-4.31,4.21A13,13,0,0,1,178.34,411.25Zm0-4.62a6.37,6.37,0,0,0,3.42-.9A6.15,6.15,0,0,0,184,403.2a8.44,8.44,0,0,0,.82-3.82,8.31,8.31,0,0,0-.82-3.79,6,6,0,0,0-2.28-2.48,7,7,0,0,0-6.83,0,6,6,0,0,0-2.29,2.48,8.31,8.31,0,0,0-.81,3.79,8.44,8.44,0,0,0,.81,3.82,6.18,6.18,0,0,0,2.29,2.53A6.43,6.43,0,0,0,178.34,406.63Z"/><path class="cls-2" d="M195.24,410.8V388h5.66V410.8Zm16.15,0V398a8.36,8.36,0,0,0-.44-2.78,3.84,3.84,0,0,0-1.51-1.94,5.19,5.19,0,0,0-2.93-.71,5.33,5.33,0,0,0-4.89,2.93,6.65,6.65,0,0,0-.72,3.15L199,397.43a10,10,0,0,1,1.3-5.09,9.54,9.54,0,0,1,8.36-4.76,9.19,9.19,0,0,1,4.63,1.08,6.88,6.88,0,0,1,2.84,3,10.68,10.68,0,0,1,.95,4.64V410.8Z"/><path class="cls-2" d="M237.85,408.54a14,14,0,0,1,3.55.76,5.18,5.18,0,0,1,2.39,1.66,4.73,4.73,0,0,1,.86,3,5.1,5.1,0,0,1-1.4,3.57,9.11,9.11,0,0,1-4.1,2.32,23.33,23.33,0,0,1-6.63.82q-5.72,0-8.79-1.65c-2-1.1-3.08-2.58-3.08-4.46a5,5,0,0,1,.2-1.44,4.17,4.17,0,0,1,.47-1.08l5.18.76a2.18,2.18,0,0,0-.26.55,3,3,0,0,0-.13.91q0,1.33,1.8,1.92a15.51,15.51,0,0,0,4.78.59,18.76,18.76,0,0,0,3.67-.3,5.69,5.69,0,0,0,2.24-.86,1.62,1.62,0,0,0,.76-1.31,1.38,1.38,0,0,0-1-1.44,11,11,0,0,0-2.41-.43l-8.67-.79a7.4,7.4,0,0,1-3.81-1.38,3.59,3.59,0,0,1-1.5-3,3.88,3.88,0,0,1,.62-2.11,6.74,6.74,0,0,1,1.41-1.62,3.82,3.82,0,0,1,1.35-.81l3.23,1.59a2.32,2.32,0,0,0-1.07.59,1.54,1.54,0,0,0-.61,1.22,1.33,1.33,0,0,0,.6,1.11,5.14,5.14,0,0,0,2.32.61ZM240.41,388h5.08l-2.07,8.86a14,14,0,0,1-1.87,4.47,9.16,9.16,0,0,1-3.44,3.12,11.61,11.61,0,0,1-5.42,1.13,14.22,14.22,0,0,1-5.86-1.1,8.72,8.72,0,0,1-3.79-3.12,8.16,8.16,0,0,1-1.33-4.63,8.36,8.36,0,0,1,1.36-4.74,9.34,9.34,0,0,1,3.76-3.22,12.37,12.37,0,0,1,5.43-1.16,11.4,11.4,0,0,1,4.41.81,8.47,8.47,0,0,1,3.13,2.09,4.48,4.48,0,0,1,1.26,2.76l-1.27.23Zm-7.74,13.22a7,7,0,0,0,2.86-.54,4.11,4.11,0,0,0,1.87-1.56,4.91,4.91,0,0,0,0-4.95,4.21,4.21,0,0,0-1.87-1.58,7.47,7.47,0,0,0-5.65,0,4.55,4.55,0,0,0-1.93,1.6,4.78,4.78,0,0,0,0,4.95,4.19,4.19,0,0,0,1.89,1.54A7.14,7.14,0,0,0,232.67,401.19Z"/><path class="cls-2" d="M255.87,402.55a9.54,9.54,0,0,1,.61-3.55,12.65,12.65,0,0,1,1.55-2.83c.62-.85,1.26-1.65,1.9-2.4s1.06-1.26,1.53-1.89a9.28,9.28,0,0,0,1.14-2,6,6,0,0,0,.43-2.3,4.75,4.75,0,0,0-1.15-3.47,4.58,4.58,0,0,0-3.41-1.17,4.64,4.64,0,0,0-3.65,1.44,6.36,6.36,0,0,0-1.29,4.36h-5a10.7,10.7,0,0,1,1.31-5.6,8,8,0,0,1,3.55-3.23,12.5,12.5,0,0,1,10-.05,8,8,0,0,1,3.42,3,9.25,9.25,0,0,1,1.26,5,8.32,8.32,0,0,1-.64,3.38,10.54,10.54,0,0,1-1.61,2.62c-.65.77-1.32,1.51-2,2.21A30.5,30.5,0,0,0,261.3,399a5.82,5.82,0,0,0-1.09,3.54Zm2.43,8.85a3.14,3.14,0,0,1-2.27-.92,3.2,3.2,0,0,1,0-4.51,3.11,3.11,0,0,1,2.27-.93,3.07,3.07,0,0,1,2.26.93,3.18,3.18,0,0,1-2.26,5.43Z"/></g></g></svg>