<svg xmlns="http://www.w3.org/2000/svg" viewBox="0 0 440 650"><defs><style>.cls-1,.cls-2{fill:#fff;}.cls-1{opacity:0.05;}.cls-3{fill:#c10cc1;}.cls-10,.cls-4,.cls-5,.cls-7,.cls-8,.cls-9{fill:none;stroke-miterlimit:10;}.cls-4{stroke:#fff;}.cls-5{stroke:aqua;stroke-linecap:round;stroke-width:0.9px;stroke-dasharray:1.79 4.48;}.cls-6{fill:#ed1c24;}.cls-10,.cls-7,.cls-8,.cls-9{stroke:#000;}.cls-7{stroke-width:1.18px;}.cls-8{stroke-width:0.94px;}.cls-9{stroke-width:0.98px;}.cls-10{stroke-width:1.03px;}.cls-11{fill:#1a171b;}</style></defs><g id="Layer_2" data-name="Layer 2"><g id="Layer_1-2" data-name="Layer 1"><rect class="cls-1" width="440" height="650" rx="21.66"/><path class="cls-2" d="M130.29,602.84a3.47,3.47,0,0,1-1.72-.41,3,3,0,0,1-1.2-1.15,3.45,3.45,0,0,1-.43-1.76,3.36,3.36,0,0,1,.43-1.75,3,3,0,0,1,1.2-1.14,3.69,3.69,0,0,1,1.72-.39,3.49,3.49,0,0,1,1.29.22,2.92,2.92,0,0,1,.95.58,2.44,2.44,0,0,1,.59.79,2,2,0,0,1,.21.86v0H132a.17.17,0,0,0,0-.07.22.22,0,0,0,0-.08,1.23,1.23,0,0,0-.27-.63,1.74,1.74,0,0,0-.61-.44,2.24,2.24,0,0,0-.86-.16,2.15,2.15,0,0,0-1,.24,1.78,1.78,0,0,0-.73.71,2.36,2.36,0,0,0-.28,1.21,2.42,2.42,0,0,0,.27,1.2,1.88,1.88,0,0,0,.73.75,2.2,2.2,0,0,0,1,.25,2.27,2.27,0,0,0,1-.18,1.4,1.4,0,0,0,.57-.5,1.44,1.44,0,0,0,.22-.67h1.29a2.2,2.2,0,0,1-.2.88,2.44,2.44,0,0,1-.58.8,2.8,2.8,0,0,1-1,.57A3.56,3.56,0,0,1,130.29,602.84Z"/><path class="cls-2" d="M136.14,593.34v9.37h-1.28v-9.37Z"/><path class="cls-2" d="M138.55,595a.93.93,0,0,1-.58-.18.6.6,0,0,1-.24-.51.59.59,0,0,1,.24-.5,1,1,0,0,1,1.15,0,.59.59,0,0,1,.24.5.6.6,0,0,1-.24.51A.92.92,0,0,1,138.55,595Zm-.65,7.69v-6.37h1.28v6.37Z"/><path class="cls-2" d="M144,602.84a3.5,3.5,0,0,1-1.72-.41,3,3,0,0,1-1.19-1.15,3.46,3.46,0,0,1-.44-1.76,3.37,3.37,0,0,1,.44-1.75,3,3,0,0,1,1.19-1.14,3.72,3.72,0,0,1,1.72-.39,3.42,3.42,0,0,1,1.29.22,2.86,2.86,0,0,1,1,.58,2.59,2.59,0,0,1,.59.79,2,2,0,0,1,.2.86v0h-1.29v-.07a.22.22,0,0,1,0-.08,1.33,1.33,0,0,0-.28-.63,1.62,1.62,0,0,0-.6-.44,2.33,2.33,0,0,0-.87-.16,2.11,2.11,0,0,0-1,.24,1.81,1.81,0,0,0-.74.71,2.46,2.46,0,0,0-.28,1.21,2.42,2.42,0,0,0,.28,1.2,1.82,1.82,0,0,0,.73.75,2.16,2.16,0,0,0,1,.25,2.24,2.24,0,0,0,1-.18,1.4,1.4,0,0,0,.57-.5,1.44,1.44,0,0,0,.22-.67H147a2.18,2.18,0,0,1-.19.88,2.63,2.63,0,0,1-.59.8,2.7,2.7,0,0,1-.95.57A3.49,3.49,0,0,1,144,602.84Z"/><path class="cls-2" d="M148.48,602.71v-9.37h1.24V599l-.32-.15,2.85-2.47h1.63l-3.08,2.73.31-.58,2.77,4.22H152.5l-2.23-3.52.29.09-1,.89.16-.59v3.13Z"/><path class="cls-2" d="M158.55,595a1,1,0,0,1-.58-.18.6.6,0,0,1-.24-.51.59.59,0,0,1,.24-.5,1,1,0,0,1,.58-.18.92.92,0,0,1,.57.18.64.64,0,0,1,0,1A.92.92,0,0,1,158.55,595Zm-.65,7.69v-6.37h1.29v6.37Z"/><path class="cls-2" d="M163.64,602.82a3.36,3.36,0,0,1-.63-.06,1.67,1.67,0,0,1-.58-.25,1.39,1.39,0,0,1-.42-.5,2.12,2.12,0,0,1-.15-.87v-3.72h-1.53v-1.08h.8l.41,0a.32.32,0,0,0,.21-.1.44.44,0,0,0,.09-.26c0-.12,0-.29,0-.49v-1.23h1.3v2.1h2v1.08h-2v3.29a2,2,0,0,0,.12.76c.07.18.25.27.53.27a2,2,0,0,0,.35,0,.87.87,0,0,0,.24-.07v1.07l-.3.08A3.23,3.23,0,0,1,163.64,602.82Z"/><path class="cls-2" d="M172.08,602.82a3.39,3.39,0,0,1-.64-.06,1.63,1.63,0,0,1-.57-.25,1.21,1.21,0,0,1-.42-.5,2.11,2.11,0,0,1-.16-.87v-3.72h-1.53v-1.08h.81l.4,0a.35.35,0,0,0,.22-.1.65.65,0,0,0,.09-.26c0-.12,0-.29,0-.49v-1.23h1.31v2.1h2v1.08h-2v3.29a2,2,0,0,0,.11.76.53.53,0,0,0,.54.27,1.87,1.87,0,0,0,.34,0,1,1,0,0,0,.25-.07v1.07l-.31.08A3,3,0,0,1,172.08,602.82Z"/><path class="cls-2" d="M177.67,602.83a3.49,3.49,0,0,1-1.73-.42,3.11,3.11,0,0,1-1.18-1.18,3.67,3.67,0,0,1,0-3.41,3.06,3.06,0,0,1,1.18-1.16,3.88,3.88,0,0,1,3.47,0,3.06,3.06,0,0,1,1.18,1.16,3.67,3.67,0,0,1,0,3.41,3.11,3.11,0,0,1-1.18,1.18A3.5,3.5,0,0,1,177.67,602.83Zm0-1.11a2,2,0,0,0,1.06-.27,1.89,1.89,0,0,0,.71-.77,2.37,2.37,0,0,0,.26-1.16,2.29,2.29,0,0,0-.26-1.14,1.78,1.78,0,0,0-.71-.75,2.2,2.2,0,0,0-2.11,0,1.8,1.8,0,0,0-.72.75,2.4,2.4,0,0,0-.25,1.14,2.48,2.48,0,0,0,.25,1.16,1.91,1.91,0,0,0,.72.77A2.05,2.05,0,0,0,177.67,601.72Z"/><path class="cls-2" d="M188,602.84a4.21,4.21,0,0,1-1.08-.13,2.68,2.68,0,0,1-.88-.37,1.72,1.72,0,0,1-.6-.6,1.63,1.63,0,0,1-.21-.83v-.16h1.3v.12a.71.71,0,0,0,.4.66,2.29,2.29,0,0,0,1.1.22,3.52,3.52,0,0,0,.75-.08,1.3,1.3,0,0,0,.54-.26.56.56,0,0,0,.2-.44.65.65,0,0,0-.43-.63,6.29,6.29,0,0,0-1.3-.33,8.63,8.63,0,0,1-.91-.21,3.37,3.37,0,0,1-.79-.35,1.64,1.64,0,0,1-.56-.55,1.43,1.43,0,0,1-.21-.79,1.51,1.51,0,0,1,.36-1,2.16,2.16,0,0,1,1-.63,3.9,3.9,0,0,1,1.35-.22,3.83,3.83,0,0,1,1.33.23,2.48,2.48,0,0,1,1,.67,1.61,1.61,0,0,1,.37,1.06v.11h-1.29v-.09a.69.69,0,0,0-.2-.5,1.08,1.08,0,0,0-.51-.3,2.13,2.13,0,0,0-.67-.1,2.88,2.88,0,0,0-.65.07,1.31,1.31,0,0,0-.55.23.54.54,0,0,0-.21.45.57.57,0,0,0,.21.46,1.71,1.71,0,0,0,.59.28c.26.07.56.14.9.2s.61.13.91.21a3.85,3.85,0,0,1,.8.34,1.64,1.64,0,0,1,.57.54,1.48,1.48,0,0,1,.21.81,1.5,1.5,0,0,1-.23.86,1.79,1.79,0,0,1-.62.6,3.06,3.06,0,0,1-.89.35A4.51,4.51,0,0,1,188,602.84Z"/><path class="cls-2" d="M192.67,600v-1h4.7l-.18.3v-.14a1.93,1.93,0,0,0-.21-.9,1.6,1.6,0,0,0-.63-.66,2,2,0,0,0-1-.25,2.19,2.19,0,0,0-1.1.27,1.88,1.88,0,0,0-.73.75,2.54,2.54,0,0,0-.26,1.18,2.58,2.58,0,0,0,.25,1.19,1.75,1.75,0,0,0,.73.77,2.22,2.22,0,0,0,1.13.27,3.09,3.09,0,0,0,.8-.09,1.53,1.53,0,0,0,.56-.25,1,1,0,0,0,.33-.34.9.9,0,0,0,.14-.36h1.29a1.88,1.88,0,0,1-.25.77,2.36,2.36,0,0,1-.62.69,3,3,0,0,1-1,.49,4.08,4.08,0,0,1-1.32.19,3.54,3.54,0,0,1-1.75-.42,3.06,3.06,0,0,1-1.17-1.17,3.69,3.69,0,0,1,0-3.44,2.93,2.93,0,0,1,1.18-1.16,3.53,3.53,0,0,1,1.74-.42,3.37,3.37,0,0,1,1.72.42,2.93,2.93,0,0,1,1.13,1.16,3.58,3.58,0,0,1,.39,1.7v.26a1.8,1.8,0,0,1,0,.2Z"/><path class="cls-2" d="M200.45,600v-1h4.69l-.18.3v-.14a1.93,1.93,0,0,0-.21-.9,1.6,1.6,0,0,0-.63-.66,1.93,1.93,0,0,0-1-.25,2.15,2.15,0,0,0-1.09.27,1.82,1.82,0,0,0-.73.75,2.42,2.42,0,0,0-.26,1.18,2.58,2.58,0,0,0,.25,1.19,1.79,1.79,0,0,0,.72.77,2.29,2.29,0,0,0,1.14.27,3.15,3.15,0,0,0,.8-.09,1.61,1.61,0,0,0,.56-.25,1.18,1.18,0,0,0,.33-.34.75.75,0,0,0,.13-.36h1.3a1.9,1.9,0,0,1-.26.77,2.32,2.32,0,0,1-.61.69,3,3,0,0,1-1,.49,4.06,4.06,0,0,1-1.31.19,3.51,3.51,0,0,1-1.75-.42,3.06,3.06,0,0,1-1.17-1.17,3.44,3.44,0,0,1-.42-1.71,3.34,3.34,0,0,1,.43-1.73,2.87,2.87,0,0,1,1.18-1.16,3.49,3.49,0,0,1,1.73-.42,3.41,3.41,0,0,1,1.73.42,2.91,2.91,0,0,1,1.12,1.16,3.47,3.47,0,0,1,.4,1.7,2.54,2.54,0,0,1,0,.26.75.75,0,0,1,0,.2Z"/><path class="cls-2" d="M213.28,602.84a4.13,4.13,0,0,1-1.07-.13,2.74,2.74,0,0,1-.89-.37,1.78,1.78,0,0,1-.59-.6,1.63,1.63,0,0,1-.21-.83v-.16h1.29v.12a.72.72,0,0,0,.41.66,2.29,2.29,0,0,0,1.1.22,3.52,3.52,0,0,0,.75-.08,1.36,1.36,0,0,0,.54-.26.56.56,0,0,0,.2-.44.66.66,0,0,0-.43-.63,6.47,6.47,0,0,0-1.3-.33,8.81,8.81,0,0,1-.92-.21,3.78,3.78,0,0,1-.79-.35,1.84,1.84,0,0,1-.56-.55,1.64,1.64,0,0,1,.16-1.81,2.16,2.16,0,0,1,1-.63,3.9,3.9,0,0,1,1.35-.22,3.73,3.73,0,0,1,1.32.23,2.35,2.35,0,0,1,1,.67,1.57,1.57,0,0,1,.38,1.06v.11h-1.29v-.09a.69.69,0,0,0-.2-.5,1.12,1.12,0,0,0-.52-.3,2.07,2.07,0,0,0-.66-.1,3,3,0,0,0-.66.07,1.32,1.32,0,0,0-.54.23.54.54,0,0,0-.21.45.57.57,0,0,0,.21.46,1.62,1.62,0,0,0,.59.28c.26.07.55.14.89.2s.62.13.92.21a3.85,3.85,0,0,1,.8.34,1.84,1.84,0,0,1,.57.54,1.48,1.48,0,0,1,.21.81,1.58,1.58,0,0,1-.23.86,1.88,1.88,0,0,1-.62.6,3.06,3.06,0,0,1-.89.35A4.59,4.59,0,0,1,213.28,602.84Z"/><path class="cls-2" d="M220.6,602.83a3.5,3.5,0,0,1-1.74-.42,3.08,3.08,0,0,1-1.17-1.18,3.6,3.6,0,0,1,0-3.41,3,3,0,0,1,1.17-1.16,3.88,3.88,0,0,1,3.47,0,3,3,0,0,1,1.18,1.16,3.67,3.67,0,0,1,0,3.41,3,3,0,0,1-1.18,1.18A3.49,3.49,0,0,1,220.6,602.83Zm0-1.11a2,2,0,0,0,1.05-.27,1.85,1.85,0,0,0,.72-.77,2.48,2.48,0,0,0,.26-1.16,2.4,2.4,0,0,0-.26-1.14,1.74,1.74,0,0,0-.72-.75,2,2,0,0,0-1.05-.27,2.06,2.06,0,0,0-1.06.27,1.78,1.78,0,0,0-.71.75,2.4,2.4,0,0,0-.26,1.14,2.48,2.48,0,0,0,.26,1.16,1.89,1.89,0,0,0,.71.77A2.06,2.06,0,0,0,220.6,601.72Z"/><path class="cls-2" d="M225.38,602.71v-6.37h1.3v6.37Zm3.94,0v-3.78a4.46,4.46,0,0,0,0-.5,1.45,1.45,0,0,0-.15-.5.86.86,0,0,0-.34-.37,1.19,1.19,0,0,0-.64-.14A1.29,1.29,0,0,0,227,598a1.84,1.84,0,0,0-.25.59,3,3,0,0,0-.08.66l-.55-.3a3.09,3.09,0,0,1,.3-1.37,2.29,2.29,0,0,1,.84-1,2.19,2.19,0,0,1,1.28-.37,2.05,2.05,0,0,1,1.2.31,1.78,1.78,0,0,1,.66.84,3.43,3.43,0,0,1,.2,1.2v4.12Zm3.93,0v-3.8a4.63,4.63,0,0,0,0-.51,1.34,1.34,0,0,0-.15-.48.81.81,0,0,0-.35-.36,1.25,1.25,0,0,0-.66-.14,1.47,1.47,0,0,0-.69.15,1.51,1.51,0,0,0-.45.42,2,2,0,0,0-.24.58,3.27,3.27,0,0,0-.07.62l-.55-.29a3.08,3.08,0,0,1,.29-1.33,2.37,2.37,0,0,1,.83-1,2.23,2.23,0,0,1,1.27-.36,2.25,2.25,0,0,1,1.19.29,1.78,1.78,0,0,1,.68.8,2.89,2.89,0,0,1,.22,1.18v4.2Z"/><path class="cls-2" d="M236.65,600v-1h4.7l-.18.3v-.14a1.93,1.93,0,0,0-.21-.9,1.66,1.66,0,0,0-.63-.66,2,2,0,0,0-1-.25,2.19,2.19,0,0,0-1.1.27,1.82,1.82,0,0,0-.73.75,2.54,2.54,0,0,0-.26,1.18,2.58,2.58,0,0,0,.25,1.19,1.75,1.75,0,0,0,.73.77,2.22,2.22,0,0,0,1.13.27,3.09,3.09,0,0,0,.8-.09,1.61,1.61,0,0,0,.56-.25,1,1,0,0,0,.33-.34.9.9,0,0,0,.14-.36h1.29a1.88,1.88,0,0,1-.25.77,2.51,2.51,0,0,1-.62.69,3,3,0,0,1-1,.49,4.08,4.08,0,0,1-1.32.19,3.54,3.54,0,0,1-1.75-.42,3.06,3.06,0,0,1-1.17-1.17,3.69,3.69,0,0,1,0-3.44,2.93,2.93,0,0,1,1.18-1.16,3.53,3.53,0,0,1,1.74-.42,3.4,3.4,0,0,1,1.72.42,2.93,2.93,0,0,1,1.13,1.16,3.58,3.58,0,0,1,.39,1.7v.26a1.8,1.8,0,0,1,0,.2Z"/><path class="cls-2" d="M250.07,602.84a3.5,3.5,0,0,1-1.72-.41,2.93,2.93,0,0,1-1.19-1.15,3.46,3.46,0,0,1-.44-1.76,3.37,3.37,0,0,1,.44-1.75,3,3,0,0,1,1.19-1.14,3.72,3.72,0,0,1,1.72-.39,3.49,3.49,0,0,1,1.29.22,2.82,2.82,0,0,1,.95.58,2.63,2.63,0,0,1,.6.79,2.11,2.11,0,0,1,.2.86v0h-1.29v-.07l0-.08a1.23,1.23,0,0,0-.27-.63,1.62,1.62,0,0,0-.6-.44,2.33,2.33,0,0,0-.87-.16,2.15,2.15,0,0,0-1,.24,1.84,1.84,0,0,0-.73.71,2.36,2.36,0,0,0-.28,1.21,2.42,2.42,0,0,0,.27,1.2,1.91,1.91,0,0,0,.74.75,2.13,2.13,0,0,0,1,.25,2.27,2.27,0,0,0,1-.18,1.4,1.4,0,0,0,.57-.5,1.44,1.44,0,0,0,.22-.67h1.29a2,2,0,0,1-.2.88,2.44,2.44,0,0,1-.58.8,2.7,2.7,0,0,1-1,.57A3.56,3.56,0,0,1,250.07,602.84Z"/><path class="cls-2" d="M257.63,602.83a3.5,3.5,0,0,1-1.74-.42,3.08,3.08,0,0,1-1.17-1.18,3.6,3.6,0,0,1,0-3.41,3,3,0,0,1,1.17-1.16,3.9,3.9,0,0,1,3.48,0,3,3,0,0,1,1.17,1.16,3.6,3.6,0,0,1,0,3.41,3.08,3.08,0,0,1-1.17,1.18A3.53,3.53,0,0,1,257.63,602.83Zm0-1.11a2.06,2.06,0,0,0,1.06-.27,1.89,1.89,0,0,0,.71-.77,2.48,2.48,0,0,0,.26-1.16,2.4,2.4,0,0,0-.26-1.14,1.78,1.78,0,0,0-.71-.75,2.06,2.06,0,0,0-1.06-.27,2,2,0,0,0-1.05.27,1.74,1.74,0,0,0-.72.75,2.4,2.4,0,0,0-.26,1.14,2.48,2.48,0,0,0,.26,1.16,1.85,1.85,0,0,0,.72.77A2,2,0,0,0,257.63,601.72Z"/><path class="cls-2" d="M262.41,602.71v-6.37h1.3v6.37Zm4.54,0V599a2.16,2.16,0,0,0-.15-.83,1.1,1.1,0,0,0-.47-.55,1.62,1.62,0,0,0-.88-.2,1.64,1.64,0,0,0-.88.24,1.71,1.71,0,0,0-.63.65,1.89,1.89,0,0,0-.23.93l-.55-.28a2.72,2.72,0,0,1,.36-1.39,2.76,2.76,0,0,1,1-1,2.62,2.62,0,0,1,1.35-.36,2.73,2.73,0,0,1,1.29.29,2,2,0,0,1,.83.83,2.81,2.81,0,0,1,.28,1.28v4.07Z"/><path class="cls-2" d="M272.4,602.84a4.08,4.08,0,0,1-1.07-.13,2.74,2.74,0,0,1-.89-.37,1.78,1.78,0,0,1-.59-.6,1.63,1.63,0,0,1-.21-.83v-.16h1.29v.12a.72.72,0,0,0,.41.66,2.26,2.26,0,0,0,1.1.22,3.36,3.36,0,0,0,.74-.08,1.24,1.24,0,0,0,.54-.26.54.54,0,0,0,.21-.44.66.66,0,0,0-.43-.63,6.47,6.47,0,0,0-1.3-.33,8.81,8.81,0,0,1-.92-.21,3.56,3.56,0,0,1-.79-.35,1.84,1.84,0,0,1-.56-.55,1.43,1.43,0,0,1-.2-.79,1.51,1.51,0,0,1,.36-1,2.16,2.16,0,0,1,1-.63,3.9,3.9,0,0,1,1.35-.22,3.81,3.81,0,0,1,1.32.23,2.41,2.41,0,0,1,1,.67,1.56,1.56,0,0,1,.37,1.06v.11h-1.29v-.09a.68.68,0,0,0-.19-.5,1.17,1.17,0,0,0-.52-.3,2.09,2.09,0,0,0-.67-.1,2.94,2.94,0,0,0-.65.07,1.21,1.21,0,0,0-.54.23.55.55,0,0,0-.22.45.57.57,0,0,0,.21.46,1.68,1.68,0,0,0,.6.28c.25.07.55.14.89.2s.62.13.91.21a3.44,3.44,0,0,1,.8.34,1.64,1.64,0,0,1,.57.54,1.4,1.4,0,0,1,.22.81,1.58,1.58,0,0,1-.23.86,1.88,1.88,0,0,1-.62.6,3,3,0,0,1-.9.35A4.44,4.44,0,0,1,272.4,602.84Z"/><path class="cls-2" d="M277.1,600v-1h4.69l-.18.3v-.14a1.93,1.93,0,0,0-.21-.9,1.6,1.6,0,0,0-.63-.66,1.93,1.93,0,0,0-1-.25,2.15,2.15,0,0,0-1.09.27,1.76,1.76,0,0,0-.73.75,2.42,2.42,0,0,0-.26,1.18,2.58,2.58,0,0,0,.25,1.19,1.79,1.79,0,0,0,.72.77,2.29,2.29,0,0,0,1.14.27,3.15,3.15,0,0,0,.8-.09,1.7,1.7,0,0,0,.56-.25,1.18,1.18,0,0,0,.33-.34.75.75,0,0,0,.13-.36h1.3a1.9,1.9,0,0,1-.26.77,2.23,2.23,0,0,1-.62.69,3,3,0,0,1-1,.49,4.06,4.06,0,0,1-1.31.19,3.51,3.51,0,0,1-1.75-.42,3.06,3.06,0,0,1-1.17-1.17,3.44,3.44,0,0,1-.42-1.71,3.34,3.34,0,0,1,.43-1.73,2.87,2.87,0,0,1,1.18-1.16,3.49,3.49,0,0,1,1.73-.42,3.41,3.41,0,0,1,1.73.42,2.91,2.91,0,0,1,1.12,1.16,3.47,3.47,0,0,1,.4,1.7,2.54,2.54,0,0,1,0,.26.75.75,0,0,1,0,.2Z"/><path class="cls-2" d="M287.5,602.84a3.5,3.5,0,0,1-1.72-.41,3,3,0,0,1-1.19-1.15,3.45,3.45,0,0,1-.43-1.76,3.36,3.36,0,0,1,.43-1.75,3,3,0,0,1,1.19-1.14,3.72,3.72,0,0,1,1.72-.39,3.42,3.42,0,0,1,1.29.22,2.86,2.86,0,0,1,1,.58,2.44,2.44,0,0,1,.59.79,2,2,0,0,1,.21.86v0h-1.29s0,0,0-.07,0,0,0-.08A1.24,1.24,0,0,0,289,598a1.62,1.62,0,0,0-.6-.44,2.33,2.33,0,0,0-.87-.16,2.11,2.11,0,0,0-1,.24,1.87,1.87,0,0,0-.74.71,2.46,2.46,0,0,0-.27,1.21,2.42,2.42,0,0,0,.27,1.2,1.88,1.88,0,0,0,.73.75,2.16,2.16,0,0,0,1,.25,2.24,2.24,0,0,0,1-.18,1.28,1.28,0,0,0,.57-.5,1.45,1.45,0,0,0,.23-.67h1.29a2.2,2.2,0,0,1-.2.88,2.6,2.6,0,0,1-.58.8,2.85,2.85,0,0,1-1,.57A3.49,3.49,0,0,1,287.5,602.84Z"/><path class="cls-2" d="M294.31,602.83a2.52,2.52,0,0,1-1.13-.23,1.94,1.94,0,0,1-.71-.61,2.46,2.46,0,0,1-.38-.82,3.81,3.81,0,0,1-.1-.87v-4h1.3V600a2.8,2.8,0,0,0,.12.84,1.28,1.28,0,0,0,.43.63,1.32,1.32,0,0,0,.85.24,1.37,1.37,0,0,0,.88-.31,2,2,0,0,0,.59-.77,2.21,2.21,0,0,0,.21-.93l.57.31a3.15,3.15,0,0,1-.18,1.06,3,3,0,0,1-.53.92,2.38,2.38,0,0,1-.83.63A2.42,2.42,0,0,1,294.31,602.83Zm2.06-.12v-6.37h1.3v6.37Z"/><path class="cls-2" d="M299.78,600v-1h4.69l-.18.3v-.14a1.93,1.93,0,0,0-.21-.9,1.64,1.64,0,0,0-.62-.66,2,2,0,0,0-1-.25,2.15,2.15,0,0,0-1.09.27,1.82,1.82,0,0,0-.73.75,2.42,2.42,0,0,0-.26,1.18,2.58,2.58,0,0,0,.25,1.19,1.79,1.79,0,0,0,.72.77,2.29,2.29,0,0,0,1.14.27,3.15,3.15,0,0,0,.8-.09,1.61,1.61,0,0,0,.56-.25,1.18,1.18,0,0,0,.33-.34.75.75,0,0,0,.13-.36h1.3a1.9,1.9,0,0,1-.26.77,2.32,2.32,0,0,1-.61.69,3,3,0,0,1-1,.49,4.06,4.06,0,0,1-1.31.19,3.51,3.51,0,0,1-1.75-.42,3.06,3.06,0,0,1-1.17-1.17,3.44,3.44,0,0,1-.42-1.71,3.34,3.34,0,0,1,.43-1.73,2.87,2.87,0,0,1,1.18-1.16,3.49,3.49,0,0,1,1.73-.42,3.41,3.41,0,0,1,1.73.42,2.91,2.91,0,0,1,1.12,1.16,3.47,3.47,0,0,1,.4,1.7,2.54,2.54,0,0,1,0,.26.75.75,0,0,1,0,.2Z"/><path class="cls-2" d="M307.09,602.71v-6.37h1.31v6.37Zm4.54,0V599a2.37,2.37,0,0,0-.14-.83,1.17,1.17,0,0,0-.48-.55,1.62,1.62,0,0,0-.88-.2,1.66,1.66,0,0,0-.88.24,1.62,1.62,0,0,0-.62.65,1.78,1.78,0,0,0-.23.93l-.56-.28a2.72,2.72,0,0,1,.36-1.39,2.79,2.79,0,0,1,1-1,2.59,2.59,0,0,1,1.34-.36,2.74,2.74,0,0,1,1.3.29,2,2,0,0,1,.82.83,2.69,2.69,0,0,1,.28,1.28v4.07Z"/><path class="cls-2" d="M317.67,602.84a3.47,3.47,0,0,1-1.72-.41,3,3,0,0,1-1.2-1.15,3.45,3.45,0,0,1-.43-1.76,3.36,3.36,0,0,1,.43-1.75,3,3,0,0,1,1.2-1.14,3.69,3.69,0,0,1,1.72-.39,3.49,3.49,0,0,1,1.29.22,2.92,2.92,0,0,1,1,.58,2.44,2.44,0,0,1,.59.79,2,2,0,0,1,.21.86v0h-1.29a.17.17,0,0,0,0-.07s0,0,0-.08a1.16,1.16,0,0,0-.28-.63,1.62,1.62,0,0,0-.6-.44,2.25,2.25,0,0,0-.87-.16,2.14,2.14,0,0,0-1,.24,1.87,1.87,0,0,0-.74.71,2.46,2.46,0,0,0-.27,1.21,2.42,2.42,0,0,0,.27,1.2,1.88,1.88,0,0,0,.73.75,2.19,2.19,0,0,0,1,.25,2.32,2.32,0,0,0,1-.18,1.4,1.4,0,0,0,.57-.5,1.56,1.56,0,0,0,.22-.67h1.29a2.2,2.2,0,0,1-.2.88,2.6,2.6,0,0,1-.58.8,2.9,2.9,0,0,1-.95.57A3.56,3.56,0,0,1,317.67,602.84Z"/><path class="cls-2" d="M322.61,600v-1h4.69l-.18.3v-.14a1.93,1.93,0,0,0-.21-.9,1.64,1.64,0,0,0-.62-.66,2,2,0,0,0-1.05-.25,2.15,2.15,0,0,0-1.09.27,1.82,1.82,0,0,0-.73.75,2.42,2.42,0,0,0-.26,1.18,2.58,2.58,0,0,0,.25,1.19,1.79,1.79,0,0,0,.72.77,2.29,2.29,0,0,0,1.14.27,3.15,3.15,0,0,0,.8-.09,1.61,1.61,0,0,0,.56-.25,1.18,1.18,0,0,0,.33-.34.75.75,0,0,0,.13-.36h1.3a1.9,1.9,0,0,1-.26.77,2.32,2.32,0,0,1-.61.69,3,3,0,0,1-1,.49,4.06,4.06,0,0,1-1.31.19,3.51,3.51,0,0,1-1.75-.42,3.06,3.06,0,0,1-1.17-1.17,3.44,3.44,0,0,1-.42-1.71,3.34,3.34,0,0,1,.43-1.73,2.87,2.87,0,0,1,1.18-1.16,3.49,3.49,0,0,1,1.73-.42,3.41,3.41,0,0,1,1.73.42,2.91,2.91,0,0,1,1.12,1.16,3.47,3.47,0,0,1,.4,1.7,2.54,2.54,0,0,1,0,.26.75.75,0,0,1,0,.2Z"/><path class="cls-2" d="M332.43,602.84a4.08,4.08,0,0,1-1.07-.13,2.74,2.74,0,0,1-.89-.37,1.78,1.78,0,0,1-.59-.6,1.63,1.63,0,0,1-.21-.83v-.16H331v.12a.72.72,0,0,0,.41.66,2.26,2.26,0,0,0,1.1.22,3.52,3.52,0,0,0,.75-.08,1.36,1.36,0,0,0,.54-.26.56.56,0,0,0,.2-.44.66.66,0,0,0-.43-.63,6.47,6.47,0,0,0-1.3-.33,8.81,8.81,0,0,1-.92-.21,3.78,3.78,0,0,1-.79-.35,1.84,1.84,0,0,1-.56-.55,1.64,1.64,0,0,1,.16-1.81,2.16,2.16,0,0,1,1-.63,3.9,3.9,0,0,1,1.35-.22,3.77,3.77,0,0,1,1.32.23,2.41,2.41,0,0,1,1,.67,1.56,1.56,0,0,1,.37,1.06v.11h-1.29v-.09a.68.68,0,0,0-.19-.5,1.17,1.17,0,0,0-.52-.3,2.09,2.09,0,0,0-.67-.1,2.94,2.94,0,0,0-.65.07,1.26,1.26,0,0,0-.54.23.55.55,0,0,0-.22.45.57.57,0,0,0,.21.46,1.68,1.68,0,0,0,.6.28c.25.07.55.14.89.2s.62.13.91.21a3.72,3.72,0,0,1,.81.34,1.84,1.84,0,0,1,.57.54,1.48,1.48,0,0,1,.21.81,1.58,1.58,0,0,1-.23.86,1.88,1.88,0,0,1-.62.6,3.06,3.06,0,0,1-.89.35A4.59,4.59,0,0,1,332.43,602.84Z"/><path class="cls-2" d="M337.33,602.88a.77.77,0,0,1-.56-.23.74.74,0,0,1-.23-.57.75.75,0,0,1,.23-.56.8.8,0,0,1,1.12,0,.76.76,0,0,1,.24.56.75.75,0,0,1-.24.57A.77.77,0,0,1,337.33,602.88Zm.65-9-.24,6.62h-.82l-.24-6.62Z"/><circle class="cls-3" cx="79.78" cy="598.98" r="8.28"/><line class="cls-4" x1="115.58" y1="598.87" x2="101.92" y2="598.87"/><line class="cls-4" x1="107.25" y1="595.78" x2="101.44" y2="598.98"/><line class="cls-4" x1="107.25" y1="602" x2="101.41" y2="598.77"/><path class="cls-2" d="M94.51,78a2.81,2.81,0,0,1,2,.71,2.58,2.58,0,0,1,.76,2,2.71,2.71,0,0,1-.83,2,3.25,3.25,0,0,1-2.35.8,2.91,2.91,0,0,1-2.39-1,4.06,4.06,0,0,1-.84-2.65,5,5,0,0,1,.76-2.73,7.46,7.46,0,0,1,1.91-2,10.78,10.78,0,0,1,2.29-1.28l.61,1.24a7,7,0,0,0-1.55.85,6,6,0,0,0-1.28,1.23,2.42,2.42,0,0,0-.53,1.39,1.05,1.05,0,0,1,.46-.31A2.42,2.42,0,0,1,94.51,78Zm7.72,0a2.77,2.77,0,0,1,2,.71,2.55,2.55,0,0,1,.76,2,2.7,2.7,0,0,1-.82,2,3.28,3.28,0,0,1-2.35.8,2.92,2.92,0,0,1-2.4-1,4.12,4.12,0,0,1-.83-2.65,4.9,4.9,0,0,1,.76-2.73,7.31,7.31,0,0,1,1.91-2,10.54,10.54,0,0,1,2.29-1.28l.61,1.24a6.79,6.79,0,0,0-1.55.85,6.07,6.07,0,0,0-1.29,1.23,2.49,2.49,0,0,0-.53,1.39,1.11,1.11,0,0,1,.47-.31A2.39,2.39,0,0,1,102.23,78Z"/><path class="cls-2" d="M126.41,78.83h-8.87l1.84-2.49v26.52h-5V76.34l1.93,2.49h-8.94v-4h19Z"/><path class="cls-2" d="M130.27,102.86V73.16h5v29.7Zm14.29,0v-11a6.47,6.47,0,0,0-1-3.85,3.87,3.87,0,0,0-3.34-1.34,5.45,5.45,0,0,0-2.68.62,4.09,4.09,0,0,0-1.7,1.72,5.21,5.21,0,0,0-.59,2.54l-1.83-1a8.44,8.44,0,0,1,1.09-4.29,7.82,7.82,0,0,1,3-2.94A9.16,9.16,0,0,1,142,82.34a7.13,7.13,0,0,1,5.61,2.18,8.77,8.77,0,0,1,1.93,6v12.29Z"/><path class="cls-2" d="M156.24,94.39V90.83h14.12l-.57,1v-.49a5.37,5.37,0,0,0-.59-2.46A4.5,4.5,0,0,0,167.41,87a5.8,5.8,0,0,0-3-.72,6.27,6.27,0,0,0-3.16.77,5.29,5.29,0,0,0-2.07,2.22,7.52,7.52,0,0,0-.73,3.46,8.28,8.28,0,0,0,.7,3.56,5.13,5.13,0,0,0,2.06,2.28,6.58,6.58,0,0,0,3.32.79,9.69,9.69,0,0,0,2.3-.25,4.91,4.91,0,0,0,1.58-.67,3.15,3.15,0,0,0,.93-.93,2.35,2.35,0,0,0,.38-1h5a5.73,5.73,0,0,1-.84,2.47,7.78,7.78,0,0,1-2,2.19,10.66,10.66,0,0,1-3.19,1.56,14.3,14.3,0,0,1-4.26.58,11.6,11.6,0,0,1-5.68-1.33,9.46,9.46,0,0,1-3.79-3.71,11.6,11.6,0,0,1,0-10.92,9.69,9.69,0,0,1,3.83-3.68,11.7,11.7,0,0,1,5.63-1.32A11.48,11.48,0,0,1,170,83.67a9.29,9.29,0,0,1,3.68,3.7,11.29,11.29,0,0,1,1.29,5.5c0,.26,0,.55,0,.85a4.16,4.16,0,0,1-.06.67Z"/><path class="cls-2" d="M103.31,156.28a11,11,0,0,1-5.94-1.67,11.69,11.69,0,0,1-4.25-4.89,17.6,17.6,0,0,1-1.57-7.81,17.21,17.21,0,0,1,1.63-7.84,11.82,11.82,0,0,1,4.42-4.93,11.65,11.65,0,0,1,6.22-1.7,11.23,11.23,0,0,1,4.84.94,9.31,9.31,0,0,1,3.23,2.42,9.72,9.72,0,0,1,1.8,3.12,9.23,9.23,0,0,1,.56,3v.22h-4.86V137a5.87,5.87,0,0,0-.34-1.94,5.15,5.15,0,0,0-1-1.73,5.09,5.09,0,0,0-1.75-1.24,6.06,6.06,0,0,0-2.43-.45,6.48,6.48,0,0,0-3.52,1A7.29,7.29,0,0,0,97.64,136a14.66,14.66,0,0,0-1,5.95,17.11,17.11,0,0,0,.57,4.75,9.08,9.08,0,0,0,1.55,3.18,6.08,6.08,0,0,0,2.24,1.78,6.55,6.55,0,0,0,2.67.56,6.89,6.89,0,0,0,3.16-.65,5.38,5.38,0,0,0,2-1.62,4.69,4.69,0,0,0,.9-1.9v-2.18h-6v-3.76h10.47v13.79h-2.89l-.42-3.12a3.85,3.85,0,0,1-.62.94,6.17,6.17,0,0,1-1.37,1.18,8.41,8.41,0,0,1-2.27,1A11.8,11.8,0,0,1,103.31,156.28Z"/><path class="cls-2" d="M129.13,156.26a11.48,11.48,0,0,1-5.62-1.34,9.65,9.65,0,0,1-3.81-3.71,10.65,10.65,0,0,1-1.38-5.44,10.48,10.48,0,0,1,1.38-5.42,9.64,9.64,0,0,1,3.81-3.68,12.54,12.54,0,0,1,11.24,0,9.77,9.77,0,0,1,3.81,3.68,10.48,10.48,0,0,1,1.38,5.42,10.65,10.65,0,0,1-1.38,5.44,9.78,9.78,0,0,1-3.81,3.71A11.48,11.48,0,0,1,129.13,156.26Zm0-4.08a5.65,5.65,0,0,0,3-.8,5.4,5.4,0,0,0,2-2.24,7.28,7.28,0,0,0,.73-3.37,7.17,7.17,0,0,0-.73-3.35,5.29,5.29,0,0,0-2-2.2,6.29,6.29,0,0,0-6,0,5.34,5.34,0,0,0-2,2.2,7.29,7.29,0,0,0-.72,3.35,7.41,7.41,0,0,0,.72,3.37,5.45,5.45,0,0,0,2,2.24A5.66,5.66,0,0,0,129.13,152.18Z"/><path class="cls-2" d="M161.11,135.68l-6.33,20.18h-6.71l-6.48-20.18h5.17l5.07,18.43H151l4.9-18.43Z"/><path class="cls-2" d="M165.27,147.39v-3.56h14.11l-.57.95v-.49a5.37,5.37,0,0,0-.58-2.46,4.57,4.57,0,0,0-1.79-1.86,5.82,5.82,0,0,0-3-.72,6.24,6.24,0,0,0-3.16.77,5.17,5.17,0,0,0-2.07,2.22,7.52,7.52,0,0,0-.74,3.46,8.28,8.28,0,0,0,.71,3.56,5.08,5.08,0,0,0,2.06,2.28,6.54,6.54,0,0,0,3.31.79,9.57,9.57,0,0,0,2.3-.25,4.88,4.88,0,0,0,1.59-.67,3.42,3.42,0,0,0,.93-.93,2.33,2.33,0,0,0,.37-1h5a5.75,5.75,0,0,1-.85,2.47,7.63,7.63,0,0,1-2,2.19,10.49,10.49,0,0,1-3.18,1.56,14.32,14.32,0,0,1-4.27.58,11.63,11.63,0,0,1-5.68-1.33,9.59,9.59,0,0,1-3.79-3.71,10.78,10.78,0,0,1-1.36-5.43,10.66,10.66,0,0,1,1.38-5.49,9.62,9.62,0,0,1,3.83-3.68,11.66,11.66,0,0,1,5.62-1.32,11.52,11.52,0,0,1,5.66,1.33,9.27,9.27,0,0,1,3.67,3.7,11.29,11.29,0,0,1,1.29,5.5c0,.26,0,.55,0,.85a6.42,6.42,0,0,1-.05.67Z"/><path class="cls-2" d="M188.09,155.86V135.68h5v6.71l-1.16-.65a9.83,9.83,0,0,1,.71-2.48,6.88,6.88,0,0,1,1.37-2,6,6,0,0,1,2.07-1.38,7.48,7.48,0,0,1,2.77-.49,8.38,8.38,0,0,1,1.95.18,3.4,3.4,0,0,1,.88.3l-.91,4.57a4.69,4.69,0,0,0-.77-.33,5,5,0,0,0-1.55-.2,5.79,5.79,0,0,0-2.57.52,4.38,4.38,0,0,0-1.65,1.41,6.18,6.18,0,0,0-.87,1.94,8.4,8.4,0,0,0-.27,2.1v10Z"/><path class="cls-2" d="M204.83,155.86V135.68h5v20.18Zm14.26,0V144.52a7.56,7.56,0,0,0-.38-2.46,3.41,3.41,0,0,0-1.33-1.72,4.65,4.65,0,0,0-2.6-.63,4.76,4.76,0,0,0-2.56.69,4.88,4.88,0,0,0-1.76,1.9,5.86,5.86,0,0,0-.64,2.79L208.13,144a8.7,8.7,0,0,1,1.15-4.49,8.4,8.4,0,0,1,7.38-4.21,8.21,8.21,0,0,1,4.1.95,6,6,0,0,1,2.5,2.7,9.21,9.21,0,0,1,.85,4.1v12.77Z"/><path class="cls-2" d="M228.92,155.86V135.68h5v20.18Zm12.54,0V144.29a12.07,12.07,0,0,0-.1-1.55,4.58,4.58,0,0,0-.42-1.49,2.52,2.52,0,0,0-1-1.11,3.41,3.41,0,0,0-1.86-.43,3.69,3.69,0,0,0-1.92.47,3.92,3.92,0,0,0-1.3,1.23,5.49,5.49,0,0,0-.73,1.75,8.89,8.89,0,0,0-.23,2L232.24,144a10.19,10.19,0,0,1,.93-4.44,7.6,7.6,0,0,1,2.65-3.11,7.16,7.16,0,0,1,4.08-1.15,6.52,6.52,0,0,1,3.86,1,5.58,5.58,0,0,1,2,2.74,11.57,11.57,0,0,1,.62,3.88v12.88Zm12.46,0V144.25a14.44,14.44,0,0,0-.09-1.6,4.83,4.83,0,0,0-.42-1.47,2.57,2.57,0,0,0-1-1.06,3.64,3.64,0,0,0-1.86-.41,3.8,3.8,0,0,0-1.95.46,3.57,3.57,0,0,0-1.26,1.21,5.39,5.39,0,0,0-.69,1.71,8.27,8.27,0,0,0-.22,1.9l-1.68-1.1a10.05,10.05,0,0,1,.92-4.35,7.34,7.34,0,0,1,2.62-3.07,7.21,7.21,0,0,1,4.06-1.13,6.7,6.7,0,0,1,3.82,1,5.46,5.46,0,0,1,2.1,2.65,10.43,10.43,0,0,1,.66,3.83v13.07Z"/><path class="cls-2" d="M265.61,147.39v-3.56h14.11l-.57.95v-.49a5.25,5.25,0,0,0-.59-2.46,4.48,4.48,0,0,0-1.78-1.86,5.82,5.82,0,0,0-3-.72,6.31,6.31,0,0,0-3.17.77,5.29,5.29,0,0,0-2.07,2.22,7.65,7.65,0,0,0-.73,3.46,8.28,8.28,0,0,0,.71,3.56,5,5,0,0,0,2.06,2.28,6.54,6.54,0,0,0,3.31.79,9.63,9.63,0,0,0,2.3-.25,4.88,4.88,0,0,0,1.59-.67,3.42,3.42,0,0,0,.93-.93,2.33,2.33,0,0,0,.37-1h5a5.75,5.75,0,0,1-.85,2.47,7.78,7.78,0,0,1-2,2.19,10.72,10.72,0,0,1-3.18,1.56,14.32,14.32,0,0,1-4.27.58A11.63,11.63,0,0,1,268,155a9.53,9.53,0,0,1-3.79-3.71,11.57,11.57,0,0,1,0-10.92,9.62,9.62,0,0,1,3.83-3.68,11.63,11.63,0,0,1,5.62-1.32,11.48,11.48,0,0,1,5.65,1.33,9.23,9.23,0,0,1,3.68,3.7,11.29,11.29,0,0,1,1.29,5.5c0,.26,0,.55,0,.85a6.42,6.42,0,0,1,0,.67Z"/><path class="cls-2" d="M288.42,155.86V135.68h5v20.18Zm14.27,0V144.52a7.3,7.3,0,0,0-.39-2.46,3.36,3.36,0,0,0-1.33-1.72,4.59,4.59,0,0,0-2.59-.63,4.76,4.76,0,0,0-2.56.69,4.88,4.88,0,0,0-1.76,1.9,5.86,5.86,0,0,0-.64,2.79L291.73,144a8.7,8.7,0,0,1,1.15-4.49,8.4,8.4,0,0,1,7.38-4.21,8.21,8.21,0,0,1,4.1.95,6.06,6.06,0,0,1,2.5,2.7,9.21,9.21,0,0,1,.85,4.1v12.77Z"/><path class="cls-2" d="M321.29,156.24a12,12,0,0,1-2.2-.21,6,6,0,0,1-2-.78,4.08,4.08,0,0,1-1.5-1.67,6.33,6.33,0,0,1-.57-2.91v-11H310.2v-4h1.94a12.38,12.38,0,0,0,1.55-.08,1.34,1.34,0,0,0,.84-.41,2,2,0,0,0,.35-1,15.81,15.81,0,0,0,.09-1.93V129h5v6.65h6v4h-6v9.48a6.32,6.32,0,0,0,.34,2.26,1.55,1.55,0,0,0,1.62.86,6,6,0,0,0,1.15-.11,5.84,5.84,0,0,0,.81-.23v3.91a7,7,0,0,1-1,.27A8,8,0,0,1,321.29,156.24Z"/><path class="cls-2" d="M100.52,209.28a14.08,14.08,0,0,1-3.43-.4,9.51,9.51,0,0,1-2.89-1.2,6.2,6.2,0,0,1-2-2,5.2,5.2,0,0,1-.73-2.75v-.43h5v.34a2,2,0,0,0,1.13,1.85,6.48,6.48,0,0,0,3.09.62,8.5,8.5,0,0,0,2-.23,3.76,3.76,0,0,0,1.52-.7,1.51,1.51,0,0,0,.58-1.22,1.76,1.76,0,0,0-1.22-1.71,18.42,18.42,0,0,0-3.85-.93,23.56,23.56,0,0,1-2.85-.67,10.4,10.4,0,0,1-2.56-1.12A5.72,5.72,0,0,1,92.45,197a4.48,4.48,0,0,1-.69-2.54,4.9,4.9,0,0,1,1.18-3.35,7.42,7.42,0,0,1,3.2-2.07,13.46,13.46,0,0,1,4.41-.7,12,12,0,0,1,4.32.76,7.88,7.88,0,0,1,3.22,2.19,5.11,5.11,0,0,1,1.22,3.43V195h-4.94v-.25a1.9,1.9,0,0,0-.55-1.42,3.37,3.37,0,0,0-1.42-.82,6.27,6.27,0,0,0-1.85-.27,8.31,8.31,0,0,0-1.76.19,3.56,3.56,0,0,0-1.52.62,1.45,1.45,0,0,0-.61,1.25,1.48,1.48,0,0,0,.63,1.23,5.14,5.14,0,0,0,1.74.79,23.94,23.94,0,0,0,2.59.56,24.38,24.38,0,0,1,2.8.63A11.53,11.53,0,0,1,107,198.6a5.52,5.52,0,0,1,1.91,1.74,4.57,4.57,0,0,1,.73,2.65,5.12,5.12,0,0,1-.76,2.85,6,6,0,0,1-2.06,1.95,9.88,9.88,0,0,1-2.93,1.13A15.7,15.7,0,0,1,100.52,209.28Z"/><path class="cls-2" d="M113.78,208.86v-29.7h5v29.7Zm14.29,0v-11a6.47,6.47,0,0,0-1-3.85,3.89,3.89,0,0,0-3.34-1.34,5.51,5.51,0,0,0-2.69.62,4.2,4.2,0,0,0-1.7,1.72,5.32,5.32,0,0,0-.59,2.54l-1.82-1a8.35,8.35,0,0,1,1.09-4.29,7.86,7.86,0,0,1,3-2.94,9.23,9.23,0,0,1,4.45-1.06,7.11,7.11,0,0,1,5.6,2.18,8.73,8.73,0,0,1,1.94,6v12.29Z"/><path class="cls-2" d="M147.81,209.26a11.52,11.52,0,0,1-5.63-1.34,9.78,9.78,0,0,1-3.81-3.71,10.65,10.65,0,0,1-1.37-5.44,10.47,10.47,0,0,1,1.37-5.42,9.77,9.77,0,0,1,3.81-3.68,12.56,12.56,0,0,1,11.25,0,9.77,9.77,0,0,1,3.81,3.68,10.48,10.48,0,0,1,1.38,5.42,10.65,10.65,0,0,1-1.38,5.44,9.78,9.78,0,0,1-3.81,3.71A11.5,11.5,0,0,1,147.81,209.26Zm0-4.08a5.65,5.65,0,0,0,3-.8,5.4,5.4,0,0,0,2-2.24,7.41,7.41,0,0,0,.72-3.37,7.29,7.29,0,0,0-.72-3.35,5.29,5.29,0,0,0-2-2.2,6.31,6.31,0,0,0-6,0,5.32,5.32,0,0,0-2,2.2,7.29,7.29,0,0,0-.72,3.35,7.41,7.41,0,0,0,.72,3.37,5.42,5.42,0,0,0,2,2.24A5.7,5.7,0,0,0,147.81,205.18Z"/><path class="cls-2" d="M170,209.24a7.81,7.81,0,0,1-3.56-.72,5.88,5.88,0,0,1-2.23-1.9,7.59,7.59,0,0,1-1.14-2.6,12.6,12.6,0,0,1-.33-2.85V188.68h5v11.19a9,9,0,0,0,.32,2.5,3.46,3.46,0,0,0,1.19,1.85,3.75,3.75,0,0,0,2.44.71,4,4,0,0,0,2.58-.88,6,6,0,0,0,1.68-2.24,6.67,6.67,0,0,0,.6-2.73l1.71,1.14a10.34,10.34,0,0,1-.57,3.46,8.73,8.73,0,0,1-1.65,2.88,7.7,7.7,0,0,1-2.61,2A8.15,8.15,0,0,1,170,209.24Zm6.57-.38V188.68h5v20.18Z"/><path class="cls-2" d="M191.6,179.16v29.7h-4.92v-29.7Z"/><path class="cls-2" d="M205.09,209.28a9.13,9.13,0,0,1-4.61-1.21,8.77,8.77,0,0,1-3.39-3.56,12,12,0,0,1-1.27-5.79,11.43,11.43,0,0,1,1.3-5.67,9,9,0,0,1,8-4.71,8.59,8.59,0,0,1,4.39,1.17,8.88,8.88,0,0,1,3.23,3.24,9.2,9.2,0,0,1,1.22,4.75v.3l-2.47.06v-.25a4.6,4.6,0,0,0-.75-2.62,5.46,5.46,0,0,0-1.94-1.76,5.29,5.29,0,0,0-2.52-.63,5.17,5.17,0,0,0-3.72,1.47q-1.54,1.47-1.54,4.65a6.22,6.22,0,0,0,1.54,4.65,5.34,5.34,0,0,0,6.28.84,5.26,5.26,0,0,0,1.91-1.84,4.94,4.94,0,0,0,.74-2.69l2.47.12a9.87,9.87,0,0,1-1.19,4.82,9.24,9.24,0,0,1-3.18,3.41A8.27,8.27,0,0,1,205.09,209.28Zm6.37-.42v-29.7h5v29.7Z"/><path class="cls-2" d="M94.23,253.39v-3.56h14.11l-.57.95v-.49a5.37,5.37,0,0,0-.58-2.46A4.57,4.57,0,0,0,105.4,246a5.82,5.82,0,0,0-3-.72,6.24,6.24,0,0,0-3.16.77,5.25,5.25,0,0,0-2.08,2.22,7.65,7.65,0,0,0-.73,3.46,8.28,8.28,0,0,0,.71,3.56,5,5,0,0,0,2.06,2.28,6.54,6.54,0,0,0,3.31.79,9.57,9.57,0,0,0,2.3-.25,4.88,4.88,0,0,0,1.59-.67,3.42,3.42,0,0,0,.93-.93,2.33,2.33,0,0,0,.37-1h5a5.75,5.75,0,0,1-.85,2.47,7.78,7.78,0,0,1-2,2.19,10.6,10.6,0,0,1-3.18,1.56,14.32,14.32,0,0,1-4.27.58A11.63,11.63,0,0,1,96.62,261a9.59,9.59,0,0,1-3.79-3.71,11.57,11.57,0,0,1,0-10.92,9.62,9.62,0,0,1,3.83-3.68,11.66,11.66,0,0,1,5.62-1.32,11.48,11.48,0,0,1,5.65,1.33,9.23,9.23,0,0,1,3.68,3.7,11.29,11.29,0,0,1,1.29,5.5c0,.26,0,.55,0,.85a6.42,6.42,0,0,1-.05.67Z"/><path class="cls-2" d="M117.05,261.86V241.68h5v20.18Zm14.26,0V250.52a7.56,7.56,0,0,0-.38-2.46,3.41,3.41,0,0,0-1.33-1.72,4.65,4.65,0,0,0-2.6-.63,4.76,4.76,0,0,0-2.56.69,4.88,4.88,0,0,0-1.76,1.9,5.86,5.86,0,0,0-.64,2.79L120.35,250a8.7,8.7,0,0,1,1.15-4.49,8.4,8.4,0,0,1,7.38-4.21,8.21,8.21,0,0,1,4.1.95,6,6,0,0,1,2.5,2.7,9.21,9.21,0,0,1,.85,4.1v12.77Z"/><path class="cls-2" d="M149.29,262.28a14.08,14.08,0,0,1-3.43-.4,9.62,9.62,0,0,1-2.89-1.2,6.07,6.07,0,0,1-2-2,5.12,5.12,0,0,1-.74-2.75v-.43h5v.34a2,2,0,0,0,1.13,1.85,6.54,6.54,0,0,0,3.09.62,8.5,8.5,0,0,0,2-.23,3.76,3.76,0,0,0,1.52-.7,1.51,1.51,0,0,0,.58-1.22,1.75,1.75,0,0,0-1.22-1.71,18.42,18.42,0,0,0-3.85-.93,23.56,23.56,0,0,1-2.85-.67,10.16,10.16,0,0,1-2.55-1.12,5.65,5.65,0,0,1-1.85-1.75,4.48,4.48,0,0,1-.69-2.54,4.86,4.86,0,0,1,1.19-3.35,7.32,7.32,0,0,1,3.19-2.07,13.48,13.48,0,0,1,4.42-.7,12,12,0,0,1,4.31.76,7.88,7.88,0,0,1,3.22,2.19,5.06,5.06,0,0,1,1.22,3.43V248h-4.94v-.25a1.9,1.9,0,0,0-.55-1.42,3.31,3.31,0,0,0-1.42-.82,6.21,6.21,0,0,0-1.84-.27,8.47,8.47,0,0,0-1.77.19,3.56,3.56,0,0,0-1.52.62,1.45,1.45,0,0,0-.61,1.25,1.48,1.48,0,0,0,.63,1.23,5.2,5.2,0,0,0,1.75.79,23.21,23.21,0,0,0,2.58.56,24.38,24.38,0,0,1,2.8.63,11.61,11.61,0,0,1,2.6,1.06,5.71,5.71,0,0,1,1.91,1.74,4.64,4.64,0,0,1,.73,2.65,5.2,5.2,0,0,1-.76,2.85,6.22,6.22,0,0,1-2.06,2,10,10,0,0,1-2.94,1.13A15.7,15.7,0,0,1,149.29,262.28Z"/><path class="cls-2" d="M169.81,262.24a7.81,7.81,0,0,1-3.56-.72,5.88,5.88,0,0,1-2.23-1.9,7.59,7.59,0,0,1-1.14-2.6,12.6,12.6,0,0,1-.33-2.85V241.68h5v11.19a9,9,0,0,0,.32,2.5,3.46,3.46,0,0,0,1.19,1.85,3.75,3.75,0,0,0,2.44.71,4,4,0,0,0,2.58-.88,6,6,0,0,0,1.68-2.24,6.67,6.67,0,0,0,.6-2.73l1.71,1.14a10.34,10.34,0,0,1-.57,3.46,8.73,8.73,0,0,1-1.65,2.88,7.7,7.7,0,0,1-2.61,2A8.15,8.15,0,0,1,169.81,262.24Zm6.57-.38V241.68h5v20.18Z"/><path class="cls-2" d="M186.2,261.86V241.68h5v6.71l-1.16-.65a9.43,9.43,0,0,1,.71-2.48,6.85,6.85,0,0,1,1.36-2,6,6,0,0,1,2.07-1.38,7.53,7.53,0,0,1,2.78-.49,8.38,8.38,0,0,1,1.95.18,3.4,3.4,0,0,1,.88.3l-.91,4.57a5.13,5.13,0,0,0-.77-.33,5,5,0,0,0-1.55-.2,5.81,5.81,0,0,0-2.58.52,4.34,4.34,0,0,0-1.64,1.41,6,6,0,0,0-.87,1.94,8.4,8.4,0,0,0-.27,2.1v10Z"/><path class="cls-2" d="M204.43,253.39v-3.56h14.11l-.57.95v-.49a5.25,5.25,0,0,0-.59-2.46A4.54,4.54,0,0,0,215.6,246a5.82,5.82,0,0,0-3-.72,6.31,6.31,0,0,0-3.17.77,5.29,5.29,0,0,0-2.07,2.22,7.52,7.52,0,0,0-.73,3.46,8.43,8.43,0,0,0,.7,3.56,5.1,5.1,0,0,0,2.07,2.28,6.54,6.54,0,0,0,3.31.79,9.63,9.63,0,0,0,2.3-.25,5,5,0,0,0,1.59-.67,3.42,3.42,0,0,0,.93-.93,2.33,2.33,0,0,0,.37-1h5A5.75,5.75,0,0,1,222,258a7.78,7.78,0,0,1-2,2.19,10.72,10.72,0,0,1-3.18,1.56,14.32,14.32,0,0,1-4.27.58,11.6,11.6,0,0,1-5.68-1.33,9.53,9.53,0,0,1-3.79-3.71,11.57,11.57,0,0,1,0-10.92,9.62,9.62,0,0,1,3.83-3.68,11.63,11.63,0,0,1,5.62-1.32,11.48,11.48,0,0,1,5.65,1.33,9.23,9.23,0,0,1,3.68,3.7,11.29,11.29,0,0,1,1.29,5.5c0,.26,0,.55,0,.85a6.42,6.42,0,0,1,0,.67Z"/><path class="cls-2" d="M246.8,262.28a11.87,11.87,0,0,1-5.65-1.31,9.67,9.67,0,0,1-3.84-3.69,10.87,10.87,0,0,1-1.38-5.56,10.61,10.61,0,0,1,1.38-5.51,9.48,9.48,0,0,1,3.84-3.61,12.21,12.21,0,0,1,5.65-1.26,12,12,0,0,1,4.23.7,9.5,9.5,0,0,1,3.11,1.88,8.6,8.6,0,0,1,1.93,2.56,6.47,6.47,0,0,1,.66,2.78v.16h-5a.75.75,0,0,0,0-.21l0-.23a3.89,3.89,0,0,0-.78-1.76,4.58,4.58,0,0,0-1.67-1.26,6.55,6.55,0,0,0-5.41.22,5,5,0,0,0-2.07,2.08,7.06,7.06,0,0,0-.77,3.46,7.33,7.33,0,0,0,.76,3.48,5.32,5.32,0,0,0,2.06,2.19,5.7,5.7,0,0,0,2.9.75,6.41,6.41,0,0,0,2.76-.52,3.84,3.84,0,0,0,1.63-1.41,4.23,4.23,0,0,0,.62-1.93h5a6.72,6.72,0,0,1-.64,2.82,8.52,8.52,0,0,1-1.9,2.6,9.5,9.5,0,0,1-3.11,1.88A12,12,0,0,1,246.8,262.28Z"/><path class="cls-2" d="M266.06,232.16v29.7h-4.92v-29.7Z"/><path class="cls-2" d="M273,253.39v-3.56h14.12l-.57.95v-.49a5.25,5.25,0,0,0-.59-2.46,4.54,4.54,0,0,0-1.78-1.86,5.85,5.85,0,0,0-3-.72A6.31,6.31,0,0,0,278,246a5.29,5.29,0,0,0-2.07,2.22,7.52,7.52,0,0,0-.73,3.46,8.43,8.43,0,0,0,.7,3.56,5.1,5.1,0,0,0,2.07,2.28,6.54,6.54,0,0,0,3.31.79,9.63,9.63,0,0,0,2.3-.25,5,5,0,0,0,1.59-.67,3.42,3.42,0,0,0,.93-.93,2.33,2.33,0,0,0,.37-1h5a5.75,5.75,0,0,1-.85,2.47,7.78,7.78,0,0,1-2,2.19,10.72,10.72,0,0,1-3.18,1.56,14.32,14.32,0,0,1-4.27.58,11.6,11.6,0,0,1-5.68-1.33,9.53,9.53,0,0,1-3.79-3.71,11.57,11.57,0,0,1,0-10.92,9.62,9.62,0,0,1,3.83-3.68,11.63,11.63,0,0,1,5.62-1.32,11.48,11.48,0,0,1,5.65,1.33,9.23,9.23,0,0,1,3.68,3.7,11.29,11.29,0,0,1,1.29,5.5c0,.26,0,.55,0,.85a4.16,4.16,0,0,1-.06.67Z"/><path class="cls-2" d="M302.77,262.28a10.34,10.34,0,0,1-4-.71,6.16,6.16,0,0,1-2.68-2.07,5.36,5.36,0,0,1-1-3.24,5.12,5.12,0,0,1,1.13-3.41,7.24,7.24,0,0,1,3.05-2.08,16.22,16.22,0,0,1,4.26-.94,43.48,43.48,0,0,0,4.83-.65q1.38-.31,1.38-1v0a2.27,2.27,0,0,0-1.2-2.05,6.58,6.58,0,0,0-3.38-.72,6.36,6.36,0,0,0-3.52.81,2.83,2.83,0,0,0-1.23,2.55h-4.94a6.38,6.38,0,0,1,1.26-4,7.83,7.83,0,0,1,3.47-2.5,13.76,13.76,0,0,1,5-.86,14,14,0,0,1,4.77.78,7.79,7.79,0,0,1,3.47,2.36,5.9,5.9,0,0,1,1.31,3.93v9.2c0,.48,0,.95.05,1.41a6.41,6.41,0,0,0,.2,1.25,4.4,4.4,0,0,0,.46,1,3.2,3.2,0,0,0,.42.57H311a2.63,2.63,0,0,1-.37-.52,4.7,4.7,0,0,1-.43-.9,7.38,7.38,0,0,1-.29-1.23,10.74,10.74,0,0,1-.09-1.45l1,.68a5.65,5.65,0,0,1-1.74,2,8.81,8.81,0,0,1-2.79,1.33A12.21,12.21,0,0,1,302.77,262.28Zm1.21-3.93a7.59,7.59,0,0,0,2.89-.54,4.51,4.51,0,0,0,3-4.5v-2.7l1.21,1.37a15.23,15.23,0,0,1-2.92.75c-1.14.2-2.3.35-3.46.47a9.76,9.76,0,0,0-3.37.78,1.93,1.93,0,0,0-1.13,1.86,2.1,2.1,0,0,0,.95,1.88A5.23,5.23,0,0,0,304,258.35Z"/><path class="cls-2" d="M319.47,261.86V241.68h5v20.18Zm14.27,0V250.52a7.3,7.3,0,0,0-.39-2.46,3.36,3.36,0,0,0-1.33-1.72,4.61,4.61,0,0,0-2.59-.63,4.8,4.8,0,0,0-2.57.69,5,5,0,0,0-1.76,1.9,6,6,0,0,0-.63,2.79L322.78,250a8.7,8.7,0,0,1,1.15-4.49,8.38,8.38,0,0,1,3.08-3.09,8.51,8.51,0,0,1,4.3-1.12,8.17,8.17,0,0,1,4.09.95,6,6,0,0,1,2.51,2.7,9.35,9.35,0,0,1,.84,4.1v12.77Z"/><path class="cls-2" d="M94.23,306.39v-3.56h14.11l-.57.95v-.49a5.37,5.37,0,0,0-.58-2.46A4.57,4.57,0,0,0,105.4,299a5.82,5.82,0,0,0-3-.72,6.24,6.24,0,0,0-3.16.77,5.25,5.25,0,0,0-2.08,2.22,7.65,7.65,0,0,0-.73,3.46,8.28,8.28,0,0,0,.71,3.56,5,5,0,0,0,2.06,2.28,6.54,6.54,0,0,0,3.31.79,9.57,9.57,0,0,0,2.3-.25,4.88,4.88,0,0,0,1.59-.67,3.42,3.42,0,0,0,.93-.93,2.33,2.33,0,0,0,.37-1h5a5.75,5.75,0,0,1-.85,2.47,7.78,7.78,0,0,1-2,2.19,10.6,10.6,0,0,1-3.18,1.56,14.32,14.32,0,0,1-4.27.58A11.63,11.63,0,0,1,96.62,314a9.59,9.59,0,0,1-3.79-3.71,11.57,11.57,0,0,1,0-10.92,9.62,9.62,0,0,1,3.83-3.68,11.66,11.66,0,0,1,5.62-1.32,11.48,11.48,0,0,1,5.65,1.33,9.23,9.23,0,0,1,3.68,3.7,11.29,11.29,0,0,1,1.29,5.5c0,.26,0,.55,0,.85a6.42,6.42,0,0,1-.05.67Z"/><path class="cls-2" d="M117.05,314.86V294.68h5v20.18Zm14.26,0V303.52a7.56,7.56,0,0,0-.38-2.46,3.41,3.41,0,0,0-1.33-1.72,4.65,4.65,0,0,0-2.6-.63,4.76,4.76,0,0,0-2.56.69,4.88,4.88,0,0,0-1.76,1.9,5.86,5.86,0,0,0-.64,2.79l-1.69-1a8.7,8.7,0,0,1,1.15-4.49,8.4,8.4,0,0,1,7.38-4.21,8.21,8.21,0,0,1,4.1,1,6,6,0,0,1,2.5,2.7,9.21,9.21,0,0,1,.85,4.1v12.77Z"/><path class="cls-2" d="M143,306.39v-3.56h14.12l-.57.95v-.49a5.37,5.37,0,0,0-.59-2.46,4.57,4.57,0,0,0-1.79-1.86,5.82,5.82,0,0,0-3-.72A6.24,6.24,0,0,0,148,299a5.17,5.17,0,0,0-2.07,2.22,7.52,7.52,0,0,0-.74,3.46,8.28,8.28,0,0,0,.71,3.56,5.08,5.08,0,0,0,2.06,2.28,6.55,6.55,0,0,0,3.32.79,9.54,9.54,0,0,0,2.29-.25,4.88,4.88,0,0,0,1.59-.67,3.42,3.42,0,0,0,.93-.93,2.33,2.33,0,0,0,.37-1h5a5.75,5.75,0,0,1-.85,2.47,7.5,7.5,0,0,1-2,2.19,10.49,10.49,0,0,1-3.18,1.56,14.32,14.32,0,0,1-4.27.58,11.63,11.63,0,0,1-5.68-1.33,9.59,9.59,0,0,1-3.79-3.71,10.78,10.78,0,0,1-1.36-5.43,10.66,10.66,0,0,1,1.38-5.49,9.69,9.69,0,0,1,3.83-3.68,11.66,11.66,0,0,1,5.62-1.32,11.52,11.52,0,0,1,5.66,1.33,9.2,9.2,0,0,1,3.67,3.7,11.29,11.29,0,0,1,1.29,5.5c0,.26,0,.55,0,.85s0,.53-.06.67Z"/><path class="cls-2" d="M165.82,314.86V294.68h5v6.71l-1.15-.65a9.42,9.42,0,0,1,.7-2.48,6.88,6.88,0,0,1,1.37-2.05,6,6,0,0,1,2.07-1.38,7.48,7.48,0,0,1,2.77-.49,8.38,8.38,0,0,1,2,.18,3.4,3.4,0,0,1,.88.3l-.91,4.57a4.69,4.69,0,0,0-.77-.33,5,5,0,0,0-1.55-.2,5.79,5.79,0,0,0-2.57.52,4.38,4.38,0,0,0-1.65,1.41,6.18,6.18,0,0,0-.87,1.94,8.4,8.4,0,0,0-.27,2.1v10Z"/><path class="cls-2" d="M195.76,312.87a12.49,12.49,0,0,1,3.14.66A4.62,4.62,0,0,1,201,315a4.22,4.22,0,0,1,.76,2.62,4.5,4.5,0,0,1-1.24,3.15,7.92,7.92,0,0,1-3.62,2.05,20.51,20.51,0,0,1-5.86.72,16.76,16.76,0,0,1-7.77-1.45q-2.72-1.45-2.72-3.94a4.49,4.49,0,0,1,.17-1.27,3.85,3.85,0,0,1,.42-.95l4.58.66a1.79,1.79,0,0,0-.23.48,2.73,2.73,0,0,0-.11.81c0,.79.53,1.35,1.58,1.7a13.85,13.85,0,0,0,4.23.53,16.34,16.34,0,0,0,3.24-.27,5.14,5.14,0,0,0,2-.76,1.42,1.42,0,0,0,.67-1.16,1.21,1.21,0,0,0-.89-1.27,9.35,9.35,0,0,0-2.13-.38l-7.66-.71a6.57,6.57,0,0,1-3.37-1.21,3.18,3.18,0,0,1-1.32-2.66,3.42,3.42,0,0,1,.54-1.86,6.06,6.06,0,0,1,1.25-1.44,3.57,3.57,0,0,1,1.19-.71l2.85,1.4a2,2,0,0,0-.94.52,1.36,1.36,0,0,0-.54,1.08,1.19,1.19,0,0,0,.53,1,4.55,4.55,0,0,0,2.06.54ZM198,294.68h4.49l-1.83,7.83a12.14,12.14,0,0,1-1.65,3.95,8,8,0,0,1-3,2.76,10.18,10.18,0,0,1-4.79,1,12.6,12.6,0,0,1-5.18-1,7.73,7.73,0,0,1-3.35-2.76,7.19,7.19,0,0,1-1.18-4.09,7.34,7.34,0,0,1,1.21-4.19,8.11,8.11,0,0,1,3.32-2.84,10.84,10.84,0,0,1,4.8-1,10.27,10.27,0,0,1,3.9.71,7.62,7.62,0,0,1,2.76,1.86,3.92,3.92,0,0,1,1.11,2.43l-1.12.21Zm-6.84,11.69a6.11,6.11,0,0,0,2.53-.48,3.66,3.66,0,0,0,1.65-1.37,4,4,0,0,0,.59-2.2,3.92,3.92,0,0,0-.59-2.18,3.72,3.72,0,0,0-1.65-1.4,6.07,6.07,0,0,0-2.51-.49,5.92,5.92,0,0,0-2.49.5,4,4,0,0,0-1.7,1.41,4.24,4.24,0,0,0,0,4.38,3.75,3.75,0,0,0,1.67,1.36A6.33,6.33,0,0,0,191.18,306.37Z"/><path class="cls-2" d="M207.2,323.53a12.71,12.71,0,0,1-1.6-.09,4.3,4.3,0,0,1-.87-.16v-3.9a2.73,2.73,0,0,0,.84.18,10.13,10.13,0,0,0,1.25.07,3.7,3.7,0,0,0,1.81-.42,3.93,3.93,0,0,0,1.32-1.15,5.94,5.94,0,0,0,.88-1.7l.43-1.27-6.95-20.41h5.23l4.77,16.84h-.61l4.65-16.84h5.13l-7.07,21.42a17.73,17.73,0,0,1-1.79,3.89,7.32,7.32,0,0,1-2.81,2.6A9.67,9.67,0,0,1,207.2,323.53Z"/><path class="cls-2" d="M92.36,367.86V347.68h5v6.71l-1.16-.65a9.43,9.43,0,0,1,.71-2.48,6.85,6.85,0,0,1,1.36-2.05,6,6,0,0,1,2.07-1.38,7.57,7.57,0,0,1,2.78-.49,8.38,8.38,0,0,1,1.95.18,3.4,3.4,0,0,1,.88.3l-.91,4.57a5.13,5.13,0,0,0-.77-.33,5,5,0,0,0-1.55-.2,5.76,5.76,0,0,0-2.57.52,4.38,4.38,0,0,0-1.65,1.41,6.18,6.18,0,0,0-.87,1.94,8.4,8.4,0,0,0-.27,2.1v10Z"/><path class="cls-2" d="M111.5,344a3.49,3.49,0,0,1-2.12-.66,2.29,2.29,0,0,1,0-3.64,3.55,3.55,0,0,1,2.12-.64,3.48,3.48,0,0,1,2.09.64,2.31,2.31,0,0,1,0,3.64A3.43,3.43,0,0,1,111.5,344ZM109,367.86V347.68H114v20.18Z"/><path class="cls-2" d="M132.45,365.87a12.49,12.49,0,0,1,3.14.66A4.62,4.62,0,0,1,137.7,368a4.16,4.16,0,0,1,.76,2.62,4.46,4.46,0,0,1-1.24,3.15,7.92,7.92,0,0,1-3.62,2.05,20.51,20.51,0,0,1-5.86.72,16.76,16.76,0,0,1-7.77-1.45q-2.72-1.45-2.72-3.94a4.14,4.14,0,0,1,.18-1.27,3.52,3.52,0,0,1,.41-.95l4.58.66a2.16,2.16,0,0,0-.23.48,2.73,2.73,0,0,0-.11.81c0,.79.53,1.35,1.59,1.7a13.73,13.73,0,0,0,4.22.53,16.2,16.2,0,0,0,3.24-.27,5.14,5.14,0,0,0,2-.76,1.42,1.42,0,0,0,.67-1.16,1.2,1.2,0,0,0-.89-1.27,9.15,9.15,0,0,0-2.13-.38l-7.65-.71a6.57,6.57,0,0,1-3.38-1.21,3.18,3.18,0,0,1-1.32-2.66,3.34,3.34,0,0,1,.55-1.86,6,6,0,0,1,1.24-1.44,3.59,3.59,0,0,1,1.2-.71l2.85,1.4a2,2,0,0,0-.94.52,1.34,1.34,0,0,0-.55,1.08,1.17,1.17,0,0,0,.54,1,4.46,4.46,0,0,0,2,.54Zm2.27-18.19h4.48l-1.82,7.83a12.37,12.37,0,0,1-1.66,3.95,8,8,0,0,1-3,2.76,10.15,10.15,0,0,1-4.79,1,12.55,12.55,0,0,1-5.17-1,7.76,7.76,0,0,1-3.36-2.76,7.26,7.26,0,0,1-1.17-4.09,7.41,7.41,0,0,1,1.2-4.19,8.14,8.14,0,0,1,3.33-2.84,10.77,10.77,0,0,1,4.79-1,10.23,10.23,0,0,1,3.9.71,7.62,7.62,0,0,1,2.76,1.86,4,4,0,0,1,1.12,2.43l-1.13.21Zm-6.84,11.69a6.09,6.09,0,0,0,2.52-.48,3.75,3.75,0,0,0,1.66-1.37,4,4,0,0,0,.58-2.2,3.92,3.92,0,0,0-.58-2.18,3.81,3.81,0,0,0-1.66-1.4,6,6,0,0,0-2.51-.49,5.9,5.9,0,0,0-2.48.5,4,4,0,0,0-1.7,1.41,3.81,3.81,0,0,0-.62,2.2,3.87,3.87,0,0,0,.6,2.18,3.65,3.65,0,0,0,1.67,1.36A6.26,6.26,0,0,0,127.88,359.37Z"/><path class="cls-2" d="M142.58,367.86v-29.7h5v29.7Zm14.29,0v-11a6.47,6.47,0,0,0-1-3.85,3.85,3.85,0,0,0-3.33-1.34,5.46,5.46,0,0,0-2.69.62,4.14,4.14,0,0,0-1.7,1.72,5.21,5.21,0,0,0-.59,2.54l-1.83-1a8.35,8.35,0,0,1,1.1-4.29,7.72,7.72,0,0,1,3-2.94,9.16,9.16,0,0,1,4.44-1.06,7.12,7.12,0,0,1,5.61,2.18,8.78,8.78,0,0,1,1.94,6.05v12.29Z"/><path class="cls-2" d="M175.47,368.24a11.87,11.87,0,0,1-2.2-.21,6,6,0,0,1-2.06-.78,4.08,4.08,0,0,1-1.5-1.67,6.33,6.33,0,0,1-.57-2.91v-11h-4.77v-4h1.94a12.44,12.44,0,0,0,1.56-.08,1.34,1.34,0,0,0,.84-.41,2.13,2.13,0,0,0,.35-1,18.68,18.68,0,0,0,.08-1.93V341h5v6.65h6v4h-6v9.48a6.11,6.11,0,0,0,.34,2.26,1.55,1.55,0,0,0,1.62.86,6.15,6.15,0,0,0,1.15-.11,5.24,5.24,0,0,0,.8-.23v3.91a7.16,7.16,0,0,1-1,.27A8.19,8.19,0,0,1,175.47,368.24Z"/><path class="cls-2" d="M193.42,367.86V347.68h5v20.18Zm14.27,0V356.52a7.3,7.3,0,0,0-.39-2.46,3.36,3.36,0,0,0-1.33-1.72,4.59,4.59,0,0,0-2.59-.63,4.76,4.76,0,0,0-2.56.69,4.88,4.88,0,0,0-1.76,1.9,5.86,5.86,0,0,0-.64,2.79l-1.69-1a8.7,8.7,0,0,1,1.15-4.49,8.4,8.4,0,0,1,7.38-4.21,8.21,8.21,0,0,1,4.1,1,6.06,6.06,0,0,1,2.5,2.7,9.21,9.21,0,0,1,.85,4.1v12.77Z"/><path class="cls-2" d="M227.43,368.26a11.5,11.5,0,0,1-5.62-1.34,9.78,9.78,0,0,1-3.81-3.71,10.65,10.65,0,0,1-1.38-5.44,10.48,10.48,0,0,1,1.38-5.42,9.77,9.77,0,0,1,3.81-3.68,12.56,12.56,0,0,1,11.25,0,9.77,9.77,0,0,1,3.81,3.68,10.48,10.48,0,0,1,1.38,5.42,10.65,10.65,0,0,1-1.38,5.44,9.78,9.78,0,0,1-3.81,3.71A11.52,11.52,0,0,1,227.43,368.26Zm0-4.08a5.69,5.69,0,0,0,3-.8,5.4,5.4,0,0,0,2-2.24,7.41,7.41,0,0,0,.72-3.37,7.29,7.29,0,0,0-.72-3.35,5.29,5.29,0,0,0-2-2.2,6.31,6.31,0,0,0-6,0,5.32,5.32,0,0,0-2,2.2,7.29,7.29,0,0,0-.72,3.35,7.41,7.41,0,0,0,.72,3.37,5.42,5.42,0,0,0,2,2.24A5.66,5.66,0,0,0,227.43,364.18Z"/><path class="cls-2" d="M244.27,367.86l-4.16-20.18h5.18l3,18.6h-.82l4.54-18.6h3.82l-4.62,20.18Zm13.91,0-4.7-20.18h3.82l4.58,18.6h-.82l2.93-18.6h5.19L265,367.86Z"/><path class="cls-2" d="M274.88,368.39a2.81,2.81,0,1,1,0-5.62,2.81,2.81,0,1,1,0,5.62Zm2.47-28.52-1,20.56h-3.06l-1-20.56Z"/><path class="cls-2" d="M284.93,344.62a2.75,2.75,0,0,1-2-.72,2.55,2.55,0,0,1-.75-1.94,2.74,2.74,0,0,1,.83-2,3.2,3.2,0,0,1,2.34-.81,2.88,2.88,0,0,1,2.39,1,4.15,4.15,0,0,1,.82,2.67,5,5,0,0,1-.75,2.73,7.13,7.13,0,0,1-1.9,2,10.37,10.37,0,0,1-2.3,1.28l-.59-1.23a8.08,8.08,0,0,0,1.56-.87,5.86,5.86,0,0,0,1.26-1.22,2.47,2.47,0,0,0,.52-1.39,1.19,1.19,0,0,1-.45.3A2.21,2.21,0,0,1,284.93,344.62Zm7.71,0a2.74,2.74,0,0,1-2-.72,2.52,2.52,0,0,1-.76-1.94,2.74,2.74,0,0,1,.83-2,3.19,3.19,0,0,1,2.33-.81,2.89,2.89,0,0,1,2.4,1,4.15,4.15,0,0,1,.83,2.67,4.94,4.94,0,0,1-.76,2.73,7.42,7.42,0,0,1-1.9,2,10.37,10.37,0,0,1-2.3,1.28l-.59-1.23a8.24,8.24,0,0,0,1.54-.87,5.69,5.69,0,0,0,1.27-1.22,2.51,2.51,0,0,0,.54-1.39,1.33,1.33,0,0,1-.47.3A2.2,2.2,0,0,1,292.64,344.62Z"/><polyline class="cls-5" points="89.86 402.27 232.66 402.27 273.13 423.82 267.19 402.27 379.27 402.27"/><path class="cls-2" d="M247.72,525.8,265,492.87a45.31,45.31,0,0,1,1.34,11.05,88.11,88.11,0,0,1-.88,9.42c.89.27,8.73,2.4,8.73,2.4s6.87.21,10.82-1.8l6.9-4.15,1-3.09a18.64,18.64,0,0,1-3.89.54l1.07-3a14.36,14.36,0,0,1-4.8-.95,40.11,40.11,0,0,1-6.86-4.63c-1.6-1.42-3.32-3.08-4.94-3.48a4.62,4.62,0,0,0-2.82.17V483.06l-.26-13.51,4.53-15s2.23-5.54,3.52-6.72,5.41-4.34,10.07-5.05a97.57,97.57,0,0,1,12-.83,19,19,0,0,1,7.14,2.86c2.81,2,6.68,4.17,8.57,7s8.76,19.46,8.76,19.46l3.69,8.91s-2.1-.22-2.17.63,1.83,6.11,1.67,6.56-3,1.46-3.35,2.05-.91,3.79-1.69,4.76-2.24,1.56-2.5,2.63-.77,2.71-.77,2.71-1.86.34-2.26.85-5.27,5.2-5.27,5.2l2,2.53a19.74,19.74,0,0,0,6.59,3.29,10.73,10.73,0,0,1,5.83,3.85l3,4.43,12.51,38.27s-16.57,1.68-37.35,2.29C285.76,560.75,247.72,525.8,247.72,525.8Z"/><path class="cls-2" d="M265.06,491l-1.68-13.16L260.69,464l-2.14-6.69s-.73-2-2.07-1.74-.1,4.79-.1,4.79l2.36,9.9a1.86,1.86,0,0,0-1.73.2,9.57,9.57,0,0,0-1.52,1.79,2.28,2.28,0,0,0-2.25-.48,1.88,1.88,0,0,0-1.56,1.5,1.3,1.3,0,0,0-1.52,0c-1,.51-1.34,3.79-1.34,3.79s-.11,3.38.85,4.46a2.62,2.62,0,0,1,.39,2.53s.09,3.42,1.44,5.15,2.69,3.64,2.69,3.64l-.95.74a59.91,59.91,0,0,0-3.55,6.58c-1.07,2.57-4.89,12.41-4.94,15.45a18.07,18.07,0,0,0,3,10.16c2.14,3,17.06-10.16,17.06-10.16a52.73,52.73,0,0,0,1.48-12.78C266,497.2,265.06,491,265.06,491Z"/><polygon class="cls-6" points="292.9 506.7 289.39 507.45 290.08 504.26 287.77 504.07 283.61 502.88 276.45 496.95 273.48 495.2 270.66 495.37 270.66 471.65 272.84 461.11 277.7 448.79 282.74 444.62 290.45 442.47 299.82 441.68 306.08 443.59 314.61 449.54 318.63 455.67 328.9 479.66 327 479.91 326.64 481.86 328.13 487.33 324.75 489.37 323.09 494.15 320.59 496.79 319.88 499.3 317.03 500.19 312.29 505.54 309.9 500.19 312.7 498.14 315.98 494.31 317.72 489.37 318.63 481.55 319.34 476.54 319.07 473.41 313.99 469.58 308.92 470.29 303.81 466.32 301.54 463.78 300.57 466.57 301.1 470.29 301.8 473.08 300.82 475.55 295.83 473.56 291.37 467.57 289.6 464.58 286.94 470.29 285.37 472.31 281.38 473.69 279.92 474.83 279.92 478.69 276.95 480.26 276.95 483.53 278.86 484.89 280.51 485.11 282.19 490.91 285.37 496.12 289.39 500.19 292.64 501.56 292.9 506.7"/><path class="cls-7" d="M314,508.07c4.44,2.21,12.67,5.13,15.26,10.68s12.93,39.16,12.93,39.16"/><path class="cls-7" d="M289.85,512.92s.14,1.17,4,1S308.35,511.5,310,511a46.15,46.15,0,0,0,5.18-2.24"/><line class="cls-7" x1="328.34" y1="517.16" x2="330.3" y2="556.82"/><path class="cls-8" d="M281.38,479.41s.66-3.08,1.78-3.91,6.24-1,9.77,0,5.8.9,5.29,3.55-2.86,5.73-5.79,6.32S282.93,486.37,281.38,479.41Z"/><path class="cls-9" d="M301.29,478.82s-.55-.83,2.7-2.66a24.77,24.77,0,0,1,10.59-3.05c4-.1,3.21,2.74,3.21,2.74s-.26,6.77-4.65,7.64S303,485.13,301.29,478.82Z"/><line class="cls-7" x1="298.11" y1="477.47" x2="301.54" y2="477.86"/><path d="M301.4,487.36l.78-.48a.61.61,0,0,0,.27-.36.37.37,0,0,0,0-.23.34.34,0,0,0-.07-.22.61.61,0,0,0-.35-.28.67.67,0,0,0-.46.06l-.78.48a.66.66,0,0,0-.27.36.45.45,0,0,0,0,.23.52.52,0,0,0,.07.22.63.63,0,0,0,.36.28.64.64,0,0,0,.45-.06Z"/><path d="M319.13,482a33.55,33.55,0,0,0,.72-6.4c0-1.15,0-2.64-1-3.41-1.33-1.05-2.91-1.87-4.3-2.85-.71-.51-1-.44-1.8-.26-1.21.26-2.47.43-3.66.78-.2.07-.46,0-.16.1s0-.09-.06-.15a12.89,12.89,0,0,0-1.76-1.33,22.78,22.78,0,0,1-4-4.06c-.48-.63-1.21-1.59-2-.88a4.65,4.65,0,0,0-.93,2.2,6.77,6.77,0,0,0,.17,3.4c.4,1.43,1.33,2.7,1,4.26a10.73,10.73,0,0,1-.79,1.93l.58-.24a16.69,16.69,0,0,1-3.25-1.06,8.56,8.56,0,0,1-3.78-3.26,72.61,72.61,0,0,1-3.93-6.57.53.53,0,0,0-.95.12,35.88,35.88,0,0,1-1.47,3.58c-.73,1.54-1.61,3.73-3.4,4.2-1.29.34-4.6,1.14-4.83,2.71a29.82,29.82,0,0,0,0,4.12l.38-.5c-1.56.26-3.21.71-3.34,2.79-.14,2.37,1.51,4.76,4.07,4.42l-.49-.38c1.33,8.25,7.93,17.75,17.19,17.52.66,0,.66-1,0-1-8.8.21-14.94-9-16.2-16.77a.52.52,0,0,0-.5-.38,2.89,2.89,0,0,1-3-3.73c.32-1.25,1.49-1.27,2.53-1.44a.52.52,0,0,0,.38-.5v-4.27l-.26.44a10.29,10.29,0,0,1,2.47-1.42c.85-.33,1.79-.43,2.61-.81a5.88,5.88,0,0,0,2.2-2.43,32,32,0,0,0,2.64-5.84l-.94.12a61.88,61.88,0,0,0,4.39,7.23,11.52,11.52,0,0,0,7.18,4.14.55.55,0,0,0,.59-.24,8.41,8.41,0,0,0,1-3.1c.07-2.05-1.43-3.74-1.39-5.84,0-.4.35-2.5.77-2.48s1.14,1.47,1.38,1.76a21.63,21.63,0,0,0,3.48,3.21,7.71,7.71,0,0,0,2.05,1.51,5.29,5.29,0,0,0,2.17-.37,13.74,13.74,0,0,0,2.94-.63c.17-.08-.28-.11-.23,0s.37.26.48.34l1.86,1.29c.7.47,1.46.88,2.14,1.38a2.41,2.41,0,0,1,.8,2.06,27.59,27.59,0,0,1-.67,6.77c-.12.65.87.93,1,.27Z"/><path class="cls-10" d="M292.9,506.7c-2.53.86-4.74,1.56-3.25-1.33,1.06-2.06-2-.61-4.92-2s-2-1.27-4.35-2.92-2.81-2.76-5.46-4.34-4.16-1-4.16-1,.06-13.84-.18-21.69S275,455,277.19,450s8.55-7,13.26-7.53,4.64-.32,9.11-.76,13.2,5.63,16.18,9,9.67,21.31,11.87,26.07,1.17,2.86-.08,3.26-1.32,1.18.26,4.94-.3,2.44-2.26,3.85-.62,1.36-1.7,4-2.71,2.29-3.26,4.47-.13,1.89-1.87,2.32-5.9,6.49-6.41,5.91"/><ellipse class="cls-11" cx="289.39" cy="480.49" rx="2.04" ry="1.33" transform="translate(-200.4 753.84) rotate(-88.11)"/><path class="cls-11" d="M287.77,479.51l3.06-.08a.52.52,0,0,0,.52-.51.53.53,0,0,0-.52-.52l-3.06.07a.54.54,0,0,0-.52.52.54.54,0,0,0,.52.52Z"/><ellipse class="cls-11" cx="311.41" cy="478.69" rx="1.33" ry="2.04" transform="translate(-27.44 19.02) rotate(-3.35)"/><path class="cls-11" d="M309.67,477.86l3-.35a.52.52,0,1,0,0-1l-3,.35a.54.54,0,0,0-.52.52c0,.25.23.55.52.51Z"/><path d="M292.14,501.7a22.1,22.1,0,0,1,.07,6c-.18,2-1.71,3.44-2.81,5-.39.54.51,1.06.89.52,1.21-1.69,2.69-3.17,2.94-5.33.12-1.05.13-2.15.17-3.21a14.49,14.49,0,0,0-.26-3.22c-.13-.65-1.12-.37-1,.28Z"/><path d="M318.11,481.85c-.34,3.92-.5,8.13-2.32,11.7-1.58,3.12-4.5,5.77-8.09,6.13-.66.06-.66,1.09,0,1a11.6,11.6,0,0,0,8.73-6.16c2.15-3.83,2.34-8.42,2.71-12.7.06-.66-1-.65-1,0Z"/><path d="M309.41,499.92a21.33,21.33,0,0,0,4.21,8.51c.42.52,1.15-.22.74-.73a20.22,20.22,0,0,1-4-8.06c-.15-.64-1.15-.37-1,.28Z"/><path d="M292,509c-5.13,4-11.31,6.73-17.93,6.16a23.61,23.61,0,0,1-5.62-1.22,17.76,17.76,0,0,0-2.82-1c-.55-.08-.79.76-.23.85a20.91,20.91,0,0,1,3.15,1.08,24,24,0,0,0,6.05,1.18c6.67.41,12.85-2.4,18-6.45.44-.35-.18-1-.61-.62Z"/><path d="M253.19,493.49c1.18,1.6,2.35,2.92,4.44,3.13,2.94.29,5.35-1.75,7.59-3.38l-.6-.15a10.91,10.91,0,0,1,.81,3.49,50.42,50.42,0,0,1,.47,6.26c.09,4.76-.27,9.76-2.11,14.21-.22.52.62.74.84.23,1.91-4.6,2.25-9.83,2.13-14.76a53,53,0,0,0-.5-6.29,11.54,11.54,0,0,0-.88-3.58.44.44,0,0,0-.6-.16c-1.87,1.36-4.06,3.3-6.49,3.29-2.07,0-3.19-1.17-4.35-2.73-.33-.45-1.09,0-.75.44Z"/><path d="M253.25,493c-1.44,1.35-2.31,3.5-3.14,5.25a83.11,83.11,0,0,0-3.51,8.72,42.08,42.08,0,0,0-2.16,8.32,14.91,14.91,0,0,0,2.9,10.77c.34.44,1.09,0,.76-.44a14.16,14.16,0,0,1-2.74-10.66,45.94,45.94,0,0,1,2.18-8.06,81.11,81.11,0,0,1,3.38-8.33c.78-1.64,1.6-3.69,3-4.95.41-.39-.21-1-.62-.62Z"/><path d="M254.8,494.3a4.37,4.37,0,0,0-1-3,21.56,21.56,0,0,1-2.17-2.7c-1.1-2.06-1.14-4.54-1.17-6.83a.44.44,0,0,0-.87,0,17.43,17.43,0,0,0,1,6.65,8.78,8.78,0,0,0,1.84,2.6,4.24,4.24,0,0,1,1.47,3.24c0,.56.84.56.88,0Z"/><path d="M265.62,492.57a191,191,0,0,0-4.64-29.5c-.57-2.34-1.22-5.18-2.78-7.09-.46-.56-1.25-1.19-2-.78s-.71,1.75-.65,2.52c.36,4.59,2,9,2.77,13.59.09.55.93.32.84-.23-.61-3.77-1.68-7.43-2.41-11.17-.17-.89-.76-2.8-.28-3.67s1.45.81,1.7,1.27a25.15,25.15,0,0,1,2.11,6.34c.94,4.24,1.74,8.52,2.47,12.8.9,5.28,1.6,10.58,2,15.92,0,.55.92.56.87,0Z"/><path d="M258.86,470.19a1.66,1.66,0,0,0-1.64-.24,2.57,2.57,0,0,0-1.63,1.44,9.11,9.11,0,0,0-.37,5.15.45.45,0,0,0,.44.43.43.43,0,0,0,.43-.43,9.75,9.75,0,0,1,.09-4.3,2.1,2.1,0,0,1,1-1.37,1.76,1.76,0,0,1,.64-.15.86.86,0,0,1,.28,0l.07,0c.07,0,0,0,0,0,.37.42,1-.19.62-.62Z"/><path d="M255.8,472a2.32,2.32,0,0,0-2.17-.72,3.08,3.08,0,0,0-2,1.32,6.14,6.14,0,0,0-.89,2.63,11.28,11.28,0,0,0,0,3.48c.09.55.93.32.84-.23a10.34,10.34,0,0,1,0-2.94,6.07,6.07,0,0,1,.61-2.17,2.31,2.31,0,0,1,1.48-1.2,1.49,1.49,0,0,1,1.56.45c.36.43,1-.19.62-.62Z"/><path d="M251.72,472.82a1.9,1.9,0,0,0-2.44,1,8.91,8.91,0,0,0-.86,3.44,9.07,9.07,0,0,0,.13,2.75,3,3,0,0,0,.84,1.67c.74.62,1.61.22,2.27-.32.43-.36-.19-1-.62-.62s-.95.59-1.3,0a3.88,3.88,0,0,1-.45-1.6,10.76,10.76,0,0,1,.26-3.44,5.66,5.66,0,0,1,.51-1.5c.23-.39.72-.84,1.22-.62s.95-.52.44-.75Z"/><path d="M257.88,474.29a9.83,9.83,0,0,0,.92,3.22.43.43,0,0,0,.59.16.45.45,0,0,0,.16-.6,8.78,8.78,0,0,1-.8-2.78.46.46,0,0,0-.44-.44.44.44,0,0,0-.43.44Z"/><path d="M260.69,476.66c-1.39.1-2.78.25-4.16.47-.7.11-1.39.23-2.08.37a13.63,13.63,0,0,0-1.91.46,2,2,0,0,0-1.39,2.34,2.56,2.56,0,0,0,2.13,1.9,5,5,0,0,0,1.88-.07c.54-.12,1.36-.46,1.85-.05l-.11-.42-1,2.68c-.2.53.65.75.84.23l1-2.68a.42.42,0,0,0-.12-.42c-1-.88-2.29-.12-3.47-.08a2.29,2.29,0,0,1-1.76-.56,1.4,1.4,0,0,1-.36-1.41c.24-.6,1-.72,1.57-.85.77-.17,1.55-.33,2.33-.46a45.13,45.13,0,0,1,4.76-.58c.56,0,.56-.91,0-.87Z"/><path d="M296.23,492.71c1.55-1,3.59-1.35,5.37-1.84l2.85-.77c.7-.19,1.64-.47,1.9.45.44,1.51-1,3.15-2,4.14-1.14,1.2-2.64,2.16-4.33,1.53a6.87,6.87,0,0,1-2.3-1.62c-.34-.33-2-1.7-1.28-2.23.52-.4,0-1.3-.53-.89-1.93,1.48.93,3.83,2.09,4.74a4.63,4.63,0,0,0,5.68.41,10.24,10.24,0,0,0,2.32-2.28,6,6,0,0,0,1.36-2.81,2.47,2.47,0,0,0-.67-2.26c-.86-.74-2-.33-3-.07l-4.26,1.16a12.45,12.45,0,0,0-3.79,1.45c-.55.36,0,1.26.52.89Z"/></g></g></svg>