<svg xmlns="http://www.w3.org/2000/svg" viewBox="0 0 440 672"><defs><style>.cls-1,.cls-2{fill:#fff;}.cls-1{opacity:0.05;}.cls-3{fill:#e200ff;}.cls-4,.cls-5,.cls-6{fill:none;stroke:#fff;stroke-miterlimit:10;}.cls-4{stroke-width:1.01px;}.cls-5{stroke-width:0.8px;}.cls-6{stroke-width:0.84px;}</style></defs><g id="Layer_2" data-name="Layer 2"><g id="Layer_1-2" data-name="Layer 1"><rect class="cls-1" width="440" height="672" rx="22.03"/><path class="cls-2" d="M90.67,102.42,86.45,74.34h5.17l3.24,26.77-.72,0,5.18-26.73h6.32l5.16,26.73-.73,0,3.24-26.77h5.2l-4.27,28.08h-7.69L102.21,78h.53L98.4,102.42Z"/><path class="cls-2" d="M123,93.93V90.37h14.15l-.57.95v-.49a5.39,5.39,0,0,0-.59-2.47,4.57,4.57,0,0,0-1.79-1.86,5.86,5.86,0,0,0-3-.72,6.28,6.28,0,0,0-3.17.77,5.32,5.32,0,0,0-2.08,2.22,7.73,7.73,0,0,0-.73,3.47,8.33,8.33,0,0,0,.71,3.57,5.08,5.08,0,0,0,2.06,2.28,6.5,6.5,0,0,0,3.32.79,9.23,9.23,0,0,0,2.31-.25,4.88,4.88,0,0,0,1.59-.67,3.42,3.42,0,0,0,.93-.93,2.36,2.36,0,0,0,.37-1h5a5.83,5.83,0,0,1-.85,2.49,8.05,8.05,0,0,1-2,2.19,10.66,10.66,0,0,1-3.19,1.56,14.39,14.39,0,0,1-4.28.58,11.64,11.64,0,0,1-5.69-1.33,9.58,9.58,0,0,1-3.8-3.72,11.61,11.61,0,0,1,0-10.94,9.67,9.67,0,0,1,3.84-3.69,11.67,11.67,0,0,1,5.63-1.32,11.45,11.45,0,0,1,5.67,1.33,9.19,9.19,0,0,1,3.68,3.71,11.33,11.33,0,0,1,1.3,5.51c0,.26,0,.55,0,.85s0,.53-.06.67Z"/><path class="cls-2" d="M155.39,102.42V72.66h5v29.76Zm14.31,0v-11a6.44,6.44,0,0,0-1-3.86,3.86,3.86,0,0,0-3.34-1.34,5.49,5.49,0,0,0-2.69.62A4.23,4.23,0,0,0,161,88.58a5.39,5.39,0,0,0-.59,2.55l-1.82-1a8.35,8.35,0,0,1,1.09-4.29,7.75,7.75,0,0,1,3-2.94,9.1,9.1,0,0,1,4.45-1.07A7.14,7.14,0,0,1,172.77,84a8.76,8.76,0,0,1,1.94,6.06v12.32Z"/><path class="cls-2" d="M186.48,102.84a10.4,10.4,0,0,1-4-.71,6.19,6.19,0,0,1-2.69-2.07,5.46,5.46,0,0,1-1-3.25A5.08,5.08,0,0,1,180,93.39,7.24,7.24,0,0,1,183,91.31a15.91,15.91,0,0,1,4.27-.94,45.26,45.26,0,0,0,4.84-.66q1.38-.31,1.38-1v0a2.28,2.28,0,0,0-1.2-2.06,6.62,6.62,0,0,0-3.39-.72,6.42,6.42,0,0,0-3.53.81,2.84,2.84,0,0,0-1.23,2.56h-4.95a6.44,6.44,0,0,1,1.27-4,7.75,7.75,0,0,1,3.48-2.5,13.76,13.76,0,0,1,5-.86,14.06,14.06,0,0,1,4.78.78A7.94,7.94,0,0,1,197.24,85a6,6,0,0,1,1.31,3.94v9.22c0,.48,0,1,0,1.42a5.54,5.54,0,0,0,.2,1.24,4.3,4.3,0,0,0,.45,1,3.79,3.79,0,0,0,.42.57h-4.95a3.13,3.13,0,0,1-.37-.52,5.15,5.15,0,0,1-.43-.91,7.51,7.51,0,0,1-.28-1.22,9.39,9.39,0,0,1-.1-1.46l1,.68a5.49,5.49,0,0,1-1.74,2,8.61,8.61,0,0,1-2.79,1.34A12.33,12.33,0,0,1,186.48,102.84Zm1.22-3.94a7.82,7.82,0,0,0,2.89-.53,4.85,4.85,0,0,0,2.15-1.65,4.69,4.69,0,0,0,.82-2.87v-2.7l1.22,1.37a15.35,15.35,0,0,1-2.93.75c-1.14.2-2.3.36-3.47.47a9.89,9.89,0,0,0-3.38.78,2,2,0,0,0-1.13,1.87,2.12,2.12,0,0,0,.95,1.88A5.28,5.28,0,0,0,187.7,98.9Z"/><path class="cls-2" d="M219.8,82.2l-6.34,20.22h-6.72l-6.5-20.22h5.18l5.09,18.47h-.8l4.91-18.47Z"/><path class="cls-2" d="M224,93.93V90.37h14.14l-.57.95v-.49a5.26,5.26,0,0,0-.59-2.47,4.5,4.5,0,0,0-1.79-1.86,5.82,5.82,0,0,0-3-.72,6.28,6.28,0,0,0-3.17.77,5.25,5.25,0,0,0-2.08,2.22,7.6,7.6,0,0,0-.73,3.47,8.33,8.33,0,0,0,.7,3.57,5.1,5.1,0,0,0,2.07,2.28,6.48,6.48,0,0,0,3.32.79,9.09,9.09,0,0,0,2.3-.25,4.88,4.88,0,0,0,1.59-.67,3.33,3.33,0,0,0,.94-.93,2.36,2.36,0,0,0,.37-1h5a5.83,5.83,0,0,1-.85,2.49,7.94,7.94,0,0,1-2,2.19,10.55,10.55,0,0,1-3.19,1.56,14.32,14.32,0,0,1-4.27.58,11.64,11.64,0,0,1-5.69-1.33,9.58,9.58,0,0,1-3.8-3.72,11.61,11.61,0,0,1,0-10.94,9.71,9.71,0,0,1,3.83-3.69,11.74,11.74,0,0,1,5.64-1.32,11.42,11.42,0,0,1,5.66,1.33,9.22,9.22,0,0,1,3.69,3.71,11.33,11.33,0,0,1,1.29,5.51c0,.26,0,.55,0,.85a6.42,6.42,0,0,1-.05.67Z"/><path class="cls-2" d="M87.53,155.57V135.35h5v20.22Zm12.57,0V144a14,14,0,0,0-.1-1.55,4.64,4.64,0,0,0-.42-1.5,2.6,2.6,0,0,0-1-1.11,3.4,3.4,0,0,0-1.85-.43,3.77,3.77,0,0,0-1.94.47,4,4,0,0,0-1.29,1.23,5.32,5.32,0,0,0-.73,1.76,8.37,8.37,0,0,0-.23,2l-1.68-1.13a10.1,10.1,0,0,1,.94-4.45,7.55,7.55,0,0,1,2.65-3.12A7.25,7.25,0,0,1,98.54,135a6.52,6.52,0,0,1,3.86,1,5.69,5.69,0,0,1,2,2.75,11.57,11.57,0,0,1,.62,3.88v12.91Zm12.49,0V143.94a14.65,14.65,0,0,0-.1-1.61,4.21,4.21,0,0,0-.42-1.46,2.47,2.47,0,0,0-1-1.07,3.64,3.64,0,0,0-1.86-.41,3.75,3.75,0,0,0-2,.46,3.54,3.54,0,0,0-1.27,1.22,5.54,5.54,0,0,0-.7,1.71,8.78,8.78,0,0,0-.21,1.9l-1.68-1.1a10.24,10.24,0,0,1,.91-4.36,7.39,7.39,0,0,1,2.63-3.08A7.26,7.26,0,0,1,111,135a6.8,6.8,0,0,1,3.82,1,5.56,5.56,0,0,1,2.11,2.66,10.45,10.45,0,0,1,.65,3.84v13.09Z"/><path class="cls-2" d="M129.36,156a10.4,10.4,0,0,1-4-.71,6.11,6.11,0,0,1-2.68-2.07,5.4,5.4,0,0,1-1-3.25,5.08,5.08,0,0,1,1.14-3.42,7.33,7.33,0,0,1,3-2.08,16.39,16.39,0,0,1,4.27-.94c2.31-.23,3.92-.45,4.84-.65s1.38-.55,1.38-1v0a2.28,2.28,0,0,0-1.2-2.06,6.58,6.58,0,0,0-3.38-.72,6.44,6.44,0,0,0-3.54.81,2.83,2.83,0,0,0-1.22,2.56h-5a6.44,6.44,0,0,1,1.26-4,7.81,7.81,0,0,1,3.48-2.5,13.76,13.76,0,0,1,5-.86,14,14,0,0,1,4.78.78,7.94,7.94,0,0,1,3.49,2.36,6,6,0,0,1,1.31,3.94v9.22c0,.48,0,.95,0,1.42a6.41,6.41,0,0,0,.2,1.25,4.4,4.4,0,0,0,.46,1,3.28,3.28,0,0,0,.41.57h-5a2.74,2.74,0,0,1-.37-.52,5.39,5.39,0,0,1-.43-.9,7.39,7.39,0,0,1-.28-1.23,9.39,9.39,0,0,1-.1-1.46l1,.69a5.54,5.54,0,0,1-1.74,2,8.84,8.84,0,0,1-2.79,1.35A12.7,12.7,0,0,1,129.36,156Zm1.22-3.94a7.82,7.82,0,0,0,2.89-.53,4.85,4.85,0,0,0,2.15-1.65,4.68,4.68,0,0,0,.82-2.86V144.3l1.22,1.37a16.08,16.08,0,0,1-2.93.76c-1.14.19-2.3.35-3.47.46a10,10,0,0,0-3.38.78,2,2,0,0,0-1.13,1.87,2.11,2.11,0,0,0,1,1.88A5.3,5.3,0,0,0,130.58,152.05Z"/><path class="cls-2" d="M146.1,155.57V135.35h5v20.22Zm14.29,0V144.21a7.32,7.32,0,0,0-.39-2.47,3.36,3.36,0,0,0-1.33-1.72,4.63,4.63,0,0,0-2.6-.63,4.74,4.74,0,0,0-2.57.7,4.82,4.82,0,0,0-1.76,1.9,5.86,5.86,0,0,0-.64,2.79l-1.69-1.05a8.71,8.71,0,0,1,1.15-4.5A8.39,8.39,0,0,1,158,135a8.21,8.21,0,0,1,4.1,1,6.1,6.1,0,0,1,2.51,2.71,9.25,9.25,0,0,1,.85,4.11v12.79Z"/><path class="cls-2" d="M170.87,164.26a12.71,12.71,0,0,1-1.6-.09,4.46,4.46,0,0,1-.88-.16v-3.9a3.5,3.5,0,0,0,.85.18,12.41,12.41,0,0,0,1.24.06,3.74,3.74,0,0,0,1.82-.42,4.06,4.06,0,0,0,1.33-1.15,5.92,5.92,0,0,0,.87-1.7l.44-1.28-7-20.45h5.24L178,152.22h-.61L182,135.35h5.14l-7.08,21.46a18.39,18.39,0,0,1-1.8,3.91,7.32,7.32,0,0,1-2.81,2.6A9.87,9.87,0,0,1,170.87,164.26Z"/><path class="cls-2" d="M87.53,217.05V188.51h5v28.54Zm11.39-7.9a8.2,8.2,0,0,1-4.37-1.23,9.33,9.33,0,0,1-3.24-3.36,9.45,9.45,0,0,1-1.23-4.8v-.27l2.48-.06v.2a4.7,4.7,0,0,0,.74,2.63,5.32,5.32,0,0,0,1.93,1.81,5.32,5.32,0,0,0,6.28-.85,7.84,7.84,0,0,0,0-9.32,5.43,5.43,0,0,0-6.27-.83,5.29,5.29,0,0,0-1.94,1.76,4.6,4.6,0,0,0-.75,2.62l-2.48-.11a9.15,9.15,0,0,1,1.23-4.76,9,9,0,0,1,3.24-3.25,8.52,8.52,0,0,1,4.37-1.17,9.19,9.19,0,0,1,4.58,1.2,9,9,0,0,1,3.42,3.53,11.38,11.38,0,0,1,1.31,5.67,12.11,12.11,0,0,1-1.28,5.81,8.86,8.86,0,0,1-3.39,3.57A9.26,9.26,0,0,1,98.92,209.15Z"/><path class="cls-2" d="M112.36,208.73V188.51h5v6.72l-1.16-.65a9.71,9.71,0,0,1,.71-2.48,6.81,6.81,0,0,1,1.37-2.06,6,6,0,0,1,2.07-1.38,7.37,7.37,0,0,1,2.78-.5,8.41,8.41,0,0,1,2,.18,3.4,3.4,0,0,1,.88.3l-.91,4.59a4.08,4.08,0,0,0-.77-.34,5.05,5.05,0,0,0-1.56-.2,5.73,5.73,0,0,0-2.58.53,4.27,4.27,0,0,0-1.64,1.41,5.89,5.89,0,0,0-.88,1.94,8.46,8.46,0,0,0-.27,2.1v10.06Z"/><path class="cls-2" d="M138.69,209.13a11.48,11.48,0,0,1-5.64-1.35,9.73,9.73,0,0,1-3.81-3.72,11.41,11.41,0,0,1,0-10.88,9.7,9.7,0,0,1,3.81-3.68,12.52,12.52,0,0,1,11.27,0,9.66,9.66,0,0,1,3.82,3.68,11.41,11.41,0,0,1,0,10.88,9.69,9.69,0,0,1-3.82,3.72A11.41,11.41,0,0,1,138.69,209.13Zm0-4.1a5.62,5.62,0,0,0,3-.8,5.44,5.44,0,0,0,2-2.23,7.35,7.35,0,0,0,.73-3.38,7.18,7.18,0,0,0-.73-3.36,5.29,5.29,0,0,0-2-2.2,6.26,6.26,0,0,0-6.05,0,5.34,5.34,0,0,0-2,2.2,7.31,7.31,0,0,0-.72,3.36,7.48,7.48,0,0,0,.72,3.38,5.48,5.48,0,0,0,2,2.23A5.61,5.61,0,0,0,138.69,205Z"/><path class="cls-2" d="M153.65,208.73V179h5v29.76Zm11.39.42a8.23,8.23,0,0,1-4.37-1.23,9.33,9.33,0,0,1-3.24-3.36,9.45,9.45,0,0,1-1.23-4.8v-.27l2.48-.06v.2a4.78,4.78,0,0,0,.74,2.63,5.35,5.35,0,0,0,1.94,1.81,5.31,5.31,0,0,0,6.27-.85,7.84,7.84,0,0,0,0-9.32,5.2,5.2,0,0,0-3.74-1.47,5.4,5.4,0,0,0-4.47,2.4,4.6,4.6,0,0,0-.75,2.62l-2.48-.11a9.15,9.15,0,0,1,1.23-4.76,9,9,0,0,1,3.24-3.25,8.54,8.54,0,0,1,4.37-1.17,9,9,0,0,1,8,4.73,11.51,11.51,0,0,1,1.3,5.67,12.11,12.11,0,0,1-1.28,5.81,8.86,8.86,0,0,1-3.39,3.57A9.2,9.2,0,0,1,165,209.15Z"/><path class="cls-2" d="M183.7,179v29.76h-4.93V179Z"/><path class="cls-2" d="M190.69,200.23v-3.56h14.14l-.57,1v-.5a5.34,5.34,0,0,0-.59-2.46,4.59,4.59,0,0,0-1.79-1.87,5.84,5.84,0,0,0-3-.71,6.23,6.23,0,0,0-3.17.77,5.21,5.21,0,0,0-2.07,2.21,7.6,7.6,0,0,0-.73,3.47,8.33,8.33,0,0,0,.7,3.57,5,5,0,0,0,2.07,2.28,6.45,6.45,0,0,0,3.32.79,9.61,9.61,0,0,0,2.3-.24,4.88,4.88,0,0,0,1.59-.68,3.13,3.13,0,0,0,.93-.92,2.39,2.39,0,0,0,.38-1h5a5.74,5.74,0,0,1-.85,2.48,7.68,7.68,0,0,1-2,2.19,10.1,10.1,0,0,1-3.19,1.56,14.32,14.32,0,0,1-4.27.58,11.71,11.71,0,0,1-5.7-1.33,9.53,9.53,0,0,1-3.79-3.71,10.76,10.76,0,0,1-1.37-5.45,10.6,10.6,0,0,1,1.39-5.5,9.56,9.56,0,0,1,3.83-3.68,11.63,11.63,0,0,1,5.64-1.33,11.42,11.42,0,0,1,5.66,1.34,9.25,9.25,0,0,1,3.69,3.7,11.36,11.36,0,0,1,1.29,5.51c0,.27,0,.55,0,.86a4.13,4.13,0,0,1-.06.66Z"/><path class="cls-2" d="M213.55,208.73V188.51h5v20.22Zm12.57,0v-11.6a12.07,12.07,0,0,0-.1-1.55,4.64,4.64,0,0,0-.42-1.5,2.66,2.66,0,0,0-1-1.11,3.49,3.49,0,0,0-1.85-.43,3.73,3.73,0,0,0-1.93.47,3.85,3.85,0,0,0-1.3,1.24,5.18,5.18,0,0,0-.73,1.75,8.91,8.91,0,0,0-.23,2l-1.68-1.13a10.13,10.13,0,0,1,.94-4.45,7.46,7.46,0,0,1,2.65-3.11,7.17,7.17,0,0,1,4.09-1.16,6.52,6.52,0,0,1,3.86,1,5.63,5.63,0,0,1,2.05,2.75,11.59,11.59,0,0,1,.62,3.89v12.91Zm12.49,0V197.09a12.54,12.54,0,0,0-.1-1.61,4.27,4.27,0,0,0-.42-1.46,2.47,2.47,0,0,0-1-1.07,3.61,3.61,0,0,0-1.86-.41,3.75,3.75,0,0,0-1.95.46,3.54,3.54,0,0,0-1.27,1.22,5.39,5.39,0,0,0-.69,1.71,8.3,8.3,0,0,0-.22,1.91l-1.68-1.11a10.13,10.13,0,0,1,.92-4.36,7.09,7.09,0,0,1,6.7-4.21,6.8,6.8,0,0,1,3.82,1,5.56,5.56,0,0,1,2.11,2.66,10.44,10.44,0,0,1,.66,3.84v13.1Z"/><path class="cls-2" d="M256.62,209.15a14.74,14.74,0,0,1-3.44-.4,9.88,9.88,0,0,1-2.89-1.2,6.23,6.23,0,0,1-2-2,5.15,5.15,0,0,1-.73-2.76v-.43h5v.34a2,2,0,0,0,1.14,1.86,6.49,6.49,0,0,0,3.09.61,8.66,8.66,0,0,0,2-.22,3.77,3.77,0,0,0,1.52-.71,1.5,1.5,0,0,0,.58-1.22,1.76,1.76,0,0,0-1.22-1.71,18.54,18.54,0,0,0-3.86-.93,25.26,25.26,0,0,1-2.86-.67,10.79,10.79,0,0,1-2.56-1.12,5.83,5.83,0,0,1-1.84-1.75,4.48,4.48,0,0,1-.7-2.56,5,5,0,0,1,1.19-3.36,7.43,7.43,0,0,1,3.2-2.06,13.28,13.28,0,0,1,4.43-.71,12.22,12.22,0,0,1,4.32.76,7.92,7.92,0,0,1,3.23,2.19,5.18,5.18,0,0,1,1.22,3.45v.31h-4.95v-.25a1.92,1.92,0,0,0-.55-1.43,3.35,3.35,0,0,0-1.43-.82,6.21,6.21,0,0,0-1.84-.27,8.4,8.4,0,0,0-1.77.19,3.94,3.94,0,0,0-1.53.62,1.56,1.56,0,0,0,0,2.49,5.2,5.2,0,0,0,1.75.79,24.48,24.48,0,0,0,2.59.56,24.08,24.08,0,0,1,2.81.63,12.1,12.1,0,0,1,2.6,1.06,5.64,5.64,0,0,1,1.91,1.75,4.57,4.57,0,0,1,.74,2.65,5.15,5.15,0,0,1-.77,2.86,5.94,5.94,0,0,1-2.06,2,10,10,0,0,1-2.94,1.13A15.72,15.72,0,0,1,256.62,209.15Z"/><path class="cls-2" d="M270.8,214.55l-.7-1.25a6.25,6.25,0,0,0,1.69-1.18,7.8,7.8,0,0,0,1.37-1.65,3.09,3.09,0,0,0,.56-1.59,1.74,1.74,0,0,0-.08-.5,2.14,2.14,0,0,0-.19-.43h1.2a2,2,0,0,1-.81,1,2.62,2.62,0,0,1-1.44.38,2.87,2.87,0,0,1-1.92-.72,2.51,2.51,0,0,1-.84-2,2.68,2.68,0,0,1,.88-2.07,3.16,3.16,0,0,1,2.24-.81,3,3,0,0,1,2.39,1,3.82,3.82,0,0,1,.89,2.62,6.39,6.39,0,0,1-.78,3.06,9.64,9.64,0,0,1-4.46,4.23Z"/><path class="cls-2" d="M94.46,262.3a10.21,10.21,0,0,1-4-.72,6,6,0,0,1-2.68-2.06,5.42,5.42,0,0,1-1-3.26A5.11,5.11,0,0,1,88,252.84,7.31,7.31,0,0,1,91,250.77a16,16,0,0,1,4.27-.94,46,46,0,0,0,4.85-.66q1.38-.31,1.38-1v0a2.26,2.26,0,0,0-1.2-2.05,6.52,6.52,0,0,0-3.39-.73,6.38,6.38,0,0,0-3.53.81,2.84,2.84,0,0,0-1.23,2.56h-5a6.41,6.41,0,0,1,1.26-4A7.88,7.88,0,0,1,92,242.17a13.78,13.78,0,0,1,5-.85,14,14,0,0,1,4.77.78,7.85,7.85,0,0,1,3.49,2.36,6,6,0,0,1,1.31,3.94v9.21c0,.49,0,1,0,1.42a6.41,6.41,0,0,0,.2,1.25,4.49,4.49,0,0,0,.46,1,2.77,2.77,0,0,0,.42.57h-5a4.19,4.19,0,0,1-.37-.53,5.39,5.39,0,0,1-.42-.9,6.51,6.51,0,0,1-.29-1.23,10.65,10.65,0,0,1-.1-1.45l1,.68a5.57,5.57,0,0,1-1.74,2A8.82,8.82,0,0,1,98,261.82,12.33,12.33,0,0,1,94.46,262.3Zm1.22-3.94a7.62,7.62,0,0,0,2.89-.54,4.76,4.76,0,0,0,2.15-1.64,4.71,4.71,0,0,0,.82-2.87v-2.7l1.22,1.37a17,17,0,0,1-2.93.75c-1.14.2-2.3.35-3.47.47A9.82,9.82,0,0,0,93,254a1.93,1.93,0,0,0-1.14,1.86,2.12,2.12,0,0,0,1,1.89A5.3,5.3,0,0,0,95.68,258.36Z"/><path class="cls-2" d="M111.2,261.88V241.66h5v20.22Zm14.29,0V250.51a7.3,7.3,0,0,0-.39-2.46,3.38,3.38,0,0,0-1.33-1.73,4.63,4.63,0,0,0-2.6-.63,4.83,4.83,0,0,0-2.57.7,4.89,4.89,0,0,0-1.76,1.9,6,6,0,0,0-.64,2.79l-1.69-1a8.77,8.77,0,0,1,1.15-4.51,8.4,8.4,0,0,1,7.4-4.21,8.1,8.1,0,0,1,4.1,1,6,6,0,0,1,2.51,2.7,9.28,9.28,0,0,1,.85,4.11v12.8Z"/><path class="cls-2" d="M143.73,262.3a9.2,9.2,0,0,1-4.61-1.21,8.82,8.82,0,0,1-3.4-3.57,12.11,12.11,0,0,1-1.28-5.81,11.43,11.43,0,0,1,1.31-5.67,9,9,0,0,1,3.42-3.53,9.13,9.13,0,0,1,4.56-1.19,8.6,8.6,0,0,1,4.4,1.17,8.83,8.83,0,0,1,3.24,3.24,9.26,9.26,0,0,1,1.22,4.76v.31l-2.48,0v-.24a4.61,4.61,0,0,0-.75-2.63,5.4,5.4,0,0,0-4.46-2.4,5.2,5.2,0,0,0-3.74,1.48,6.2,6.2,0,0,0-1.54,4.65,6.31,6.31,0,0,0,1.54,4.67,5.18,5.18,0,0,0,3.74,1.5,5.11,5.11,0,0,0,2.57-.67,5.31,5.31,0,0,0,1.91-1.83,5,5,0,0,0,.73-2.7l2.48.12a9.87,9.87,0,0,1-1.19,4.82,9.3,9.3,0,0,1-3.19,3.42A8.23,8.23,0,0,1,143.73,262.3Zm6.38-.42V232.12h5v29.76Z"/><path class="cls-2" d="M169.57,261.88V241.66h5v20.22Zm12.57,0v-11.6a14.19,14.19,0,0,0-.1-1.55,4.51,4.51,0,0,0-.42-1.49,2.63,2.63,0,0,0-1-1.12,3.49,3.49,0,0,0-1.85-.43,3.77,3.77,0,0,0-1.94.47,3.82,3.82,0,0,0-1.29,1.24,5.27,5.27,0,0,0-.73,1.75,8.37,8.37,0,0,0-.23,2L172.9,250a10.28,10.28,0,0,1,.93-4.46,7.56,7.56,0,0,1,2.66-3.11,7.17,7.17,0,0,1,4.09-1.15,6.52,6.52,0,0,1,3.86,1,5.67,5.67,0,0,1,2.05,2.76,11.48,11.48,0,0,1,.62,3.88v12.91Zm12.49,0V250.24a14.47,14.47,0,0,0-.1-1.6,4.33,4.33,0,0,0-.42-1.47,2.53,2.53,0,0,0-1-1.07,3.64,3.64,0,0,0-1.86-.41,3.85,3.85,0,0,0-2,.46,3.62,3.62,0,0,0-1.27,1.22,5.65,5.65,0,0,0-.7,1.71,8.87,8.87,0,0,0-.21,1.91l-1.68-1.11a10.13,10.13,0,0,1,.91-4.36,7.37,7.37,0,0,1,2.63-3.07,7.18,7.18,0,0,1,4.08-1.13,6.72,6.72,0,0,1,3.82,1,5.49,5.49,0,0,1,2.11,2.65,10.7,10.7,0,0,1,.65,3.84v13.1Z"/><path class="cls-2" d="M211.4,262.3a10.21,10.21,0,0,1-4-.72,6,6,0,0,1-2.68-2.06,5.43,5.43,0,0,1-1-3.26,5.12,5.12,0,0,1,1.14-3.42,7.31,7.31,0,0,1,3-2.07,15.91,15.91,0,0,1,4.27-.94,45.26,45.26,0,0,0,4.84-.66q1.38-.31,1.38-1v0a2.26,2.26,0,0,0-1.2-2.05,8.16,8.16,0,0,0-6.92.08,2.83,2.83,0,0,0-1.22,2.56h-4.95a6.41,6.41,0,0,1,1.26-4,7.83,7.83,0,0,1,3.48-2.51,13.76,13.76,0,0,1,5-.85,14,14,0,0,1,4.78.78,7.85,7.85,0,0,1,3.49,2.36,6,6,0,0,1,1.31,3.94v9.21c0,.49,0,1,.05,1.42a6.41,6.41,0,0,0,.2,1.25,4.49,4.49,0,0,0,.45,1,3.79,3.79,0,0,0,.42.57h-5a3.35,3.35,0,0,1-.37-.53,5.39,5.39,0,0,1-.43-.9,7.39,7.39,0,0,1-.28-1.23,9.26,9.26,0,0,1-.1-1.45l1,.68a5.57,5.57,0,0,1-1.74,2,8.82,8.82,0,0,1-2.79,1.34A12.33,12.33,0,0,1,211.4,262.3Zm1.22-3.94a7.62,7.62,0,0,0,2.89-.54,4.76,4.76,0,0,0,2.15-1.64,4.71,4.71,0,0,0,.82-2.87v-2.7L219.7,252a17,17,0,0,1-2.93.75c-1.14.2-2.3.35-3.47.47a10,10,0,0,0-3.38.78,1.94,1.94,0,0,0-1.13,1.86,2.12,2.12,0,0,0,1,1.89A5.3,5.3,0,0,0,212.62,258.36Z"/><path class="cls-2" d="M228.13,261.88V241.66h5v20.22Zm14.3,0V250.51a7.3,7.3,0,0,0-.39-2.46,3.38,3.38,0,0,0-1.33-1.73,4.63,4.63,0,0,0-2.6-.63,4.83,4.83,0,0,0-2.57.7,4.89,4.89,0,0,0-1.76,1.9,6,6,0,0,0-.64,2.79l-1.69-1a8.77,8.77,0,0,1,1.15-4.51,8.4,8.4,0,0,1,7.4-4.21,8.1,8.1,0,0,1,4.1,1,6,6,0,0,1,2.51,2.7,9.28,9.28,0,0,1,.85,4.11v12.8Z"/><path class="cls-2" d="M252.91,270.56a12.71,12.71,0,0,1-1.6-.09,3.79,3.79,0,0,1-.88-.16v-3.9a2.82,2.82,0,0,0,.85.18,12.36,12.36,0,0,0,1.24.07,3.74,3.74,0,0,0,1.82-.42,4.18,4.18,0,0,0,1.33-1.15,6,6,0,0,0,.87-1.71l.44-1.27-7-20.45h5.24L260,258.53h-.61l4.66-16.87h5.14l-7.08,21.46a18,18,0,0,1-1.8,3.9,7.35,7.35,0,0,1-2.81,2.61A9.87,9.87,0,0,1,252.91,270.56Z"/><path class="cls-2" d="M101.12,313a12.46,12.46,0,0,1,3.15.67,4.62,4.62,0,0,1,2.11,1.47,4.16,4.16,0,0,1,.76,2.62A4.47,4.47,0,0,1,105.9,321a8,8,0,0,1-3.62,2.06,20.66,20.66,0,0,1-5.88.72c-3.37,0-6-.48-7.78-1.46s-2.73-2.28-2.73-3.95a4.54,4.54,0,0,1,.17-1.27,4,4,0,0,1,.42-.95l4.59.66a2.28,2.28,0,0,0-.23.49,2.69,2.69,0,0,0-.11.81c0,.78.53,1.35,1.59,1.7a13.92,13.92,0,0,0,4.24.52A16.43,16.43,0,0,0,99.8,320a5.14,5.14,0,0,0,2-.76,1.43,1.43,0,0,0,.68-1.16,1.21,1.21,0,0,0-.9-1.28,9.15,9.15,0,0,0-2.13-.38l-7.67-.71a6.57,6.57,0,0,1-3.38-1.21,3.2,3.2,0,0,1-1.33-2.67A3.49,3.49,0,0,1,87.6,310a5.79,5.79,0,0,1,1.24-1.43,3.48,3.48,0,0,1,1.2-.72l2.86,1.41a2,2,0,0,0-.94.52,1.37,1.37,0,0,0-.55,1.08,1.17,1.17,0,0,0,.54,1,4.5,4.5,0,0,0,2,.54Zm2.27-18.22h4.49l-1.82,7.84a12.33,12.33,0,0,1-1.66,4,8.15,8.15,0,0,1-3.05,2.77,10.21,10.21,0,0,1-4.79,1,12.45,12.45,0,0,1-5.19-1A7.58,7.58,0,0,1,88,306.64a7.2,7.2,0,0,1-1.18-4.1,7.44,7.44,0,0,1,1.2-4.2,8.17,8.17,0,0,1,3.34-2.84,10.78,10.78,0,0,1,4.8-1,10.13,10.13,0,0,1,3.91.71,7.66,7.66,0,0,1,2.77,1.86,3.92,3.92,0,0,1,1.11,2.43l-1.12.21Zm-6.85,11.71a6.14,6.14,0,0,0,2.53-.48,3.62,3.62,0,0,0,1.65-1.38,4.32,4.32,0,0,0,0-4.39,3.79,3.79,0,0,0-1.65-1.4,6.08,6.08,0,0,0-2.51-.48,6,6,0,0,0-2.5.49,4,4,0,0,0-1.7,1.42,4.24,4.24,0,0,0,0,4.38A3.77,3.77,0,0,0,94,306.05,6.35,6.35,0,0,0,96.54,306.52Z"/><path class="cls-2" d="M120.41,315.43a11.52,11.52,0,0,1-5.63-1.34,9.83,9.83,0,0,1-3.82-3.72,10.69,10.69,0,0,1-1.38-5.45,10.55,10.55,0,0,1,1.38-5.44,9.8,9.8,0,0,1,3.82-3.68,12.6,12.6,0,0,1,11.27,0,9.84,9.84,0,0,1,3.81,3.68,10.55,10.55,0,0,1,1.38,5.44,10.69,10.69,0,0,1-1.38,5.45,9.87,9.87,0,0,1-3.81,3.72A11.58,11.58,0,0,1,120.41,315.43Zm0-4.09a5.66,5.66,0,0,0,3-.8,5.56,5.56,0,0,0,2-2.24,7.48,7.48,0,0,0,.72-3.38,7.34,7.34,0,0,0-.72-3.36,5.38,5.38,0,0,0-2-2.2,6.26,6.26,0,0,0-6,0,5.25,5.25,0,0,0-2,2.2,7.21,7.21,0,0,0-.73,3.36,7.35,7.35,0,0,0,.73,3.38,5.42,5.42,0,0,0,2,2.24A5.7,5.7,0,0,0,120.41,311.34Z"/><path class="cls-2" d="M145.31,315.43a11.52,11.52,0,0,1-5.63-1.34,9.83,9.83,0,0,1-3.82-3.72,10.69,10.69,0,0,1-1.38-5.45,10.55,10.55,0,0,1,1.38-5.44,9.8,9.8,0,0,1,3.82-3.68,12.6,12.6,0,0,1,11.27,0,9.8,9.8,0,0,1,3.82,3.68,10.55,10.55,0,0,1,1.38,5.44,10.69,10.69,0,0,1-1.38,5.45,9.83,9.83,0,0,1-3.82,3.72A11.53,11.53,0,0,1,145.31,315.43Zm0-4.09a5.66,5.66,0,0,0,3-.8,5.42,5.42,0,0,0,2-2.24,7.48,7.48,0,0,0,.72-3.38,7.34,7.34,0,0,0-.72-3.36,5.25,5.25,0,0,0-2-2.2,6.24,6.24,0,0,0-6,0,5.27,5.27,0,0,0-2,2.2,7.34,7.34,0,0,0-.72,3.36,7.48,7.48,0,0,0,.72,3.38,5.44,5.44,0,0,0,2,2.24A5.66,5.66,0,0,0,145.31,311.34Z"/><path class="cls-2" d="M168.68,315.45a9.11,9.11,0,0,1-4.62-1.21,8.82,8.82,0,0,1-3.4-3.57,12.09,12.09,0,0,1-1.28-5.81,11.43,11.43,0,0,1,1.31-5.67,8.94,8.94,0,0,1,3.43-3.52,9.09,9.09,0,0,1,4.56-1.2,8.59,8.59,0,0,1,4.39,1.17,8.83,8.83,0,0,1,3.24,3.24,9.26,9.26,0,0,1,1.22,4.76V304l-2.48.06v-.25a4.64,4.64,0,0,0-.75-2.63,5.29,5.29,0,0,0-1.94-1.76,5.38,5.38,0,0,0-6.25.84,6.16,6.16,0,0,0-1.55,4.65,6.28,6.28,0,0,0,1.55,4.67,5.14,5.14,0,0,0,3.73,1.5,5.2,5.2,0,0,0,2.57-.66,5.42,5.42,0,0,0,1.91-1.84,5,5,0,0,0,.73-2.7l2.48.12a9.87,9.87,0,0,1-1.19,4.82,9.14,9.14,0,0,1-3.19,3.42A8.2,8.2,0,0,1,168.68,315.45Zm6.37-.42V285.27h5V315Z"/><path class="cls-2" d="M89.93,344.23a3.49,3.49,0,0,1-2.12-.66,2.13,2.13,0,0,1-.91-1.83,2.08,2.08,0,0,1,.91-1.81,3.55,3.55,0,0,1,2.12-.65,3.46,3.46,0,0,1,2.09.65,2.09,2.09,0,0,1,.9,1.81,2.14,2.14,0,0,1-.9,1.83A3.41,3.41,0,0,1,89.93,344.23Zm-2.49,23.95V348h5v20.22Z"/><path class="cls-2" d="M97.34,368.18V348h5v20.22Zm14.29,0V356.81a7.3,7.3,0,0,0-.39-2.46,3.36,3.36,0,0,0-1.33-1.72,4.63,4.63,0,0,0-2.6-.63,4.82,4.82,0,0,0-2.57.69A4.92,4.92,0,0,0,103,354.6a5.8,5.8,0,0,0-.64,2.79l-1.69-1.05a8.71,8.71,0,0,1,1.15-4.5,8.39,8.39,0,0,1,7.4-4.22,8.21,8.21,0,0,1,4.1.95,6.13,6.13,0,0,1,2.51,2.7,9.3,9.3,0,0,1,.85,4.12v12.79Z"/><path class="cls-2" d="M130.27,368.56a11.87,11.87,0,0,1-2.2-.21,6,6,0,0,1-2.06-.78,4.24,4.24,0,0,1-1.51-1.67,6.4,6.4,0,0,1-.57-2.92V352h-4.78v-4h1.95a12.44,12.44,0,0,0,1.56-.08,1.34,1.34,0,0,0,.84-.41,2.13,2.13,0,0,0,.35-1,16.31,16.31,0,0,0,.08-1.93V341.3h5V348h6v4h-6v9.5a6.2,6.2,0,0,0,.34,2.27c.23.57.77.85,1.62.85a5.28,5.28,0,0,0,1.15-.11,4.7,4.7,0,0,0,.81-.23v3.92a7.16,7.16,0,0,1-1,.27A8.23,8.23,0,0,1,130.27,368.56Z"/><path class="cls-2" d="M140.06,359.69v-3.56h14.15l-.58.95v-.49a5.26,5.26,0,0,0-.59-2.47,4.63,4.63,0,0,0-1.78-1.87,6,6,0,0,0-3-.71,6.28,6.28,0,0,0-3.17.77,5.25,5.25,0,0,0-2.08,2.22,7.57,7.57,0,0,0-.73,3.47,8.48,8.48,0,0,0,.7,3.57,5.1,5.1,0,0,0,2.07,2.28,6.5,6.5,0,0,0,3.32.79,9.23,9.23,0,0,0,2.31-.25,5.08,5.08,0,0,0,1.59-.67,3.42,3.42,0,0,0,.93-.93,2.36,2.36,0,0,0,.37-1h5a5.83,5.83,0,0,1-.85,2.49,8.05,8.05,0,0,1-2,2.19,10.66,10.66,0,0,1-3.19,1.56,14.39,14.39,0,0,1-4.28.58,11.64,11.64,0,0,1-5.69-1.33,9.58,9.58,0,0,1-3.8-3.72,11.61,11.61,0,0,1,0-10.94,9.61,9.61,0,0,1,3.84-3.69,11.67,11.67,0,0,1,5.63-1.32,11.48,11.48,0,0,1,5.67,1.33,9.23,9.23,0,0,1,3.68,3.7,11.4,11.4,0,0,1,1.29,5.52c0,.26,0,.55,0,.85s0,.53-.06.67Z"/><path class="cls-2" d="M162.93,368.18V348h5v20.22Zm14.3,0V356.81a7.29,7.29,0,0,0-.4-2.46,3.36,3.36,0,0,0-1.33-1.72,4.63,4.63,0,0,0-2.6-.63,4.82,4.82,0,0,0-2.57.69,4.92,4.92,0,0,0-1.76,1.91,5.92,5.92,0,0,0-.64,2.79l-1.69-1.05a8.71,8.71,0,0,1,1.15-4.5,8.39,8.39,0,0,1,7.4-4.22,8.21,8.21,0,0,1,4.1.95,6.13,6.13,0,0,1,2.51,2.7,9.3,9.3,0,0,1,.85,4.12v12.79Z"/><path class="cls-2" d="M195.86,368.56a11.87,11.87,0,0,1-2.2-.21,6,6,0,0,1-2.06-.78,4.15,4.15,0,0,1-1.5-1.67,6.26,6.26,0,0,1-.58-2.92V352h-4.77v-4h1.94a12.44,12.44,0,0,0,1.56-.08,1.34,1.34,0,0,0,.84-.41,2.13,2.13,0,0,0,.35-1,16.31,16.31,0,0,0,.08-1.93V341.3h5V348h6v4h-6v9.5a6.2,6.2,0,0,0,.34,2.27c.23.57.77.85,1.62.85a5.28,5.28,0,0,0,1.15-.11,4.7,4.7,0,0,0,.81-.23v3.92a7.16,7.16,0,0,1-1,.27A8.23,8.23,0,0,1,195.86,368.56Z"/><path class="cls-2" d="M206.74,344.23a3.52,3.52,0,0,1-2.13-.66,2.14,2.14,0,0,1-.9-1.83,2.09,2.09,0,0,1,.9-1.81,3.58,3.58,0,0,1,2.13-.65,3.48,3.48,0,0,1,2.09.65,2.09,2.09,0,0,1,.9,1.81,2.14,2.14,0,0,1-.9,1.83A3.43,3.43,0,0,1,206.74,344.23Zm-2.5,23.95V348h4.95v20.22Z"/><path class="cls-2" d="M224.08,368.58a11.58,11.58,0,0,1-5.64-1.34,9.87,9.87,0,0,1-3.81-3.72,10.67,10.67,0,0,1-1.38-5.45,10.51,10.51,0,0,1,1.38-5.43,9.8,9.8,0,0,1,3.81-3.69,12.62,12.62,0,0,1,11.28,0,9.8,9.8,0,0,1,3.81,3.69,10.51,10.51,0,0,1,1.38,5.43,10.67,10.67,0,0,1-1.38,5.45,9.87,9.87,0,0,1-3.81,3.72A11.58,11.58,0,0,1,224.08,368.58Zm0-4.09a5.69,5.69,0,0,0,3-.8,5.49,5.49,0,0,0,2-2.24,7.45,7.45,0,0,0,.72-3.38,7.36,7.36,0,0,0-.72-3.36,5.45,5.45,0,0,0-2-2.2,6.26,6.26,0,0,0-6.05,0,5.31,5.31,0,0,0-2,2.2,7.24,7.24,0,0,0-.73,3.36,7.32,7.32,0,0,0,.73,3.38,5.36,5.36,0,0,0,2,2.24A5.7,5.7,0,0,0,224.08,364.49Z"/><path class="cls-2" d="M239.05,368.18V348h5v20.22Zm14.29,0V356.81a7.3,7.3,0,0,0-.39-2.46,3.36,3.36,0,0,0-1.33-1.72A4.63,4.63,0,0,0,249,352a4.82,4.82,0,0,0-2.57.69,4.92,4.92,0,0,0-1.76,1.91,5.92,5.92,0,0,0-.64,2.79l-1.69-1.05a8.71,8.71,0,0,1,1.15-4.5,8.39,8.39,0,0,1,7.4-4.22,8.21,8.21,0,0,1,4.1.95,6.13,6.13,0,0,1,2.51,2.7,9.3,9.3,0,0,1,.85,4.12v12.79Z"/><path class="cls-2" d="M271.35,368.6a14.14,14.14,0,0,1-3.43-.4A9.94,9.94,0,0,1,265,367a6.23,6.23,0,0,1-2-2,5.2,5.2,0,0,1-.73-2.75v-.44h5v.35a2,2,0,0,0,1.13,1.85,6.55,6.55,0,0,0,3.1.62,8.65,8.65,0,0,0,2-.23,3.89,3.89,0,0,0,1.52-.7,1.51,1.51,0,0,0,.58-1.22,1.76,1.76,0,0,0-1.23-1.71,17.69,17.69,0,0,0-3.85-.94,23.24,23.24,0,0,1-2.86-.66,10.81,10.81,0,0,1-2.56-1.13,5.86,5.86,0,0,1-1.85-1.75,4.54,4.54,0,0,1-.69-2.55,4.9,4.9,0,0,1,1.19-3.36,7.36,7.36,0,0,1,3.2-2.07,13.22,13.22,0,0,1,4.42-.7,12,12,0,0,1,4.32.76,7.85,7.85,0,0,1,3.23,2.19,5.1,5.1,0,0,1,1.23,3.45v.3h-4.95v-.25a1.94,1.94,0,0,0-.55-1.42,3.31,3.31,0,0,0-1.43-.82,6.27,6.27,0,0,0-1.85-.27,9.17,9.17,0,0,0-1.77.18,3.69,3.69,0,0,0-1.52.63,1.45,1.45,0,0,0-.61,1.25,1.47,1.47,0,0,0,.63,1.23,5.2,5.2,0,0,0,1.75.79,26.41,26.41,0,0,0,2.59.57,27.35,27.35,0,0,1,2.81.62,12.33,12.33,0,0,1,2.6,1.07,5.71,5.71,0,0,1,1.91,1.74,4.6,4.6,0,0,1,.73,2.66,5.09,5.09,0,0,1-.76,2.85,6.25,6.25,0,0,1-2.06,2,10,10,0,0,1-2.95,1.13A15.72,15.72,0,0,1,271.35,368.6Z"/><path class="cls-2" d="M297,368.71a2.82,2.82,0,1,1,0-5.63,2.82,2.82,0,1,1,0,5.63Z"/><path class="cls-2" d="M307.64,368.71a2.82,2.82,0,1,1,0-5.63,2.71,2.71,0,0,1,2,.83,2.81,2.81,0,0,1,0,4A2.73,2.73,0,0,1,307.64,368.71Z"/><path class="cls-2" d="M318.31,368.71a2.82,2.82,0,1,1,2-4.8,2.81,2.81,0,0,1,0,4A2.73,2.73,0,0,1,318.31,368.71Z"/><circle class="cls-3" cx="105" cy="626.68" r="10.35"/><path class="cls-2" d="M123.45,462.7a7.94,7.94,0,0,0,.21,7.15,6.31,6.31,0,0,0,2.16,2.58,4.72,4.72,0,0,0,3.83.41c.61-.2.35-1.16-.26-1a3.69,3.69,0,0,1-3.26-.43,5.86,5.86,0,0,1-1.67-2.23,6.85,6.85,0,0,1-.15-6c.27-.58-.59-1.08-.86-.5Z"/><path class="cls-2" d="M129.45,472.63c1.13,1,2.31,2.06,3.53,3a7.91,7.91,0,0,0,3.83,1.69c.27,0,.5-.25.5-.5a.51.51,0,0,0-.5-.49,7.13,7.13,0,0,1-3.41-1.63c-1.11-.89-2.2-1.81-3.25-2.78-.47-.43-1.17.27-.7.71Z"/><path class="cls-2" d="M135,476.91a16.44,16.44,0,0,1,1.19,9.71c-.11.63.85.9,1,.27a17.55,17.55,0,0,0-1.29-10.48c-.28-.58-1.13-.07-.86.5Z"/><path class="cls-2" d="M155,451.87c2.1-.41,2.74,3.56,3,4.91.3,1.87.13,4.2-1.59,5.38-.5.35-1.23.42-1.62.92s-.25,1.14-.28,1.69a10.86,10.86,0,0,1-1.89,5.47c-.36.53.51,1,.86.5a11.81,11.81,0,0,0,2-6,4.3,4.3,0,0,1,0-.88c.11-.29.44-.38.68-.49a5.42,5.42,0,0,0,1-.62,5,5,0,0,0,1.48-2.1c.82-2.1.29-4.49-.32-6.57-.48-1.61-1.66-3.58-3.61-3.2-.63.13-.36,1.09.26,1Z"/><path class="cls-2" d="M154.1,467.54a147.54,147.54,0,0,1,3.25,16.26c.08.63,1.08.64,1,0a152.25,152.25,0,0,0-3.29-16.52c-.15-.63-1.11-.36-1,.26Z"/><path class="cls-2" d="M126.55,457.74c1.94-1.57,4.28-3.44,7-3,.62.11.89-.85.26-1-3.1-.55-5.67,1.39-7.94,3.23-.49.41.21,1.11.71.7Z"/><path class="cls-2" d="M139.43,452.66c1.67-2,4.32-2.68,6.76-3.28.62-.15.35-1.11-.27-1-2.59.64-5.41,1.4-7.2,3.54-.4.49.3,1.19.71.7Z"/><path class="cls-2" d="M138.84,464.57a8.42,8.42,0,0,0,1.91-1.56.49.49,0,1,0-.7-.7,7.85,7.85,0,0,1-.84.79l-.11.09,0,0,0,0,0,0-.23.17-.5.32a.5.5,0,0,0,.51.86Z"/><path class="cls-2" d="M139.52,470.34l3.18-1.21a.5.5,0,0,0,.34-.61.5.5,0,0,0-.61-.35l-3.17,1.21a.52.52,0,0,0-.35.62.5.5,0,0,0,.61.34Z"/><path class="cls-2" d="M135.46,486.07a12.92,12.92,0,0,0,2.3,7.63,16.52,16.52,0,0,0,6.66,4.62,11.38,11.38,0,0,0,8.78.11,10.26,10.26,0,0,0,5.65-7,22.11,22.11,0,0,0,.54-6.74c-.06-1.24.1-3.31-1.44-3.7a.5.5,0,0,0-.27,1c.94.24.71,2.51.73,3.19a26.72,26.72,0,0,1,0,3.1,13.34,13.34,0,0,1-1.71,5.91,8.93,8.93,0,0,1-8.83,4.09,12.74,12.74,0,0,1-4.76-1.68,18,18,0,0,1-3.53-2.34,11.11,11.11,0,0,1-3.09-8.11.5.5,0,0,0-1,0Z"/><path class="cls-2" d="M135.82,478.45c-2.59-.61-4.51,1.44-5.49,3.61a36.17,36.17,0,0,1-1.81,4.08,17,17,0,0,1-2.93,3.51c-1.07,1-2.21,1.94-3.36,2.86a10.75,10.75,0,0,0-2.87,2.71c-.69,1.26-.65,3-.84,4.4l-.74,5.42c0,.38.33.83.73.56q4-2.76,7.84-5.77h-.71c.57.5,0,1.54-.07,2.14a2.51,2.51,0,0,0,.14,1.53,8.08,8.08,0,0,0,1.23,1.64l2,2.46,7.66,9.3c.4.49,1.1-.22.7-.71l-7.66-9.29-1.87-2.28c-.77-.93-1.45-1.58-1.18-2.84.21-1,.56-1.91-.27-2.66a.53.53,0,0,0-.71,0q-3.72,2.94-7.63,5.62l.73.56.61-4.47a38.2,38.2,0,0,1,.63-4.4c.36-1.4,1.73-2.23,2.8-3.09s2-1.59,2.93-2.44a17.45,17.45,0,0,0,4.32-5.49c1-2.26,2.09-6.81,5.53-6,.62.15.89-.81.26-1Z"/><path class="cls-2" d="M135.71,485.64a7.71,7.71,0,0,0-3.89,3.94,10.07,10.07,0,0,0-.26,6.12,67,67,0,0,0,5.21,14.13c.27.58,1.13.07.86-.51A83,83,0,0,1,133,497.15c-.58-2-1.11-4.3-.52-6.37a6.77,6.77,0,0,1,3.77-4.28c.58-.26.08-1.11-.5-.86Z"/><path class="cls-2" d="M157.88,479.94c4.17-.79,6.08,4.37,8.32,6.84s6.15,2.71,8.67,5.05c2.12,2,3,4.95,5.41,6.71,1.45,1.08,3.25,1.46,4.62,2.68a14.84,14.84,0,0,1,3,4.27,93,93,0,0,1,5.6,13c.21.6,1.17.35,1-.26a97.91,97.91,0,0,0-5-11.86,25.19,25.19,0,0,0-2.85-4.73,10.94,10.94,0,0,0-4.18-3c-3.34-1.54-4.29-4.95-6.77-7.38a12.6,12.6,0,0,0-4.36-2.48,10.92,10.92,0,0,1-5-3.3c-2.26-2.85-4.36-7.33-8.77-6.49-.63.12-.36,1.08.26,1Z"/><path class="cls-2" d="M178.74,497.27l-.61,14.27.75-.43-11.6-7.28c-.51-.32-1,.37-.61.78,1.35,1.59-1.37,3.26-2.32,4.18a20,20,0,0,0-2.69,3.19,18.62,18.62,0,0,0-3.21,7.53c-.09.62.87.89,1,.26a18.56,18.56,0,0,1,4.56-9.15c1.47-1.67,5.63-4.09,3.41-6.72l-.61.79L178.38,512a.51.51,0,0,0,.75-.43l.6-14.27c0-.65-1-.64-1,0Z"/><path class="cls-2" d="M158,481.5c3.82,1.13,5.73,5.09,5.72,8.85,0,4.29-2,8.2-3.8,12a44.46,44.46,0,0,0-3.58,10.95,106.51,106.51,0,0,0-1.23,12c0,.64,1,.64,1,0a89.75,89.75,0,0,1,1.54-13.48c1-4.52,3-8.49,4.88-12.7,1.58-3.67,2.86-7.84,1.82-11.84a9.23,9.23,0,0,0-6.08-6.69c-.62-.19-.88.77-.27,1Z"/><path class="cls-2" d="M119.13,496a56.45,56.45,0,0,0-16.36,35.26c0,.64.94.63,1,0a55.44,55.44,0,0,1,16.06-34.56c.46-.45-.25-1.15-.7-.7Z"/><path class="cls-2" d="M127.64,465.88a4,4,0,0,0-1.44-1.65c-.6-.47-1.17-1-1.73-1.47a18,18,0,0,1-1.32-1.3,12.24,12.24,0,0,1-1-1.44c-.34-.54-1.2,0-.86.5a13.44,13.44,0,0,0,2.33,2.77c.57.53,1.14,1,1.75,1.51s1.13.78,1.35,1.35a.51.51,0,0,0,.62.34.49.49,0,0,0,.34-.61Z"/><path class="cls-2" d="M127.64,465.88l-1.22-6.73c-.41-2.25-1-4.67.18-6.79l-.68.18a1.58,1.58,0,0,0,2-.33c.28-.35.26-1.42.67-1.55s1,.29,1.37.31c1.16.08,1.19-.68,1.93-1.3s2.27.36,3.31,0a.5.5,0,0,0,.35-.61c-.2-1,2-.73,2.47-.8a2.13,2.13,0,0,0,1.53-.75c.17-.24.14-.48.25-.72.45-.94,1.35-.55,2.16-.39a12.8,12.8,0,0,1,3.63,1.34.51.51,0,0,0,.68-.18,1.83,1.83,0,0,0,.35-1.58l-.73.56A13.11,13.11,0,0,1,153,456.73c0,.52.82.71,1,.13l1.39-5.34a.5.5,0,0,0-1-.26L153,456.59l1,.14a14.08,14.08,0,0,0-7.57-11.05.51.51,0,0,0-.73.57l-.25.81.68-.18a13.82,13.82,0,0,0-4.75-1.59c-.89-.12-2-.31-2.47.63-.28.53.33.72-.54,1.26a2.22,2.22,0,0,1-1.06.13,4.15,4.15,0,0,0-1.6.23,1.5,1.5,0,0,0-1.08,1.78l.35-.61c-1,.33-1.86-.4-2.83-.28s-1.21,1.52-2.21,1.53c-.68,0-1.31-.54-2-.22s-.68,2.34-1.46,1.94a.51.51,0,0,0-.68.17c-1,2-.88,4.12-.52,6.25.46,2.69,1,5.37,1.46,8,.12.63,1.08.36,1-.27Z"/><ellipse class="cls-2" cx="131.9" cy="459.59" rx="1.28" ry="1.96" transform="translate(-145.11 69.86) rotate(-19.39)"/><ellipse class="cls-2" cx="143.93" cy="455.59" rx="1.28" ry="1.96" transform="translate(-143.09 73.63) rotate(-19.39)"/><path class="cls-2" d="M130.05,459.29l2.72-1.13a.51.51,0,0,0,.35-.61.5.5,0,0,0-.61-.35l-2.72,1.13a.52.52,0,0,0-.35.62.5.5,0,0,0,.61.34Z"/><path class="cls-2" d="M142,455.1l2.71-1.16a.49.49,0,0,0,.17-.68.51.51,0,0,0-.68-.18l-2.71,1.16a.49.49,0,0,0-.17.68.51.51,0,0,0,.68.18Z"/><path class="cls-2" d="M123.88,463c-1.67-1.8-4.86-3.36-6.48-9.05a17.43,17.43,0,0,1-.29-7.3A52.65,52.65,0,0,1,120,435.43a18.44,18.44,0,0,1,3.55-6.21A8,8,0,0,1,130,426.5c2.34.21,4.41,1.73,6.75,1.9,1.62.12,3.35-.41,4.81.29,1.31.62,2,2.06,3.25,2.83a13.33,13.33,0,0,0,3.12,1.05c5,1.55,11.21,13.12,8.72,19.31-5.9-9.91-13.14-10.65-19.33-9.82A21.29,21.29,0,0,0,125.71,447c-3.16,2.86-7.45,10.41-1.83,16"/><polygon class="cls-2" points="189.83 490.11 182.77 489.19 184.27 486.14 181.93 485.61 179.31 483.42 174.47 476.53 170.87 474.17 176.38 454.69 180.75 446.6 188.25 437.07 192.9 435.53 199.74 435.67 207.6 437.32 212.26 440.42 217.77 447.38 219.55 453.39 222.07 475.54 220.46 475.28 219.69 476.78 219.86 481.55 216.3 482.46 214.59 485.55 211.07 487.51 209.87 489.39 208.56 489.41 206.77 490.8 205.19 486.59 208.19 484.32 210.54 480.74 213.2 474.56 215.01 470.63 215.65 467.58 212.34 463.63 208.04 462.19 204.82 458.47 203.58 455.83 201.62 457.93 201.63 461.04 201.51 463.5 200.1 465.28 196.09 462.09 194.33 456.43 193.62 453.55 190.04 457.56 188.25 458.83 184.65 458.98 183.17 459.86 181.77 463.11 179.37 463.54 178.91 465.94 179.78 467.88 181.14 468.5 181.08 473.27 182.41 478.32 184.7 482.64 189.51 486.03 189.83 490.11"/><path class="cls-4" d="M188.74,496.48c-2.37,1.9-7.42,2.21-9,10.42S175,536.25,175,536.25"/><path class="cls-4" d="M208.68,493.67c3.79,1.9,10.83,4.39,13,9.13s11,33.45,11,33.45"/><path class="cls-4" d="M188.05,497.82s.13,1,3.45.86a106,106,0,0,0,13.78-2.49,38.79,38.79,0,0,0,4.43-1.91"/><line class="cls-4" x1="220.93" y1="501.45" x2="222.61" y2="535.33"/><path class="cls-4" d="M180.27,504.89a28.49,28.49,0,0,0,1.27,3.89c1,2.48,4.42,26.55,4.42,26.55"/><path class="cls-5" d="M183.19,463.94s1.27-2.38,2.38-2.79,5.35.68,8,2.33,4.55,2.11,3.51,4.17-3.71,4-6.25,3.82S182.82,470,183.19,463.94Z"/><path class="cls-6" d="M199.68,468.16s-.26-.81,2.84-1.55a21,21,0,0,1,9.41,0c3.35.87,2,3,2,3s-1.81,5.49-5.62,5.17S199.58,473.74,199.68,468.16Z"/><line class="cls-4" x1="197.39" y1="466.29" x2="200.1" y2="467.43"/><path class="cls-2" d="M197.37,475.42l.55.55a.42.42,0,0,0,.16.11.45.45,0,0,0,.2,0,.41.41,0,0,0,.19,0,.39.39,0,0,0,.17-.11.51.51,0,0,0,.15-.36.56.56,0,0,0-.15-.35l-.56-.55a.36.36,0,0,0-.16-.11.45.45,0,0,0-.2,0,.41.41,0,0,0-.19,0,.36.36,0,0,0-.16.11.47.47,0,0,0-.15.35.48.48,0,0,0,.15.36Z"/><path class="cls-2" d="M198.52,480.38c-.29,0-.58,0-.87,0l-.53,0s-.11,0,0,0l-.15,0-.29-.06a3.38,3.38,0,0,1-1-.36,2.14,2.14,0,0,1-.78-.67.52.52,0,0,0-.69-.18.51.51,0,0,0-.18.69c1,1.48,2.9,1.68,4.55,1.68a.51.51,0,0,0,0-1Z"/><ellipse class="cls-2" cx="189.51" cy="466.71" rx="1.74" ry="1.14" transform="matrix(0.31, -0.95, 0.95, 0.31, -312.89, 503.21)"/><path class="cls-2" d="M188.42,465.53l2.53.66a.44.44,0,0,0,.54-.31.45.45,0,0,0-.31-.54l-2.53-.66a.44.44,0,0,0-.54.3.46.46,0,0,0,.31.55Z"/><ellipse class="cls-2" cx="208.02" cy="470.44" rx="1.74" ry="1.14" transform="translate(-296.65 569.93) rotate(-77.3)"/><path class="cls-2" d="M206.78,469.35l2.58.43a.44.44,0,1,0,.23-.85L207,468.5a.46.46,0,0,0-.55.31.45.45,0,0,0,.31.54Z"/><path class="cls-2" d="M190.9,486c-7.28-1.91-10.12-10.91-9.33-17.6a.43.43,0,0,0-.32-.42,2.35,2.35,0,0,1-1.81-3.08,1.55,1.55,0,0,1,1.88-1.37c.55.14.79-.71.24-.85-3.69-1-4.2,5.6-.55,6.15l-.32-.43c-.85,7.1,2.32,16.44,10,18.45a.44.44,0,0,0,.23-.85Z"/><path class="cls-2" d="M188.83,486.55c.71,3.68,1.08,7.79-1.16,11.05-.32.46.44.91.76.44,2.38-3.45,2-7.82,1.25-11.73-.11-.55-1-.32-.85.24Z"/><path class="cls-2" d="M212.77,474.63c-1.16,3-2.24,6.26-4.39,8.74s-5.2,4-8.37,3.42c-.56-.1-.8.75-.24.85a10,10,0,0,0,9-3.34c2.44-2.62,3.62-6.16,4.89-9.44.2-.53-.65-.76-.85-.23Z"/><path class="cls-2" d="M204.76,486.71a18.22,18.22,0,0,0,3.61,7.27c.35.45,1-.18.62-.62a17.32,17.32,0,0,1-3.38-6.88c-.13-.56-1-.32-.85.23Z"/><path class="cls-2" d="M270.94,435.83s-1,.08-1.08,2,.22,7.9.84,10,1.32,4,3,3.88,2-3.88,2-3.88a28.72,28.72,0,0,0-.68-5.72C274.4,439.79,273.79,435,270.94,435.83Z"/><path class="cls-2" d="M233.1,433.8s-.28,0-1.24,1.68a21.51,21.51,0,0,0-1.89,9c.19,1.66,1,3.33,2.15,3.33a2.57,2.57,0,0,0,2.31-1.54s.24-3.47.24-5.87S236,433,233.1,433.8Z"/><path class="cls-2" d="M262.6,428.52s.08-3.13-7.54-4.22c-2.09-.3-7.23-.45-9.28.37-1.56.63-4.39,2.59-4.51,3.71-.22,1.89,2.73,1.89,2.73,1.89s7,1.72,9.33,1.36S262.79,431.7,262.6,428.52Z"/><path class="cls-2" d="M231.82,448.52a25,25,0,0,1-.27,2.59l.45-.35c-2.28-.1-4.25,2.43-4.69,4.42-.56,2.51.31,6,2.72,7.25.41.23,1.8.89,2.28.67.07,0-.06-.45-.09-.1a2.28,2.28,0,0,0,.18.63c.22.78.45,1.55.69,2.33a32.25,32.25,0,0,0,5.12,10.64A14.69,14.69,0,0,0,250,482.33c.6,0,.61-1,0-.94-10.4.4-14.65-10.53-16.92-18.83a.46.46,0,0,0-.33-.33c-2.17-.45-3.66-1.13-4.33-3.49a5.91,5.91,0,0,1,.66-5.22,4,4,0,0,1,2.92-1.81.47.47,0,0,0,.46-.35,27.07,27.07,0,0,0,.3-2.84c0-.61-.92-.6-.94,0Z"/><path class="cls-2" d="M240.74,479.3a53,53,0,0,1,.6,12.45c0,.6.9.6.94,0a54,54,0,0,0-.63-12.7c-.1-.6-1-.34-.91.25Z"/><path class="cls-2" d="M251.13,462.31l1.8-.59a.48.48,0,0,0,.33-.58.49.49,0,0,0-.58-.33l-1.8.59a.47.47,0,1,0,.25.91Z"/><path class="cls-2" d="M249.39,470.84h6.29a.47.47,0,0,0,0-.94h-6.29a.47.47,0,0,0,0,.94Z"/><path class="cls-2" d="M262.1,465.47l1.43,5.62a.47.47,0,0,0,.91-.25L263,465.22a.47.47,0,0,0-.91.25Z"/><path class="cls-2" d="M243.9,467.1l-1.25,3.14a.46.46,0,0,0,.32.58.48.48,0,0,0,.58-.33l1.26-3.14a.47.47,0,0,0-.33-.58.49.49,0,0,0-.58.33Z"/><path class="cls-2" d="M273.73,453.67c3.14.45,3.33,5.64,1.58,7.57-.92,1-2.42,1.09-3.39,2.08a5.28,5.28,0,0,0-1.15,3.33,21.15,21.15,0,0,1-2.94,8.93,11.7,11.7,0,0,1-7.39,5,.47.47,0,0,0,.25.91,12.78,12.78,0,0,0,7.77-5.12,22.16,22.16,0,0,0,3.26-9.71c.13-1.21.31-2.37,1.4-3.09.73-.48,1.6-.63,2.3-1.15a5.14,5.14,0,0,0,1.87-3.55c.28-2.34-.58-5.71-3.31-6.1-.59-.09-.85.82-.25.91Z"/><path class="cls-2" d="M265.9,478.42c0,4.83-.1,9.66.05,14.5,0,.6,1,.6.94,0-.15-4.84-.05-9.67-.05-14.5a.47.47,0,0,0-.94,0Z"/><path class="cls-2" d="M241.37,492.34c1.61,3.67,6.51,3.87,9.93,3.9a40.81,40.81,0,0,0,15.25-2.87c.55-.22.31-1.13-.25-.91a40.08,40.08,0,0,1-13.63,2.83c-3.36.09-8.86.28-10.49-3.42-.24-.56-1.05-.08-.81.47Z"/><path class="cls-2" d="M240.72,493.13A82.72,82.72,0,0,0,252.23,525a.47.47,0,0,0,.81-.48c-5.74-9.59-10-20.23-11.38-31.36-.07-.59-1-.6-.94,0Z"/><path class="cls-2" d="M267.06,492.09q-.62,16.71-2.23,33.36c-.05.6.89.6.95,0q1.61-16.65,2.22-33.36a.47.47,0,0,0-.94,0Z"/><path class="cls-2" d="M243.31,502.81a23.7,23.7,0,0,0,8.46,3.52c.6.12.85-.79.25-.91a22.9,22.9,0,0,1-8.24-3.42c-.5-.34-1,.47-.47.81Z"/><path class="cls-2" d="M241,488.79a44.62,44.62,0,0,0-10.36,12.4c-1,1.83-1.67,4.08-.77,6.07a4,4,0,0,0,4.3,2.55l-.58-.58a13.1,13.1,0,0,0,4.17,13.91c.47.38,1.14-.28.67-.66a12.18,12.18,0,0,1-3.93-13c.12-.37-.25-.63-.58-.58-2.57.42-3.81-2.56-3.43-4.65a15,15,0,0,1,2.78-5.49,48.9,48.9,0,0,1,8.4-9.31c.46-.39-.21-1.06-.67-.66Z"/><path class="cls-2" d="M267.2,489c2.83,2.59,5.82,5,8.73,7.48.7.6,1.4,1.2,2.09,1.81.29.26.63.53.9.82a1.65,1.65,0,0,1,.61,1.51,4.93,4.93,0,0,1-.61.4c-1.79,1.1-3.63,2.12-5.44,3.18a.48.48,0,0,0-.22.54,18,18,0,0,1-1.76,15.94c-.33.51.48,1,.81.48a18.91,18.91,0,0,0,1.86-16.67l-.22.53,3.23-1.89a18.17,18.17,0,0,0,2.9-1.75c1.47-1.31-.42-2.88-1.4-3.75-3.54-3.17-7.31-6.08-10.82-9.29-.44-.41-1.11.25-.66.66Z"/><path class="cls-2" d="M233.08,497.48a61.21,61.21,0,0,0-11,22.14.47.47,0,0,0,.91.25,60.1,60.1,0,0,1,10.75-21.72c.37-.47-.29-1.14-.66-.67Z"/><path class="cls-2" d="M277.57,497.92c3.45,2.34,5.77,6.57,7.72,10.13a69.62,69.62,0,0,1,5.9,13.92.47.47,0,0,0,.91-.25,70.4,70.4,0,0,0-6.17-14.46c-2-3.61-4.38-7.78-7.88-10.15-.5-.35-1,.47-.48.81Z"/><path class="cls-2" d="M235.4,435.79c0-1-.28-2.35-1.48-2.54a1.84,1.84,0,0,0-1.8.83,15.25,15.25,0,0,0-2.06,5,13.16,13.16,0,0,0-.38,6.5A4.2,4.2,0,0,0,231.1,448a2.37,2.37,0,0,0,3.08-.54c1.14-1.39.84-3.58.91-5.25.1-2.13.27-4.26.31-6.4,0-.6-.93-.6-.94,0-.06,3-.24,5.93-.39,8.88,0,1.1-.38,2.79-1.83,2.72-.88,0-1.33-1-1.56-1.78a10.52,10.52,0,0,1,0-5.11,20.19,20.19,0,0,1,1.56-4.73,4.7,4.7,0,0,1,.82-1.36.85.85,0,0,1,.86-.19c.56.24.57,1.07.54,1.57s.91.61.94,0Z"/><path class="cls-2" d="M240.93,429.74a34.91,34.91,0,0,0,11.34,2.33,32.7,32.7,0,0,0,5.68-.24c1.47-.21,3.43-.39,4.51-1.55a2.83,2.83,0,0,0,0-3.65c-1.06-1.44-3-1.64-4.55-2.15a21.17,21.17,0,0,0-11-.46c-2.59.63-6.22,2.14-6.34,5.27,0,.6.92.6.94,0,.1-2.46,3.15-3.67,5.14-4.23a20.19,20.19,0,0,1,9.18-.15,30.59,30.59,0,0,1,4.4,1.24c2,.75,2.79,3.28.41,4.15-2.78,1-6.18,1-9.1.79a33.85,33.85,0,0,1-10.37-2.26c-.57-.22-.81.69-.25.91Z"/><path class="cls-2" d="M273.35,436.31c-.78-1.07-1.71-1.64-2.88-.71-1.42,1.13-1.15,3.1-1.12,4.73a40.38,40.38,0,0,0,.59,6.1,10.71,10.71,0,0,0,1.51,4.72,2.36,2.36,0,0,0,4.21-.57c.83-2,.55-4.38.24-6.41a22.21,22.21,0,0,0-2.55-7.86.47.47,0,0,0-.81.48,19.17,19.17,0,0,1,2,5.24,21.38,21.38,0,0,1,.71,5.9c0,1.05-.17,3-1.43,3.32s-1.91-1-2.24-1.92a24,24,0,0,1-.95-4.77,40.1,40.1,0,0,1-.31-5.25c0-.81-.14-2,.41-2.65.21-.25.67-.68,1-.63s.64.52.81.76c.35.48,1.17,0,.81-.48Z"/><path class="cls-2" d="M234.58,434.46a15.46,15.46,0,0,1,6.22-4.72c.56-.22.32-1.13-.25-.91a16.37,16.37,0,0,0-6.64,5c-.38.46.28,1.13.67.67Z"/><path class="cls-2" d="M262,430a13,13,0,0,1,5.31,1.63,13.24,13.24,0,0,1,3.7,4.14c.33.5,1.14,0,.81-.48a14.43,14.43,0,0,0-3.95-4.42A13.53,13.53,0,0,0,262.2,429c-.59-.09-.84.82-.25.91Z"/><path class="cls-2" d="M240.55,446.48l6.93-.58c.6,0,.6-1,0-.94l-6.93.58c-.6,0-.6,1,0,.94Z"/><path class="cls-2" d="M258.92,447.2a15.52,15.52,0,0,1,7.89.22.47.47,0,0,0,.25-.91,16.68,16.68,0,0,0-8.39-.22c-.59.13-.34,1,.25.91Z"/><ellipse class="cls-2" cx="245.2" cy="453.42" rx="1.86" ry="1.21" transform="translate(-223.79 667.34) rotate(-86.12)"/><path class="cls-2" d="M243.77,452.48l2.79,0A.48.48,0,0,0,247,452a.47.47,0,0,0-.47-.47l-2.79,0a.47.47,0,0,0-.47.47.49.49,0,0,0,.47.47Z"/><ellipse class="cls-2" cx="261.46" cy="453.42" rx="1.86" ry="1.21" transform="translate(-208.63 683.57) rotate(-86.12)"/><path class="cls-2" d="M260,452.48l2.79,0a.48.48,0,0,0,.47-.47.47.47,0,0,0-.47-.47l-2.79,0a.47.47,0,0,0-.47.47.49.49,0,0,0,.47.47Z"/><path class="cls-2" d="M351.88,499.8c1.84,2.55,1.72,5.74,1.84,8.75a46.8,46.8,0,0,0,1.53,10.05.53.53,0,0,0,1,0,36,36,0,0,1,3.35-6.93c1.27-1.88,2.74-3.48,3.3-5.73a7.34,7.34,0,0,1,1.37-3.32,17.46,17.46,0,0,1,2.51-2.1c1.51-1.18,2.9-2.76,2.72-4.8l-1,.27a18.34,18.34,0,0,0,5.64,6.05,20,20,0,0,0,3.94,2,12.13,12.13,0,0,1,4.47,2.41c2.3,2.33,2.87,6.15,3.49,9.22A72.47,72.47,0,0,1,387.43,527c0,.68,1.09.68,1.06,0a73.43,73.43,0,0,0-1.26-11c-.6-3.13-1.18-6.75-3.09-9.41s-4.91-3.11-7.61-4.47a17.24,17.24,0,0,1-7.09-6.74c-.25-.43-1-.28-1,.27.23,2.52-2.27,3.84-3.94,5.23s-2.13,3-2.72,5.09c-.62,2.25-2.38,3.9-3.57,5.85a39.85,39.85,0,0,0-3,6.43h1a50,50,0,0,1-1.53-11c-.09-2.82-.24-5.74-1.94-8.11-.4-.55-1.32,0-.92.54Z"/><path class="cls-2" d="M369.12,496c.2-2,1.8-3.43,3.12-4.77s2.51-2.46,3.71-3.74a14.45,14.45,0,0,0,2.46-3.36,14,14,0,0,0,1.24-4.67c.07-.68-1-.68-1.07,0a12,12,0,0,1-1.4,4.72,17.27,17.27,0,0,1-2.86,3.46c-1.28,1.28-2.57,2.53-3.82,3.84a7.76,7.76,0,0,0-2.44,4.52c-.07.68,1,.67,1.06,0Z"/><path class="cls-2" d="M341.34,507.41c1.08-3.93,6.1-4.07,9-5.93,2.22-1.42,3.95-4.65,1.86-6.93-1.14-1.25-2.88-2.07-4.18-3.15a18.83,18.83,0,0,1-5.73-7.27c-.2-.51-1-.29-.83.23,1.66,4.14,5.05,7.22,8.69,9.64,1.73,1.15,2.72,2.63,1.68,4.67-.91,1.81-2.8,2.63-4.61,3.3-2.71,1-5.89,2.11-6.75,5.21a.44.44,0,0,0,.84.23Z"/><path class="cls-2" d="M336.05,455.58a2.13,2.13,0,0,0,.59,2.59,4.85,4.85,0,0,0,2.67,1c8.32,1.05,16.41-5.09,24.68-3.65,3.06.53,5.84,2.08,8.78,3.11s6.33,1.53,9,0c.74-.42,1.47-1.12,1.37-2a2.33,2.33,0,0,0-1.06-1.45c-2.25-1.7-5-2.52-7.72-3.32-6.41-1.89-12.95-3.8-19.64-3.68-5.78.11-12,1.15-16.48,4.8a8,8,0,0,0-2.23,2.54"/><path class="cls-2" d="M335.68,455.36c-1.39,2.92,2.22,4.16,4.42,4.32,3.51.26,7-.68,10.32-1.66,3.52-1,7.1-2.27,10.82-2.29,4.06,0,7.49,1.9,11.2,3.24,3,1.09,6.86,1.77,9.75-.05.94-.6,1.77-1.64,1.27-2.8-.59-1.37-2.58-2.26-3.84-2.84a69.86,69.86,0,0,0-11.33-3.54,53.3,53.3,0,0,0-12.1-1.93,35.71,35.71,0,0,0-12,1.59c-3.28,1.09-6.71,2.92-8.53,6a.43.43,0,0,0,.75.43c3.16-5.26,10.72-6.72,16.35-7,7.08-.41,13.85,1.34,20.59,3.31,1.52.45,3.06.88,4.55,1.45a18,18,0,0,1,2.2,1,6.47,6.47,0,0,1,2.26,1.55c1.6,2.34-3.16,3.11-4.4,3.13a14.45,14.45,0,0,1-4.91-.89c-3.13-1.07-6.05-2.75-9.36-3.24a21.29,21.29,0,0,0-8.06.6c-3.28.79-6.46,2-9.76,2.68a21.58,21.58,0,0,1-5,.54c-1.54,0-5.68-.52-4.46-3.07.23-.5-.51-.93-.75-.43Z"/><path class="cls-2" d="M337.71,453.44c-2-3.17-.88-7.58,1.7-10.3s6.26-4.07,9.88-5c4.84-1.28,9.93-2,14.84-1.09a29,29,0,0,1,5.83,1.82c2.8,1.18,5.56,2.75,7.31,5.24s2.22,6.06.44,8.53"/><path class="cls-2" d="M338.08,453.22c-1.92-3.23-.73-7.35,1.77-9.92s6.26-3.92,9.78-4.84a35.37,35.37,0,0,1,12.65-1.29,26.42,26.42,0,0,1,11.35,4.05c3.56,2.35,6.44,7.09,3.71,11.16-.31.46.43.89.74.43,2.16-3.21,1.11-7.41-1.37-10.12-2.88-3.14-7.47-5-11.54-5.9a31.86,31.86,0,0,0-14.4.5c-4,.95-8.36,2.26-11.39,5.26-2.86,2.84-4.2,7.47-2,11.11a.43.43,0,0,0,.74-.44Z"/><path class="cls-2" d="M360.1,477.67l-1.28.36a.55.55,0,0,0-.32.24.54.54,0,0,0-.06.41.55.55,0,0,0,.66.37l1.28-.36a.51.51,0,0,0,.32-.24.49.49,0,0,0,.05-.41.53.53,0,0,0-.65-.37Z"/><path class="cls-2" d="M366.56,507.69a31.63,31.63,0,0,1,5.55-5c.45-.32,0-1.07-.44-.75a33.15,33.15,0,0,0-5.72,5.12c-.36.42.25,1,.61.61Z"/><path class="cls-2" d="M349.41,504.75a10.43,10.43,0,0,0,1,2.69.44.44,0,0,0,.59.15.45.45,0,0,0,.16-.59c-.11-.2-.22-.41-.32-.63a5.15,5.15,0,0,1-.23-.54,10.33,10.33,0,0,1-.39-1.31.44.44,0,0,0-.53-.3.43.43,0,0,0-.3.53Z"/><path class="cls-2" d="M380.76,459.27a4.87,4.87,0,0,1,2.43,3.14c.3,2,2.25,7.39,2,8.57s-.39,4.42-.47,4.83c-.34,1.9-2.73,3.44-3.5,4s-2.95,3.64-2.29.63a20.77,20.77,0,0,1,2-5.49c.68-1.45,1.35-3.79.08-3.66a4.62,4.62,0,0,1-1.64,0s-1.52-6.55-1.94-7.55-2.09-4.07-2.09-4.07Z"/><path class="cls-2" d="M380.54,459.64A5.17,5.17,0,0,1,382,460.8a6.86,6.86,0,0,1,1.08,3c.49,1.93,1.16,3.82,1.55,5.77.33,1.6-.16,3.35-.26,5a4.28,4.28,0,0,1-.69,2.5,12.67,12.67,0,0,1-2.57,2.33,12.59,12.59,0,0,0-1.28,1.25,9.31,9.31,0,0,0-.8.7l.21.13a1.83,1.83,0,0,1,0-.57,9.5,9.5,0,0,1,.33-1.4c.51-1.91,1.53-3.55,2.17-5.4a3.92,3.92,0,0,0,.31-2.54c-.34-.88-1.2-.61-2-.6a2.29,2.29,0,0,0-.52,0h0c-.17-.05-.09,0,.25.28,0,0-.07-.26-.07-.28a12.08,12.08,0,0,0-.48-2,46.69,46.69,0,0,0-1.34-5.07,34.46,34.46,0,0,0-2.19-4.33l-.37.65,5.42-.44c.55,0,.55-.91,0-.86l-5.42.44a.44.44,0,0,0-.37.65,26.12,26.12,0,0,1,2.53,5.57c.52,2,1,4,1.46,5.94a.45.45,0,0,0,.3.31,4,4,0,0,0,1.25.05c.6,0,.83,0,.77.65a5.55,5.55,0,0,1-.41,1.55c-.48,1.34-1.23,2.56-1.7,3.9a15.13,15.13,0,0,0-.8,3c0,.38-.1.93.29,1.18.76.48,1.74-.86,2.16-1.3.91-1,2.07-1.62,3-2.59a5.07,5.07,0,0,0,1.4-3.44c.05-.81.1-1.62.18-2.42.06-.59.24-1.19.24-1.78a16.33,16.33,0,0,0-.87-3.95c-.46-1.61-.76-3.31-1.27-4.9A5.22,5.22,0,0,0,381,458.9C380.49,458.64,380.05,459.38,380.54,459.64Z"/><path class="cls-2" d="M337.33,458.64s-2.21,1.16-2.49,3-1,2.9-1.46,4.59.7,3,1.14,5.06-1.29,2.71-1.13,4.48,2.09,3.84,3.29,4.65.94,2.84,2.18,3.46,3.88,1.47,2.83-.64a23.58,23.58,0,0,1-2-6c-.28-1.56-2.14-1.59-2.49-3.7s-.09-2.64.62-2.64a3.39,3.39,0,0,1,1.45.43,57.05,57.05,0,0,1,.93-6.44c.49-1.82,1.95-5.62,1.95-5.62Z"/><path class="cls-2" d="M337.11,458.26a5.61,5.61,0,0,0-2.42,2.47c-.39.85-.43,1.83-.74,2.71a21.44,21.44,0,0,0-1,2.88c-.42,2.06,1.27,3.68,1.23,5.68,0,1.57-1.49,2.54-1.14,4.24a8.16,8.16,0,0,0,3.14,4.37c1.29,1,1.11,2.91,2.58,3.73.75.43,2.33,1.09,3.18.56,1.2-.76-.4-3-.7-3.75a24.62,24.62,0,0,1-1.05-3.56,3.28,3.28,0,0,0-.94-1.89,4.21,4.21,0,0,1-1.73-3c0-.35-.19-1.13.14-1.38s1.1.19,1.39.35a.44.44,0,0,0,.65-.37,41.93,41.93,0,0,1,.86-6.12,50.1,50.1,0,0,1,2-5.83c.11-.29-.17-.51-.41-.54l-4.8-.63c-.55-.08-.54.79,0,.86l4.8.63-.42-.54a46.22,46.22,0,0,0-2.06,6,48.55,48.55,0,0,0-.83,6.13l.64-.37c-.69-.39-1.91-.85-2.55-.12s-.29,2.67.06,3.53c.54,1.35,2,1.83,2.34,3.29a25.18,25.18,0,0,0,.73,2.71c.34,1.05,1,2.08,1.27,3.13.14.51.15.68-.43.67A3.54,3.54,0,0,1,340,484a2.55,2.55,0,0,1-1.85-1.8,5.39,5.39,0,0,0-.78-1.62c-.53-.62-1.29-1-1.85-1.64a6.33,6.33,0,0,1-1.65-2.72c-.25-1.06.28-1.73.72-2.63.72-1.49.22-2.87-.34-4.34a4.54,4.54,0,0,1-.37-3.19c.3-1,.8-2,1.09-3s.39-2.13,1.3-3a5.5,5.5,0,0,1,1.25-.93C338,458.74,337.6,458,337.11,458.26Z"/><ellipse class="cls-2" cx="349.99" cy="469.65" rx="1.11" ry="1.7" transform="translate(-26.23 20.73) rotate(-3.27)"/><path class="cls-2" d="M348.53,468.88l2.55-.14a.44.44,0,0,0,0-.87l-2.55.15a.43.43,0,1,0,0,.86Z"/><ellipse class="cls-2" cx="370.15" cy="469.66" rx="1.7" ry="1.11" transform="translate(-116.18 817.63) rotate(-87.34)"/><path class="cls-2" d="M368.82,468.83l2.55,0a.43.43,0,0,0,.43-.43.44.44,0,0,0-.43-.43l-2.55,0a.44.44,0,0,0,0,.87Z"/><path class="cls-2" d="M356.48,486l6,.41c.59,0,.58-.87,0-.91l-6-.41c-.58,0-.58.87,0,.91Z"/><path class="cls-2" d="M348.16,464.14l6.34-.53c.55,0,.55-.91,0-.86l-6.34.53c-.55.05-.55.91,0,.86Z"/><path class="cls-2" d="M365,464.8a14.4,14.4,0,0,1,7.23.2.43.43,0,0,0,.23-.83,15.3,15.3,0,0,0-7.69-.2c-.54.12-.31.95.23.83Z"/><path class="cls-2" d="M74.62,472.11a20.63,20.63,0,0,1,9.08,1.63c.58.25,1.09-.61.5-.86a21.73,21.73,0,0,0-9.58-1.77c-.63,0-.64,1,0,1Z"/><path class="cls-2" d="M89.55,474.75a41.82,41.82,0,0,1,6.33-.19c.64,0,.64-1,0-1a43.16,43.16,0,0,0-6.33.19.51.51,0,0,0-.5.5.5.5,0,0,0,.5.5Z"/><path class="cls-2" d="M84.81,484.29l1.3.21a.59.59,0,0,0,.39-.05.48.48,0,0,0,.22-.3.46.46,0,0,0,0-.38.48.48,0,0,0-.29-.23l-1.31-.21a.56.56,0,0,0-.38.05.53.53,0,0,0-.23.3.5.5,0,0,0,.05.38.46.46,0,0,0,.3.23Z"/><path class="cls-2" d="M82.64,491.44h5.23a.5.5,0,0,0,0-1H82.64a.5.5,0,0,0,0,1Z"/><path class="cls-2" d="M65.28,476.93a4,4,0,0,0-2,3.47A4.08,4.08,0,0,0,64.74,484c.71.5,1.75.4,2.17,1.25s.67,1.68,1.09,2.48a28.43,28.43,0,0,0,3.08,4.68c.4.5,1.1-.21.7-.71a28.15,28.15,0,0,1-2.7-4,19.56,19.56,0,0,1-1-2.18A3,3,0,0,0,67,483.8c-.61-.36-1.36-.31-1.89-.83a2.84,2.84,0,0,1-.73-1.7,4.65,4.65,0,0,1,.15-1.93,2.48,2.48,0,0,1,1.28-1.55c.54-.34,0-1.2-.5-.86Z"/><path class="cls-2" d="M71,492.24l-1.07,7.28a.52.52,0,0,0,.35.61.5.5,0,0,0,.61-.35l1.07-7.27a.53.53,0,0,0-.35-.62.51.51,0,0,0-.61.35Z"/><path class="cls-2" d="M98.09,469.44c.09,3.11.84,6.11,1,9.21a21.44,21.44,0,0,1-1.59,10.17,12.17,12.17,0,0,1-8.85,7.12c-.63.12-.36,1.08.27,1a13.07,13.07,0,0,0,9.31-7.29,22.12,22.12,0,0,0,1.9-10.12c-.11-3.38-1-6.66-1.09-10.05,0-.64-1-.64-1,0Z"/><path class="cls-2" d="M90.53,496.17a18.66,18.66,0,0,0-1.59,10.36c.08.63,1.08.64,1,0a17.88,17.88,0,0,1,1.46-9.86c.26-.57-.6-1.08-.86-.5Z"/><path class="cls-2" d="M70.53,494.2c-1.86-.57-4-1.11-5.71.22a2.83,2.83,0,0,0-.49,4c1.18,1.6,3.27,2.49,4.77,3.75a39.28,39.28,0,0,1,4.83,5c1.5,1.79,2.92,3.66,4.41,5.46,1.17,1.42,2.5,3.2,4.45,3.49s3.89-1.3,5.28-2.65a23.65,23.65,0,0,0,4.11-5.28c1.15-2,2.57-4.7,2.34-7.09a3.11,3.11,0,0,0-3.5-3c-.63.1-.37,1.06.26,1,2-.33,2.43,2.08,2.16,3.5a15.42,15.42,0,0,1-1.27,3.5,22.59,22.59,0,0,1-3.52,5.38c-1.28,1.44-3.34,3.88-5.49,3.74s-3.8-2.84-5-4.36c-2.62-3.25-5.13-6.64-8.34-9.33-1.4-1.18-3.26-2-4.47-3.4a2,2,0,0,1,.87-3.34c1.32-.49,2.79,0,4.06.4.62.19.88-.77.27-1Z"/><path class="cls-2" d="M95.07,493.57a8.71,8.71,0,0,1,6.4,5.35c1.3,3,.31,6.13-1.46,8.77-3.71,5.55-10.2,8.32-14.46,13.36-.41.49.29,1.19.7.7,4.77-5.64,12.56-8.63,15.78-15.61a9.05,9.05,0,0,0,0-8.29,9.58,9.58,0,0,0-6.73-5.24c-.63-.09-.9.87-.27,1Z"/><path class="cls-2" d="M68.89,488.24c-10.42,0-16,11.3-17.28,20.22-.24,1.64-.24,3.77,1.25,4.85,1.06.76,2.52.66,3.74,1.06a13.38,13.38,0,0,1,6,4.24c3.24,3.82,4.79,8.82,5.69,13.66.11.63,1.07.37,1-.26-1.21-6.46-3.76-13.7-9.65-17.34A13.14,13.14,0,0,0,57,513.45c-1.22-.41-3-.28-3.89-1.24-1.49-1.61-.29-5,.17-6.81A31.73,31.73,0,0,1,56,498.21c2.6-4.83,7.18-9,12.93-9a.5.5,0,0,0,0-1Z"/><path class="cls-2" d="M52.64,513.13c-2,1.12-3.34,2.77-2.37,5.14s3.53,3.32,5.43,4.81c4.24,3.33,6.15,8.69,7.88,13.59.21.6,1.18.35,1-.26-1.45-4.12-3-8.37-5.83-11.77a22.79,22.79,0,0,0-5.14-4.19A5.51,5.51,0,0,1,51,517.37c-.41-1.7.8-2.64,2.13-3.38a.5.5,0,0,0-.5-.86Z"/><path class="cls-2" d="M102.42,505.54c1.22,1.45,3.25,2.36,4.14,4.06.67,1.27.09,2.56-.34,3.81s-.84,2.62-1.16,4A46,46,0,0,0,104,533l1-.13A69.28,69.28,0,0,1,100,510c0-.64-1-.64-1,0a70.38,70.38,0,0,0,5,23.13c.19.47,1,.47,1-.14a45.47,45.47,0,0,1,1.64-17.55c.6-2,1.93-4.28.8-6.32-1-1.79-3-2.72-4.3-4.26-.41-.49-1.11.22-.7.7Z"/><path class="cls-2" d="M50.18,518.91a40.54,40.54,0,0,0-9.37,15c-.22.61.75.87,1,.26a39.67,39.67,0,0,1,9.11-14.57c.45-.46-.25-1.16-.7-.7Z"/><path class="cls-2" d="M107,511.22a25.7,25.7,0,0,1,7,17.66.5.5,0,0,0,1,0,26.73,26.73,0,0,0-7.31-18.37c-.44-.46-1.14.24-.7.71Z"/><path class="cls-2" d="M53.73,501.3c-2.42-.25-5,1.91-6.78,3.3a11.2,11.2,0,0,0-4.26,5.72c-.81,2.82-.49,5.95-.47,8.85l.08,10.13a.5.5,0,0,0,1,0l-.06-8.44a74.3,74.3,0,0,1,.06-8.31A9.62,9.62,0,0,1,46.77,506a25.46,25.46,0,0,1,2.81-2c1.25-.81,2.59-1.84,4.15-1.68.64.07.63-.93,0-1Z"/><path class="cls-2" d="M79.51,448.41c5.48-4,13.08-1.83,19.8-.7a53.65,53.65,0,0,0,13,.59l-4.38,4.33c1.31.56,2.82,2.17,1.72,3.06a4,4,0,0,1-1.44.46c-1.45.43-2.07,2.28-1.68,3.74a8.85,8.85,0,0,0,2.55,3.7c-1.65-.4-2.64,1.75-2.93,3.42l-1.55,8.68c-1.2,1.16-3.14-.43-3.65-2s-.78-3.6-2.33-4.23a3.28,3.28,0,0,1-5,.84c0,1.53-2.28,1.94-3.6,1.15s-2.29-2.19-3.77-2.62l-1.56,1.89a20,20,0,0,1-6.34-6.84A3.12,3.12,0,0,1,76,467.8a4.11,4.11,0,0,1-4.31-2.14,39.9,39.9,0,0,0-3.11,16l-7.4-10.39a3.66,3.66,0,0,1-.75-1.5c-.24-1.5,1.4-2.78,1.3-4.3l-4.11-1.81,1.75-3.08-4.47-.16c2.16-3.27,6.16-4.66,9.79-6.15s7.49-3.69,8.51-7.47l1.81.56a11.86,11.86,0,0,1,1.64-5.18l1.91,5.85"/><ellipse class="cls-2" cx="79.11" cy="477.51" rx="1.28" ry="1.96"/><ellipse class="cls-2" cx="91.98" cy="478.45" rx="1.28" ry="1.96"/><path class="cls-2" d="M77.51,476.62l2.94-.17a.5.5,0,0,0,0-1l-2.94.17a.51.51,0,0,0-.5.5.51.51,0,0,0,.5.5Z"/><path class="cls-2" d="M90.23,477.35l2.94-.19a.51.51,0,0,0,.5-.5.51.51,0,0,0-.5-.5l-2.94.2a.49.49,0,0,0-.49.49.5.5,0,0,0,.49.5Z"/><path class="cls-2" d="M294.65,500.63s-3.47,2.32-6.61,2.53-9.52-3.09-9.52-3.09-2.68-1.37-3.19-3.9a21.49,21.49,0,0,1,.35-10.86c1.36-4.58,3.57-11.14,4.2-14.57s2.46-11.49,3.93-14,4.15-7.5,9.53-9.4,9.54-3.36,15.68-3.43,9.76.5,13.26,4.05,6.32,6.46,9.39,16.6,5.68,15.12,6.45,18.81,1.86,8.13.36,10.49a10.33,10.33,0,0,1-7.52,4.25,28.23,28.23,0,0,1-5.6-.39,16.43,16.43,0,0,0,1.48-5.53,34,34,0,0,1,.78-5.16,4,4,0,0,0,2.76-.47,4.84,4.84,0,0,0,2.44-4.18c-.11-1.6-.64-3.54-2.29-4.22a15.17,15.17,0,0,1-2.54-1.27s-1.13,1-1.58.82-1.34-2.5-1.34-2.5.13-1.61-.57-1.69-1.76.89-1.76.89a19.52,19.52,0,0,1-1.05-4.72c-.23-2.55-.35-3.1-.35-3.1L318,469.35a19.31,19.31,0,0,1-10.95,4.2c-5.18.22-6.86-1-10.07,0a35.25,35.25,0,0,0-4.69,1.69l-1.79,8.63a7.74,7.74,0,0,1-1.64-2.25,10.27,10.27,0,0,0-1.16-2.08s-3.07-.07-3.52,1.42-2,4,.28,6.1,4.21,2.7,4.84,3.78,2.53,5.17,3.09,6.08Z"/><path class="cls-2" d="M288.08,479.31c-2.69-.66-5.26,1.73-5.29,4.41a6.17,6.17,0,0,0,1.49,3.88c1.11,1.34,2.51,1.82,3.87,2.77,1.54,1.08,2.21,3.63,3,5.25a38.53,38.53,0,0,0,2.91,5,19.06,19.06,0,0,0,7.84,6.7A18,18,0,0,0,320.49,505a19.12,19.12,0,0,0,5.55-7.78,20,20,0,0,0,1.2-4.7c.11-.84.16-1.68.23-2.52,0-.5,0-2.26.54-2.52a5.63,5.63,0,0,1,1,.07,3,3,0,0,0,.79-.16,3.9,3.9,0,0,0,1.6-1,6.53,6.53,0,0,0,1.84-3.7,5.51,5.51,0,0,0-5.24-6.11c-.56-.05-.56.84,0,.88a4.62,4.62,0,0,1,4,6.41,4.27,4.27,0,0,1-2.57,2.69c-.77.21-1.74-.41-2.27.34a6.37,6.37,0,0,0-.56,2.88,31.53,31.53,0,0,1-.64,4.75,18.89,18.89,0,0,1-4,7.81,16.7,16.7,0,0,1-16.44,5.16c-6.6-1.52-10.64-6.58-13.55-12.37a28.25,28.25,0,0,0-2.37-4.65c-.94-1.21-2.48-1.56-3.64-2.52-1.38-1.15-2.54-3-2.2-4.84a3.57,3.57,0,0,1,4.11-3c.56.14.8-.72.24-.85Z"/><path class="cls-2" d="M308.29,493.18l2.13-.53a.45.45,0,0,0,.31-.55.45.45,0,0,0-.54-.31l-2.13.53a.44.44,0,0,0-.31.55.45.45,0,0,0,.54.31Z"/><path class="cls-2" d="M301.67,488l1.79-1.28a.35.35,0,0,0,.12-.46.34.34,0,0,0-.46-.12l-1.78,1.28a.33.33,0,0,0,.33.58Z"/><path class="cls-2" d="M315.79,486.06l2.09.7a.33.33,0,0,0,.4-.24.32.32,0,0,0-.23-.4l-2.08-.71a.34.34,0,0,0-.18.65Z"/><path class="cls-2" d="M308.06,499.43a7.81,7.81,0,0,0,4.51-.42.46.46,0,0,0,.31-.55.44.44,0,0,0-.54-.31,7,7,0,0,1-4,.43.44.44,0,0,0-.23.85Z"/><path class="cls-2" d="M300.71,506.46a21.39,21.39,0,0,1-.57,7.39.45.45,0,0,0,.86.24,22.53,22.53,0,0,0,.6-7.63c-.05-.56-.94-.57-.89,0Z"/><path class="cls-2" d="M321.21,504.15l3.24,8.08c.21.52,1.07.29.86-.24l-3.25-8.08c-.2-.52-1.06-.3-.85.24Z"/><path class="cls-2" d="M298.53,514.46c8.62,3.46,19,3.89,26.66-2,.45-.35-.18-1-.62-.62-7.41,5.72-17.52,5.13-25.81,1.8-.53-.21-.76.64-.23.86Z"/><path class="cls-2" d="M300.91,510.23a5.86,5.86,0,0,0-3.62,1,7,7,0,0,0-2.24,3.22,18.59,18.59,0,0,0-.82,2.85c-.13.55.73.79.85.23a10.82,10.82,0,0,1,2-4.95,4.77,4.77,0,0,1,3.8-1.46.44.44,0,0,0,0-.88Z"/><path class="cls-2" d="M323.26,508.51a4.5,4.5,0,0,1,4.21,2,11.94,11.94,0,0,1,1.27,2.46,2.92,2.92,0,0,1,.34,1.78c-.12.83-.55,1-1.22,1.43a33,33,0,0,1-10.43,4.41C310.17,522.32,301,522,295,517.09c-.44-.35-1.07.27-.63.63,5.49,4.43,13.4,5.27,20.18,4.34a34.3,34.3,0,0,0,10.15-3,23.33,23.33,0,0,0,4.65-2.73c1.17-.95.85-2.06.35-3.32a10.34,10.34,0,0,0-2.84-4.38,5.06,5.06,0,0,0-3.57-1,.44.44,0,0,0,0,.88Z"/><path class="cls-2" d="M293.92,517.34a44.33,44.33,0,0,0-14,30.41c0,.57.86.57.88,0A43.51,43.51,0,0,1,294.55,518c.42-.38-.21-1-.63-.62Z"/><path class="cls-2" d="M329.44,515.58c11.76,5.08,14.84,18.6,17.17,29.95.11.55,1,.32.85-.24-2.37-11.56-5.6-25.3-17.57-30.47-.52-.23-1,.54-.45.76Z"/><path class="cls-2" d="M288,479.88a5.84,5.84,0,0,0,2.11,4.3.45.45,0,0,0,.74-.19l.85-4.6a15.5,15.5,0,0,1,.77-3.65c.28-.61.64-.58,1.24-.68a10.68,10.68,0,0,0,2.35-.73c2.76-1.15,6-.5,8.95-.42a19.46,19.46,0,0,0,5.94-.59,20.41,20.41,0,0,0,6.61-3.13,24.54,24.54,0,0,0,2.14-1.8c.3-.27.58-.55.88-.81.14-.13.75-.53.52-.57s0,.39,0,.66.07.86.1,1.29c.07,1.08.12,2.16.24,3.23.08.75.14,3,1.36,2.82.41-.06.68-.44.95-.72.07-.08.35-.44.42-.42.23.07.37,1.09.42,1.33.17.94.23,2.14,1.19,2.65a2.27,2.27,0,0,0,2.5-.48c.43-.37-.2-1-.63-.62-1.93,1.69-2.08-1.66-2.43-2.67-.14-.44-.37-1-.88-1.09a1.08,1.08,0,0,0-.91.35,3.27,3.27,0,0,0-.44.47c-.15.18-.42.27-.23.34-.46-.18-.47-2.31-.51-2.72-.09-1.09-.13-2.19-.22-3.29-.05-.67,0-2.17-1.05-1.92a3.23,3.23,0,0,0-1.17.87c-.77.7-1.51,1.41-2.33,2.05a19.38,19.38,0,0,1-7.22,3.45,22.89,22.89,0,0,1-6.51.39c-2.71-.11-5.57-.54-8.13.58a13.47,13.47,0,0,1-2.61.71,1.65,1.65,0,0,0-1.2.8,9.71,9.71,0,0,0-.78,3.16l-1,5.52.74-.19a5.07,5.07,0,0,1-1.84-3.68c0-.57-.92-.57-.89,0Z"/><ellipse class="cls-2" cx="301.29" cy="483.87" rx="1.14" ry="1.75" transform="translate(-27.12 17.98) rotate(-3.27)"/><path class="cls-2" d="M299.79,483.15l2.61-.29a.46.46,0,0,0,.44-.45c0-.22-.19-.47-.44-.44l-2.61.3a.44.44,0,0,0-.44.44c0,.22.19.47.44.44Z"/><ellipse class="cls-2" cx="317.27" cy="482.95" rx="1.75" ry="1.14" transform="translate(-186.07 766.78) rotate(-86.12)"/><path class="cls-2" d="M315.93,482.06l2.62,0a.44.44,0,0,0,.44-.44.44.44,0,0,0-.44-.44l-2.62,0a.44.44,0,0,0-.45.44.45.45,0,0,0,.45.44Z"/><path class="cls-2" d="M294.43,500.24c-2.42,1.31-5,2.64-7.8,2.46a12.61,12.61,0,0,1-4.46-1.43c-1-.46-2.06-.89-3-1.43-5.17-2.82-4.32-9.64-3.07-14.51.8-3.13,1.95-6.15,2.89-9.23.84-2.73,1.43-5.51,2-8.31,1.07-5.26,2.24-10.59,5.78-14.81,3.72-4.46,9.15-6.63,14.73-7.66,5.82-1.09,12.31-1.83,17.7,1.1,4.43,2.41,7.42,6.57,9.39,11.12,1.3,3,2.33,6.2,3.47,9.29l3.54,9.65c1.72,4.68,3.59,10,3,15.09a6.08,6.08,0,0,1-1,2.9,6.64,6.64,0,0,1-2.42,1.75,13.49,13.49,0,0,1-9.35,1.27c-.55-.13-.79.73-.23.85a14.17,14.17,0,0,0,8.56-.67c1.61-.66,3.55-1.54,4.44-3.13a10.5,10.5,0,0,0,.86-5.81A37.64,37.64,0,0,0,338,481c-.82-2.86-1.92-5.64-2.94-8.44l-4.06-11c-1.91-5.2-4.08-10.34-8.49-13.93a18.64,18.64,0,0,0-7.16-3.64c-3.16-.78-6.5-.48-9.7-.14-5.83.61-11.88,2-16.59,5.64s-7,9.08-8.28,14.77c-.66,2.9-1.16,5.83-1.88,8.72-.89,3.51-2.19,6.89-3.22,10.37-1.53,5.19-3.19,13.39,2.3,16.88a27.15,27.15,0,0,0,3.42,1.69,16.59,16.59,0,0,0,4.4,1.6c3.29.48,6.25-1,9.07-2.49.5-.27.05-1-.45-.77Z"/><path class="cls-2" d="M296,479.69a25.72,25.72,0,0,1,8.7-.62c.57.05.56-.83,0-.89a26.37,26.37,0,0,0-8.94.66c-.55.13-.32,1,.24.85Z"/><path class="cls-2" d="M312.63,479.41a25.29,25.29,0,0,1,8.59-.16c.56.09.8-.77.23-.86a26.51,26.51,0,0,0-9.06.17c-.56.1-.32,1,.24.85Z"/><path class="cls-2" d="M115.2,628.58l-.22-.75-.75.22-.23-.75-1.5.45-.23-.75-2.25.67-.23-.75-1.5.45-.9-3-.76.23-.22-.75-1.5.45.22.75-.75.22,2,6.77-.76.23-.22-.76-2.26.68.23.75.11.38.34,1.13.75-.23.23.75.75-.22.45,1.5.75-.22.45,1.5.75-.22.45,1.5.75-.23.45,1.51.23.75,6.77-2,.75-.22-.68-2.26.76-.22-.68-2.26.75-.22L116,628.35Z"/><rect x="105.71" y="624.95" width="0.78" height="9.42" transform="translate(-176.18 56.91) rotate(-16.67)"/><rect x="104.99" y="624.04" width="1.57" height="0.78" transform="translate(-174.69 56.59) rotate(-16.67)"/><rect x="107.63" y="624.33" width="0.78" height="7.06" transform="translate(-175.58 57.38) rotate(-16.67)"/><rect x="108.37" y="627.13" width="1.57" height="0.78" transform="translate(-175.43 57.69) rotate(-16.67)"/><rect x="110.56" y="628.26" width="0.79" height="2.35" transform="translate(-175.91 58.29) rotate(-16.67)"/><rect x="110.08" y="627.32" width="2.35" height="0.78" transform="translate(-175.4 58.3) rotate(-16.67)"/><rect x="113.04" y="628.34" width="0.78" height="2.35" transform="translate(-175.83 59) rotate(-16.67)"/><rect x="112.58" y="627.51" width="1.57" height="0.78" transform="translate(-175.37 58.91) rotate(-16.67)"/><rect x="114.32" y="627.92" width="0.79" height="0.79" transform="translate(-175.43 59.32) rotate(-16.67)"/><rect x="115.98" y="628.35" width="0.78" height="5.49" transform="translate(-176.16 59.91) rotate(-16.67)"/><rect x="116.35" y="633.9" width="0.79" height="2.35" transform="translate(-177.28 60.19) rotate(-16.67)"/><rect x="116.27" y="636.39" width="0.78" height="2.35" transform="translate(-178 60.27) rotate(-16.67)"/><rect x="109.6" y="639.05" width="7.06" height="0.78" transform="translate(-178.69 59.33) rotate(-16.67)"/><rect x="105.75" y="632.13" width="0.78" height="0.78" transform="translate(-177 57.04) rotate(-16.67)"/><rect x="103.24" y="631.83" width="2.35" height="0.78" transform="translate(-176.98 56.53) rotate(-16.67)"/><rect x="103.61" y="632.79" width="0.79" height="1.57" transform="translate(-177.39 56.47) rotate(-16.67)"/><rect x="104.7" y="634.08" width="0.78" height="0.78" transform="translate(-177.6 56.82) rotate(-16.67)"/><rect x="105.79" y="634.59" width="0.78" height="1.57" transform="translate(-177.81 57.17) rotate(-16.67)"/><rect x="106.99" y="635.87" width="0.78" height="1.57" transform="translate(-178.13 57.57) rotate(-16.67)"/><rect x="108.19" y="637.15" width="0.78" height="1.57" transform="translate(-178.45 57.96) rotate(-16.67)"/><rect x="109.39" y="638.43" width="0.79" height="1.57" transform="translate(-178.76 58.36) rotate(-16.67)"/><path class="cls-2" d="M86.64,608.8H86v-5.9h1.65a2.29,2.29,0,0,1,1.14.25,1.68,1.68,0,0,1,.67.68,2,2,0,0,1,.23.95,2.1,2.1,0,0,1-.23,1,1.77,1.77,0,0,1-.69.72,2.14,2.14,0,0,1-1.12.27h-1Zm0-2.32-.31-.34h1.2a1.75,1.75,0,0,0,.8-.17,1.14,1.14,0,0,0,.47-.48,1.66,1.66,0,0,0,0-1.4,1,1,0,0,0-.47-.44,1.89,1.89,0,0,0-.81-.15h-1.2l.31-.39Z"/><path class="cls-2" d="M91.36,608.8v-5.9h2a1.75,1.75,0,0,1,1.24.38,1.52,1.52,0,0,1,.42,1.17,1.75,1.75,0,0,1-.17.8,1.57,1.57,0,0,1-.43.51A1.09,1.09,0,0,1,94,606a1.11,1.11,0,0,1,.42.12.8.8,0,0,1,.35.31,1,1,0,0,1,.14.57v1.34a1.42,1.42,0,0,0,0,.31.6.6,0,0,0,.06.18h-.68a.93.93,0,0,1-.06-.18,1.42,1.42,0,0,1,0-.31v-1.26a.68.68,0,0,0-.25-.58,1.08,1.08,0,0,0-.7-.19H91.83L92,606v2.78ZM92,606l-.19-.28h1.46a1,1,0,0,0,.54-.15,1.1,1.1,0,0,0,.39-.41,1.2,1.2,0,0,0,.14-.61.94.94,0,0,0-.28-.78,1.29,1.29,0,0,0-.84-.23H91.82l.2-.3Z"/><path class="cls-2" d="M99.12,608.88a2.14,2.14,0,0,1-1-.21,2,2,0,0,1-.75-.59,2.89,2.89,0,0,1-.49-1,4.9,4.9,0,0,1,0-2.56,2.84,2.84,0,0,1,.49-.95,2.14,2.14,0,0,1,.75-.59,2.28,2.28,0,0,1,1-.2,2.23,2.23,0,0,1,.94.2,2.14,2.14,0,0,1,.75.59,2.68,2.68,0,0,1,.5.95,4.9,4.9,0,0,1,0,2.56,2.73,2.73,0,0,1-.5,1,2,2,0,0,1-.75.59A2.09,2.09,0,0,1,99.12,608.88Zm0-.62A1.44,1.44,0,0,0,100,608a1.77,1.77,0,0,0,.59-.8,3.75,3.75,0,0,0,.21-1.35,3.66,3.66,0,0,0-.21-1.34,1.72,1.72,0,0,0-.59-.8,1.5,1.5,0,0,0-.86-.26,1.54,1.54,0,0,0-.87.26,1.72,1.72,0,0,0-.59.8,3.66,3.66,0,0,0-.21,1.34,3.75,3.75,0,0,0,.21,1.35,1.67,1.67,0,0,0,.59.8A1.47,1.47,0,0,0,99.12,608.26Z"/><path class="cls-2" d="M105.21,602.9a2.59,2.59,0,0,1,.93.15,1.17,1.17,0,0,1,.58.46,1.39,1.39,0,0,1,.2.79,1.47,1.47,0,0,1-.18.76,1.27,1.27,0,0,1-.48.47,1.43,1.43,0,0,1-.6.17,1.67,1.67,0,0,1,.66.15,1.32,1.32,0,0,1,.53.47,1.58,1.58,0,0,1,.2.84,1.89,1.89,0,0,1-.2.89,1.31,1.31,0,0,1-.63.55,2.41,2.41,0,0,1-1,.2h-1.93v-5.9Zm-1.3,2.76-.23-.24h1.21a1.67,1.67,0,0,0,1-.25.9.9,0,0,0,.36-.77.78.78,0,0,0-.57-.82,2.35,2.35,0,0,0-.63-.08H103.6l.31-.39ZM105,608.2a1.52,1.52,0,0,0,1-.27.94.94,0,0,0,.36-.8,1.08,1.08,0,0,0-.12-.54.87.87,0,0,0-.32-.34,1.51,1.51,0,0,0-.45-.18,3.31,3.31,0,0,0-.55-.05h-1.24l.23-.23v2.79l-.31-.38Z"/><path class="cls-2" d="M108.9,608.8v-5.9h.69v5.68l-.31-.38h2.64v.6Z"/><path class="cls-2" d="M114,603.5l.31-.39v2.66l-.17-.23h2.27v.6h-2.27l.17-.24v2.68l-.31-.38h2.85v.6h-3.22v-5.9h3.22v.6Z"/><path class="cls-2" d="M122.92,602.9h1.18v5.9h-.65v-5.36h0L122,608.8h-1l-1.51-5.36h0v5.36h-.65v-5.9H120l1.45,5.35h0Z"/><path class="cls-2" d="M137.89,628.66v-8.25h.68v8.25Zm2.69-2.3a2.42,2.42,0,0,1-1.24-.33,2.5,2.5,0,0,1-.92-.88,2.22,2.22,0,0,1-.35-1.25v0h.5v0a1.64,1.64,0,0,0,.27.91,2,2,0,0,0,.7.67,2,2,0,0,0,1,.24,1.82,1.82,0,0,0,1.4-.6,3.2,3.2,0,0,0,0-3.56,1.82,1.82,0,0,0-1.4-.6,1.88,1.88,0,0,0-1,.25,1.93,1.93,0,0,0-.7.66,1.62,1.62,0,0,0-.27.91h-.5a2.22,2.22,0,0,1,.35-1.25,2.57,2.57,0,0,1,2.16-1.18,2.4,2.4,0,0,1,2.21,1.37,3.54,3.54,0,0,1,.34,1.63,3.6,3.6,0,0,1-.34,1.65,2.42,2.42,0,0,1-.91,1A2.51,2.51,0,0,1,140.58,626.36Z"/><path class="cls-2" d="M145.71,617.66v8.59H145v-8.59Z"/><path class="cls-2" d="M149.84,626.36a3,3,0,0,1-1.17-.21,1.65,1.65,0,0,1-.77-.59,1.59,1.59,0,0,1-.27-.93,1.49,1.49,0,0,1,.28-.93,1.82,1.82,0,0,1,.82-.58,4.7,4.7,0,0,1,1.26-.28,13.85,13.85,0,0,0,1.6-.24c.32-.08.49-.2.49-.38v-.07a1,1,0,0,0-.47-.88,2.28,2.28,0,0,0-1.31-.32,2.42,2.42,0,0,0-1.39.35,1.22,1.22,0,0,0-.5,1.05h-.67a1.87,1.87,0,0,1,.32-1.09,2,2,0,0,1,.9-.69,3.45,3.45,0,0,1,1.34-.24,3.49,3.49,0,0,1,1.25.21,2.18,2.18,0,0,1,.89.63,1.6,1.6,0,0,1,.32,1v3c0,.12,0,.24,0,.36a1.92,1.92,0,0,0,.05.29,1.79,1.79,0,0,0,.1.26l.09.12h-.69l-.07-.11c0-.07-.06-.15-.1-.23a1.55,1.55,0,0,1-.06-.31c0-.12,0-.25,0-.41l.11.08a1.83,1.83,0,0,1-.51.57,2.76,2.76,0,0,1-.81.38A3.74,3.74,0,0,1,149.84,626.36Zm.11-.61a2.83,2.83,0,0,0,1.07-.2,1.86,1.86,0,0,0,.77-.56,1.4,1.4,0,0,0,.29-.89v-1.36l.14.25a3.24,3.24,0,0,1-.87.26c-.36.06-.76.11-1.19.15a3.82,3.82,0,0,0-1.38.35.89.89,0,0,0-.47.84,1,1,0,0,0,.42.86A2.05,2.05,0,0,0,150,625.75Z"/><path class="cls-2" d="M157.38,626.36a3,3,0,0,1-1.47-.36,2.81,2.81,0,0,1-1.07-1,3.58,3.58,0,0,1,0-3.25,2.69,2.69,0,0,1,1.07-1,3,3,0,0,1,1.47-.36,3,3,0,0,1,1.1.19,2.69,2.69,0,0,1,.82.5,2.33,2.33,0,0,1,.51.68,1.62,1.62,0,0,1,.17.73h0v0h-.67v-.06a.2.2,0,0,1,0-.07,1.36,1.36,0,0,0-.32-.71,1.88,1.88,0,0,0-.67-.49,2.35,2.35,0,0,0-.94-.18,2.33,2.33,0,0,0-1.1.27,2.14,2.14,0,0,0-.82.79,2.55,2.55,0,0,0-.31,1.32,2.59,2.59,0,0,0,.31,1.33,2.1,2.1,0,0,0,.82.8,2.22,2.22,0,0,0,1.1.28,2.39,2.39,0,0,0,1.07-.22,1.52,1.52,0,0,0,.64-.55,1.39,1.39,0,0,0,.23-.71H160a1.83,1.83,0,0,1-.16.74,2.18,2.18,0,0,1-.5.68,2.34,2.34,0,0,1-.81.49A3,3,0,0,1,157.38,626.36Z"/><path class="cls-2" d="M162,623.62V623h4.73l-.13.19v-.11a2.27,2.27,0,0,0-.25-1.06,1.91,1.91,0,0,0-.7-.79,2,2,0,0,0-1.12-.29,2.3,2.3,0,0,0-1.18.3,2.09,2.09,0,0,0-.8.84,2.65,2.65,0,0,0-.28,1.25,2.72,2.72,0,0,0,.28,1.26,2,2,0,0,0,.8.84,2.29,2.29,0,0,0,1.19.3,2.84,2.84,0,0,0,.87-.13,2,2,0,0,0,.62-.32,1.67,1.67,0,0,0,.37-.44,1,1,0,0,0,.15-.43h.68a1.69,1.69,0,0,1-.21.66,2,2,0,0,1-.52.63,2.53,2.53,0,0,1-.84.48,3.6,3.6,0,0,1-1.14.17A3,3,0,0,1,163,626a2.72,2.72,0,0,1-1-1.07,3.16,3.16,0,0,1-.38-1.56,3.2,3.2,0,0,1,.38-1.57,2.72,2.72,0,0,1,1-1.06,2.89,2.89,0,0,1,1.5-.39,2.78,2.78,0,0,1,1.49.39,2.61,2.61,0,0,1,1,1.06,3.34,3.34,0,0,1,.34,1.5,1.21,1.21,0,0,1,0,.18v.16Z"/><path class="cls-2" d="M174.11,626.34a2,2,0,0,1-.48-.06,1.06,1.06,0,0,1-.42-.22,1,1,0,0,1-.28-.43,1.94,1.94,0,0,1-.11-.7V621h-1.41v-.6h1.24c.06,0,.1,0,.12,0a.26.26,0,0,0,0-.14,1.86,1.86,0,0,0,0-.26v-1.42h.68v1.88h1.87v.6H173.5v3.68a1.65,1.65,0,0,0,.15.77.56.56,0,0,0,.55.28,1.45,1.45,0,0,0,.3,0,.58.58,0,0,0,.23-.06v.6a1.12,1.12,0,0,1-.26.06A2,2,0,0,1,174.11,626.34Z"/><path class="cls-2" d="M176.89,626.25v-8.59h.68v8.59Zm4.2,0v-3.42a2.1,2.1,0,0,0-.4-1.38,1.48,1.48,0,0,0-1.22-.48,2.06,2.06,0,0,0-1,.23,1.85,1.85,0,0,0-.68.62,1.53,1.53,0,0,0-.24.84l-.45-.13a2,2,0,0,1,.31-1.09,2.35,2.35,0,0,1,.88-.8,2.55,2.55,0,0,1,1.28-.31,2.06,2.06,0,0,1,1.61.63,2.53,2.53,0,0,1,.57,1.75v3.54Z"/><path class="cls-2" d="M183.94,623.62V623h4.73l-.13.19v-.11a2.39,2.39,0,0,0-.24-1.06,2,2,0,0,0-.7-.79,2,2,0,0,0-1.12-.29,2.34,2.34,0,0,0-1.19.3,2.07,2.07,0,0,0-.79.84,2.65,2.65,0,0,0-.29,1.25,2.85,2.85,0,0,0,.28,1.26,2.09,2.09,0,0,0,.8.84,2.31,2.31,0,0,0,1.19.3,2.75,2.75,0,0,0,.87-.13,1.9,1.9,0,0,0,.62-.32,1.5,1.5,0,0,0,.37-.44,1.14,1.14,0,0,0,.16-.43h.67a1.52,1.52,0,0,1-.2.66,2.23,2.23,0,0,1-.53.63,2.48,2.48,0,0,1-.83.48,3.66,3.66,0,0,1-1.15.17A3,3,0,0,1,185,626a2.74,2.74,0,0,1-1-1.07,3.16,3.16,0,0,1-.37-1.56,3.1,3.1,0,0,1,.38-1.57,2.69,2.69,0,0,1,1-1.06,2.93,2.93,0,0,1,1.51-.39,2.75,2.75,0,0,1,1.48.39,2.61,2.61,0,0,1,1,1.06,3.22,3.22,0,0,1,.34,1.5v.18c0,.07,0,.13,0,.16Z"/><path class="cls-2" d="M194.06,626.25v-5.84h.68v5.84Zm3.58,0v-3.71a2.9,2.9,0,0,0,0-.48,1.5,1.5,0,0,0-.15-.51.92.92,0,0,0-.37-.41,1.27,1.27,0,0,0-.7-.17,1.46,1.46,0,0,0-.78.19,1.5,1.5,0,0,0-.5.47,1.85,1.85,0,0,0-.27.63,2.32,2.32,0,0,0-.09.62l-.4-.16a2.61,2.61,0,0,1,.26-1.18,2.26,2.26,0,0,1,.75-.87,2,2,0,0,1,1.16-.34,1.88,1.88,0,0,1,1,.26,1.46,1.46,0,0,1,.58.71,3,3,0,0,1,.18,1.08v3.87Zm3.56,0v-3.74a4.23,4.23,0,0,0,0-.47,1.29,1.29,0,0,0-.14-.5,1,1,0,0,0-.38-.4,1.38,1.38,0,0,0-.73-.17,1.55,1.55,0,0,0-.78.18,1.51,1.51,0,0,0-.5.47,2,2,0,0,0-.25.59,2.51,2.51,0,0,0-.08.57l-.4-.15a2.5,2.5,0,0,1,.25-1.11,2.2,2.2,0,0,1,.74-.86,2,2,0,0,1,1.15-.33,2.07,2.07,0,0,1,1,.23,1.55,1.55,0,0,1,.61.66,2.37,2.37,0,0,1,.21,1v4Z"/><path class="cls-2" d="M206.58,626.35a2.94,2.94,0,0,1-1.52-.39,2.75,2.75,0,0,1-1-1.08,3.2,3.2,0,0,1-.38-1.55,3.15,3.15,0,0,1,.38-1.55,2.76,2.76,0,0,1,1-1.06,3.23,3.23,0,0,1,3,0,2.76,2.76,0,0,1,1,1.06,3.15,3.15,0,0,1,.38,1.55,3.2,3.2,0,0,1-.38,1.55,2.75,2.75,0,0,1-1,1.08A2.94,2.94,0,0,1,206.58,626.35Zm0-.62a2.12,2.12,0,0,0,1.16-.31,2.09,2.09,0,0,0,.79-.85,2.64,2.64,0,0,0,.29-1.24,2.61,2.61,0,0,0-.29-1.24,2,2,0,0,0-.79-.83,2.2,2.2,0,0,0-1.16-.3,2.23,2.23,0,0,0-1.16.3,2,2,0,0,0-.79.83,2.61,2.61,0,0,0-.29,1.24,2.64,2.64,0,0,0,.29,1.24,2.09,2.09,0,0,0,.79.85A2.14,2.14,0,0,0,206.58,625.73Z"/><path class="cls-2" d="M213.42,626.35a2.1,2.1,0,0,1-1-.22,1.64,1.64,0,0,1-.65-.57,2.27,2.27,0,0,1-.32-.75,3.47,3.47,0,0,1-.09-.75v-3.65H212v3.5a2.8,2.8,0,0,0,.14.88,1.42,1.42,0,0,0,.47.68,1.47,1.47,0,0,0,.91.26,1.57,1.57,0,0,0,1-.3,2.18,2.18,0,0,0,.65-.76,2.1,2.1,0,0,0,.23-.94l.42.17a2.67,2.67,0,0,1-.16.87,2.76,2.76,0,0,1-.47.79,2.4,2.4,0,0,1-.75.58A2.33,2.33,0,0,1,213.42,626.35Zm2-.1v-5.84h.68v5.84Z"/><path class="cls-2" d="M220.21,626.36a4.08,4.08,0,0,1-1-.11,2.57,2.57,0,0,1-.75-.32,1.57,1.57,0,0,1-.48-.52,1.35,1.35,0,0,1-.18-.7.34.34,0,0,1,0-.1v-.09h.69v.16a.91.91,0,0,0,.46.78,2.34,2.34,0,0,0,1.25.28,3.31,3.31,0,0,0,.88-.11,1.43,1.43,0,0,0,.61-.34.76.76,0,0,0,.22-.54.8.8,0,0,0-.46-.76,5.21,5.21,0,0,0-1.35-.38,6.41,6.41,0,0,1-.86-.2,3,3,0,0,1-.7-.32,1.32,1.32,0,0,1-.47-.47,1.26,1.26,0,0,1-.17-.69,1.31,1.31,0,0,1,.3-.87,1.94,1.94,0,0,1,.83-.54,3.55,3.55,0,0,1,2.29,0,1.91,1.91,0,0,1,.83.56,1.44,1.44,0,0,1,.32.95v.12h-.69v-.1a.89.89,0,0,0-.22-.64,1.4,1.4,0,0,0-.59-.36,2.76,2.76,0,0,0-.77-.11,2.9,2.9,0,0,0-.79.1,1.32,1.32,0,0,0-.6.31.71.71,0,0,0-.24.56.77.77,0,0,0,.22.56,1.73,1.73,0,0,0,.62.34c.27.08.58.16.94.23a7,7,0,0,1,.9.21,2.65,2.65,0,0,1,.7.31,1.29,1.29,0,0,1,.46.47,1.36,1.36,0,0,1,.17.69,1.39,1.39,0,0,1-.18.71,1.77,1.77,0,0,1-.51.51,2.54,2.54,0,0,1-.77.31A4,4,0,0,1,220.21,626.36Z"/><path class="cls-2" d="M224.56,623.62V623h4.73l-.13.19v-.11a2.39,2.39,0,0,0-.24-1.06,1.91,1.91,0,0,0-.7-.79,2,2,0,0,0-1.12-.29,2.28,2.28,0,0,0-1.18.3,2.09,2.09,0,0,0-.8.84,2.65,2.65,0,0,0-.29,1.25,2.72,2.72,0,0,0,.29,1.26,2.07,2.07,0,0,0,.79.84,2.32,2.32,0,0,0,1.2.3,2.84,2.84,0,0,0,.87-.13,1.85,1.85,0,0,0,.61-.32,1.54,1.54,0,0,0,.38-.44,1.3,1.3,0,0,0,.15-.43h.68a1.69,1.69,0,0,1-.21.66,2.19,2.19,0,0,1-.52.63,2.64,2.64,0,0,1-.84.48,3.62,3.62,0,0,1-1.15.17,3,3,0,0,1-1.5-.38,2.72,2.72,0,0,1-1-1.07,3.06,3.06,0,0,1-.38-1.56,3.2,3.2,0,0,1,.38-1.57,2.72,2.72,0,0,1,1-1.06,2.89,2.89,0,0,1,1.5-.39,2.72,2.72,0,0,1,1.48.39,2.61,2.61,0,0,1,1,1.06,3.22,3.22,0,0,1,.34,1.5v.18a.67.67,0,0,1,0,.16Z"/><path class="cls-2" d="M237.35,626.35a2.91,2.91,0,0,1-1.52-.39,2.77,2.77,0,0,1-1-1.08,3.32,3.32,0,0,1-.37-1.55,3.26,3.26,0,0,1,.37-1.55,2.79,2.79,0,0,1,1-1.06,2.91,2.91,0,0,1,1.52-.38,3,3,0,0,1,1.52.38,2.76,2.76,0,0,1,1,1.06,3.14,3.14,0,0,1,.37,1.55,3.2,3.2,0,0,1-.37,1.55,2.75,2.75,0,0,1-1,1.08A3,3,0,0,1,237.35,626.35Zm0-.62a2.14,2.14,0,0,0,1.16-.31,2.09,2.09,0,0,0,.79-.85,2.64,2.64,0,0,0,.29-1.24,2.61,2.61,0,0,0-.29-1.24,2,2,0,0,0-.79-.83,2.23,2.23,0,0,0-1.16-.3,2.2,2.2,0,0,0-1.16.3,2.06,2.06,0,0,0-.8.83,2.61,2.61,0,0,0-.28,1.24,2.63,2.63,0,0,0,.28,1.24,2.16,2.16,0,0,0,2,1.16Z"/><path class="cls-2" d="M246.3,620.41l-2,5.84h-.87l-2.06-5.84h.7l1.85,5.44h-.11l1.81-5.44Z"/><path class="cls-2" d="M247.66,623.62V623h4.73l-.13.19v-.11A2.39,2.39,0,0,0,252,622a1.91,1.91,0,0,0-.7-.79,2,2,0,0,0-1.12-.29,2.28,2.28,0,0,0-1.18.3,2.09,2.09,0,0,0-.8.84,2.65,2.65,0,0,0-.29,1.25,2.72,2.72,0,0,0,.29,1.26,2.07,2.07,0,0,0,.79.84,2.32,2.32,0,0,0,1.2.3,2.84,2.84,0,0,0,.87-.13,2,2,0,0,0,.61-.32,1.54,1.54,0,0,0,.38-.44,1.3,1.3,0,0,0,.15-.43h.67a1.52,1.52,0,0,1-.2.66,2.19,2.19,0,0,1-.52.63,2.64,2.64,0,0,1-.84.48,3.62,3.62,0,0,1-1.15.17,3,3,0,0,1-1.5-.38,2.72,2.72,0,0,1-1-1.07,3.06,3.06,0,0,1-.38-1.56,3.1,3.1,0,0,1,.38-1.57,2.72,2.72,0,0,1,1-1.06,2.89,2.89,0,0,1,1.5-.39,2.72,2.72,0,0,1,1.48.39,2.61,2.61,0,0,1,1,1.06,3.22,3.22,0,0,1,.34,1.5v.18a.67.67,0,0,1,0,.16Z"/><path class="cls-2" d="M254.81,626.25v-5.84h.69v1.72l-.25-.07a2.23,2.23,0,0,1,.17-.58,1.78,1.78,0,0,1,.36-.56,1.6,1.6,0,0,1,.58-.43,1.92,1.92,0,0,1,.83-.16,2.21,2.21,0,0,1,.57.06l.27.09-.19.66-.23-.1a1.5,1.5,0,0,0-.49-.06,1.54,1.54,0,0,0-.77.18,1.41,1.41,0,0,0-.5.47,1.75,1.75,0,0,0-.27.61,2.23,2.23,0,0,0-.08.61v3.4Z"/><path class="cls-2" d="M264.39,626.34a1.91,1.91,0,0,1-.48-.06,1,1,0,0,1-.42-.22,1.05,1.05,0,0,1-.29-.43,2,2,0,0,1-.1-.7V621h-1.41v-.6h1.24a.22.22,0,0,0,.12,0,.39.39,0,0,0,0-.14c0-.06,0-.15,0-.26v-1.42h.68v1.88h1.87v.6h-1.87v3.68a1.65,1.65,0,0,0,.15.77.55.55,0,0,0,.55.28l.3,0a.64.64,0,0,0,.23-.06v.6a1.26,1.26,0,0,1-.26.06A2,2,0,0,1,264.39,626.34Z"/><path class="cls-2" d="M267.16,626.25v-8.59h.68v8.59Zm4.21,0v-3.42a2.1,2.1,0,0,0-.4-1.38,1.5,1.5,0,0,0-1.22-.48,2.13,2.13,0,0,0-1,.23,1.82,1.82,0,0,0-.67.62,1.53,1.53,0,0,0-.25.84l-.45-.13a2,2,0,0,1,.32-1.09,2.32,2.32,0,0,1,.87-.8,2.58,2.58,0,0,1,1.28-.31,2.07,2.07,0,0,1,1.62.63,2.53,2.53,0,0,1,.57,1.75v3.54Z"/><path class="cls-2" d="M274.22,623.62V623H279l-.13.19v-.11a2.27,2.27,0,0,0-.25-1.06,1.91,1.91,0,0,0-.7-.79,2,2,0,0,0-1.12-.29,2.3,2.3,0,0,0-1.18.3,2.16,2.16,0,0,0-.8.84,2.65,2.65,0,0,0-.28,1.25,2.72,2.72,0,0,0,.28,1.26,2.09,2.09,0,0,0,.8.84,2.31,2.31,0,0,0,1.19.3,2.84,2.84,0,0,0,.87-.13,2,2,0,0,0,.62-.32,1.5,1.5,0,0,0,.37-.44,1,1,0,0,0,.15-.43h.68a1.42,1.42,0,0,1-.21.66,2,2,0,0,1-.52.63,2.53,2.53,0,0,1-.84.48,3.6,3.6,0,0,1-1.14.17,3,3,0,0,1-1.51-.38,2.79,2.79,0,0,1-1-1.07,3.16,3.16,0,0,1-.38-1.56,3.2,3.2,0,0,1,.38-1.57,2.79,2.79,0,0,1,1-1.06,2.89,2.89,0,0,1,1.5-.39,2.78,2.78,0,0,1,1.49.39,2.61,2.61,0,0,1,1,1.06,3.34,3.34,0,0,1,.34,1.5,1.21,1.21,0,0,1,0,.18v.16Z"/><path class="cls-2" d="M284.34,628.66v-8.25H285v8.25Zm2.69-2.3a2.45,2.45,0,0,1-1.24-.33,2.5,2.5,0,0,1-.92-.88,2.31,2.31,0,0,1-.35-1.25v0h.5v0a1.64,1.64,0,0,0,.27.91,2.07,2.07,0,0,0,.71.67,1.92,1.92,0,0,0,.95.24,1.79,1.79,0,0,0,1.39-.6,3.16,3.16,0,0,0,0-3.56A1.79,1.79,0,0,0,287,621a1.82,1.82,0,0,0-.95.25,2,2,0,0,0-.71.66,1.62,1.62,0,0,0-.27.91h-.5a2.31,2.31,0,0,1,.35-1.25,2.57,2.57,0,0,1,2.16-1.18,2.45,2.45,0,0,1,1.29.35,2.41,2.41,0,0,1,.92,1,3.54,3.54,0,0,1,.35,1.63,3.73,3.73,0,0,1-.34,1.65,2.44,2.44,0,0,1-.92,1A2.51,2.51,0,0,1,287,626.36Z"/><path class="cls-2" d="M291.41,626.25v-5.84h.68v1.72l-.24-.07a2.19,2.19,0,0,1,.16-.58,2.23,2.23,0,0,1,.36-.56,1.79,1.79,0,0,1,.58-.43,2,2,0,0,1,.84-.16,2.12,2.12,0,0,1,.56.06,1.28,1.28,0,0,1,.27.09l-.18.66-.23-.1a1.54,1.54,0,0,0-.49-.06,1.49,1.49,0,0,0-.77.18,1.54,1.54,0,0,0-.51.47,1.94,1.94,0,0,0-.26.61,2.25,2.25,0,0,0-.09.61v3.4Z"/><path class="cls-2" d="M298.51,626.35A2.94,2.94,0,0,1,297,626a2.77,2.77,0,0,1-1-1.08,3.32,3.32,0,0,1-.37-1.55,3.26,3.26,0,0,1,.37-1.55,2.79,2.79,0,0,1,1-1.06,2.93,2.93,0,0,1,1.52-.38,2.9,2.9,0,0,1,1.51.38,2.79,2.79,0,0,1,1,1.06,3.14,3.14,0,0,1,.37,1.55,3.2,3.2,0,0,1-.37,1.55,2.77,2.77,0,0,1-1,1.08A2.9,2.9,0,0,1,298.51,626.35Zm0-.62a2.14,2.14,0,0,0,1.16-.31,2.09,2.09,0,0,0,.79-.85,2.64,2.64,0,0,0,.29-1.24,2.61,2.61,0,0,0-.29-1.24,2,2,0,0,0-.79-.83,2.23,2.23,0,0,0-1.16-.3,2.2,2.2,0,0,0-1.16.3,2.06,2.06,0,0,0-.8.83,2.61,2.61,0,0,0-.28,1.24,2.63,2.63,0,0,0,.28,1.24,2.16,2.16,0,0,0,2,1.16Z"/><path class="cls-2" d="M303.26,626.25v-8.59H304v8.59Zm2.69.11a2.45,2.45,0,0,1-1.24-.33,2.5,2.5,0,0,1-.92-.88,2.31,2.31,0,0,1-.35-1.25v0H304v0a1.63,1.63,0,0,0,.26.91,2.07,2.07,0,0,0,.71.67,1.92,1.92,0,0,0,.95.24,1.81,1.81,0,0,0,1.39-.6,2.58,2.58,0,0,0,.55-1.78,2.53,2.53,0,0,0-.55-1.78,1.79,1.79,0,0,0-1.39-.6,1.82,1.82,0,0,0-.95.25,2,2,0,0,0-.71.66,1.61,1.61,0,0,0-.26.91h-.51a2.31,2.31,0,0,1,.35-1.25,2.57,2.57,0,0,1,2.16-1.18,2.45,2.45,0,0,1,1.29.35,2.35,2.35,0,0,1,.92,1,3.54,3.54,0,0,1,.35,1.63,3.73,3.73,0,0,1-.34,1.65,2.44,2.44,0,0,1-.92,1A2.48,2.48,0,0,1,306,626.36Z"/><path class="cls-2" d="M311.08,617.66v8.59h-.67v-8.59Z"/><path class="cls-2" d="M313.34,623.62V623h4.73l-.13.19v-.11a2.39,2.39,0,0,0-.24-1.06,2,2,0,0,0-.71-.79,2,2,0,0,0-1.11-.29,2.31,2.31,0,0,0-1.19.3,2.16,2.16,0,0,0-.8.84,2.65,2.65,0,0,0-.28,1.25,2.72,2.72,0,0,0,.28,1.26,2.09,2.09,0,0,0,.8.84,2.31,2.31,0,0,0,1.19.3,2.8,2.8,0,0,0,.87-.13,1.9,1.9,0,0,0,.62-.32,1.5,1.5,0,0,0,.37-.44,1,1,0,0,0,.15-.43h.68a1.42,1.42,0,0,1-.21.66,2,2,0,0,1-.52.63,2.48,2.48,0,0,1-.83.48,3.71,3.71,0,0,1-1.15.17,3,3,0,0,1-1.51-.38,2.79,2.79,0,0,1-1-1.07,3.16,3.16,0,0,1-.38-1.56,3.2,3.2,0,0,1,.38-1.57,2.79,2.79,0,0,1,1-1.06,2.89,2.89,0,0,1,1.5-.39,2.76,2.76,0,0,1,1.49.39,2.61,2.61,0,0,1,1,1.06,3.34,3.34,0,0,1,.34,1.5v.18a1.1,1.1,0,0,0,0,.16Z"/><path class="cls-2" d="M320.49,626.25v-5.84h.68v5.84Zm3.57,0v-3.71a4.4,4.4,0,0,0,0-.48,1.5,1.5,0,0,0-.15-.51.92.92,0,0,0-.37-.41,1.27,1.27,0,0,0-.7-.17,1.46,1.46,0,0,0-.78.19,1.41,1.41,0,0,0-.5.47,2.09,2.09,0,0,0-.28.63,2.78,2.78,0,0,0-.08.62l-.41-.16a2.62,2.62,0,0,1,.27-1.18,2.11,2.11,0,0,1,.75-.87,1.94,1.94,0,0,1,1.16-.34,1.91,1.91,0,0,1,1,.26,1.52,1.52,0,0,1,.58.71,3,3,0,0,1,.18,1.08v3.87Zm3.57,0v-3.74a4.23,4.23,0,0,0,0-.47,1.52,1.52,0,0,0-.15-.5.89.89,0,0,0-.37-.4,1.38,1.38,0,0,0-.73-.17,1.43,1.43,0,0,0-1.28.65,2,2,0,0,0-.26.59,3.15,3.15,0,0,0-.07.57l-.41-.15a2.51,2.51,0,0,1,.26-1.11,2.17,2.17,0,0,1,.73-.86,2,2,0,0,1,1.16-.33,2.07,2.07,0,0,1,1,.23,1.55,1.55,0,0,1,.61.66,2.37,2.37,0,0,1,.21,1v4Z"/><path class="cls-2" d="M332.46,626.36a4.08,4.08,0,0,1-1-.11,2.57,2.57,0,0,1-.75-.32,1.57,1.57,0,0,1-.48-.52,1.35,1.35,0,0,1-.18-.7.34.34,0,0,1,0-.1v-.09h.69v.16a.91.91,0,0,0,.46.78,2.32,2.32,0,0,0,1.24.28,3.33,3.33,0,0,0,.89-.11,1.34,1.34,0,0,0,.6-.34.73.73,0,0,0,.23-.54.8.8,0,0,0-.46-.76,5.21,5.21,0,0,0-1.35-.38,7,7,0,0,1-.87-.2,3.14,3.14,0,0,1-.69-.32,1.32,1.32,0,0,1-.47-.47,1.26,1.26,0,0,1-.17-.69,1.31,1.31,0,0,1,.3-.87,1.88,1.88,0,0,1,.83-.54,3.55,3.55,0,0,1,2.29,0,1.91,1.91,0,0,1,.83.56,1.44,1.44,0,0,1,.32.95v.12h-.69v-.1a.89.89,0,0,0-.22-.64,1.4,1.4,0,0,0-.59-.36,2.77,2.77,0,0,0-.78-.11,2.88,2.88,0,0,0-.78.1,1.32,1.32,0,0,0-.6.31.71.71,0,0,0-.24.56.77.77,0,0,0,.22.56,1.73,1.73,0,0,0,.62.34c.27.08.58.16.94.23a6.85,6.85,0,0,1,.89.21,2.58,2.58,0,0,1,.71.31,1.29,1.29,0,0,1,.46.47,1.36,1.36,0,0,1,.17.69,1.3,1.3,0,0,1-.19.71,1.62,1.62,0,0,1-.5.51,2.54,2.54,0,0,1-.77.31A4,4,0,0,1,332.46,626.36Z"/><path class="cls-2" d="M139.93,639.54a2,2,0,0,1-.48-.06,1,1,0,0,1-.42-.22,1,1,0,0,1-.29-.43,2,2,0,0,1-.1-.7v-3.92h-1.41v-.6h1.24a.22.22,0,0,0,.12-.05.26.26,0,0,0,0-.14,1.86,1.86,0,0,0,0-.26v-1.42h.68v1.88h1.87v.6h-1.87v3.68a1.62,1.62,0,0,0,.15.77.55.55,0,0,0,.55.28l.3,0a.58.58,0,0,0,.23-.06v.6a1.12,1.12,0,0,1-.26.06A2,2,0,0,1,139.93,639.54Z"/><path class="cls-2" d="M145.17,639.55a2.9,2.9,0,0,1-1.51-.39,2.77,2.77,0,0,1-1-1.08,3.2,3.2,0,0,1-.37-1.55,3.14,3.14,0,0,1,.37-1.55,2.79,2.79,0,0,1,1-1.06,3.21,3.21,0,0,1,3,0,2.79,2.79,0,0,1,1,1.06,3.26,3.26,0,0,1,.37,1.55,3.32,3.32,0,0,1-.37,1.55,2.77,2.77,0,0,1-1,1.08A2.91,2.91,0,0,1,145.17,639.55Zm0-.62a2.13,2.13,0,0,0,2-1.16,2.63,2.63,0,0,0,.28-1.24,2.61,2.61,0,0,0-.28-1.24,2.11,2.11,0,0,0-.79-.83,2.41,2.41,0,0,0-2.33,0,2.11,2.11,0,0,0-.79.83,2.61,2.61,0,0,0-.29,1.24,2.64,2.64,0,0,0,.29,1.24,2.13,2.13,0,0,0,1.95,1.16Z"/><path class="cls-2" d="M152.9,639.45v-5.84h.68v1.72l-.24-.07a1.87,1.87,0,0,1,.16-.58,1.78,1.78,0,0,1,.36-.56,1.69,1.69,0,0,1,.58-.43,1.92,1.92,0,0,1,.83-.16,2.21,2.21,0,0,1,.57.06l.27.09-.19.66-.23-.1a1.52,1.52,0,0,0-.48,0,1.55,1.55,0,0,0-.78.17,1.41,1.41,0,0,0-.5.47,1.75,1.75,0,0,0-.27.61,2.23,2.23,0,0,0-.08.61v3.4Z"/><path class="cls-2" d="M157.46,636.82v-.61h4.73l-.13.19v-.11a2.39,2.39,0,0,0-.24-1.06,2,2,0,0,0-.71-.79,2,2,0,0,0-1.11-.29,2.31,2.31,0,0,0-1.19.3,2.13,2.13,0,0,0-.79.84,2.54,2.54,0,0,0-.29,1.25,2.69,2.69,0,0,0,.28,1.26,2.09,2.09,0,0,0,.8.84,2.31,2.31,0,0,0,1.19.3,2.53,2.53,0,0,0,.87-.13,1.9,1.9,0,0,0,.62-.32,1.5,1.5,0,0,0,.37-.44,1,1,0,0,0,.15-.43h.68a1.42,1.42,0,0,1-.21.66,2,2,0,0,1-.52.63,2.48,2.48,0,0,1-.83.48,3.71,3.71,0,0,1-1.15.17,2.9,2.9,0,0,1-1.51-.38,2.79,2.79,0,0,1-1-1.07,3.16,3.16,0,0,1-.38-1.56,3.2,3.2,0,0,1,.38-1.57,2.79,2.79,0,0,1,1-1.06,2.89,2.89,0,0,1,1.5-.39,2.76,2.76,0,0,1,1.49.39,2.61,2.61,0,0,1,1,1.06,3.22,3.22,0,0,1,.34,1.5v.18a1.1,1.1,0,0,0,0,.16Z"/><path class="cls-2" d="M166.62,639.56a3,3,0,0,1-1.17-.21,1.63,1.63,0,0,1-.78-.59,1.59,1.59,0,0,1-.27-.93,1.49,1.49,0,0,1,.29-.93,1.84,1.84,0,0,1,.81-.58,4.88,4.88,0,0,1,1.26-.28,13.5,13.5,0,0,0,1.6-.24c.33-.07.49-.2.49-.38v-.07a1,1,0,0,0-.46-.88,2.34,2.34,0,0,0-1.32-.32,2.39,2.39,0,0,0-1.38.35,1.2,1.2,0,0,0-.5,1h-.67a1.82,1.82,0,0,1,.32-1.09,2,2,0,0,1,.89-.69,3.87,3.87,0,0,1,2.6,0,2.14,2.14,0,0,1,.88.63,1.55,1.55,0,0,1,.33,1v3c0,.12,0,.24,0,.36s0,.21,0,.29a1.35,1.35,0,0,0,.11.26.46.46,0,0,0,.09.12h-.69s0-.05-.07-.11a1.6,1.6,0,0,1-.1-.23,1.42,1.42,0,0,1-.06-.31c0-.11,0-.25,0-.41l.11.08a1.72,1.72,0,0,1-.51.57,2.58,2.58,0,0,1-.8.38A3.74,3.74,0,0,1,166.62,639.56Zm.1-.61a2.85,2.85,0,0,0,1.08-.2,1.74,1.74,0,0,0,.76-.56,1.34,1.34,0,0,0,.29-.89v-1.36l.15.25a3.24,3.24,0,0,1-.87.26c-.37.06-.76.11-1.19.15a3.71,3.71,0,0,0-1.38.35.89.89,0,0,0-.47.84,1,1,0,0,0,.41.86A2.07,2.07,0,0,0,166.72,639Z"/><path class="cls-2" d="M173.77,639.56a2.47,2.47,0,0,1-1.29-.35,2.44,2.44,0,0,1-.92-1,3.6,3.6,0,0,1-.34-1.65,3.67,3.67,0,0,1,.34-1.63,2.43,2.43,0,0,1,2.21-1.37,2.57,2.57,0,0,1,2.17,1.18,2.31,2.31,0,0,1,.35,1.25V636h-.5V636a1.62,1.62,0,0,0-.27-.91,2,2,0,0,0-.71-.66,1.85,1.85,0,0,0-.95-.25,1.79,1.79,0,0,0-1.39.6,3.16,3.16,0,0,0,0,3.56,1.79,1.79,0,0,0,1.39.6,1.95,1.95,0,0,0,1.66-.92,1.73,1.73,0,0,0,.27-1l.5,0a2.49,2.49,0,0,1-.34,1.27,2.53,2.53,0,0,1-.91.9A2.48,2.48,0,0,1,173.77,639.56Zm2-.11v-8.59h.68v8.59Z"/><path class="cls-2" d="M183.6,639.56a4.11,4.11,0,0,1-1-.11,2.4,2.4,0,0,1-.74-.32,1.61,1.61,0,0,1-.49-.52,1.35,1.35,0,0,1-.18-.7s0-.07,0-.1v-.09h.69v.16a.9.9,0,0,0,.47.78,2.3,2.3,0,0,0,1.24.28,3.44,3.44,0,0,0,.89-.11,1.45,1.45,0,0,0,.6-.34.76.76,0,0,0,.22-.54.8.8,0,0,0-.46-.76,5.21,5.21,0,0,0-1.35-.38,6.41,6.41,0,0,1-.86-.2,3,3,0,0,1-.7-.32,1.32,1.32,0,0,1-.47-.47,1.42,1.42,0,0,1,.14-1.56,1.84,1.84,0,0,1,.82-.54,3.27,3.27,0,0,1,1.15-.19,3.21,3.21,0,0,1,1.14.19,1.85,1.85,0,0,1,.83.56,1.44,1.44,0,0,1,.32,1v.12h-.68v-.1a.9.9,0,0,0-.23-.64,1.4,1.4,0,0,0-.59-.36,2.76,2.76,0,0,0-.77-.11,2.88,2.88,0,0,0-.78.1,1.46,1.46,0,0,0-.61.31.71.71,0,0,0-.24.56.77.77,0,0,0,.22.56,1.7,1.7,0,0,0,.63.34c.26.08.58.16.93.23a6.64,6.64,0,0,1,.9.21,2.65,2.65,0,0,1,.7.31,1.29,1.29,0,0,1,.46.47,1.36,1.36,0,0,1,.17.69,1.39,1.39,0,0,1-.18.71,1.55,1.55,0,0,1-.51.51,2.48,2.48,0,0,1-.76.31A4,4,0,0,1,183.6,639.56Z"/><path class="cls-2" d="M190.48,639.55a2.91,2.91,0,0,1-1.52-.39,2.77,2.77,0,0,1-1-1.08,3.2,3.2,0,0,1-.37-1.55,3.14,3.14,0,0,1,.37-1.55,2.79,2.79,0,0,1,1-1.06,3.21,3.21,0,0,1,3,0,2.79,2.79,0,0,1,1,1.06,3.14,3.14,0,0,1,.37,1.55,3.2,3.2,0,0,1-.37,1.55,2.77,2.77,0,0,1-1,1.08A2.9,2.9,0,0,1,190.48,639.55Zm0-.62a2.14,2.14,0,0,0,1.16-.31,2.09,2.09,0,0,0,.79-.85,2.63,2.63,0,0,0,.28-1.24,2.61,2.61,0,0,0-.28-1.24,2,2,0,0,0-.79-.83,2.23,2.23,0,0,0-1.16-.3,2.2,2.2,0,0,0-1.16.3,2.06,2.06,0,0,0-.8.83,2.61,2.61,0,0,0-.28,1.24,2.63,2.63,0,0,0,.28,1.24,2.16,2.16,0,0,0,2,1.16Z"/><path class="cls-2" d="M195.23,639.45v-5.84h.68v5.84Zm3.57,0v-3.71a4.4,4.4,0,0,0,0-.48,1.5,1.5,0,0,0-.15-.51.92.92,0,0,0-.37-.41,1.27,1.27,0,0,0-.7-.17,1.46,1.46,0,0,0-.78.19,1.41,1.41,0,0,0-.5.47,2.09,2.09,0,0,0-.28.63,2.78,2.78,0,0,0-.08.62l-.41-.16a2.62,2.62,0,0,1,.27-1.18,2.11,2.11,0,0,1,.75-.87,2.18,2.18,0,0,1,2.2-.08,1.52,1.52,0,0,1,.58.71,3,3,0,0,1,.18,1.08v3.87Zm3.57,0v-3.74a4.23,4.23,0,0,0,0-.47,1.52,1.52,0,0,0-.15-.5.86.86,0,0,0-.38-.4,1.32,1.32,0,0,0-.72-.17,1.43,1.43,0,0,0-1.28.65,2,2,0,0,0-.26.59,2.46,2.46,0,0,0-.07.57l-.41-.15a2.51,2.51,0,0,1,.26-1.11,2.17,2.17,0,0,1,.73-.86,2,2,0,0,1,1.16-.33,2.07,2.07,0,0,1,1,.23,1.55,1.55,0,0,1,.61.66,2.4,2.4,0,0,1,.2,1.05v4Z"/><path class="cls-2" d="M205.22,636.82v-.61H210l-.14.19v-.11a2.39,2.39,0,0,0-.24-1.06,1.91,1.91,0,0,0-.7-.79,2,2,0,0,0-1.12-.29,2.28,2.28,0,0,0-1.18.3,2.15,2.15,0,0,0-.8.84,2.65,2.65,0,0,0-.28,1.25,2.69,2.69,0,0,0,.28,1.26,2.07,2.07,0,0,0,.79.84,2.32,2.32,0,0,0,1.2.3,2.57,2.57,0,0,0,.87-.13,2,2,0,0,0,.62-.32,1.67,1.67,0,0,0,.37-.44,1,1,0,0,0,.15-.43h.68a1.69,1.69,0,0,1-.21.66,2.19,2.19,0,0,1-.52.63,2.64,2.64,0,0,1-.84.48,3.6,3.6,0,0,1-1.14.17,2.9,2.9,0,0,1-1.51-.38,2.72,2.72,0,0,1-1-1.07,3.16,3.16,0,0,1-.38-1.56,3.2,3.2,0,0,1,.38-1.57,2.72,2.72,0,0,1,1-1.06,2.89,2.89,0,0,1,1.5-.39,2.78,2.78,0,0,1,1.49.39,2.59,2.59,0,0,1,1,1.06,3.22,3.22,0,0,1,.35,1.5s0,.11,0,.18a.67.67,0,0,1,0,.16Z"/><path class="cls-2" d="M218.92,639.21a2.63,2.63,0,0,1,.79.16,1.26,1.26,0,0,1,.55.38,1,1,0,0,1,.19.65,1.18,1.18,0,0,1-.3.79,2,2,0,0,1-.93.54,5.16,5.16,0,0,1-1.6.2,4,4,0,0,1-2-.4,1.23,1.23,0,0,1-.67-1.08,1.14,1.14,0,0,1,.06-.39.88.88,0,0,1,.11-.27l.65.1a1,1,0,0,0-.09.2,1,1,0,0,0,0,.32.76.76,0,0,0,.53.73,4,4,0,0,0,1.52.23,5.15,5.15,0,0,0,1.23-.12,1.59,1.59,0,0,0,.69-.34.64.64,0,0,0,.23-.47.5.5,0,0,0-.32-.52,2.9,2.9,0,0,0-.8-.16l-2.23-.16a1.62,1.62,0,0,1-.87-.31.85.85,0,0,1-.33-.68.93.93,0,0,1,.12-.46,1.76,1.76,0,0,1,.29-.36,1,1,0,0,1,.3-.17l.55.26a1,1,0,0,0-.36.2.5.5,0,0,0-.22.42.44.44,0,0,0,.19.36,1.29,1.29,0,0,0,.67.18Zm.86-5.6h.64l-.24,2.32a2.73,2.73,0,0,1-.37,1.17,2.12,2.12,0,0,1-.84.84,2.58,2.58,0,0,1-1.32.31,2.81,2.81,0,0,1-1.38-.31,2.11,2.11,0,0,1-.86-.84,2.39,2.39,0,0,1-.3-1.19,2.33,2.33,0,0,1,.31-1.2,2.37,2.37,0,0,1,.89-.86,2.65,2.65,0,0,1,1.31-.32,2.54,2.54,0,0,1,1.18.25,2.21,2.21,0,0,1,.78.61,1.36,1.36,0,0,1,.32.71h-.25Zm-2.13,4a2.25,2.25,0,0,0,1-.21,1.57,1.57,0,0,0,.64-.61,1.85,1.85,0,0,0,.22-.93,1.83,1.83,0,0,0-.22-.91,1.57,1.57,0,0,0-.64-.61,2.08,2.08,0,0,0-1-.23,2.06,2.06,0,0,0-1,.23,1.77,1.77,0,0,0-.67.63,1.74,1.74,0,0,0-.23.91,1.83,1.83,0,0,0,.22.91,1.57,1.57,0,0,0,.64.61A2.25,2.25,0,0,0,217.65,637.64Z"/><path class="cls-2" d="M224.62,639.55a2.91,2.91,0,0,1-1.52-.39,2.77,2.77,0,0,1-1-1.08,3.2,3.2,0,0,1-.37-1.55,3.14,3.14,0,0,1,.37-1.55,2.79,2.79,0,0,1,1-1.06,3.21,3.21,0,0,1,3,0,2.79,2.79,0,0,1,1,1.06,3.14,3.14,0,0,1,.37,1.55,3.2,3.2,0,0,1-.37,1.55,2.77,2.77,0,0,1-1,1.08A2.9,2.9,0,0,1,224.62,639.55Zm0-.62a2.13,2.13,0,0,0,1.95-1.16,2.63,2.63,0,0,0,.28-1.24,2.61,2.61,0,0,0-.28-1.24,2.11,2.11,0,0,0-.79-.83,2.23,2.23,0,0,0-1.16-.3,2.26,2.26,0,0,0-1.17.3,2.11,2.11,0,0,0-.79.83,2.61,2.61,0,0,0-.28,1.24,2.63,2.63,0,0,0,.28,1.24,2.13,2.13,0,0,0,2,1.16Z"/><path class="cls-2" d="M232,639.55a2.94,2.94,0,0,1-1.52-.39,2.75,2.75,0,0,1-1-1.08,3.2,3.2,0,0,1-.38-1.55,3.15,3.15,0,0,1,.38-1.55,2.76,2.76,0,0,1,1-1.06,3.23,3.23,0,0,1,3,0,2.76,2.76,0,0,1,1,1.06,3.14,3.14,0,0,1,.37,1.55,3.2,3.2,0,0,1-.37,1.55,2.75,2.75,0,0,1-1,1.08A2.94,2.94,0,0,1,232,639.55Zm0-.62a2.12,2.12,0,0,0,1.16-.31,2.09,2.09,0,0,0,.79-.85,2.64,2.64,0,0,0,.29-1.24,2.61,2.61,0,0,0-.29-1.24,2,2,0,0,0-.79-.83,2.2,2.2,0,0,0-1.16-.3,2.23,2.23,0,0,0-1.16.3,2,2,0,0,0-.79.83,2.61,2.61,0,0,0-.29,1.24,2.64,2.64,0,0,0,.29,1.24,2.09,2.09,0,0,0,.79.85A2.14,2.14,0,0,0,232,638.93Z"/><path class="cls-2" d="M239.07,639.56a2.39,2.39,0,0,1-2.22-1.38,3.73,3.73,0,0,1-.33-1.65,3.54,3.54,0,0,1,.34-1.63,2.4,2.4,0,0,1,2.21-1.37,2.52,2.52,0,0,1,1.24.32,2.56,2.56,0,0,1,.93.86,2.3,2.3,0,0,1,.34,1.25V636h-.5V636a1.62,1.62,0,0,0-.27-.91,1.93,1.93,0,0,0-.7-.66,1.88,1.88,0,0,0-1-.25,1.82,1.82,0,0,0-1.4.6,3.2,3.2,0,0,0,0,3.56,1.82,1.82,0,0,0,1.4.6,1.89,1.89,0,0,0,1-.25,2,2,0,0,0,.7-.67,1.81,1.81,0,0,0,.26-1l.5,0a2.39,2.39,0,0,1-.34,1.27,2.53,2.53,0,0,1-.91.9A2.47,2.47,0,0,1,239.07,639.56Zm2-.11v-8.59h.68v8.59Z"/><path class="cls-2" d="M247.17,632.14a.57.57,0,0,1-.37-.12.41.41,0,0,1-.16-.34.41.41,0,0,1,.16-.33.57.57,0,0,1,.37-.12.58.58,0,0,1,.36.12.43.43,0,0,1,.15.33.43.43,0,0,1-.15.34A.58.58,0,0,1,247.17,632.14Zm-.35,7.31v-5.84h.67v5.84Z"/><path class="cls-2" d="M249.64,639.45v-5.84h.68v5.84Zm4.2,0v-3.64a2.09,2.09,0,0,0-.17-.86,1.32,1.32,0,0,0-.53-.57,1.82,1.82,0,0,0-.92-.21,1.91,1.91,0,0,0-.93.25,1.93,1.93,0,0,0-.7.66,1.69,1.69,0,0,0-.27.94l-.41-.15a2.16,2.16,0,0,1,.34-1.2,2.47,2.47,0,0,1,.9-.83,2.4,2.4,0,0,1,1.19-.31,2.44,2.44,0,0,1,1.15.25,1.82,1.82,0,0,1,.76.72,2.24,2.24,0,0,1,.27,1.14v3.81Z"/><path class="cls-2" d="M258.45,639.54a1.91,1.91,0,0,1-.48-.06,1,1,0,0,1-.42-.22,1,1,0,0,1-.29-.43,2,2,0,0,1-.1-.7v-3.92h-1.41v-.6H257a.22.22,0,0,0,.12-.05.39.39,0,0,0,0-.14c0-.06,0-.15,0-.26v-1.42h.68v1.88h1.87v.6h-1.87v3.68a1.62,1.62,0,0,0,.15.77.55.55,0,0,0,.55.28l.3,0a.58.58,0,0,0,.23-.06v.6a1.26,1.26,0,0,1-.26.06A2,2,0,0,1,258.45,639.54Z"/><path class="cls-2" d="M261.16,636.82v-.61h4.73l-.13.19v-.11a2.39,2.39,0,0,0-.24-1.06,2,2,0,0,0-.7-.79,2,2,0,0,0-1.12-.29,2.28,2.28,0,0,0-1.18.3,2.09,2.09,0,0,0-.8.84,2.65,2.65,0,0,0-.29,1.25,2.69,2.69,0,0,0,.29,1.26,2,2,0,0,0,.79.84,2.31,2.31,0,0,0,1.19.3,2.49,2.49,0,0,0,.87-.13,1.9,1.9,0,0,0,.62-.32,1.5,1.5,0,0,0,.37-.44,1.14,1.14,0,0,0,.16-.43h.67a1.52,1.52,0,0,1-.2.66,2.23,2.23,0,0,1-.53.63,2.48,2.48,0,0,1-.83.48,3.66,3.66,0,0,1-1.15.17,2.86,2.86,0,0,1-1.5-.38,2.74,2.74,0,0,1-1-1.07,3.16,3.16,0,0,1-.37-1.56,3.1,3.1,0,0,1,.38-1.57,2.72,2.72,0,0,1,1-1.06,2.89,2.89,0,0,1,1.5-.39,2.75,2.75,0,0,1,1.48.39,2.61,2.61,0,0,1,1,1.06,3.22,3.22,0,0,1,.34,1.5v.18c0,.07,0,.13,0,.16Z"/><path class="cls-2" d="M268.31,639.45v-5.84H269v5.84Zm4.2,0v-3.64a1.94,1.94,0,0,0-.17-.86,1.27,1.27,0,0,0-.53-.57,1.79,1.79,0,0,0-.92-.21,1.91,1.91,0,0,0-.93.25,1.93,1.93,0,0,0-.7.66,1.69,1.69,0,0,0-.27.94l-.41-.15a2.16,2.16,0,0,1,.35-1.2,2.4,2.4,0,0,1,.9-.83,2.37,2.37,0,0,1,1.18-.31,2.48,2.48,0,0,1,1.16.25,1.8,1.8,0,0,1,.75.72,2.24,2.24,0,0,1,.27,1.14v3.81Z"/><path class="cls-2" d="M277.12,639.54a2,2,0,0,1-.48-.06,1.06,1.06,0,0,1-.42-.22.9.9,0,0,1-.28-.43,1.94,1.94,0,0,1-.11-.7v-3.92h-1.41v-.6h1.24a.19.19,0,0,0,.12-.05.26.26,0,0,0,0-.14,1.86,1.86,0,0,0,0-.26v-1.42h.68v1.88h1.87v.6h-1.87v3.68a1.62,1.62,0,0,0,.15.77.56.56,0,0,0,.55.28l.3,0a.58.58,0,0,0,.23-.06v.6a1.12,1.12,0,0,1-.26.06A2,2,0,0,1,277.12,639.54Z"/><path class="cls-2" d="M280.29,632.14a.57.57,0,0,1-.37-.12.41.41,0,0,1-.16-.34.41.41,0,0,1,.16-.33.57.57,0,0,1,.37-.12.56.56,0,0,1,.36.12.43.43,0,0,1,.15.33.43.43,0,0,1-.15.34A.56.56,0,0,1,280.29,632.14Zm-.35,7.31v-5.84h.68v5.84Z"/><path class="cls-2" d="M285.42,639.55a2.94,2.94,0,0,1-1.52-.39,2.75,2.75,0,0,1-1-1.08,3.2,3.2,0,0,1-.37-1.55,3.14,3.14,0,0,1,.37-1.55,2.76,2.76,0,0,1,1-1.06,3.23,3.23,0,0,1,3,0,2.79,2.79,0,0,1,1,1.06,3.26,3.26,0,0,1,.37,1.55,3.32,3.32,0,0,1-.37,1.55,2.77,2.77,0,0,1-1,1.08A2.94,2.94,0,0,1,285.42,639.55Zm0-.62a2.18,2.18,0,0,0,1.17-.31,2.24,2.24,0,0,0,.79-.85,2.63,2.63,0,0,0,.28-1.24,2.61,2.61,0,0,0-.28-1.24,2.18,2.18,0,0,0-.79-.83,2.41,2.41,0,0,0-2.33,0,2,2,0,0,0-.79.83,2.61,2.61,0,0,0-.29,1.24,2.64,2.64,0,0,0,.29,1.24,2.09,2.09,0,0,0,.79.85A2.17,2.17,0,0,0,285.42,638.93Z"/><path class="cls-2" d="M290.17,639.45v-5.84h.69v5.84Zm4.21,0v-3.64a1.94,1.94,0,0,0-.18-.86,1.27,1.27,0,0,0-.53-.57,1.79,1.79,0,0,0-.92-.21,1.91,1.91,0,0,0-.93.25,1.93,1.93,0,0,0-.7.66,1.77,1.77,0,0,0-.26.94l-.42-.15a2.16,2.16,0,0,1,.35-1.2,2.47,2.47,0,0,1,.9-.83,2.38,2.38,0,0,1,1.19-.31,2.47,2.47,0,0,1,1.15.25,1.82,1.82,0,0,1,.76.72,2.34,2.34,0,0,1,.26,1.14v3.81Z"/><path class="cls-2" d="M299.21,639.56a4.11,4.11,0,0,1-1-.11,2.57,2.57,0,0,1-.75-.32,1.69,1.69,0,0,1-.48-.52,1.35,1.35,0,0,1-.18-.7s0-.07,0-.1v-.09h.69v.16a.9.9,0,0,0,.47.78,2.28,2.28,0,0,0,1.24.28,3.31,3.31,0,0,0,.88-.11,1.43,1.43,0,0,0,.61-.34.76.76,0,0,0,.22-.54.8.8,0,0,0-.46-.76,5.21,5.21,0,0,0-1.35-.38,6.41,6.41,0,0,1-.86-.2,3,3,0,0,1-.7-.32,1.32,1.32,0,0,1-.47-.47,1.42,1.42,0,0,1,.14-1.56,1.84,1.84,0,0,1,.82-.54,3.55,3.55,0,0,1,2.29,0,1.85,1.85,0,0,1,.83.56,1.44,1.44,0,0,1,.32,1v.12h-.68v-.1a.9.9,0,0,0-.23-.64,1.4,1.4,0,0,0-.59-.36,2.76,2.76,0,0,0-.77-.11,2.83,2.83,0,0,0-.78.1,1.46,1.46,0,0,0-.61.31.71.71,0,0,0-.24.56.77.77,0,0,0,.22.56,1.7,1.7,0,0,0,.63.34,9,9,0,0,0,.93.23,6.64,6.64,0,0,1,.9.21,2.65,2.65,0,0,1,.7.31,1.29,1.29,0,0,1,.46.47,1.36,1.36,0,0,1,.17.69,1.39,1.39,0,0,1-.18.71,1.55,1.55,0,0,1-.51.51,2.48,2.48,0,0,1-.76.31A4,4,0,0,1,299.21,639.56Z"/><path class="cls-2" d="M303.84,639.59a.5.5,0,0,1-.39-.16.51.51,0,0,1-.16-.39.53.53,0,0,1,.16-.39.5.5,0,0,1,.39-.16.53.53,0,0,1,.39.16.57.57,0,0,1,.16.39.55.55,0,0,1-.16.39A.53.53,0,0,1,303.84,639.59Z"/></g></g></svg>