<svg xmlns="http://www.w3.org/2000/svg" viewBox="0 0 440 672"><defs><style>.cls-1,.cls-3,.cls-7{fill:#fff;}.cls-1{opacity:0.05;}.cls-2,.cls-8{fill:none;stroke-miterlimit:10;}.cls-2{stroke:aqua;stroke-linecap:round;stroke-width:0.8px;stroke-dasharray:1.61 4.01;}.cls-4{fill:#ff52a1;}.cls-5{fill:#00e7ff;}.cls-6{fill:#1a171b;}.cls-7{font-size:8px;font-family:Epilogue-Regular, Epilogue;letter-spacing:0.1em;}.cls-8{stroke:#fff;stroke-width:0.5px;}.cls-9{fill:#e200ff;}</style></defs><g id="Layer_2" data-name="Layer 2"><g id="Layer_1-2" data-name="Layer 1"><rect class="cls-1" width="440" height="672" rx="22.03"/><polyline class="cls-2" points="89.86 402.27 204.37 402.27 236.83 423.82 232.07 402.27 321.95 402.27"/><path class="cls-3" d="M302.84,519a63.78,63.78,0,0,1-6.5,3c-3.59,1.42-9.73,3.92-16.22,4.19s-9.57-1.23-10.92-2.58a18.07,18.07,0,0,1-2.15-2.58s6.2-4.56,7.84-7.67,2.59-4.57,2.36-6.72.94-9.35.94-9.35l1.6-19.55s.54-9.75.33-11.73-1.06-6.18-1.06-6.18-.46-1.55-1.14-1.5-1.53.58-1.7,3-.49,15-.49,15-1.73-.93-2.54-.16-1.53,1.38-1.53,1.38-1.11-1.36-2.1-1.22a11.75,11.75,0,0,0-2.81,1.16,1.29,1.29,0,0,0-1.77-.06,6.23,6.23,0,0,0-2.15,3.25c-.62,1.91-1.3,3.72-.85,4.8a8.25,8.25,0,0,1,.49,2.41,24.71,24.71,0,0,0-.69,5,26.27,26.27,0,0,0,1.19,4.9l1.36,2.22v1.45l-2.56.82-10.07,8.11s-5.69,5.2-6.52,8.21a20.55,20.55,0,0,0-.36,9.53,17.37,17.37,0,0,0,1.16,3.36s6.52,18.49,60.28,25.12c33.64,4.15,43.17-6.63,43.17-6.63Z"/><polygon class="cls-3" points="326.83 508.98 335.75 500.06 343.65 485.96 341.05 479.61 338.37 468.31 331.01 467.13 320.38 463.35 312.82 463.5 300.72 466.74 290.46 467.78 288.85 476.75 286.66 482.52 287.28 489.69 293.61 498.17 298.81 505.76 306.74 511.99 306.26 516.7 301.26 520.1 299.58 533.34 308.56 540.38 318.46 540.38 349.43 550.03 345.09 526.24 340.27 522.58 332.33 518.93 327.84 514.23 325.95 512.08 326.83 508.98"/><path d="M305.7,517c2.24,3.09,2.08,7,2.23,10.61a56.94,56.94,0,0,0,1.85,12.18.65.65,0,0,0,1.24,0,43.55,43.55,0,0,1,4-8.26c1.52-2.29,3.38-4.23,4.07-7a9.11,9.11,0,0,1,1.74-4.19,21.86,21.86,0,0,1,3-2.5c1.81-1.42,3.54-3.35,3.29-5.81l-1.21.32a22.42,22.42,0,0,0,7.05,7.48,26,26,0,0,0,4.73,2.33,14.11,14.11,0,0,1,5.31,2.92c2.75,2.82,3.44,7.46,4.19,11.16A86.9,86.9,0,0,1,348.78,550c0,.82,1.32.83,1.29,0a87.73,87.73,0,0,0-1.59-13.61c-.73-3.75-1.44-8.07-3.78-11.21s-6.19-3.73-9.46-5.47a20.79,20.79,0,0,1-8.25-8c-.3-.52-1.27-.33-1.2.33.3,3-2.68,4.63-4.67,6.25a8.77,8.77,0,0,0-2.22,2.48,16.7,16.7,0,0,0-1.2,3.85c-.76,2.68-2.88,4.66-4.31,7a49.47,49.47,0,0,0-3.61,7.82H311a58.49,58.49,0,0,1-1.84-13c-.12-3.49-.24-7.15-2.37-10.08-.48-.66-1.6,0-1.11.65Z"/><path d="M326.47,512.35c.25-2.45,2.19-4.21,3.82-5.86s3-3,4.5-4.54a15.94,15.94,0,0,0,4.44-9.64c.07-.67-1-.67-1,0a14.47,14.47,0,0,1-1.73,5.78,21,21,0,0,1-3.48,4.22c-1.54,1.55-3.12,3.07-4.62,4.66a9.2,9.2,0,0,0-2.93,5.38c-.07.67,1,.67,1,0Z"/><path d="M297.25,521.91c3.21-1.53,7.41-2.18,9.26-5.59A5.21,5.21,0,0,0,307,512a6.77,6.77,0,0,0-2.8-2.86c-4.16-2.75-8.16-6.32-10-11.06-.25-.62-1.26-.35-1,.28,1.85,4.67,5.65,8.42,9.77,11.2,2,1.35,4,2.75,3.07,5.51-1.33,3.8-6,4.47-9.23,6-.61.29-.08,1.19.53.9Z"/><path class="cls-4" d="M286.52,463.42a2.59,2.59,0,0,0,.7,3.15,6,6,0,0,0,3.24,1.21c10.09,1.27,19.9-6.18,29.91-4.43,3.72.65,7.09,2.52,10.64,3.78s7.68,1.85,11,0c.89-.5,1.78-1.35,1.66-2.37a2.83,2.83,0,0,0-1.29-1.76c-2.73-2.05-6.08-3.06-9.35-4-7.78-2.29-15.7-4.61-23.81-4.46-7,.13-14.53,1.39-20,5.81a9.55,9.55,0,0,0-2.69,3.08"/><path d="M286.07,463.16a3.21,3.21,0,0,0,1.09,4c1.45,1.1,3.53,1.23,5.29,1.26,4.22.09,8.34-1.12,12.35-2.32s8.42-2.6,12.81-2.51c4.85.1,9,2.55,13.46,4.09,3.59,1.23,8.28,1.95,11.61-.39,1.22-.85,2-2.28,1.06-3.64-1.06-1.59-3.32-2.57-5-3.29a94.5,94.5,0,0,0-13.42-4.1A62.52,62.52,0,0,0,310.62,454,43,43,0,0,0,296.37,456c-3.95,1.31-8.11,3.54-10.3,7.21a.52.52,0,0,0,.9.52c1.85-3.09,5.26-5.06,8.55-6.32a37,37,0,0,1,11.07-2.2c8.73-.54,17.06,1.62,25.35,4.06,1.88.56,3.77,1.09,5.6,1.8a21,21,0,0,1,2.76,1.29c.86.48,2.2,1.11,2.64,2,1.11,2.31-3.51,3.29-4.94,3.4a15.72,15.72,0,0,1-5.69-.75c-3.93-1.17-7.51-3.35-11.57-4.11a24.62,24.62,0,0,0-10.14.53c-4,.94-7.92,2.41-12,3.29a26.37,26.37,0,0,1-6.38.68,11.79,11.79,0,0,1-3.19-.42c-1.35-.44-2.86-1.7-2.09-3.29.29-.6-.61-1.13-.9-.52Z"/><path class="cls-4" d="M288.52,460.83c-2.43-3.84-1.07-9.18,2.06-12.48s7.59-4.94,12-6.1c5.86-1.56,12-2.46,18-1.33a35,35,0,0,1,7.06,2.21c3.39,1.43,6.74,3.33,8.86,6.34s2.69,7.35.54,10.34"/><path d="M289,460.57c-2.3-3.82-1-8.76,2-11.85,3.2-3.39,7.8-5,12.2-6.09a42,42,0,0,1,15.56-1.47,31.29,31.29,0,0,1,13.87,5.22c4.06,2.87,7.15,8.51,4,13.17-.38.55.53,1.08.91.52,2.61-3.84,1.35-8.93-1.6-12.19-3.48-3.86-9.09-6.07-14-7.22-5.73-1.33-11.68-.75-17.36.57-5,1.16-10.27,2.76-14,6.46-3.43,3.43-5,9.05-2.42,13.4a.52.52,0,0,0,.91-.52Z"/><path d="M315.69,490.32l-1.55.43a.53.53,0,0,0-.37.64.54.54,0,0,0,.65.37l1.55-.43a.54.54,0,0,0,.37-.65.53.53,0,0,0-.65-.36Z"/><path d="M321.35,497.47c-3-1.62-6.74-1.46-9.93-.51a8.11,8.11,0,0,0-3.12,1.48c-.43.39-.23,1.06-.09,1.56.71,2.63,3.19,3.72,5.72,3.84s5.22-.35,6.73-2.48a5.33,5.33,0,0,0,.95-3.44c-.06-.66-1.11-.67-1,0a4.32,4.32,0,0,1-1.38,3.53,6.52,6.52,0,0,1-4.33,1.36c-1.77,0-3.81-.2-5-1.71a3.91,3.91,0,0,1-.8-2.19l-.16.37a5.37,5.37,0,0,1,1.75-1,15.85,15.85,0,0,1,3.06-.81,11.1,11.1,0,0,1,7.09.88C321.42,498.7,322,497.79,321.35,497.47Z"/><path d="M323.5,526.59a38.13,38.13,0,0,1,6.71-6c.55-.39,0-1.29-.52-.9a39.31,39.31,0,0,0-6.93,6.2c-.45.5.29,1.25.74.74Z"/><path d="M302.7,523a12.29,12.29,0,0,0,1.25,3.26.52.52,0,0,0,.71.19.54.54,0,0,0,.19-.72c-.14-.25-.27-.5-.39-.76s-.17-.39-.28-.66a13,13,0,0,1-.47-1.58.53.53,0,0,0-.64-.37.54.54,0,0,0-.37.64Z"/><path class="cls-5" d="M340.7,467.9s2.59,1.34,2.95,3.8,2.73,9,2.37,10.4-.47,5.35-.56,5.84c-.42,2.31-3.32,4.18-4.24,4.9s-3.58,4.41-2.78.76a24.68,24.68,0,0,1,2.47-6.64c.82-1.77,1.64-4.6.1-4.44a5.89,5.89,0,0,1-2,0s-1.84-7.94-2.36-9.15-2.52-4.94-2.52-4.94Z"/><path d="M340.44,468.35c2.87,1.53,3,5,3.82,7.86a35.48,35.48,0,0,1,1.22,4.85,21.64,21.64,0,0,1-.35,4.16c-.13,1.71,0,3.17-1.19,4.57a39.09,39.09,0,0,1-3.44,3c-.46.43-.86.92-1.31,1.36a5.82,5.82,0,0,0-.66.52l.14,0c.16.09.21,0,.15-.17a8.5,8.5,0,0,0,.23-1.26,24.73,24.73,0,0,1,2-5.41c.67-1.36,1.68-3.27,1.31-4.83s-2-.68-3.19-1l.36.37c-.58-2.5-1.16-5-1.84-7.48a32.78,32.78,0,0,0-3.09-6.73l-.45.78,6.56-.53c.67-.05.67-1.1,0-1l-6.56.53a.54.54,0,0,0-.46.79,31.3,31.3,0,0,1,3.05,6.69c.65,2.41,1.22,4.84,1.79,7.27a.52.52,0,0,0,.36.36,6.9,6.9,0,0,0,1.7.06c.69,0,.82.14.74.87a7.67,7.67,0,0,1-.44,1.71c-.61,1.71-1.58,3.26-2.17,5a18.36,18.36,0,0,0-.9,3.5c-.06.48-.13,1.16.37,1.46.93.56,2.11-1.08,2.62-1.62,1.13-1.18,2.57-2,3.66-3.2a6.35,6.35,0,0,0,1.63-4.25c.05-.9.11-1.8.2-2.69.07-.73.29-1.47.29-2.21a18.53,18.53,0,0,0-1.06-4.79c-.55-1.95-.92-4-1.52-5.92a6.3,6.3,0,0,0-3-3.47C340.37,467.13,339.84,468,340.44,468.35Z"/><path class="cls-5" d="M288.06,467.13s-2.68,1.42-3,3.7-1.22,3.51-1.77,5.55.84,3.66,1.38,6.14-1.57,3.28-1.37,5.42,2.53,4.66,4,5.64,1.14,3.45,2.64,4.2,4.7,1.78,3.42-.77a29,29,0,0,1-2.44-7.33c-.33-1.89-2.59-1.93-3-4.49s-.11-3.2.75-3.2a4.09,4.09,0,0,1,1.76.53,70,70,0,0,1,1.12-7.81c.6-2.2,2.36-6.81,2.36-6.81Z"/><path d="M287.8,466.68a6.79,6.79,0,0,0-2.95,3c-.47,1.05-.52,2.27-.92,3.36a21.19,21.19,0,0,0-1.23,3.54c-.43,2.5,1.74,4.53,1.51,6.95a10,10,0,0,1-1.17,2.74,3.84,3.84,0,0,0-.09,2.59,10.66,10.66,0,0,0,3.85,5c1.54,1.23,1.23,3.57,3.15,4.49.94.46,2.85,1.31,3.82.48a1.34,1.34,0,0,0,.3-1.44c-.37-1.38-1.2-2.68-1.67-4.05s-.65-2.73-1.06-4.07a4.4,4.4,0,0,0-1.55-2,4.64,4.64,0,0,1-1.57-3.63c0-.37-.09-.95.27-1.17s1.3.26,1.63.45a.53.53,0,0,0,.79-.45,51.94,51.94,0,0,1,1-7.36,58,58,0,0,1,2.44-7.12c.13-.36-.2-.62-.51-.66l-5.81-.77c-.66-.09-.66,1,0,1l5.81.77-.5-.66a54.8,54.8,0,0,0-2.49,7.35,59.47,59.47,0,0,0-1,7.41l.79-.45c-.87-.49-2.45-1.07-3.17-.05s-.24,3.58.37,4.65a6.6,6.6,0,0,0,1.49,1.63,3.93,3.93,0,0,1,1.25,2.49,28.65,28.65,0,0,0,1,3.47c.22.6.46,1.19.71,1.78.16.36,1,1.54.79,1.93s-1.67-.12-2-.24a3,3,0,0,1-2-2.1,5.68,5.68,0,0,0-1-2c-.69-.76-1.6-1.29-2.3-2.06a7.54,7.54,0,0,1-1.86-3.1c-.3-1.21.24-2,.77-3.05,1-1.93.37-3.66-.37-5.58a5.44,5.44,0,0,1-.29-4.06c.39-1.18,1-2.31,1.27-3.52.37-1.38.48-2.5,1.56-3.55a6.9,6.9,0,0,1,1.48-1.09C288.92,467.26,288.39,466.36,287.8,466.68Z"/><ellipse class="cls-6" cx="303.41" cy="480.47" rx="1.35" ry="2.06" transform="translate(-26.92 18.09) rotate(-3.27)"/><path class="cls-6" d="M301.64,479.55l3.09-.18a.52.52,0,1,0,0-1l-3.09.17a.54.54,0,0,0-.52.53.53.53,0,0,0,.52.52Z"/><ellipse class="cls-6" cx="327.84" cy="480.5" rx="2.06" ry="1.35" transform="translate(-167.34 785.7) rotate(-87.34)"/><path class="cls-6" d="M326.23,479.48l3.09,0a.52.52,0,0,0,.52-.52.54.54,0,0,0-.52-.53l-3.09,0a.52.52,0,0,0-.53.52.54.54,0,0,0,.53.52Z"/><path d="M301.19,473.81l7.68-.65c.67-.05.68-1.1,0-1l-7.68.64c-.66.06-.67,1.1,0,1.05Z"/><path d="M321.57,474.6a17.38,17.38,0,0,1,8.77.25.52.52,0,0,0,.27-1,18.48,18.48,0,0,0-9.31-.25c-.66.15-.38,1.16.27,1Z"/><path d="M296.72,521a38,38,0,0,1-15.45,4.61c-4.89.36-11.11.06-13.77-4.8-.32-.59-1.22-.06-.9.53,2.69,4.92,8.73,5.62,13.78,5.37a39.21,39.21,0,0,0,16.87-4.81c.59-.32.06-1.22-.53-.9Z"/><path d="M263.05,501.78c.92,2.16,1.92,4,4.25,4.78,3.33,1.17,6.73-.53,9.79-1.8l-.65-.36c1,3.9-.89,7.68-3.43,10.56-2.32,2.64-5.33,5.75-8.86,6.59-.65.15-.38,1.16.28,1a12.59,12.59,0,0,0,5.12-2.82,36.16,36.16,0,0,0,4.67-4.59c2.54-3.07,4.25-7,3.23-11a.51.51,0,0,0-.64-.36c-2.75,1.13-6,2.83-9,1.87-2.18-.69-3-2.4-3.87-4.38-.26-.62-1.17-.09-.91.53Z"/><path d="M263.24,501.06a58.13,58.13,0,0,0-10.3,7.55c-3.45,3-7.58,6.8-8.78,11.41a18.12,18.12,0,0,0,1,11.66c.26.62,1.17.09.9-.53-1.62-3.77-2.08-8.62-.33-12.45a25,25,0,0,1,5.47-7.06A58.85,58.85,0,0,1,263.77,502c.59-.32.06-1.22-.53-.9Z"/><path d="M264.65,503.08a5.29,5.29,0,0,0-.3-3.77,25.17,25.17,0,0,1-1.78-3.79c-.67-2.69,0-5.56.58-8.21.15-.65-.86-.93-1-.27a21.38,21.38,0,0,0-.76,7.79,9.47,9.47,0,0,0,1.29,3.52c.82,1.39,1.48,2.83,1,4.45-.2.65.81.92,1,.28Z"/><path d="M277.75,504.1c1-6.32,1.7-12.68,2.14-19.06.39-5.53.76-11.1.76-16.64,0-2.89,0-6.38-1.25-9-.38-.81-1.14-1.73-2.15-1.47s-1.32,1.91-1.46,2.81a49.7,49.7,0,0,0-.32,7.32c0,3.07,0,6.15-.27,9.22-.05.67,1,.66,1.05,0,.36-4.62.13-9.24.35-13.86,0-1.12-.08-3.32.72-4.25s1.34,1.11,1.51,1.68a28.49,28.49,0,0,1,.77,8c-.06,5.16-.36,10.34-.7,15.49-.44,6.53-1.12,13-2.15,19.5-.11.65.9.94,1,.27Z"/><path d="M276.18,476.12c-.35-.69-1.37-.81-2.05-.74a3.28,3.28,0,0,0-2.34,1.52c-1.19,1.62-1.45,3.76-1.66,5.7a.52.52,0,0,0,.52.52.54.54,0,0,0,.53-.52,11.6,11.6,0,0,1,1.22-4.73,2.74,2.74,0,0,1,1.56-1.41,2,2,0,0,1,.85,0,1.88,1.88,0,0,1,.35.1l.06,0s0,0,0,0l0,.08c.31.6,1.21.07.91-.53Z"/><path d="M272.11,477.33a2.77,2.77,0,0,0-2.33-1.46,3.69,3.69,0,0,0-2.8,1,7.43,7.43,0,0,0-1.78,2.9,13.4,13.4,0,0,0-.93,3.89c0,.68,1,.67,1.05,0a12.19,12.19,0,0,1,.77-3.3,7.46,7.46,0,0,1,1.34-2.46,2.8,2.8,0,0,1,2.09-1,1.81,1.81,0,0,1,1.69,1c.29.61,1.19.08.9-.53Z"/><path d="M267.12,477.17a2.3,2.3,0,0,0-3.21.55,11.37,11.37,0,0,0-1.94,3.85c-.47,1.47-1.1,3.88,0,5.27.68.9,1.8.67,2.68.24.61-.3.08-1.2-.52-.9s-1.24.43-1.51-.3a4.38,4.38,0,0,1-.11-2,12.6,12.6,0,0,1,1.24-3.93,6.82,6.82,0,0,1,1.06-1.68c.37-.39,1.08-.79,1.59-.39s1.27-.33.74-.74Z"/><path d="M273.86,480.73a11.75,11.75,0,0,0,.18,3.88.53.53,0,0,0,.64.37.54.54,0,0,0,.37-.64,10.69,10.69,0,0,1-.14-3.61.53.53,0,0,0-1.05,0Z"/><path d="M276.51,484.16a60.46,60.46,0,0,0-6.7-.74,19.6,19.6,0,0,0-3.25,0,2.39,2.39,0,0,0-1.92,1.15,2.91,2.91,0,0,0,1.28,3.81,5.24,5.24,0,0,0,2.48.62c.68,0,1.8-.17,2.26.47v-.53l-1.91,2.84c-.38.56.53,1.09.9.53l1.92-2.84a.53.53,0,0,0,0-.53c-.89-1.22-2.36-.86-3.67-1s-3-1.14-2.41-2.71c.32-.79,1.25-.79,2-.78,1,0,1.92,0,2.88.1a58.32,58.32,0,0,1,5.89.67c.66.11.94-.9.28-1Z"/><path class="cls-3" d="M89.81,77.52a2.81,2.81,0,0,1,2,.71,2.53,2.53,0,0,1,.76,2,2.71,2.71,0,0,1-.83,2,3.24,3.24,0,0,1-2.34.8A2.92,2.92,0,0,1,87,82a4.06,4.06,0,0,1-.83-2.65,4.87,4.87,0,0,1,.76-2.73,7.17,7.17,0,0,1,1.91-2A10.48,10.48,0,0,1,91.1,73.3l.61,1.23a7.5,7.5,0,0,0-1.55.86,5.82,5.82,0,0,0-1.28,1.24A2.36,2.36,0,0,0,88.35,78a1.11,1.11,0,0,1,.47-.31A2.34,2.34,0,0,1,89.81,77.52Zm7.72,0a2.77,2.77,0,0,1,2,.71,2.53,2.53,0,0,1,.76,2,2.7,2.7,0,0,1-.82,2,3.26,3.26,0,0,1-2.35.8,2.88,2.88,0,0,1-2.39-1,4.06,4.06,0,0,1-.84-2.65,4.87,4.87,0,0,1,.76-2.73,7.31,7.31,0,0,1,1.91-2,10.78,10.78,0,0,1,2.29-1.28l.61,1.23a7.26,7.26,0,0,0-1.55.86,5.82,5.82,0,0,0-1.28,1.24A2.38,2.38,0,0,0,96.06,78a1.11,1.11,0,0,1,.47-.31A2.39,2.39,0,0,1,97.53,77.52Z"/><path class="cls-3" d="M122.66,78.32h-8.87l1.84-2.49v26.52h-5V75.83l1.93,2.49h-8.94v-4h19Z"/><path class="cls-3" d="M127.47,102.35V72.65h5v29.7Zm14.29,0v-11a6.47,6.47,0,0,0-1-3.85,3.86,3.86,0,0,0-3.34-1.34,5.45,5.45,0,0,0-2.68.62,4.14,4.14,0,0,0-1.7,1.72,5.21,5.21,0,0,0-.59,2.54l-1.83-1a8.34,8.34,0,0,1,1.1-4.28,7.66,7.66,0,0,1,3-2.94,9.16,9.16,0,0,1,4.44-1.06A7.13,7.13,0,0,1,144.82,84a8.77,8.77,0,0,1,1.93,6v12.29Z"/><path class="cls-3" d="M154.39,93.88V90.32h14.12l-.57,1v-.49a5.37,5.37,0,0,0-.59-2.46,4.5,4.5,0,0,0-1.79-1.86,5.8,5.8,0,0,0-3-.72,6.27,6.27,0,0,0-3.16.77,5.29,5.29,0,0,0-2.07,2.22,7.52,7.52,0,0,0-.73,3.46,8.28,8.28,0,0,0,.7,3.56A5.13,5.13,0,0,0,159.32,98a6.58,6.58,0,0,0,3.32.79,9.63,9.63,0,0,0,2.3-.25,4.91,4.91,0,0,0,1.58-.67,3.33,3.33,0,0,0,.94-.93,2.47,2.47,0,0,0,.37-1h5a5.68,5.68,0,0,1-.84,2.48,7.88,7.88,0,0,1-2,2.18,10.66,10.66,0,0,1-3.19,1.56,14.25,14.25,0,0,1-4.26.58,11.6,11.6,0,0,1-5.68-1.33A9.53,9.53,0,0,1,153,97.75a11.57,11.57,0,0,1,0-10.92,9.6,9.6,0,0,1,3.82-3.68,11.7,11.7,0,0,1,5.63-1.32,11.38,11.38,0,0,1,5.65,1.33,9.23,9.23,0,0,1,3.68,3.7,11.29,11.29,0,0,1,1.29,5.5c0,.26,0,.55,0,.85a4.16,4.16,0,0,1-.06.67Z"/><path class="cls-3" d="M98.61,155.77a11,11,0,0,1-5.94-1.67,11.66,11.66,0,0,1-4.24-4.89,17.46,17.46,0,0,1-1.58-7.81,17.21,17.21,0,0,1,1.63-7.84,11.82,11.82,0,0,1,4.42-4.93,11.65,11.65,0,0,1,6.22-1.7,11.23,11.23,0,0,1,4.84.94,9.31,9.31,0,0,1,3.23,2.42,9.72,9.72,0,0,1,1.8,3.12,9.23,9.23,0,0,1,.56,3v.22h-4.86v-.22a5.62,5.62,0,0,0-.34-1.94,5.15,5.15,0,0,0-1-1.73,5.09,5.09,0,0,0-1.75-1.24,6.06,6.06,0,0,0-2.43-.45,6.48,6.48,0,0,0-3.52,1,7.3,7.3,0,0,0-2.66,3.32,14.66,14.66,0,0,0-1,6,17.11,17.11,0,0,0,.57,4.75A9.08,9.08,0,0,0,94,149.33a6,6,0,0,0,2.24,1.77,6.4,6.4,0,0,0,2.67.57,7,7,0,0,0,3.17-.65,5.42,5.42,0,0,0,2-1.62,4.69,4.69,0,0,0,.9-1.9v-2.18H99v-3.76h10.47v13.79h-2.89l-.42-3.12a3.85,3.85,0,0,1-.62.94,6.45,6.45,0,0,1-1.37,1.18,8.41,8.41,0,0,1-2.27,1A11.8,11.8,0,0,1,98.61,155.77Z"/><path class="cls-3" d="M125.38,155.75a11.48,11.48,0,0,1-5.62-1.34A9.78,9.78,0,0,1,116,150.7a10.65,10.65,0,0,1-1.38-5.44,10.48,10.48,0,0,1,1.38-5.42,9.77,9.77,0,0,1,3.81-3.68,12.54,12.54,0,0,1,11.24,0,9.64,9.64,0,0,1,3.81,3.68,10.48,10.48,0,0,1,1.38,5.42,10.65,10.65,0,0,1-1.38,5.44,9.65,9.65,0,0,1-3.81,3.71A11.48,11.48,0,0,1,125.38,155.75Zm0-4.08a5.65,5.65,0,0,0,3-.8,5.49,5.49,0,0,0,2-2.24,7.41,7.41,0,0,0,.72-3.37,7.29,7.29,0,0,0-.72-3.35,5.45,5.45,0,0,0-2-2.2,6.22,6.22,0,0,0-6,0,5.31,5.31,0,0,0-2,2.2,7.17,7.17,0,0,0-.73,3.35,7.28,7.28,0,0,0,.73,3.37,5.36,5.36,0,0,0,2,2.24A5.66,5.66,0,0,0,125.38,151.67Z"/><path class="cls-3" d="M158.31,135.17,152,155.35h-6.71l-6.48-20.18H144L149,153.6h-.8l4.9-18.43Z"/><path class="cls-3" d="M163.42,146.88v-3.56h14.12l-.57,1v-.49a5.37,5.37,0,0,0-.59-2.46,4.57,4.57,0,0,0-1.79-1.86,5.82,5.82,0,0,0-3-.72,6.24,6.24,0,0,0-3.16.77,5.17,5.17,0,0,0-2.07,2.22,7.52,7.52,0,0,0-.74,3.46,8.28,8.28,0,0,0,.71,3.56,5.08,5.08,0,0,0,2.06,2.28,6.54,6.54,0,0,0,3.31.79,9.57,9.57,0,0,0,2.3-.25,4.88,4.88,0,0,0,1.59-.67,3.42,3.42,0,0,0,.93-.93,2.33,2.33,0,0,0,.37-1h5a5.83,5.83,0,0,1-.85,2.48,7.59,7.59,0,0,1-2,2.18,10.49,10.49,0,0,1-3.18,1.56,14.32,14.32,0,0,1-4.27.58,11.63,11.63,0,0,1-5.68-1.33,9.59,9.59,0,0,1-3.79-3.71,10.78,10.78,0,0,1-1.36-5.43,10.66,10.66,0,0,1,1.38-5.49,9.69,9.69,0,0,1,3.83-3.68,11.66,11.66,0,0,1,5.62-1.32,11.42,11.42,0,0,1,5.66,1.33,9.2,9.2,0,0,1,3.67,3.7,11.29,11.29,0,0,1,1.29,5.5c0,.26,0,.55,0,.85s0,.53-.06.67Z"/><path class="cls-3" d="M187.19,155.35V135.17h5v6.71l-1.15-.65a9.42,9.42,0,0,1,.7-2.48,6.88,6.88,0,0,1,1.37-2.05,6,6,0,0,1,2.07-1.38,7.48,7.48,0,0,1,2.77-.49,8.38,8.38,0,0,1,1.95.18,3.4,3.4,0,0,1,.88.3l-.91,4.58a3.79,3.79,0,0,0-.77-.34,5,5,0,0,0-1.55-.2,5.65,5.65,0,0,0-2.57.53,4.27,4.27,0,0,0-1.65,1.4,6.18,6.18,0,0,0-.87,1.94,8.4,8.4,0,0,0-.27,2.1v10Z"/><path class="cls-3" d="M204.88,155.35V135.17h5v20.18Zm14.27,0V144a7.56,7.56,0,0,0-.39-2.46,3.41,3.41,0,0,0-1.33-1.72,4.65,4.65,0,0,0-2.6-.63,4.76,4.76,0,0,0-2.56.69,4.88,4.88,0,0,0-1.76,1.9,6,6,0,0,0-.64,2.79l-1.69-1.05a8.8,8.8,0,0,1,1.15-4.49,8.48,8.48,0,0,1,3.09-3.09,8.38,8.38,0,0,1,4.29-1.12,8.21,8.21,0,0,1,4.1.95,6.08,6.08,0,0,1,2.51,2.7,9.35,9.35,0,0,1,.84,4.1v12.77Z"/><path class="cls-3" d="M229.92,155.35V135.17h5v20.18Zm12.54,0V143.78a12.07,12.07,0,0,0-.1-1.55,4.58,4.58,0,0,0-.42-1.49,2.52,2.52,0,0,0-1-1.11,3.41,3.41,0,0,0-1.86-.43,3.69,3.69,0,0,0-1.92.47,3.92,3.92,0,0,0-1.3,1.23,5.49,5.49,0,0,0-.73,1.75,8.89,8.89,0,0,0-.23,2l-1.67-1.12a10.19,10.19,0,0,1,.93-4.44,7.6,7.6,0,0,1,2.65-3.11,7.16,7.16,0,0,1,4.08-1.15,6.52,6.52,0,0,1,3.86,1,5.54,5.54,0,0,1,2,2.74,11.57,11.57,0,0,1,.62,3.88v12.88Zm12.46,0V143.74a14.44,14.44,0,0,0-.09-1.6,4.83,4.83,0,0,0-.42-1.47,2.57,2.57,0,0,0-1-1.06,3.64,3.64,0,0,0-1.86-.41,3.8,3.8,0,0,0-1.95.46,3.57,3.57,0,0,0-1.26,1.21,5.39,5.39,0,0,0-.69,1.71,8.27,8.27,0,0,0-.22,1.9l-1.68-1.1a10.05,10.05,0,0,1,.92-4.35,7.33,7.33,0,0,1,2.62-3.07,7.21,7.21,0,0,1,4.06-1.13,6.7,6.7,0,0,1,3.82,1,5.46,5.46,0,0,1,2.1,2.65,10.43,10.43,0,0,1,.66,3.83v13.07Z"/><path class="cls-3" d="M267.56,146.88v-3.56h14.11l-.57,1v-.49a5.25,5.25,0,0,0-.59-2.46,4.48,4.48,0,0,0-1.78-1.86,5.82,5.82,0,0,0-3-.72,6.31,6.31,0,0,0-3.17.77,5.29,5.29,0,0,0-2.07,2.22,7.65,7.65,0,0,0-.73,3.46,8.28,8.28,0,0,0,.71,3.56,5,5,0,0,0,2.06,2.28,6.54,6.54,0,0,0,3.31.79,9.63,9.63,0,0,0,2.3-.25,4.88,4.88,0,0,0,1.59-.67,3.42,3.42,0,0,0,.93-.93,2.33,2.33,0,0,0,.37-1h5a5.83,5.83,0,0,1-.85,2.48,7.88,7.88,0,0,1-2,2.18,10.72,10.72,0,0,1-3.18,1.56,14.32,14.32,0,0,1-4.27.58,11.63,11.63,0,0,1-5.68-1.33,9.53,9.53,0,0,1-3.79-3.71,11.57,11.57,0,0,1,0-10.92,9.62,9.62,0,0,1,3.83-3.68,11.63,11.63,0,0,1,5.62-1.32,11.38,11.38,0,0,1,5.65,1.33,9.23,9.23,0,0,1,3.68,3.7,11.29,11.29,0,0,1,1.29,5.5c0,.26,0,.55,0,.85a6.42,6.42,0,0,1-.05.67Z"/><path class="cls-3" d="M291.32,155.35V135.17h5v20.18Zm14.27,0V144a7.3,7.3,0,0,0-.39-2.46,3.36,3.36,0,0,0-1.33-1.72,4.59,4.59,0,0,0-2.59-.63,4.76,4.76,0,0,0-2.56.69,4.88,4.88,0,0,0-1.76,1.9,5.86,5.86,0,0,0-.64,2.79l-1.69-1.05a8.7,8.7,0,0,1,1.15-4.49,8.48,8.48,0,0,1,3.09-3.09,8.38,8.38,0,0,1,4.29-1.12,8.21,8.21,0,0,1,4.1.95,6.06,6.06,0,0,1,2.5,2.7,9.21,9.21,0,0,1,.85,4.1v12.77Z"/><path class="cls-3" d="M325.14,155.73a12,12,0,0,1-2.2-.21,6,6,0,0,1-2.05-.78,4.08,4.08,0,0,1-1.5-1.67,6.33,6.33,0,0,1-.57-2.91v-11h-4.77v-4H316a12.38,12.38,0,0,0,1.55-.08,1.34,1.34,0,0,0,.84-.41,1.9,1.9,0,0,0,.35-1,15.81,15.81,0,0,0,.09-1.93v-3.21h5v6.65h6v4h-6v9.48a6.09,6.09,0,0,0,.35,2.26c.22.57.76.86,1.61.86a6,6,0,0,0,1.15-.11,5.84,5.84,0,0,0,.81-.23v3.91a7,7,0,0,1-1.05.27A8,8,0,0,1,325.14,155.73Z"/><path class="cls-3" d="M95.82,208.77a14.08,14.08,0,0,1-3.43-.4,9.77,9.77,0,0,1-2.89-1.2,6.2,6.2,0,0,1-2-2,5.2,5.2,0,0,1-.73-2.75V202h5v.34a2,2,0,0,0,1.13,1.85,6.48,6.48,0,0,0,3.09.62,8.5,8.5,0,0,0,2-.23,3.76,3.76,0,0,0,1.52-.7,1.51,1.51,0,0,0,.58-1.22A1.76,1.76,0,0,0,98.85,201,18.42,18.42,0,0,0,95,200a25.61,25.61,0,0,1-2.85-.67,10.4,10.4,0,0,1-2.56-1.12,5.82,5.82,0,0,1-1.84-1.75,4.48,4.48,0,0,1-.69-2.54,4.9,4.9,0,0,1,1.18-3.35,7.42,7.42,0,0,1,3.2-2.07,13.46,13.46,0,0,1,4.41-.7,12,12,0,0,1,4.32.76,7.88,7.88,0,0,1,3.22,2.19,5.12,5.12,0,0,1,1.22,3.44v.3H99.67v-.25a1.9,1.9,0,0,0-.55-1.42A3.31,3.31,0,0,0,97.7,192a6.27,6.27,0,0,0-1.85-.27,9.07,9.07,0,0,0-1.76.18,3.69,3.69,0,0,0-1.52.63,1.45,1.45,0,0,0-.61,1.25,1.48,1.48,0,0,0,.63,1.23,5.14,5.14,0,0,0,1.74.79,23.94,23.94,0,0,0,2.59.56,24.38,24.38,0,0,1,2.8.63,11.53,11.53,0,0,1,2.59,1.06,5.43,5.43,0,0,1,1.91,1.74,4.59,4.59,0,0,1,.74,2.65,5.2,5.2,0,0,1-.76,2.85,6.16,6.16,0,0,1-2.07,1.95,9.88,9.88,0,0,1-2.93,1.13A15.7,15.7,0,0,1,95.82,208.77Z"/><path class="cls-3" d="M110,208.35v-29.7h5v29.7Zm14.29,0v-11a6.47,6.47,0,0,0-1-3.85A3.87,3.87,0,0,0,120,192.2a5.51,5.51,0,0,0-2.69.62,4.2,4.2,0,0,0-1.7,1.72,5.32,5.32,0,0,0-.58,2.54l-1.83-1a8.43,8.43,0,0,1,1.09-4.28,7.79,7.79,0,0,1,3-2.94,9.23,9.23,0,0,1,4.45-1.06,7.15,7.15,0,0,1,5.61,2.18,8.77,8.77,0,0,1,1.93,6.05v12.29Z"/><path class="cls-3" d="M145,208.75a11.52,11.52,0,0,1-5.63-1.34,9.78,9.78,0,0,1-3.81-3.71,10.65,10.65,0,0,1-1.37-5.44,10.47,10.47,0,0,1,1.37-5.42,9.77,9.77,0,0,1,3.81-3.68,12.56,12.56,0,0,1,11.25,0,9.77,9.77,0,0,1,3.81,3.68,10.48,10.48,0,0,1,1.38,5.42,10.65,10.65,0,0,1-1.38,5.44,9.78,9.78,0,0,1-3.81,3.71A11.48,11.48,0,0,1,145,208.75Zm0-4.08a5.65,5.65,0,0,0,3-.8,5.4,5.4,0,0,0,2-2.24,7.41,7.41,0,0,0,.72-3.37,7.29,7.29,0,0,0-.72-3.35,5.35,5.35,0,0,0-2-2.2,6.22,6.22,0,0,0-6,0,5.33,5.33,0,0,0-2,2.2,7.29,7.29,0,0,0-.72,3.35,7.41,7.41,0,0,0,.72,3.37,5.38,5.38,0,0,0,2,2.24A5.64,5.64,0,0,0,145,204.67Z"/><path class="cls-3" d="M168.15,208.73a7.81,7.81,0,0,1-3.56-.72,5.88,5.88,0,0,1-2.23-1.9,7.59,7.59,0,0,1-1.14-2.6,12.6,12.6,0,0,1-.33-2.85V188.17h5v11.19a9,9,0,0,0,.32,2.5,3.52,3.52,0,0,0,1.19,1.86,3.81,3.81,0,0,0,2.44.7,4,4,0,0,0,2.58-.89,5.88,5.88,0,0,0,1.68-2.23,6.67,6.67,0,0,0,.6-2.73l1.71,1.14a10.38,10.38,0,0,1-.57,3.46,8.73,8.73,0,0,1-1.65,2.88,7.7,7.7,0,0,1-2.61,2A8.15,8.15,0,0,1,168.15,208.73Zm6.57-.38V188.17h5v20.18Z"/><path class="cls-3" d="M190.7,178.65v29.7h-4.92v-29.7Z"/><path class="cls-3" d="M205.14,208.77a9.13,9.13,0,0,1-4.61-1.21,8.77,8.77,0,0,1-3.39-3.56,12,12,0,0,1-1.27-5.8,11.41,11.41,0,0,1,1.3-5.66,9,9,0,0,1,8-4.71,8.59,8.59,0,0,1,4.39,1.17,8.88,8.88,0,0,1,3.23,3.24A9.2,9.2,0,0,1,214,197v.3l-2.47.06v-.25a4.6,4.6,0,0,0-.75-2.62,5.38,5.38,0,0,0-1.94-1.76,5.29,5.29,0,0,0-2.52-.63,5.17,5.17,0,0,0-3.72,1.47A6.15,6.15,0,0,0,201,198.2a6.23,6.23,0,0,0,1.54,4.66,5.12,5.12,0,0,0,3.72,1.5,5.2,5.2,0,0,0,2.57-.66,5.31,5.31,0,0,0,1.9-1.84,4.94,4.94,0,0,0,.74-2.69l2.47.12a9.8,9.8,0,0,1-1.19,4.81,9.19,9.19,0,0,1-3.18,3.42A8.27,8.27,0,0,1,205.14,208.77Zm6.37-.42v-29.7h5v29.7Z"/><path class="cls-3" d="M87.67,269.65V241.17h5v28.48ZM99,261.77a8.17,8.17,0,0,1-4.36-1.23,9.12,9.12,0,0,1-3.23-3.35,9.39,9.39,0,0,1-1.23-4.79v-.26l2.47-.06v.19a4.78,4.78,0,0,0,.74,2.63,5.4,5.4,0,0,0,1.93,1.81,5.25,5.25,0,0,0,2.54.65,5.13,5.13,0,0,0,3.72-1.5,7.81,7.81,0,0,0,0-9.3,5.18,5.18,0,0,0-3.73-1.47,5.29,5.29,0,0,0-2.52.63,5.38,5.38,0,0,0-1.94,1.76,4.6,4.6,0,0,0-.75,2.62L90.21,250a9.11,9.11,0,0,1,1.23-4.75A8.88,8.88,0,0,1,94.67,242,8.48,8.48,0,0,1,99,240.83a9.15,9.15,0,0,1,4.57,1.2,9,9,0,0,1,3.42,3.51,11.52,11.52,0,0,1,1.3,5.66,12.16,12.16,0,0,1-1.27,5.8,8.77,8.77,0,0,1-3.39,3.56A9.09,9.09,0,0,1,99,261.77Z"/><path class="cls-3" d="M113.39,261.35V241.17h5v6.71l-1.16-.65a9.81,9.81,0,0,1,.7-2.48,6.88,6.88,0,0,1,1.37-2.05,6,6,0,0,1,2.07-1.38,7.53,7.53,0,0,1,2.78-.49,8.22,8.22,0,0,1,1.94.18,3.53,3.53,0,0,1,.89.3l-.92,4.58a3.53,3.53,0,0,0-.77-.34,4.91,4.91,0,0,0-1.54-.2,5.67,5.67,0,0,0-2.58.53,4.16,4.16,0,0,0-1.64,1.4,6,6,0,0,0-.88,1.94,8.88,8.88,0,0,0-.26,2.1v10Z"/><path class="cls-3" d="M140.62,261.75a11.54,11.54,0,0,1-5.63-1.34,9.78,9.78,0,0,1-3.81-3.71,10.75,10.75,0,0,1-1.37-5.44,10.57,10.57,0,0,1,1.37-5.42,9.77,9.77,0,0,1,3.81-3.68,12.56,12.56,0,0,1,11.25,0,9.77,9.77,0,0,1,3.81,3.68,10.48,10.48,0,0,1,1.38,5.42,10.65,10.65,0,0,1-1.38,5.44,9.78,9.78,0,0,1-3.81,3.71A11.48,11.48,0,0,1,140.62,261.75Zm0-4.08a5.65,5.65,0,0,0,3-.8,5.4,5.4,0,0,0,2-2.24,7.41,7.41,0,0,0,.73-3.37,7.29,7.29,0,0,0-.73-3.35,5.35,5.35,0,0,0-2-2.2,6.22,6.22,0,0,0-6,0,5.33,5.33,0,0,0-2,2.2,7.29,7.29,0,0,0-.72,3.35,7.41,7.41,0,0,0,.72,3.37,5.38,5.38,0,0,0,2,2.24A5.64,5.64,0,0,0,140.62,257.67Z"/><path class="cls-3" d="M165.53,261.73a12.05,12.05,0,0,1-2.21-.21,6.06,6.06,0,0,1-2-.78,4.08,4.08,0,0,1-1.5-1.67,6.33,6.33,0,0,1-.57-2.91v-11h-4.77v-4h1.94a12.44,12.44,0,0,0,1.56-.08,1.29,1.29,0,0,0,.83-.41,2,2,0,0,0,.36-1,18.68,18.68,0,0,0,.08-1.93v-3.21h5v6.65h6v4h-6v9.48a6.11,6.11,0,0,0,.34,2.26,1.53,1.53,0,0,0,1.61.86,6,6,0,0,0,1.15-.11,5.84,5.84,0,0,0,.81-.23v3.91a7.16,7.16,0,0,1-1,.27A8.19,8.19,0,0,1,165.53,261.73Z"/><path class="cls-3" d="M176.24,252.88v-3.56h14.12l-.57,1v-.49a5.37,5.37,0,0,0-.59-2.46,4.54,4.54,0,0,0-1.78-1.86,5.85,5.85,0,0,0-3-.72,6.28,6.28,0,0,0-3.17.77,5.29,5.29,0,0,0-2.07,2.22,7.52,7.52,0,0,0-.73,3.46,8.28,8.28,0,0,0,.7,3.56,5.13,5.13,0,0,0,2.06,2.28,6.58,6.58,0,0,0,3.32.79,9.63,9.63,0,0,0,2.3-.25,4.91,4.91,0,0,0,1.58-.67,3.33,3.33,0,0,0,.94-.93,2.47,2.47,0,0,0,.37-1h5a5.68,5.68,0,0,1-.84,2.48,7.88,7.88,0,0,1-2,2.18,10.66,10.66,0,0,1-3.19,1.56,14.25,14.25,0,0,1-4.26.58,11.6,11.6,0,0,1-5.68-1.33,9.53,9.53,0,0,1-3.79-3.71,11.57,11.57,0,0,1,0-10.92,9.6,9.6,0,0,1,3.82-3.68,11.7,11.7,0,0,1,5.63-1.32,11.38,11.38,0,0,1,5.65,1.33,9.23,9.23,0,0,1,3.68,3.7,11.29,11.29,0,0,1,1.29,5.5c0,.26,0,.55,0,.85a4.16,4.16,0,0,1-.06.67Z"/><path class="cls-3" d="M210,261.77a11.87,11.87,0,0,1-5.65-1.31,9.58,9.58,0,0,1-3.83-3.69,10.79,10.79,0,0,1-1.39-5.57,10.57,10.57,0,0,1,1.39-5.51,9.43,9.43,0,0,1,3.83-3.6,12.21,12.21,0,0,1,5.65-1.26,12,12,0,0,1,4.23.7,9.5,9.5,0,0,1,3.11,1.88,8.47,8.47,0,0,1,1.93,2.56,6.47,6.47,0,0,1,.66,2.78v.16H215a1.49,1.49,0,0,0,0-.21,1.85,1.85,0,0,1,0-.23,3.68,3.68,0,0,0-.78-1.76,4.58,4.58,0,0,0-1.67-1.26,6,6,0,0,0-2.53-.48,6,6,0,0,0-2.88.7,5,5,0,0,0-2.07,2.08,7,7,0,0,0-.77,3.45,7.35,7.35,0,0,0,.76,3.49,5.32,5.32,0,0,0,2.06,2.19,5.72,5.72,0,0,0,2.9.75,6.25,6.25,0,0,0,2.76-.53,3.76,3.76,0,0,0,1.63-1.4,4.24,4.24,0,0,0,.63-1.93h5a6.72,6.72,0,0,1-.64,2.82,8.2,8.2,0,0,1-1.9,2.59,9.25,9.25,0,0,1-3.11,1.89A12.19,12.19,0,0,1,210,261.77Z"/><path class="cls-3" d="M234,261.73a12,12,0,0,1-2.2-.21,6,6,0,0,1-2-.78,4.08,4.08,0,0,1-1.5-1.67,6.33,6.33,0,0,1-.57-2.91v-11h-4.77v-4h1.93a12.44,12.44,0,0,0,1.56-.08,1.34,1.34,0,0,0,.84-.41,2,2,0,0,0,.35-1,15.81,15.81,0,0,0,.09-1.93v-3.21h5v6.65h6v4h-6v9.48a6.32,6.32,0,0,0,.34,2.26,1.55,1.55,0,0,0,1.62.86,6.06,6.06,0,0,0,1.15-.11,5.84,5.84,0,0,0,.81-.23v3.91a7,7,0,0,1-1,.27A8.19,8.19,0,0,1,234,261.73Z"/><path class="cls-3" d="M87.67,314.35V294.17h5v20.18Zm14.26,0V303a7.56,7.56,0,0,0-.38-2.46,3.41,3.41,0,0,0-1.33-1.72,4.65,4.65,0,0,0-2.6-.63,4.76,4.76,0,0,0-2.56.69,4.88,4.88,0,0,0-1.76,1.9,5.86,5.86,0,0,0-.64,2.79L91,302.53A8.7,8.7,0,0,1,92.12,298,8.48,8.48,0,0,1,95.21,295a8.38,8.38,0,0,1,4.29-1.12,8.21,8.21,0,0,1,4.1.95,6,6,0,0,1,2.5,2.7,9.21,9.21,0,0,1,.85,4.1v12.77Z"/><path class="cls-3" d="M119.62,314.77a10.38,10.38,0,0,1-4-.71A6.16,6.16,0,0,1,113,312a5.43,5.43,0,0,1-1-3.24,5.12,5.12,0,0,1,1.13-3.41,7.3,7.3,0,0,1,3.05-2.08,16.22,16.22,0,0,1,4.26-.94,43.4,43.4,0,0,0,4.84-.65c.91-.21,1.37-.55,1.37-1v0a2.28,2.28,0,0,0-1.19-2.05,6.62,6.62,0,0,0-3.39-.72,6.39,6.39,0,0,0-3.52.81,2.83,2.83,0,0,0-1.23,2.55h-4.94a6.37,6.37,0,0,1,1.27-4,7.84,7.84,0,0,1,3.47-2.49,13.67,13.67,0,0,1,5-.86,14,14,0,0,1,4.77.78,7.88,7.88,0,0,1,3.48,2.36,6,6,0,0,1,1.31,3.93v9.2c0,.48,0,.95.05,1.41a5.74,5.74,0,0,0,.2,1.25,4,4,0,0,0,.45,1,3.79,3.79,0,0,0,.42.57h-4.94a3.13,3.13,0,0,1-.37-.52,5.39,5.39,0,0,1-.43-.9,7.39,7.39,0,0,1-.28-1.23,9.26,9.26,0,0,1-.1-1.45l1,.68a5.54,5.54,0,0,1-1.74,2,8.66,8.66,0,0,1-2.78,1.34A12.33,12.33,0,0,1,119.62,314.77Zm1.22-3.93a7.62,7.62,0,0,0,2.89-.54,4.79,4.79,0,0,0,2.14-1.64,4.66,4.66,0,0,0,.82-2.86v-2.7l1.22,1.37a17,17,0,0,1-2.93.75c-1.14.2-2.29.35-3.46.47a9.82,9.82,0,0,0-3.37.78,1.94,1.94,0,0,0-1.13,1.86,2.12,2.12,0,0,0,1,1.88A5.24,5.24,0,0,0,120.84,310.84Z"/><path class="cls-3" d="M146.05,314.73a12,12,0,0,1-2.2-.21,6,6,0,0,1-2-.78,4.08,4.08,0,0,1-1.5-1.67,6.33,6.33,0,0,1-.57-2.91v-11H135v-4h1.93a12.44,12.44,0,0,0,1.56-.08,1.34,1.34,0,0,0,.84-.41,2,2,0,0,0,.35-1,15.81,15.81,0,0,0,.09-1.93v-3.21h5v6.65h6v4h-6v9.48a6.32,6.32,0,0,0,.34,2.26,1.55,1.55,0,0,0,1.62.86,6.06,6.06,0,0,0,1.15-.11,5.84,5.84,0,0,0,.81-.23v3.91a7.35,7.35,0,0,1-1,.27A8.19,8.19,0,0,1,146.05,314.73Z"/><path class="cls-3" d="M157.85,290.45a3.49,3.49,0,0,1-2.12-.66,2.29,2.29,0,0,1,0-3.64,3.55,3.55,0,0,1,2.12-.64,3.46,3.46,0,0,1,2.09.64,2.31,2.31,0,0,1,0,3.64A3.41,3.41,0,0,1,157.85,290.45Zm-2.49,23.9V294.17h4.94v20.18Z"/><path class="cls-3" d="M176.11,314.75a11.48,11.48,0,0,1-5.62-1.34,9.65,9.65,0,0,1-3.81-3.71,10.65,10.65,0,0,1-1.38-5.44,10.48,10.48,0,0,1,1.38-5.42,9.64,9.64,0,0,1,3.81-3.68,12.54,12.54,0,0,1,11.24,0,9.77,9.77,0,0,1,3.81,3.68,10.48,10.48,0,0,1,1.38,5.42,10.65,10.65,0,0,1-1.38,5.44,9.78,9.78,0,0,1-3.81,3.71A11.48,11.48,0,0,1,176.11,314.75Zm0-4.08a5.65,5.65,0,0,0,3-.8,5.4,5.4,0,0,0,2-2.24,7.28,7.28,0,0,0,.73-3.37,7.17,7.17,0,0,0-.73-3.35,5.35,5.35,0,0,0-2-2.2,6.22,6.22,0,0,0-6,0,5.4,5.4,0,0,0-2,2.2,7.29,7.29,0,0,0-.72,3.35,7.41,7.41,0,0,0,.72,3.37,5.45,5.45,0,0,0,2,2.24A5.66,5.66,0,0,0,176.11,310.67Z"/><path class="cls-3" d="M192,314.35V294.17h5v20.18Zm14.27,0V303a7.3,7.3,0,0,0-.39-2.46,3.36,3.36,0,0,0-1.33-1.72,4.59,4.59,0,0,0-2.59-.63,4.82,4.82,0,0,0-2.57.69,4.93,4.93,0,0,0-1.75,1.9,5.86,5.86,0,0,0-.64,2.79l-1.69-1.05a8.7,8.7,0,0,1,1.15-4.49,8.4,8.4,0,0,1,7.38-4.21,8.14,8.14,0,0,1,4.09.95,6,6,0,0,1,2.51,2.7,9.21,9.21,0,0,1,.85,4.1v12.77Z"/><path class="cls-3" d="M224,314.77a10.34,10.34,0,0,1-4-.71A6.16,6.16,0,0,1,217.3,312a5.36,5.36,0,0,1-1-3.24,5.12,5.12,0,0,1,1.13-3.41,7.3,7.3,0,0,1,3-2.08,16.22,16.22,0,0,1,4.26-.94,43.48,43.48,0,0,0,4.83-.65q1.38-.32,1.38-1v0a2.27,2.27,0,0,0-1.2-2.05,6.56,6.56,0,0,0-3.38-.72,6.36,6.36,0,0,0-3.52.81,2.83,2.83,0,0,0-1.23,2.55h-4.94a6.43,6.43,0,0,1,1.26-4,7.89,7.89,0,0,1,3.47-2.49,13.76,13.76,0,0,1,5-.86,14,14,0,0,1,4.77.78,7.88,7.88,0,0,1,3.48,2.36A6,6,0,0,1,236,300.9v9.2c0,.48,0,.95,0,1.41a7.27,7.27,0,0,0,.2,1.25,4.4,4.4,0,0,0,.46,1,3.79,3.79,0,0,0,.42.57h-4.94a3.13,3.13,0,0,1-.37-.52,5.39,5.39,0,0,1-.43-.9,6.51,6.51,0,0,1-.28-1.23,9.26,9.26,0,0,1-.1-1.45l1,.68a5.54,5.54,0,0,1-1.74,2,8.66,8.66,0,0,1-2.78,1.34A12.33,12.33,0,0,1,224,314.77Zm1.22-3.93a7.53,7.53,0,0,0,2.88-.54,4.76,4.76,0,0,0,2.15-1.64,4.66,4.66,0,0,0,.82-2.86v-2.7l1.21,1.37a16.87,16.87,0,0,1-2.92.75c-1.14.2-2.29.35-3.46.47a9.82,9.82,0,0,0-3.37.78,1.93,1.93,0,0,0-1.13,1.86,2.1,2.1,0,0,0,1,1.88A5.24,5.24,0,0,0,225.17,310.84Z"/><path class="cls-3" d="M246.81,284.65v29.7h-4.92v-29.7Z"/><path class="cls-3" d="M90.06,343.45a3.49,3.49,0,0,1-2.12-.66,2.29,2.29,0,0,1,0-3.64,3.55,3.55,0,0,1,2.12-.64,3.48,3.48,0,0,1,2.09.64,2.31,2.31,0,0,1,0,3.64A3.43,3.43,0,0,1,90.06,343.45Zm-2.49,23.9V347.17h4.94v20.18Z"/><path class="cls-3" d="M98.4,367.35V347.17h5v20.18Zm14.27,0V356a7.3,7.3,0,0,0-.39-2.46,3.36,3.36,0,0,0-1.33-1.72,4.61,4.61,0,0,0-2.59-.63,4.8,4.8,0,0,0-2.57.69,5,5,0,0,0-1.76,1.9,6,6,0,0,0-.63,2.79l-1.69-1.05a8.7,8.7,0,0,1,1.15-4.49,8.37,8.37,0,0,1,7.38-4.21,8.17,8.17,0,0,1,4.09.95,6,6,0,0,1,2.51,2.7,9.35,9.35,0,0,1,.85,4.1v12.77Z"/><path class="cls-3" d="M131.82,367.77a9.13,9.13,0,0,1-4.61-1.21,8.77,8.77,0,0,1-3.39-3.56,12,12,0,0,1-1.27-5.8,11.41,11.41,0,0,1,1.3-5.66,9,9,0,0,1,8-4.71,8.59,8.59,0,0,1,4.39,1.17,8.88,8.88,0,0,1,3.23,3.24,9.2,9.2,0,0,1,1.22,4.75v.3l-2.47.06v-.25a4.6,4.6,0,0,0-.75-2.62,5.46,5.46,0,0,0-1.94-1.76,5.29,5.29,0,0,0-2.52-.63,5.17,5.17,0,0,0-3.72,1.47,6.15,6.15,0,0,0-1.54,4.64,6.23,6.23,0,0,0,1.54,4.66,5.34,5.34,0,0,0,6.28.84,5.26,5.26,0,0,0,1.91-1.84,4.94,4.94,0,0,0,.74-2.69l2.47.12a9.8,9.8,0,0,1-1.19,4.81,9.19,9.19,0,0,1-3.18,3.42A8.27,8.27,0,0,1,131.82,367.77Zm6.37-.42v-29.7h5v29.7Z"/><path class="cls-3" d="M156.31,367.73a7.81,7.81,0,0,1-3.56-.72,5.77,5.77,0,0,1-2.22-1.9,7.59,7.59,0,0,1-1.14-2.6,12.07,12.07,0,0,1-.34-2.85V347.17h5v11.19a9.4,9.4,0,0,0,.32,2.5,3.58,3.58,0,0,0,1.19,1.86,3.83,3.83,0,0,0,2.44.7,4,4,0,0,0,2.59-.89,5.88,5.88,0,0,0,1.68-2.23,6.67,6.67,0,0,0,.6-2.73l1.71,1.14a10.38,10.38,0,0,1-.57,3.46,8.76,8.76,0,0,1-1.66,2.88,7.7,7.7,0,0,1-2.61,2A8.15,8.15,0,0,1,156.31,367.73Zm6.58-.38V347.17h5v20.18Z"/><path class="cls-3" d="M181.81,367.77a14.14,14.14,0,0,1-3.43-.4,9.88,9.88,0,0,1-2.89-1.2,6.07,6.07,0,0,1-2-2,5.11,5.11,0,0,1-.73-2.75V361h5v.34a2,2,0,0,0,1.13,1.85,6.54,6.54,0,0,0,3.09.62,8.65,8.65,0,0,0,2-.23,3.89,3.89,0,0,0,1.52-.7,1.54,1.54,0,0,0,.58-1.22,1.76,1.76,0,0,0-1.23-1.71A18.42,18.42,0,0,0,181,359a25.61,25.61,0,0,1-2.85-.67,10.16,10.16,0,0,1-2.55-1.12,5.86,5.86,0,0,1-1.85-1.75,4.48,4.48,0,0,1-.69-2.54,4.9,4.9,0,0,1,1.19-3.35,7.32,7.32,0,0,1,3.19-2.07,13.52,13.52,0,0,1,4.42-.7,12,12,0,0,1,4.31.76,7.88,7.88,0,0,1,3.22,2.19,5.07,5.07,0,0,1,1.23,3.44v.3h-4.94v-.25a1.94,1.94,0,0,0-.55-1.42,3.41,3.41,0,0,0-1.43-.82,6.21,6.21,0,0,0-1.84-.27,9.17,9.17,0,0,0-1.77.18,3.75,3.75,0,0,0-1.52.63,1.45,1.45,0,0,0-.61,1.25,1.48,1.48,0,0,0,.63,1.23,5.2,5.2,0,0,0,1.75.79,23.72,23.72,0,0,0,2.58.56,23.92,23.92,0,0,1,2.8.63,11.61,11.61,0,0,1,2.6,1.06,5.61,5.61,0,0,1,1.91,1.74,4.67,4.67,0,0,1,.73,2.65,5.2,5.2,0,0,1-.76,2.85,6.22,6.22,0,0,1-2.06,1.95,10,10,0,0,1-2.94,1.13A15.7,15.7,0,0,1,181.81,367.77Z"/><path class="cls-3" d="M205.05,367.73a12,12,0,0,1-2.21-.21,6,6,0,0,1-2.05-.78,4.08,4.08,0,0,1-1.5-1.67,6.33,6.33,0,0,1-.57-2.91v-11H194v-4h1.94a12.44,12.44,0,0,0,1.56-.08,1.31,1.31,0,0,0,.83-.41,1.9,1.9,0,0,0,.35-1,15.81,15.81,0,0,0,.09-1.93v-3.21h5v6.65h6v4h-6v9.48a6.09,6.09,0,0,0,.35,2.26c.22.57.76.86,1.61.86a6,6,0,0,0,1.15-.11,5.84,5.84,0,0,0,.81-.23v3.91a7,7,0,0,1-1.05.27A8,8,0,0,1,205.05,367.73Z"/><path class="cls-3" d="M214.45,367.35V347.17h5v6.71l-1.16-.65a9.81,9.81,0,0,1,.7-2.48,6.88,6.88,0,0,1,1.37-2.05,6,6,0,0,1,2.07-1.38,7.52,7.52,0,0,1,2.77-.49,8.26,8.26,0,0,1,2,.18,3.53,3.53,0,0,1,.89.3l-.92,4.58a3.53,3.53,0,0,0-.77-.34,4.91,4.91,0,0,0-1.54-.2,5.67,5.67,0,0,0-2.58.53,4.16,4.16,0,0,0-1.64,1.4,6,6,0,0,0-.88,1.94,8.88,8.88,0,0,0-.26,2.1v10Z"/><path class="cls-3" d="M233.45,376a12.82,12.82,0,0,1-1.6-.09,4.65,4.65,0,0,1-.87-.16v-3.9a2.82,2.82,0,0,0,.85.18,10,10,0,0,0,1.24.07,3.76,3.76,0,0,0,1.82-.42,4.13,4.13,0,0,0,1.32-1.15,6.19,6.19,0,0,0,.87-1.7l.44-1.27-7-20.41h5.23L240.56,364H240l4.65-16.84h5.13l-7.06,21.42a18.21,18.21,0,0,1-1.8,3.89,7.29,7.29,0,0,1-2.8,2.6A9.87,9.87,0,0,1,233.45,376Z"/><path class="cls-3" d="M256.38,367.88a2.81,2.81,0,0,1-2-4.79,2.8,2.8,0,0,1,4,0,2.8,2.8,0,0,1-2,4.79Zm2.47-28.52-1,20.56h-3l-1-20.56Z"/><path class="cls-3" d="M267.38,344.11a2.74,2.74,0,0,1-2-.72,2.55,2.55,0,0,1-.75-1.94,2.74,2.74,0,0,1,.82-2,3.24,3.24,0,0,1,2.35-.81,2.9,2.9,0,0,1,2.39,1,4.15,4.15,0,0,1,.82,2.67,5,5,0,0,1-.75,2.73,7.13,7.13,0,0,1-1.9,2,10.43,10.43,0,0,1-2.31,1.28l-.59-1.23a7.53,7.53,0,0,0,1.56-.87,5.69,5.69,0,0,0,1.27-1.22,2.47,2.47,0,0,0,.52-1.39,1.17,1.17,0,0,1-.46.3A2.16,2.16,0,0,1,267.38,344.11Zm7.72,0a2.75,2.75,0,0,1-2-.72,2.55,2.55,0,0,1-.75-1.94,2.74,2.74,0,0,1,.83-2,3.17,3.17,0,0,1,2.33-.81,2.89,2.89,0,0,1,2.4,1,4.15,4.15,0,0,1,.83,2.67A5,5,0,0,1,278,345a7.42,7.42,0,0,1-1.9,2,10.37,10.37,0,0,1-2.3,1.28l-.59-1.23a8.24,8.24,0,0,0,1.54-.87A5.91,5.91,0,0,0,276,345a2.42,2.42,0,0,0,.53-1.39,1.17,1.17,0,0,1-.46.3A2.2,2.2,0,0,1,275.1,344.11Z"/><text class="cls-7" transform="translate(85.42 608.79)">PROBLEM</text><line class="cls-8" x1="91.96" y1="621.27" x2="86.69" y2="619.01"/><line class="cls-8" x1="94.81" y1="617.76" x2="91.96" y2="613.74"/><line class="cls-8" x1="92.07" y1="625.49" x2="86.58" y2="626.67"/><circle class="cls-9" cx="105.16" cy="626.91" r="10.35"/><path class="cls-3" d="M115.23,628.57l-.23-.75-.75.22-.22-.75-1.51.45-.22-.75-2.26.67-.22-.75-1.51.45-.9-3-.75.23-.23-.75-1.5.45.23.75-.76.22,2,6.77-.75.23-.23-.75-2.25.67.22.75.11.38.34,1.13.75-.23.23.75.75-.22.45,1.5.75-.22.45,1.5.76-.22.45,1.5.75-.22.45,1.5.22.75,6.77-2,.75-.22-.67-2.26.75-.22-.67-2.26.75-.22L116,628.34Z"/><rect x="105.74" y="624.94" width="0.78" height="9.42" transform="translate(-176.17 56.91) rotate(-16.67)"/><rect x="105.01" y="624.04" width="1.57" height="0.78" transform="translate(-174.69 56.6) rotate(-16.67)"/><rect x="107.66" y="624.32" width="0.78" height="7.06" transform="translate(-175.58 57.39) rotate(-16.67)"/><rect x="108.39" y="627.12" width="1.57" height="0.78" transform="translate(-175.43 57.7) rotate(-16.67)"/><rect x="110.59" y="628.25" width="0.79" height="2.35" transform="translate(-175.91 58.29) rotate(-16.67)"/><rect x="110.1" y="627.31" width="2.35" height="0.78" transform="translate(-175.4 58.31) rotate(-16.67)"/><rect x="113.07" y="628.33" width="0.78" height="2.35" transform="translate(-175.82 59.01) rotate(-16.67)"/><rect x="112.6" y="627.5" width="1.57" height="0.78" transform="translate(-175.36 58.92) rotate(-16.67)"/><rect x="114.35" y="627.91" width="0.79" height="0.79" transform="translate(-175.42 59.33) rotate(-16.67)"/><rect x="116" y="628.34" width="0.78" height="5.49" transform="translate(-176.15 59.92) rotate(-16.67)"/><rect x="116.37" y="633.9" width="0.79" height="2.35" transform="translate(-177.28 60.19) rotate(-16.67)"/><rect x="116.3" y="636.38" width="0.78" height="2.35" transform="translate(-178 60.27) rotate(-16.67)"/><rect x="109.62" y="639.04" width="7.06" height="0.78" transform="translate(-178.68 59.34) rotate(-16.67)"/><rect x="105.77" y="632.12" width="0.78" height="0.78" transform="translate(-176.99 57.04) rotate(-16.67)"/><rect x="103.26" y="631.82" width="2.35" height="0.78" transform="translate(-176.98 56.53) rotate(-16.67)"/><rect x="103.63" y="632.78" width="0.79" height="1.57" transform="translate(-177.38 56.47) rotate(-16.67)"/><rect x="104.72" y="634.07" width="0.78" height="0.78" transform="translate(-177.6 56.82) rotate(-16.67)"/><rect x="105.81" y="634.58" width="0.78" height="1.57" transform="translate(-177.81 57.17) rotate(-16.67)"/><rect x="107.01" y="635.86" width="0.78" height="1.57" transform="translate(-178.13 57.57) rotate(-16.67)"/><rect x="108.22" y="637.14" width="0.78" height="1.57" transform="translate(-178.44 57.97) rotate(-16.67)"/><rect x="109.42" y="638.42" width="0.79" height="1.57" transform="translate(-178.76 58.37) rotate(-16.67)"/><path class="cls-3" d="M86.66,608.79H86v-5.9h1.66a2.28,2.28,0,0,1,1.13.25,1.71,1.71,0,0,1,.68.68,2.05,2.05,0,0,1,.22,1,2,2,0,0,1-.23,1,1.74,1.74,0,0,1-.68.72,2.16,2.16,0,0,1-1.12.27h-1Zm0-2.31-.3-.35h1.19a1.72,1.72,0,0,0,.8-.17,1.17,1.17,0,0,0,.48-.48,1.57,1.57,0,0,0,.15-.7,1.48,1.48,0,0,0-.15-.7,1,1,0,0,0-.46-.44,2,2,0,0,0-.82-.15H86.36l.3-.39Z"/><path class="cls-3" d="M91.38,608.79v-5.9h2.05a1.74,1.74,0,0,1,1.23.38,1.49,1.49,0,0,1,.43,1.17,1.61,1.61,0,0,1-.18.8,1.46,1.46,0,0,1-.43.51A1,1,0,0,1,94,606a1.16,1.16,0,0,1,.43.12.94.94,0,0,1,.35.31,1,1,0,0,1,.14.57v1.34a2.69,2.69,0,0,0,0,.31.39.39,0,0,0,.07.18h-.69a.93.93,0,0,1-.06-.18,2.69,2.69,0,0,1,0-.31V607a.7.7,0,0,0-.25-.58,1.12,1.12,0,0,0-.7-.19H91.86l.19-.26v2.78Zm.67-2.84-.19-.28h1.46a1,1,0,0,0,.53-.15,1,1,0,0,0,.39-.41,1.2,1.2,0,0,0,.15-.61.94.94,0,0,0-.29-.78,1.26,1.26,0,0,0-.83-.23H91.84l.21-.3Z"/><path class="cls-3" d="M99.14,608.87a2.17,2.17,0,0,1-1-.21,2.08,2.08,0,0,1-.74-.59,2.73,2.73,0,0,1-.5-1,4.9,4.9,0,0,1,0-2.56,2.68,2.68,0,0,1,.5-.95,2.14,2.14,0,0,1,.75-.59,2.23,2.23,0,0,1,.94-.19,2.3,2.3,0,0,1,1,.19,2.14,2.14,0,0,1,.75.59,2.84,2.84,0,0,1,.49.95,4.9,4.9,0,0,1,0,2.56,2.89,2.89,0,0,1-.49,1,2,2,0,0,1-.75.59A2.17,2.17,0,0,1,99.14,608.87Zm0-.62A1.45,1.45,0,0,0,100,608a1.72,1.72,0,0,0,.59-.8,3.75,3.75,0,0,0,.21-1.35,3.44,3.44,0,0,0-.22-1.34,1.58,1.58,0,0,0-.59-.79,1.41,1.41,0,0,0-.86-.26,1.43,1.43,0,0,0-.86.26,1.64,1.64,0,0,0-.59.79,3.44,3.44,0,0,0-.22,1.34,3.53,3.53,0,0,0,.22,1.35,1.75,1.75,0,0,0,.59.81A1.5,1.5,0,0,0,99.14,608.25Z"/><path class="cls-3" d="M105.23,602.89a2.52,2.52,0,0,1,.93.15,1.19,1.19,0,0,1,.59.46,1.47,1.47,0,0,1,.2.79,1.38,1.38,0,0,1-.19.76,1.25,1.25,0,0,1-.47.47,1.51,1.51,0,0,1-.61.17,1.87,1.87,0,0,1,.66.15,1.26,1.26,0,0,1,.53.47,1.49,1.49,0,0,1,.21.84,1.78,1.78,0,0,1-.21.89,1.29,1.29,0,0,1-.62.55,2.49,2.49,0,0,1-1,.2h-1.93v-5.9Zm-1.3,2.76-.23-.24h1.21a1.7,1.7,0,0,0,1-.25,1,1,0,0,0,.21-1.3.86.86,0,0,0-.42-.29,2.35,2.35,0,0,0-.63-.08h-1.45l.31-.39Zm1.14,2.54a1.56,1.56,0,0,0,1-.27,1,1,0,0,0,.35-.8,1.08,1.08,0,0,0-.12-.54.92.92,0,0,0-.31-.34,1.33,1.33,0,0,0-.46-.17A2.35,2.35,0,0,0,105,606H103.7l.23-.23v2.79l-.31-.38Z"/><path class="cls-3" d="M108.93,608.79v-5.9h.68v5.68l-.31-.38h2.64v.6Z"/><path class="cls-3" d="M114,603.49l.31-.39v2.66l-.17-.23h2.26v.6h-2.26l.17-.24v2.68l-.31-.38h2.85v.6h-3.23v-5.9h3.23v.6Z"/><path class="cls-3" d="M122.94,602.89h1.18v5.9h-.65v-5.36h0l-1.5,5.35h-1l-1.51-5.35h0v5.36h-.65v-5.9h1.18l1.45,5.35h0Z"/><path class="cls-3" d="M140.59,626.36A3.29,3.29,0,0,1,139,626a2.71,2.71,0,0,1-1.09-1.06,3.14,3.14,0,0,1-.4-1.62,3,3,0,0,1,.4-1.6,2.73,2.73,0,0,1,1.09-1,3.4,3.4,0,0,1,1.58-.36,3.32,3.32,0,0,1,1.18.2,2.6,2.6,0,0,1,.87.53,2.38,2.38,0,0,1,.55.73,1.91,1.91,0,0,1,.19.79v0h-1.19v-.13a1.14,1.14,0,0,0-.26-.58,1.43,1.43,0,0,0-.55-.4,1.92,1.92,0,0,0-.79-.15,1.9,1.9,0,0,0-.92.22,1.63,1.63,0,0,0-.68.65,2.18,2.18,0,0,0-.25,1.1,2.22,2.22,0,0,0,.25,1.11,1.69,1.69,0,0,0,.67.68,2.18,2.18,0,0,0,1.82.06,1.21,1.21,0,0,0,.52-.45,1.23,1.23,0,0,0,.2-.61h1.19a1.84,1.84,0,0,1-.19.8,2.17,2.17,0,0,1-.53.73,2.51,2.51,0,0,1-.87.53A3.43,3.43,0,0,1,140.59,626.36Z"/><path class="cls-3" d="M146.18,617.65v8.59H145v-8.59Z"/><path class="cls-3" d="M148.6,619.19a.88.88,0,0,1-.53-.16.56.56,0,0,1-.22-.47.54.54,0,0,1,.22-.46.91.91,0,0,1,1.06,0,.57.57,0,0,1,.22.46.59.59,0,0,1-.22.47A.88.88,0,0,1,148.6,619.19Zm-.59,7V620.4h1.17v5.84Z"/><path class="cls-3" d="M153.82,626.36a3.29,3.29,0,0,1-1.58-.37,2.78,2.78,0,0,1-1.09-1.06,3.14,3.14,0,0,1-.4-1.62,3,3,0,0,1,.4-1.6,2.79,2.79,0,0,1,1.09-1,3.4,3.4,0,0,1,1.58-.36,3.32,3.32,0,0,1,1.18.2,2.65,2.65,0,0,1,.88.53,2.2,2.2,0,0,1,.54.73,1.76,1.76,0,0,1,.19.79v0h-1.18s0,0,0-.07v-.06a1.12,1.12,0,0,0-.25-.58,1.51,1.51,0,0,0-.55-.4,2,2,0,0,0-.8-.15,1.92,1.92,0,0,0-.92.22,1.63,1.63,0,0,0-.68.65,2.29,2.29,0,0,0-.25,1.1,2.22,2.22,0,0,0,.25,1.11,1.69,1.69,0,0,0,.67.68,2.18,2.18,0,0,0,1.82.06,1.16,1.16,0,0,0,.52-.45,1.35,1.35,0,0,0,.21-.61h1.18a2,2,0,0,1-.18.8,2.2,2.2,0,0,1-.54.73,2.51,2.51,0,0,1-.87.53A3.39,3.39,0,0,1,153.82,626.36Z"/><path class="cls-3" d="M158.15,626.24v-8.59h1.13v5.15l-.29-.14,2.61-2.26h1.5l-2.83,2.51.29-.54,2.54,3.87h-1.27L159.78,623l.27.08-.92.81.15-.54v2.87Z"/><path class="cls-3" d="M170,626.34a2.9,2.9,0,0,1-1.51-.39,2.77,2.77,0,0,1-1-1.08,3.2,3.2,0,0,1-.37-1.55,3.14,3.14,0,0,1,.37-1.55,2.79,2.79,0,0,1,1-1.06,3.21,3.21,0,0,1,3,0,2.79,2.79,0,0,1,1,1.06,3.26,3.26,0,0,1,.37,1.55,3.32,3.32,0,0,1-.37,1.55,2.77,2.77,0,0,1-1,1.08A2.91,2.91,0,0,1,170,626.34Zm0-.62a2.13,2.13,0,0,0,2-1.16,2.63,2.63,0,0,0,.28-1.24,2.61,2.61,0,0,0-.28-1.24,2.11,2.11,0,0,0-.79-.83,2.41,2.41,0,0,0-2.33,0,2.11,2.11,0,0,0-.79.83,2.61,2.61,0,0,0-.29,1.24,2.64,2.64,0,0,0,.29,1.24,2.13,2.13,0,0,0,2,1.16Z"/><path class="cls-3" d="M174.78,626.24V620.4h.68v5.84Zm4.2,0V622.6a1.94,1.94,0,0,0-.18-.86,1.27,1.27,0,0,0-.53-.57,1.75,1.75,0,0,0-.91-.21,1.85,1.85,0,0,0-.93.25,2,2,0,0,0-.71.66,1.77,1.77,0,0,0-.26.94l-.42-.15a2.13,2.13,0,0,1,.35-1.19,2.42,2.42,0,0,1,.9-.84,2.38,2.38,0,0,1,1.19-.31,2.47,2.47,0,0,1,1.15.25,1.82,1.82,0,0,1,.76.72,2.37,2.37,0,0,1,.26,1.14v3.81Z"/><path class="cls-3" d="M185.05,618.93a.59.59,0,0,1-.37-.12.43.43,0,0,1-.15-.34.39.39,0,0,1,.15-.32.54.54,0,0,1,.37-.13.52.52,0,0,1,.36.13.4.4,0,0,1,.16.32.44.44,0,0,1-.16.34A.56.56,0,0,1,185.05,618.93Zm-.34,7.31V620.4h.67v5.84Z"/><path class="cls-3" d="M189.57,626.33a1.86,1.86,0,0,1-.48-.06,1,1,0,0,1-.42-.21,1.09,1.09,0,0,1-.29-.44,2,2,0,0,1-.1-.7V621h-1.41v-.6h1.24a.17.17,0,0,0,.12,0,.39.39,0,0,0,0-.14c0-.06,0-.15,0-.26v-1.42H189v1.88h1.87v.6H189v3.68a1.62,1.62,0,0,0,.15.77.55.55,0,0,0,.55.28l.3,0a.9.9,0,0,0,.23-.07v.6a1.2,1.2,0,0,1-.26.07Z"/><path class="cls-3" d="M197.36,626.33a1.86,1.86,0,0,1-.48-.06,1,1,0,0,1-.42-.21,1.09,1.09,0,0,1-.29-.44,2,2,0,0,1-.1-.7V621h-1.41v-.6h1.24a.13.13,0,0,0,.11,0,.26.26,0,0,0,.05-.14c0-.06,0-.15,0-.26v-1.42h.68v1.88h1.87v.6h-1.87v3.68a1.76,1.76,0,0,0,.14.77.57.57,0,0,0,.56.28l.3,0a.71.71,0,0,0,.22-.07v.6a1,1,0,0,1-.25.07Z"/><path class="cls-3" d="M202.6,626.34a2.94,2.94,0,0,1-1.52-.39,2.75,2.75,0,0,1-1-1.08,3.2,3.2,0,0,1-.38-1.55,3.15,3.15,0,0,1,.38-1.55,2.76,2.76,0,0,1,1-1.06,3.23,3.23,0,0,1,3,0,2.76,2.76,0,0,1,1,1.06,3.15,3.15,0,0,1,.38,1.55,3.2,3.2,0,0,1-.38,1.55,2.75,2.75,0,0,1-1,1.08A2.94,2.94,0,0,1,202.6,626.34Zm0-.62a2.12,2.12,0,0,0,1.16-.31,2.09,2.09,0,0,0,.79-.85,2.64,2.64,0,0,0,.29-1.24,2.61,2.61,0,0,0-.29-1.24,2,2,0,0,0-.79-.83,2.2,2.2,0,0,0-1.16-.3,2.23,2.23,0,0,0-1.16.3,2,2,0,0,0-.79.83,2.61,2.61,0,0,0-.29,1.24,2.64,2.64,0,0,0,.29,1.24,2.09,2.09,0,0,0,.79.85A2.14,2.14,0,0,0,202.6,625.72Z"/><path class="cls-3" d="M213,626.34a2.9,2.9,0,0,1-1.51-.39,2.77,2.77,0,0,1-1-1.08,3.2,3.2,0,0,1-.37-1.55,3.14,3.14,0,0,1,.37-1.55,2.79,2.79,0,0,1,1-1.06,3.21,3.21,0,0,1,3,0,2.79,2.79,0,0,1,1,1.06,3.14,3.14,0,0,1,.37,1.55,3.2,3.2,0,0,1-.37,1.55,2.77,2.77,0,0,1-1,1.08A2.91,2.91,0,0,1,213,626.34Zm0-.62a2.13,2.13,0,0,0,2-1.16,2.63,2.63,0,0,0,.28-1.24,2.61,2.61,0,0,0-.28-1.24,2.11,2.11,0,0,0-.79-.83,2.41,2.41,0,0,0-2.33,0,2.11,2.11,0,0,0-.79.83,2.61,2.61,0,0,0-.28,1.24,2.63,2.63,0,0,0,.28,1.24,2.13,2.13,0,0,0,1.95,1.16Z"/><path class="cls-3" d="M217.74,628.65V620.4h.68v8.25Zm2.69-2.3a2.57,2.57,0,0,1-2.16-1.21,2.21,2.21,0,0,1-.35-1.24v0h.5v0a1.64,1.64,0,0,0,.27.91,2,2,0,0,0,.7.67,2,2,0,0,0,1,.25,1.82,1.82,0,0,0,1.4-.61,3.2,3.2,0,0,0,0-3.56,1.82,1.82,0,0,0-1.4-.6,1.88,1.88,0,0,0-1,.25,1.93,1.93,0,0,0-.7.66,1.64,1.64,0,0,0-.27.91h-.5a2.22,2.22,0,0,1,.35-1.25,2.57,2.57,0,0,1,2.16-1.18,2.4,2.4,0,0,1,2.21,1.37,3.54,3.54,0,0,1,.34,1.63,3.6,3.6,0,0,1-.34,1.65,2.36,2.36,0,0,1-.91,1A2.51,2.51,0,0,1,220.43,626.35Z"/><path class="cls-3" d="M224.94,623.61V623h4.73l-.13.19v-.11a2.39,2.39,0,0,0-.24-1.06,2,2,0,0,0-.71-.79,2,2,0,0,0-1.11-.29,2.31,2.31,0,0,0-1.19.3,2.2,2.2,0,0,0-.79.84,2.54,2.54,0,0,0-.29,1.25,2.69,2.69,0,0,0,.28,1.26,2.09,2.09,0,0,0,.8.84,2.31,2.31,0,0,0,1.19.3,2.53,2.53,0,0,0,.87-.13,1.9,1.9,0,0,0,.62-.32,1.6,1.6,0,0,0,.37-.43,1,1,0,0,0,.15-.44h.68a1.49,1.49,0,0,1-.21.67,2.29,2.29,0,0,1-.52.63,2.65,2.65,0,0,1-.83.47,3.43,3.43,0,0,1-1.15.17A2.9,2.9,0,0,1,226,626a2.83,2.83,0,0,1-1-1.06,3.43,3.43,0,0,1,0-3.14,2.79,2.79,0,0,1,1-1.06,2.89,2.89,0,0,1,1.5-.39,2.76,2.76,0,0,1,1.49.39,2.61,2.61,0,0,1,1,1.06,3.24,3.24,0,0,1,.34,1.5v.18a1.1,1.1,0,0,0,0,.16Z"/><path class="cls-3" d="M232.09,626.24V620.4h.68v5.84Zm4.2,0V622.6a2.09,2.09,0,0,0-.17-.86,1.32,1.32,0,0,0-.53-.57,1.82,1.82,0,0,0-.92-.21,1.91,1.91,0,0,0-.93.25,1.93,1.93,0,0,0-.7.66,1.69,1.69,0,0,0-.27.94l-.41-.15a2.12,2.12,0,0,1,.34-1.19,2.37,2.37,0,0,1,.91-.84,2.34,2.34,0,0,1,1.18-.31,2.51,2.51,0,0,1,1.16.25,1.86,1.86,0,0,1,.75.72,2.26,2.26,0,0,1,.27,1.14v3.81Z"/><path class="cls-3" d="M244,626.33a1.86,1.86,0,0,1-.48-.06,1,1,0,0,1-.42-.21,1.09,1.09,0,0,1-.29-.44,2,2,0,0,1-.1-.7V621h-1.41v-.6h1.24a.13.13,0,0,0,.11,0,.26.26,0,0,0,.05-.14c0-.06,0-.15,0-.26v-1.42h.68v1.88h1.87v.6h-1.87v3.68a1.76,1.76,0,0,0,.14.77.57.57,0,0,0,.56.28l.3,0a.9.9,0,0,0,.23-.07v.6a1.2,1.2,0,0,1-.26.07Z"/><path class="cls-3" d="M246.79,626.24v-8.59h.68v8.59Zm4.21,0v-3.42a2.07,2.07,0,0,0-.4-1.37,1.5,1.5,0,0,0-1.22-.49,2,2,0,0,0-1,.24,1.72,1.72,0,0,0-.67.61,1.56,1.56,0,0,0-.25.84l-.45-.13a2,2,0,0,1,.32-1.09,2.32,2.32,0,0,1,.87-.8,2.58,2.58,0,0,1,1.28-.31,2.07,2.07,0,0,1,1.62.63,2.54,2.54,0,0,1,.57,1.75v3.54Z"/><path class="cls-3" d="M253.85,623.61V623h4.73l-.13.19v-.11a2.4,2.4,0,0,0-.25-1.06,1.91,1.91,0,0,0-.7-.79,2.07,2.07,0,0,0-1.12-.29,2.3,2.3,0,0,0-1.18.3,2.22,2.22,0,0,0-.8.84,2.65,2.65,0,0,0-.28,1.25,2.69,2.69,0,0,0,.28,1.26,2.07,2.07,0,0,0,.79.84,2.35,2.35,0,0,0,1.2.3,2.57,2.57,0,0,0,.87-.13,2,2,0,0,0,.62-.32,1.81,1.81,0,0,0,.37-.43,1,1,0,0,0,.15-.44h.68a1.79,1.79,0,0,1-.21.67,2.49,2.49,0,0,1-.52.63,2.71,2.71,0,0,1-.84.47,3.33,3.33,0,0,1-1.14.17,2.9,2.9,0,0,1-1.51-.38,2.76,2.76,0,0,1-1-1.06,3.43,3.43,0,0,1,0-3.14,2.72,2.72,0,0,1,1-1.06,2.89,2.89,0,0,1,1.5-.39,2.78,2.78,0,0,1,1.49.39,2.68,2.68,0,0,1,1,1.06,3.37,3.37,0,0,1,.34,1.5,1.21,1.21,0,0,1,0,.18.67.67,0,0,1,0,.16Z"/><path class="cls-3" d="M266.64,626.35a3,3,0,0,1-1.47-.36,2.74,2.74,0,0,1-1.07-1,3.5,3.5,0,0,1,0-3.25,2.62,2.62,0,0,1,1.07-1,3,3,0,0,1,1.47-.36,2.86,2.86,0,0,1,1.09.19,2.62,2.62,0,0,1,.83.5,2.33,2.33,0,0,1,.51.68,1.8,1.8,0,0,1,.17.73h0v0h-.67s0,0,0-.06v-.07a1.36,1.36,0,0,0-.32-.71,2.05,2.05,0,0,0-.68-.49,2.27,2.27,0,0,0-.93-.18,2.33,2.33,0,0,0-1.1.27,2.07,2.07,0,0,0-.82.79,3,3,0,0,0,0,2.65,2.13,2.13,0,0,0,.82.81,2.3,2.3,0,0,0,1.1.27,2.26,2.26,0,0,0,1.07-.22,1.59,1.59,0,0,0,.64-.55,1.49,1.49,0,0,0,.23-.71h.67a1.69,1.69,0,0,1-.17.74,2,2,0,0,1-.49.68,2.34,2.34,0,0,1-.81.49A3.08,3.08,0,0,1,266.64,626.35Z"/><path class="cls-3" d="M273.74,626.34a2.91,2.91,0,0,1-1.52-.39,2.77,2.77,0,0,1-1-1.08,3.32,3.32,0,0,1-.37-1.55,3.26,3.26,0,0,1,.37-1.55,2.79,2.79,0,0,1,1-1.06,3.21,3.21,0,0,1,3,0,2.79,2.79,0,0,1,1,1.06,3.14,3.14,0,0,1,.37,1.55,3.2,3.2,0,0,1-.37,1.55,2.77,2.77,0,0,1-1,1.08A2.9,2.9,0,0,1,273.74,626.34Zm0-.62a2.13,2.13,0,0,0,1.95-1.16,2.64,2.64,0,0,0,.29-1.24,2.61,2.61,0,0,0-.29-1.24,2.11,2.11,0,0,0-.79-.83,2.23,2.23,0,0,0-1.16-.3,2.2,2.2,0,0,0-1.16.3,2.06,2.06,0,0,0-.8.83,2.61,2.61,0,0,0-.28,1.24,2.63,2.63,0,0,0,.28,1.24,2.16,2.16,0,0,0,2,1.16Z"/><path class="cls-3" d="M278.49,626.24V620.4h.68v5.84Zm4.2,0V622.6a2.09,2.09,0,0,0-.17-.86,1.39,1.39,0,0,0-.53-.57,1.82,1.82,0,0,0-.92-.21,1.91,1.91,0,0,0-.93.25,1.85,1.85,0,0,0-.7.66,1.69,1.69,0,0,0-.27.94l-.41-.15a2.12,2.12,0,0,1,.34-1.19,2.56,2.56,0,0,1,3.24-.9,1.82,1.82,0,0,1,.76.72,2.26,2.26,0,0,1,.27,1.14v3.81Z"/><path class="cls-3" d="M285.4,626.24V620.4h.68v5.84Zm4.2,0V622.6a1.94,1.94,0,0,0-.17-.86,1.32,1.32,0,0,0-.53-.57A1.79,1.79,0,0,0,288,621a1.91,1.91,0,0,0-.93.25,1.93,1.93,0,0,0-.7.66,1.69,1.69,0,0,0-.27.94l-.41-.15a2.2,2.2,0,0,1,.34-1.19,2.37,2.37,0,0,1,.91-.84,2.34,2.34,0,0,1,1.18-.31,2.48,2.48,0,0,1,1.16.25,1.8,1.8,0,0,1,.75.72,2.26,2.26,0,0,1,.27,1.14v3.81Z"/><path class="cls-3" d="M292.45,623.61V623h4.73l-.14.19v-.11a2.39,2.39,0,0,0-.24-1.06,1.91,1.91,0,0,0-.7-.79,2.07,2.07,0,0,0-1.12-.29,2.28,2.28,0,0,0-1.18.3,2.22,2.22,0,0,0-.8.84,2.65,2.65,0,0,0-.28,1.25,2.69,2.69,0,0,0,.28,1.26,2.07,2.07,0,0,0,.79.84,2.35,2.35,0,0,0,1.2.3,2.57,2.57,0,0,0,.87-.13,2,2,0,0,0,.62-.32,1.81,1.81,0,0,0,.37-.43,1,1,0,0,0,.15-.44h.68a1.79,1.79,0,0,1-.21.67,2.49,2.49,0,0,1-.52.63,2.83,2.83,0,0,1-.84.47,3.33,3.33,0,0,1-1.14.17,2.9,2.9,0,0,1-1.51-.38,2.76,2.76,0,0,1-1-1.06,3.43,3.43,0,0,1,0-3.14,2.72,2.72,0,0,1,1-1.06,2.89,2.89,0,0,1,1.5-.39,2.78,2.78,0,0,1,1.49.39,2.59,2.59,0,0,1,1,1.06,3.25,3.25,0,0,1,.35,1.5c0,.05,0,.11,0,.18a.67.67,0,0,1,0,.16Z"/><path class="cls-3" d="M302.26,626.35a3,3,0,0,1-1.46-.36,2.74,2.74,0,0,1-1.07-1,3.5,3.5,0,0,1,0-3.25,2.62,2.62,0,0,1,1.07-1,3,3,0,0,1,1.46-.36,2.92,2.92,0,0,1,1.1.19,2.47,2.47,0,0,1,.82.5,2,2,0,0,1,.51.68,1.67,1.67,0,0,1,.18.73h0v0h-.68v-.06a.15.15,0,0,0,0-.07,1.27,1.27,0,0,0-.31-.71,2.05,2.05,0,0,0-.68-.49,2.27,2.27,0,0,0-.93-.18,2.33,2.33,0,0,0-1.1.27,2.07,2.07,0,0,0-.82.79,3,3,0,0,0,0,2.65,2.13,2.13,0,0,0,.82.81,2.53,2.53,0,0,0,2.17,0A1.59,1.59,0,0,0,304,625a1.37,1.37,0,0,0,.22-.71h.68a1.85,1.85,0,0,1-.17.74,2,2,0,0,1-.49.68,2.3,2.3,0,0,1-.82.49A3,3,0,0,1,302.26,626.35Z"/><path class="cls-3" d="M308.61,626.33a2,2,0,0,1-.49-.06,1.07,1.07,0,0,1-.41-.21,1,1,0,0,1-.29-.44,1.94,1.94,0,0,1-.11-.7V621H305.9v-.6h1.24a.14.14,0,0,0,.12,0,.38.38,0,0,0,.05-.14v-1.68H308v1.88h1.87v.6H308v3.68a1.62,1.62,0,0,0,.15.77.56.56,0,0,0,.55.28l.31,0a.71.71,0,0,0,.22-.07v.6a1.05,1.05,0,0,1-.26.07Z"/><path class="cls-3" d="M311.77,618.93a.59.59,0,0,1-.37-.12.43.43,0,0,1-.15-.34.39.39,0,0,1,.15-.32.54.54,0,0,1,.37-.13.52.52,0,0,1,.36.13.4.4,0,0,1,.16.32.44.44,0,0,1-.16.34A.56.56,0,0,1,311.77,618.93Zm-.34,7.31V620.4h.67v5.84Z"/><path class="cls-3" d="M316.9,626.34a2.9,2.9,0,0,1-1.51-.39,2.77,2.77,0,0,1-1-1.08,3.2,3.2,0,0,1-.37-1.55,3.14,3.14,0,0,1,.37-1.55,2.79,2.79,0,0,1,1-1.06,3.21,3.21,0,0,1,3,0,2.79,2.79,0,0,1,1,1.06,3.14,3.14,0,0,1,.37,1.55,3.2,3.2,0,0,1-.37,1.55,2.77,2.77,0,0,1-1,1.08A2.91,2.91,0,0,1,316.9,626.34Zm0-.62a2.13,2.13,0,0,0,2-1.16,2.63,2.63,0,0,0,.28-1.24,2.61,2.61,0,0,0-.28-1.24,2.11,2.11,0,0,0-.79-.83,2.41,2.41,0,0,0-2.33,0,2.11,2.11,0,0,0-.79.83,2.61,2.61,0,0,0-.28,1.24,2.63,2.63,0,0,0,.28,1.24,2.13,2.13,0,0,0,1.95,1.16Z"/><path class="cls-3" d="M321.66,626.24V620.4h.68v5.84Zm4.2,0V622.6a2.09,2.09,0,0,0-.17-.86,1.35,1.35,0,0,0-.54-.57,1.75,1.75,0,0,0-.91-.21,1.91,1.91,0,0,0-.93.25,1.85,1.85,0,0,0-.7.66,1.69,1.69,0,0,0-.27.94l-.41-.15a2.12,2.12,0,0,1,.34-1.19,2.42,2.42,0,0,1,.9-.84,2.38,2.38,0,0,1,1.19-.31,2.44,2.44,0,0,1,1.15.25,1.82,1.82,0,0,1,.76.72,2.26,2.26,0,0,1,.27,1.14v3.81Z"/><path class="cls-3" d="M330.69,626.35a4.08,4.08,0,0,1-1-.11,2.33,2.33,0,0,1-.75-.32,1.62,1.62,0,0,1-.49-.52,1.45,1.45,0,0,1-.18-.7v-.19H329v.16a.93.93,0,0,0,.47.79,2.4,2.4,0,0,0,1.24.27,3,3,0,0,0,.89-.11,1.35,1.35,0,0,0,.6-.34.7.7,0,0,0,.22-.54A.78.78,0,0,0,332,624a5.21,5.21,0,0,0-1.35-.38,6.41,6.41,0,0,1-.86-.2,2.66,2.66,0,0,1-.7-.32,1.32,1.32,0,0,1-.47-.47,1.36,1.36,0,0,1-.17-.69,1.27,1.27,0,0,1,.31-.87,1.82,1.82,0,0,1,.83-.54,3.52,3.52,0,0,1,2.28,0,2,2,0,0,1,.84.56,1.43,1.43,0,0,1,.31.95v.12h-.68V622a.9.9,0,0,0-.23-.64,1.34,1.34,0,0,0-.59-.36,2.76,2.76,0,0,0-.77-.11,2.88,2.88,0,0,0-.78.1,1.53,1.53,0,0,0-.61.31.7.7,0,0,0-.23.56.73.73,0,0,0,.22.56,1.57,1.57,0,0,0,.62.34,7.9,7.9,0,0,0,.93.23,8.59,8.59,0,0,1,.9.21,2.84,2.84,0,0,1,.7.31,1.32,1.32,0,0,1,.47.47,1.46,1.46,0,0,1,.16.69,1.39,1.39,0,0,1-.18.71,1.55,1.55,0,0,1-.51.51,2.25,2.25,0,0,1-.76.31A4,4,0,0,1,330.69,626.35Z"/><path class="cls-3" d="M335.32,626.38a.55.55,0,0,1-.55-.55.53.53,0,0,1,.16-.39.53.53,0,0,1,.39-.16.57.57,0,0,1,.39.16.53.53,0,0,1,.16.39.5.5,0,0,1-.16.39A.53.53,0,0,1,335.32,626.38Z"/></g></g></svg>