<svg xmlns="http://www.w3.org/2000/svg" viewBox="0 0 440 671.99"><defs><style>.cls-1,.cls-5{fill:#fff;}.cls-1{opacity:0.05;}.cls-2,.cls-4{fill:none;stroke-miterlimit:10;stroke-width:0.5px;}.cls-2{stroke:#00c4ff;}.cls-3{fill:#ea85ff;}.cls-4{stroke:#fff;}.cls-6{fill:#e200ff;}</style></defs><g id="Layer_2" data-name="Layer 2"><g id="Layer_1-2" data-name="Layer 1"><rect class="cls-1" width="440" height="671.99" rx="22.03"/><line class="cls-2" x1="115.05" y1="623.77" x2="151.18" y2="608.27"/><circle class="cls-3" cx="151.18" cy="608.27" r="3.89"/><line class="cls-4" x1="146.56" y1="605.35" x2="143.35" y2="603.79"/><line class="cls-4" x1="147.86" y1="603.91" x2="145.26" y2="600.24"/><line class="cls-4" x1="149.78" y1="603.45" x2="149.79" y2="599.51"/><path class="cls-5" d="M93.36,155.56l-4.77-31.71h5.85l3.65,30.23-.81,0,5.84-30.19h7.14L116.09,154l-.82,0,3.66-30.23h5.87L120,155.56h-8.69l-4.9-27.6h.6l-4.9,27.6Z"/><path class="cls-5" d="M130.32,155.56V122H136v33.6Zm16.17,0v-12.4a7.28,7.28,0,0,0-1.11-4.35,4.36,4.36,0,0,0-3.77-1.52,6.13,6.13,0,0,0-3,.7,4.75,4.75,0,0,0-1.93,1.94,6.13,6.13,0,0,0-.66,2.89l-2.07-1.1a9.39,9.39,0,0,1,1.24-4.85,8.76,8.76,0,0,1,3.43-3.32,10.31,10.31,0,0,1,5-1.2,8.05,8.05,0,0,1,6.34,2.46,9.93,9.93,0,0,1,2.19,6.84v13.91Z"/><path class="cls-5" d="M166.51,156a11.59,11.59,0,0,1-4.5-.81,6.88,6.88,0,0,1-3-2.33,6.14,6.14,0,0,1-1.1-3.68,5.8,5.8,0,0,1,1.28-3.86,8.32,8.32,0,0,1,3.45-2.34,17.82,17.82,0,0,1,4.82-1.06,50.21,50.21,0,0,0,5.47-.75c1-.23,1.56-.62,1.56-1.15v0a2.57,2.57,0,0,0-1.35-2.32,7.42,7.42,0,0,0-3.83-.82,7.22,7.22,0,0,0-4,.92,3.21,3.21,0,0,0-1.39,2.89h-5.59a7.25,7.25,0,0,1,1.43-4.55,8.9,8.9,0,0,1,3.93-2.83,15.6,15.6,0,0,1,5.65-1,15.81,15.81,0,0,1,5.4.88,8.84,8.84,0,0,1,3.93,2.66,6.74,6.74,0,0,1,1.49,4.45v10.41c0,.54,0,1.08.05,1.6a7.16,7.16,0,0,0,.23,1.41,4.81,4.81,0,0,0,.51,1.16,3.89,3.89,0,0,0,.47.64h-5.59a2.91,2.91,0,0,1-.41-.59,5.38,5.38,0,0,1-.49-1,8.19,8.19,0,0,1-.32-1.38,11.91,11.91,0,0,1-.11-1.65l1.12.77a6.28,6.28,0,0,1-2,2.29,9.82,9.82,0,0,1-3.15,1.52A14,14,0,0,1,166.51,156Zm1.37-4.45a8.73,8.73,0,0,0,3.27-.6,5.63,5.63,0,0,0,2.43-1.86,5.38,5.38,0,0,0,.92-3.24v-3l1.38,1.55a18.69,18.69,0,0,1-3.31.84c-1.29.23-2.6.4-3.91.53a11.13,11.13,0,0,0-3.82.88,2.2,2.2,0,0,0-1.28,2.11,2.4,2.4,0,0,0,1.07,2.13A6,6,0,0,0,167.88,151.59Z"/><path class="cls-5" d="M196.41,156a13.34,13.34,0,0,1-2.49-.23,6.77,6.77,0,0,1-2.32-.88,4.58,4.58,0,0,1-1.7-1.9,7.13,7.13,0,0,1-.65-3.28V137.25h-5.39v-4.52h2.19a13.45,13.45,0,0,0,1.76-.09,1.46,1.46,0,0,0,.95-.47,2.26,2.26,0,0,0,.4-1.15,20.26,20.26,0,0,0,.09-2.18v-3.63h5.68v7.52h6.79v4.52h-6.79V148a6.92,6.92,0,0,0,.39,2.56c.25.65.86,1,1.82,1a6,6,0,0,0,1.3-.13,4.47,4.47,0,0,0,.92-.26v4.43a8,8,0,0,1-1.19.3A9.24,9.24,0,0,1,196.41,156Z"/><path class="cls-5" d="M101.1,209a13.3,13.3,0,0,1-6.38-1.49,10.78,10.78,0,0,1-4.35-4.17,12.32,12.32,0,0,1-1.56-6.3,12,12,0,0,1,1.56-6.23,10.7,10.7,0,0,1,4.35-4.08,13.75,13.75,0,0,1,6.38-1.42,13.42,13.42,0,0,1,4.8.79,10.72,10.72,0,0,1,3.51,2.12,9.62,9.62,0,0,1,2.19,2.9,7.27,7.27,0,0,1,.75,3.15v.17h-5.61a1,1,0,0,0,0-.23,2,2,0,0,0,0-.26,4.16,4.16,0,0,0-.88-2,4.94,4.94,0,0,0-1.89-1.43A6.85,6.85,0,0,0,101,190a6.75,6.75,0,0,0-3.26.79,5.7,5.7,0,0,0-2.34,2.35,8,8,0,0,0-.87,3.91,8.26,8.26,0,0,0,.86,3.95,6,6,0,0,0,2.33,2.47,6.39,6.39,0,0,0,3.28.85,7.25,7.25,0,0,0,3.13-.59,4.22,4.22,0,0,0,1.83-1.59,4.61,4.61,0,0,0,.71-2.18h5.64a7.75,7.75,0,0,1-.73,3.19,9.46,9.46,0,0,1-2.15,2.93,10.52,10.52,0,0,1-3.52,2.13A13.62,13.62,0,0,1,101.1,209Z"/><path class="cls-5" d="M129.31,209A13,13,0,0,1,123,207.5a11,11,0,0,1-4.31-4.2,12.88,12.88,0,0,1,0-12.29,10.92,10.92,0,0,1,4.31-4.16,14.23,14.23,0,0,1,12.72,0A11,11,0,0,1,140,191a13,13,0,0,1,0,12.29,11,11,0,0,1-4.32,4.2A13,13,0,0,1,129.31,209Zm0-4.63a6.42,6.42,0,0,0,3.42-.9A6.16,6.16,0,0,0,135,201a9.24,9.24,0,0,0,0-7.61,6.15,6.15,0,0,0-2.28-2.48,7.07,7.07,0,0,0-6.83,0,6.1,6.1,0,0,0-2.29,2.48,9.34,9.34,0,0,0,0,7.61,6.11,6.11,0,0,0,2.29,2.53A6.41,6.41,0,0,0,129.31,204.39Z"/><path class="cls-5" d="M155.5,209a8.87,8.87,0,0,1-4-.81A6.66,6.66,0,0,1,149,206a8.59,8.59,0,0,1-1.29-2.95,14.16,14.16,0,0,1-.38-3.22V185.73H153v12.66a10.15,10.15,0,0,0,.37,2.83,4,4,0,0,0,1.34,2.1,4.26,4.26,0,0,0,2.76.79,4.49,4.49,0,0,0,2.93-1,6.68,6.68,0,0,0,1.9-2.52,7.61,7.61,0,0,0,.68-3.1l1.93,1.29a11.82,11.82,0,0,1-.64,3.93,10.08,10.08,0,0,1-1.87,3.25,8.8,8.8,0,0,1-3,2.23A9.1,9.1,0,0,1,155.5,209Zm7.44-.43V185.73h5.65v22.83Z"/><path class="cls-5" d="M181,175v33.6h-5.57V175Z"/><path class="cls-5" d="M197.36,209a10.38,10.38,0,0,1-5.22-1.37,10,10,0,0,1-3.83-4,13.65,13.65,0,0,1-1.44-6.56,12.91,12.91,0,0,1,1.47-6.4,10.09,10.09,0,0,1,3.87-4,10.32,10.32,0,0,1,5.15-1.35,9.72,9.72,0,0,1,5,1.32,10,10,0,0,1,3.66,3.66,10.41,10.41,0,0,1,1.38,5.38v.34l-2.8.07v-.28a5.18,5.18,0,0,0-.85-3,6.06,6.06,0,0,0-2.19-2,6,6,0,0,0-2.85-.72,5.87,5.87,0,0,0-4.21,1.67q-1.76,1.66-1.75,5.25t1.75,5.27a6,6,0,0,0,7.11,1,6,6,0,0,0,2.16-2.08,5.61,5.61,0,0,0,.83-3l2.8.13a11.07,11.07,0,0,1-1.35,5.45,10.3,10.3,0,0,1-3.6,3.86A9.34,9.34,0,0,1,197.36,209Zm7.2-.48V175h5.68v33.6Z"/><path class="cls-5" d="M89.82,271V238.73h5.65V271ZM102.67,262a9.24,9.24,0,0,1-4.93-1.39,10.57,10.57,0,0,1-3.66-3.79,10.71,10.71,0,0,1-1.38-5.42v-.3l2.79-.07v.22a5.38,5.38,0,0,0,.84,3,6.18,6.18,0,0,0,2.18,2,5.9,5.9,0,0,0,2.87.74,5.83,5.83,0,0,0,4.22-1.7q1.74-1.69,1.74-5.27t-1.73-5.25a5.9,5.9,0,0,0-4.23-1.67,6,6,0,0,0-2.85.72,6.06,6.06,0,0,0-2.19,2,5.18,5.18,0,0,0-.85,3l-2.79-.13a10.41,10.41,0,0,1,1.38-5.38,10.19,10.19,0,0,1,3.66-3.66,9.64,9.64,0,0,1,4.93-1.32,10.34,10.34,0,0,1,5.17,1.35,10.09,10.09,0,0,1,3.87,4,12.91,12.91,0,0,1,1.48,6.4,13.65,13.65,0,0,1-1.44,6.56,10,10,0,0,1-3.83,4A10.39,10.39,0,0,1,102.67,262Z"/><path class="cls-5" d="M130.15,262a13,13,0,0,1-6.36-1.52,11,11,0,0,1-4.32-4.2,13,13,0,0,1,0-12.29,11,11,0,0,1,4.32-4.16,14.23,14.23,0,0,1,12.72,0,11,11,0,0,1,4.31,4.16,12.88,12.88,0,0,1,0,12.29,11,11,0,0,1-4.31,4.2A13,13,0,0,1,130.15,262Zm0-4.63a6.42,6.42,0,0,0,3.42-.9,6.16,6.16,0,0,0,2.28-2.53,9.34,9.34,0,0,0,0-7.61,6.15,6.15,0,0,0-2.28-2.48,7.07,7.07,0,0,0-6.83,0,6.1,6.1,0,0,0-2.29,2.48,9.24,9.24,0,0,0,0,7.61,6.11,6.11,0,0,0,2.29,2.53A6.41,6.41,0,0,0,130.15,257.39Z"/><path class="cls-5" d="M157.35,262a16.18,16.18,0,0,1-3.88-.45,10.94,10.94,0,0,1-3.27-1.36,6.85,6.85,0,0,1-2.26-2.25,5.79,5.79,0,0,1-.83-3.1v-.5h5.64v.39a2.26,2.26,0,0,0,1.27,2.1,7.44,7.44,0,0,0,3.5.7,9.74,9.74,0,0,0,2.27-.26,4.23,4.23,0,0,0,1.72-.8,1.71,1.71,0,0,0,.65-1.37,2,2,0,0,0-1.38-1.94,20.2,20.2,0,0,0-4.36-1,27.37,27.37,0,0,1-3.22-.76,12.06,12.06,0,0,1-2.9-1.26,6.58,6.58,0,0,1-2.08-2,5.13,5.13,0,0,1-.79-2.88,5.56,5.56,0,0,1,1.35-3.8,8.35,8.35,0,0,1,3.61-2.33,15,15,0,0,1,5-.79,13.68,13.68,0,0,1,4.88.85,8.87,8.87,0,0,1,3.64,2.48,5.73,5.73,0,0,1,1.39,3.89v.34h-5.59v-.28a2.2,2.2,0,0,0-.62-1.61,3.79,3.79,0,0,0-1.62-.92,7.07,7.07,0,0,0-2.08-.3,10,10,0,0,0-2,.2,4.27,4.27,0,0,0-1.72.71,1.66,1.66,0,0,0-.69,1.41,1.69,1.69,0,0,0,.71,1.4,6.12,6.12,0,0,0,2,.89c.84.23,1.82.44,2.92.63a28.24,28.24,0,0,1,3.17.71,13.32,13.32,0,0,1,2.94,1.2,6.4,6.4,0,0,1,2.16,2,5.22,5.22,0,0,1,.83,3,5.87,5.87,0,0,1-.86,3.23,6.94,6.94,0,0,1-2.33,2.2,11.26,11.26,0,0,1-3.33,1.28A17.81,17.81,0,0,1,157.35,262Z"/><path class="cls-5" d="M182.65,262a16.3,16.3,0,0,1-3.88-.45,11,11,0,0,1-3.27-1.36,6.91,6.91,0,0,1-2.25-2.25,5.71,5.71,0,0,1-.83-3.1v-.5h5.63v.39a2.27,2.27,0,0,0,1.28,2.1,7.39,7.39,0,0,0,3.49.7,9.68,9.68,0,0,0,2.27-.26,4.23,4.23,0,0,0,1.72-.8,1.69,1.69,0,0,0,.66-1.37,2,2,0,0,0-1.39-1.94,19.92,19.92,0,0,0-4.35-1,27.53,27.53,0,0,1-3.23-.76,12,12,0,0,1-2.89-1.26,6.62,6.62,0,0,1-2.09-2,5.12,5.12,0,0,1-.78-2.88,5.6,5.6,0,0,1,1.34-3.8,8.39,8.39,0,0,1,3.62-2.33,15,15,0,0,1,5-.79,13.64,13.64,0,0,1,4.88.85,8.91,8.91,0,0,1,3.65,2.48,5.78,5.78,0,0,1,1.39,3.89v.34H187v-.28a2.17,2.17,0,0,0-.63-1.61,3.69,3.69,0,0,0-1.61-.92,7.14,7.14,0,0,0-2.09-.3,10,10,0,0,0-2,.2,4.33,4.33,0,0,0-1.72.71,1.77,1.77,0,0,0,0,2.81,6.15,6.15,0,0,0,2,.89c.85.23,1.82.44,2.93.63a29.26,29.26,0,0,1,3.17.71A13,13,0,0,1,190,250a6.53,6.53,0,0,1,2.17,2,5.22,5.22,0,0,1,.82,3,5.79,5.79,0,0,1-.86,3.23,6.85,6.85,0,0,1-2.33,2.2,11.19,11.19,0,0,1-3.32,1.28A17.84,17.84,0,0,1,182.65,262Z"/><path class="cls-5" d="M201.44,234.52a4,4,0,0,1-2.4-.74,2.43,2.43,0,0,1-1-2.08,2.37,2.37,0,0,1,1-2,4,4,0,0,1,2.4-.73,3.92,3.92,0,0,1,2.37.73,2.39,2.39,0,0,1,1,2,2.45,2.45,0,0,1-1,2.08A3.93,3.93,0,0,1,201.44,234.52Zm-2.81,27V238.73h5.58v22.83Z"/><path class="cls-5" d="M210.88,261.56V228h5.68v33.6Zm12.86.48a9.25,9.25,0,0,1-4.94-1.39,10.46,10.46,0,0,1-3.65-3.79,10.62,10.62,0,0,1-1.39-5.42v-.3l2.8-.07v.22a5.45,5.45,0,0,0,.83,3,6.12,6.12,0,0,0,2.19,2,6,6,0,0,0,7.08-1q1.74-1.69,1.74-5.27c0-2.39-.57-4.14-1.73-5.25a6.09,6.09,0,0,0-9.26,1,5.18,5.18,0,0,0-.85,3l-2.8-.13a10.32,10.32,0,0,1,1.39-5.38,10.09,10.09,0,0,1,3.65-3.66,9.65,9.65,0,0,1,4.94-1.32,10.17,10.17,0,0,1,9,5.34,12.85,12.85,0,0,1,1.47,6.39,13.65,13.65,0,0,1-1.44,6.56,10,10,0,0,1-3.83,4A10.38,10.38,0,0,1,223.74,262Z"/><path class="cls-5" d="M245.88,228v33.6h-5.57V228Z"/><path class="cls-5" d="M254.22,271.37a13.92,13.92,0,0,1-1.8-.1,4.33,4.33,0,0,1-1-.18v-4.41a3.22,3.22,0,0,0,1,.21,12.74,12.74,0,0,0,1.4.07,4.32,4.32,0,0,0,2.06-.47,4.63,4.63,0,0,0,1.49-1.3,6.51,6.51,0,0,0,1-1.93l.5-1.44L251,238.73h5.91l5.39,19h-.68l5.26-19h5.81l-8,24.23a20,20,0,0,1-2,4.41,8.4,8.4,0,0,1-3.17,2.95A11.17,11.17,0,0,1,254.22,271.37Z"/><path class="cls-5" d="M105.17,312.31a14.41,14.41,0,0,1,3.54.75,5.15,5.15,0,0,1,2.39,1.67,4.68,4.68,0,0,1,.86,2.95,5.07,5.07,0,0,1-1.4,3.57,9,9,0,0,1-4.09,2.32,23,23,0,0,1-6.64.82q-5.72,0-8.79-1.64T88,318.28a5,5,0,0,1,.19-1.44,4.46,4.46,0,0,1,.47-1.07l5.18.75a2.22,2.22,0,0,0-.25.55,2.69,2.69,0,0,0-.13.91c0,.89.6,1.53,1.79,1.93a15.89,15.89,0,0,0,4.79.59,18.72,18.72,0,0,0,3.66-.3,5.85,5.85,0,0,0,2.24-.86,1.6,1.6,0,0,0,.76-1.31,1.36,1.36,0,0,0-1-1.44,10.32,10.32,0,0,0-2.41-.43l-8.66-.8A7.44,7.44,0,0,1,90.77,314a3.61,3.61,0,0,1-1.49-3,3.84,3.84,0,0,1,.61-2.1,6.82,6.82,0,0,1,1.41-1.63,4,4,0,0,1,1.35-.8L95.88,308a2.33,2.33,0,0,0-1.07.58,1.57,1.57,0,0,0-.61,1.22,1.32,1.32,0,0,0,.6,1.11,5.12,5.12,0,0,0,2.33.62Zm2.56-20.58h5.07l-2.07,8.86a13.74,13.74,0,0,1-1.87,4.47,9.09,9.09,0,0,1-3.44,3.12,11.44,11.44,0,0,1-5.41,1.14,14.15,14.15,0,0,1-5.86-1.11,8.74,8.74,0,0,1-3.8-3.12A8.16,8.16,0,0,1,89,300.46a8.37,8.37,0,0,1,1.37-4.74,9.18,9.18,0,0,1,3.76-3.21,12.23,12.23,0,0,1,5.43-1.16,11.39,11.39,0,0,1,4.4.8,8.52,8.52,0,0,1,3.13,2.1,4.45,4.45,0,0,1,1.26,2.75l-1.27.24ZM100,305a7.09,7.09,0,0,0,2.86-.53,4.18,4.18,0,0,0,1.87-1.56,4.92,4.92,0,0,0,0-5,4.22,4.22,0,0,0-1.87-1.58,7.47,7.47,0,0,0-5.65,0,4.53,4.53,0,0,0-1.92,1.6,4.81,4.81,0,0,0,0,4.95,4.29,4.29,0,0,0,1.9,1.55A7.13,7.13,0,0,0,100,305Z"/><path class="cls-5" d="M128,315a13,13,0,0,1-6.36-1.52,11,11,0,0,1-4.31-4.2,12.88,12.88,0,0,1,0-12.29,11,11,0,0,1,4.31-4.16,14.23,14.23,0,0,1,12.72,0A11,11,0,0,1,138.7,297a13,13,0,0,1,0,12.29,11,11,0,0,1-4.32,4.2A13,13,0,0,1,128,315Zm0-4.63a6.39,6.39,0,0,0,3.42-.9,6.16,6.16,0,0,0,2.28-2.53,9.24,9.24,0,0,0,0-7.61,6.15,6.15,0,0,0-2.28-2.48,7.07,7.07,0,0,0-6.83,0,6.1,6.1,0,0,0-2.29,2.48,9.34,9.34,0,0,0,0,7.61,6.11,6.11,0,0,0,2.29,2.53A6.41,6.41,0,0,0,128,310.39Z"/><path class="cls-5" d="M92.48,367.56l-4.71-22.83h5.87l3.34,21h-.93l5.14-21h4.32l-5.22,22.83Zm15.74,0-5.31-22.83h4.32l5.18,21h-.92l3.31-21h5.87L116,367.56Z"/><path class="cls-5" d="M125.4,367.56V344.73h5.65v7.59l-1.31-.73a10.67,10.67,0,0,1,.8-2.81,7.83,7.83,0,0,1,1.54-2.32,7,7,0,0,1,2.35-1.56,8.3,8.3,0,0,1,3.14-.55,9.19,9.19,0,0,1,2.2.2,4.75,4.75,0,0,1,1,.33l-1,5.18a4.47,4.47,0,0,0-.87-.37,5.53,5.53,0,0,0-1.75-.23,6.49,6.49,0,0,0-2.92.59,5,5,0,0,0-1.86,1.59,6.73,6.73,0,0,0-1,2.2,9.68,9.68,0,0,0-.3,2.37v11.35Z"/><path class="cls-5" d="M156.21,368a13,13,0,0,1-6.37-1.52,11.08,11.08,0,0,1-4.31-4.2,12.88,12.88,0,0,1,0-12.29,11.05,11.05,0,0,1,4.31-4.16,14.25,14.25,0,0,1,12.73,0,11,11,0,0,1,4.31,4.16,12.88,12.88,0,0,1,0,12.29,11,11,0,0,1-4.31,4.2A13,13,0,0,1,156.21,368Zm0-4.63a6.42,6.42,0,0,0,3.42-.9A6.07,6.07,0,0,0,161.9,360a9.24,9.24,0,0,0,0-7.61,6.06,6.06,0,0,0-2.27-2.48,7.07,7.07,0,0,0-6.83,0,6,6,0,0,0-2.29,2.48,9.24,9.24,0,0,0,0,7.61,6,6,0,0,0,2.29,2.53A6.41,6.41,0,0,0,156.21,363.39Z"/><path class="cls-5" d="M174.18,367.56V344.73h5.66v22.83Zm16.15,0V354.73a8.42,8.42,0,0,0-.44-2.79,3.84,3.84,0,0,0-1.51-1.94,5.27,5.27,0,0,0-2.93-.71,5.46,5.46,0,0,0-2.91.78,5.55,5.55,0,0,0-2,2.15,6.68,6.68,0,0,0-.72,3.15l-1.92-1.18a10,10,0,0,1,1.3-5.08,9.49,9.49,0,0,1,8.36-4.76,9.19,9.19,0,0,1,4.63,1.07,6.93,6.93,0,0,1,2.84,3.05,10.69,10.69,0,0,1,.95,4.65v14.44Z"/><path class="cls-5" d="M217.87,365.31a14.59,14.59,0,0,1,3.55.75,5.17,5.17,0,0,1,2.38,1.67,4.62,4.62,0,0,1,.86,2.95,5.06,5.06,0,0,1-1.39,3.57,9.07,9.07,0,0,1-4.1,2.32,23,23,0,0,1-6.63.82q-5.73,0-8.8-1.64t-3.07-4.47a5,5,0,0,1,.19-1.44,4.46,4.46,0,0,1,.47-1.07l5.19.75a1.89,1.89,0,0,0-.26.55,2.69,2.69,0,0,0-.13.91c0,.89.6,1.53,1.79,1.93a15.89,15.89,0,0,0,4.79.59,18.72,18.72,0,0,0,3.66-.3,5.78,5.78,0,0,0,2.24-.86,1.6,1.6,0,0,0,.76-1.31,1.35,1.35,0,0,0-1-1.44,10.23,10.23,0,0,0-2.4-.43l-8.67-.8a7.44,7.44,0,0,1-3.82-1.38,3.61,3.61,0,0,1-1.49-3,3.84,3.84,0,0,1,.61-2.1,6.82,6.82,0,0,1,1.41-1.63,3.94,3.94,0,0,1,1.36-.8l3.22,1.59a2.26,2.26,0,0,0-1.06.58,1.55,1.55,0,0,0-.62,1.22,1.31,1.31,0,0,0,.61,1.11,5.07,5.07,0,0,0,2.32.62Zm2.56-20.58h5.07l-2.06,8.86a14,14,0,0,1-1.87,4.47,9.16,9.16,0,0,1-3.44,3.12,11.51,11.51,0,0,1-5.42,1.14,14.15,14.15,0,0,1-5.86-1.11,8.74,8.74,0,0,1-3.8-3.12,8.24,8.24,0,0,1-1.33-4.63,8.37,8.37,0,0,1,1.37-4.74,9.18,9.18,0,0,1,3.76-3.21,12.23,12.23,0,0,1,5.43-1.16,11.47,11.47,0,0,1,4.41.8,8.57,8.57,0,0,1,3.12,2.1,4.4,4.4,0,0,1,1.26,2.75l-1.27.24ZM212.69,358a7.16,7.16,0,0,0,2.86-.53,4.29,4.29,0,0,0,1.87-1.56,5,5,0,0,0,0-5,4.33,4.33,0,0,0-1.87-1.58,6.92,6.92,0,0,0-2.84-.55,6.79,6.79,0,0,0-2.82.56,4.53,4.53,0,0,0-1.92,1.6,4.36,4.36,0,0,0-.7,2.49,4.28,4.28,0,0,0,.68,2.46,4.21,4.21,0,0,0,1.89,1.55A7.14,7.14,0,0,0,212.69,358Z"/><path class="cls-5" d="M237,359.31a9.57,9.57,0,0,1,.61-3.55,13.1,13.1,0,0,1,1.55-2.83c.62-.85,1.26-1.65,1.9-2.39s1.06-1.26,1.53-1.9a9,9,0,0,0,1.14-2,5.91,5.91,0,0,0,.43-2.29,4.76,4.76,0,0,0-1.15-3.48,4.58,4.58,0,0,0-3.41-1.17,4.64,4.64,0,0,0-3.65,1.44,6.39,6.39,0,0,0-1.29,4.37h-5a10.74,10.74,0,0,1,1.31-5.61,8,8,0,0,1,3.55-3.23,11.67,11.67,0,0,1,5-1.05,11.4,11.4,0,0,1,4.93,1,7.88,7.88,0,0,1,3.42,3,9.23,9.23,0,0,1,1.26,5,8.27,8.27,0,0,1-.64,3.37,10.36,10.36,0,0,1-1.61,2.62q-1,1.17-2,2.22a29.23,29.23,0,0,0-2.46,2.91,5.82,5.82,0,0,0-1.09,3.54Zm2.43,8.86a3.11,3.11,0,0,1-2.27-.93,3.19,3.19,0,0,1,4.53-4.5,3.18,3.18,0,0,1-2.26,5.43Z"/><path class="cls-5" d="M161.88,611.53l-.22-.75-.75.22-.23-.75-1.5.45L159,610l-2.25.68-.23-.76-1.5.45-.9-3-.76.22-.22-.75-1.5.45.22.75-.75.23,2,6.76-.76.23-.22-.75-2.26.67.23.76.11.37.34,1.13.75-.23.23.76.75-.23.45,1.5.75-.22.45,1.5.75-.22.45,1.5.75-.22.45,1.5.23.75,6.77-2,.75-.23-.68-2.25.76-.23-.68-2.26.75-.22-1.57-5.27Z"/><rect x="152.39" y="607.91" width="0.78" height="9.42" transform="translate(-169.32 69.58) rotate(-16.67)"/><rect x="151.67" y="607" width="1.57" height="0.78" transform="matrix(0.96, -0.29, 0.29, 0.96, -167.84, 69.27)"/><rect x="154.31" y="607.28" width="0.78" height="7.06" transform="translate(-168.73 70.06) rotate(-16.67)"/><rect x="155.05" y="610.08" width="1.57" height="0.78" transform="translate(-168.58 70.37) rotate(-16.67)"/><rect x="157.24" y="611.22" width="0.79" height="2.35" transform="translate(-169.06 70.96) rotate(-16.67)"/><rect x="156.76" y="610.27" width="2.35" height="0.78" transform="translate(-168.55 70.98) rotate(-16.67)"/><rect x="159.72" y="611.29" width="0.78" height="2.35" transform="translate(-168.97 71.68) rotate(-16.67)"/><rect x="159.26" y="610.46" width="1.57" height="0.78" transform="translate(-168.51 71.59) rotate(-16.67)"/><rect x="161" y="610.87" width="0.79" height="0.79" transform="translate(-168.58 71.99) rotate(-16.67)"/><rect x="162.66" y="611.3" width="0.78" height="5.49" transform="translate(-169.3 72.59) rotate(-16.67)"/><rect x="163.03" y="616.86" width="0.79" height="2.35" transform="translate(-170.43 72.86) rotate(-16.67)"/><rect x="162.95" y="619.34" width="0.78" height="2.35" transform="translate(-171.15 72.94) rotate(-16.67)"/><rect x="156.28" y="622" width="7.06" height="0.78" transform="translate(-171.83 72.01) rotate(-16.67)"/><rect x="152.43" y="615.08" width="0.78" height="0.78" transform="translate(-170.14 69.71) rotate(-16.67)"/><rect x="149.92" y="614.78" width="2.35" height="0.78" transform="matrix(0.96, -0.29, 0.29, 0.96, -170.13, 69.2)"/><rect x="150.29" y="615.74" width="0.79" height="1.57" transform="translate(-170.53 69.14) rotate(-16.67)"/><rect x="151.38" y="617.03" width="0.78" height="0.78" transform="translate(-170.75 69.49) rotate(-16.67)"/><rect x="152.47" y="617.55" width="0.78" height="1.57" transform="translate(-170.96 69.84) rotate(-16.67)"/><rect x="153.67" y="618.82" width="0.78" height="1.57" transform="translate(-171.28 70.24) rotate(-16.67)"/><rect x="154.87" y="620.1" width="0.78" height="1.57" transform="translate(-171.59 70.64) rotate(-16.67)"/><rect x="156.07" y="621.38" width="0.79" height="1.57" transform="translate(-171.91 71.04) rotate(-16.67)"/><path class="cls-5" d="M86.66,608.79H86v-5.9h1.66a2.28,2.28,0,0,1,1.13.25,1.71,1.71,0,0,1,.68.68,2,2,0,0,1,.22.95,2.1,2.1,0,0,1-.23,1,1.74,1.74,0,0,1-.68.72,2.16,2.16,0,0,1-1.12.27h-1Zm0-2.32-.3-.34h1.19a1.72,1.72,0,0,0,.8-.17,1.23,1.23,0,0,0,.48-.48,1.58,1.58,0,0,0,.15-.71,1.47,1.47,0,0,0-.15-.69,1,1,0,0,0-.47-.44,1.89,1.89,0,0,0-.81-.15H86.36l.3-.39Z"/><path class="cls-5" d="M91.38,608.79v-5.9h2.05a1.74,1.74,0,0,1,1.23.38,1.49,1.49,0,0,1,.43,1.17,1.63,1.63,0,0,1-.18.8,1.46,1.46,0,0,1-.43.51A1,1,0,0,1,94,606a1.16,1.16,0,0,1,.43.12.86.86,0,0,1,.35.31,1,1,0,0,1,.14.57v1.34a1.47,1.47,0,0,0,0,.31.39.39,0,0,0,.07.18h-.69a.93.93,0,0,1-.06-.18,1.47,1.47,0,0,1,0-.31V607a.7.7,0,0,0-.25-.58,1.12,1.12,0,0,0-.7-.19H91.86l.19-.26v2.78Zm.67-2.84-.19-.28h1.46a1,1,0,0,0,.53-.15,1.1,1.1,0,0,0,.39-.41,1.2,1.2,0,0,0,.15-.61.94.94,0,0,0-.29-.78,1.26,1.26,0,0,0-.83-.23H91.84l.21-.3Z"/><path class="cls-5" d="M99.14,608.87a2.17,2.17,0,0,1-1-.21,2.08,2.08,0,0,1-.74-.59,2.73,2.73,0,0,1-.5-1,4.9,4.9,0,0,1,0-2.56,2.68,2.68,0,0,1,.5-.95,2.14,2.14,0,0,1,.75-.59,2.23,2.23,0,0,1,.94-.2,2.31,2.31,0,0,1,1,.2,2.14,2.14,0,0,1,.75.59,2.84,2.84,0,0,1,.49.95,4.9,4.9,0,0,1,0,2.56,2.89,2.89,0,0,1-.49,1,2,2,0,0,1-.75.59A2.17,2.17,0,0,1,99.14,608.87Zm0-.62A1.45,1.45,0,0,0,100,608a1.79,1.79,0,0,0,.59-.8,3.75,3.75,0,0,0,.21-1.35,3.44,3.44,0,0,0-.22-1.34,1.72,1.72,0,0,0-.59-.8,1.55,1.55,0,0,0-1.72,0,1.72,1.72,0,0,0-.59.8,3.44,3.44,0,0,0-.22,1.34,3.53,3.53,0,0,0,.22,1.35,1.67,1.67,0,0,0,.59.8A1.44,1.44,0,0,0,99.14,608.25Z"/><path class="cls-5" d="M105.23,602.89a2.52,2.52,0,0,1,.93.15,1.19,1.19,0,0,1,.59.46,1.47,1.47,0,0,1,.2.79,1.38,1.38,0,0,1-.19.76,1.25,1.25,0,0,1-.47.47,1.51,1.51,0,0,1-.61.17,1.87,1.87,0,0,1,.66.15,1.26,1.26,0,0,1,.53.47,1.49,1.49,0,0,1,.21.84,1.78,1.78,0,0,1-.21.89,1.33,1.33,0,0,1-.62.55,2.49,2.49,0,0,1-1,.2h-1.93v-5.9Zm-1.3,2.76-.23-.24h1.21a1.7,1.7,0,0,0,1-.25.89.89,0,0,0,.35-.77.92.92,0,0,0-.14-.53.86.86,0,0,0-.42-.29,2.35,2.35,0,0,0-.63-.08h-1.45l.31-.39Zm1.14,2.54a1.56,1.56,0,0,0,1-.27,1,1,0,0,0,.35-.8,1.08,1.08,0,0,0-.12-.54.92.92,0,0,0-.31-.34,1.7,1.7,0,0,0-.46-.18,3.1,3.1,0,0,0-.54,0H103.7l.23-.23v2.79l-.31-.38Z"/><path class="cls-5" d="M108.93,608.79v-5.9h.68v5.68l-.31-.38h2.64v.6Z"/><path class="cls-5" d="M114,603.49l.31-.39v2.66l-.17-.23h2.26v.6h-2.26l.17-.24v2.68l-.31-.38h2.85v.6h-3.23v-5.9h3.23v.6Z"/><path class="cls-5" d="M122.94,602.89h1.18v5.9h-.65v-5.36h0l-1.5,5.35h-1l-1.51-5.36h0v5.36h-.65v-5.9h1.18l1.45,5.35h0Z"/><line class="cls-2" x1="106.12" y1="628.06" x2="78.77" y2="622.71"/><circle class="cls-3" cx="78.77" cy="622.71" r="3.89"/><circle class="cls-6" cx="105.16" cy="626.91" r="10.35"/><path class="cls-5" d="M177.2,626.24V620.4h.68v5.84Zm4.2,0V622.6a1.94,1.94,0,0,0-.18-.86,1.27,1.27,0,0,0-.53-.57,1.75,1.75,0,0,0-.91-.21,1.85,1.85,0,0,0-.93.25,2,2,0,0,0-.71.66,1.77,1.77,0,0,0-.26.94l-.42-.15a2.16,2.16,0,0,1,.35-1.2,2.47,2.47,0,0,1,.9-.83,2.38,2.38,0,0,1,1.19-.31,2.47,2.47,0,0,1,1.15.25,1.82,1.82,0,0,1,.76.72,2.37,2.37,0,0,1,.26,1.14v3.81Z"/><path class="cls-5" d="M186.77,626.34a2.94,2.94,0,0,1-1.52-.39,2.75,2.75,0,0,1-1-1.08,3.2,3.2,0,0,1-.38-1.55,3.15,3.15,0,0,1,.38-1.55,2.76,2.76,0,0,1,1-1.06,3.23,3.23,0,0,1,3,0,2.76,2.76,0,0,1,1,1.06,3.15,3.15,0,0,1,.38,1.55,3.2,3.2,0,0,1-.38,1.55,2.75,2.75,0,0,1-1,1.08A2.94,2.94,0,0,1,186.77,626.34Zm0-.62a2.12,2.12,0,0,0,1.16-.31,2.09,2.09,0,0,0,.79-.85,2.64,2.64,0,0,0,.29-1.24,2.61,2.61,0,0,0-.29-1.24,2,2,0,0,0-.79-.83,2.2,2.2,0,0,0-1.16-.3,2.23,2.23,0,0,0-1.16.3,2,2,0,0,0-.79.83,2.61,2.61,0,0,0-.29,1.24,2.64,2.64,0,0,0,.29,1.24,2.09,2.09,0,0,0,.79.85A2.14,2.14,0,0,0,186.77,625.72Z"/><path class="cls-5" d="M192.14,626.24l-1.33-5.84h.71l1.15,5.51h-.12l1.6-5.51h.61l-1.67,5.84Zm3.85,0-1.69-5.84h.61l1.62,5.51h-.13l1.13-5.51h.71l-1.31,5.84Z"/><path class="cls-5" d="M204.9,626.35a4.08,4.08,0,0,1-1-.11,2.57,2.57,0,0,1-.75-.32,1.62,1.62,0,0,1-.49-.52,1.58,1.58,0,0,1-.18-.7v-.19h.68v.16a.92.92,0,0,0,.47.78,2.3,2.3,0,0,0,1.24.28,3,3,0,0,0,.89-.11,1.45,1.45,0,0,0,.6-.34.72.72,0,0,0,.22-.54.78.78,0,0,0-.46-.76,5.09,5.09,0,0,0-1.35-.38,6.79,6.79,0,0,1-.86-.2,2.66,2.66,0,0,1-.7-.32,1.41,1.41,0,0,1-.47-.47,1.36,1.36,0,0,1-.17-.69,1.27,1.27,0,0,1,.31-.87,1.82,1.82,0,0,1,.83-.54,3.21,3.21,0,0,1,1.14-.19,3.17,3.17,0,0,1,1.14.19,2,2,0,0,1,.84.56,1.43,1.43,0,0,1,.31.95v.12h-.68V622a.9.9,0,0,0-.23-.64,1.37,1.37,0,0,0-.58-.36,2.95,2.95,0,0,0-1.56,0,1.53,1.53,0,0,0-.61.31.81.81,0,0,0,0,1.12,1.57,1.57,0,0,0,.62.34c.27.08.58.16.93.23a6.64,6.64,0,0,1,.9.21,2.51,2.51,0,0,1,.7.31,1.32,1.32,0,0,1,.47.47,1.35,1.35,0,0,1,.16.69,1.39,1.39,0,0,1-.18.71,1.55,1.55,0,0,1-.51.51,2.48,2.48,0,0,1-.76.31A4,4,0,0,1,204.9,626.35Z"/><path class="cls-5" d="M209.25,623.61V623H214l-.13.19v-.11a2.39,2.39,0,0,0-.24-1.06,2,2,0,0,0-.71-.79,2.07,2.07,0,0,0-1.12-.29,2.15,2.15,0,0,0-2,1.14,2.65,2.65,0,0,0-.28,1.25,2.69,2.69,0,0,0,.28,1.26,2.09,2.09,0,0,0,.8.84,2.31,2.31,0,0,0,1.19.3,2.57,2.57,0,0,0,.87-.13,2,2,0,0,0,.62-.32,1.5,1.5,0,0,0,.37-.44,1,1,0,0,0,.15-.43h.68a1.63,1.63,0,0,1-.21.67,2.12,2.12,0,0,1-.52.62,2.48,2.48,0,0,1-.83.48,3.71,3.71,0,0,1-1.15.17,2.9,2.9,0,0,1-1.51-.38,2.83,2.83,0,0,1-1-1.06,3.43,3.43,0,0,1,0-3.14,2.79,2.79,0,0,1,1-1.06,2.89,2.89,0,0,1,1.5-.39,2.76,2.76,0,0,1,1.49.39,2.61,2.61,0,0,1,1,1.06,3.34,3.34,0,0,1,.34,1.5v.18a1.1,1.1,0,0,0,0,.16Z"/><path class="cls-5" d="M216.53,623.61V623h4.73l-.13.19v-.11a2.39,2.39,0,0,0-.24-1.06,2,2,0,0,0-.7-.79,2.1,2.1,0,0,0-1.12-.29,2.34,2.34,0,0,0-1.19.3,2.2,2.2,0,0,0-.79.84,2.65,2.65,0,0,0-.29,1.25,2.69,2.69,0,0,0,.28,1.26,2.09,2.09,0,0,0,.8.84,2.31,2.31,0,0,0,1.19.3,2.49,2.49,0,0,0,.87-.13,1.9,1.9,0,0,0,.62-.32,1.5,1.5,0,0,0,.37-.44,1.14,1.14,0,0,0,.16-.43h.67a1.61,1.61,0,0,1-.2.67,2.34,2.34,0,0,1-.53.62,2.48,2.48,0,0,1-.83.48,3.71,3.71,0,0,1-1.15.17,2.86,2.86,0,0,1-1.5-.38,2.79,2.79,0,0,1-1-1.06,3.43,3.43,0,0,1,0-3.14,2.79,2.79,0,0,1,1-1.06,2.9,2.9,0,0,1,1.51-.39,2.75,2.75,0,0,1,1.48.39,2.61,2.61,0,0,1,1,1.06,3.22,3.22,0,0,1,.34,1.5v.18a1.1,1.1,0,0,0,0,.16Z"/><path class="cls-5" d="M228.77,626.35a4.08,4.08,0,0,1-1-.11,2.57,2.57,0,0,1-.75-.32,1.62,1.62,0,0,1-.49-.52,1.58,1.58,0,0,1-.18-.7v-.19h.68v.16a.92.92,0,0,0,.47.78,2.3,2.3,0,0,0,1.24.28,3,3,0,0,0,.89-.11,1.45,1.45,0,0,0,.6-.34.72.72,0,0,0,.22-.54A.78.78,0,0,0,230,624a5,5,0,0,0-1.35-.38,6.79,6.79,0,0,1-.86-.2,2.66,2.66,0,0,1-.7-.32,1.41,1.41,0,0,1-.47-.47,1.36,1.36,0,0,1-.17-.69,1.27,1.27,0,0,1,.31-.87,1.82,1.82,0,0,1,.83-.54,3.21,3.21,0,0,1,1.14-.19,3.17,3.17,0,0,1,1.14.19,2,2,0,0,1,.84.56,1.43,1.43,0,0,1,.31.95v.12h-.68V622a.9.9,0,0,0-.23-.64,1.37,1.37,0,0,0-.58-.36,2.95,2.95,0,0,0-1.56,0,1.53,1.53,0,0,0-.61.31.81.81,0,0,0,0,1.12,1.57,1.57,0,0,0,.62.34c.27.08.58.16.93.23a6.64,6.64,0,0,1,.9.21,2.51,2.51,0,0,1,.7.31,1.32,1.32,0,0,1,.47.47,1.35,1.35,0,0,1,.16.69,1.39,1.39,0,0,1-.18.71,1.55,1.55,0,0,1-.51.51,2.48,2.48,0,0,1-.76.31A4,4,0,0,1,228.77,626.35Z"/><path class="cls-5" d="M235.65,626.34a2.94,2.94,0,0,1-1.52-.39,2.75,2.75,0,0,1-1-1.08,3.2,3.2,0,0,1-.38-1.55,3.15,3.15,0,0,1,.38-1.55,2.76,2.76,0,0,1,1-1.06,3.23,3.23,0,0,1,3,0,2.76,2.76,0,0,1,1,1.06,3.15,3.15,0,0,1,.38,1.55,3.2,3.2,0,0,1-.38,1.55,2.75,2.75,0,0,1-1,1.08A2.94,2.94,0,0,1,235.65,626.34Zm0-.62a2.12,2.12,0,0,0,1.16-.31,2.09,2.09,0,0,0,.79-.85,2.64,2.64,0,0,0,.29-1.24,2.61,2.61,0,0,0-.29-1.24,2,2,0,0,0-.79-.83,2.2,2.2,0,0,0-1.16-.3,2.23,2.23,0,0,0-1.16.3,2,2,0,0,0-.79.83,2.61,2.61,0,0,0-.29,1.24,2.64,2.64,0,0,0,.29,1.24,2.09,2.09,0,0,0,.79.85A2.14,2.14,0,0,0,235.65,625.72Z"/><path class="cls-5" d="M240.4,626.24V620.4h.68v5.84Zm3.58,0v-3.71a4.64,4.64,0,0,0,0-.48,1.5,1.5,0,0,0-.15-.51.92.92,0,0,0-.37-.41,1.27,1.27,0,0,0-.7-.17,1.55,1.55,0,0,0-.78.19,1.41,1.41,0,0,0-.5.47,1.94,1.94,0,0,0-.27.63,2.32,2.32,0,0,0-.09.62l-.4-.16a2.61,2.61,0,0,1,.26-1.18,2.26,2.26,0,0,1,.75-.87,2,2,0,0,1,1.16-.34,1.91,1.91,0,0,1,1,.26,1.51,1.51,0,0,1,.58.71,3,3,0,0,1,.18,1.08v3.87Zm3.56,0V622.5a4.38,4.38,0,0,0,0-.47,1.5,1.5,0,0,0-.14-.5,1,1,0,0,0-.38-.4,1.38,1.38,0,0,0-.73-.17,1.46,1.46,0,0,0-.78.19,1.39,1.39,0,0,0-.5.46,2,2,0,0,0-.25.59,2.51,2.51,0,0,0-.08.57l-.4-.15a2.5,2.5,0,0,1,.25-1.11,2.2,2.2,0,0,1,.74-.86,2,2,0,0,1,1.15-.33,2.07,2.07,0,0,1,1,.23,1.55,1.55,0,0,1,.61.66,2.4,2.4,0,0,1,.21,1v4Z"/><path class="cls-5" d="M250.39,623.61V623h4.73l-.13.19v-.11a2.27,2.27,0,0,0-.25-1.06,1.91,1.91,0,0,0-.7-.79,2.07,2.07,0,0,0-1.12-.29,2.3,2.3,0,0,0-1.18.3,2.22,2.22,0,0,0-.8.84,2.65,2.65,0,0,0-.28,1.25,2.69,2.69,0,0,0,.28,1.26,2.09,2.09,0,0,0,.8.84,2.31,2.31,0,0,0,1.19.3,2.57,2.57,0,0,0,.87-.13,2,2,0,0,0,.62-.32,1.5,1.5,0,0,0,.37-.44,1,1,0,0,0,.15-.43h.68a1.63,1.63,0,0,1-.21.67,2.12,2.12,0,0,1-.52.62,2.44,2.44,0,0,1-.84.48,3.6,3.6,0,0,1-1.14.17,2.9,2.9,0,0,1-1.51-.38,2.83,2.83,0,0,1-1-1.06,3.43,3.43,0,0,1,0-3.14,2.79,2.79,0,0,1,1-1.06,2.89,2.89,0,0,1,1.5-.39,2.76,2.76,0,0,1,1.49.39,2.61,2.61,0,0,1,1,1.06,3.34,3.34,0,0,1,.34,1.5,1.21,1.21,0,0,1,0,.18v.16Z"/><path class="cls-5" d="M263.19,626.36a3.29,3.29,0,0,1-1.58-.37,2.71,2.71,0,0,1-1.09-1.06,3.14,3.14,0,0,1-.4-1.62,3,3,0,0,1,.4-1.6,2.66,2.66,0,0,1,1.09-1,3.4,3.4,0,0,1,1.58-.36,3.32,3.32,0,0,1,1.18.2,2.6,2.6,0,0,1,.87.53,2.38,2.38,0,0,1,.55.73,1.87,1.87,0,0,1,.19.79v0h-1.19v-.13a1.14,1.14,0,0,0-.26-.58,1.43,1.43,0,0,0-.55-.4,1.92,1.92,0,0,0-.79-.15,2,2,0,0,0-.93.22,1.61,1.61,0,0,0-.67.65,2.18,2.18,0,0,0-.25,1.1,2.22,2.22,0,0,0,.25,1.11,1.69,1.69,0,0,0,.67.68,2.18,2.18,0,0,0,1.82.06,1.21,1.21,0,0,0,.52-.45,1.23,1.23,0,0,0,.2-.61H266a1.84,1.84,0,0,1-.19.8,2.17,2.17,0,0,1-.53.73,2.51,2.51,0,0,1-.87.53A3.43,3.43,0,0,1,263.19,626.36Z"/><path class="cls-5" d="M270.34,626.35a3.18,3.18,0,0,1-1.59-.39,2.85,2.85,0,0,1-1.08-1.07,3.13,3.13,0,0,1-.39-1.57,3.06,3.06,0,0,1,.39-1.56,2.75,2.75,0,0,1,1.08-1.06,3.52,3.52,0,0,1,3.18,0,2.75,2.75,0,0,1,1.08,1.06,3.06,3.06,0,0,1,.39,1.56,3.13,3.13,0,0,1-.39,1.57,2.85,2.85,0,0,1-1.08,1.07A3.18,3.18,0,0,1,270.34,626.35Zm0-1a1.85,1.85,0,0,0,1-.25,1.76,1.76,0,0,0,.65-.7,2.21,2.21,0,0,0,.24-1.06,2.14,2.14,0,0,0-.24-1.05,1.73,1.73,0,0,0-.65-.69,1.94,1.94,0,0,0-1-.24,1.91,1.91,0,0,0-1,.24,1.69,1.69,0,0,0-.66.69,2.26,2.26,0,0,0-.23,1.05,2.33,2.33,0,0,0,.23,1.06,1.72,1.72,0,0,0,.66.7A1.82,1.82,0,0,0,270.34,625.33Z"/><path class="cls-5" d="M274.94,626.24V620.4h1.19v5.84Zm4.16,0v-3.4a2.2,2.2,0,0,0-.13-.76,1.09,1.09,0,0,0-.44-.51,1.57,1.57,0,0,0-.81-.18,1.48,1.48,0,0,0-.8.22,1.54,1.54,0,0,0-.57.59,1.67,1.67,0,0,0-.22.86l-.51-.25a2.4,2.4,0,0,1,.34-1.28,2.48,2.48,0,0,1,.9-.89,2.39,2.39,0,0,1,1.23-.33,2.46,2.46,0,0,1,1.19.27,1.75,1.75,0,0,1,.75.75,2.42,2.42,0,0,1,.26,1.18v3.73Z"/><path class="cls-5" d="M284.32,626.36a4,4,0,0,1-1-.12,2.93,2.93,0,0,1-.81-.33,1.7,1.7,0,0,1-.54-.56,1.46,1.46,0,0,1-.2-.76v-.15H283v.11a.66.66,0,0,0,.37.61,2.21,2.21,0,0,0,1,.2,3,3,0,0,0,.69-.07,1.13,1.13,0,0,0,.49-.24.53.53,0,0,0,.19-.41.61.61,0,0,0-.4-.57,5.75,5.75,0,0,0-1.19-.3,7.35,7.35,0,0,1-.84-.2,3,3,0,0,1-.72-.32,1.44,1.44,0,0,1-.51-.5,1.29,1.29,0,0,1-.19-.72,1.4,1.4,0,0,1,.33-.94,2,2,0,0,1,.89-.58,3.69,3.69,0,0,1,1.23-.2,3.47,3.47,0,0,1,1.22.21,2.25,2.25,0,0,1,.9.61,1.5,1.5,0,0,1,.34,1v.1h-1.19v-.08a.64.64,0,0,0-.18-.47,1.08,1.08,0,0,0-.47-.27,2,2,0,0,0-.61-.09,3.05,3.05,0,0,0-.6.06,1.43,1.43,0,0,0-.5.22.48.48,0,0,0-.19.41.52.52,0,0,0,.19.42,1.7,1.7,0,0,0,.54.26c.24.06.51.13.82.18a7.35,7.35,0,0,1,.84.2,2.68,2.68,0,0,1,.73.31,1.56,1.56,0,0,1,.53.49,1.34,1.34,0,0,1,.19.74,1.43,1.43,0,0,1-.21.79,1.77,1.77,0,0,1-.57.55,2.86,2.86,0,0,1-.82.32A4.21,4.21,0,0,1,284.32,626.36Z"/><path class="cls-5" d="M288.84,623.74v-.93h4.31l-.17.28V623a1.77,1.77,0,0,0-.19-.82,1.45,1.45,0,0,0-.58-.6,1.83,1.83,0,0,0-.95-.23,2,2,0,0,0-1,.24,1.76,1.76,0,0,0-.68.7,2.23,2.23,0,0,0-.23,1.07,2.35,2.35,0,0,0,.23,1.1,1.62,1.62,0,0,0,.66.71,2.13,2.13,0,0,0,1,.24,2.75,2.75,0,0,0,.74-.08,1.71,1.71,0,0,0,.51-.23,1.24,1.24,0,0,0,.3-.31.74.74,0,0,0,.12-.33h1.19a1.7,1.7,0,0,1-.23.7,2.29,2.29,0,0,1-.57.64,2.76,2.76,0,0,1-.89.45,4,4,0,0,1-1.21.17,3.19,3.19,0,0,1-1.6-.39,2.75,2.75,0,0,1-1.07-1.07,3.34,3.34,0,0,1,0-3.15,2.78,2.78,0,0,1,1.08-1.07,3.28,3.28,0,0,1,1.59-.38,3.18,3.18,0,0,1,1.58.38,2.59,2.59,0,0,1,1,1.07,3.25,3.25,0,0,1,.36,1.55v.24a1.54,1.54,0,0,1,0,.19Z"/><path class="cls-5" d="M298.6,626.36A3.22,3.22,0,0,1,297,626a2.74,2.74,0,0,1-1.1-1.06,3.24,3.24,0,0,1-.4-1.62,3.14,3.14,0,0,1,.4-1.6,2.69,2.69,0,0,1,1.1-1,3.59,3.59,0,0,1,2.75-.16,2.65,2.65,0,0,1,.88.53,2.2,2.2,0,0,1,.54.73,1.73,1.73,0,0,1,.19.79v0h-1.18a.2.2,0,0,0,0-.07s0,0,0-.06a1.12,1.12,0,0,0-.25-.58,1.51,1.51,0,0,0-.55-.4,2,2,0,0,0-.8-.15,1.92,1.92,0,0,0-.92.22,1.55,1.55,0,0,0-.67.65,2.18,2.18,0,0,0-.26,1.1,2.33,2.33,0,0,0,.25,1.11,1.69,1.69,0,0,0,.67.68,2.18,2.18,0,0,0,1.82.06,1.16,1.16,0,0,0,.52-.45,1.35,1.35,0,0,0,.21-.61h1.18a2,2,0,0,1-.18.8,2.2,2.2,0,0,1-.54.73,2.51,2.51,0,0,1-.87.53A3.35,3.35,0,0,1,298.6,626.36Z"/><path class="cls-5" d="M305.06,626.35a2.22,2.22,0,0,1-1-.21,1.73,1.73,0,0,1-.66-.56,2.31,2.31,0,0,1-.34-.75,3.25,3.25,0,0,1-.1-.8V620.4h1.2v3.33a2.65,2.65,0,0,0,.11.77,1.12,1.12,0,0,0,.39.58,1.42,1.42,0,0,0,1.59-.07,1.88,1.88,0,0,0,.54-.7,2,2,0,0,0,.19-.85l.52.28a2.9,2.9,0,0,1-.16,1,2.94,2.94,0,0,1-.49.84,2.29,2.29,0,0,1-1.76.8Zm1.89-.11V620.4h1.19v5.84Z"/><path class="cls-5" d="M310.29,623.74v-.93h4.31l-.17.28V623a1.77,1.77,0,0,0-.19-.82,1.45,1.45,0,0,0-.58-.6,1.83,1.83,0,0,0-1-.23,2,2,0,0,0-1,.24,1.76,1.76,0,0,0-.68.7,2.67,2.67,0,0,0,0,2.17,1.62,1.62,0,0,0,.66.71,2.13,2.13,0,0,0,1,.24,2.75,2.75,0,0,0,.74-.08,1.71,1.71,0,0,0,.51-.23,1.24,1.24,0,0,0,.3-.31.74.74,0,0,0,.12-.33h1.19a1.7,1.7,0,0,1-.23.7,2.29,2.29,0,0,1-.57.64,2.76,2.76,0,0,1-.89.45,4,4,0,0,1-1.21.17,3.19,3.19,0,0,1-1.6-.39,2.75,2.75,0,0,1-1.07-1.07,3.41,3.41,0,0,1,0-3.15,2.78,2.78,0,0,1,1.08-1.07,3.28,3.28,0,0,1,1.59-.38,3.18,3.18,0,0,1,1.58.38,2.59,2.59,0,0,1,1,1.07,3.25,3.25,0,0,1,.36,1.55v.24a1.54,1.54,0,0,1,0,.19Z"/><path class="cls-5" d="M317.22,626.24V620.4h1.19v5.84Zm4.16,0v-3.4a2,2,0,0,0-.14-.76,1,1,0,0,0-.43-.51,1.57,1.57,0,0,0-.81-.18,1.46,1.46,0,0,0-.8.22,1.64,1.64,0,0,0-.58.59,1.77,1.77,0,0,0-.21.86l-.51-.25a2.4,2.4,0,0,1,.34-1.28,2.48,2.48,0,0,1,.9-.89,2.36,2.36,0,0,1,1.23-.33,2.46,2.46,0,0,1,1.19.27,1.81,1.81,0,0,1,.75.75,2.54,2.54,0,0,1,.26,1.18v3.73Z"/><path class="cls-5" d="M327.13,626.36a3.29,3.29,0,0,1-1.58-.37,2.78,2.78,0,0,1-1.09-1.06,3.14,3.14,0,0,1-.4-1.62,3,3,0,0,1,.4-1.6,2.73,2.73,0,0,1,1.09-1,3.4,3.4,0,0,1,1.58-.36,3.32,3.32,0,0,1,1.18.2,2.65,2.65,0,0,1,.88.53,2.2,2.2,0,0,1,.54.73,1.73,1.73,0,0,1,.19.79v0h-1.18s0,0,0-.07,0,0,0-.06a1.12,1.12,0,0,0-.25-.58,1.51,1.51,0,0,0-.55-.4,2,2,0,0,0-.8-.15,1.9,1.9,0,0,0-.92.22,1.63,1.63,0,0,0-.68.65,2.29,2.29,0,0,0-.25,1.1,2.22,2.22,0,0,0,.25,1.11,1.69,1.69,0,0,0,.67.68,2.18,2.18,0,0,0,1.82.06,1.21,1.21,0,0,0,.52-.45,1.35,1.35,0,0,0,.21-.61h1.18a2,2,0,0,1-.18.8,2.2,2.2,0,0,1-.54.73,2.51,2.51,0,0,1-.87.53A3.43,3.43,0,0,1,327.13,626.36Z"/><path class="cls-5" d="M331.88,623.74v-.93h4.3l-.16.28V623a1.9,1.9,0,0,0-.19-.82,1.45,1.45,0,0,0-.58-.6,1.83,1.83,0,0,0-.95-.23,2,2,0,0,0-1,.24,1.74,1.74,0,0,0-.67.7,2.23,2.23,0,0,0-.24,1.07,2.48,2.48,0,0,0,.23,1.1,1.7,1.7,0,0,0,.67.71,2.1,2.1,0,0,0,1,.24,2.63,2.63,0,0,0,.73-.08,1.51,1.51,0,0,0,.51-.23,1.14,1.14,0,0,0,.31-.31.74.74,0,0,0,.12-.33h1.19a1.58,1.58,0,0,1-.24.7,2.1,2.1,0,0,1-.56.64,2.86,2.86,0,0,1-.89.45,4.06,4.06,0,0,1-1.21.17,3.19,3.19,0,0,1-1.6-.39,2.69,2.69,0,0,1-1.07-1.07,3.38,3.38,0,0,1,0-3.15,2.74,2.74,0,0,1,1.09-1.07,3.28,3.28,0,0,1,1.59-.38,3.21,3.21,0,0,1,1.58.38,2.65,2.65,0,0,1,1,1.07,3.25,3.25,0,0,1,.36,1.55v.24a1.54,1.54,0,0,1,0,.19Z"/><path class="cls-5" d="M341.11,626.36a4,4,0,0,1-1-.12,2.7,2.7,0,0,1-.81-.33,1.7,1.7,0,0,1-.54-.56,1.37,1.37,0,0,1-.2-.76v-.15h1.19v.11a.66.66,0,0,0,.37.61,2.18,2.18,0,0,0,1,.2,2.84,2.84,0,0,0,.68-.07,1.17,1.17,0,0,0,.5-.24.52.52,0,0,0,.18-.41.6.6,0,0,0-.39-.57,5.75,5.75,0,0,0-1.19-.3,7.35,7.35,0,0,1-.84-.2,3.23,3.23,0,0,1-.73-.32,1.62,1.62,0,0,1-.51-.5,1.38,1.38,0,0,1-.19-.72,1.4,1.4,0,0,1,.33-.94,2,2,0,0,1,.89-.58,3.79,3.79,0,0,1,1.24-.2,3.38,3.38,0,0,1,1.21.21,2.25,2.25,0,0,1,.9.61,1.44,1.44,0,0,1,.34,1v.1h-1.18v-.08a.64.64,0,0,0-.18-.47,1.14,1.14,0,0,0-.47-.27,2,2,0,0,0-.61-.09,3.05,3.05,0,0,0-.6.06,1.35,1.35,0,0,0-.5.22.48.48,0,0,0-.2.41.53.53,0,0,0,.2.42,1.6,1.6,0,0,0,.54.26c.24.06.51.13.82.18a7.9,7.9,0,0,1,.84.2,2.82,2.82,0,0,1,.73.31,1.53,1.53,0,0,1,.52.49,1.34,1.34,0,0,1,.2.74,1.43,1.43,0,0,1-.21.79,1.77,1.77,0,0,1-.57.55,2.86,2.86,0,0,1-.82.32A4.35,4.35,0,0,1,341.11,626.36Z"/><path class="cls-5" d="M345.71,626.38a.51.51,0,0,1-.39-.16.5.5,0,0,1-.16-.39.53.53,0,0,1,.16-.39.51.51,0,0,1,.39-.16.55.55,0,0,1,.55.55.5.5,0,0,1-.16.39A.53.53,0,0,1,345.71,626.38Zm.35-8.24-.12,6.32h-.46l-.11-6.32Z"/><path class="cls-5" d="M179.86,639.55a3.08,3.08,0,0,1-1.47-.36,2.78,2.78,0,0,1-1.06-1,3.5,3.5,0,0,1,0-3.25,2.66,2.66,0,0,1,1.06-1,3.08,3.08,0,0,1,1.47-.36,2.92,2.92,0,0,1,1.1.19,2.47,2.47,0,0,1,.82.5,2,2,0,0,1,.51.68,1.67,1.67,0,0,1,.18.73h0v0h-.68v-.06a.15.15,0,0,0,0-.07,1.34,1.34,0,0,0-.31-.71,2.05,2.05,0,0,0-.68-.49,2.27,2.27,0,0,0-.93-.18,2.3,2.3,0,0,0-1.1.27,2.07,2.07,0,0,0-.82.79,2.9,2.9,0,0,0,0,2.65,2.17,2.17,0,0,0,.81.81,2.34,2.34,0,0,0,1.11.27,2.26,2.26,0,0,0,1.07-.22,1.66,1.66,0,0,0,.64-.55,1.37,1.37,0,0,0,.22-.71h.68a1.85,1.85,0,0,1-.17.74,2,2,0,0,1-.49.68,2.3,2.3,0,0,1-.82.49A3,3,0,0,1,179.86,639.55Z"/><path class="cls-5" d="M185.05,630.85v8.59h-.67v-8.59Z"/><path class="cls-5" d="M187.57,632.13a.59.59,0,0,1-.37-.12.43.43,0,0,1-.15-.34.39.39,0,0,1,.15-.32.54.54,0,0,1,.37-.13.52.52,0,0,1,.36.13.4.4,0,0,1,.16.32.44.44,0,0,1-.16.34A.56.56,0,0,1,187.57,632.13Zm-.34,7.31V633.6h.67v5.84Z"/><path class="cls-5" d="M192.71,639.55a3,3,0,0,1-1.47-.36,2.72,2.72,0,0,1-1.06-1,3.5,3.5,0,0,1,0-3.25,2.6,2.6,0,0,1,1.06-1,3,3,0,0,1,1.47-.36,2.92,2.92,0,0,1,1.1.19,2.57,2.57,0,0,1,.82.5,2.33,2.33,0,0,1,.51.68,1.67,1.67,0,0,1,.18.73h0v0h-.68v-.06s0-.05,0-.07a1.34,1.34,0,0,0-.31-.71,2.05,2.05,0,0,0-.68-.49,2.34,2.34,0,0,0-.93-.18,2.3,2.3,0,0,0-1.1.27,2,2,0,0,0-.82.79,2.58,2.58,0,0,0-.32,1.32,2.7,2.7,0,0,0,.31,1.33,2.2,2.2,0,0,0,.82.81,2.34,2.34,0,0,0,1.11.27,2.26,2.26,0,0,0,1.07-.22,1.66,1.66,0,0,0,.64-.55,1.47,1.47,0,0,0,.22-.71h.68a1.85,1.85,0,0,1-.17.74,2,2,0,0,1-.5.68,2.17,2.17,0,0,1-.81.49A3,3,0,0,1,192.71,639.55Z"/><path class="cls-5" d="M197.15,639.44v-8.59h.65v5.38l-.19-.08,3-2.55h.88L198.68,636l.17-.36,2.72,3.76h-.74l-2.44-3.4.18.1-.88.75.11-.34v2.89Z"/><path class="cls-5" d="M208.68,639.54a2.94,2.94,0,0,1-1.52-.39,2.75,2.75,0,0,1-1-1.08,3.2,3.2,0,0,1-.37-1.55,3.14,3.14,0,0,1,.37-1.55,2.76,2.76,0,0,1,1-1.06,3.23,3.23,0,0,1,3,0,2.76,2.76,0,0,1,1,1.06,3.15,3.15,0,0,1,.38,1.55,3.2,3.2,0,0,1-.38,1.55,2.75,2.75,0,0,1-1,1.08A2.94,2.94,0,0,1,208.68,639.54Zm0-.62a2.18,2.18,0,0,0,1.17-.31,2.14,2.14,0,0,0,.78-.85,2.52,2.52,0,0,0,.29-1.24,2.5,2.5,0,0,0-.29-1.24,2.08,2.08,0,0,0-.78-.83,2.41,2.41,0,0,0-2.33,0,2,2,0,0,0-.79.83,2.61,2.61,0,0,0-.29,1.24,2.64,2.64,0,0,0,.29,1.24,2.09,2.09,0,0,0,.79.85A2.17,2.17,0,0,0,208.68,638.92Z"/><path class="cls-5" d="M213.43,639.44V633.6h.69v5.84Zm4.21,0V635.8a1.94,1.94,0,0,0-.18-.86,1.27,1.27,0,0,0-.53-.57,1.79,1.79,0,0,0-.92-.21,1.91,1.91,0,0,0-.93.25,1.93,1.93,0,0,0-.7.66,1.77,1.77,0,0,0-.26.94l-.42-.15a2.16,2.16,0,0,1,.35-1.2,2.47,2.47,0,0,1,.9-.83,2.37,2.37,0,0,1,1.18-.31,2.48,2.48,0,0,1,1.16.25,1.82,1.82,0,0,1,.76.72,2.37,2.37,0,0,1,.26,1.14v3.81Z"/><path class="cls-5" d="M225.36,639.53a2,2,0,0,1-.48-.06,1.06,1.06,0,0,1-.42-.22,1,1,0,0,1-.28-.43,1.94,1.94,0,0,1-.11-.7V634.2h-1.41v-.6h1.24c.06,0,.1,0,.12-.05a.26.26,0,0,0,0-.14,1.86,1.86,0,0,0,0-.26v-1.42h.68v1.88h1.87v.6h-1.87v3.68a1.62,1.62,0,0,0,.15.77.56.56,0,0,0,.55.28l.3,0a.79.79,0,0,0,.23-.07v.6a1.12,1.12,0,0,1-.26.06A2,2,0,0,1,225.36,639.53Z"/><path class="cls-5" d="M228.14,639.44v-8.59h.68v8.59Zm4.2,0V636a2.07,2.07,0,0,0-.4-1.37,1.49,1.49,0,0,0-1.22-.49,2,2,0,0,0-1,.24,1.75,1.75,0,0,0-.68.61,1.53,1.53,0,0,0-.24.84l-.45-.13a2,2,0,0,1,.31-1.09,2.35,2.35,0,0,1,.88-.8,2.55,2.55,0,0,1,1.28-.31,2.06,2.06,0,0,1,1.61.63,2.54,2.54,0,0,1,.57,1.75v3.54Z"/><path class="cls-5" d="M235.19,636.81v-.61h4.73l-.13.19v-.11a2.39,2.39,0,0,0-.24-1.06,2,2,0,0,0-.7-.79,2.1,2.1,0,0,0-1.12-.29,2.28,2.28,0,0,0-1.18.3,2.15,2.15,0,0,0-.8.84,2.65,2.65,0,0,0-.29,1.25,2.82,2.82,0,0,0,.28,1.26,2.09,2.09,0,0,0,.8.84,2.31,2.31,0,0,0,1.19.3,2.59,2.59,0,0,0,.88-.13,2,2,0,0,0,.61-.32,1.5,1.5,0,0,0,.37-.44,1.14,1.14,0,0,0,.16-.43h.67a1.61,1.61,0,0,1-.2.67,2.54,2.54,0,0,1-.53.63,2.65,2.65,0,0,1-.83.47,3.66,3.66,0,0,1-1.15.17,2.89,2.89,0,0,1-1.5-.38,2.79,2.79,0,0,1-1-1.06,3.22,3.22,0,0,1-.37-1.57,3.1,3.1,0,0,1,.38-1.57,2.76,2.76,0,0,1,1-1.06,2.93,2.93,0,0,1,1.51-.39,2.75,2.75,0,0,1,1.48.39,2.61,2.61,0,0,1,1,1.06,3.22,3.22,0,0,1,.34,1.5v.18c0,.07,0,.13,0,.16Z"/><path class="cls-5" d="M245.31,639.44V633.6H246v5.84Zm4.2,0V635.8a1.94,1.94,0,0,0-.17-.86,1.27,1.27,0,0,0-.53-.57,1.79,1.79,0,0,0-.92-.21,1.91,1.91,0,0,0-.93.25,1.93,1.93,0,0,0-.7.66,1.69,1.69,0,0,0-.27.94l-.41-.15a2.16,2.16,0,0,1,.35-1.2,2.4,2.4,0,0,1,.9-.83,2.34,2.34,0,0,1,1.18-.31,2.48,2.48,0,0,1,1.16.25,1.8,1.8,0,0,1,.75.72,2.26,2.26,0,0,1,.27,1.14v3.81Z"/><path class="cls-5" d="M252.36,636.81v-.61h4.73l-.13.19v-.11a2.27,2.27,0,0,0-.25-1.06,1.91,1.91,0,0,0-.7-.79,2.07,2.07,0,0,0-1.12-.29,2.3,2.3,0,0,0-1.18.3,2.22,2.22,0,0,0-.8.84,2.65,2.65,0,0,0-.28,1.25,2.69,2.69,0,0,0,.28,1.26,2,2,0,0,0,.8.84,2.29,2.29,0,0,0,1.19.3,2.57,2.57,0,0,0,.87-.13,2,2,0,0,0,.62-.32,1.67,1.67,0,0,0,.37-.44,1,1,0,0,0,.15-.43h.68a1.79,1.79,0,0,1-.21.67,2.29,2.29,0,0,1-.52.63,2.71,2.71,0,0,1-.84.47,3.6,3.6,0,0,1-1.14.17,2.9,2.9,0,0,1-1.51-.38,2.76,2.76,0,0,1-1-1.06,3.43,3.43,0,0,1,0-3.14,2.72,2.72,0,0,1,1-1.06,2.89,2.89,0,0,1,1.5-.39,2.78,2.78,0,0,1,1.49.39,2.61,2.61,0,0,1,1,1.06,3.34,3.34,0,0,1,.34,1.5,1.21,1.21,0,0,1,0,.18v.16Z"/><path class="cls-5" d="M260.13,639.44l-1.33-5.84h.71l1.15,5.51h-.13l1.6-5.51h.62l-1.68,5.84Zm3.85,0-1.7-5.84h.62l1.61,5.51h-.12l1.13-5.51h.71l-1.32,5.84Z"/><path class="cls-5" d="M272.88,639.55a4.08,4.08,0,0,1-1-.11,2.33,2.33,0,0,1-.75-.32,1.48,1.48,0,0,1-.48-.52,1.35,1.35,0,0,1-.18-.7.34.34,0,0,1,0-.1v-.09h.69v.16a.94.94,0,0,0,.46.79,2.43,2.43,0,0,0,1.24.27,3,3,0,0,0,.89-.11,1.43,1.43,0,0,0,.61-.34.74.74,0,0,0,.22-.54.8.8,0,0,0-.46-.76,5.21,5.21,0,0,0-1.35-.38,7,7,0,0,1-.87-.2,2.74,2.74,0,0,1-.69-.32,1.32,1.32,0,0,1-.47-.47,1.26,1.26,0,0,1-.17-.69,1.31,1.31,0,0,1,.3-.87,1.88,1.88,0,0,1,.83-.54,3.55,3.55,0,0,1,2.29,0,2,2,0,0,1,.83.56,1.44,1.44,0,0,1,.32,1v.12h-.69v-.1a.89.89,0,0,0-.22-.64,1.4,1.4,0,0,0-.59-.36,2.77,2.77,0,0,0-.78-.11,2.88,2.88,0,0,0-.78.1,1.42,1.42,0,0,0-.6.31.71.71,0,0,0-.24.56.77.77,0,0,0,.22.56,1.73,1.73,0,0,0,.62.34c.27.08.58.16.94.23a8.37,8.37,0,0,1,.89.21,2.58,2.58,0,0,1,.71.31,1.29,1.29,0,0,1,.46.47,1.36,1.36,0,0,1,.17.69,1.3,1.3,0,0,1-.19.71,1.62,1.62,0,0,1-.5.51,2.54,2.54,0,0,1-.77.31A4,4,0,0,1,272.88,639.55Z"/><path class="cls-5" d="M277.1,639.44V633.6h.68v5.84Zm3.58,0v-3.71a2.9,2.9,0,0,0,0-.48,1.5,1.5,0,0,0-.15-.51.92.92,0,0,0-.37-.41,1.27,1.27,0,0,0-.7-.17,1.55,1.55,0,0,0-.78.19,1.5,1.5,0,0,0-.5.47,1.94,1.94,0,0,0-.27.63,2.32,2.32,0,0,0-.09.62l-.4-.16a2.61,2.61,0,0,1,.26-1.18,2.26,2.26,0,0,1,.75-.87,2,2,0,0,1,1.16-.34,1.88,1.88,0,0,1,1,.26,1.51,1.51,0,0,1,.58.71,3,3,0,0,1,.18,1.08v3.87Zm3.56,0V635.7a4.38,4.38,0,0,0,0-.47,1.29,1.29,0,0,0-.14-.5,1,1,0,0,0-.38-.4,1.38,1.38,0,0,0-.73-.17,1.46,1.46,0,0,0-.78.19,1.39,1.39,0,0,0-.5.46,2,2,0,0,0-.25.59,2.51,2.51,0,0,0-.08.57l-.4-.15a2.5,2.5,0,0,1,.25-1.11,2.2,2.2,0,0,1,.74-.86,2,2,0,0,1,1.15-.33,2.07,2.07,0,0,1,1,.23,1.55,1.55,0,0,1,.61.66,2.4,2.4,0,0,1,.21,1.05v4Z"/><path class="cls-5" d="M289,639.55a3.28,3.28,0,0,1-1.18-.2,1.73,1.73,0,0,1-.77-.6,1.59,1.59,0,0,1-.27-.93,1.44,1.44,0,0,1,.29-.93,1.84,1.84,0,0,1,.81-.58,4.79,4.79,0,0,1,1.26-.28,13.5,13.5,0,0,0,1.6-.24c.33-.07.49-.2.49-.38v-.07a1,1,0,0,0-.46-.88,2.34,2.34,0,0,0-1.32-.32,2.44,2.44,0,0,0-1.39.35,1.21,1.21,0,0,0-.49,1h-.68a1.89,1.89,0,0,1,.32-1.09,2,2,0,0,1,.9-.69,3.46,3.46,0,0,1,1.35-.24,3.31,3.31,0,0,1,1.25.22,2,2,0,0,1,.88.62,1.55,1.55,0,0,1,.33,1v3c0,.13,0,.24,0,.36a1.92,1.92,0,0,0,.05.29.92.92,0,0,0,.11.26.48.48,0,0,0,.08.12h-.68s0-.05-.07-.11a1.22,1.22,0,0,1-.1-.23,1.42,1.42,0,0,1-.06-.31,2.49,2.49,0,0,1,0-.41l.11.08a1.72,1.72,0,0,1-.51.57,2.64,2.64,0,0,1-.81.38A3.66,3.66,0,0,1,289,639.55Zm.1-.61a2.88,2.88,0,0,0,1.08-.2,1.74,1.74,0,0,0,.76-.56,1.4,1.4,0,0,0,.29-.89v-1.36l.15.25a3.48,3.48,0,0,1-.87.26c-.37.06-.77.11-1.2.16a3.54,3.54,0,0,0-1.37.34.87.87,0,0,0-.47.84,1,1,0,0,0,.41.86A2.05,2.05,0,0,0,289.07,638.94Z"/><path class="cls-5" d="M294.59,630.85v8.59h-.67v-8.59Z"/><path class="cls-5" d="M297.46,630.85v8.59h-.67v-8.59Z"/><path class="cls-5" d="M304.84,639.55a2.5,2.5,0,0,1-1.29-.35,2.44,2.44,0,0,1-.92-1,3.6,3.6,0,0,1-.34-1.65,3.54,3.54,0,0,1,.35-1.63,2.35,2.35,0,0,1,.92-1,2.44,2.44,0,0,1,1.28-.35A2.57,2.57,0,0,1,307,634.7a2.31,2.31,0,0,1,.35,1.25V636h-.5V636a1.64,1.64,0,0,0-.27-.91,2,2,0,0,0-.71-.66,1.85,1.85,0,0,0-.95-.25,1.79,1.79,0,0,0-1.39.6,3.16,3.16,0,0,0,0,3.56,1.8,1.8,0,0,0,1.39.61,2,2,0,0,0,1-.25,2,2,0,0,0,.7-.68,1.72,1.72,0,0,0,.27-.94h.5a2.49,2.49,0,0,1-.34,1.27,2.53,2.53,0,0,1-.91.9A2.48,2.48,0,0,1,304.84,639.55Zm2-.11v-8.59h.68v8.59Z"/><path class="cls-5" d="M312.24,639.54a2.94,2.94,0,0,1-1.52-.39,2.75,2.75,0,0,1-1-1.08,3.2,3.2,0,0,1-.37-1.55,3.14,3.14,0,0,1,.37-1.55,2.76,2.76,0,0,1,1-1.06,3.23,3.23,0,0,1,3,0,2.76,2.76,0,0,1,1,1.06,3.15,3.15,0,0,1,.38,1.55,3.2,3.2,0,0,1-.38,1.55,2.75,2.75,0,0,1-1,1.08A2.94,2.94,0,0,1,312.24,639.54Zm0-.62a2.12,2.12,0,0,0,1.16-.31,2.09,2.09,0,0,0,.79-.85,2.64,2.64,0,0,0,.29-1.24,2.61,2.61,0,0,0-.29-1.24,2,2,0,0,0-.79-.83,2.2,2.2,0,0,0-1.16-.3,2.23,2.23,0,0,0-1.16.3,2,2,0,0,0-.79.83,2.61,2.61,0,0,0-.29,1.24,2.64,2.64,0,0,0,.29,1.24,2.09,2.09,0,0,0,.79.85A2.14,2.14,0,0,0,312.24,638.92Z"/><path class="cls-5" d="M318.9,639.53a1.86,1.86,0,0,1-.48-.06,1,1,0,0,1-.42-.22.91.91,0,0,1-.29-.43,1.94,1.94,0,0,1-.11-.7V634.2h-1.4v-.6h1.23c.06,0,.1,0,.12-.05a.26.26,0,0,0,.05-.14v-1.68h.69v1.88h1.87v.6h-1.87v3.68a1.63,1.63,0,0,0,.14.77.56.56,0,0,0,.55.28l.31,0a.71.71,0,0,0,.22-.07v.6a1.12,1.12,0,0,1-.26.06A1.9,1.9,0,0,1,318.9,639.53Z"/><path class="cls-5" d="M323.59,639.55a4.08,4.08,0,0,1-1-.11,2.33,2.33,0,0,1-.75-.32,1.48,1.48,0,0,1-.48-.52,1.35,1.35,0,0,1-.18-.7.34.34,0,0,1,0-.1v-.09h.69v.16a.94.94,0,0,0,.46.79,2.43,2.43,0,0,0,1.24.27,3,3,0,0,0,.89-.11,1.34,1.34,0,0,0,.6-.34.71.71,0,0,0,.23-.54.8.8,0,0,0-.46-.76,5.21,5.21,0,0,0-1.35-.38,7,7,0,0,1-.87-.2,2.74,2.74,0,0,1-.69-.32,1.32,1.32,0,0,1-.47-.47,1.26,1.26,0,0,1-.17-.69,1.31,1.31,0,0,1,.3-.87,1.88,1.88,0,0,1,.83-.54,3.55,3.55,0,0,1,2.29,0,2,2,0,0,1,.83.56,1.44,1.44,0,0,1,.32,1v.12h-.69v-.1a.89.89,0,0,0-.22-.64,1.4,1.4,0,0,0-.59-.36,2.77,2.77,0,0,0-.78-.11,2.88,2.88,0,0,0-.78.1,1.42,1.42,0,0,0-.6.31.71.71,0,0,0-.24.56.77.77,0,0,0,.22.56,1.73,1.73,0,0,0,.62.34c.27.08.58.16.94.23a9,9,0,0,1,.89.21,2.58,2.58,0,0,1,.71.31,1.29,1.29,0,0,1,.46.47,1.36,1.36,0,0,1,.17.69,1.3,1.3,0,0,1-.19.71,1.62,1.62,0,0,1-.5.51,2.54,2.54,0,0,1-.77.31A4,4,0,0,1,323.59,639.55Z"/><path class="cls-5" d="M328.22,639.58a.53.53,0,0,1-.39-.16.53.53,0,0,1-.16-.39.55.55,0,0,1,.55-.55.53.53,0,0,1,.39.16.53.53,0,0,1,.16.39.55.55,0,0,1-.55.55Z"/></g></g></svg>