<svg xmlns="http://www.w3.org/2000/svg" viewBox="0 0 440 671.99"><defs><style>.cls-1,.cls-2,.cls-6{fill:#fff;}.cls-1{opacity:0.05;}.cls-3{fill:#1a171b;}.cls-4{fill:#f7931e;}.cls-5,.cls-7{fill:none;stroke-miterlimit:10;}.cls-5{stroke:aqua;stroke-linecap:round;stroke-width:0.8px;stroke-dasharray:1.61 4.01;}.cls-6{font-size:8px;font-family:Epilogue-Regular, Epilogue;letter-spacing:0.1em;}.cls-7{stroke:#fff;stroke-width:0.5px;}.cls-8{fill:#e200ff;}</style></defs><g id="Layer_2" data-name="Layer 2"><g id="Layer_1-2" data-name="Layer 1"><rect class="cls-1" width="440" height="671.99" rx="22.03"/><path class="cls-2" d="M90.26,78a2.77,2.77,0,0,1,2,.71,2.55,2.55,0,0,1,.76,2,2.71,2.71,0,0,1-.83,2,3.25,3.25,0,0,1-2.35.8,2.91,2.91,0,0,1-2.39-1,4.06,4.06,0,0,1-.84-2.65,5,5,0,0,1,.76-2.73,7.46,7.46,0,0,1,1.91-2,10.78,10.78,0,0,1,2.29-1.28L92.16,75a7.5,7.5,0,0,0-1.55.86,6,6,0,0,0-1.28,1.23,2.42,2.42,0,0,0-.53,1.39,1.05,1.05,0,0,1,.46-.31A2.42,2.42,0,0,1,90.26,78ZM98,78a2.72,2.72,0,0,1,2,.71,2.52,2.52,0,0,1,.76,2,2.7,2.7,0,0,1-.82,2,3.28,3.28,0,0,1-2.35.8,2.92,2.92,0,0,1-2.4-1,4.12,4.12,0,0,1-.83-2.65,4.87,4.87,0,0,1,.76-2.73,7.31,7.31,0,0,1,1.91-2,10.54,10.54,0,0,1,2.29-1.28L99.88,75a7.26,7.26,0,0,0-1.55.86A6.07,6.07,0,0,0,97,77.13a2.49,2.49,0,0,0-.53,1.39,1.11,1.11,0,0,1,.47-.31A2.39,2.39,0,0,1,98,78Z"/><path class="cls-2" d="M122.16,78.82h-8.87l1.84-2.48v26.52h-5V76.34l1.93,2.48h-8.94v-4h19Z"/><path class="cls-2" d="M126,102.86V73.16h5v29.7Zm14.29,0v-11a6.47,6.47,0,0,0-1-3.85A3.87,3.87,0,0,0,136,86.71a5.45,5.45,0,0,0-2.68.62,4.09,4.09,0,0,0-1.7,1.72,5.21,5.21,0,0,0-.59,2.54l-1.83-1a8.43,8.43,0,0,1,1.09-4.28,7.75,7.75,0,0,1,3-2.94,9.05,9.05,0,0,1,4.44-1.06,7.1,7.1,0,0,1,5.61,2.18,8.77,8.77,0,0,1,1.93,6v12.29Z"/><path class="cls-2" d="M152,94.39V90.83h14.12l-.57,1v-.49a5.34,5.34,0,0,0-.59-2.46A4.5,4.5,0,0,0,163.16,87a5.8,5.8,0,0,0-3-.72A6.27,6.27,0,0,0,157,87a5.23,5.23,0,0,0-2.07,2.22,7.51,7.51,0,0,0-.73,3.45,8.3,8.3,0,0,0,.7,3.57,5.13,5.13,0,0,0,2.06,2.28,6.58,6.58,0,0,0,3.32.79,9.69,9.69,0,0,0,2.3-.25,4.92,4.92,0,0,0,1.58-.68,3,3,0,0,0,.93-.92,2.39,2.39,0,0,0,.38-1h5a5.72,5.72,0,0,1-.84,2.48,7.78,7.78,0,0,1-2,2.19,10.66,10.66,0,0,1-3.19,1.56,14.63,14.63,0,0,1-4.26.58,11.71,11.71,0,0,1-5.68-1.33,9.46,9.46,0,0,1-3.79-3.71,11.6,11.6,0,0,1,0-10.92,9.69,9.69,0,0,1,3.83-3.68,11.7,11.7,0,0,1,5.63-1.32,11.38,11.38,0,0,1,5.65,1.33,9.29,9.29,0,0,1,3.68,3.7,11.29,11.29,0,0,1,1.29,5.5c0,.26,0,.55,0,.85a4.28,4.28,0,0,1-.06.67Z"/><path class="cls-2" d="M99.06,156.28a11,11,0,0,1-5.94-1.67,11.75,11.75,0,0,1-4.25-4.89,17.6,17.6,0,0,1-1.57-7.81,17.21,17.21,0,0,1,1.63-7.84,11.82,11.82,0,0,1,4.42-4.93,11.65,11.65,0,0,1,6.22-1.7,11.23,11.23,0,0,1,4.84.94,9.31,9.31,0,0,1,3.23,2.42,9.78,9.78,0,0,1,1.8,3.11,9.28,9.28,0,0,1,.56,3v.23h-4.86V137a5.86,5.86,0,0,0-.34-1.93,5.15,5.15,0,0,0-1-1.73,5.09,5.09,0,0,0-1.75-1.24,6.06,6.06,0,0,0-2.43-.45,6.48,6.48,0,0,0-3.52,1A7.24,7.24,0,0,0,93.39,136a14.66,14.66,0,0,0-1,5.95,17.11,17.11,0,0,0,.57,4.75,9.08,9.08,0,0,0,1.55,3.18,6,6,0,0,0,2.24,1.77,6.4,6.4,0,0,0,2.67.56,6.89,6.89,0,0,0,3.16-.64,5.38,5.38,0,0,0,2-1.62,4.69,4.69,0,0,0,.9-1.9v-2.18h-6v-3.76h10.47v13.79H107l-.42-3.12a3.85,3.85,0,0,1-.62.94,6.45,6.45,0,0,1-1.37,1.18,8.41,8.41,0,0,1-2.27,1A11.8,11.8,0,0,1,99.06,156.28Z"/><path class="cls-2" d="M124.88,156.26a11.48,11.48,0,0,1-5.62-1.34,9.6,9.6,0,0,1-3.81-3.72,10.59,10.59,0,0,1-1.38-5.43,10.48,10.48,0,0,1,1.38-5.42,9.64,9.64,0,0,1,3.81-3.68,12.54,12.54,0,0,1,11.24,0,9.77,9.77,0,0,1,3.81,3.68,10.48,10.48,0,0,1,1.38,5.42,10.59,10.59,0,0,1-1.38,5.43,9.73,9.73,0,0,1-3.81,3.72A11.48,11.48,0,0,1,124.88,156.26Zm0-4.09a5.64,5.64,0,0,0,3-.79,5.46,5.46,0,0,0,2-2.24,7.28,7.28,0,0,0,.73-3.37,7.17,7.17,0,0,0-.73-3.35,5.29,5.29,0,0,0-2-2.2,6.22,6.22,0,0,0-6,0,5.34,5.34,0,0,0-2,2.2,7.29,7.29,0,0,0-.72,3.35,7.41,7.41,0,0,0,.72,3.37,5.51,5.51,0,0,0,2,2.24A5.66,5.66,0,0,0,124.88,152.17Z"/><path class="cls-2" d="M156.86,135.68l-6.33,20.18h-6.71l-6.48-20.18h5.17l5.07,18.43h-.79l4.9-18.43Z"/><path class="cls-2" d="M161,147.39v-3.56h14.11l-.57.95v-.49a5.34,5.34,0,0,0-.58-2.46,4.57,4.57,0,0,0-1.79-1.86,5.82,5.82,0,0,0-3-.72A6.24,6.24,0,0,0,166,140a5.12,5.12,0,0,0-2.07,2.22,7.51,7.51,0,0,0-.74,3.45,8.3,8.3,0,0,0,.71,3.57,5.08,5.08,0,0,0,2.06,2.28,6.54,6.54,0,0,0,3.31.79,9.57,9.57,0,0,0,2.3-.25,4.88,4.88,0,0,0,1.59-.68,3.26,3.26,0,0,0,.93-.92,2.36,2.36,0,0,0,.37-1h5a5.74,5.74,0,0,1-.85,2.48,7.5,7.5,0,0,1-2,2.19,10.49,10.49,0,0,1-3.18,1.56,14.65,14.65,0,0,1-4.27.58,11.74,11.74,0,0,1-5.68-1.33,9.59,9.59,0,0,1-3.79-3.71,10.78,10.78,0,0,1-1.36-5.43,10.66,10.66,0,0,1,1.38-5.49,9.62,9.62,0,0,1,3.83-3.68,11.66,11.66,0,0,1,5.62-1.32,11.42,11.42,0,0,1,5.66,1.33,9.27,9.27,0,0,1,3.67,3.7,11.29,11.29,0,0,1,1.29,5.5c0,.26,0,.55,0,.85a6.67,6.67,0,0,1-.05.67Z"/><path class="cls-2" d="M183.84,155.86V135.68h5v6.71l-1.16-.65a9.83,9.83,0,0,1,.71-2.48,6.88,6.88,0,0,1,1.37-2,6,6,0,0,1,2.07-1.38,7.28,7.28,0,0,1,2.77-.49,8.38,8.38,0,0,1,1.95.18,4,4,0,0,1,.88.29l-.91,4.58a3.93,3.93,0,0,0-.77-.33,5,5,0,0,0-1.55-.2,5.79,5.79,0,0,0-2.57.52,4.38,4.38,0,0,0-1.65,1.41,6.08,6.08,0,0,0-.87,1.94,8.4,8.4,0,0,0-.27,2.1v10Z"/><path class="cls-2" d="M200.58,155.86V135.68h5v20.18Zm14.26,0V144.52a7.48,7.48,0,0,0-.38-2.46,3.37,3.37,0,0,0-1.33-1.72,4.65,4.65,0,0,0-2.6-.63,4.76,4.76,0,0,0-2.56.69,4.88,4.88,0,0,0-1.76,1.9,5.86,5.86,0,0,0-.64,2.79L203.88,144a8.7,8.7,0,0,1,1.15-4.49,8.48,8.48,0,0,1,3.09-3.09,8.38,8.38,0,0,1,4.29-1.12,8.21,8.21,0,0,1,4.1.95A6,6,0,0,1,219,139a9.21,9.21,0,0,1,.85,4.1v12.77Z"/><path class="cls-2" d="M224.67,155.86V135.68h5v20.18Zm12.54,0V144.29a12,12,0,0,0-.1-1.55,4.51,4.51,0,0,0-.42-1.49,2.52,2.52,0,0,0-1-1.11,3.41,3.41,0,0,0-1.86-.43,3.6,3.6,0,0,0-1.92.47,3.92,3.92,0,0,0-1.3,1.23,5.49,5.49,0,0,0-.73,1.75,8.89,8.89,0,0,0-.23,2L228,144a10.19,10.19,0,0,1,.93-4.44,7.6,7.6,0,0,1,2.65-3.11,7.16,7.16,0,0,1,4.08-1.15,6.52,6.52,0,0,1,3.86,1,5.54,5.54,0,0,1,2,2.74,11.53,11.53,0,0,1,.62,3.88v12.88Zm12.46,0V144.25a14.61,14.61,0,0,0-.09-1.61,4.85,4.85,0,0,0-.42-1.46,2.57,2.57,0,0,0-1-1.06,3.64,3.64,0,0,0-1.86-.41,3.8,3.8,0,0,0-1.95.46,3.57,3.57,0,0,0-1.26,1.21,5.39,5.39,0,0,0-.69,1.71,8.27,8.27,0,0,0-.22,1.9l-1.68-1.1a10.05,10.05,0,0,1,.92-4.35,7.34,7.34,0,0,1,2.62-3.07,7.21,7.21,0,0,1,4.06-1.13,6.7,6.7,0,0,1,3.82,1A5.42,5.42,0,0,1,254,139a10.43,10.43,0,0,1,.66,3.83v13.07Z"/><path class="cls-2" d="M261.36,147.39v-3.56h14.11l-.57.95v-.49a5.22,5.22,0,0,0-.59-2.46,4.48,4.48,0,0,0-1.78-1.86,5.82,5.82,0,0,0-3-.72,6.31,6.31,0,0,0-3.17.77,5.23,5.23,0,0,0-2.07,2.22,7.64,7.64,0,0,0-.73,3.45,8.3,8.3,0,0,0,.71,3.57,5,5,0,0,0,2.06,2.28,6.54,6.54,0,0,0,3.31.79,9.63,9.63,0,0,0,2.3-.25,4.88,4.88,0,0,0,1.59-.68,3.26,3.26,0,0,0,.93-.92,2.36,2.36,0,0,0,.37-1h5a5.74,5.74,0,0,1-.85,2.48,7.78,7.78,0,0,1-2,2.19,10.72,10.72,0,0,1-3.18,1.56,14.65,14.65,0,0,1-4.27.58,11.74,11.74,0,0,1-5.68-1.33,9.53,9.53,0,0,1-3.79-3.71,11.57,11.57,0,0,1,0-10.92,9.62,9.62,0,0,1,3.83-3.68,11.63,11.63,0,0,1,5.62-1.32,11.38,11.38,0,0,1,5.65,1.33,9.23,9.23,0,0,1,3.68,3.7,11.29,11.29,0,0,1,1.29,5.5c0,.26,0,.55,0,.85a6.67,6.67,0,0,1,0,.67Z"/><path class="cls-2" d="M284.17,155.86V135.68h5v20.18Zm14.27,0V144.52a7.22,7.22,0,0,0-.39-2.46,3.32,3.32,0,0,0-1.33-1.72,4.59,4.59,0,0,0-2.59-.63,4.76,4.76,0,0,0-2.56.69,4.88,4.88,0,0,0-1.76,1.9,5.86,5.86,0,0,0-.64,2.79L287.48,144a8.7,8.7,0,0,1,1.15-4.49,8.48,8.48,0,0,1,3.09-3.09,8.38,8.38,0,0,1,4.29-1.12,8.21,8.21,0,0,1,4.1.95,6.06,6.06,0,0,1,2.5,2.7,9.21,9.21,0,0,1,.85,4.1v12.77Z"/><path class="cls-2" d="M317,156.24a12,12,0,0,1-2.2-.21,6,6,0,0,1-2-.78,4.15,4.15,0,0,1-1.5-1.67,6.33,6.33,0,0,1-.57-2.91v-11H306v-4h1.94a12.38,12.38,0,0,0,1.55-.08,1.34,1.34,0,0,0,.84-.41,2,2,0,0,0,.35-1,15.81,15.81,0,0,0,.09-1.93V129h5v6.65h6v4h-6v9.48a6.36,6.36,0,0,0,.34,2.26,1.55,1.55,0,0,0,1.62.86,5.27,5.27,0,0,0,1.15-.12,4.87,4.87,0,0,0,.81-.22v3.91a7,7,0,0,1-1,.27A8,8,0,0,1,317,156.24Z"/><path class="cls-2" d="M96.27,209.28a14.59,14.59,0,0,1-3.43-.4,9.77,9.77,0,0,1-2.89-1.2,6.2,6.2,0,0,1-2-2,5.23,5.23,0,0,1-.73-2.75v-.44h5v.35a2,2,0,0,0,1.13,1.85,6.48,6.48,0,0,0,3.09.62,8.5,8.5,0,0,0,2-.23,3.64,3.64,0,0,0,1.52-.71,1.48,1.48,0,0,0,.58-1.21,1.76,1.76,0,0,0-1.22-1.71,18.42,18.42,0,0,0-3.85-.93,25.61,25.61,0,0,1-2.85-.67A10.79,10.79,0,0,1,90,198.75,5.82,5.82,0,0,1,88.2,197a4.48,4.48,0,0,1-.69-2.54,4.94,4.94,0,0,1,1.18-3.36,7.49,7.49,0,0,1,3.2-2.06,13.2,13.2,0,0,1,4.41-.7,12,12,0,0,1,4.32.76,7.86,7.86,0,0,1,3.22,2.18,5.13,5.13,0,0,1,1.22,3.44V195h-4.94v-.25a1.9,1.9,0,0,0-.55-1.42,3.37,3.37,0,0,0-1.42-.82,6.27,6.27,0,0,0-1.85-.27,9,9,0,0,0-1.76.18,3.69,3.69,0,0,0-1.52.63,1.44,1.44,0,0,0-.61,1.24,1.49,1.49,0,0,0,.63,1.24,5.14,5.14,0,0,0,1.74.79c.75.21,1.61.39,2.59.56a24.38,24.38,0,0,1,2.8.63,11.53,11.53,0,0,1,2.59,1.06,5.43,5.43,0,0,1,1.91,1.74,4.57,4.57,0,0,1,.73,2.65,5.14,5.14,0,0,1-.76,2.85,6.13,6.13,0,0,1-2.06,1.95,9.88,9.88,0,0,1-2.93,1.13A15.7,15.7,0,0,1,96.27,209.28Z"/><path class="cls-2" d="M109.53,208.86v-29.7h5v29.7Zm14.29,0v-11a6.47,6.47,0,0,0-1-3.85,3.89,3.89,0,0,0-3.34-1.34,5.51,5.51,0,0,0-2.69.62,4.2,4.2,0,0,0-1.7,1.72,5.32,5.32,0,0,0-.59,2.54l-1.82-1a8.33,8.33,0,0,1,1.09-4.28,7.79,7.79,0,0,1,3-2.94,9.12,9.12,0,0,1,4.45-1.06,7.08,7.08,0,0,1,5.6,2.18,8.73,8.73,0,0,1,1.94,6v12.29Z"/><path class="cls-2" d="M143.56,209.26a11.52,11.52,0,0,1-5.63-1.34,9.73,9.73,0,0,1-3.81-3.72,10.59,10.59,0,0,1-1.37-5.43,10.47,10.47,0,0,1,1.37-5.42,9.77,9.77,0,0,1,3.81-3.68,12.56,12.56,0,0,1,11.25,0,9.77,9.77,0,0,1,3.81,3.68,10.48,10.48,0,0,1,1.38,5.42A10.59,10.59,0,0,1,153,204.2a9.73,9.73,0,0,1-3.81,3.72A11.5,11.5,0,0,1,143.56,209.26Zm0-4.09a5.64,5.64,0,0,0,3-.79,5.46,5.46,0,0,0,2-2.24,7.41,7.41,0,0,0,.72-3.37,7.29,7.29,0,0,0-.72-3.35,5.29,5.29,0,0,0-2-2.2,6.24,6.24,0,0,0-6,0,5.32,5.32,0,0,0-2,2.2,7.29,7.29,0,0,0-.72,3.35,7.41,7.41,0,0,0,.72,3.37,5.49,5.49,0,0,0,2,2.24A5.69,5.69,0,0,0,143.56,205.17Z"/><path class="cls-2" d="M165.75,209.24a7.81,7.81,0,0,1-3.56-.72,5.88,5.88,0,0,1-2.23-1.9,7.59,7.59,0,0,1-1.14-2.6,12.75,12.75,0,0,1-.33-2.86V188.68h5v11.19a9.06,9.06,0,0,0,.32,2.5,3.46,3.46,0,0,0,1.19,1.85,3.75,3.75,0,0,0,2.44.71A4,4,0,0,0,170,204a6,6,0,0,0,1.68-2.23,6.68,6.68,0,0,0,.6-2.74l1.71,1.15a10.38,10.38,0,0,1-.57,3.46,8.73,8.73,0,0,1-1.65,2.88,7.7,7.7,0,0,1-2.61,2A8.15,8.15,0,0,1,165.75,209.24Zm6.57-.38V188.68h5v20.18Z"/><path class="cls-2" d="M187.35,179.16v29.7h-4.92v-29.7Z"/><path class="cls-2" d="M200.84,209.28a9.13,9.13,0,0,1-4.61-1.21,8.77,8.77,0,0,1-3.39-3.56,12,12,0,0,1-1.27-5.8,11.39,11.39,0,0,1,1.3-5.66,9,9,0,0,1,3.42-3.51,9.08,9.08,0,0,1,4.55-1.2,8.59,8.59,0,0,1,4.39,1.17,8.88,8.88,0,0,1,3.23,3.24,9.2,9.2,0,0,1,1.22,4.75v.3l-2.47.06v-.25a4.6,4.6,0,0,0-.75-2.62,5.46,5.46,0,0,0-1.94-1.76,5.29,5.29,0,0,0-2.52-.63,5.17,5.17,0,0,0-3.72,1.47,6.15,6.15,0,0,0-1.54,4.64,6.23,6.23,0,0,0,1.54,4.66,5.12,5.12,0,0,0,3.72,1.5,5,5,0,0,0,2.56-.67,5.16,5.16,0,0,0,1.91-1.83,4.94,4.94,0,0,0,.74-2.69l2.47.12a9.8,9.8,0,0,1-1.19,4.81,9.09,9.09,0,0,1-3.18,3.41A8.2,8.2,0,0,1,200.84,209.28Zm6.37-.42v-29.7h5v29.7Z"/><path class="cls-2" d="M98.09,262.28A11.8,11.8,0,0,1,92.45,261a9.61,9.61,0,0,1-3.84-3.69,10.79,10.79,0,0,1-1.39-5.57,10.57,10.57,0,0,1,1.39-5.51,9.39,9.39,0,0,1,3.84-3.6,12.14,12.14,0,0,1,5.64-1.26,11.82,11.82,0,0,1,4.24.7,9.61,9.61,0,0,1,3.1,1.87,8.31,8.31,0,0,1,1.93,2.57,6.34,6.34,0,0,1,.67,2.78v.15h-5a1.5,1.5,0,0,0,0-.2l0-.23a3.68,3.68,0,0,0-.78-1.76,4.3,4.3,0,0,0-1.67-1.26,6,6,0,0,0-2.53-.48,6,6,0,0,0-2.88.7,5.12,5.12,0,0,0-2.07,2.08,7,7,0,0,0-.77,3.45,7.47,7.47,0,0,0,.76,3.49,5.35,5.35,0,0,0,2.07,2.19,5.66,5.66,0,0,0,2.89.75,6.33,6.33,0,0,0,2.77-.53,3.79,3.79,0,0,0,1.62-1.4,4.12,4.12,0,0,0,.63-1.93h5a6.74,6.74,0,0,1-.65,2.82,8.16,8.16,0,0,1-1.9,2.59,9.08,9.08,0,0,1-3.11,1.88A12,12,0,0,1,98.09,262.28Z"/><path class="cls-2" d="M122.07,262.26a11.52,11.52,0,0,1-5.63-1.34,9.73,9.73,0,0,1-3.81-3.72,10.69,10.69,0,0,1-1.37-5.43,10.57,10.57,0,0,1,1.37-5.42,9.77,9.77,0,0,1,3.81-3.68,12.56,12.56,0,0,1,11.25,0,9.77,9.77,0,0,1,3.81,3.68,10.48,10.48,0,0,1,1.38,5.42,10.59,10.59,0,0,1-1.38,5.43,9.73,9.73,0,0,1-3.81,3.72A11.48,11.48,0,0,1,122.07,262.26Zm0-4.09a5.64,5.64,0,0,0,3-.79,5.46,5.46,0,0,0,2-2.24,7.41,7.41,0,0,0,.72-3.37,7.29,7.29,0,0,0-.72-3.35,5.29,5.29,0,0,0-2-2.2,6.22,6.22,0,0,0-6,0,5.27,5.27,0,0,0-2,2.2,7.29,7.29,0,0,0-.72,3.35,7.41,7.41,0,0,0,.72,3.37,5.44,5.44,0,0,0,2,2.24A5.63,5.63,0,0,0,122.07,258.17Z"/><path class="cls-2" d="M137,261.86V241.68h5v20.18Zm14.27,0V250.52a7.22,7.22,0,0,0-.39-2.46,3.32,3.32,0,0,0-1.33-1.72,4.61,4.61,0,0,0-2.59-.63,4.8,4.8,0,0,0-2.57.69,5,5,0,0,0-1.76,1.9,6,6,0,0,0-.63,2.79L140.31,250a8.7,8.7,0,0,1,1.15-4.49,8.37,8.37,0,0,1,7.38-4.21,8.17,8.17,0,0,1,4.09.95,6,6,0,0,1,2.51,2.7,9.35,9.35,0,0,1,.85,4.1v12.77Z"/><path class="cls-2" d="M169.87,262.24a11.87,11.87,0,0,1-2.2-.21,6.11,6.11,0,0,1-2.06-.78,4.15,4.15,0,0,1-1.5-1.67,6.33,6.33,0,0,1-.57-2.91v-11h-4.77v-4h1.94a12.44,12.44,0,0,0,1.56-.08,1.34,1.34,0,0,0,.84-.41,2.13,2.13,0,0,0,.35-1,16.2,16.2,0,0,0,.08-1.93V235h5v6.65h6v4h-6v9.48a6.14,6.14,0,0,0,.34,2.26,1.55,1.55,0,0,0,1.62.86,5.34,5.34,0,0,0,1.15-.12,4.44,4.44,0,0,0,.8-.22v3.91a7.16,7.16,0,0,1-1,.27A8.19,8.19,0,0,1,169.87,262.24Z"/><path class="cls-2" d="M178.33,261.86V241.68h5v6.71l-1.16-.65a9.43,9.43,0,0,1,.71-2.48,6.85,6.85,0,0,1,1.36-2,5.92,5.92,0,0,1,2.08-1.38,7.28,7.28,0,0,1,2.77-.49,8.38,8.38,0,0,1,1.95.18,4,4,0,0,1,.88.29l-.91,4.58a3.93,3.93,0,0,0-.77-.33,5,5,0,0,0-1.55-.2,5.76,5.76,0,0,0-2.57.52,4.38,4.38,0,0,0-1.65,1.41,6.08,6.08,0,0,0-.87,1.94,8.4,8.4,0,0,0-.27,2.1v10Z"/><path class="cls-2" d="M204.6,262.26a11.5,11.5,0,0,1-5.62-1.34,9.73,9.73,0,0,1-3.81-3.72,10.59,10.59,0,0,1-1.38-5.43,10.48,10.48,0,0,1,1.38-5.42,9.77,9.77,0,0,1,3.81-3.68,12.56,12.56,0,0,1,11.25,0,9.77,9.77,0,0,1,3.81,3.68,10.57,10.57,0,0,1,1.37,5.42A10.69,10.69,0,0,1,214,257.2a9.73,9.73,0,0,1-3.81,3.72A11.52,11.52,0,0,1,204.6,262.26Zm0-4.09a5.64,5.64,0,0,0,3-.79,5.49,5.49,0,0,0,2-2.24,7.41,7.41,0,0,0,.72-3.37,7.29,7.29,0,0,0-.72-3.35,5.32,5.32,0,0,0-2-2.2,6.22,6.22,0,0,0-6,0,5.25,5.25,0,0,0-2,2.2,7.29,7.29,0,0,0-.72,3.35,7.41,7.41,0,0,0,.72,3.37,5.42,5.42,0,0,0,2,2.24A5.66,5.66,0,0,0,204.6,258.17Z"/><path class="cls-2" d="M224.74,232.16v29.7h-4.92v-29.7Z"/><path class="cls-2" d="M88.11,314.86V294.68h5v6.71L92,300.74a9.43,9.43,0,0,1,.71-2.48A6.85,6.85,0,0,1,94,296.21a6,6,0,0,1,2.07-1.38,7.37,7.37,0,0,1,2.78-.49,8.38,8.38,0,0,1,1.95.18,4,4,0,0,1,.88.29l-.91,4.58a4.24,4.24,0,0,0-.77-.33,5,5,0,0,0-1.55-.2,5.76,5.76,0,0,0-2.57.52,4.38,4.38,0,0,0-1.65,1.41,6.08,6.08,0,0,0-.87,1.94,8.4,8.4,0,0,0-.27,2.1v10Z"/><path class="cls-2" d="M106.34,306.39v-3.56h14.11l-.57.95v-.49a5.22,5.22,0,0,0-.59-2.46,4.48,4.48,0,0,0-1.78-1.86,5.82,5.82,0,0,0-3-.72,6.31,6.31,0,0,0-3.17.77,5.23,5.23,0,0,0-2.07,2.22,7.64,7.64,0,0,0-.73,3.45,8.45,8.45,0,0,0,.7,3.57,5.1,5.1,0,0,0,2.07,2.28,6.54,6.54,0,0,0,3.31.79,9.63,9.63,0,0,0,2.3-.25,4.88,4.88,0,0,0,1.59-.68,3.26,3.26,0,0,0,.93-.92,2.36,2.36,0,0,0,.37-1h5a5.74,5.74,0,0,1-.85,2.48,7.78,7.78,0,0,1-2,2.19,10.72,10.72,0,0,1-3.18,1.56,14.65,14.65,0,0,1-4.27.58,11.71,11.71,0,0,1-5.68-1.33,9.53,9.53,0,0,1-3.79-3.71,11.57,11.57,0,0,1,0-10.92,9.62,9.62,0,0,1,3.83-3.68,11.66,11.66,0,0,1,5.62-1.32,11.38,11.38,0,0,1,5.65,1.33,9.23,9.23,0,0,1,3.68,3.7,11.29,11.29,0,0,1,1.29,5.5c0,.26,0,.55,0,.85a6.67,6.67,0,0,1-.05.67Z"/><path class="cls-2" d="M129.15,314.86V294.68h5v20.18Zm14.27,0V303.52a7.22,7.22,0,0,0-.39-2.46,3.32,3.32,0,0,0-1.33-1.72,4.59,4.59,0,0,0-2.59-.63,4.76,4.76,0,0,0-2.56.69,4.88,4.88,0,0,0-1.76,1.9,5.86,5.86,0,0,0-.64,2.79l-1.69-1a8.7,8.7,0,0,1,1.15-4.49,8.48,8.48,0,0,1,3.09-3.09,8.38,8.38,0,0,1,4.29-1.12,8.21,8.21,0,0,1,4.1,1,6.06,6.06,0,0,1,2.5,2.7,9.21,9.21,0,0,1,.85,4.1v12.77Z"/><path class="cls-2" d="M162,315.24a12,12,0,0,1-2.2-.21,6,6,0,0,1-2-.78,4.15,4.15,0,0,1-1.5-1.67,6.33,6.33,0,0,1-.57-2.91v-11h-4.77v-4h1.94a12.38,12.38,0,0,0,1.55-.08,1.34,1.34,0,0,0,.84-.41,1.94,1.94,0,0,0,.35-1,15.81,15.81,0,0,0,.09-1.93V288h5v6.65h6v4h-6v9.48a6.12,6.12,0,0,0,.35,2.26c.22.57.76.86,1.61.86a5.27,5.27,0,0,0,1.15-.12,4.87,4.87,0,0,0,.81-.22v3.91a7,7,0,0,1-1,.27A8,8,0,0,1,162,315.24Z"/><path class="cls-2" d="M88.11,376.16V347.68h5v28.48Zm11.37-7.88a8.17,8.17,0,0,1-4.36-1.23,9.12,9.12,0,0,1-3.23-3.35,9.41,9.41,0,0,1-1.23-4.79v-.27l2.47-.05v.19a4.78,4.78,0,0,0,.74,2.63,5.28,5.28,0,0,0,1.93,1.8,5.31,5.31,0,0,0,6.26-.84,7.81,7.81,0,0,0,0-9.3,5.18,5.18,0,0,0-3.73-1.47,5.29,5.29,0,0,0-2.52.63A5.38,5.38,0,0,0,93.88,354a4.6,4.6,0,0,0-.75,2.62l-2.47-.11a9.11,9.11,0,0,1,1.23-4.75,8.88,8.88,0,0,1,3.23-3.24,8.48,8.48,0,0,1,4.36-1.17,9.15,9.15,0,0,1,4.57,1.2,9,9,0,0,1,3.42,3.51,11.5,11.5,0,0,1,1.3,5.66,12.16,12.16,0,0,1-1.27,5.8,8.77,8.77,0,0,1-3.39,3.56A9.09,9.09,0,0,1,99.48,368.28Z"/><path class="cls-2" d="M112.89,367.86V347.68h5v6.71l-1.16-.65a9.81,9.81,0,0,1,.7-2.48,6.88,6.88,0,0,1,1.37-2.05,6,6,0,0,1,2.07-1.38,7.32,7.32,0,0,1,2.77-.49,8.26,8.26,0,0,1,2,.18,4.2,4.2,0,0,1,.89.29l-.92,4.58a3.66,3.66,0,0,0-.77-.33,4.91,4.91,0,0,0-1.54-.2,5.81,5.81,0,0,0-2.58.52,4.27,4.27,0,0,0-1.64,1.41,5.89,5.89,0,0,0-.88,1.94,8.88,8.88,0,0,0-.26,2.1v10Z"/><path class="cls-2" d="M132,344a3.46,3.46,0,0,1-2.11-.66,2.11,2.11,0,0,1-.91-1.83,2.09,2.09,0,0,1,.91-1.81A3.52,3.52,0,0,1,132,339a3.46,3.46,0,0,1,2.09.64,2.11,2.11,0,0,1,.9,1.81,2.13,2.13,0,0,1-.9,1.83A3.41,3.41,0,0,1,132,344Zm-2.49,23.9V347.68h4.94v20.18Z"/><path class="cls-2" d="M149.39,368.28a11.8,11.8,0,0,1-5.64-1.31,9.61,9.61,0,0,1-3.84-3.69,10.79,10.79,0,0,1-1.39-5.57,10.57,10.57,0,0,1,1.39-5.51,9.39,9.39,0,0,1,3.84-3.6,12.14,12.14,0,0,1,5.64-1.26,11.82,11.82,0,0,1,4.24.7,9.71,9.71,0,0,1,3.1,1.87,8.31,8.31,0,0,1,1.93,2.57,6.48,6.48,0,0,1,.67,2.78v.15h-5a1.5,1.5,0,0,0,0-.2l0-.23a3.68,3.68,0,0,0-.78-1.76,4.3,4.3,0,0,0-1.67-1.26,6,6,0,0,0-2.53-.48,6,6,0,0,0-2.88.7,5.12,5.12,0,0,0-2.07,2.08,7,7,0,0,0-.77,3.45,7.47,7.47,0,0,0,.76,3.49,5.39,5.39,0,0,0,2.06,2.19,5.72,5.72,0,0,0,2.9.75,6.33,6.33,0,0,0,2.77-.53,3.79,3.79,0,0,0,1.62-1.4,4.12,4.12,0,0,0,.63-1.93h5a6.74,6.74,0,0,1-.65,2.82,8.16,8.16,0,0,1-1.9,2.59,9.08,9.08,0,0,1-3.11,1.88A12,12,0,0,1,149.39,368.28Z"/><path class="cls-2" d="M165.31,359.39v-3.56h14.12l-.57.95v-.49a5.34,5.34,0,0,0-.59-2.46,4.5,4.5,0,0,0-1.79-1.86,5.8,5.8,0,0,0-3-.72,6.27,6.27,0,0,0-3.16.77,5.23,5.23,0,0,0-2.07,2.22,7.51,7.51,0,0,0-.73,3.45,8.3,8.3,0,0,0,.7,3.57,5.13,5.13,0,0,0,2.06,2.28,6.58,6.58,0,0,0,3.32.79,9.69,9.69,0,0,0,2.3-.25,4.92,4.92,0,0,0,1.58-.68,3.26,3.26,0,0,0,.93-.92,2.24,2.24,0,0,0,.37-1h5a5.72,5.72,0,0,1-.84,2.48,7.68,7.68,0,0,1-2,2.19,10.49,10.49,0,0,1-3.18,1.56,14.63,14.63,0,0,1-4.26.58,11.71,11.71,0,0,1-5.68-1.33,9.55,9.55,0,0,1-3.8-3.71,10.78,10.78,0,0,1-1.35-5.43,10.66,10.66,0,0,1,1.37-5.49,9.69,9.69,0,0,1,3.83-3.68,11.7,11.7,0,0,1,5.63-1.32,11.4,11.4,0,0,1,5.65,1.33,9.2,9.2,0,0,1,3.67,3.7,11.18,11.18,0,0,1,1.3,5.5c0,.26,0,.55,0,.85a4.28,4.28,0,0,1-.06.67Z"/><path class="cls-2" d="M196.28,368.28a14.65,14.65,0,0,1-3.43-.4,10,10,0,0,1-2.89-1.2,6.17,6.17,0,0,1-2-2,5.14,5.14,0,0,1-.73-2.75v-.44h5v.35a2,2,0,0,0,1.14,1.85,6.47,6.47,0,0,0,3.08.62,8.65,8.65,0,0,0,2-.23,3.77,3.77,0,0,0,1.52-.71,1.51,1.51,0,0,0,.58-1.21,1.76,1.76,0,0,0-1.23-1.71,18.42,18.42,0,0,0-3.85-.93,25.61,25.61,0,0,1-2.85-.67,10.71,10.71,0,0,1-2.55-1.12,5.86,5.86,0,0,1-1.85-1.75,4.48,4.48,0,0,1-.69-2.54,5,5,0,0,1,1.19-3.36A7.4,7.4,0,0,1,191.9,348a13.26,13.26,0,0,1,4.42-.7,12,12,0,0,1,4.31.76,7.86,7.86,0,0,1,3.22,2.18,5.09,5.09,0,0,1,1.23,3.44V354h-4.94v-.25a1.94,1.94,0,0,0-.55-1.42,3.41,3.41,0,0,0-1.43-.82,6.21,6.21,0,0,0-1.84-.27,9.17,9.17,0,0,0-1.77.18,3.75,3.75,0,0,0-1.52.63,1.47,1.47,0,0,0-.61,1.24,1.49,1.49,0,0,0,.63,1.24,5.2,5.2,0,0,0,1.75.79c.75.21,1.61.39,2.58.56a24.54,24.54,0,0,1,2.81.63,11.72,11.72,0,0,1,2.59,1.06,5.61,5.61,0,0,1,1.91,1.74,4.57,4.57,0,0,1,.73,2.65,5.14,5.14,0,0,1-.76,2.85,6.23,6.23,0,0,1-2.06,2,10,10,0,0,1-2.94,1.13A15.63,15.63,0,0,1,196.28,368.28Z"/><path class="cls-2" d="M212,368.39a2.8,2.8,0,0,1-2.81-2.81,2.72,2.72,0,0,1,.82-2,2.69,2.69,0,0,1,2-.82,2.8,2.8,0,0,1,2.81,2.81,2.67,2.67,0,0,1-.82,2A2.72,2.72,0,0,1,212,368.39Zm2.47-28.52-.95,20.56h-3.06l-1-20.56Z"/><path class="cls-2" d="M222.06,344.62a2.74,2.74,0,0,1-2-.72,2.57,2.57,0,0,1-.75-1.94,2.74,2.74,0,0,1,.82-2,3.22,3.22,0,0,1,2.35-.81,2.86,2.86,0,0,1,2.38,1,4.1,4.1,0,0,1,.83,2.67,5,5,0,0,1-.75,2.72,7,7,0,0,1-1.9,2,10.66,10.66,0,0,1-2.31,1.28l-.59-1.23a8.08,8.08,0,0,0,1.56-.87,5.43,5.43,0,0,0,1.26-1.22,2.49,2.49,0,0,0,.53-1.39,1.4,1.4,0,0,1-.46.3A2.16,2.16,0,0,1,222.06,344.62Zm7.72,0a2.75,2.75,0,0,1-2-.72A2.57,2.57,0,0,1,227,342a2.74,2.74,0,0,1,.83-2,3.17,3.17,0,0,1,2.32-.81,2.9,2.9,0,0,1,2.41,1,4.15,4.15,0,0,1,.83,2.67,4.92,4.92,0,0,1-.77,2.72,7.29,7.29,0,0,1-1.89,2,10.37,10.37,0,0,1-2.3,1.28l-.59-1.23a8.24,8.24,0,0,0,1.54-.87,5.91,5.91,0,0,0,1.27-1.22,2.42,2.42,0,0,0,.53-1.39,1.29,1.29,0,0,1-.46.3A2.2,2.2,0,0,1,229.78,344.62Z"/><path class="cls-2" d="M260.91,474.62l4.31-14.76,24.29-1.77,9.3,5.85s1.54,2.94,2.48,9.81,2.66,13.55-.92,18.88-2.75,5.47-2.75,5.47,1.78-.24,4.66,3.42,4.09,8.65,2,12.87l1.82-1.64s5,3.89,5.33,5.42,3.58,5.56,3.58,5.56a24.32,24.32,0,0,1,2.5,4.06,27.57,27.57,0,0,1,3,12.46c-.1,9.65-30.93,25.33-63.66,18.26s-25.45-11.78-25.45-11.78l1.36-4.49L232.56,523s-.72-5.29,3.44-8.59a75.62,75.62,0,0,1,7.93-5.51l2.13-.27s2.43-7.51,8.21-12.14,10.34-3.84,10.34-3.84l-2.55-5.44s-3.6,0-3.66-4.75,2.1-3.73,2.1-3.73Z"/><path class="cls-2" d="M316.84,515.13a73.93,73.93,0,0,1,1.33-10l2.53-20.59,3.11-15.62s1.65-8.26,4.66-8.17-3.23,18.91-3.23,18.91,1.46-2.28,2.55-1.36a5.33,5.33,0,0,1,1.5,2.33s2.85-1.81,4.15,0,1.44.71,1.44.71,2.22,0,2.17,4.06-.14,4.77-.73,6.22-.63,6.37-1.44,8.09-3.79,3.63-3.76,4.93,1.11.87,1.11.87,5.94,9.84,7.84,17.36S344,536,338.73,543.41s-39.76,16.18-51.81,15.8,30.54-31.42,30.54-31.42Z"/><path class="cls-3" d="M271.62,472.15a25.12,25.12,0,0,1,11.09,2c.72.31,1.34-.74.62-1.05a26.61,26.61,0,0,0-11.71-2.16c-.78,0-.79,1.25,0,1.22Z"/><path class="cls-3" d="M289.87,475.38a51.48,51.48,0,0,1,7.75-.23c.79,0,.78-1.19,0-1.22a51.48,51.48,0,0,0-7.75.23.63.63,0,0,0-.61.61.62.62,0,0,0,.61.61Z"/><path class="cls-3" d="M284.08,487.05l1.59.26a.75.75,0,0,0,.47-.06.62.62,0,0,0,.22-.84.62.62,0,0,0-.37-.28l-1.59-.25a.64.64,0,0,0-.47.06.63.63,0,0,0-.28.36.64.64,0,0,0,.06.47.55.55,0,0,0,.37.28Z"/><path class="cls-3" d="M264.46,478.39c-.71-2.15-3.48-2-4.75-.47a8.28,8.28,0,0,0-1.58,6.09,4,4,0,0,0,1.21,2.49,3.44,3.44,0,0,0,1.25.67,2.94,2.94,0,0,1,1.25.48,2.53,2.53,0,0,1,.5.89,29,29,0,0,0,4.33,7.71c.48.61,1.34-.25.86-.86a24.64,24.64,0,0,1-3.64-6.18,6.93,6.93,0,0,0-1.19-2.42c-.7-.69-1.77-.56-2.5-1.15-1.27-1-1-3.22-.64-4.59a5.24,5.24,0,0,1,1.36-2.64c.65-.55,2-.7,2.36.3.25.74,1.42.43,1.18-.32Z"/><path class="cls-3" d="M267.12,496.78l-1.3,8.89a.63.63,0,0,0,.42.75A.61.61,0,0,0,267,506l1.31-8.9a.63.63,0,0,0-.43-.75.62.62,0,0,0-.75.43Z"/><path class="cls-3" d="M300.32,468.88a73.74,73.74,0,0,0,1,8.89,29.8,29.8,0,0,1-.16,9.88c-.9,4.85-3.33,9.43-7.7,12a14.27,14.27,0,0,1-4.63,1.7c-.77.14-.45,1.32.32,1.18a15.61,15.61,0,0,0,9.09-5.33c4-4.76,5.08-11.58,4.52-17.6-.33-3.58-1.13-7.05-1.23-10.67a.61.61,0,0,0-1.22,0Z"/><path class="cls-3" d="M291.07,501.58a22.93,22.93,0,0,0-1.94,12.67c.1.77,1.31.78,1.21,0a21.8,21.8,0,0,1,1.78-12.05c.32-.71-.73-1.33-1.05-.62Z"/><path class="cls-3" d="M266.61,499.17c-2.34-.72-5.11-1.38-7.15.41a3.5,3.5,0,0,0-.17,5.12c1.64,1.88,4.13,3,6,4.63a49.84,49.84,0,0,1,5.63,5.9c1.8,2.16,3.5,4.4,5.29,6.57,1.44,1.74,3.08,3.91,5.49,4.22s4.61-1.56,6.28-3.17a29.14,29.14,0,0,0,4.89-6.17c1.46-2.44,3.14-5.64,3.12-8.55,0-2.37-1.79-4.63-4.32-4.18-.77.14-.45,1.31.32,1.17a2.5,2.5,0,0,1,2.67,2.07,7.12,7.12,0,0,1-.5,3.86,27.14,27.14,0,0,1-2.87,5.88,27.58,27.58,0,0,1-4,4.92c-1.56,1.52-3.72,3.62-6.1,2.8-1.9-.66-3.26-2.7-4.48-4.19s-2.56-3.22-3.86-4.82A49.59,49.59,0,0,0,264.3,507c-1.54-1.16-4.49-2.36-4.82-4.49-.22-1.42,1-2.46,2.31-2.76a8.8,8.8,0,0,1,4.49.63c.75.23,1.07-1,.33-1.18Z"/><path class="cls-3" d="M296.63,498.4c3.46.5,6.28,3.18,7.71,6.28,1.69,3.63.64,7.39-1.43,10.64-4.5,7-12.64,10.41-17.93,16.69-.5.6.36,1.46.86.86,4.71-5.59,11.52-8.85,16.24-14.42a17.88,17.88,0,0,0,4.27-8.47,10.75,10.75,0,0,0-1.89-7.58,11.31,11.31,0,0,0-7.5-5.17c-.77-.11-1.1,1.06-.33,1.17Z"/><path class="cls-3" d="M264.93,491.88c-8.06,0-14.51,5.91-17.82,12.83a42.88,42.88,0,0,0-3.62,11.76,8.26,8.26,0,0,0,.32,4.57,4.09,4.09,0,0,0,3.49,2.29c4.82.74,8.07,4.27,11.12,7.79.51.6,1.37-.27.86-.86-2.23-2.58-4.6-5.26-7.68-6.85a19.87,19.87,0,0,0-4.75-1.38c-2-.48-2.38-2.27-2.3-4.06a26.46,26.46,0,0,1,1-5.15,44.53,44.53,0,0,1,1.76-5.5,25.53,25.53,0,0,1,6.37-9.61,16.86,16.86,0,0,1,11.27-4.61.61.61,0,0,0,0-1.22Z"/><path class="cls-3" d="M244.72,522.32c-2.44,1.37-4.07,3.38-2.9,6.27s4.46,4.13,6.81,6c5.07,4.1,7.39,10.56,9.48,16.5.26.74,1.44.42,1.18-.32-1.82-5.15-3.75-10.47-7.36-14.67-1.9-2.2-4.23-3.5-6.54-5.17a6,6,0,0,1-2.7-3.72c-.34-2,1.12-3,2.65-3.87.68-.38.07-1.43-.62-1Z"/><path class="cls-3" d="M305.62,513.05c1.46,1.75,3.84,2.82,5,4.82.9,1.56.23,3.15-.31,4.71s-1,3.1-1.39,4.68a56.47,56.47,0,0,0-1.38,19.34l1.2-.16a84.53,84.53,0,0,1-6-28c0-.79-1.25-.79-1.22,0a85.31,85.31,0,0,0,6.08,28.28c.23.57,1.27.58,1.19-.16a55.53,55.53,0,0,1,1.94-21.26c.76-2.57,2.5-5.49,1-8.09-1.24-2.11-3.64-3.21-5.18-5.06-.5-.61-1.36.26-.86.86Z"/><path class="cls-3" d="M256.84,529.7c2.85,2.67,4.29,6.32,5.13,10a64.2,64.2,0,0,1,1.42,13.4.61.61,0,0,0,1.21,0,64.14,64.14,0,0,0-1.54-14.08,20,20,0,0,0-5.36-10.23c-.57-.53-1.43.33-.86.86Z"/><path class="cls-3" d="M241.72,529.39a49.53,49.53,0,0,0-11.46,18.37c-.27.74.91,1,1.17.32a48.48,48.48,0,0,1,11.15-17.83c.55-.56-.31-1.42-.86-.86Z"/><path class="cls-3" d="M311.27,520a31.46,31.46,0,0,1,8.58,21.61.61.61,0,0,0,1.22,0,32.72,32.72,0,0,0-8.94-22.47c-.54-.57-1.4.3-.86.86Z"/><path class="cls-3" d="M246.06,507.86c-1.68-.21-3.11.61-4.49,1.46s-2.6,1.65-3.83,2.59a13.78,13.78,0,0,0-5.25,7.18c-.91,3.48-.53,7.3-.5,10.86l.09,12.15a.61.61,0,0,0,1.21,0l-.07-10.69a83.57,83.57,0,0,1,.09-10,11.76,11.76,0,0,1,4.39-7.9,32.53,32.53,0,0,1,3.67-2.61c1.43-.91,2.91-2,4.69-1.81.78.09.77-1.13,0-1.22Z"/><path class="cls-4" d="M277.6,443.16c6.7-4.94,16-2.23,24.21-.85a65.36,65.36,0,0,0,15.87.71l-5.36,5.31c1.6.67,3.45,2.65,2.11,3.74a5,5,0,0,1-1.77.56c-1.77.53-2.53,2.79-2.05,4.58a10.83,10.83,0,0,0,3.11,4.52c-2-.49-3.22,2.15-3.58,4.19l-1.89,10.61c-1.47,1.42-3.84-.53-4.47-2.47s-1-4.4-2.85-5.18a4,4,0,0,1-6.13,1c0,1.88-2.8,2.37-4.42,1.41s-2.8-2.68-4.6-3.2l-1.91,2.31a24.37,24.37,0,0,1-7.75-8.37,3.83,3.83,0,0,1-2.77,4.82,5,5,0,0,1-5.27-2.62,48.89,48.89,0,0,0-3.81,19.61l-9-12.71a4.38,4.38,0,0,1-.91-1.83c-.29-1.84,1.71-3.4,1.59-5.26l-5-2.22,2.15-3.77-5.47-.19c2.64-4,7.54-5.71,12-7.53s9.16-4.51,10.42-9.14l2.21.69a14.54,14.54,0,0,1,2-6.34l2.33,7.16"/><path class="cls-3" d="M277.9,443.68c5.41-3.86,12.31-2.86,18.44-1.75,3.25.59,6.48,1.23,9.77,1.56a66.73,66.73,0,0,0,11.57.14l-.43-1-5.36,5.31a.61.61,0,0,0,.13,1,4.43,4.43,0,0,1,2,1.63c.66,1.17-.69,1.29-1.54,1.56a3.73,3.73,0,0,0-2.35,2.39c-1.09,3.06,1.14,5.68,3.14,7.73l.59-1c-1.9-.34-3.1,1.08-3.77,2.71a17.84,17.84,0,0,0-.9,3.82l-.86,4.83-.43,2.41c-.15.84-.3,1.72-1.37,1.39a4.15,4.15,0,0,1-2.33-2.88c-.58-1.91-1-4.13-3-5.07a.61.61,0,0,0-.83.22,3.41,3.41,0,0,1-5.18.9.62.62,0,0,0-1,.43c-.12,1.94-3,1.25-4,.57-1.46-1-2.55-2.36-4.28-3a.61.61,0,0,0-.6.16l-1.9,2.31.74-.1a24.42,24.42,0,0,1-7.54-8.15.61.61,0,0,0-1.11.47,3.22,3.22,0,0,1-2.34,4.07A4.44,4.44,0,0,1,268.6,464a.61.61,0,0,0-1.11.15,50.24,50.24,0,0,0-3.83,19.77l1.13-.3-7.35-10.34c-1.12-1.58-3.11-3.4-2.25-5.46.52-1.26,1.32-2.28,1.32-3.7a.59.59,0,0,0-.3-.53l-5-2.21.22.83,2.15-3.77a.62.62,0,0,0-.53-.92l-5.47-.19.52.92c5.48-8,19.43-6.5,22.46-16.81l-.75.42,2.21.69a.62.62,0,0,0,.77-.59,14.48,14.48,0,0,1,1.92-6l-1.11-.14,2.34,7.16c.24.74,1.41.42,1.17-.33l-2.34-7.16a.62.62,0,0,0-1.11-.14,15.91,15.91,0,0,0-2.09,6.64l.77-.59-2.21-.68a.61.61,0,0,0-.75.42c-1.44,4.91-6.5,7.3-10.87,9.07s-8.75,3.51-11.46,7.45a.62.62,0,0,0,.53.92l5.47.19-.52-.91-2.15,3.77a.6.6,0,0,0,.22.83l5,2.21-.3-.52c0,1.64-1.39,2.86-1.58,4.46-.22,1.76,1.17,3.19,2.12,4.52l7.91,11.13a.62.62,0,0,0,1.14-.31,49.38,49.38,0,0,1,3.78-19.45l-1.11.14c1.25,2.12,3.8,3.61,6.28,2.82a4.45,4.45,0,0,0,2.87-5.49l-1.11.47a25.71,25.71,0,0,0,8,8.59.62.62,0,0,0,.74-.09l1.91-2.31-.6.15c2.34.8,3.63,3.45,6.22,3.68,1.68.15,3.47-.62,3.58-2.47l-1,.43a4.63,4.63,0,0,0,7.09-1.15l-.83.22c2.22,1.06,1.93,4,3,5.86.86,1.44,2.79,3,4.52,2.06,1.05-.59.93-2.23,1.12-3.29l.86-4.83c.29-1.61.63-7.37,3.39-6.89a.61.61,0,0,0,.59-1c-1.33-1.37-3-3-3.07-5a3.5,3.5,0,0,1,.77-2.44c.63-.69,1.44-.64,2.25-.94,3.12-1.12.27-4.3-1.47-5.11l.12,1,5.36-5.31a.61.61,0,0,0-.43-1,67.35,67.35,0,0,1-12.05-.19c-3.55-.39-7-1.16-10.57-1.76-6-1-12.56-1.56-17.77,2.16-.63.46,0,1.51.61,1.05Z"/><ellipse class="cls-3" cx="277.1" cy="478.75" rx="1.57" ry="2.4"/><ellipse class="cls-3" cx="292.84" cy="479.9" rx="1.57" ry="2.4"/><path class="cls-3" d="M275.14,477.66l3.6-.2a.61.61,0,1,0,0-1.22l-3.6.2a.63.63,0,0,0-.61.61.62.62,0,0,0,.61.61Z"/><path class="cls-3" d="M290.71,478.56l3.6-.23a.61.61,0,1,0,0-1.22l-3.6.24a.63.63,0,0,0-.61.61.61.61,0,0,0,.61.6Z"/><path d="M331.41,504.83c-1.38,1.87-2.69,3.21-5.15,3.22-2.84,0-5.44-2.29-7.62-3.88a.53.53,0,0,0-.71.19,13.42,13.42,0,0,0-1,4.28,62.74,62.74,0,0,0-.59,7.37c-.14,5.8.26,12,2.52,17.37.25.6,1.24.34,1-.27-2.19-5.24-2.6-11.15-2.49-16.77a61.29,61.29,0,0,1,.56-7.42,12.94,12.94,0,0,1,.94-4l-.7.18c2.6,1.9,5.42,4.28,8.83,4,2.51-.22,3.92-1.77,5.35-3.7.39-.53-.5-1-.89-.52Z"/><path d="M331.49,505.46a14.36,14.36,0,0,1,2.62,4.09c1.19,2.32,2.23,4.72,3.19,7.14,1.89,4.74,3.87,9.87,4.36,15a16.63,16.63,0,0,1-3.37,11.46c-.4.53.5,1,.89.52a17.77,17.77,0,0,0,3.57-10.59,27.32,27.32,0,0,0-1.19-7.05,90.59,90.59,0,0,0-6.17-16.22,17.58,17.58,0,0,0-3.17-5.08c-.49-.45-1.22.28-.73.73Z"/><path d="M331.43,506.31a4.91,4.91,0,0,1,1.65-3.73,10.66,10.66,0,0,0,2.25-3.16,20.35,20.35,0,0,0,1.17-7.82.52.52,0,0,0-1,0c0,2.69-.08,5.61-1.37,8a24.39,24.39,0,0,1-2.53,3.13,5.19,5.19,0,0,0-1.17,3.54c.05.66,1.07.66,1,0Z"/><path d="M318.67,504.27a263.56,263.56,0,0,1,5.05-32.7,37.1,37.1,0,0,1,2.34-7.8c.27-.6,1.16-2.8,2.09-2.64s.31,2.67.22,3.23c-.75,4.92-2.3,9.68-3.09,14.59-.1.64.89.92,1,.27.79-5,2.36-9.76,3.1-14.73.17-1.12.49-2.73-.13-3.78a1.52,1.52,0,0,0-2.34-.09,8.55,8.55,0,0,0-2.09,3.45,38.43,38.43,0,0,0-1.5,4.63c-1.28,4.92-2.11,10-3,15-1.21,6.81-2.14,13.67-2.69,20.58-.05.65,1,.65,1,0Z"/><path d="M326.34,478.63a.22.22,0,0,1,.12-.07.92.92,0,0,1,.29,0,2,2,0,0,1,.8.18,2.48,2.48,0,0,1,1.22,1.61,11.37,11.37,0,0,1,.1,5.06.51.51,0,0,0,.52.51c.3,0,.47-.23.51-.51.26-2,.47-4.17-.43-6.06a3,3,0,0,0-1.89-1.69,1.94,1.94,0,0,0-2,.28c-.43.49.3,1.22.73.72Z"/><path d="M329.94,480.73a1.78,1.78,0,0,1,1.84-.53,2.71,2.71,0,0,1,1.74,1.41,7,7,0,0,1,.73,2.56,12.53,12.53,0,0,1,0,3.46c-.11.65.88.92,1,.27a13.68,13.68,0,0,0,0-4.09,7,7,0,0,0-1.06-3.1,3.55,3.55,0,0,0-2.39-1.55,2.7,2.7,0,0,0-2.56.85c-.42.5.3,1.23.72.72Z"/><path d="M334.55,481.89c.55-.25,1.12.23,1.39.67a5.93,5.93,0,0,1,.62,1.74,12.83,12.83,0,0,1,.33,4.14,4.52,4.52,0,0,1-.51,1.84c-.42.71-1,.5-1.55,0s-1.24.31-.73.73a2.16,2.16,0,0,0,2.38.57,3,3,0,0,0,1.21-1.86,9.69,9.69,0,0,0,.26-2.94,12.5,12.5,0,0,0-.82-4.14c-.51-1.25-1.7-2.3-3.1-1.67-.6.27-.08,1.16.52.89Z"/><path d="M325.74,482.73a10.46,10.46,0,0,1-.94,3.28.54.54,0,0,0,.18.71.52.52,0,0,0,.7-.19,11.68,11.68,0,0,0,1.09-3.8.52.52,0,0,0-.51-.51.53.53,0,0,0-.52.51Z"/><path d="M323.45,486.55a56,56,0,0,1,5.62.68c.91.16,1.83.35,2.74.55.65.15,1.57.29,1.85,1a1.66,1.66,0,0,1-.43,1.66,2.67,2.67,0,0,1-2.07.66c-1.39-.05-2.86-1-4.09.09a.52.52,0,0,0-.14.5l1.18,3.16c.23.61,1.22.34,1-.28l-1.17-3.15-.14.5c.51-.43,1.32-.16,1.88,0a6.63,6.63,0,0,0,2,.23,3.23,3.23,0,0,0,2.9-1.86,2.3,2.3,0,0,0-1-3,8.06,8.06,0,0,0-2.05-.6c-.82-.17-1.64-.33-2.46-.47-1.85-.31-3.72-.53-5.59-.67-.66,0-.66,1,0,1Z"/><path d="M288.36,490.65a33.37,33.37,0,0,0-6.24-.18,13,13,0,0,0-4.23.85,5.39,5.39,0,0,0-3,2.88c-.54,1.48.51,2.57,1.58,3.44,4.24,3.47,11.59,3.55,15.15-1,.82-1.07,1.49-2.69.88-4-.72-1.55-2.54-1.61-4-1.92-.61-.14-.88.8-.26.94,1.08.23,2.68.19,3.31,1.3s-.22,2.55-.92,3.33a9.41,9.41,0,0,1-6.13,2.92,10.42,10.42,0,0,1-6.54-1.61c-1-.66-2.75-1.82-2.1-3.2a4.81,4.81,0,0,1,2.85-2.3,14.89,14.89,0,0,1,4.35-.66,33.61,33.61,0,0,1,5.31.23c.62.08.61-.9,0-1Z"/><polyline class="cls-5" points="89.86 402.27 204.37 402.27 236.83 423.82 232.07 402.27 321.95 402.27"/><text class="cls-6" transform="translate(85.42 608.79)">PROBLEM</text><line class="cls-7" x1="91.96" y1="621.27" x2="86.69" y2="619.01"/><line class="cls-7" x1="94.81" y1="617.76" x2="91.96" y2="613.74"/><line class="cls-7" x1="92.07" y1="625.49" x2="86.58" y2="626.67"/><circle class="cls-8" cx="105.16" cy="626.91" r="10.35"/><path class="cls-2" d="M115.23,628.57l-.23-.75-.75.22-.22-.75-1.51.45-.22-.75-2.26.67-.22-.75-1.51.45-.9-3-.75.23-.23-.75-1.5.45.22.75-.75.22,2,6.77-.75.23-.23-.75-2.25.67.22.75.11.38.34,1.13.75-.23.23.75.75-.22.45,1.5.75-.22.45,1.5.76-.22.45,1.5.75-.22.45,1.5.22.75,6.77-2,.75-.22-.67-2.26.75-.22-.68-2.26.76-.22L116,628.34Z"/><rect x="105.74" y="624.94" width="0.78" height="9.42" transform="translate(-176.17 56.91) rotate(-16.67)"/><rect x="105.01" y="624.04" width="1.57" height="0.78" transform="translate(-174.69 56.6) rotate(-16.67)"/><rect x="107.66" y="624.32" width="0.78" height="7.06" transform="translate(-175.58 57.39) rotate(-16.67)"/><rect x="108.39" y="627.12" width="1.57" height="0.78" transform="translate(-175.43 57.7) rotate(-16.67)"/><rect x="110.59" y="628.25" width="0.79" height="2.35" transform="translate(-175.91 58.29) rotate(-16.67)"/><rect x="110.1" y="627.31" width="2.35" height="0.78" transform="translate(-175.4 58.31) rotate(-16.67)"/><rect x="113.07" y="628.33" width="0.78" height="2.35" transform="translate(-175.82 59.01) rotate(-16.67)"/><rect x="112.6" y="627.5" width="1.57" height="0.78" transform="translate(-175.36 58.92) rotate(-16.67)"/><rect x="114.35" y="627.91" width="0.79" height="0.79" transform="translate(-175.42 59.33) rotate(-16.67)"/><rect x="116" y="628.34" width="0.78" height="5.49" transform="translate(-176.15 59.92) rotate(-16.67)"/><rect x="116.37" y="633.9" width="0.79" height="2.35" transform="translate(-177.28 60.19) rotate(-16.67)"/><rect x="116.3" y="636.38" width="0.78" height="2.35" transform="translate(-178 60.27) rotate(-16.67)"/><rect x="109.62" y="639.04" width="7.06" height="0.78" transform="translate(-178.68 59.34) rotate(-16.67)"/><rect x="105.77" y="632.12" width="0.78" height="0.78" transform="translate(-176.99 57.04) rotate(-16.67)"/><rect x="103.26" y="631.82" width="2.35" height="0.78" transform="translate(-176.98 56.53) rotate(-16.67)"/><rect x="103.63" y="632.78" width="0.79" height="1.57" transform="translate(-177.38 56.47) rotate(-16.67)"/><rect x="104.72" y="634.07" width="0.78" height="0.78" transform="translate(-177.6 56.82) rotate(-16.67)"/><rect x="105.81" y="634.58" width="0.78" height="1.57" transform="translate(-177.81 57.17) rotate(-16.67)"/><rect x="107.01" y="635.86" width="0.78" height="1.57" transform="translate(-178.13 57.57) rotate(-16.67)"/><rect x="108.21" y="637.14" width="0.78" height="1.57" transform="translate(-178.44 57.97) rotate(-16.67)"/><rect x="109.42" y="638.42" width="0.79" height="1.57" transform="translate(-178.76 58.37) rotate(-16.67)"/><path class="cls-2" d="M86.66,608.79H86v-5.9h1.66a2.28,2.28,0,0,1,1.13.25,1.71,1.71,0,0,1,.68.68,2,2,0,0,1,.22.95,2.1,2.1,0,0,1-.23,1,1.74,1.74,0,0,1-.68.72,2.16,2.16,0,0,1-1.12.27h-1Zm0-2.32-.3-.34h1.19a1.72,1.72,0,0,0,.8-.17,1.23,1.23,0,0,0,.48-.48,1.58,1.58,0,0,0,.15-.71,1.47,1.47,0,0,0-.15-.69,1,1,0,0,0-.47-.44,1.89,1.89,0,0,0-.81-.15H86.36l.3-.39Z"/><path class="cls-2" d="M91.38,608.79v-5.9h2.05a1.74,1.74,0,0,1,1.23.38,1.49,1.49,0,0,1,.43,1.17,1.63,1.63,0,0,1-.18.8,1.46,1.46,0,0,1-.43.51A1,1,0,0,1,94,606a1.16,1.16,0,0,1,.43.12.86.86,0,0,1,.35.31,1,1,0,0,1,.14.57v1.34a1.47,1.47,0,0,0,0,.31.39.39,0,0,0,.07.18h-.69a.93.93,0,0,1-.06-.18,1.47,1.47,0,0,1,0-.31V607a.7.7,0,0,0-.25-.58,1.12,1.12,0,0,0-.7-.19H91.86l.19-.26v2.78Zm.67-2.84-.19-.28h1.46a1,1,0,0,0,.53-.15,1.1,1.1,0,0,0,.39-.41,1.2,1.2,0,0,0,.15-.61.94.94,0,0,0-.29-.78,1.26,1.26,0,0,0-.83-.23H91.84l.21-.3Z"/><path class="cls-2" d="M99.14,608.87a2.17,2.17,0,0,1-1-.21,2.08,2.08,0,0,1-.74-.59,2.73,2.73,0,0,1-.5-1,4.9,4.9,0,0,1,0-2.56,2.68,2.68,0,0,1,.5-.95,2.14,2.14,0,0,1,.75-.59,2.23,2.23,0,0,1,.94-.2,2.31,2.31,0,0,1,1,.2,2.14,2.14,0,0,1,.75.59,2.84,2.84,0,0,1,.49.95,4.9,4.9,0,0,1,0,2.56,2.89,2.89,0,0,1-.49,1,2,2,0,0,1-.75.59A2.17,2.17,0,0,1,99.14,608.87Zm0-.62A1.45,1.45,0,0,0,100,608a1.79,1.79,0,0,0,.59-.8,3.75,3.75,0,0,0,.21-1.35,3.44,3.44,0,0,0-.22-1.34,1.72,1.72,0,0,0-.59-.8,1.55,1.55,0,0,0-1.72,0,1.72,1.72,0,0,0-.59.8,3.44,3.44,0,0,0-.22,1.34,3.53,3.53,0,0,0,.22,1.35,1.67,1.67,0,0,0,.59.8A1.44,1.44,0,0,0,99.14,608.25Z"/><path class="cls-2" d="M105.23,602.89a2.52,2.52,0,0,1,.93.15,1.19,1.19,0,0,1,.59.46,1.47,1.47,0,0,1,.2.79,1.38,1.38,0,0,1-.19.76,1.25,1.25,0,0,1-.47.47,1.51,1.51,0,0,1-.61.17,1.87,1.87,0,0,1,.66.15,1.26,1.26,0,0,1,.53.47,1.49,1.49,0,0,1,.21.84,1.78,1.78,0,0,1-.21.89,1.33,1.33,0,0,1-.62.55,2.49,2.49,0,0,1-1,.2h-1.93v-5.9Zm-1.3,2.76-.23-.24h1.21a1.7,1.7,0,0,0,1-.25.89.89,0,0,0,.35-.77.92.92,0,0,0-.14-.53.86.86,0,0,0-.42-.29,2.35,2.35,0,0,0-.63-.08h-1.45l.31-.39Zm1.14,2.54a1.56,1.56,0,0,0,1-.27,1,1,0,0,0,.35-.8,1.08,1.08,0,0,0-.12-.54.92.92,0,0,0-.31-.34,1.7,1.7,0,0,0-.46-.18,3.1,3.1,0,0,0-.54,0H103.7l.23-.23v2.79l-.31-.38Z"/><path class="cls-2" d="M108.93,608.79v-5.9h.68v5.68l-.31-.38h2.64v.6Z"/><path class="cls-2" d="M114,603.49l.31-.39v2.66l-.17-.23h2.26v.6h-2.26l.17-.24v2.68l-.31-.38h2.85v.6h-3.23v-5.9h3.23v.6Z"/><path class="cls-2" d="M122.94,602.89h1.18v5.9h-.65v-5.36h0l-1.5,5.35h-1l-1.51-5.36h0v5.36h-.65v-5.9h1.18l1.45,5.35h0Z"/><path class="cls-2" d="M140.59,626.36A3.26,3.26,0,0,1,139,626a2.71,2.71,0,0,1-1.09-1.06,3.14,3.14,0,0,1-.4-1.62,3,3,0,0,1,.4-1.6,2.66,2.66,0,0,1,1.09-1,3.62,3.62,0,0,1,2.76-.16,2.6,2.6,0,0,1,.87.53,2.38,2.38,0,0,1,.55.73,1.86,1.86,0,0,1,.18.79v0h-1.18v-.13a1.14,1.14,0,0,0-.26-.58,1.43,1.43,0,0,0-.55-.4,2.11,2.11,0,0,0-1.72.07,1.61,1.61,0,0,0-.67.65,2.18,2.18,0,0,0-.25,1.1,2.22,2.22,0,0,0,.25,1.11,1.63,1.63,0,0,0,.67.68,2.18,2.18,0,0,0,1.82.06,1.21,1.21,0,0,0,.52-.45,1.34,1.34,0,0,0,.2-.61h1.18a2,2,0,0,1-.18.8,2.31,2.31,0,0,1-.53.73,2.6,2.6,0,0,1-.87.53A3.43,3.43,0,0,1,140.59,626.36Z"/><path class="cls-2" d="M146.17,617.65v8.59H145v-8.59Z"/><path class="cls-2" d="M148.6,619.19a.86.86,0,0,1-.53-.16.56.56,0,0,1-.22-.47.54.54,0,0,1,.22-.46.86.86,0,0,1,.53-.17.88.88,0,0,1,.53.17.57.57,0,0,1,.22.46.59.59,0,0,1-.22.47A.88.88,0,0,1,148.6,619.19Zm-.59,7V620.4h1.17v5.84Z"/><path class="cls-2" d="M153.82,626.36a3.29,3.29,0,0,1-1.58-.37,2.71,2.71,0,0,1-1.09-1.06,3.14,3.14,0,0,1-.4-1.62,3,3,0,0,1,.4-1.6,2.66,2.66,0,0,1,1.09-1,3.4,3.4,0,0,1,1.58-.36,3.32,3.32,0,0,1,1.18.2,2.65,2.65,0,0,1,.88.53,2.35,2.35,0,0,1,.54.73,1.73,1.73,0,0,1,.19.79v0h-1.18s0,0,0-.07v-.06a1.12,1.12,0,0,0-.25-.58,1.51,1.51,0,0,0-.55-.4,2,2,0,0,0-.8-.15,1.9,1.9,0,0,0-.92.22,1.63,1.63,0,0,0-.68.65,2.18,2.18,0,0,0-.25,1.1,2.22,2.22,0,0,0,.25,1.11,1.69,1.69,0,0,0,.67.68,2.18,2.18,0,0,0,1.82.06,1.21,1.21,0,0,0,.52-.45,1.35,1.35,0,0,0,.21-.61h1.18a2,2,0,0,1-.18.8,2.2,2.2,0,0,1-.54.73,2.51,2.51,0,0,1-.87.53A3.43,3.43,0,0,1,153.82,626.36Z"/><path class="cls-2" d="M158.15,626.24v-8.59h1.13v5.15l-.29-.14,2.61-2.26h1.5l-2.83,2.51.29-.54,2.54,3.87h-1.27L159.78,623l.27.08-.92.81.15-.54v2.87Z"/><path class="cls-2" d="M170,626.34a2.94,2.94,0,0,1-1.52-.39,2.75,2.75,0,0,1-1-1.08,3.2,3.2,0,0,1-.37-1.55,3.14,3.14,0,0,1,.37-1.55,2.76,2.76,0,0,1,1-1.06,3.23,3.23,0,0,1,3,0,2.76,2.76,0,0,1,1,1.06,3.15,3.15,0,0,1,.38,1.55,3.2,3.2,0,0,1-.38,1.55,2.75,2.75,0,0,1-1,1.08A2.94,2.94,0,0,1,170,626.34Zm0-.62a2.18,2.18,0,0,0,1.17-.31,2.14,2.14,0,0,0,.78-.85,2.52,2.52,0,0,0,.29-1.24,2.5,2.5,0,0,0-.29-1.24,2.08,2.08,0,0,0-.78-.83,2.41,2.41,0,0,0-2.33,0,2,2,0,0,0-.79.83,2.61,2.61,0,0,0-.29,1.24,2.64,2.64,0,0,0,.29,1.24,2.09,2.09,0,0,0,.79.85A2.17,2.17,0,0,0,170,625.72Z"/><path class="cls-2" d="M174.77,626.24V620.4h.69v5.84Zm4.21,0V622.6a1.94,1.94,0,0,0-.18-.86,1.27,1.27,0,0,0-.53-.57,1.79,1.79,0,0,0-.92-.21,1.91,1.91,0,0,0-.93.25,1.93,1.93,0,0,0-.7.66,1.77,1.77,0,0,0-.26.94l-.42-.15a2.16,2.16,0,0,1,.35-1.2,2.47,2.47,0,0,1,.9-.83,2.37,2.37,0,0,1,1.18-.31,2.48,2.48,0,0,1,1.16.25,1.82,1.82,0,0,1,.76.72,2.37,2.37,0,0,1,.26,1.14v3.81Z"/><path class="cls-2" d="M185.05,618.93a.59.59,0,0,1-.37-.12.43.43,0,0,1-.15-.34.39.39,0,0,1,.15-.32.54.54,0,0,1,.37-.13.52.52,0,0,1,.36.13.39.39,0,0,1,.15.32.43.43,0,0,1-.15.34A.56.56,0,0,1,185.05,618.93Zm-.34,7.31V620.4h.67v5.84Z"/><path class="cls-2" d="M189.57,626.33a1.86,1.86,0,0,1-.48-.06,1,1,0,0,1-.42-.22,1,1,0,0,1-.29-.43,2,2,0,0,1-.1-.7V621h-1.41v-.6h1.24a.16.16,0,0,0,.11,0,.26.26,0,0,0,.05-.14c0-.06,0-.15,0-.26v-1.42H189v1.88h1.87v.6H189v3.68a1.76,1.76,0,0,0,.14.77.57.57,0,0,0,.56.28l.3,0a.53.53,0,0,0,.22-.06v.6a1,1,0,0,1-.25.06A2,2,0,0,1,189.57,626.33Z"/><path class="cls-2" d="M197.36,626.33a1.86,1.86,0,0,1-.48-.06,1,1,0,0,1-.42-.22.91.91,0,0,1-.29-.43,1.94,1.94,0,0,1-.11-.7V621h-1.4v-.6h1.23c.06,0,.1,0,.12,0a.26.26,0,0,0,.05-.14v-1.68h.69v1.88h1.87v.6h-1.87v3.68a1.63,1.63,0,0,0,.14.77.56.56,0,0,0,.55.28,1.55,1.55,0,0,0,.31,0,.53.53,0,0,0,.22-.06v.6a1.12,1.12,0,0,1-.26.06A1.9,1.9,0,0,1,197.36,626.33Z"/><path class="cls-2" d="M202.6,626.34a2.94,2.94,0,0,1-1.52-.39,2.75,2.75,0,0,1-1-1.08,3.2,3.2,0,0,1-.38-1.55,3.15,3.15,0,0,1,.38-1.55,2.76,2.76,0,0,1,1-1.06,3.23,3.23,0,0,1,3,0,2.76,2.76,0,0,1,1,1.06,3.14,3.14,0,0,1,.37,1.55,3.2,3.2,0,0,1-.37,1.55,2.75,2.75,0,0,1-1,1.08A2.94,2.94,0,0,1,202.6,626.34Zm0-.62a2.12,2.12,0,0,0,1.16-.31,2.09,2.09,0,0,0,.79-.85,2.64,2.64,0,0,0,.29-1.24,2.61,2.61,0,0,0-.29-1.24,2,2,0,0,0-.79-.83,2.2,2.2,0,0,0-1.16-.3,2.23,2.23,0,0,0-1.16.3,2,2,0,0,0-.79.83,2.5,2.5,0,0,0-.29,1.24,2.52,2.52,0,0,0,.29,1.24,2.09,2.09,0,0,0,.79.85A2.14,2.14,0,0,0,202.6,625.72Z"/><path class="cls-2" d="M213,626.34a2.94,2.94,0,0,1-1.52-.39,2.75,2.75,0,0,1-1-1.08,3.2,3.2,0,0,1-.37-1.55,3.14,3.14,0,0,1,.37-1.55,2.76,2.76,0,0,1,1-1.06,3.23,3.23,0,0,1,3,0,2.69,2.69,0,0,1,1,1.06,3.15,3.15,0,0,1,.38,1.55,3.2,3.2,0,0,1-.38,1.55,2.68,2.68,0,0,1-1,1.08A2.94,2.94,0,0,1,213,626.34Zm0-.62a2.18,2.18,0,0,0,1.17-.31,2.14,2.14,0,0,0,.78-.85,2.52,2.52,0,0,0,.29-1.24,2.5,2.5,0,0,0-.29-1.24,2.08,2.08,0,0,0-.78-.83,2.41,2.41,0,0,0-2.33,0,2,2,0,0,0-.79.83,2.61,2.61,0,0,0-.29,1.24,2.64,2.64,0,0,0,.29,1.24,2.09,2.09,0,0,0,.79.85A2.17,2.17,0,0,0,213,625.72Z"/><path class="cls-2" d="M217.73,628.65V620.4h.69v8.25Zm2.7-2.3a2.42,2.42,0,0,1-1.24-.33,2.53,2.53,0,0,1-.93-.88,2.29,2.29,0,0,1-.34-1.24v0l.5,0v0a1.64,1.64,0,0,0,.27.91,2,2,0,0,0,.7.67,1.94,1.94,0,0,0,1,.24,1.82,1.82,0,0,0,1.4-.6,3.2,3.2,0,0,0,0-3.56,1.82,1.82,0,0,0-1.4-.6,1.85,1.85,0,0,0-1,.25,1.93,1.93,0,0,0-.7.66,1.62,1.62,0,0,0-.27.91h-.5a2.3,2.3,0,0,1,.34-1.25,2.56,2.56,0,0,1,.93-.86,2.56,2.56,0,0,1,2.53,0,2.48,2.48,0,0,1,.92,1,3.54,3.54,0,0,1,.34,1.63,3.6,3.6,0,0,1-.34,1.65,2.38,2.38,0,0,1-.92,1A2.45,2.45,0,0,1,220.43,626.35Z"/><path class="cls-2" d="M224.94,623.61V623h4.73l-.13.19v-.11a2.27,2.27,0,0,0-.25-1.06,1.91,1.91,0,0,0-.7-.79,2.07,2.07,0,0,0-1.12-.29,2.3,2.3,0,0,0-1.18.3,2.22,2.22,0,0,0-.8.84,2.65,2.65,0,0,0-.28,1.25,2.69,2.69,0,0,0,.28,1.26,2.09,2.09,0,0,0,.8.84,2.31,2.31,0,0,0,1.19.3,2.57,2.57,0,0,0,.87-.13,2,2,0,0,0,.62-.32,1.5,1.5,0,0,0,.37-.44,1,1,0,0,0,.15-.43h.68a1.63,1.63,0,0,1-.21.67,2.12,2.12,0,0,1-.52.62,2.44,2.44,0,0,1-.84.48,3.6,3.6,0,0,1-1.14.17A2.9,2.9,0,0,1,226,626a2.83,2.83,0,0,1-1-1.06,3.43,3.43,0,0,1,0-3.14,2.79,2.79,0,0,1,1-1.06,2.89,2.89,0,0,1,1.5-.39,2.76,2.76,0,0,1,1.49.39,2.61,2.61,0,0,1,1,1.06,3.34,3.34,0,0,1,.34,1.5,1.21,1.21,0,0,1,0,.18v.16Z"/><path class="cls-2" d="M232.09,626.24V620.4h.68v5.84Zm4.2,0V622.6a2.09,2.09,0,0,0-.17-.86,1.32,1.32,0,0,0-.53-.57,1.82,1.82,0,0,0-.92-.21,1.91,1.91,0,0,0-.93.25,1.93,1.93,0,0,0-.7.66,1.69,1.69,0,0,0-.27.94l-.41-.15a2.16,2.16,0,0,1,.34-1.2,2.47,2.47,0,0,1,.9-.83,2.4,2.4,0,0,1,1.19-.31,2.44,2.44,0,0,1,1.15.25,1.82,1.82,0,0,1,.76.72,2.26,2.26,0,0,1,.27,1.14v3.81Z"/><path class="cls-2" d="M244,626.33a1.86,1.86,0,0,1-.48-.06,1,1,0,0,1-.42-.22,1,1,0,0,1-.29-.43,2,2,0,0,1-.1-.7V621h-1.41v-.6h1.24a.16.16,0,0,0,.11,0,.26.26,0,0,0,.05-.14c0-.06,0-.15,0-.26v-1.42h.68v1.88h1.87v.6h-1.87v3.68a1.76,1.76,0,0,0,.14.77.57.57,0,0,0,.56.28l.3,0a.53.53,0,0,0,.22-.06v.6a1,1,0,0,1-.25.06A2,2,0,0,1,244,626.33Z"/><path class="cls-2" d="M246.79,626.24v-8.59h.68v8.59Zm4.21,0v-3.42a2.07,2.07,0,0,0-.4-1.37,1.47,1.47,0,0,0-1.22-.49,2,2,0,0,0-1,.24,1.65,1.65,0,0,0-.67.61,1.46,1.46,0,0,0-.25.84l-.45-.13a2,2,0,0,1,.32-1.09,2.32,2.32,0,0,1,.87-.8,2.55,2.55,0,0,1,1.28-.31,2,2,0,0,1,1.61.63,2.53,2.53,0,0,1,.57,1.75v3.54Z"/><path class="cls-2" d="M253.85,623.61V623h4.73l-.14.19v-.11a2.39,2.39,0,0,0-.24-1.06,1.91,1.91,0,0,0-.7-.79,2.07,2.07,0,0,0-1.12-.29,2.28,2.28,0,0,0-1.18.3,2.22,2.22,0,0,0-.8.84,2.65,2.65,0,0,0-.28,1.25,2.69,2.69,0,0,0,.28,1.26,2.07,2.07,0,0,0,.79.84,2.35,2.35,0,0,0,1.2.3,2.57,2.57,0,0,0,.87-.13,2,2,0,0,0,.62-.32,1.67,1.67,0,0,0,.37-.44,1,1,0,0,0,.15-.43h.68a1.79,1.79,0,0,1-.21.67,2.29,2.29,0,0,1-.52.62,2.64,2.64,0,0,1-.84.48,3.6,3.6,0,0,1-1.14.17,2.9,2.9,0,0,1-1.51-.38,2.76,2.76,0,0,1-1-1.06,3.43,3.43,0,0,1,0-3.14,2.72,2.72,0,0,1,1-1.06,2.89,2.89,0,0,1,1.5-.39,2.78,2.78,0,0,1,1.49.39,2.59,2.59,0,0,1,1,1.06,3.22,3.22,0,0,1,.35,1.5c0,.05,0,.11,0,.18a.67.67,0,0,1,0,.16Z"/><path class="cls-2" d="M266.63,626.35a3,3,0,0,1-1.46-.36,2.74,2.74,0,0,1-1.07-1,3.5,3.5,0,0,1,0-3.25,2.62,2.62,0,0,1,1.07-1,3,3,0,0,1,1.46-.36,2.92,2.92,0,0,1,1.1.19,2.47,2.47,0,0,1,.82.5,2,2,0,0,1,.51.68,1.67,1.67,0,0,1,.18.73h0v0h-.68v-.06a.15.15,0,0,0,0-.07,1.27,1.27,0,0,0-.31-.71,1.92,1.92,0,0,0-.68-.49,2.27,2.27,0,0,0-.93-.18,2.33,2.33,0,0,0-1.1.27,2.07,2.07,0,0,0-.82.79,3,3,0,0,0,0,2.65,2,2,0,0,0,.82.8,2.17,2.17,0,0,0,1.1.28,2.26,2.26,0,0,0,1.07-.22,1.59,1.59,0,0,0,.64-.55,1.37,1.37,0,0,0,.22-.71h.68a1.85,1.85,0,0,1-.17.74,2,2,0,0,1-.49.68,2.3,2.3,0,0,1-.82.49A3,3,0,0,1,266.63,626.35Z"/><path class="cls-2" d="M273.73,626.34a2.9,2.9,0,0,1-1.51-.39,2.77,2.77,0,0,1-1-1.08,3.2,3.2,0,0,1-.37-1.55,3.14,3.14,0,0,1,.37-1.55,2.79,2.79,0,0,1,1-1.06,3.21,3.21,0,0,1,3,0,2.79,2.79,0,0,1,1,1.06,3.14,3.14,0,0,1,.37,1.55,3.2,3.2,0,0,1-.37,1.55,2.77,2.77,0,0,1-1,1.08A2.91,2.91,0,0,1,273.73,626.34Zm0-.62a2.13,2.13,0,0,0,2-1.16,2.63,2.63,0,0,0,.28-1.24,2.61,2.61,0,0,0-.28-1.24,2.11,2.11,0,0,0-.79-.83,2.41,2.41,0,0,0-2.33,0,2.11,2.11,0,0,0-.79.83,2.61,2.61,0,0,0-.28,1.24,2.63,2.63,0,0,0,.28,1.24,2.13,2.13,0,0,0,2,1.16Z"/><path class="cls-2" d="M278.49,626.24V620.4h.68v5.84Zm4.2,0V622.6a2.09,2.09,0,0,0-.17-.86,1.35,1.35,0,0,0-.54-.57,1.75,1.75,0,0,0-.91-.21,1.91,1.91,0,0,0-.93.25,1.85,1.85,0,0,0-.7.66,1.69,1.69,0,0,0-.27.94l-.41-.15a2.16,2.16,0,0,1,.34-1.2,2.47,2.47,0,0,1,.9-.83,2.38,2.38,0,0,1,1.19-.31,2.44,2.44,0,0,1,1.15.25,1.82,1.82,0,0,1,.76.72,2.26,2.26,0,0,1,.27,1.14v3.81Z"/><path class="cls-2" d="M285.4,626.24V620.4h.68v5.84Zm4.2,0V622.6a2.09,2.09,0,0,0-.17-.86,1.32,1.32,0,0,0-.53-.57A1.82,1.82,0,0,0,288,621a1.91,1.91,0,0,0-.93.25,1.93,1.93,0,0,0-.7.66,1.69,1.69,0,0,0-.27.94l-.41-.15a2.16,2.16,0,0,1,.34-1.2,2.43,2.43,0,0,1,.91-.83,2.34,2.34,0,0,1,1.18-.31,2.51,2.51,0,0,1,1.16.25,1.86,1.86,0,0,1,.75.72,2.26,2.26,0,0,1,.27,1.14v3.81Z"/><path class="cls-2" d="M292.45,623.61V623h4.73l-.14.19v-.11a2.39,2.39,0,0,0-.24-1.06,1.91,1.91,0,0,0-.7-.79,2.1,2.1,0,0,0-1.12-.29,2.28,2.28,0,0,0-1.18.3,2.22,2.22,0,0,0-.8.84,2.65,2.65,0,0,0-.28,1.25,2.69,2.69,0,0,0,.28,1.26,2.07,2.07,0,0,0,.79.84,2.32,2.32,0,0,0,1.2.3,2.57,2.57,0,0,0,.87-.13,1.85,1.85,0,0,0,.61-.32,1.54,1.54,0,0,0,.38-.44,1.3,1.3,0,0,0,.15-.43h.68a1.79,1.79,0,0,1-.21.67,2.29,2.29,0,0,1-.52.62,2.64,2.64,0,0,1-.84.48,3.62,3.62,0,0,1-1.15.17,2.89,2.89,0,0,1-1.5-.38,2.76,2.76,0,0,1-1-1.06,3.43,3.43,0,0,1,0-3.14,2.72,2.72,0,0,1,1-1.06,2.89,2.89,0,0,1,1.5-.39,2.72,2.72,0,0,1,1.48.39,2.55,2.55,0,0,1,1,1.06,3.22,3.22,0,0,1,.34,1.5v.18a.67.67,0,0,1,0,.16Z"/><path class="cls-2" d="M302.26,626.35a3.08,3.08,0,0,1-1.47-.36,2.78,2.78,0,0,1-1.06-1,3.5,3.5,0,0,1,0-3.25,2.66,2.66,0,0,1,1.06-1,3.08,3.08,0,0,1,1.47-.36,2.92,2.92,0,0,1,1.1.19,2.47,2.47,0,0,1,.82.5,2,2,0,0,1,.51.68,1.67,1.67,0,0,1,.18.73h0v0h-.68v-.06a.15.15,0,0,0,0-.07,1.27,1.27,0,0,0-.31-.71,1.92,1.92,0,0,0-.68-.49,2.27,2.27,0,0,0-.93-.18,2.33,2.33,0,0,0-1.1.27,2.07,2.07,0,0,0-.82.79,2.9,2.9,0,0,0,0,2.65,2.07,2.07,0,0,0,.81.8,2.23,2.23,0,0,0,1.11.28,2.26,2.26,0,0,0,1.07-.22A1.66,1.66,0,0,0,304,625a1.37,1.37,0,0,0,.22-.71h.68a1.85,1.85,0,0,1-.17.74,2,2,0,0,1-.49.68,2.3,2.3,0,0,1-.82.49A3,3,0,0,1,302.26,626.35Z"/><path class="cls-2" d="M308.6,626.33a2,2,0,0,1-.48-.06,1,1,0,0,1-.41-.22.91.91,0,0,1-.29-.43,1.94,1.94,0,0,1-.11-.7V621H305.9v-.6h1.24c.06,0,.1,0,.12,0a.26.26,0,0,0,0-.14,1.86,1.86,0,0,0,0-.26v-1.42H308v1.88h1.87v.6H308v3.68a1.62,1.62,0,0,0,.15.77.56.56,0,0,0,.55.28,1.39,1.39,0,0,0,.3,0,.58.58,0,0,0,.23-.06v.6a1.12,1.12,0,0,1-.26.06A2,2,0,0,1,308.6,626.33Z"/><path class="cls-2" d="M311.77,618.93a.57.57,0,0,1-.37-.12.44.44,0,0,1-.16-.34.4.4,0,0,1,.16-.32.52.52,0,0,1,.37-.13.52.52,0,0,1,.36.13.39.39,0,0,1,.15.32.43.43,0,0,1-.15.34A.56.56,0,0,1,311.77,618.93Zm-.34,7.31V620.4h.67v5.84Z"/><path class="cls-2" d="M316.9,626.34a2.9,2.9,0,0,1-1.51-.39,2.77,2.77,0,0,1-1-1.08,3.2,3.2,0,0,1-.37-1.55,3.14,3.14,0,0,1,.37-1.55,2.79,2.79,0,0,1,1-1.06,3.21,3.21,0,0,1,3,0,2.79,2.79,0,0,1,1,1.06,3.14,3.14,0,0,1,.37,1.55,3.2,3.2,0,0,1-.37,1.55,2.77,2.77,0,0,1-1,1.08A2.91,2.91,0,0,1,316.9,626.34Zm0-.62a2.13,2.13,0,0,0,2-1.16,2.63,2.63,0,0,0,.28-1.24,2.61,2.61,0,0,0-.28-1.24,2.11,2.11,0,0,0-.79-.83,2.41,2.41,0,0,0-2.33,0,2.11,2.11,0,0,0-.79.83,2.61,2.61,0,0,0-.28,1.24,2.63,2.63,0,0,0,.28,1.24,2.13,2.13,0,0,0,1.95,1.16Z"/><path class="cls-2" d="M321.66,626.24V620.4h.68v5.84Zm4.2,0V622.6a1.94,1.94,0,0,0-.18-.86,1.27,1.27,0,0,0-.53-.57,1.75,1.75,0,0,0-.91-.21,1.91,1.91,0,0,0-.93.25,2,2,0,0,0-.71.66,1.77,1.77,0,0,0-.26.94l-.41-.15a2.16,2.16,0,0,1,.34-1.2,2.47,2.47,0,0,1,.9-.83,2.38,2.38,0,0,1,1.19-.31,2.47,2.47,0,0,1,1.15.25,1.82,1.82,0,0,1,.76.72,2.26,2.26,0,0,1,.26,1.14v3.81Z"/><path class="cls-2" d="M330.69,626.35a4.11,4.11,0,0,1-1-.11,2.4,2.4,0,0,1-.74-.32,1.51,1.51,0,0,1-.49-.52,1.35,1.35,0,0,1-.18-.7v-.19H329v.16a.9.9,0,0,0,.47.78,2.3,2.3,0,0,0,1.24.28,3.06,3.06,0,0,0,.89-.11,1.45,1.45,0,0,0,.6-.34.76.76,0,0,0,.22-.54A.78.78,0,0,0,332,624a5.21,5.21,0,0,0-1.35-.38,6.41,6.41,0,0,1-.86-.2,2.66,2.66,0,0,1-.7-.32,1.32,1.32,0,0,1-.47-.47,1.36,1.36,0,0,1-.17-.69,1.27,1.27,0,0,1,.31-.87,1.84,1.84,0,0,1,.82-.54,3.27,3.27,0,0,1,1.15-.19,3.17,3.17,0,0,1,1.14.19,2,2,0,0,1,.84.56,1.48,1.48,0,0,1,.31.95v.12h-.68V622a.9.9,0,0,0-.23-.64,1.34,1.34,0,0,0-.59-.36,2.76,2.76,0,0,0-.77-.11,2.88,2.88,0,0,0-.78.1,1.46,1.46,0,0,0-.61.31.7.7,0,0,0-.23.56.73.73,0,0,0,.22.56,1.57,1.57,0,0,0,.62.34c.26.08.58.16.93.23a6.64,6.64,0,0,1,.9.21,2.65,2.65,0,0,1,.7.31,1.29,1.29,0,0,1,.46.47,1.36,1.36,0,0,1,.17.69,1.39,1.39,0,0,1-.18.71,1.55,1.55,0,0,1-.51.51,2.48,2.48,0,0,1-.76.31A4,4,0,0,1,330.69,626.35Z"/><path class="cls-2" d="M335.32,626.38a.55.55,0,0,1-.55-.55.53.53,0,0,1,.16-.39.5.5,0,0,1,.39-.16.53.53,0,0,1,.39.16.57.57,0,0,1,.16.39.53.53,0,0,1-.16.39A.53.53,0,0,1,335.32,626.38Z"/></g></g></svg>