<svg xmlns="http://www.w3.org/2000/svg" viewBox="0 0 440 672"><defs><style>.cls-1,.cls-2{fill:#fff;}.cls-1{opacity:0.05;}.cls-3,.cls-4{fill:none;stroke-miterlimit:10;}.cls-3{stroke:aqua;stroke-linecap:round;stroke-width:0.8px;stroke-dasharray:1.61 4.01;}.cls-4{stroke:#fff;stroke-width:0.5px;}.cls-5{fill:#e200ff;}.cls-6{fill:#00b3f9;}.cls-7{fill:#1a171b;}</style></defs><g id="Layer_2" data-name="Layer 2"><g id="Layer_2-2" data-name="Layer 2"><rect class="cls-1" width="440" height="672" rx="22.03"/><path class="cls-2" d="M89.81,77.52a2.81,2.81,0,0,1,2,.71,2.53,2.53,0,0,1,.76,2,2.71,2.71,0,0,1-.83,2,3.24,3.24,0,0,1-2.34.8A2.92,2.92,0,0,1,87,82a4.06,4.06,0,0,1-.84-2.65,4.88,4.88,0,0,1,.77-2.73,7.27,7.27,0,0,1,1.9-2A10.78,10.78,0,0,1,91.1,73.3l.61,1.23a7.5,7.5,0,0,0-1.55.86,5.82,5.82,0,0,0-1.28,1.24A2.36,2.36,0,0,0,88.35,78a1.13,1.13,0,0,1,.46-.31A2.42,2.42,0,0,1,89.81,77.52Zm7.72,0a2.77,2.77,0,0,1,2,.71,2.53,2.53,0,0,1,.76,2,2.7,2.7,0,0,1-.82,2,3.26,3.26,0,0,1-2.35.8,2.88,2.88,0,0,1-2.39-1,4.06,4.06,0,0,1-.84-2.65,4.87,4.87,0,0,1,.76-2.73,7.31,7.31,0,0,1,1.91-2,10.78,10.78,0,0,1,2.29-1.28l.61,1.23a7.26,7.26,0,0,0-1.55.86,5.61,5.61,0,0,0-1.28,1.24A2.38,2.38,0,0,0,96.06,78a1.11,1.11,0,0,1,.47-.31A2.39,2.39,0,0,1,97.53,77.52Z"/><path class="cls-2" d="M122.66,78.32h-8.87l1.84-2.49v26.52h-5V75.83l1.94,2.49h-9v-4h19Z"/><path class="cls-2" d="M127.47,102.35V72.65h5v29.7Zm14.29,0v-11a6.47,6.47,0,0,0-1-3.85,3.86,3.86,0,0,0-3.34-1.34,5.45,5.45,0,0,0-2.68.62,4.14,4.14,0,0,0-1.7,1.72,5.21,5.21,0,0,0-.59,2.54l-1.83-1a8.43,8.43,0,0,1,1.09-4.28,7.75,7.75,0,0,1,3-2.94,9.16,9.16,0,0,1,4.44-1.06A7.13,7.13,0,0,1,144.82,84a8.77,8.77,0,0,1,1.93,6v12.29Z"/><path class="cls-2" d="M154.39,93.88V90.32h14.12l-.57,1v-.49a5.37,5.37,0,0,0-.59-2.46,4.5,4.5,0,0,0-1.79-1.86,5.8,5.8,0,0,0-3-.72,6.27,6.27,0,0,0-3.16.77,5.29,5.29,0,0,0-2.07,2.22,7.52,7.52,0,0,0-.73,3.46,8.28,8.28,0,0,0,.7,3.56A5.13,5.13,0,0,0,159.32,98a6.58,6.58,0,0,0,3.32.79,9.69,9.69,0,0,0,2.3-.25,4.91,4.91,0,0,0,1.58-.67,3.33,3.33,0,0,0,.94-.93,2.47,2.47,0,0,0,.37-1h5a5.68,5.68,0,0,1-.84,2.48,7.88,7.88,0,0,1-2,2.18,10.66,10.66,0,0,1-3.19,1.56,14.25,14.25,0,0,1-4.26.58,11.6,11.6,0,0,1-5.68-1.33A9.53,9.53,0,0,1,153,97.75a11.57,11.57,0,0,1,0-10.92,9.6,9.6,0,0,1,3.82-3.68,11.7,11.7,0,0,1,5.63-1.32,11.38,11.38,0,0,1,5.65,1.33,9.23,9.23,0,0,1,3.68,3.7,11.29,11.29,0,0,1,1.29,5.5c0,.26,0,.55,0,.85a4.16,4.16,0,0,1-.06.67Z"/><path class="cls-2" d="M98.61,155.77a11,11,0,0,1-5.94-1.67,11.66,11.66,0,0,1-4.24-4.89,17.46,17.46,0,0,1-1.58-7.81,17.21,17.21,0,0,1,1.63-7.84,11.82,11.82,0,0,1,4.42-4.93,11.65,11.65,0,0,1,6.22-1.7,11.23,11.23,0,0,1,4.84.94,9.31,9.31,0,0,1,3.23,2.42,9.72,9.72,0,0,1,1.8,3.12,9.23,9.23,0,0,1,.56,3v.22h-4.86v-.22a5.62,5.62,0,0,0-.34-1.94,5.15,5.15,0,0,0-1-1.73,5.09,5.09,0,0,0-1.75-1.24,6.06,6.06,0,0,0-2.43-.45,6.48,6.48,0,0,0-3.52,1,7.3,7.3,0,0,0-2.66,3.32,14.66,14.66,0,0,0-1,6,17.11,17.11,0,0,0,.57,4.75A9.08,9.08,0,0,0,94,149.33a6,6,0,0,0,2.24,1.77,6.4,6.4,0,0,0,2.67.57,6.89,6.89,0,0,0,3.16-.65,5.38,5.38,0,0,0,2-1.62,4.69,4.69,0,0,0,.9-1.9v-2.18H99v-3.76h10.47v13.79h-2.89l-.42-3.12a3.85,3.85,0,0,1-.62.94,6.45,6.45,0,0,1-1.37,1.18,8.41,8.41,0,0,1-2.27,1A11.8,11.8,0,0,1,98.61,155.77Z"/><path class="cls-2" d="M125.38,155.75a11.48,11.48,0,0,1-5.62-1.34A9.71,9.71,0,0,1,116,150.7a10.65,10.65,0,0,1-1.38-5.44,10.48,10.48,0,0,1,1.38-5.42,9.7,9.7,0,0,1,3.81-3.68,12.54,12.54,0,0,1,11.24,0,9.7,9.7,0,0,1,3.81,3.68,10.48,10.48,0,0,1,1.38,5.42,10.65,10.65,0,0,1-1.38,5.44,9.71,9.71,0,0,1-3.81,3.71A11.48,11.48,0,0,1,125.38,155.75Zm0-4.08a5.65,5.65,0,0,0,3-.8,5.49,5.49,0,0,0,2-2.24,7.41,7.41,0,0,0,.72-3.37,7.29,7.29,0,0,0-.72-3.35,5.45,5.45,0,0,0-2-2.2,6.22,6.22,0,0,0-6,0,5.31,5.31,0,0,0-2,2.2,7.17,7.17,0,0,0-.73,3.35,7.28,7.28,0,0,0,.73,3.37,5.36,5.36,0,0,0,2,2.24A5.66,5.66,0,0,0,125.38,151.67Z"/><path class="cls-2" d="M158.31,135.17,152,155.35h-6.71l-6.48-20.18H144L149,153.6h-.8l4.9-18.43Z"/><path class="cls-2" d="M163.42,146.88v-3.56h14.12l-.57,1v-.49a5.37,5.37,0,0,0-.59-2.46,4.57,4.57,0,0,0-1.79-1.86,5.82,5.82,0,0,0-3-.72,6.24,6.24,0,0,0-3.16.77,5.17,5.17,0,0,0-2.07,2.22,7.52,7.52,0,0,0-.74,3.46,8.28,8.28,0,0,0,.71,3.56,5.08,5.08,0,0,0,2.06,2.28,6.54,6.54,0,0,0,3.31.79,9.57,9.57,0,0,0,2.3-.25,4.88,4.88,0,0,0,1.59-.67,3.42,3.42,0,0,0,.93-.93,2.33,2.33,0,0,0,.37-1h5a5.83,5.83,0,0,1-.85,2.48,7.59,7.59,0,0,1-2,2.18,10.49,10.49,0,0,1-3.18,1.56,14.32,14.32,0,0,1-4.27.58,11.63,11.63,0,0,1-5.68-1.33,9.59,9.59,0,0,1-3.79-3.71,10.78,10.78,0,0,1-1.36-5.43,10.66,10.66,0,0,1,1.38-5.49,9.69,9.69,0,0,1,3.83-3.68,11.66,11.66,0,0,1,5.62-1.32,11.42,11.42,0,0,1,5.66,1.33,9.2,9.2,0,0,1,3.67,3.7,11.29,11.29,0,0,1,1.29,5.5c0,.26,0,.55,0,.85s0,.53-.06.67Z"/><path class="cls-2" d="M187.19,155.35V135.17h5v6.71l-1.15-.65a9.42,9.42,0,0,1,.7-2.48,6.88,6.88,0,0,1,1.37-2.05,6,6,0,0,1,2.07-1.38,7.48,7.48,0,0,1,2.77-.49,8.32,8.32,0,0,1,1.95.18,3.4,3.4,0,0,1,.88.3l-.91,4.58a3.79,3.79,0,0,0-.77-.34,5,5,0,0,0-1.55-.2,5.65,5.65,0,0,0-2.57.53,4.27,4.27,0,0,0-1.65,1.4,6.18,6.18,0,0,0-.87,1.94,8.4,8.4,0,0,0-.27,2.1v10Z"/><path class="cls-2" d="M204.88,155.35V135.17h5v20.18Zm14.27,0V144a7.3,7.3,0,0,0-.39-2.46,3.41,3.41,0,0,0-1.33-1.72,4.63,4.63,0,0,0-2.6-.63,4.79,4.79,0,0,0-2.56.69,4.88,4.88,0,0,0-1.76,1.9,6,6,0,0,0-.64,2.79l-1.69-1.05a8.8,8.8,0,0,1,1.15-4.49,8.48,8.48,0,0,1,3.09-3.09,8.38,8.38,0,0,1,4.29-1.12,8.21,8.21,0,0,1,4.1.95,6.08,6.08,0,0,1,2.51,2.7,9.35,9.35,0,0,1,.84,4.1v12.77Z"/><path class="cls-2" d="M229.92,155.35V135.17h5v20.18Zm12.54,0V143.78a12.07,12.07,0,0,0-.1-1.55,4.58,4.58,0,0,0-.42-1.49,2.52,2.52,0,0,0-1-1.11,3.41,3.41,0,0,0-1.86-.43,3.69,3.69,0,0,0-1.92.47,3.92,3.92,0,0,0-1.3,1.23,5.49,5.49,0,0,0-.73,1.75,8.89,8.89,0,0,0-.23,2l-1.67-1.12a10.19,10.19,0,0,1,.93-4.44,7.6,7.6,0,0,1,2.65-3.11,7.16,7.16,0,0,1,4.08-1.15,6.52,6.52,0,0,1,3.86,1,5.54,5.54,0,0,1,2,2.74,11.57,11.57,0,0,1,.62,3.88v12.88Zm12.46,0V143.74a14.44,14.44,0,0,0-.09-1.6,4.83,4.83,0,0,0-.42-1.47,2.57,2.57,0,0,0-1-1.06,3.64,3.64,0,0,0-1.86-.41,3.8,3.8,0,0,0-1.95.46,3.57,3.57,0,0,0-1.26,1.21,5.39,5.39,0,0,0-.69,1.71,8.27,8.27,0,0,0-.22,1.9l-1.68-1.1a10.05,10.05,0,0,1,.92-4.35,7.41,7.41,0,0,1,2.62-3.07,7.21,7.21,0,0,1,4.06-1.13,6.7,6.7,0,0,1,3.82,1,5.46,5.46,0,0,1,2.1,2.65,10.43,10.43,0,0,1,.66,3.83v13.07Z"/><path class="cls-2" d="M267.56,146.88v-3.56h14.11l-.57,1v-.49a5.25,5.25,0,0,0-.59-2.46,4.48,4.48,0,0,0-1.78-1.86,5.82,5.82,0,0,0-3-.72,6.31,6.31,0,0,0-3.17.77,5.29,5.29,0,0,0-2.07,2.22,7.65,7.65,0,0,0-.73,3.46,8.28,8.28,0,0,0,.71,3.56,5,5,0,0,0,2.06,2.28,6.54,6.54,0,0,0,3.31.79,9.63,9.63,0,0,0,2.3-.25,4.88,4.88,0,0,0,1.59-.67,3.42,3.42,0,0,0,.93-.93,2.33,2.33,0,0,0,.37-1h5a5.83,5.83,0,0,1-.85,2.48,7.88,7.88,0,0,1-2,2.18,10.72,10.72,0,0,1-3.18,1.56,14.32,14.32,0,0,1-4.27.58,11.63,11.63,0,0,1-5.68-1.33,9.53,9.53,0,0,1-3.79-3.71,11.57,11.57,0,0,1,0-10.92,9.62,9.62,0,0,1,3.83-3.68,11.66,11.66,0,0,1,5.62-1.32,11.38,11.38,0,0,1,5.65,1.33,9.23,9.23,0,0,1,3.68,3.7,11.29,11.29,0,0,1,1.29,5.5c0,.26,0,.55,0,.85a6.42,6.42,0,0,1-.05.67Z"/><path class="cls-2" d="M291.32,155.35V135.17h5v20.18Zm14.27,0V144a7.3,7.3,0,0,0-.39-2.46,3.36,3.36,0,0,0-1.33-1.72,4.59,4.59,0,0,0-2.59-.63,4.76,4.76,0,0,0-2.56.69,4.88,4.88,0,0,0-1.76,1.9,5.86,5.86,0,0,0-.64,2.79l-1.69-1.05a8.7,8.7,0,0,1,1.15-4.49,8.48,8.48,0,0,1,3.09-3.09,8.38,8.38,0,0,1,4.29-1.12,8.21,8.21,0,0,1,4.1.95,6.06,6.06,0,0,1,2.5,2.7,9.21,9.21,0,0,1,.85,4.1v12.77Z"/><path class="cls-2" d="M325.14,155.73a12,12,0,0,1-2.2-.21,6,6,0,0,1-2.05-.78,4.08,4.08,0,0,1-1.5-1.67,6.33,6.33,0,0,1-.57-2.91v-11h-4.77v-4H316a12.38,12.38,0,0,0,1.55-.08,1.34,1.34,0,0,0,.84-.41,1.9,1.9,0,0,0,.35-1,15.81,15.81,0,0,0,.09-1.93v-3.21h5v6.65h6v4h-6v9.48a6.09,6.09,0,0,0,.35,2.26c.22.57.76.86,1.61.86a6,6,0,0,0,1.15-.11,5.84,5.84,0,0,0,.81-.23v3.91a7,7,0,0,1-1.05.27A8,8,0,0,1,325.14,155.73Z"/><path class="cls-2" d="M95.82,208.77a14.08,14.08,0,0,1-3.43-.4,9.77,9.77,0,0,1-2.89-1.2,6.2,6.2,0,0,1-2-2,5.2,5.2,0,0,1-.73-2.75V202h5v.34a2,2,0,0,0,1.13,1.85,6.48,6.48,0,0,0,3.09.62,8.5,8.5,0,0,0,2-.23,3.76,3.76,0,0,0,1.52-.7,1.51,1.51,0,0,0,.58-1.22A1.76,1.76,0,0,0,98.85,201,18.42,18.42,0,0,0,95,200a25.61,25.61,0,0,1-2.85-.67,10.4,10.4,0,0,1-2.56-1.12,5.82,5.82,0,0,1-1.84-1.75,4.48,4.48,0,0,1-.69-2.54,4.9,4.9,0,0,1,1.18-3.35,7.42,7.42,0,0,1,3.2-2.07,13.46,13.46,0,0,1,4.41-.7,12,12,0,0,1,4.32.76,7.88,7.88,0,0,1,3.22,2.19,5.12,5.12,0,0,1,1.22,3.44v.3H99.67v-.25a1.9,1.9,0,0,0-.55-1.42A3.31,3.31,0,0,0,97.7,192a6.27,6.27,0,0,0-1.85-.27,9.07,9.07,0,0,0-1.76.18,3.69,3.69,0,0,0-1.52.63,1.45,1.45,0,0,0-.61,1.25,1.48,1.48,0,0,0,.63,1.23,5.14,5.14,0,0,0,1.74.79,23.94,23.94,0,0,0,2.59.56,24.38,24.38,0,0,1,2.8.63,11.53,11.53,0,0,1,2.59,1.06,5.43,5.43,0,0,1,1.91,1.74,4.59,4.59,0,0,1,.74,2.65,5.2,5.2,0,0,1-.76,2.85,6.16,6.16,0,0,1-2.07,1.95,9.88,9.88,0,0,1-2.93,1.13A15.7,15.7,0,0,1,95.82,208.77Z"/><path class="cls-2" d="M110,208.35v-29.7h5v29.7Zm14.29,0v-11a6.47,6.47,0,0,0-1-3.85A3.87,3.87,0,0,0,120,192.2a5.51,5.51,0,0,0-2.69.62,4.2,4.2,0,0,0-1.7,1.72,5.32,5.32,0,0,0-.59,2.54l-1.82-1a8.33,8.33,0,0,1,1.09-4.28,7.79,7.79,0,0,1,3-2.94,9.23,9.23,0,0,1,4.45-1.06,7.15,7.15,0,0,1,5.61,2.18,8.77,8.77,0,0,1,1.93,6.05v12.29Z"/><path class="cls-2" d="M145,208.75a11.52,11.52,0,0,1-5.63-1.34,9.78,9.78,0,0,1-3.81-3.71,10.65,10.65,0,0,1-1.37-5.44,10.47,10.47,0,0,1,1.37-5.42,9.77,9.77,0,0,1,3.81-3.68,12.56,12.56,0,0,1,11.25,0,9.77,9.77,0,0,1,3.81,3.68,10.48,10.48,0,0,1,1.38,5.42,10.65,10.65,0,0,1-1.38,5.44,9.78,9.78,0,0,1-3.81,3.71A11.48,11.48,0,0,1,145,208.75Zm0-4.08a5.65,5.65,0,0,0,3-.8,5.4,5.4,0,0,0,2-2.24,7.41,7.41,0,0,0,.72-3.37,7.29,7.29,0,0,0-.72-3.35,5.35,5.35,0,0,0-2-2.2,6.22,6.22,0,0,0-6,0,5.33,5.33,0,0,0-2,2.2,7.29,7.29,0,0,0-.72,3.35,7.41,7.41,0,0,0,.72,3.37,5.38,5.38,0,0,0,2,2.24A5.64,5.64,0,0,0,145,204.67Z"/><path class="cls-2" d="M168.15,208.73a7.81,7.81,0,0,1-3.56-.72,5.88,5.88,0,0,1-2.23-1.9,7.59,7.59,0,0,1-1.14-2.6,12.6,12.6,0,0,1-.33-2.85V188.17h5v11.19a9,9,0,0,0,.32,2.5,3.52,3.52,0,0,0,1.19,1.86,3.81,3.81,0,0,0,2.44.7,4,4,0,0,0,2.58-.89,5.78,5.78,0,0,0,1.68-2.23,6.67,6.67,0,0,0,.6-2.73l1.71,1.14a10.38,10.38,0,0,1-.57,3.46,8.73,8.73,0,0,1-1.65,2.88,7.7,7.7,0,0,1-2.61,2A8.15,8.15,0,0,1,168.15,208.73Zm6.57-.38V188.17h5v20.18Z"/><path class="cls-2" d="M190.7,178.65v29.7h-4.92v-29.7Z"/><path class="cls-2" d="M205.14,208.77a9.13,9.13,0,0,1-4.61-1.21,8.77,8.77,0,0,1-3.39-3.56,12,12,0,0,1-1.27-5.8,11.41,11.41,0,0,1,1.3-5.66,9,9,0,0,1,8-4.71,8.56,8.56,0,0,1,4.39,1.17,8.88,8.88,0,0,1,3.23,3.24A9.2,9.2,0,0,1,214,197v.3l-2.47.06v-.25a4.6,4.6,0,0,0-.75-2.62,5.38,5.38,0,0,0-1.94-1.76,5.29,5.29,0,0,0-2.52-.63,5.17,5.17,0,0,0-3.72,1.47A6.15,6.15,0,0,0,201,198.2a6.23,6.23,0,0,0,1.54,4.66,5.12,5.12,0,0,0,3.72,1.5,5.18,5.18,0,0,0,2.57-.66,5.31,5.31,0,0,0,1.9-1.84,4.94,4.94,0,0,0,.74-2.69l2.47.12a9.8,9.8,0,0,1-1.19,4.81,9.19,9.19,0,0,1-3.18,3.42A8.27,8.27,0,0,1,205.14,208.77Zm6.37-.42v-29.7h5v29.7Z"/><path class="cls-2" d="M90.06,237.45a3.49,3.49,0,0,1-2.12-.66,2.29,2.29,0,0,1,0-3.64,3.55,3.55,0,0,1,2.12-.64,3.48,3.48,0,0,1,2.09.64,2.31,2.31,0,0,1,0,3.64A3.43,3.43,0,0,1,90.06,237.45Zm-2.49,23.9V241.17h4.94v20.18Z"/><path class="cls-2" d="M98.4,261.35V241.17h5v20.18Zm14.27,0V250a7.3,7.3,0,0,0-.39-2.46,3.36,3.36,0,0,0-1.33-1.72,4.61,4.61,0,0,0-2.59-.63,4.8,4.8,0,0,0-2.57.69,5,5,0,0,0-1.76,1.9,6,6,0,0,0-.63,2.79l-1.69-1.05a8.7,8.7,0,0,1,1.15-4.49,8.37,8.37,0,0,1,7.38-4.21,8.17,8.17,0,0,1,4.09.95,6,6,0,0,1,2.51,2.7,9.35,9.35,0,0,1,.85,4.1v12.77Z"/><path class="cls-2" d="M133.42,261.77a11.87,11.87,0,0,1-5.65-1.31,9.58,9.58,0,0,1-3.83-3.69,10.79,10.79,0,0,1-1.39-5.57,10.57,10.57,0,0,1,1.39-5.51,9.43,9.43,0,0,1,3.83-3.6,12.21,12.21,0,0,1,5.65-1.26,12,12,0,0,1,4.23.7,9.5,9.5,0,0,1,3.11,1.88,8.31,8.31,0,0,1,1.93,2.56,6.47,6.47,0,0,1,.66,2.78v.16h-5a1.48,1.48,0,0,0,0-.21l0-.23a3.68,3.68,0,0,0-.78-1.76,4.58,4.58,0,0,0-1.67-1.26,6,6,0,0,0-2.53-.48,6,6,0,0,0-2.88.7,5,5,0,0,0-2.07,2.08,7,7,0,0,0-.77,3.45,7.35,7.35,0,0,0,.76,3.49,5.32,5.32,0,0,0,2.06,2.19,5.72,5.72,0,0,0,2.9.75,6.25,6.25,0,0,0,2.76-.53,3.76,3.76,0,0,0,1.63-1.4,4.24,4.24,0,0,0,.63-1.93h5a6.72,6.72,0,0,1-.64,2.82,8.2,8.2,0,0,1-1.9,2.59,9.25,9.25,0,0,1-3.11,1.89A12.19,12.19,0,0,1,133.42,261.77Z"/><path class="cls-2" d="M148.43,261.35V241.17h5v6.71l-1.16-.65a9.83,9.83,0,0,1,.71-2.48,6.88,6.88,0,0,1,1.37-2.05,5.88,5.88,0,0,1,2.07-1.38,7.48,7.48,0,0,1,2.77-.49,8.38,8.38,0,0,1,1.95.18,3.4,3.4,0,0,1,.88.3l-.91,4.58a3.79,3.79,0,0,0-.77-.34,5,5,0,0,0-1.55-.2,5.65,5.65,0,0,0-2.57.53,4.27,4.27,0,0,0-1.65,1.4,6.18,6.18,0,0,0-.87,1.94,8.4,8.4,0,0,0-.27,2.1v10Z"/><path class="cls-2" d="M167.6,252.88v-3.56h14.11l-.57,1v-.49a5.37,5.37,0,0,0-.58-2.46,4.57,4.57,0,0,0-1.79-1.86,5.82,5.82,0,0,0-3-.72,6.24,6.24,0,0,0-3.16.77,5.25,5.25,0,0,0-2.08,2.22,7.65,7.65,0,0,0-.73,3.46,8.28,8.28,0,0,0,.71,3.56,5.08,5.08,0,0,0,2.06,2.28,6.54,6.54,0,0,0,3.31.79,9.57,9.57,0,0,0,2.3-.25,4.88,4.88,0,0,0,1.59-.67,3.42,3.42,0,0,0,.93-.93,2.33,2.33,0,0,0,.37-1h5a5.83,5.83,0,0,1-.85,2.48,7.73,7.73,0,0,1-2,2.18,10.49,10.49,0,0,1-3.18,1.56,14.32,14.32,0,0,1-4.27.58,11.63,11.63,0,0,1-5.68-1.33,9.59,9.59,0,0,1-3.79-3.71,10.78,10.78,0,0,1-1.36-5.43,10.66,10.66,0,0,1,1.38-5.49,9.62,9.62,0,0,1,3.83-3.68,11.66,11.66,0,0,1,5.62-1.32,11.38,11.38,0,0,1,5.65,1.33,9.23,9.23,0,0,1,3.68,3.7,11.29,11.29,0,0,1,1.29,5.5c0,.26,0,.55,0,.85a6.42,6.42,0,0,1-.05.67Z"/><path class="cls-2" d="M198.28,261.77a10.34,10.34,0,0,1-4-.71,6.16,6.16,0,0,1-2.68-2.07,5.43,5.43,0,0,1-1-3.24,5.12,5.12,0,0,1,1.13-3.41,7.3,7.3,0,0,1,3.05-2.08,16.22,16.22,0,0,1,4.26-.94,43.12,43.12,0,0,0,4.83-.65q1.38-.31,1.38-1v0a2.27,2.27,0,0,0-1.2-2.05,6.56,6.56,0,0,0-3.38-.72,6.36,6.36,0,0,0-3.52.81A2.83,2.83,0,0,0,196,248.2H191a6.37,6.37,0,0,1,1.27-4,7.81,7.81,0,0,1,3.46-2.49,13.76,13.76,0,0,1,5-.86,14,14,0,0,1,4.77.78A7.88,7.88,0,0,1,209,244a6,6,0,0,1,1.31,3.93v9.2c0,.48,0,.95,0,1.41a6.44,6.44,0,0,0,.19,1.25,4.4,4.4,0,0,0,.46,1,3.79,3.79,0,0,0,.42.57h-4.94a3.13,3.13,0,0,1-.37-.52,5.39,5.39,0,0,1-.43-.9,6.51,6.51,0,0,1-.28-1.23,9.26,9.26,0,0,1-.1-1.45l1,.68a5.54,5.54,0,0,1-1.74,2,8.66,8.66,0,0,1-2.78,1.34A12.33,12.33,0,0,1,198.28,261.77Zm1.22-3.93a7.62,7.62,0,0,0,2.89-.54,4.79,4.79,0,0,0,2.14-1.64,4.66,4.66,0,0,0,.82-2.86v-2.7l1.22,1.37a17,17,0,0,1-2.93.75c-1.14.2-2.29.35-3.46.47a9.82,9.82,0,0,0-3.37.78,1.94,1.94,0,0,0-1.13,1.86,2.12,2.12,0,0,0,.95,1.88A5.24,5.24,0,0,0,199.5,257.84Z"/><path class="cls-2" d="M224.08,261.77a14.2,14.2,0,0,1-3.43-.4,9.82,9.82,0,0,1-2.88-1.2,6.11,6.11,0,0,1-2-2,5.11,5.11,0,0,1-.73-2.75V255h5v.34a2,2,0,0,0,1.13,1.85,6.47,6.47,0,0,0,3.08.62,8.65,8.65,0,0,0,2-.23,3.83,3.83,0,0,0,1.52-.7,1.51,1.51,0,0,0,.58-1.22,1.76,1.76,0,0,0-1.23-1.71,18.29,18.29,0,0,0-3.84-.93,24.6,24.6,0,0,1-2.85-.67,10.4,10.4,0,0,1-2.56-1.12,5.72,5.72,0,0,1-1.84-1.75,4.49,4.49,0,0,1-.7-2.54,4.9,4.9,0,0,1,1.19-3.35,7.38,7.38,0,0,1,3.19-2.07,13.52,13.52,0,0,1,4.42-.7,11.91,11.91,0,0,1,4.31.76,7.82,7.82,0,0,1,3.22,2.19,5.07,5.07,0,0,1,1.23,3.44v.3h-4.94v-.25a1.9,1.9,0,0,0-.55-1.42A3.35,3.35,0,0,0,226,245a6.16,6.16,0,0,0-1.84-.27,9.17,9.17,0,0,0-1.77.18,3.81,3.81,0,0,0-1.52.63,1.47,1.47,0,0,0-.6,1.25,1.5,1.5,0,0,0,.62,1.23,5.2,5.2,0,0,0,1.75.79,23.94,23.94,0,0,0,2.59.56,24.87,24.87,0,0,1,2.8.63,11.53,11.53,0,0,1,2.59,1.06,5.52,5.52,0,0,1,1.91,1.74,4.59,4.59,0,0,1,.73,2.65,5.12,5.12,0,0,1-.76,2.85,6,6,0,0,1-2.06,1.95,10.09,10.09,0,0,1-2.93,1.13A15.72,15.72,0,0,1,224.08,261.77Z"/><path class="cls-2" d="M240.16,252.88v-3.56h14.11l-.57,1v-.49a5.37,5.37,0,0,0-.58-2.46,4.57,4.57,0,0,0-1.79-1.86,5.82,5.82,0,0,0-3-.72,6.24,6.24,0,0,0-3.16.77,5.17,5.17,0,0,0-2.07,2.22,7.52,7.52,0,0,0-.74,3.46,8.28,8.28,0,0,0,.71,3.56,5,5,0,0,0,2.06,2.28,6.54,6.54,0,0,0,3.31.79,9.57,9.57,0,0,0,2.3-.25,4.88,4.88,0,0,0,1.59-.67,3.42,3.42,0,0,0,.93-.93,2.33,2.33,0,0,0,.37-1h5a5.83,5.83,0,0,1-.85,2.48,7.88,7.88,0,0,1-2,2.18,10.49,10.49,0,0,1-3.18,1.56,14.32,14.32,0,0,1-4.27.58,11.63,11.63,0,0,1-5.68-1.33,9.59,9.59,0,0,1-3.79-3.71,11.57,11.57,0,0,1,0-10.92,9.62,9.62,0,0,1,3.83-3.68,11.66,11.66,0,0,1,5.62-1.32,11.42,11.42,0,0,1,5.66,1.33,9.27,9.27,0,0,1,3.67,3.7,11.29,11.29,0,0,1,1.29,5.5c0,.26,0,.55,0,.85a6.42,6.42,0,0,1-.05.67Z"/><path class="cls-2" d="M96.94,314.73a12.05,12.05,0,0,1-2.21-.21,6.06,6.06,0,0,1-2-.78,4.08,4.08,0,0,1-1.5-1.67,6.33,6.33,0,0,1-.57-2.91v-11H85.84v-4h1.94a12.44,12.44,0,0,0,1.56-.08,1.29,1.29,0,0,0,.83-.41,1.9,1.9,0,0,0,.35-1,15.81,15.81,0,0,0,.09-1.93v-3.21h5v6.65h6v4h-6v9.48A6.11,6.11,0,0,0,96,309.9a1.53,1.53,0,0,0,1.61.86,6,6,0,0,0,1.15-.11,5.84,5.84,0,0,0,.81-.23v3.91a7.16,7.16,0,0,1-1,.27A8.19,8.19,0,0,1,96.94,314.73Z"/><path class="cls-2" d="M106.34,314.35v-29.7h5v29.7Zm14.29,0v-11a6.47,6.47,0,0,0-1-3.85,3.85,3.85,0,0,0-3.33-1.34,5.49,5.49,0,0,0-2.69.62,4.14,4.14,0,0,0-1.7,1.72,5.32,5.32,0,0,0-.59,2.54l-1.82-1a8.33,8.33,0,0,1,1.09-4.28,7.79,7.79,0,0,1,3-2.94,9.16,9.16,0,0,1,4.44-1.06,7.12,7.12,0,0,1,5.61,2.18,8.78,8.78,0,0,1,1.94,6.05v12.29Z"/><path class="cls-2" d="M133.27,305.88v-3.56h14.11l-.57.95v-.49a5.25,5.25,0,0,0-.59-2.46,4.54,4.54,0,0,0-1.78-1.86,5.82,5.82,0,0,0-3-.72,6.31,6.31,0,0,0-3.17.77,5.29,5.29,0,0,0-2.07,2.22,7.52,7.52,0,0,0-.73,3.46,8.28,8.28,0,0,0,.7,3.56,5.13,5.13,0,0,0,2.06,2.28,6.6,6.6,0,0,0,3.32.79,9.63,9.63,0,0,0,2.3-.25,5,5,0,0,0,1.59-.67,3.42,3.42,0,0,0,.93-.93,2.33,2.33,0,0,0,.37-1h5a5.83,5.83,0,0,1-.85,2.48,7.88,7.88,0,0,1-2,2.18,10.66,10.66,0,0,1-3.19,1.56,14.21,14.21,0,0,1-4.26.58,11.6,11.6,0,0,1-5.68-1.33,9.53,9.53,0,0,1-3.79-3.71,11.57,11.57,0,0,1,0-10.92,9.62,9.62,0,0,1,3.83-3.68,11.63,11.63,0,0,1,5.62-1.32,11.38,11.38,0,0,1,5.65,1.33,9.23,9.23,0,0,1,3.68,3.7,11.29,11.29,0,0,1,1.29,5.5c0,.26,0,.55,0,.85a6.42,6.42,0,0,1-.05.67Z"/><path class="cls-2" d="M167.48,314.35V294.17h5v20.18Zm12.54,0V302.78a14.1,14.1,0,0,0-.09-1.55,4.84,4.84,0,0,0-.42-1.49,2.61,2.61,0,0,0-1-1.11,3.38,3.38,0,0,0-1.85-.43,3.75,3.75,0,0,0-1.93.47,3.89,3.89,0,0,0-1.29,1.23,5.27,5.27,0,0,0-.73,1.75,8.89,8.89,0,0,0-.23,2l-1.67-1.12a10.19,10.19,0,0,1,.93-4.44,7.52,7.52,0,0,1,2.65-3.11,7.13,7.13,0,0,1,4.08-1.15,6.49,6.49,0,0,1,3.85,1,5.54,5.54,0,0,1,2,2.74,11.32,11.32,0,0,1,.62,3.88v12.88Zm12.47,0V302.74a12.38,12.38,0,0,0-.1-1.6,4.33,4.33,0,0,0-.42-1.47,2.54,2.54,0,0,0-1-1.06,3.68,3.68,0,0,0-1.87-.41,3.74,3.74,0,0,0-1.94.46,3.6,3.6,0,0,0-1.27,1.21,5.9,5.9,0,0,0-.69,1.71,8.87,8.87,0,0,0-.22,1.9l-1.67-1.1a10.05,10.05,0,0,1,.91-4.35,7.41,7.41,0,0,1,2.62-3.07,7.25,7.25,0,0,1,4.07-1.13,6.72,6.72,0,0,1,3.82,1,5.58,5.58,0,0,1,2.1,2.65,10.43,10.43,0,0,1,.65,3.83v13.07Z"/><path class="cls-2" d="M205.65,290.45a3.46,3.46,0,0,1-2.11-.66,2.27,2.27,0,0,1,0-3.64,3.52,3.52,0,0,1,2.11-.64,3.46,3.46,0,0,1,2.09.64,2.29,2.29,0,0,1,0,3.64A3.41,3.41,0,0,1,205.65,290.45Zm-2.48,23.9V294.17h4.93v20.18Z"/><path class="cls-2" d="M214,314.35V294.17h5v20.18Zm14.27,0V303a7.3,7.3,0,0,0-.39-2.46,3.36,3.36,0,0,0-1.33-1.72,4.59,4.59,0,0,0-2.59-.63,4.76,4.76,0,0,0-2.56.69,4.88,4.88,0,0,0-1.76,1.9,5.86,5.86,0,0,0-.64,2.79l-1.69-1.05a8.7,8.7,0,0,1,1.15-4.49,8.48,8.48,0,0,1,3.09-3.09,8.38,8.38,0,0,1,4.29-1.12,8.21,8.21,0,0,1,4.1.95,6.06,6.06,0,0,1,2.5,2.7,9.21,9.21,0,0,1,.85,4.1v12.77Z"/><path class="cls-2" d="M241.43,290.45a3.49,3.49,0,0,1-2.12-.66,2.29,2.29,0,0,1,0-3.64,3.55,3.55,0,0,1,2.12-.64,3.46,3.46,0,0,1,2.09.64,2.31,2.31,0,0,1,0,3.64A3.41,3.41,0,0,1,241.43,290.45Zm-2.49,23.9V294.17h4.94v20.18Z"/><path class="cls-2" d="M249.77,314.35V294.17h5v20.18Zm12.54,0V302.78a14.1,14.1,0,0,0-.09-1.55,5.13,5.13,0,0,0-.42-1.49,2.61,2.61,0,0,0-1-1.11,3.4,3.4,0,0,0-1.85-.43,3.75,3.75,0,0,0-1.93.47,3.8,3.8,0,0,0-1.29,1.23,5.27,5.27,0,0,0-.73,1.75,8.35,8.35,0,0,0-.23,2l-1.67-1.12a10.19,10.19,0,0,1,.93-4.44,7.52,7.52,0,0,1,2.65-3.11,7.1,7.1,0,0,1,4.07-1.15,6.52,6.52,0,0,1,3.86,1,5.54,5.54,0,0,1,2,2.74,11.57,11.57,0,0,1,.62,3.88v12.88Zm12.46,0V302.74a14.44,14.44,0,0,0-.09-1.6,4.33,4.33,0,0,0-.42-1.47,2.54,2.54,0,0,0-1-1.06,3.68,3.68,0,0,0-1.87-.41,3.74,3.74,0,0,0-1.94.46,3.6,3.6,0,0,0-1.27,1.21,5.63,5.63,0,0,0-.69,1.71,8.27,8.27,0,0,0-.22,1.9l-1.67-1.1a10.05,10.05,0,0,1,.91-4.35,7.41,7.41,0,0,1,2.62-3.07,7.25,7.25,0,0,1,4.07-1.13,6.74,6.74,0,0,1,3.82,1,5.58,5.58,0,0,1,2.1,2.65,10.64,10.64,0,0,1,.65,3.83v13.07Z"/><path class="cls-2" d="M292.81,314.73a7.85,7.85,0,0,1-3.57-.72,5.92,5.92,0,0,1-2.22-1.9,7.59,7.59,0,0,1-1.14-2.6,12.6,12.6,0,0,1-.33-2.85V294.17h5v11.19a9,9,0,0,0,.33,2.5,3.57,3.57,0,0,0,1.18,1.86,3.84,3.84,0,0,0,2.45.7,4,4,0,0,0,2.58-.89,5.88,5.88,0,0,0,1.68-2.23,6.67,6.67,0,0,0,.6-2.73l1.71,1.14a10.38,10.38,0,0,1-.57,3.46,8.73,8.73,0,0,1-1.65,2.88,7.84,7.84,0,0,1-2.62,2A8.14,8.14,0,0,1,292.81,314.73Zm6.57-.38V294.17h5v20.18Z"/><path class="cls-2" d="M310.15,314.35V294.17h5v20.18Zm14.27,0V303a7.3,7.3,0,0,0-.39-2.46,3.36,3.36,0,0,0-1.33-1.72,4.59,4.59,0,0,0-2.59-.63,4.82,4.82,0,0,0-2.57.69,4.93,4.93,0,0,0-1.75,1.9,5.86,5.86,0,0,0-.64,2.79l-1.69-1.05a8.7,8.7,0,0,1,1.15-4.49,8.4,8.4,0,0,1,7.38-4.21,8.14,8.14,0,0,1,4.09.95,6,6,0,0,1,2.51,2.7,9.21,9.21,0,0,1,.85,4.1v12.77Z"/><path class="cls-2" d="M90,367.35l-4.16-20.18h5.19L94,365.77h-.81l4.54-18.6h3.82l-4.62,20.18Zm13.91,0-4.69-20.18h3.82l4.57,18.6h-.81l2.92-18.6h5.19l-4.14,20.18Z"/><path class="cls-2" d="M125.8,367.77a10.34,10.34,0,0,1-4-.71,6.11,6.11,0,0,1-2.68-2.07,5.36,5.36,0,0,1-1-3.24,5.12,5.12,0,0,1,1.13-3.41,7.24,7.24,0,0,1,3-2.08,16.22,16.22,0,0,1,4.26-.94,43.48,43.48,0,0,0,4.83-.65q1.38-.32,1.38-1v0a2.27,2.27,0,0,0-1.2-2.05,6.58,6.58,0,0,0-3.38-.72,6.36,6.36,0,0,0-3.52.81,2.83,2.83,0,0,0-1.23,2.55h-4.94a6.43,6.43,0,0,1,1.26-4,7.84,7.84,0,0,1,3.47-2.49,13.76,13.76,0,0,1,5-.86,14,14,0,0,1,4.77.78,7.79,7.79,0,0,1,3.47,2.36,5.9,5.9,0,0,1,1.31,3.93v9.2c0,.48,0,.95,0,1.41a6.41,6.41,0,0,0,.2,1.25,4.4,4.4,0,0,0,.46,1,2.77,2.77,0,0,0,.42.57H134a3.88,3.88,0,0,1-.37-.52,5.39,5.39,0,0,1-.42-.9,7.38,7.38,0,0,1-.29-1.23,10.74,10.74,0,0,1-.09-1.45l1,.68a5.54,5.54,0,0,1-1.74,2,8.61,8.61,0,0,1-2.79,1.34A12.26,12.26,0,0,1,125.8,367.77Zm1.21-3.93a7.59,7.59,0,0,0,2.89-.54,4.82,4.82,0,0,0,2.15-1.64,4.73,4.73,0,0,0,.82-2.86v-2.7l1.21,1.37a16.87,16.87,0,0,1-2.92.75c-1.14.2-2.3.35-3.46.47a9.76,9.76,0,0,0-3.37.78,1.93,1.93,0,0,0-1.14,1.86,2.12,2.12,0,0,0,1,1.88A5.27,5.27,0,0,0,127,363.84Z"/><path class="cls-2" d="M157,365.36a12.41,12.41,0,0,1,3.13.66,4.62,4.62,0,0,1,2.11,1.47,4.16,4.16,0,0,1,.76,2.62,4.46,4.46,0,0,1-1.24,3.15,7.92,7.92,0,0,1-3.62,2.05,20.51,20.51,0,0,1-5.86.72,16.76,16.76,0,0,1-7.77-1.45q-2.72-1.45-2.72-3.94a4.26,4.26,0,0,1,.18-1.28,3.58,3.58,0,0,1,.41-.94l4.58.66a2.16,2.16,0,0,0-.23.48,2.78,2.78,0,0,0-.11.81c0,.79.53,1.35,1.59,1.7a13.73,13.73,0,0,0,4.22.53,16.2,16.2,0,0,0,3.24-.27,5.14,5.14,0,0,0,2-.76,1.42,1.42,0,0,0,.67-1.16,1.2,1.2,0,0,0-.89-1.27,9.15,9.15,0,0,0-2.13-.38l-7.65-.71a6.57,6.57,0,0,1-3.38-1.21,3.18,3.18,0,0,1-1.32-2.66,3.34,3.34,0,0,1,.55-1.86,6,6,0,0,1,1.24-1.44,3.59,3.59,0,0,1,1.2-.71l2.85,1.4a2,2,0,0,0-.94.52,1.37,1.37,0,0,0-.55,1.08,1.17,1.17,0,0,0,.54,1,4.46,4.46,0,0,0,2,.54Zm2.26-18.19h4.48L161.94,355a12.37,12.37,0,0,1-1.66,3.95,8,8,0,0,1-3,2.76,10.15,10.15,0,0,1-4.79,1,12.55,12.55,0,0,1-5.17-1,7.76,7.76,0,0,1-3.36-2.76,7.26,7.26,0,0,1-1.17-4.09,7.41,7.41,0,0,1,1.2-4.19,8.14,8.14,0,0,1,3.33-2.84,10.77,10.77,0,0,1,4.79-1,10.23,10.23,0,0,1,3.9.71,7.62,7.62,0,0,1,2.76,1.86,4,4,0,0,1,1.12,2.43l-1.12.21Zm-6.84,11.69a6.09,6.09,0,0,0,2.52-.48,3.75,3.75,0,0,0,1.66-1.37,4,4,0,0,0,.58-2.2,3.92,3.92,0,0,0-.58-2.18,3.81,3.81,0,0,0-1.66-1.4,6,6,0,0,0-2.51-.49,5.9,5.9,0,0,0-2.48.5,4,4,0,0,0-1.7,1.41,4.22,4.22,0,0,0,0,4.37,3.61,3.61,0,0,0,1.67,1.37A6.26,6.26,0,0,0,152.44,358.86Z"/><path class="cls-2" d="M169.16,358.88v-3.56h14.11l-.57.95v-.49a5.25,5.25,0,0,0-.59-2.46,4.48,4.48,0,0,0-1.78-1.86,5.82,5.82,0,0,0-3-.72,6.31,6.31,0,0,0-3.17.77,5.29,5.29,0,0,0-2.07,2.22,7.52,7.52,0,0,0-.73,3.46,8.43,8.43,0,0,0,.7,3.56,5.1,5.1,0,0,0,2.07,2.28,6.54,6.54,0,0,0,3.31.79,9.63,9.63,0,0,0,2.3-.25,4.88,4.88,0,0,0,1.59-.67,3.42,3.42,0,0,0,.93-.93,2.33,2.33,0,0,0,.37-1h5a5.83,5.83,0,0,1-.85,2.48,7.88,7.88,0,0,1-2,2.18,10.72,10.72,0,0,1-3.18,1.56,14.32,14.32,0,0,1-4.27.58,11.6,11.6,0,0,1-5.68-1.33,9.53,9.53,0,0,1-3.79-3.71,11.57,11.57,0,0,1,0-10.92,9.62,9.62,0,0,1,3.83-3.68,11.63,11.63,0,0,1,5.62-1.32,11.38,11.38,0,0,1,5.65,1.33,9.23,9.23,0,0,1,3.68,3.7,11.29,11.29,0,0,1,1.29,5.5c0,.26,0,.55,0,.85a6.42,6.42,0,0,1-.05.67Z"/><path class="cls-2" d="M195.39,367.88a2.81,2.81,0,0,1-2-4.79,2.8,2.8,0,0,1,4,0,2.8,2.8,0,0,1-2,4.79Zm2.47-28.52-1,20.56h-3.06l-1-20.56Z"/><path class="cls-2" d="M206.39,344.11a2.74,2.74,0,0,1-2-.72,2.55,2.55,0,0,1-.75-1.94,2.71,2.71,0,0,1,.83-2,3.2,3.2,0,0,1,2.34-.81,2.88,2.88,0,0,1,2.39,1,4.15,4.15,0,0,1,.82,2.67,5,5,0,0,1-.75,2.73,7.13,7.13,0,0,1-1.9,2,10.21,10.21,0,0,1-2.31,1.28l-.59-1.23a7.53,7.53,0,0,0,1.56-.87,5.69,5.69,0,0,0,1.27-1.22,2.47,2.47,0,0,0,.52-1.39,1.17,1.17,0,0,1-.46.3A2.16,2.16,0,0,1,206.39,344.11Zm7.72,0a2.76,2.76,0,0,1-2-.72,2.55,2.55,0,0,1-.75-1.94,2.74,2.74,0,0,1,.83-2,3.19,3.19,0,0,1,2.33-.81,2.89,2.89,0,0,1,2.4,1,4.15,4.15,0,0,1,.83,2.67A5,5,0,0,1,217,345a7.42,7.42,0,0,1-1.9,2,10.37,10.37,0,0,1-2.3,1.28l-.59-1.23a8.24,8.24,0,0,0,1.54-.87A5.91,5.91,0,0,0,215,345a2.42,2.42,0,0,0,.53-1.39,1.17,1.17,0,0,1-.46.3A2.2,2.2,0,0,1,214.11,344.11Z"/><polyline class="cls-3" points="89.86 402.27 204.37 402.27 236.83 423.82 232.07 402.27 321.95 402.27"/><line class="cls-4" x1="91.96" y1="621.27" x2="86.69" y2="619.01"/><line class="cls-4" x1="94.81" y1="617.76" x2="91.96" y2="613.74"/><line class="cls-4" x1="92.07" y1="625.49" x2="86.58" y2="626.67"/><circle class="cls-5" cx="105.16" cy="626.91" r="10.35"/><path class="cls-2" d="M115.23,628.57l-.23-.75-.75.22-.22-.75-1.51.45-.22-.75-2.26.67-.22-.75-1.51.45-.9-3-.75.23-.23-.75-1.5.45.23.75-.76.22,2,6.77-.75.23-.23-.75-2.25.67.22.75.11.38.34,1.13.75-.23.23.75.75-.22.45,1.5.75-.22.45,1.5.76-.22.45,1.5.75-.22.45,1.5.22.75,6.77-2,.75-.22-.67-2.26.75-.22-.67-2.26.75-.22L116,628.34Z"/><rect x="105.74" y="624.94" width="0.78" height="9.42" transform="translate(-176.17 56.91) rotate(-16.67)"/><rect x="105.01" y="624.04" width="1.57" height="0.78" transform="translate(-174.69 56.6) rotate(-16.67)"/><rect x="107.66" y="624.32" width="0.78" height="7.06" transform="translate(-175.58 57.39) rotate(-16.67)"/><rect x="108.39" y="627.12" width="1.57" height="0.78" transform="translate(-175.43 57.7) rotate(-16.67)"/><rect x="110.59" y="628.25" width="0.79" height="2.35" transform="translate(-175.91 58.29) rotate(-16.67)"/><rect x="110.1" y="627.31" width="2.35" height="0.78" transform="translate(-175.4 58.31) rotate(-16.67)"/><rect x="113.07" y="628.33" width="0.78" height="2.35" transform="translate(-175.82 59.01) rotate(-16.67)"/><rect x="112.6" y="627.5" width="1.57" height="0.78" transform="translate(-175.36 58.92) rotate(-16.67)"/><rect x="114.35" y="627.91" width="0.79" height="0.79" transform="translate(-175.42 59.33) rotate(-16.67)"/><rect x="116" y="628.34" width="0.78" height="5.49" transform="translate(-176.15 59.92) rotate(-16.67)"/><rect x="116.37" y="633.9" width="0.79" height="2.35" transform="matrix(0.96, -0.29, 0.29, 0.96, -177.28, 60.19)"/><rect x="116.3" y="636.38" width="0.78" height="2.35" transform="translate(-178 60.27) rotate(-16.67)"/><rect x="109.62" y="639.04" width="7.06" height="0.78" transform="translate(-178.68 59.34) rotate(-16.67)"/><rect x="105.77" y="632.12" width="0.78" height="0.78" transform="matrix(0.96, -0.29, 0.29, 0.96, -176.99, 57.04)"/><rect x="103.26" y="631.82" width="2.35" height="0.78" transform="translate(-176.98 56.53) rotate(-16.67)"/><rect x="103.63" y="632.78" width="0.79" height="1.57" transform="translate(-177.38 56.47) rotate(-16.67)"/><rect x="104.72" y="634.07" width="0.78" height="0.78" transform="translate(-177.6 56.82) rotate(-16.67)"/><rect x="105.81" y="634.58" width="0.78" height="1.57" transform="matrix(0.96, -0.29, 0.29, 0.96, -177.81, 57.17)"/><rect x="107.01" y="635.86" width="0.78" height="1.57" transform="matrix(0.96, -0.29, 0.29, 0.96, -178.13, 57.57)"/><rect x="108.22" y="637.14" width="0.78" height="1.57" transform="translate(-178.44 57.97) rotate(-16.67)"/><rect x="109.42" y="638.42" width="0.79" height="1.57" transform="translate(-178.76 58.37) rotate(-16.67)"/><path class="cls-2" d="M86.66,608.79H86v-5.9h1.66a2.28,2.28,0,0,1,1.13.25,1.71,1.71,0,0,1,.68.68,2.05,2.05,0,0,1,.22,1,2,2,0,0,1-.23,1,1.74,1.74,0,0,1-.68.72,2.16,2.16,0,0,1-1.12.27h-1Zm0-2.31-.3-.35h1.19a1.72,1.72,0,0,0,.8-.17,1.17,1.17,0,0,0,.48-.48,1.57,1.57,0,0,0,.15-.7,1.48,1.48,0,0,0-.15-.7,1,1,0,0,0-.46-.44,2,2,0,0,0-.82-.15H86.36l.3-.39Z"/><path class="cls-2" d="M91.38,608.79v-5.9h2.05a1.74,1.74,0,0,1,1.23.38,1.49,1.49,0,0,1,.43,1.17,1.61,1.61,0,0,1-.18.8,1.46,1.46,0,0,1-.43.51A1,1,0,0,1,94,606a1.16,1.16,0,0,1,.43.12.94.94,0,0,1,.35.31,1,1,0,0,1,.14.57v1.34a2.69,2.69,0,0,0,0,.31.39.39,0,0,0,.07.18h-.69a.93.93,0,0,1-.06-.18,2.69,2.69,0,0,1,0-.31V607a.7.7,0,0,0-.25-.58,1.12,1.12,0,0,0-.7-.19H91.86l.19-.26v2.78Zm.67-2.84-.19-.28h1.46a1,1,0,0,0,.53-.15,1,1,0,0,0,.39-.41,1.2,1.2,0,0,0,.15-.61.94.94,0,0,0-.29-.78,1.26,1.26,0,0,0-.83-.23H91.84l.21-.3Z"/><path class="cls-2" d="M99.14,608.87a2.17,2.17,0,0,1-1-.21,2.08,2.08,0,0,1-.74-.59,2.73,2.73,0,0,1-.5-1,4.9,4.9,0,0,1,0-2.56,2.68,2.68,0,0,1,.5-.95,2.14,2.14,0,0,1,.75-.59,2.23,2.23,0,0,1,.94-.19,2.3,2.3,0,0,1,1,.19,2.14,2.14,0,0,1,.75.59,2.84,2.84,0,0,1,.49.95,4.9,4.9,0,0,1,0,2.56,2.89,2.89,0,0,1-.49,1,2,2,0,0,1-.75.59A2.17,2.17,0,0,1,99.14,608.87Zm0-.62A1.45,1.45,0,0,0,100,608a1.72,1.72,0,0,0,.59-.8,3.75,3.75,0,0,0,.21-1.35,3.44,3.44,0,0,0-.22-1.34,1.58,1.58,0,0,0-.59-.79,1.41,1.41,0,0,0-.86-.26,1.43,1.43,0,0,0-.86.26,1.64,1.64,0,0,0-.59.79,3.44,3.44,0,0,0-.22,1.34,3.53,3.53,0,0,0,.22,1.35,1.75,1.75,0,0,0,.59.81A1.5,1.5,0,0,0,99.14,608.25Z"/><path class="cls-2" d="M105.23,602.89a2.52,2.52,0,0,1,.93.15,1.19,1.19,0,0,1,.59.46,1.47,1.47,0,0,1,.2.79,1.38,1.38,0,0,1-.19.76,1.25,1.25,0,0,1-.47.47,1.51,1.51,0,0,1-.61.17,1.87,1.87,0,0,1,.66.15,1.26,1.26,0,0,1,.53.47,1.49,1.49,0,0,1,.21.84,1.78,1.78,0,0,1-.21.89,1.29,1.29,0,0,1-.62.55,2.49,2.49,0,0,1-1,.2h-1.93v-5.9Zm-1.3,2.76-.23-.24h1.21a1.7,1.7,0,0,0,1-.25,1,1,0,0,0,.21-1.3.86.86,0,0,0-.42-.29,2.35,2.35,0,0,0-.63-.08h-1.45l.31-.39Zm1.14,2.54a1.56,1.56,0,0,0,1-.27,1,1,0,0,0,.35-.8,1.08,1.08,0,0,0-.12-.54.92.92,0,0,0-.31-.34,1.33,1.33,0,0,0-.46-.17A2.35,2.35,0,0,0,105,606H103.7l.23-.23v2.79l-.31-.38Z"/><path class="cls-2" d="M108.93,608.79v-5.9h.68v5.68l-.31-.38h2.64v.6Z"/><path class="cls-2" d="M114,603.49l.31-.39v2.66l-.17-.23h2.26v.6h-2.26l.17-.24v2.68l-.31-.38h2.85v.6h-3.23v-5.9h3.23v.6Z"/><path class="cls-2" d="M122.94,602.89h1.18v5.9h-.65v-5.36h0l-1.5,5.35h-1l-1.51-5.35h0v5.36h-.65v-5.9h1.18l1.45,5.35h0Z"/><path class="cls-2" d="M140.59,626.36A3.29,3.29,0,0,1,139,626a2.71,2.71,0,0,1-1.09-1.06,3.14,3.14,0,0,1-.4-1.62,3,3,0,0,1,.4-1.6,2.73,2.73,0,0,1,1.09-1,3.4,3.4,0,0,1,1.58-.36,3.32,3.32,0,0,1,1.18.2,2.6,2.6,0,0,1,.87.53,2.38,2.38,0,0,1,.55.73,1.91,1.91,0,0,1,.19.79v0h-1.19v-.13a1.14,1.14,0,0,0-.26-.58,1.43,1.43,0,0,0-.55-.4,1.92,1.92,0,0,0-.79-.15,1.9,1.9,0,0,0-.92.22,1.63,1.63,0,0,0-.68.65,2.18,2.18,0,0,0-.25,1.1,2.22,2.22,0,0,0,.25,1.11,1.69,1.69,0,0,0,.67.68,2.18,2.18,0,0,0,1.82.06,1.21,1.21,0,0,0,.52-.45,1.23,1.23,0,0,0,.2-.61h1.19a1.84,1.84,0,0,1-.19.8,2.17,2.17,0,0,1-.53.73,2.51,2.51,0,0,1-.87.53A3.43,3.43,0,0,1,140.59,626.36Z"/><path class="cls-2" d="M146.18,617.65v8.59H145v-8.59Z"/><path class="cls-2" d="M148.6,619.19a.88.88,0,0,1-.53-.16.56.56,0,0,1-.22-.47.54.54,0,0,1,.22-.46.91.91,0,0,1,1.06,0,.57.57,0,0,1,.22.46.59.59,0,0,1-.22.47A.88.88,0,0,1,148.6,619.19Zm-.59,7V620.4h1.17v5.84Z"/><path class="cls-2" d="M153.82,626.36a3.29,3.29,0,0,1-1.58-.37,2.78,2.78,0,0,1-1.09-1.06,3.14,3.14,0,0,1-.4-1.62,3,3,0,0,1,.4-1.6,2.79,2.79,0,0,1,1.09-1,3.4,3.4,0,0,1,1.58-.36,3.32,3.32,0,0,1,1.18.2,2.65,2.65,0,0,1,.88.53,2.2,2.2,0,0,1,.54.73,1.76,1.76,0,0,1,.19.79v0h-1.18s0,0,0-.07v-.06a1.12,1.12,0,0,0-.25-.58,1.51,1.51,0,0,0-.55-.4,2,2,0,0,0-.8-.15,1.92,1.92,0,0,0-.92.22,1.63,1.63,0,0,0-.68.65,2.29,2.29,0,0,0-.25,1.1,2.22,2.22,0,0,0,.25,1.11,1.69,1.69,0,0,0,.67.68,2.18,2.18,0,0,0,1.82.06,1.16,1.16,0,0,0,.52-.45,1.35,1.35,0,0,0,.21-.61h1.18a2,2,0,0,1-.18.8,2.2,2.2,0,0,1-.54.73,2.51,2.51,0,0,1-.87.53A3.39,3.39,0,0,1,153.82,626.36Z"/><path class="cls-2" d="M158.15,626.24v-8.59h1.13v5.15l-.29-.14,2.61-2.26h1.5l-2.83,2.51.29-.54,2.54,3.87h-1.27L159.78,623l.27.08-.92.81.15-.54v2.87Z"/><path class="cls-2" d="M170,626.34a2.9,2.9,0,0,1-1.51-.39,2.77,2.77,0,0,1-1-1.08,3.2,3.2,0,0,1-.37-1.55,3.14,3.14,0,0,1,.37-1.55,2.79,2.79,0,0,1,1-1.06,3.21,3.21,0,0,1,3,0,2.79,2.79,0,0,1,1,1.06,3.26,3.26,0,0,1,.37,1.55,3.32,3.32,0,0,1-.37,1.55,2.77,2.77,0,0,1-1,1.08A2.91,2.91,0,0,1,170,626.34Zm0-.62a2.13,2.13,0,0,0,2-1.16,2.63,2.63,0,0,0,.28-1.24,2.61,2.61,0,0,0-.28-1.24,2.11,2.11,0,0,0-.79-.83,2.41,2.41,0,0,0-2.33,0,2.11,2.11,0,0,0-.79.83,2.61,2.61,0,0,0-.29,1.24,2.64,2.64,0,0,0,.29,1.24,2.13,2.13,0,0,0,2,1.16Z"/><path class="cls-2" d="M174.78,626.24V620.4h.68v5.84Zm4.2,0V622.6a1.94,1.94,0,0,0-.18-.86,1.27,1.27,0,0,0-.53-.57,1.75,1.75,0,0,0-.91-.21,1.85,1.85,0,0,0-.93.25,2,2,0,0,0-.71.66,1.77,1.77,0,0,0-.26.94l-.42-.15a2.13,2.13,0,0,1,.35-1.19,2.42,2.42,0,0,1,.9-.84,2.38,2.38,0,0,1,1.19-.31,2.47,2.47,0,0,1,1.15.25,1.82,1.82,0,0,1,.76.72,2.37,2.37,0,0,1,.26,1.14v3.81Z"/><path class="cls-2" d="M185.05,618.93a.59.59,0,0,1-.37-.12.43.43,0,0,1-.15-.34.39.39,0,0,1,.15-.32.54.54,0,0,1,.37-.13.52.52,0,0,1,.36.13.4.4,0,0,1,.16.32.44.44,0,0,1-.16.34A.56.56,0,0,1,185.05,618.93Zm-.34,7.31V620.4h.67v5.84Z"/><path class="cls-2" d="M189.57,626.33a1.86,1.86,0,0,1-.48-.06,1,1,0,0,1-.42-.21,1.09,1.09,0,0,1-.29-.44,2,2,0,0,1-.1-.7V621h-1.41v-.6h1.24a.17.17,0,0,0,.12,0,.39.39,0,0,0,0-.14c0-.06,0-.15,0-.26v-1.42H189v1.88h1.87v.6H189v3.68a1.62,1.62,0,0,0,.15.77.55.55,0,0,0,.55.28l.3,0a.9.9,0,0,0,.23-.07v.6a1.2,1.2,0,0,1-.26.07Z"/><path class="cls-2" d="M197.36,626.33a1.86,1.86,0,0,1-.48-.06,1,1,0,0,1-.42-.21,1.09,1.09,0,0,1-.29-.44,2,2,0,0,1-.1-.7V621h-1.41v-.6h1.24a.13.13,0,0,0,.11,0,.26.26,0,0,0,.05-.14c0-.06,0-.15,0-.26v-1.42h.68v1.88h1.87v.6h-1.87v3.68a1.76,1.76,0,0,0,.14.77.57.57,0,0,0,.56.28l.3,0a.71.71,0,0,0,.22-.07v.6a1,1,0,0,1-.25.07Z"/><path class="cls-2" d="M202.6,626.34a2.94,2.94,0,0,1-1.52-.39,2.75,2.75,0,0,1-1-1.08,3.2,3.2,0,0,1-.38-1.55,3.15,3.15,0,0,1,.38-1.55,2.76,2.76,0,0,1,1-1.06,3.23,3.23,0,0,1,3,0,2.76,2.76,0,0,1,1,1.06,3.15,3.15,0,0,1,.38,1.55,3.2,3.2,0,0,1-.38,1.55,2.75,2.75,0,0,1-1,1.08A2.94,2.94,0,0,1,202.6,626.34Zm0-.62a2.12,2.12,0,0,0,1.16-.31,2.09,2.09,0,0,0,.79-.85,2.64,2.64,0,0,0,.29-1.24,2.61,2.61,0,0,0-.29-1.24,2,2,0,0,0-.79-.83,2.2,2.2,0,0,0-1.16-.3,2.23,2.23,0,0,0-1.16.3,2,2,0,0,0-.79.83,2.61,2.61,0,0,0-.29,1.24,2.64,2.64,0,0,0,.29,1.24,2.09,2.09,0,0,0,.79.85A2.14,2.14,0,0,0,202.6,625.72Z"/><path class="cls-2" d="M213,626.34a2.9,2.9,0,0,1-1.51-.39,2.77,2.77,0,0,1-1-1.08,3.2,3.2,0,0,1-.37-1.55,3.14,3.14,0,0,1,.37-1.55,2.79,2.79,0,0,1,1-1.06,3.21,3.21,0,0,1,3,0,2.79,2.79,0,0,1,1,1.06,3.14,3.14,0,0,1,.37,1.55,3.2,3.2,0,0,1-.37,1.55,2.77,2.77,0,0,1-1,1.08A2.91,2.91,0,0,1,213,626.34Zm0-.62a2.13,2.13,0,0,0,2-1.16,2.63,2.63,0,0,0,.28-1.24,2.61,2.61,0,0,0-.28-1.24,2.11,2.11,0,0,0-.79-.83,2.41,2.41,0,0,0-2.33,0,2.11,2.11,0,0,0-.79.83,2.61,2.61,0,0,0-.28,1.24,2.63,2.63,0,0,0,.28,1.24,2.13,2.13,0,0,0,1.95,1.16Z"/><path class="cls-2" d="M217.74,628.65V620.4h.68v8.25Zm2.69-2.3a2.57,2.57,0,0,1-2.16-1.21,2.21,2.21,0,0,1-.35-1.24v0h.5v0a1.64,1.64,0,0,0,.27.91,2,2,0,0,0,.7.67,2,2,0,0,0,1,.25,1.82,1.82,0,0,0,1.4-.61,3.2,3.2,0,0,0,0-3.56,1.82,1.82,0,0,0-1.4-.6,1.88,1.88,0,0,0-1,.25,1.93,1.93,0,0,0-.7.66,1.64,1.64,0,0,0-.27.91h-.5a2.22,2.22,0,0,1,.35-1.25,2.57,2.57,0,0,1,2.16-1.18,2.4,2.4,0,0,1,2.21,1.37,3.54,3.54,0,0,1,.34,1.63,3.6,3.6,0,0,1-.34,1.65,2.36,2.36,0,0,1-.91,1A2.51,2.51,0,0,1,220.43,626.35Z"/><path class="cls-2" d="M224.94,623.61V623h4.73l-.13.19v-.11a2.39,2.39,0,0,0-.24-1.06,2,2,0,0,0-.71-.79,2,2,0,0,0-1.11-.29,2.31,2.31,0,0,0-1.19.3,2.2,2.2,0,0,0-.79.84,2.54,2.54,0,0,0-.29,1.25,2.69,2.69,0,0,0,.28,1.26,2.09,2.09,0,0,0,.8.84,2.31,2.31,0,0,0,1.19.3,2.53,2.53,0,0,0,.87-.13,1.9,1.9,0,0,0,.62-.32,1.6,1.6,0,0,0,.37-.43,1,1,0,0,0,.15-.44h.68a1.49,1.49,0,0,1-.21.67,2.29,2.29,0,0,1-.52.63,2.65,2.65,0,0,1-.83.47,3.43,3.43,0,0,1-1.15.17A2.9,2.9,0,0,1,226,626a2.83,2.83,0,0,1-1-1.06,3.43,3.43,0,0,1,0-3.14,2.79,2.79,0,0,1,1-1.06,2.89,2.89,0,0,1,1.5-.39,2.76,2.76,0,0,1,1.49.39,2.61,2.61,0,0,1,1,1.06,3.24,3.24,0,0,1,.34,1.5v.18a1.1,1.1,0,0,0,0,.16Z"/><path class="cls-2" d="M232.09,626.24V620.4h.68v5.84Zm4.2,0V622.6a2.09,2.09,0,0,0-.17-.86,1.32,1.32,0,0,0-.53-.57,1.82,1.82,0,0,0-.92-.21,1.91,1.91,0,0,0-.93.25,1.93,1.93,0,0,0-.7.66,1.69,1.69,0,0,0-.27.94l-.41-.15a2.12,2.12,0,0,1,.34-1.19,2.37,2.37,0,0,1,.91-.84,2.34,2.34,0,0,1,1.18-.31,2.51,2.51,0,0,1,1.16.25,1.86,1.86,0,0,1,.75.72,2.26,2.26,0,0,1,.27,1.14v3.81Z"/><path class="cls-2" d="M244,626.33a1.86,1.86,0,0,1-.48-.06,1,1,0,0,1-.42-.21,1.09,1.09,0,0,1-.29-.44,2,2,0,0,1-.1-.7V621h-1.41v-.6h1.24a.13.13,0,0,0,.11,0,.26.26,0,0,0,.05-.14c0-.06,0-.15,0-.26v-1.42h.68v1.88h1.87v.6h-1.87v3.68a1.76,1.76,0,0,0,.14.77.57.57,0,0,0,.56.28l.3,0a.9.9,0,0,0,.23-.07v.6a1.2,1.2,0,0,1-.26.07Z"/><path class="cls-2" d="M246.79,626.24v-8.59h.68v8.59Zm4.21,0v-3.42a2.07,2.07,0,0,0-.4-1.37,1.5,1.5,0,0,0-1.22-.49,2,2,0,0,0-1,.24,1.72,1.72,0,0,0-.67.61,1.56,1.56,0,0,0-.25.84l-.45-.13a2,2,0,0,1,.32-1.09,2.32,2.32,0,0,1,.87-.8,2.58,2.58,0,0,1,1.28-.31,2.07,2.07,0,0,1,1.62.63,2.54,2.54,0,0,1,.57,1.75v3.54Z"/><path class="cls-2" d="M253.85,623.61V623h4.73l-.13.19v-.11a2.4,2.4,0,0,0-.25-1.06,1.91,1.91,0,0,0-.7-.79,2.07,2.07,0,0,0-1.12-.29,2.3,2.3,0,0,0-1.18.3,2.22,2.22,0,0,0-.8.84,2.65,2.65,0,0,0-.28,1.25,2.69,2.69,0,0,0,.28,1.26,2.07,2.07,0,0,0,.79.84,2.35,2.35,0,0,0,1.2.3,2.57,2.57,0,0,0,.87-.13,2,2,0,0,0,.62-.32,1.81,1.81,0,0,0,.37-.43,1,1,0,0,0,.15-.44h.68a1.79,1.79,0,0,1-.21.67,2.49,2.49,0,0,1-.52.63,2.71,2.71,0,0,1-.84.47,3.33,3.33,0,0,1-1.14.17,2.9,2.9,0,0,1-1.51-.38,2.76,2.76,0,0,1-1-1.06,3.43,3.43,0,0,1,0-3.14,2.72,2.72,0,0,1,1-1.06,2.89,2.89,0,0,1,1.5-.39,2.78,2.78,0,0,1,1.49.39,2.68,2.68,0,0,1,1,1.06,3.37,3.37,0,0,1,.34,1.5,1.21,1.21,0,0,1,0,.18.67.67,0,0,1,0,.16Z"/><path class="cls-2" d="M266.64,626.35a3,3,0,0,1-1.47-.36,2.74,2.74,0,0,1-1.07-1,3.5,3.5,0,0,1,0-3.25,2.62,2.62,0,0,1,1.07-1,3,3,0,0,1,1.47-.36,2.86,2.86,0,0,1,1.09.19,2.62,2.62,0,0,1,.83.5,2.33,2.33,0,0,1,.51.68,1.8,1.8,0,0,1,.17.73h0v0h-.67s0,0,0-.06v-.07a1.36,1.36,0,0,0-.32-.71,2.05,2.05,0,0,0-.68-.49,2.27,2.27,0,0,0-.93-.18,2.33,2.33,0,0,0-1.1.27,2.07,2.07,0,0,0-.82.79,3,3,0,0,0,0,2.65,2.13,2.13,0,0,0,.82.81,2.3,2.3,0,0,0,1.1.27,2.26,2.26,0,0,0,1.07-.22,1.59,1.59,0,0,0,.64-.55,1.49,1.49,0,0,0,.23-.71h.67a1.69,1.69,0,0,1-.17.74,2,2,0,0,1-.49.68,2.34,2.34,0,0,1-.81.49A3.08,3.08,0,0,1,266.64,626.35Z"/><path class="cls-2" d="M273.74,626.34a2.91,2.91,0,0,1-1.52-.39,2.77,2.77,0,0,1-1-1.08,3.32,3.32,0,0,1-.37-1.55,3.26,3.26,0,0,1,.37-1.55,2.79,2.79,0,0,1,1-1.06,3.21,3.21,0,0,1,3,0,2.79,2.79,0,0,1,1,1.06,3.14,3.14,0,0,1,.37,1.55,3.2,3.2,0,0,1-.37,1.55,2.77,2.77,0,0,1-1,1.08A2.9,2.9,0,0,1,273.74,626.34Zm0-.62a2.13,2.13,0,0,0,1.95-1.16,2.64,2.64,0,0,0,.29-1.24,2.61,2.61,0,0,0-.29-1.24,2.11,2.11,0,0,0-.79-.83,2.23,2.23,0,0,0-1.16-.3,2.2,2.2,0,0,0-1.16.3,2.06,2.06,0,0,0-.8.83,2.61,2.61,0,0,0-.28,1.24,2.63,2.63,0,0,0,.28,1.24,2.16,2.16,0,0,0,2,1.16Z"/><path class="cls-2" d="M278.49,626.24V620.4h.68v5.84Zm4.2,0V622.6a2.09,2.09,0,0,0-.17-.86,1.39,1.39,0,0,0-.53-.57,1.82,1.82,0,0,0-.92-.21,1.91,1.91,0,0,0-.93.25,1.85,1.85,0,0,0-.7.66,1.69,1.69,0,0,0-.27.94l-.41-.15a2.12,2.12,0,0,1,.34-1.19,2.56,2.56,0,0,1,3.24-.9,1.82,1.82,0,0,1,.76.72,2.26,2.26,0,0,1,.27,1.14v3.81Z"/><path class="cls-2" d="M285.4,626.24V620.4h.68v5.84Zm4.2,0V622.6a1.94,1.94,0,0,0-.17-.86,1.32,1.32,0,0,0-.53-.57A1.79,1.79,0,0,0,288,621a1.91,1.91,0,0,0-.93.25,1.93,1.93,0,0,0-.7.66,1.69,1.69,0,0,0-.27.94l-.41-.15a2.2,2.2,0,0,1,.34-1.19,2.37,2.37,0,0,1,.91-.84,2.34,2.34,0,0,1,1.18-.31,2.48,2.48,0,0,1,1.16.25,1.8,1.8,0,0,1,.75.72,2.26,2.26,0,0,1,.27,1.14v3.81Z"/><path class="cls-2" d="M292.45,623.61V623h4.73l-.14.19v-.11a2.39,2.39,0,0,0-.24-1.06,1.91,1.91,0,0,0-.7-.79,2.07,2.07,0,0,0-1.12-.29,2.28,2.28,0,0,0-1.18.3,2.22,2.22,0,0,0-.8.84,2.65,2.65,0,0,0-.28,1.25,2.69,2.69,0,0,0,.28,1.26,2.07,2.07,0,0,0,.79.84,2.35,2.35,0,0,0,1.2.3,2.57,2.57,0,0,0,.87-.13,2,2,0,0,0,.62-.32,1.81,1.81,0,0,0,.37-.43,1,1,0,0,0,.15-.44h.68a1.79,1.79,0,0,1-.21.67,2.49,2.49,0,0,1-.52.63,2.83,2.83,0,0,1-.84.47,3.33,3.33,0,0,1-1.14.17,2.9,2.9,0,0,1-1.51-.38,2.76,2.76,0,0,1-1-1.06,3.43,3.43,0,0,1,0-3.14,2.72,2.72,0,0,1,1-1.06,2.89,2.89,0,0,1,1.5-.39,2.78,2.78,0,0,1,1.49.39,2.59,2.59,0,0,1,1,1.06,3.25,3.25,0,0,1,.35,1.5c0,.05,0,.11,0,.18a.67.67,0,0,1,0,.16Z"/><path class="cls-2" d="M302.26,626.35a3,3,0,0,1-1.46-.36,2.74,2.74,0,0,1-1.07-1,3.5,3.5,0,0,1,0-3.25,2.62,2.62,0,0,1,1.07-1,3,3,0,0,1,1.46-.36,2.92,2.92,0,0,1,1.1.19,2.47,2.47,0,0,1,.82.5,2,2,0,0,1,.51.68,1.67,1.67,0,0,1,.18.73h0v0h-.68v-.06a.15.15,0,0,0,0-.07,1.27,1.27,0,0,0-.31-.71,2.05,2.05,0,0,0-.68-.49,2.27,2.27,0,0,0-.93-.18,2.33,2.33,0,0,0-1.1.27,2.07,2.07,0,0,0-.82.79,3,3,0,0,0,0,2.65,2.13,2.13,0,0,0,.82.81,2.53,2.53,0,0,0,2.17,0A1.59,1.59,0,0,0,304,625a1.37,1.37,0,0,0,.22-.71h.68a1.85,1.85,0,0,1-.17.74,2,2,0,0,1-.49.68,2.3,2.3,0,0,1-.82.49A3,3,0,0,1,302.26,626.35Z"/><path class="cls-2" d="M308.61,626.33a2,2,0,0,1-.49-.06,1.07,1.07,0,0,1-.41-.21,1,1,0,0,1-.29-.44,1.94,1.94,0,0,1-.11-.7V621H305.9v-.6h1.24a.14.14,0,0,0,.12,0,.38.38,0,0,0,.05-.14v-1.68H308v1.88h1.87v.6H308v3.68a1.62,1.62,0,0,0,.15.77.56.56,0,0,0,.55.28l.31,0a.71.71,0,0,0,.22-.07v.6a1.05,1.05,0,0,1-.26.07Z"/><path class="cls-2" d="M311.77,618.93a.59.59,0,0,1-.37-.12.43.43,0,0,1-.15-.34.39.39,0,0,1,.15-.32.54.54,0,0,1,.37-.13.52.52,0,0,1,.36.13.4.4,0,0,1,.16.32.44.44,0,0,1-.16.34A.56.56,0,0,1,311.77,618.93Zm-.34,7.31V620.4h.67v5.84Z"/><path class="cls-2" d="M316.9,626.34a2.9,2.9,0,0,1-1.51-.39,2.77,2.77,0,0,1-1-1.08,3.2,3.2,0,0,1-.37-1.55,3.14,3.14,0,0,1,.37-1.55,2.79,2.79,0,0,1,1-1.06,3.21,3.21,0,0,1,3,0,2.79,2.79,0,0,1,1,1.06,3.14,3.14,0,0,1,.37,1.55,3.2,3.2,0,0,1-.37,1.55,2.77,2.77,0,0,1-1,1.08A2.91,2.91,0,0,1,316.9,626.34Zm0-.62a2.13,2.13,0,0,0,2-1.16,2.63,2.63,0,0,0,.28-1.24,2.61,2.61,0,0,0-.28-1.24,2.11,2.11,0,0,0-.79-.83,2.41,2.41,0,0,0-2.33,0,2.11,2.11,0,0,0-.79.83,2.61,2.61,0,0,0-.28,1.24,2.63,2.63,0,0,0,.28,1.24,2.13,2.13,0,0,0,1.95,1.16Z"/><path class="cls-2" d="M321.66,626.24V620.4h.68v5.84Zm4.2,0V622.6a2.09,2.09,0,0,0-.17-.86,1.35,1.35,0,0,0-.54-.57,1.75,1.75,0,0,0-.91-.21,1.91,1.91,0,0,0-.93.25,1.85,1.85,0,0,0-.7.66,1.69,1.69,0,0,0-.27.94l-.41-.15a2.12,2.12,0,0,1,.34-1.19,2.42,2.42,0,0,1,.9-.84,2.38,2.38,0,0,1,1.19-.31,2.44,2.44,0,0,1,1.15.25,1.82,1.82,0,0,1,.76.72,2.26,2.26,0,0,1,.27,1.14v3.81Z"/><path class="cls-2" d="M330.69,626.35a4.08,4.08,0,0,1-1-.11,2.33,2.33,0,0,1-.75-.32,1.62,1.62,0,0,1-.49-.52,1.45,1.45,0,0,1-.18-.7v-.19H329v.16a.93.93,0,0,0,.47.79,2.4,2.4,0,0,0,1.24.27,3,3,0,0,0,.89-.11,1.35,1.35,0,0,0,.6-.34.7.7,0,0,0,.22-.54A.78.78,0,0,0,332,624a5.21,5.21,0,0,0-1.35-.38,6.41,6.41,0,0,1-.86-.2,2.66,2.66,0,0,1-.7-.32,1.32,1.32,0,0,1-.47-.47,1.36,1.36,0,0,1-.17-.69,1.27,1.27,0,0,1,.31-.87,1.82,1.82,0,0,1,.83-.54,3.52,3.52,0,0,1,2.28,0,2,2,0,0,1,.84.56,1.43,1.43,0,0,1,.31.95v.12h-.68V622a.9.9,0,0,0-.23-.64,1.34,1.34,0,0,0-.59-.36,2.76,2.76,0,0,0-.77-.11,2.88,2.88,0,0,0-.78.1,1.53,1.53,0,0,0-.61.31.7.7,0,0,0-.23.56.73.73,0,0,0,.22.56,1.57,1.57,0,0,0,.62.34,7.9,7.9,0,0,0,.93.23,8.59,8.59,0,0,1,.9.21,2.84,2.84,0,0,1,.7.31,1.32,1.32,0,0,1,.47.47,1.46,1.46,0,0,1,.16.69,1.39,1.39,0,0,1-.18.71,1.55,1.55,0,0,1-.51.51,2.25,2.25,0,0,1-.76.31A4,4,0,0,1,330.69,626.35Z"/><path class="cls-2" d="M335.32,626.38a.55.55,0,0,1-.55-.55.53.53,0,0,1,.16-.39.53.53,0,0,1,.39-.16.57.57,0,0,1,.39.16.53.53,0,0,1,.16.39.5.5,0,0,1-.16.39A.53.53,0,0,1,335.32,626.38Z"/><path class="cls-2" d="M269.12,549.38s4.3-13.47,7.68-18.36,7.41-10.83,10.75-14.18a55.22,55.22,0,0,1,4.21-4,49.49,49.49,0,0,0,0-5.76,47.78,47.78,0,0,0-.69-5.44,34,34,0,0,1-4.36-5.06,50.58,50.58,0,0,1-3.93-8.71c-.51-1.67-1.84-5.86-1.84-5.86s-3.44.09-4.36-1.92-1.75-4.6-1.34-6.61a6.34,6.34,0,0,1,2.62-4.06,8.72,8.72,0,0,1,2.41-.63l.48-4a1.81,1.81,0,0,1-1.91-1.05,9.65,9.65,0,0,1-.58-7.92c1.25-4.19,2.51-7.09,3.09-7.69s1.68.24,1.68.24a28.58,28.58,0,0,1,3.65-3.37,43.34,43.34,0,0,1,4.23-2.41,6.25,6.25,0,0,1,2.75-3.68,21.26,21.26,0,0,1,9-2.16c3.68-.1,9.95,1.57,9.95,1.57s3.43.95,3.64,2.9-.29,2-.29,2,4.19.5,5.94,1.84a38,38,0,0,1,4.52,4.77,3.47,3.47,0,0,1,1.83,1.39,28.66,28.66,0,0,1,3.46,10c.4,3.94.24,6.62-.85,7.45a5.88,5.88,0,0,1-1.93,1.05l.61,1.42s2.94.85,3.24,3.22.51,5.53-1.07,6.6-3.95,1.44-4.45,2.95-.75,7.61-2.47,10.88a26.9,26.9,0,0,1-4.1,5.67v11.74l5.51,4.28s10.52,8.44,11.52,9.78,7.12,10.71,8.46,14.14,4.29,11.49,4.29,11.49a103.43,103.43,0,0,1-38.82,7.92C273.18,559.77,269.12,549.38,269.12,549.38Z"/><path class="cls-2" d="M289.29,515.2a25.53,25.53,0,0,1-4.55,3c-2.7,1.4-11.17,4.9-15.62,7s-7,2-7,2A51.78,51.78,0,0,0,264.61,517a96.81,96.81,0,0,0,.66-12c-.15-1.38-.37-13.54-.37-13.54l-1.43-21.85s-.92-11.17-1.67-13.58-1.67-5.4-3.33-5.2-1.32,5.82-1.32,5.82l1.7,12.93.08,1.48a2.62,2.62,0,0,0-2.71.46,10.88,10.88,0,0,0-1.69,2.4s-.87-2.23-2.56-1.54a13.5,13.5,0,0,0-3,1.76,1.33,1.33,0,0,0-2.2.39,15.13,15.13,0,0,0-2.2,7.3,5.72,5.72,0,0,0,1.27,3.83,51.45,51.45,0,0,0-.23,5.8,22,22,0,0,0,2.23,6.15c.91,1.49,2.52,3.79,2.2,4.22s-1.27-.29-1.94.72-4.79,6.19-6.63,12.07-3.44,10.5-3.16,14.2a25.11,25.11,0,0,0,3.07,9.91s8.69,21.09,70.23,21.09C363.38,559.77,289.29,515.2,289.29,515.2Z"/><path class="cls-6" d="M326.07,450.75s-1.22.08-1.27,2.36.27,9.29,1,11.79,1.56,4.73,3.56,4.57,2.32-4.57,2.32-4.57a34.48,34.48,0,0,0-.79-6.74C330.15,455.4,329.43,449.75,326.07,450.75Z"/><path class="cls-6" d="M281.55,448.35s-.33,0-1.46,2A25.11,25.11,0,0,0,277.87,461c.22,1.95,1.2,3.92,2.53,3.91a3,3,0,0,0,2.71-1.81s.29-4.08.29-6.9S284.91,447.36,281.55,448.35Z"/><path class="cls-6" d="M316.26,442.14s.09-3.69-8.88-5c-2.45-.35-8.5-.53-10.91.44-1.83.74-5.16,3-5.31,4.37-.25,2.21,3.22,2.21,3.22,2.21s8.18,2,11,1.61S316.49,445.89,316.26,442.14Z"/><path d="M280,465.71a28.2,28.2,0,0,1-.31,3l.53-.4a5.39,5.39,0,0,0-3.87,2,7.44,7.44,0,0,0-1.69,6.31,7.25,7.25,0,0,0,2.77,5.1,8.55,8.55,0,0,0,3.37,1.11l-.39-.38c1.37,5,3,10.15,5.87,14.51,3.32,5.05,8.93,8.71,15.11,8.46.71,0,.72-1.14,0-1.11-6.29.26-11.72-3.72-14.81-9a53.9,53.9,0,0,1-5.1-13.19.54.54,0,0,0-.38-.38,11.43,11.43,0,0,1-2.45-.62A5.34,5.34,0,0,1,276,477.5a6.85,6.85,0,0,1,1-6.14c.74-.9,2-2,3.27-1.9a.57.57,0,0,0,.54-.41,31.25,31.25,0,0,0,.35-3.34c0-.72-1.08-.72-1.11,0Z"/><path d="M290.54,501.92a63.06,63.06,0,0,1,.71,14.65c-.05.71,1.05.71,1.1,0a63.35,63.35,0,0,0-.74-14.94c-.12-.7-1.19-.41-1.07.29Z"/><path d="M302.77,481.93l2.11-.69a.57.57,0,0,0,.39-.68.56.56,0,0,0-.69-.39l-2.11.69a.56.56,0,0,0-.38.68.55.55,0,0,0,.68.39Z"/><path d="M315.68,485.65l1.67,6.61a.55.55,0,0,0,1.07-.29l-1.68-6.61a.55.55,0,0,0-1.06.29Z"/><path d="M294.26,487.56l-1.48,3.7a.57.57,0,0,0,.39.69.57.57,0,0,0,.68-.39l1.48-3.7a.55.55,0,0,0-.39-.68.56.56,0,0,0-.68.38Z"/><path d="M329.36,471.76c3.54.48,3.82,6.15,2.18,8.5-1.06,1.53-3.05,1.57-4.31,2.85a6.28,6.28,0,0,0-1.36,4,24.83,24.83,0,0,1-3.54,10.62c-1.89,3.09-5.2,4.82-8.62,5.72a.56.56,0,0,0,.3,1.07,16.33,16.33,0,0,0,7.61-4.1,20,20,0,0,0,4.32-7.86,24.16,24.16,0,0,0,1-4.62,15.28,15.28,0,0,1,.39-2.7,3.62,3.62,0,0,1,2.26-2.27,6.16,6.16,0,0,0,2.95-2.12,7,7,0,0,0,1.1-3.8c0-2.56-1-5.93-4-6.33-.7-.09-1,1-.29,1.07Z"/><path d="M320.14,500.89c0,5.68-.12,11.37.06,17.05a.56.56,0,0,0,1.11,0c-.18-5.68-.06-11.37-.06-17.05a.56.56,0,0,0-1.11,0Z"/><path d="M291.28,517.27c1.89,4.38,7.84,4.57,11.89,4.59a47.8,47.8,0,0,0,17.73-3.38c.66-.26.37-1.33-.29-1.07a46.87,46.87,0,0,1-16.07,3.32c-3.92.1-10.42.33-12.31-4-.28-.65-1.23-.09-1,.56Z"/><path d="M290.52,518.19c1.68,13.3,6.67,26,13.54,37.46a.55.55,0,0,0,.95-.56c-6.76-11.27-11.72-23.8-13.39-36.9-.08-.69-1.19-.7-1.1,0Z"/><path d="M321.51,517q-.74,19.66-2.62,39.25c-.07.71,1,.71,1.11,0q1.89-19.58,2.62-39.25c0-.71-1.09-.71-1.11,0Z"/><path d="M293.56,529.58a27.83,27.83,0,0,0,10,4.15c.7.14,1-.93.3-1.07a27,27,0,0,1-9.7-4c-.59-.4-1.15.56-.56,1Z"/><path d="M290.89,513.09a54.19,54.19,0,0,0-12,14.19c-1.23,2.2-2.21,4.92-1.18,7.4a4.76,4.76,0,0,0,5.12,3.14l-.68-.68a15.38,15.38,0,0,0,4.9,16.37c.55.44,1.34-.34.78-.79a14.3,14.3,0,0,1-4.61-15.29.57.57,0,0,0-.69-.68c-2.63.45-4.32-2.48-4.13-4.77.23-2.62,1.87-5,3.31-7.07a57,57,0,0,1,9.94-11c.54-.47-.25-1.25-.79-.78Z"/><path d="M321.67,513.37c3.31,3,6.82,5.84,10.23,8.76.8.68,1.59,1.36,2.37,2.06s3,2.2,1.43,3.18c-2.15,1.38-4.43,2.6-6.64,3.89a.57.57,0,0,0-.26.63,21.12,21.12,0,0,1-2.07,18.76c-.39.6.57,1.15.95.56a22.19,22.19,0,0,0,2.19-19.62l-.25.63,3.94-2.31a16.3,16.3,0,0,0,3.4-2.08c1.66-1.7-1.08-3.69-2.21-4.69-4.05-3.58-8.31-6.9-12.3-10.55-.52-.48-1.31.3-.78.78Z"/><path d="M333.88,523.83a20.13,20.13,0,0,1,4.56,4.74,63.32,63.32,0,0,1,4.51,7.16,81.68,81.68,0,0,1,6.95,16.4.56.56,0,0,0,1.07-.3,82.6,82.6,0,0,0-7.25-17c-2.36-4.25-5.16-9.19-9.28-12-.59-.4-1.15.56-.56,1Z"/><path d="M284.26,450.73c.06-1.23-.33-2.76-1.75-3a2.15,2.15,0,0,0-2.11,1,18.09,18.09,0,0,0-2.43,5.84,15.76,15.76,0,0,0-.45,7.65,5,5,0,0,0,1.67,2.87,2.8,2.8,0,0,0,3.63-.63c1.34-1.64,1-4.22,1.07-6.18.12-2.51.32-5,.37-7.53a.56.56,0,0,0-1.11,0c-.07,3.48-.28,7-.46,10.45-.06,1.29-.45,3.27-2.15,3.2-1-.05-1.57-1.23-1.84-2.09a12.27,12.27,0,0,1,0-6,23.32,23.32,0,0,1,1.83-5.57,5.57,5.57,0,0,1,1-1.6,1,1,0,0,1,1-.23c.67.29.67,1.27.64,1.86s1.08.71,1.11,0Z"/><path d="M290.76,443.61a40.85,40.85,0,0,0,13.34,2.74,36.53,36.53,0,0,0,6.69-.29c1.73-.23,4-.45,5.3-1.81a3.32,3.32,0,0,0,0-4.3c-1.25-1.69-3.47-1.93-5.35-2.53a24.93,24.93,0,0,0-12.94-.54c-3.05.74-7.32,2.51-7.46,6.19a.56.56,0,0,0,1.11,0c.11-2.89,3.7-4.31,6.05-5a23.73,23.73,0,0,1,10.8-.17,35.78,35.78,0,0,1,5.17,1.46c2.39.88,3.28,3.86.49,4.88-3.28,1.2-7.28,1.14-10.71.93a40,40,0,0,1-12.21-2.66c-.66-.26-.95.81-.29,1.07Z"/><path d="M328.91,451.34c-.92-1.27-2-1.93-3.39-.83-1.67,1.32-1.35,3.64-1.31,5.56a47.93,47.93,0,0,0,.68,7.17c.33,1.88.61,4,1.78,5.57a2.78,2.78,0,0,0,5-.68c1-2.31.64-5.15.28-7.55a26.2,26.2,0,0,0-3-9.24.55.55,0,0,0-1,.56,23.05,23.05,0,0,1,2.32,6.16,25.49,25.49,0,0,1,.83,6.95c-.05,1.24-.2,3.5-1.69,3.91s-2.24-1.14-2.63-2.26a27.32,27.32,0,0,1-1.11-5.61,45.67,45.67,0,0,1-.37-6.18c0-1-.17-2.33.48-3.12.24-.29.79-.8,1.22-.74s.75.61.95.89c.41.57,1.37,0,1-.56Z"/><path d="M283.29,449.16a18.19,18.19,0,0,1,7.32-5.55c.66-.26.37-1.33-.29-1.07a19.18,19.18,0,0,0-7.81,5.84c-.46.54.32,1.33.78.78Z"/><path d="M315.5,443.85a15.56,15.56,0,0,1,6.25,1.92,15.76,15.76,0,0,1,4.35,4.87c.38.6,1.34,0,.95-.56a17.07,17.07,0,0,0-4.65-5.21,16.13,16.13,0,0,0-6.6-2.09c-.7-.1-1,1-.3,1.07Z"/><path d="M290.32,463.31l8.15-.69c.7-.06.71-1.16,0-1.1l-8.15.68c-.71.06-.71,1.17,0,1.11Z"/><path d="M311.93,464.15a18.4,18.4,0,0,1,9.29.26.55.55,0,0,0,.29-1.07,19.69,19.69,0,0,0-9.88-.26c-.69.16-.4,1.23.3,1.07Z"/><ellipse class="cls-7" cx="295.78" cy="471.47" rx="2.18" ry="1.43" transform="translate(-194.64 734.64) rotate(-86.12)"/><path class="cls-7" d="M294.11,470.36l3.28,0a.56.56,0,0,0,0-1.11l-3.28,0a.56.56,0,1,0,0,1.11Z"/><ellipse class="cls-7" cx="314.92" cy="471.47" rx="2.18" ry="1.43" transform="translate(-176.81 753.73) rotate(-86.12)"/><path class="cls-7" d="M313.24,470.36l3.28,0a.56.56,0,0,0,0-1.11l-3.28,0a.56.56,0,0,0,0,1.11Z"/><path d="M287.42,516.29c-4.8,2.23-9.58,4.51-14.43,6.63-2.18,1-4.38,1.89-6.63,2.69-1.07.38-2.68,1.17-3.86.95-.75-.14-1.07,1-.31,1.15A8.15,8.15,0,0,0,266,527c2.27-.76,4.48-1.7,6.68-2.64,5.16-2.23,10.24-4.66,15.34-7,.69-.33.09-1.35-.6-1Z"/><path d="M248.52,502c1.41,2.37,2.88,4.33,5.74,4.84,3.92.69,7.43-1.71,10.67-3.6l-.88-.36a12.34,12.34,0,0,1,.6,4.18,50.94,50.94,0,0,1-.28,7.2,46.73,46.73,0,0,1-4.95,17.44c-.37.67.66,1.28,1,.6a47.76,47.76,0,0,0,5.08-17.71,51.42,51.42,0,0,0,.3-7.65,13,13,0,0,0-.63-4.38.59.59,0,0,0-.87-.35c-2.89,1.69-6.24,4.09-9.75,3.48-2.56-.45-3.78-2.18-5-4.29a.6.6,0,0,0-1,.6Z"/><path d="M248.73,501.14c-1.9,1.44-3.2,3.71-4.34,5.76a63,63,0,0,0-4.22,9.46,39.1,39.1,0,0,0-2.39,9.87,20.49,20.49,0,0,0,3,12.24.6.6,0,0,0,1-.6A19.45,19.45,0,0,1,239,525.8a40,40,0,0,1,2.31-9.12,60.42,60.42,0,0,1,4-8.9c1-1.94,2.26-4.25,4.06-5.61.61-.46,0-1.49-.6-1Z"/><path d="M250.55,503.33a6,6,0,0,0-.82-4.16c-.84-1.44-2.06-2.57-2.68-4.14-1.18-3-.89-6.32-.61-9.42.06-.77-1.13-.76-1.2,0-.26,3-.49,6.09.4,9a10.78,10.78,0,0,0,2,3.64c1.09,1.38,2.08,2.94,1.77,4.77-.13.75,1,1.07,1.15.32Z"/><path d="M265.52,502.29c.16-7.24-.06-14.48-.54-21.7-.43-6.29-.88-12.64-1.73-18.89-.44-3.25-.95-7-2.67-9.87-.54-.89-1.44-1.88-2.61-1.59s-1.37,2.27-1.4,3.34a52.78,52.78,0,0,0,.75,8.22c.46,3.51.94,7,1.15,10.56,0,.76,1.23.77,1.19,0-.31-5.35-1.33-10.61-1.78-15.94a24.43,24.43,0,0,1-.11-2.84,4,4,0,0,1,.31-2c.61-.91,1.69,1.15,1.94,1.73a31.79,31.79,0,0,1,2.11,8.93c.75,6,1.23,12.05,1.64,18.08.5,7.3.72,14.61.56,21.93a.6.6,0,0,0,1.19,0Z"/><path d="M259.44,471.1a2.22,2.22,0,0,0-2.29-.62,3.53,3.53,0,0,0-2.43,1.82c-1.22,2.05-1.21,4.59-1.15,6.9,0,.77,1.22.77,1.19,0a13.32,13.32,0,0,1,.67-5.68,3,3,0,0,1,1.54-1.76,2.4,2.4,0,0,1,1-.16,1.61,1.61,0,0,1,.37.07c.05,0,.13.1.09,0,.43.62,1.46,0,1-.6Z"/><path d="M255,473.1c-1.36-2.05-4.35-1.58-5.8.11a8.17,8.17,0,0,0-1.61,3.45,15.33,15.33,0,0,0-.5,4.67c.05.76,1.24.77,1.19,0a13.79,13.79,0,0,1,.37-4,8.7,8.7,0,0,1,1.11-2.92A3.14,3.14,0,0,1,252,473a2.06,2.06,0,0,1,2,.75c.42.64,1.45,0,1-.6Z"/><path d="M249.28,473.58a2.66,2.66,0,0,0-3.52,1.22,12.81,12.81,0,0,0-1.55,4.54A12.5,12.5,0,0,0,244,483a4.1,4.1,0,0,0,.94,2.38c.88.88,2.1.52,3-.1.63-.42,0-1.45-.6-1s-1.39.76-1.83-.09a5.06,5.06,0,0,1-.41-2.21,14.72,14.72,0,0,1,.79-4.6c.33-1,1.23-3.56,2.72-2.7a.6.6,0,0,0,.61-1Z"/><path d="M257.49,476.51a13.43,13.43,0,0,0,.78,4.36.62.62,0,0,0,.73.42.6.6,0,0,0,.42-.73,12.45,12.45,0,0,1-.74-4.05.6.6,0,0,0-.59-.59.61.61,0,0,0-.6.59Z"/><path d="M260.94,480.05c-2-.05-3.95,0-5.93.09-1,.06-2,.14-2.95.25a13.88,13.88,0,0,0-2.56.38,2.65,2.65,0,0,0-1.93,3.14,3.56,3.56,0,0,0,2.84,2.73,7,7,0,0,0,2.55.05c.74-.1,1.74-.33,2.33.28l-.1-.72-1.72,3.5c-.33.69.69,1.29,1,.6l1.72-3.5a.62.62,0,0,0-.09-.72c-1.22-1.27-3-.49-4.54-.53a3.29,3.29,0,0,1-2.39-.93,2,2,0,0,1-.39-2c.36-.83,1.41-.92,2.19-1,1.1-.14,2.2-.24,3.31-.32,2.2-.16,4.42-.2,6.63-.14.77,0,.76-1.17,0-1.19Z"/><path d="M307,489.41a21.42,21.42,0,0,0-3.66.46,8,8,0,0,0-2.6,1,3.62,3.62,0,0,0-1.64,2.12c-.27,1.14.59,1.86,1.49,2.36a7,7,0,0,0,5,.7,6.37,6.37,0,0,0,4.07-2.88,2.85,2.85,0,0,0,.2-2.71c-.61-1.05-1.84-.95-2.89-1-.82-.05-.82,1.24,0,1.29.51,0,1.47-.16,1.78.37a1.74,1.74,0,0,1-.25,1.51,5.17,5.17,0,0,1-3,2.13,5.76,5.76,0,0,1-3.71-.23c-.42-.18-1.52-.63-1.46-1.18a2.24,2.24,0,0,1,1.21-1.45,7.28,7.28,0,0,1,2.22-.75,18.52,18.52,0,0,1,3.23-.4c.83,0,.83-1.32,0-1.29Z"/></g></g></svg>