<svg xmlns="http://www.w3.org/2000/svg" viewBox="0 0 440 672"><defs><style>.cls-1,.cls-3,.cls-6{fill:#fff;}.cls-1{opacity:0.05;}.cls-2,.cls-7{fill:none;stroke-miterlimit:10;}.cls-2{stroke:aqua;stroke-linecap:round;stroke-width:0.8px;stroke-dasharray:1.61 4.01;}.cls-4{fill:#1a171b;}.cls-5{fill:#009245;}.cls-6{font-size:8px;font-family:Epilogue-Regular, Epilogue;letter-spacing:0.1em;}.cls-7{stroke:#fff;stroke-width:0.5px;}.cls-8{fill:#e200ff;}</style></defs><g id="Layer_2" data-name="Layer 2"><g id="Layer_1-2" data-name="Layer 1"><rect class="cls-1" width="440" height="672" rx="22.03"/><polyline class="cls-2" points="89.86 402.27 204.37 402.27 236.83 423.82 232.07 402.27 321.95 402.27"/><path class="cls-3" d="M225.07,564.6s2.29-18,8.16-26.83a121,121,0,0,1,10.93-14.29,5.66,5.66,0,0,1,1.91-3.11,90.94,90.94,0,0,0,7.14-5.8c2.09-2,3.43-6.87,4.85-8.8s2.29-3,3.74-2.91l1.45.14-.3-2.89a12.35,12.35,0,0,1-3.29-2.27,32.85,32.85,0,0,0-3.2-2.68s-4.88,1.09-6.7-2.84c-2.1-4.53-.65-7.61-.65-7.61l-2.36-2.93s-5.43-4.25-3.38-10.13,17.48-17.42,17.48-17.42l16.25,2.56,8.71,5.91,2.06,8.19s2.32,4.07,2.32,7.75c0,5.19-4.1,6.17-4.1,6.17l-.59,5,3.07,14.46s2.3-1,3.66-.39,5.36,5.17,7.12,8,7.21,2.53,9.94,5.65,5.26,7.52,7.1,8.44,4.58.92,8.44,7.53A111.08,111.08,0,0,1,332,549.42s-16.3,13.4-50.62,15.18S225.07,564.6,225.07,564.6Z"/><path class="cls-3" d="M325.93,540.71v-3.85a113.47,113.47,0,0,1-1.11-14.29,83.72,83.72,0,0,1,1.11-11l1.36-13,3.89-21.12,2.28-7.09a1.76,1.76,0,0,1,1.74-1.62c1.58,0,1,2.77,1,2.77l-2,10.13-.76,4.09s1.73-.85,2.4.57,1.06,1.45,1.06,1.45a1.7,1.7,0,0,1,2.19-.65,8,8,0,0,1,2.31,1.93s1.19-.86,1.67,0,2,3.47,1.41,6.24-1.41,3.3-1.41,3.3a50.16,50.16,0,0,1-.65,6.12c-.47,2.22-3,3.87-3.33,5.1a4.38,4.38,0,0,1-.83,1.77s1.19-.39,2.36,2.09,5.51,12.32,6.81,16.36,2.57,7.81,1.14,12.84-3,5.61-3,5.61a221.82,221.82,0,0,1-44.77,13.61"/><path d="M248.84,483.8a9.36,9.36,0,0,0,.25,8.42,7.27,7.27,0,0,0,2.54,3,5.53,5.53,0,0,0,4.51.47c.71-.23.41-1.36-.31-1.13a4.32,4.32,0,0,1-3.84-.5,7,7,0,0,1-2-2.62,8.09,8.09,0,0,1-.17-7.1c.31-.68-.7-1.27-1-.59Z"/><path d="M255.9,495.49c1.34,1.24,2.72,2.44,4.16,3.54a9.4,9.4,0,0,0,4.51,2,.59.59,0,0,0,.59-.59.6.6,0,0,0-.59-.59,8.23,8.23,0,0,1-4-1.91c-1.31-1.05-2.6-2.14-3.83-3.27-.55-.52-1.38.31-.83.82Z"/><path d="M262.45,500.54A19.36,19.36,0,0,1,263.84,512c-.13.74,1,1.06,1.13.31A20.67,20.67,0,0,0,263.46,500c-.33-.68-1.34-.08-1,.59Z"/><path d="M286,471.05c2.46-.49,3.22,4.19,3.47,5.78.36,2.2.16,4.95-1.86,6.34-.6.41-1.45.49-1.91,1.08s-.3,1.34-.34,2a12.78,12.78,0,0,1-2.22,6.45c-.42.62.6,1.21,1,.59a14,14,0,0,0,2.38-7,4.52,4.52,0,0,1,0-1c.12-.34.51-.44.79-.57a6.57,6.57,0,0,0,1.22-.73,5.87,5.87,0,0,0,1.74-2.48c1-2.47.35-5.29-.38-7.74-.55-1.88-1.95-4.21-4.25-3.76-.74.15-.42,1.28.32,1.13Z"/><path d="M284.94,489.51a175.34,175.34,0,0,1,3.83,19.15c.09.74,1.27.75,1.17,0a177.32,177.32,0,0,0-3.87-19.47c-.18-.73-1.31-.42-1.13.32Z"/><path d="M252.48,478c2.29-1.86,5-4.06,8.21-3.5.74.13,1.06-1,.31-1.13-3.64-.65-6.68,1.63-9.34,3.8-.59.48.24,1.3.82.83Z"/><path d="M267.66,472c2-2.37,5.09-3.16,7.95-3.86a.59.59,0,0,0-.31-1.13c-3.05.75-6.37,1.64-8.47,4.16-.48.58.34,1.41.83.83Z"/><path d="M267,486a10,10,0,0,0,2.25-1.84.59.59,0,0,0-.83-.83,8.71,8.71,0,0,1-1,.94l-.14.11-.05,0,.06,0,0,0-.27.2c-.19.13-.38.26-.58.37a.59.59,0,0,0-.21.81.6.6,0,0,0,.8.21Z"/><path d="M263,511.33a15.14,15.14,0,0,0,2.71,9c1.92,2.51,5.13,4.34,8,5.52a13.38,13.38,0,0,0,10.32,0,12.19,12.19,0,0,0,6.6-8.54,26.93,26.93,0,0,0,.56-7.6c-.06-1.44.13-4-1.7-4.39a.59.59,0,0,0-.31,1.13c1,.24.8,2.5.84,3.26.05,1.24.07,2.48,0,3.71a16.49,16.49,0,0,1-1.8,7,10.44,10.44,0,0,1-10.29,5.29,14.52,14.52,0,0,1-5.89-2A21.72,21.72,0,0,1,267.9,521c-2.66-2.39-3.74-6.15-3.75-9.65a.59.59,0,0,0-1.17,0Z"/><path d="M263.41,502.35c-3.1-.77-5.39,1.81-6.52,4.38a38.53,38.53,0,0,1-2.16,4.82,20.47,20.47,0,0,1-3.4,4c-1.25,1.18-2.58,2.26-3.92,3.33-1.16.94-2.66,1.86-3.39,3.2-.84,1.54-.79,3.73-1,5.43l-.83,6.13c-.06.45.39,1,.86.66q4.72-3.24,9.23-6.8h-.83c.68.59,0,1.78-.09,2.52a3.05,3.05,0,0,0,.17,1.84,12.15,12.15,0,0,0,1.64,2.14l2.18,2.64,9,11c.48.58,1.31-.25.83-.83l-9-11L254,533.2c-.78-.94-1.68-1.7-1.48-3s.89-2.53-.24-3.5a.61.61,0,0,0-.83,0q-4.39,3.46-9,6.62l.86.66.74-5.42a36.63,36.63,0,0,1,.77-5.23c.44-1.54,2.11-2.51,3.29-3.47s2.36-1.9,3.49-2.92a20.08,20.08,0,0,0,5.24-6.92c1.1-2.57,2.48-7.48,6.28-6.54a.59.59,0,0,0,.31-1.13Z"/><path d="M263.27,510.83a9,9,0,0,0-4.58,4.65,11.93,11.93,0,0,0-.26,7.36,79.74,79.74,0,0,0,6.1,16.47c.32.68,1.33.09,1-.59a96.51,96.51,0,0,1-5.52-14.4c-.68-2.37-1.29-5.08-.57-7.52a7.93,7.93,0,0,1,4.41-5c.69-.3.1-1.31-.59-1Z"/><path d="M289.39,504.11c4.85-1,7.13,5.07,9.72,8a12.32,12.32,0,0,0,4.74,3.13c1.9.78,3.91,1.41,5.46,2.82,2.62,2.39,3.7,6.08,6.68,8.14,1.77,1.23,3.86,1.69,5.46,3.22a20.37,20.37,0,0,1,3.66,5.42c.35.67,1.36.08,1-.59-1.49-2.87-3.25-5.81-6.21-7.37-1.61-.84-3.23-1.37-4.51-2.72a26.16,26.16,0,0,1-2.78-3.83,16,16,0,0,0-2.75-3.33A14,14,0,0,0,306,514.8a17.11,17.11,0,0,1-5.05-2.58,20.85,20.85,0,0,1-3.36-4.23c-1.94-2.82-4.72-5.76-8.48-5-.74.15-.42,1.28.31,1.13Z"/><path d="M314,524.52l-.72,16.81.88-.51-13.67-8.58c-.59-.37-1.12.44-.71.93,1.58,1.86-1.57,3.81-2.69,4.88a23.32,23.32,0,0,0-3.15,3.72,21.81,21.81,0,0,0-3.84,8.94c-.11.74,1,1.06,1.14.31a21.81,21.81,0,0,1,5.33-10.74c1.74-2,6.67-4.84,4-7.94l-.71.92,13.67,8.57a.59.59,0,0,0,.88-.5l.72-16.81c0-.76-1.14-.76-1.17,0Z"/><path d="M289.54,505.94c4.32,1.27,6.62,5.73,6.72,10,.12,5-2.14,9.61-4.21,14a53.05,53.05,0,0,0-4.42,13.13,119.77,119.77,0,0,0-1.5,14.39c-.05.76,1.12.75,1.17,0,.53-8.34,1.19-16.7,4.61-24.44,2.92-6.6,7.51-14.15,4.7-21.58a10.63,10.63,0,0,0-6.76-6.65.59.59,0,0,0-.31,1.13Z"/><path d="M243.75,523a66.38,66.38,0,0,0-19.27,41.53c-.07.75,1.11.75,1.17,0a65.22,65.22,0,0,1,18.92-40.7.58.58,0,0,0-.82-.83Z"/><path d="M253.78,487.55a4.92,4.92,0,0,0-1.7-1.95c-.71-.55-1.38-1.12-2-1.72a18.89,18.89,0,0,1-1.56-1.54,13.7,13.7,0,0,1-1.22-1.69c-.4-.64-1.42,0-1,.59A15.81,15.81,0,0,0,249,484.5c.67.62,1.34,1.23,2.06,1.78a4.65,4.65,0,0,1,1.6,1.58.59.59,0,1,0,1.13-.31Z"/><path d="M253.78,487.55c-.51-2.75-1-5.51-1.51-8.26-.46-2.53-1-5.28.28-7.67l-.8.21a1.82,1.82,0,0,0,2.43-.5c.25-.36.17-1.57.44-1.74s1.45.35,1.73.38a2,2,0,0,0,1.35-.21c.56-.36.64-1.22,1.16-1.52s1.5.16,2.07.27a3,3,0,0,0,1.74-.05.6.6,0,0,0,.41-.72c-.27-1.11,2.48-.87,3-1a2.3,2.3,0,0,0,1.8-1c.14-.28.05-.74.18-1,.45-.75,2-.28,2.57-.16a15,15,0,0,1,4.25,1.58.59.59,0,0,0,.71-.1,2.23,2.23,0,0,0,.51-2l-.86.66a15.39,15.39,0,0,1,8.33,12,.59.59,0,0,0,1.15.15l1.64-6.28a.59.59,0,0,0-1.14-.31l-1.63,6.28,1.15.16a16.53,16.53,0,0,0-8.91-13,.59.59,0,0,0-.86.66l-.21.85.71-.1a16.22,16.22,0,0,0-5.37-1.84c-1.16-.17-2.82-.47-3.2,1-.07.29.06.73-.15,1s-1,.35-1.43.37a6.42,6.42,0,0,0-1.9.18,1.85,1.85,0,0,0-1.49,2.19l.41-.72c-1.1.39-2.18-.46-3.3-.34a1.81,1.81,0,0,0-1.06.45c-.49.42-.57,1.27-1.31,1.39s-1.7-.69-2.62-.3a1.29,1.29,0,0,0-.63.59c-.27.52,0,2.33-1.1,1.7a.59.59,0,0,0-.8.21c-1.23,2.28-1,4.8-.63,7.27.53,3.19,1.15,6.38,1.74,9.56.13.74,1.26.43,1.13-.31Z"/><ellipse class="cls-4" cx="258.78" cy="480.15" rx="1.51" ry="2.31" transform="translate(-144.73 113.15) rotate(-19.39)"/><ellipse class="cls-4" cx="272.96" cy="475.43" rx="1.51" ry="2.31" transform="translate(-142.36 117.59) rotate(-19.39)"/><path class="cls-4" d="M256.61,479.79l3.21-1.33a.61.61,0,0,0,.41-.72.59.59,0,0,0-.72-.41l-3.21,1.33a.61.61,0,0,0-.41.72.59.59,0,0,0,.72.41Z"/><path class="cls-4" d="M270.69,474.85l3.19-1.37a.58.58,0,0,0,.21-.8.61.61,0,0,0-.8-.21l-3.19,1.37a.59.59,0,0,0-.21.8.61.61,0,0,0,.8.21Z"/><path class="cls-5" d="M249.34,484.1c-2-2.13-5.72-4-7.63-10.66a20.43,20.43,0,0,1-.34-8.6,61.67,61.67,0,0,1,3.44-13.15,21.81,21.81,0,0,1,4.17-7.32,9.54,9.54,0,0,1,7.54-3.21c2.75.26,5.19,2,7.94,2.25,1.91.13,4-.49,5.68.34,1.53.73,2.38,2.43,3.82,3.33a14.89,14.89,0,0,0,3.68,1.23c5.89,1.84,13.2,15.46,10.26,22.76-6.95-11.69-15.47-12.55-22.76-11.58-5,.67-9.93,2.43-13.65,5.79s-8.76,12.27-2.15,18.82"/><path d="M249.76,483.68c-1.4-1.48-3.08-2.65-4.38-4.23a17,17,0,0,1-3.7-10.05,40.75,40.75,0,0,1,2-12.43c1.06-3.72,2.33-7.68,4.62-10.83,2.5-3.44,6.34-5.25,10.49-3.85a27.56,27.56,0,0,0,5.2,1.65c1.79.23,3.71-.39,5.44.16s2.54,2.24,3.9,3.23,2.88,1.07,4.36,1.61c2.2.8,4,2.8,5.3,4.64,3.33,4.55,6.54,11.67,4.37,17.33l1.07-.14c-2.46-4.09-5.66-7.89-10-10.07A20.63,20.63,0,0,0,268,458.65c-8.61.41-17.64,4.08-21.2,12.44-2,4.69-1.47,9.71,2.17,13.42.53.54,1.36-.29.83-.83-6.34-6.47-1.57-16.14,5.12-20.17a27.8,27.8,0,0,1,12.56-3.66,20.3,20.3,0,0,1,9.59,1.47c4.54,2,7.85,5.87,10.37,10a.59.59,0,0,0,1.07-.14c2.06-5.37-.51-12-3.36-16.56a19,19,0,0,0-5.34-5.94,11.77,11.77,0,0,0-3.68-1.42,5.91,5.91,0,0,1-2.7-1.44c-.66-.63-1.23-1.36-1.93-1.94-1.45-1.2-3.13-1.25-4.92-1.14a14.36,14.36,0,0,1-6.29-1.19,11.22,11.22,0,0,0-5.41-1,10.26,10.26,0,0,0-5,2.16c-3.18,2.48-4.81,6.39-6.13,10.08A58.66,58.66,0,0,0,240.64,466a19.43,19.43,0,0,0,2.75,12.72c1.5,2.33,3.67,3.84,5.54,5.81.52.55,1.35-.28.83-.83Z"/><path d="M338.69,511.37c-1.28,1.72-2.5,3-4.77,3.1-2.83.08-5.37-2.16-7.53-3.73a.5.5,0,0,0-.68.18,12.77,12.77,0,0,0-1,4,58.07,58.07,0,0,0-.58,7.21c-.14,5.59.25,11.52,2.42,16.73.24.58,1.2.32,1-.26-2.11-5-2.5-10.73-2.4-16.14a56.92,56.92,0,0,1,.54-7.15,12.4,12.4,0,0,1,.91-3.9l-.68.18c2.57,1.87,5.33,4.19,8.7,3.82,2.32-.25,3.63-1.76,5-3.54.38-.51-.48-1-.85-.5Z"/><path d="M338.76,512a13.68,13.68,0,0,1,2.49,3.88c1.16,2.25,2.17,4.57,3.1,6.91,1.83,4.6,3.76,9.57,4.21,14.53a16,16,0,0,1-3.25,11c-.38.51.48,1,.86.5a17.09,17.09,0,0,0,3.44-10.19,26.32,26.32,0,0,0-1.12-6.7,87.28,87.28,0,0,0-5.93-15.63,16.68,16.68,0,0,0-3.1-5c-.46-.43-1.16.27-.7.7Z"/><path d="M338.7,512.8a4.74,4.74,0,0,1,1.6-3.6,10.56,10.56,0,0,0,2.17-3,19.42,19.42,0,0,0,1.11-7.53.49.49,0,0,0-1,0c0,2.59-.07,5.4-1.32,7.74a24.24,24.24,0,0,1-2.43,3,5,5,0,0,0-1.14,3.42c.05.63,1,.63,1,0Z"/><path d="M326.42,510.83a253.42,253.42,0,0,1,4.86-31.47,35.87,35.87,0,0,1,2.22-7.45c.29-.64,1.05-2.63,2-2.61s.38,2.46.31,3c-.7,4.77-2.23,9.39-3,14.15-.1.62.85.89.95.26.77-4.81,2.31-9.47,3-14.28.15-1,.47-2.65-.17-3.59a1.48,1.48,0,0,0-2.21-.06,8.12,8.12,0,0,0-2,3.34,34.59,34.59,0,0,0-1.48,4.59c-1.23,4.73-2,9.62-2.88,14.43-1.14,6.52-2,13.09-2.56,19.69-.05.63.94.63,1,0Z"/><path d="M333.81,486.14a.16.16,0,0,1,.11-.07.86.86,0,0,1,.28,0,2.27,2.27,0,0,1,.77.17,2.44,2.44,0,0,1,1.18,1.56,11.11,11.11,0,0,1,.09,4.87c0,.27.26.49.5.5a.51.51,0,0,0,.49-.5c.25-1.93.45-4-.42-5.84a2.88,2.88,0,0,0-1.81-1.62,1.86,1.86,0,0,0-1.89.26c-.42.48.28,1.19.7.7Z"/><path d="M337.27,488.16a1.71,1.71,0,0,1,1.78-.51,2.61,2.61,0,0,1,1.67,1.36,6.67,6.67,0,0,1,.7,2.47,12,12,0,0,1,0,3.33c-.1.62.85.89,1,.26a13.34,13.34,0,0,0,0-3.94,6.7,6.7,0,0,0-1-3,3.43,3.43,0,0,0-2.31-1.5,2.64,2.64,0,0,0-2.47.81c-.4.49.3,1.2.7.7Z"/><path d="M341.71,489.28c.53-.24,1.08.22,1.34.64a5.92,5.92,0,0,1,.6,1.68,12.13,12.13,0,0,1,.31,4,4.23,4.23,0,0,1-.49,1.78c-.4.68-1,.48-1.49,0s-1.19.29-.7.7a2.06,2.06,0,0,0,2.29.55,2.77,2.77,0,0,0,1.16-1.79A9.31,9.31,0,0,0,345,494a12.09,12.09,0,0,0-.78-4c-.49-1.2-1.65-2.21-3-1.61-.58.26-.08,1.12.5.86Z"/><path d="M333.23,490.09a10,10,0,0,1-.91,3.16.51.51,0,0,0,.18.68.5.5,0,0,0,.67-.18,11.15,11.15,0,0,0,1.05-3.66.5.5,0,0,0-1,0Z"/><path d="M331,493.76c1.82.14,3.62.35,5.41.66.88.16,1.77.33,2.64.53.63.14,1.51.28,1.78,1a1.57,1.57,0,0,1-.41,1.6,2.6,2.6,0,0,1-2,.64c-1.34,0-2.76-.92-3.94.08a.46.46,0,0,0-.13.48l1.13,3c.22.6,1.17.34.95-.26l-1.13-3-.12.48c.48-.41,1.26-.15,1.8,0a6.46,6.46,0,0,0,1.9.22,3.1,3.1,0,0,0,2.8-1.79,2.22,2.22,0,0,0-1-2.89,8.36,8.36,0,0,0-2-.58c-.78-.16-1.57-.32-2.36-.45q-2.67-.45-5.39-.64c-.63,0-.63.94,0,1Z"/><path d="M273.84,485.22a21.76,21.76,0,0,0-3.47,1.5,8.66,8.66,0,0,0-2.47,1.81,3.66,3.66,0,0,0-1,2.82c.15,1.16,1.25,1.57,2.26,1.79a7.46,7.46,0,0,0,5.31-.84,6.75,6.75,0,0,0,3.22-4.12,3,3,0,0,0-.59-2.76c-.93-.92-2.16-.45-3.24-.2-.86.2-.5,1.52.36,1.32.52-.12,1.49-.62,1.95-.12a1.77,1.77,0,0,1,.18,1.51A5.44,5.44,0,0,1,274,491a6.14,6.14,0,0,1-3.83.93,5.14,5.14,0,0,1-.95-.18c-.28-.07-.79-.16-.94-.45a1.42,1.42,0,0,1,.1-.95,2.71,2.71,0,0,1,.61-1,8.46,8.46,0,0,1,2.25-1.58,19.17,19.17,0,0,1,3-1.27c.83-.28.47-1.6-.36-1.32Z"/><path class="cls-3" d="M89.81,130.6a2.81,2.81,0,0,1,2,.71,2.58,2.58,0,0,1,.76,1.95,2.71,2.71,0,0,1-.83,2,3.25,3.25,0,0,1-2.35.8,2.91,2.91,0,0,1-2.39-1,4.06,4.06,0,0,1-.83-2.65,4.9,4.9,0,0,1,.76-2.73,7.17,7.17,0,0,1,1.91-2,10.48,10.48,0,0,1,2.28-1.28l.61,1.24a7,7,0,0,0-1.55.85,5.82,5.82,0,0,0-1.28,1.24,2.36,2.36,0,0,0-.53,1.38,1.11,1.11,0,0,1,.47-.31A2.34,2.34,0,0,1,89.81,130.6Zm7.72,0a2.77,2.77,0,0,1,2,.71,2.55,2.55,0,0,1,.76,1.95,2.7,2.7,0,0,1-.82,2,3.28,3.28,0,0,1-2.35.8,2.88,2.88,0,0,1-2.39-1,4.06,4.06,0,0,1-.84-2.65,4.9,4.9,0,0,1,.76-2.73,7.31,7.31,0,0,1,1.91-2,10.54,10.54,0,0,1,2.29-1.28l.61,1.24a6.79,6.79,0,0,0-1.55.85,5.82,5.82,0,0,0-1.28,1.24,2.38,2.38,0,0,0-.54,1.38,1.11,1.11,0,0,1,.47-.31A2.39,2.39,0,0,1,97.53,130.6Z"/><path class="cls-3" d="M122.66,131.4h-8.87l1.84-2.49v26.52h-5V128.91l1.93,2.49h-8.94v-4h19Z"/><path class="cls-3" d="M127.47,155.43v-29.7h5v29.7Zm14.29,0v-11a6.47,6.47,0,0,0-1-3.85,3.86,3.86,0,0,0-3.34-1.34,5.45,5.45,0,0,0-2.68.62,4.14,4.14,0,0,0-1.7,1.72,5.21,5.21,0,0,0-.59,2.54l-1.83-1a8.35,8.35,0,0,1,1.1-4.29,7.63,7.63,0,0,1,3-2.93,9.06,9.06,0,0,1,4.44-1.07,7.13,7.13,0,0,1,5.61,2.18,8.77,8.77,0,0,1,1.93,6v12.29Z"/><path class="cls-3" d="M154.39,147V143.4h14.12l-.57.95v-.49a5.37,5.37,0,0,0-.59-2.46,4.5,4.5,0,0,0-1.79-1.86,5.8,5.8,0,0,0-3-.71,6.27,6.27,0,0,0-3.16.76,5.29,5.29,0,0,0-2.07,2.22,7.52,7.52,0,0,0-.73,3.46,8.28,8.28,0,0,0,.7,3.56,5.13,5.13,0,0,0,2.06,2.28,6.58,6.58,0,0,0,3.32.79,9.14,9.14,0,0,0,2.3-.25,4.91,4.91,0,0,0,1.58-.67,3.15,3.15,0,0,0,.93-.93,2.3,2.3,0,0,0,.38-1h5a5.68,5.68,0,0,1-.84,2.48,7.88,7.88,0,0,1-2,2.18,10.66,10.66,0,0,1-3.19,1.56,14.25,14.25,0,0,1-4.26.58,11.6,11.6,0,0,1-5.68-1.33,9.46,9.46,0,0,1-3.79-3.71,11.57,11.57,0,0,1,0-10.92,9.6,9.6,0,0,1,3.82-3.68,11.7,11.7,0,0,1,5.63-1.32,11.48,11.48,0,0,1,5.65,1.33,9.23,9.23,0,0,1,3.68,3.7,11.29,11.29,0,0,1,1.29,5.5c0,.26,0,.55,0,.85a4.16,4.16,0,0,1-.06.67Z"/><path class="cls-3" d="M98.61,208.85a11,11,0,0,1-5.94-1.67,11.6,11.6,0,0,1-4.24-4.89,17.44,17.44,0,0,1-1.58-7.8,17.22,17.22,0,0,1,1.63-7.85,11.88,11.88,0,0,1,4.42-4.93,11.65,11.65,0,0,1,6.22-1.7A11.23,11.23,0,0,1,104,181a9.43,9.43,0,0,1,3.23,2.42,9.72,9.72,0,0,1,1.8,3.12,9.23,9.23,0,0,1,.56,3v.22h-4.86v-.22a5.87,5.87,0,0,0-.34-1.94,5.15,5.15,0,0,0-1-1.73,5.09,5.09,0,0,0-1.75-1.24,6.06,6.06,0,0,0-2.43-.45,6.48,6.48,0,0,0-3.52,1,7.36,7.36,0,0,0-2.66,3.32,14.68,14.68,0,0,0-1,6,17.21,17.21,0,0,0,.57,4.75A9.11,9.11,0,0,0,94,202.41a6.08,6.08,0,0,0,2.24,1.78,6.55,6.55,0,0,0,2.67.56,7,7,0,0,0,3.17-.65,5.42,5.42,0,0,0,2-1.62,4.69,4.69,0,0,0,.9-1.9V198.4H99v-3.76h10.47v13.79h-2.89l-.42-3.11a4,4,0,0,1-.62.93,6.17,6.17,0,0,1-1.37,1.18,8.41,8.41,0,0,1-2.27,1A11.8,11.8,0,0,1,98.61,208.85Z"/><path class="cls-3" d="M125.38,208.83a11.48,11.48,0,0,1-5.62-1.34,9.71,9.71,0,0,1-3.81-3.71,10.65,10.65,0,0,1-1.38-5.44,10.48,10.48,0,0,1,1.38-5.42,9.7,9.7,0,0,1,3.81-3.68,12.54,12.54,0,0,1,11.24,0,9.64,9.64,0,0,1,3.81,3.68,10.48,10.48,0,0,1,1.38,5.42,10.65,10.65,0,0,1-1.38,5.44,9.65,9.65,0,0,1-3.81,3.71A11.48,11.48,0,0,1,125.38,208.83Zm0-4.08a5.65,5.65,0,0,0,3-.8,5.4,5.4,0,0,0,2-2.24,7.28,7.28,0,0,0,.73-3.37,7.17,7.17,0,0,0-.73-3.35,5.35,5.35,0,0,0-2-2.2,6.29,6.29,0,0,0-6,0,5.31,5.31,0,0,0-2,2.2,7.17,7.17,0,0,0-.73,3.35,7.28,7.28,0,0,0,.73,3.37,5.36,5.36,0,0,0,2,2.24A5.66,5.66,0,0,0,125.38,204.75Z"/><path class="cls-3" d="M158.31,188.25,152,208.43h-6.71l-6.48-20.18H144L149,206.68h-.79l4.9-18.43Z"/><path class="cls-3" d="M163.42,200V196.4h14.11l-.56.95v-.49a5.37,5.37,0,0,0-.59-2.46,4.57,4.57,0,0,0-1.79-1.86,5.82,5.82,0,0,0-3-.71,6.24,6.24,0,0,0-3.16.76,5.17,5.17,0,0,0-2.07,2.22,7.52,7.52,0,0,0-.74,3.46,8.28,8.28,0,0,0,.71,3.56,5.08,5.08,0,0,0,2.06,2.28,6.54,6.54,0,0,0,3.31.79,9.09,9.09,0,0,0,2.3-.25,4.88,4.88,0,0,0,1.59-.67,3.42,3.42,0,0,0,.93-.93,2.28,2.28,0,0,0,.37-1h5a5.83,5.83,0,0,1-.85,2.48,7.59,7.59,0,0,1-2,2.18,10.49,10.49,0,0,1-3.18,1.56,14.32,14.32,0,0,1-4.27.58,11.63,11.63,0,0,1-5.68-1.33,9.59,9.59,0,0,1-3.79-3.71,10.78,10.78,0,0,1-1.36-5.43,10.66,10.66,0,0,1,1.38-5.49,9.69,9.69,0,0,1,3.83-3.68,11.66,11.66,0,0,1,5.62-1.32,11.52,11.52,0,0,1,5.66,1.33,9.2,9.2,0,0,1,3.67,3.7,11.29,11.29,0,0,1,1.29,5.5c0,.26,0,.55,0,.85s0,.53-.06.67Z"/><path class="cls-3" d="M187.19,208.43V188.25h5V195l-1.15-.65a9.42,9.42,0,0,1,.7-2.48,7,7,0,0,1,1.37-2.05,5.94,5.94,0,0,1,2.07-1.37,7.28,7.28,0,0,1,2.77-.5,8.38,8.38,0,0,1,1.95.18,3.4,3.4,0,0,1,.88.3l-.91,4.58a3.79,3.79,0,0,0-.77-.34,5,5,0,0,0-1.55-.2A5.65,5.65,0,0,0,195,193a4.27,4.27,0,0,0-1.65,1.4,6.18,6.18,0,0,0-.87,1.94,8.4,8.4,0,0,0-.27,2.1v10Z"/><path class="cls-3" d="M204.88,208.43V188.25h5v20.18Zm14.27,0V197.09a7.56,7.56,0,0,0-.39-2.46,3.41,3.41,0,0,0-1.33-1.72,5.34,5.34,0,0,0-5.16.07,4.79,4.79,0,0,0-1.76,1.89,5.86,5.86,0,0,0-.64,2.79l-1.69-1a8.8,8.8,0,0,1,1.15-4.49,8.4,8.4,0,0,1,7.38-4.21,8.21,8.21,0,0,1,4.1,1,6.08,6.08,0,0,1,2.51,2.7,9.38,9.38,0,0,1,.84,4.1v12.77Z"/><path class="cls-3" d="M229.92,208.43V188.25h5v20.18Zm12.54,0V196.86a12.07,12.07,0,0,0-.1-1.55,4.58,4.58,0,0,0-.42-1.49,2.52,2.52,0,0,0-1-1.11,3.41,3.41,0,0,0-1.86-.43,3.69,3.69,0,0,0-1.92.47,3.92,3.92,0,0,0-1.3,1.23,5.49,5.49,0,0,0-.73,1.75,8.89,8.89,0,0,0-.23,2l-1.67-1.12a10.19,10.19,0,0,1,.93-4.44,7.6,7.6,0,0,1,2.65-3.11,7.16,7.16,0,0,1,4.08-1.15,6.52,6.52,0,0,1,3.86,1,5.58,5.58,0,0,1,2,2.74,11.57,11.57,0,0,1,.62,3.88v12.88Zm12.46,0V196.82a14.44,14.44,0,0,0-.09-1.6,4.83,4.83,0,0,0-.42-1.47,2.57,2.57,0,0,0-1-1.06,3.64,3.64,0,0,0-1.86-.41,3.8,3.8,0,0,0-1.95.46,3.57,3.57,0,0,0-1.26,1.21,5.65,5.65,0,0,0-.7,1.71,8.85,8.85,0,0,0-.21,1.9l-1.68-1.1a10.05,10.05,0,0,1,.92-4.35,7.33,7.33,0,0,1,2.62-3.07,7.21,7.21,0,0,1,4.06-1.13,6.7,6.7,0,0,1,3.82,1,5.52,5.52,0,0,1,2.1,2.65,10.43,10.43,0,0,1,.66,3.83v13.07Z"/><path class="cls-3" d="M267.56,200V196.4h14.11l-.57.95v-.49a5.25,5.25,0,0,0-.59-2.46,4.48,4.48,0,0,0-1.78-1.86,5.82,5.82,0,0,0-3-.71,6.3,6.3,0,0,0-3.17.76,5.29,5.29,0,0,0-2.07,2.22,7.52,7.52,0,0,0-.73,3.46,8.43,8.43,0,0,0,.7,3.56,5.1,5.1,0,0,0,2.07,2.28,6.54,6.54,0,0,0,3.31.79,9.14,9.14,0,0,0,2.3-.25,4.88,4.88,0,0,0,1.59-.67,3.42,3.42,0,0,0,.93-.93,2.28,2.28,0,0,0,.37-1h5a5.83,5.83,0,0,1-.85,2.48,7.88,7.88,0,0,1-2,2.18,10.72,10.72,0,0,1-3.18,1.56,14.32,14.32,0,0,1-4.27.58,11.6,11.6,0,0,1-5.68-1.33,9.53,9.53,0,0,1-3.79-3.71,11.57,11.57,0,0,1,0-10.92,9.62,9.62,0,0,1,3.83-3.68,11.63,11.63,0,0,1,5.62-1.32,11.48,11.48,0,0,1,5.65,1.33,9.23,9.23,0,0,1,3.68,3.7,11.29,11.29,0,0,1,1.29,5.5c0,.26,0,.55,0,.85a6.42,6.42,0,0,1-.05.67Z"/><path class="cls-3" d="M291.32,208.43V188.25h5v20.18Zm14.27,0V197.09a7.3,7.3,0,0,0-.39-2.46,3.36,3.36,0,0,0-1.33-1.72,4.59,4.59,0,0,0-2.59-.63,4.68,4.68,0,0,0-2.56.7,4.79,4.79,0,0,0-1.76,1.89,5.86,5.86,0,0,0-.64,2.79l-1.69-1a8.7,8.7,0,0,1,1.15-4.49,8.4,8.4,0,0,1,7.38-4.21,8.21,8.21,0,0,1,4.1,1,6.06,6.06,0,0,1,2.5,2.7,9.24,9.24,0,0,1,.85,4.1v12.77Z"/><path class="cls-3" d="M325.14,208.81a12,12,0,0,1-2.2-.21,6,6,0,0,1-2.05-.78,4.08,4.08,0,0,1-1.5-1.67,6.33,6.33,0,0,1-.57-2.91v-11h-4.77v-4H316a10.71,10.71,0,0,0,1.55-.08,1.29,1.29,0,0,0,.84-.41,2,2,0,0,0,.35-1,15.81,15.81,0,0,0,.09-1.93V181.6h5v6.65h6v4h-6v9.48a6.42,6.42,0,0,0,.34,2.27c.23.57.77.85,1.62.85a6,6,0,0,0,1.15-.11,5.84,5.84,0,0,0,.81-.23v3.91a7,7,0,0,1-1.05.27A8,8,0,0,1,325.14,208.81Z"/><path class="cls-3" d="M95.82,261.85a14.08,14.08,0,0,1-3.43-.4,9.51,9.51,0,0,1-2.89-1.2,6.2,6.2,0,0,1-2-2,5.2,5.2,0,0,1-.73-2.75v-.43h5v.34a2,2,0,0,0,1.13,1.85,6.48,6.48,0,0,0,3.09.62,8.5,8.5,0,0,0,2-.23,3.76,3.76,0,0,0,1.52-.7,1.51,1.51,0,0,0,.58-1.22A1.76,1.76,0,0,0,98.85,254a18.42,18.42,0,0,0-3.85-.93,23.56,23.56,0,0,1-2.85-.67,10.4,10.4,0,0,1-2.56-1.12,5.8,5.8,0,0,1-1.84-1.74,4.54,4.54,0,0,1-.69-2.55,4.9,4.9,0,0,1,1.18-3.35,7.42,7.42,0,0,1,3.2-2.07,13.46,13.46,0,0,1,4.41-.7,12,12,0,0,1,4.32.76,7.88,7.88,0,0,1,3.22,2.19,5.12,5.12,0,0,1,1.22,3.44v.3H99.67v-.25a1.9,1.9,0,0,0-.55-1.42,3.37,3.37,0,0,0-1.42-.82,6.27,6.27,0,0,0-1.85-.27,9.1,9.1,0,0,0-1.76.19,3.69,3.69,0,0,0-1.52.62A1.45,1.45,0,0,0,92,246.9a1.47,1.47,0,0,0,.63,1.23,5.14,5.14,0,0,0,1.74.79,23.94,23.94,0,0,0,2.59.56,24.38,24.38,0,0,1,2.8.63,11.53,11.53,0,0,1,2.59,1.06,5.52,5.52,0,0,1,1.91,1.74,4.59,4.59,0,0,1,.73,2.65,5.2,5.2,0,0,1-.75,2.85,6.16,6.16,0,0,1-2.07,1.95,9.88,9.88,0,0,1-2.93,1.13A15.7,15.7,0,0,1,95.82,261.85Z"/><path class="cls-3" d="M110,261.43v-29.7h5v29.7Zm14.29,0v-11a6.47,6.47,0,0,0-1-3.85,3.87,3.87,0,0,0-3.34-1.34,5.51,5.51,0,0,0-2.69.62,4.2,4.2,0,0,0-1.7,1.72,5.32,5.32,0,0,0-.58,2.54l-1.83-1a8.44,8.44,0,0,1,1.09-4.29,7.76,7.76,0,0,1,3-2.93,9.13,9.13,0,0,1,4.45-1.07,7.11,7.11,0,0,1,5.6,2.18,8.73,8.73,0,0,1,1.94,6v12.29Z"/><path class="cls-3" d="M145,261.83a11.52,11.52,0,0,1-5.63-1.34,9.78,9.78,0,0,1-3.81-3.71,10.65,10.65,0,0,1-1.37-5.44,10.47,10.47,0,0,1,1.37-5.42,9.77,9.77,0,0,1,3.81-3.68,12.56,12.56,0,0,1,11.25,0,9.77,9.77,0,0,1,3.81,3.68,10.48,10.48,0,0,1,1.38,5.42,10.65,10.65,0,0,1-1.38,5.44,9.78,9.78,0,0,1-3.81,3.71A11.5,11.5,0,0,1,145,261.83Zm0-4.08a5.65,5.65,0,0,0,3-.8,5.4,5.4,0,0,0,2-2.24,7.41,7.41,0,0,0,.72-3.37A7.29,7.29,0,0,0,150,248a5.35,5.35,0,0,0-2-2.2,6.31,6.31,0,0,0-6,0,5.38,5.38,0,0,0-2,2.2,7.29,7.29,0,0,0-.72,3.35,7.41,7.41,0,0,0,.72,3.37,5.42,5.42,0,0,0,2,2.24A5.7,5.7,0,0,0,145,257.75Z"/><path class="cls-3" d="M168.15,261.81a7.81,7.81,0,0,1-3.56-.72,5.79,5.79,0,0,1-2.23-1.9,7.59,7.59,0,0,1-1.14-2.6,12.6,12.6,0,0,1-.33-2.85V241.25h5v11.19a9,9,0,0,0,.32,2.5,3.52,3.52,0,0,0,1.19,1.86,3.81,3.81,0,0,0,2.44.7,4,4,0,0,0,2.58-.88,6,6,0,0,0,1.68-2.24,6.67,6.67,0,0,0,.6-2.73l1.71,1.14a10.34,10.34,0,0,1-.57,3.46,8.73,8.73,0,0,1-1.65,2.88,7.7,7.7,0,0,1-2.61,2A8.15,8.15,0,0,1,168.15,261.81Zm6.57-.38V241.25h5v20.18Z"/><path class="cls-3" d="M190.7,231.73v29.7h-4.92v-29.7Z"/><path class="cls-3" d="M205.14,261.85a9.13,9.13,0,0,1-4.61-1.21,8.77,8.77,0,0,1-3.39-3.56,12,12,0,0,1-1.27-5.79,11.43,11.43,0,0,1,1.3-5.67,9,9,0,0,1,8-4.71,8.59,8.59,0,0,1,4.39,1.17,8.88,8.88,0,0,1,3.23,3.24,9.2,9.2,0,0,1,1.22,4.75v.3l-2.47.06v-.25a4.6,4.6,0,0,0-.75-2.62,5.46,5.46,0,0,0-1.94-1.76,5.29,5.29,0,0,0-2.52-.63,5.17,5.17,0,0,0-3.72,1.47q-1.54,1.47-1.54,4.65a6.22,6.22,0,0,0,1.54,4.65,5.12,5.12,0,0,0,3.72,1.5,5.2,5.2,0,0,0,2.57-.66,5.31,5.31,0,0,0,1.9-1.84,4.94,4.94,0,0,0,.74-2.69l2.47.12a9.87,9.87,0,0,1-1.19,4.82,9.24,9.24,0,0,1-3.18,3.41A8.27,8.27,0,0,1,205.14,261.85Zm6.37-.42v-29.7h5v29.7Z"/><path class="cls-3" d="M96.94,314.81a12.05,12.05,0,0,1-2.21-.21,6.06,6.06,0,0,1-2-.78,4.08,4.08,0,0,1-1.5-1.67,6.33,6.33,0,0,1-.57-2.91v-11H85.84v-4h1.94a10.77,10.77,0,0,0,1.56-.08,1.24,1.24,0,0,0,.83-.41,2,2,0,0,0,.36-1,18.68,18.68,0,0,0,.08-1.93V287.6h5v6.65h6v4h-6v9.48A6.2,6.2,0,0,0,96,310c.23.57.76.85,1.61.85a6,6,0,0,0,1.15-.11,5.84,5.84,0,0,0,.81-.23v3.91a7,7,0,0,1-1.05.27A8,8,0,0,1,96.94,314.81Z"/><path class="cls-3" d="M112.71,314.85a10.34,10.34,0,0,1-4-.71,6.09,6.09,0,0,1-2.68-2.06,5.41,5.41,0,0,1-1-3.25,5.07,5.07,0,0,1,1.13-3.41,7.24,7.24,0,0,1,3-2.08,16.24,16.24,0,0,1,4.25-.94,43.4,43.4,0,0,0,4.84-.65q1.38-.31,1.38-1v0a2.27,2.27,0,0,0-1.2-2.05,6.58,6.58,0,0,0-3.38-.72,6.42,6.42,0,0,0-3.53.81,2.85,2.85,0,0,0-1.22,2.55h-4.94a6.38,6.38,0,0,1,1.26-4,7.78,7.78,0,0,1,3.47-2.5,13.72,13.72,0,0,1,5-.86,14,14,0,0,1,4.77.78,7.79,7.79,0,0,1,3.47,2.36,5.9,5.9,0,0,1,1.31,3.93v9.2c0,.48,0,.95,0,1.41a6.41,6.41,0,0,0,.2,1.25,4.4,4.4,0,0,0,.46,1,3.28,3.28,0,0,0,.41.57h-4.94a3.88,3.88,0,0,1-.37-.52,5.39,5.39,0,0,1-.42-.9,6.51,6.51,0,0,1-.29-1.23,10.74,10.74,0,0,1-.09-1.45l1,.68a5.72,5.72,0,0,1-1.73,2,8.81,8.81,0,0,1-2.79,1.33A12.26,12.26,0,0,1,112.71,314.85Zm1.21-3.93a7.62,7.62,0,0,0,2.89-.54,4.82,4.82,0,0,0,2.15-1.64,4.73,4.73,0,0,0,.82-2.86v-2.7l1.21,1.37a15.43,15.43,0,0,1-2.92.75c-1.14.2-2.3.35-3.46.47a9.76,9.76,0,0,0-3.37.78,1.93,1.93,0,0,0-1.14,1.86,2.12,2.12,0,0,0,1,1.88A5.27,5.27,0,0,0,113.92,310.92Z"/><path class="cls-3" d="M137,303.43l0,2.28-8.23-11.46h5.47l6.2,9-3,0,6.08-9h5.35L141,305.06l-.13-2.09L149,314.43h-5.47l-6.29-9,3.38-.3-6.78,9.27h-5.36Z"/><path class="cls-3" d="M172.86,314.81a11.87,11.87,0,0,1-2.2-.21,6.11,6.11,0,0,1-2.06-.78,4.08,4.08,0,0,1-1.5-1.67,6.33,6.33,0,0,1-.57-2.91v-11h-4.77v-4h1.94a10.77,10.77,0,0,0,1.56-.08,1.29,1.29,0,0,0,.84-.41,2.09,2.09,0,0,0,.35-1,18.68,18.68,0,0,0,.08-1.93V287.6h5v6.65h6v4h-6v9.48a6.2,6.2,0,0,0,.34,2.27c.23.57.77.85,1.62.85a6.15,6.15,0,0,0,1.15-.11,5.24,5.24,0,0,0,.8-.23v3.91a7.16,7.16,0,0,1-1,.27A8.19,8.19,0,0,1,172.86,314.81Z"/><path class="cls-3" d="M182.27,314.43v-29.7h5v29.7Zm14.28,0v-11a6.4,6.4,0,0,0-1-3.85,3.85,3.85,0,0,0-3.33-1.34,5.49,5.49,0,0,0-2.69.62,4.14,4.14,0,0,0-1.7,1.72,5.32,5.32,0,0,0-.59,2.54l-1.82-1a8.35,8.35,0,0,1,1.09-4.29,7.76,7.76,0,0,1,3-2.93,9.1,9.1,0,0,1,4.45-1.07,7.11,7.11,0,0,1,5.6,2.18,8.78,8.78,0,0,1,1.94,6.05v12.29Z"/><path class="cls-3" d="M209.19,306V302.4H223.3l-.57,1v-.49a5.37,5.37,0,0,0-.58-2.46,4.57,4.57,0,0,0-1.79-1.86,5.82,5.82,0,0,0-3-.71,6.24,6.24,0,0,0-3.16.76,5.25,5.25,0,0,0-2.08,2.22,7.65,7.65,0,0,0-.73,3.46,8.28,8.28,0,0,0,.71,3.56,5,5,0,0,0,2.06,2.28,6.54,6.54,0,0,0,3.31.79,9.09,9.09,0,0,0,2.3-.25,4.88,4.88,0,0,0,1.59-.67,3.42,3.42,0,0,0,.93-.93,2.28,2.28,0,0,0,.37-1h5a5.83,5.83,0,0,1-.85,2.48,7.88,7.88,0,0,1-2,2.18,10.49,10.49,0,0,1-3.18,1.56,14.32,14.32,0,0,1-4.27.58,11.63,11.63,0,0,1-5.68-1.33,9.59,9.59,0,0,1-3.79-3.71,11.57,11.57,0,0,1,0-10.92,9.62,9.62,0,0,1,3.83-3.68,11.66,11.66,0,0,1,5.62-1.32,11.48,11.48,0,0,1,5.65,1.33,9.23,9.23,0,0,1,3.68,3.7,11.29,11.29,0,0,1,1.29,5.5c0,.26,0,.55,0,.85a6.42,6.42,0,0,1-.05.67Z"/><path class="cls-3" d="M87.66,367.43V347.25h5V354l-1.16-.65a9.43,9.43,0,0,1,.71-2.48,7,7,0,0,1,1.36-2.05,5.89,5.89,0,0,1,2.08-1.37,7.28,7.28,0,0,1,2.77-.5,8.38,8.38,0,0,1,2,.18,3.4,3.4,0,0,1,.88.3l-.91,4.58a4.08,4.08,0,0,0-.77-.34,5,5,0,0,0-1.55-.2,5.63,5.63,0,0,0-2.57.53,4.27,4.27,0,0,0-1.65,1.4,6.18,6.18,0,0,0-.87,1.94,8.4,8.4,0,0,0-.27,2.1v10Z"/><path class="cls-3" d="M107.75,343.53a3.49,3.49,0,0,1-2.12-.66,2.12,2.12,0,0,1-.9-1.83,2.09,2.09,0,0,1,.9-1.8,3.49,3.49,0,0,1,2.12-.65,3.42,3.42,0,0,1,2.09.65,2.1,2.1,0,0,1,.89,1.8,2.13,2.13,0,0,1-.89,1.83A3.43,3.43,0,0,1,107.75,343.53Zm-2.49,23.9V347.25h4.94v20.18Z"/><path class="cls-3" d="M126.06,367.85a11.83,11.83,0,0,1-5.64-1.31,9.67,9.67,0,0,1-3.84-3.69,10.87,10.87,0,0,1-1.38-5.56,10.61,10.61,0,0,1,1.38-5.51,9.48,9.48,0,0,1,3.84-3.61,12.17,12.17,0,0,1,5.64-1.26,12,12,0,0,1,4.24.7,9.61,9.61,0,0,1,3.11,1.88,8.6,8.6,0,0,1,1.93,2.56,6.47,6.47,0,0,1,.66,2.78V355h-5a1.49,1.49,0,0,0,0-.21l0-.23a3.77,3.77,0,0,0-.77-1.76,4.54,4.54,0,0,0-1.68-1.26,6.53,6.53,0,0,0-5.4.22,5,5,0,0,0-2.07,2.08,7,7,0,0,0-.77,3.46,7.3,7.3,0,0,0,.76,3.48,5.26,5.26,0,0,0,2.06,2.19,5.7,5.7,0,0,0,2.9.75,6.44,6.44,0,0,0,2.76-.52,3.84,3.84,0,0,0,1.63-1.41,4.23,4.23,0,0,0,.62-1.93h5a6.74,6.74,0,0,1-.65,2.82,8.2,8.2,0,0,1-1.9,2.6,9.35,9.35,0,0,1-3.1,1.88A12.06,12.06,0,0,1,126.06,367.85Z"/><path class="cls-3" d="M141.07,367.43v-29.7h5v29.7Zm14.29,0v-11a6.47,6.47,0,0,0-1-3.85,3.85,3.85,0,0,0-3.33-1.34,5.49,5.49,0,0,0-2.69.62,4.14,4.14,0,0,0-1.7,1.72,5.32,5.32,0,0,0-.59,2.54l-1.82-1a8.35,8.35,0,0,1,1.09-4.29,7.76,7.76,0,0,1,3-2.93,9.07,9.07,0,0,1,4.45-1.07,7.11,7.11,0,0,1,5.6,2.18,8.78,8.78,0,0,1,1.94,6.05v12.29Z"/><path class="cls-3" d="M168.6,368a2.8,2.8,0,1,1,2-.81A2.72,2.72,0,0,1,168.6,368Zm2.47-28.52L170.12,360h-3.05l-1-20.56Z"/><path class="cls-3" d="M179.6,344.19a2.74,2.74,0,0,1-2-.72,2.55,2.55,0,0,1-.75-1.94,2.71,2.71,0,0,1,.83-2,3.2,3.2,0,0,1,2.34-.81,2.9,2.9,0,0,1,2.39,1,4.15,4.15,0,0,1,.82,2.67,5,5,0,0,1-.75,2.73,7.13,7.13,0,0,1-1.9,2,10.21,10.21,0,0,1-2.31,1.28l-.59-1.23a7.53,7.53,0,0,0,1.56-.87,5.69,5.69,0,0,0,1.27-1.22,2.47,2.47,0,0,0,.52-1.39,1.17,1.17,0,0,1-.46.3A2.16,2.16,0,0,1,179.6,344.19Zm7.72,0a2.75,2.75,0,0,1-2-.72,2.55,2.55,0,0,1-.75-1.94,2.74,2.74,0,0,1,.83-2,3.19,3.19,0,0,1,2.33-.81,2.89,2.89,0,0,1,2.4,1,4.15,4.15,0,0,1,.83,2.67,5,5,0,0,1-.76,2.73,7.42,7.42,0,0,1-1.9,2,10.37,10.37,0,0,1-2.3,1.28l-.59-1.23a8.24,8.24,0,0,0,1.54-.87,5.91,5.91,0,0,0,1.27-1.22,2.42,2.42,0,0,0,.53-1.39,1.17,1.17,0,0,1-.46.3A2.2,2.2,0,0,1,187.32,344.19Z"/><text class="cls-6" transform="translate(85.42 608.79)">PROBLEM</text><line class="cls-7" x1="91.96" y1="621.27" x2="86.69" y2="619.01"/><line class="cls-7" x1="94.81" y1="617.76" x2="91.96" y2="613.74"/><line class="cls-7" x1="92.07" y1="625.49" x2="86.58" y2="626.67"/><circle class="cls-8" cx="105.16" cy="626.91" r="10.35"/><path class="cls-3" d="M115.23,628.57l-.23-.75-.75.22-.22-.75-1.51.45-.22-.75-2.26.67-.22-.75-1.51.45-.9-3-.75.23-.23-.75-1.5.45.23.75-.76.22,2,6.77-.75.23-.23-.75-2.25.67.22.75.11.38.34,1.13.75-.23.23.75.75-.22.45,1.5.75-.22.45,1.5.76-.22.45,1.5.75-.22.45,1.5.22.75,6.77-2,.75-.22-.67-2.26.75-.22-.67-2.26.75-.22L116,628.34Z"/><rect x="105.74" y="624.94" width="0.78" height="9.42" transform="translate(-176.17 56.91) rotate(-16.67)"/><rect x="105.01" y="624.04" width="1.57" height="0.78" transform="translate(-174.69 56.6) rotate(-16.67)"/><rect x="107.66" y="624.32" width="0.78" height="7.06" transform="translate(-175.58 57.39) rotate(-16.67)"/><rect x="108.39" y="627.12" width="1.57" height="0.78" transform="translate(-175.43 57.7) rotate(-16.67)"/><rect x="110.59" y="628.25" width="0.79" height="2.35" transform="translate(-175.91 58.29) rotate(-16.67)"/><rect x="110.1" y="627.31" width="2.35" height="0.78" transform="translate(-175.4 58.31) rotate(-16.67)"/><rect x="113.07" y="628.33" width="0.78" height="2.35" transform="translate(-175.82 59.01) rotate(-16.67)"/><rect x="112.6" y="627.5" width="1.57" height="0.78" transform="translate(-175.36 58.92) rotate(-16.67)"/><rect x="114.35" y="627.91" width="0.79" height="0.79" transform="translate(-175.42 59.33) rotate(-16.67)"/><rect x="116" y="628.34" width="0.78" height="5.49" transform="translate(-176.15 59.92) rotate(-16.67)"/><rect x="116.37" y="633.9" width="0.79" height="2.35" transform="translate(-177.28 60.19) rotate(-16.67)"/><rect x="116.3" y="636.38" width="0.78" height="2.35" transform="translate(-178 60.27) rotate(-16.67)"/><rect x="109.62" y="639.04" width="7.06" height="0.78" transform="translate(-178.68 59.34) rotate(-16.67)"/><rect x="105.77" y="632.12" width="0.78" height="0.78" transform="matrix(0.96, -0.29, 0.29, 0.96, -176.99, 57.04)"/><rect x="103.26" y="631.82" width="2.35" height="0.78" transform="translate(-176.98 56.53) rotate(-16.67)"/><rect x="103.63" y="632.78" width="0.79" height="1.57" transform="translate(-177.38 56.47) rotate(-16.67)"/><rect x="104.72" y="634.07" width="0.78" height="0.78" transform="translate(-177.6 56.82) rotate(-16.67)"/><rect x="105.81" y="634.58" width="0.78" height="1.57" transform="matrix(0.96, -0.29, 0.29, 0.96, -177.81, 57.17)"/><rect x="107.01" y="635.86" width="0.78" height="1.57" transform="matrix(0.96, -0.29, 0.29, 0.96, -178.13, 57.57)"/><rect x="108.22" y="637.14" width="0.78" height="1.57" transform="translate(-178.44 57.97) rotate(-16.67)"/><rect x="109.42" y="638.42" width="0.79" height="1.57" transform="translate(-178.76 58.37) rotate(-16.67)"/><path class="cls-3" d="M86.66,608.79H86v-5.9h1.66a2.28,2.28,0,0,1,1.13.25,1.71,1.71,0,0,1,.68.68,2.05,2.05,0,0,1,.22,1,2,2,0,0,1-.23,1,1.74,1.74,0,0,1-.68.72,2.16,2.16,0,0,1-1.12.27h-1Zm0-2.31-.3-.35h1.19a1.72,1.72,0,0,0,.8-.17,1.17,1.17,0,0,0,.48-.48,1.57,1.57,0,0,0,.15-.7,1.48,1.48,0,0,0-.15-.7,1,1,0,0,0-.46-.44,2,2,0,0,0-.82-.15H86.36l.3-.39Z"/><path class="cls-3" d="M91.38,608.79v-5.9h2.05a1.74,1.74,0,0,1,1.23.38,1.49,1.49,0,0,1,.43,1.17,1.61,1.61,0,0,1-.18.8,1.46,1.46,0,0,1-.43.51A1,1,0,0,1,94,606a1.16,1.16,0,0,1,.43.12.94.94,0,0,1,.35.31,1,1,0,0,1,.14.57v1.34a2.69,2.69,0,0,0,0,.31.39.39,0,0,0,.07.18h-.69a.93.93,0,0,1-.06-.18,2.69,2.69,0,0,1,0-.31V607a.7.7,0,0,0-.25-.58,1.12,1.12,0,0,0-.7-.19H91.86l.19-.26v2.78Zm.67-2.84-.19-.28h1.46a1,1,0,0,0,.53-.15,1,1,0,0,0,.39-.41,1.2,1.2,0,0,0,.15-.61.94.94,0,0,0-.29-.78,1.26,1.26,0,0,0-.83-.23H91.84l.21-.3Z"/><path class="cls-3" d="M99.14,608.87a2.17,2.17,0,0,1-1-.21,2.08,2.08,0,0,1-.74-.59,2.73,2.73,0,0,1-.5-1,4.9,4.9,0,0,1,0-2.56,2.68,2.68,0,0,1,.5-.95,2.14,2.14,0,0,1,.75-.59,2.23,2.23,0,0,1,.94-.19,2.3,2.3,0,0,1,1,.19,2.14,2.14,0,0,1,.75.59,2.84,2.84,0,0,1,.49.95,4.9,4.9,0,0,1,0,2.56,2.89,2.89,0,0,1-.49,1,2,2,0,0,1-.75.59A2.17,2.17,0,0,1,99.14,608.87Zm0-.62A1.45,1.45,0,0,0,100,608a1.72,1.72,0,0,0,.59-.8,3.75,3.75,0,0,0,.21-1.35,3.44,3.44,0,0,0-.22-1.34,1.58,1.58,0,0,0-.59-.79,1.41,1.41,0,0,0-.86-.26,1.43,1.43,0,0,0-.86.26,1.64,1.64,0,0,0-.59.79,3.44,3.44,0,0,0-.22,1.34,3.53,3.53,0,0,0,.22,1.35,1.75,1.75,0,0,0,.59.81A1.5,1.5,0,0,0,99.14,608.25Z"/><path class="cls-3" d="M105.23,602.89a2.52,2.52,0,0,1,.93.15,1.19,1.19,0,0,1,.59.46,1.47,1.47,0,0,1,.2.79,1.38,1.38,0,0,1-.19.76,1.25,1.25,0,0,1-.47.47,1.51,1.51,0,0,1-.61.17,1.87,1.87,0,0,1,.66.15,1.26,1.26,0,0,1,.53.47,1.49,1.49,0,0,1,.21.84,1.78,1.78,0,0,1-.21.89,1.29,1.29,0,0,1-.62.55,2.49,2.49,0,0,1-1,.2h-1.93v-5.9Zm-1.3,2.76-.23-.24h1.21a1.7,1.7,0,0,0,1-.25,1,1,0,0,0,.21-1.3.86.86,0,0,0-.42-.29,2.35,2.35,0,0,0-.63-.08h-1.45l.31-.39Zm1.14,2.54a1.56,1.56,0,0,0,1-.27,1,1,0,0,0,.35-.8,1.08,1.08,0,0,0-.12-.54.92.92,0,0,0-.31-.34,1.33,1.33,0,0,0-.46-.17A2.35,2.35,0,0,0,105,606H103.7l.23-.23v2.79l-.31-.38Z"/><path class="cls-3" d="M108.93,608.79v-5.9h.68v5.68l-.31-.38h2.64v.6Z"/><path class="cls-3" d="M114,603.49l.31-.39v2.66l-.17-.23h2.26v.6h-2.26l.17-.24v2.68l-.31-.38h2.85v.6h-3.23v-5.9h3.23v.6Z"/><path class="cls-3" d="M122.94,602.89h1.18v5.9h-.65v-5.36h0l-1.5,5.35h-1l-1.51-5.35h0v5.36h-.65v-5.9h1.18l1.45,5.35h0Z"/><path class="cls-3" d="M140.59,626.36A3.29,3.29,0,0,1,139,626a2.71,2.71,0,0,1-1.09-1.06,3.14,3.14,0,0,1-.4-1.62,3,3,0,0,1,.4-1.6,2.73,2.73,0,0,1,1.09-1,3.4,3.4,0,0,1,1.58-.36,3.32,3.32,0,0,1,1.18.2,2.6,2.6,0,0,1,.87.53,2.38,2.38,0,0,1,.55.73,1.91,1.91,0,0,1,.19.79v0h-1.19v-.13a1.14,1.14,0,0,0-.26-.58,1.43,1.43,0,0,0-.55-.4,1.92,1.92,0,0,0-.79-.15,1.9,1.9,0,0,0-.92.22,1.63,1.63,0,0,0-.68.65,2.18,2.18,0,0,0-.25,1.1,2.22,2.22,0,0,0,.25,1.11,1.69,1.69,0,0,0,.67.68,2.18,2.18,0,0,0,1.82.06,1.21,1.21,0,0,0,.52-.45,1.23,1.23,0,0,0,.2-.61h1.19a1.84,1.84,0,0,1-.19.8,2.17,2.17,0,0,1-.53.73,2.51,2.51,0,0,1-.87.53A3.43,3.43,0,0,1,140.59,626.36Z"/><path class="cls-3" d="M146.18,617.65v8.59H145v-8.59Z"/><path class="cls-3" d="M148.6,619.19a.88.88,0,0,1-.53-.16.56.56,0,0,1-.22-.47.54.54,0,0,1,.22-.46.91.91,0,0,1,1.06,0,.57.57,0,0,1,.22.46.59.59,0,0,1-.22.47A.88.88,0,0,1,148.6,619.19Zm-.59,7V620.4h1.17v5.84Z"/><path class="cls-3" d="M153.82,626.36a3.29,3.29,0,0,1-1.58-.37,2.78,2.78,0,0,1-1.09-1.06,3.14,3.14,0,0,1-.4-1.62,3,3,0,0,1,.4-1.6,2.79,2.79,0,0,1,1.09-1,3.4,3.4,0,0,1,1.58-.36,3.32,3.32,0,0,1,1.18.2,2.65,2.65,0,0,1,.88.53,2.2,2.2,0,0,1,.54.73,1.76,1.76,0,0,1,.19.79v0h-1.18s0,0,0-.07v-.06a1.12,1.12,0,0,0-.25-.58,1.51,1.51,0,0,0-.55-.4,2,2,0,0,0-.8-.15,1.92,1.92,0,0,0-.92.22,1.63,1.63,0,0,0-.68.65,2.29,2.29,0,0,0-.25,1.1,2.22,2.22,0,0,0,.25,1.11,1.69,1.69,0,0,0,.67.68,2.18,2.18,0,0,0,1.82.06,1.16,1.16,0,0,0,.52-.45,1.35,1.35,0,0,0,.21-.61h1.18a2,2,0,0,1-.18.8,2.2,2.2,0,0,1-.54.73,2.51,2.51,0,0,1-.87.53A3.39,3.39,0,0,1,153.82,626.36Z"/><path class="cls-3" d="M158.15,626.24v-8.59h1.13v5.15l-.29-.14,2.61-2.26h1.5l-2.83,2.51.29-.54,2.54,3.87h-1.27L159.78,623l.27.08-.92.81.15-.54v2.87Z"/><path class="cls-3" d="M170,626.34a2.9,2.9,0,0,1-1.51-.39,2.77,2.77,0,0,1-1-1.08,3.2,3.2,0,0,1-.37-1.55,3.14,3.14,0,0,1,.37-1.55,2.79,2.79,0,0,1,1-1.06,3.21,3.21,0,0,1,3,0,2.79,2.79,0,0,1,1,1.06,3.26,3.26,0,0,1,.37,1.55,3.32,3.32,0,0,1-.37,1.55,2.77,2.77,0,0,1-1,1.08A2.91,2.91,0,0,1,170,626.34Zm0-.62a2.13,2.13,0,0,0,2-1.16,2.63,2.63,0,0,0,.28-1.24,2.61,2.61,0,0,0-.28-1.24,2.11,2.11,0,0,0-.79-.83,2.41,2.41,0,0,0-2.33,0,2.11,2.11,0,0,0-.79.83,2.61,2.61,0,0,0-.29,1.24,2.64,2.64,0,0,0,.29,1.24,2.13,2.13,0,0,0,2,1.16Z"/><path class="cls-3" d="M174.78,626.24V620.4h.68v5.84Zm4.2,0V622.6a1.94,1.94,0,0,0-.18-.86,1.27,1.27,0,0,0-.53-.57,1.75,1.75,0,0,0-.91-.21,1.85,1.85,0,0,0-.93.25,2,2,0,0,0-.71.66,1.77,1.77,0,0,0-.26.94l-.42-.15a2.13,2.13,0,0,1,.35-1.19,2.42,2.42,0,0,1,.9-.84,2.38,2.38,0,0,1,1.19-.31,2.47,2.47,0,0,1,1.15.25,1.82,1.82,0,0,1,.76.72,2.37,2.37,0,0,1,.26,1.14v3.81Z"/><path class="cls-3" d="M185.05,618.93a.59.59,0,0,1-.37-.12.43.43,0,0,1-.15-.34.39.39,0,0,1,.15-.32.54.54,0,0,1,.37-.13.52.52,0,0,1,.36.13.4.4,0,0,1,.16.32.44.44,0,0,1-.16.34A.56.56,0,0,1,185.05,618.93Zm-.34,7.31V620.4h.67v5.84Z"/><path class="cls-3" d="M189.57,626.33a1.86,1.86,0,0,1-.48-.06,1,1,0,0,1-.42-.21,1.09,1.09,0,0,1-.29-.44,2,2,0,0,1-.1-.7V621h-1.41v-.6h1.24a.17.17,0,0,0,.12,0,.39.39,0,0,0,0-.14c0-.06,0-.15,0-.26v-1.42H189v1.88h1.87v.6H189v3.68a1.62,1.62,0,0,0,.15.77.55.55,0,0,0,.55.28l.3,0a.9.9,0,0,0,.23-.07v.6a1.2,1.2,0,0,1-.26.07Z"/><path class="cls-3" d="M197.36,626.33a1.86,1.86,0,0,1-.48-.06,1,1,0,0,1-.42-.21,1.09,1.09,0,0,1-.29-.44,2,2,0,0,1-.1-.7V621h-1.41v-.6h1.24a.13.13,0,0,0,.11,0,.26.26,0,0,0,.05-.14c0-.06,0-.15,0-.26v-1.42h.68v1.88h1.87v.6h-1.87v3.68a1.76,1.76,0,0,0,.14.77.57.57,0,0,0,.56.28l.3,0a.71.71,0,0,0,.22-.07v.6a1,1,0,0,1-.25.07Z"/><path class="cls-3" d="M202.6,626.34a2.94,2.94,0,0,1-1.52-.39,2.75,2.75,0,0,1-1-1.08,3.2,3.2,0,0,1-.38-1.55,3.15,3.15,0,0,1,.38-1.55,2.76,2.76,0,0,1,1-1.06,3.23,3.23,0,0,1,3,0,2.76,2.76,0,0,1,1,1.06,3.15,3.15,0,0,1,.38,1.55,3.2,3.2,0,0,1-.38,1.55,2.75,2.75,0,0,1-1,1.08A2.94,2.94,0,0,1,202.6,626.34Zm0-.62a2.12,2.12,0,0,0,1.16-.31,2.09,2.09,0,0,0,.79-.85,2.64,2.64,0,0,0,.29-1.24,2.61,2.61,0,0,0-.29-1.24,2,2,0,0,0-.79-.83,2.2,2.2,0,0,0-1.16-.3,2.23,2.23,0,0,0-1.16.3,2,2,0,0,0-.79.83,2.61,2.61,0,0,0-.29,1.24,2.64,2.64,0,0,0,.29,1.24,2.09,2.09,0,0,0,.79.85A2.14,2.14,0,0,0,202.6,625.72Z"/><path class="cls-3" d="M213,626.34a2.9,2.9,0,0,1-1.51-.39,2.77,2.77,0,0,1-1-1.08,3.2,3.2,0,0,1-.37-1.55,3.14,3.14,0,0,1,.37-1.55,2.79,2.79,0,0,1,1-1.06,3.21,3.21,0,0,1,3,0,2.79,2.79,0,0,1,1,1.06,3.14,3.14,0,0,1,.37,1.55,3.2,3.2,0,0,1-.37,1.55,2.77,2.77,0,0,1-1,1.08A2.91,2.91,0,0,1,213,626.34Zm0-.62a2.13,2.13,0,0,0,2-1.16,2.63,2.63,0,0,0,.28-1.24,2.61,2.61,0,0,0-.28-1.24,2.11,2.11,0,0,0-.79-.83,2.41,2.41,0,0,0-2.33,0,2.11,2.11,0,0,0-.79.83,2.61,2.61,0,0,0-.28,1.24,2.63,2.63,0,0,0,.28,1.24,2.13,2.13,0,0,0,1.95,1.16Z"/><path class="cls-3" d="M217.74,628.65V620.4h.68v8.25Zm2.69-2.3a2.57,2.57,0,0,1-2.16-1.21,2.21,2.21,0,0,1-.35-1.24v0h.5v0a1.64,1.64,0,0,0,.27.91,2,2,0,0,0,.7.67,2,2,0,0,0,1,.25,1.82,1.82,0,0,0,1.4-.61,3.2,3.2,0,0,0,0-3.56,1.82,1.82,0,0,0-1.4-.6,1.88,1.88,0,0,0-1,.25,1.93,1.93,0,0,0-.7.66,1.64,1.64,0,0,0-.27.91h-.5a2.22,2.22,0,0,1,.35-1.25,2.57,2.57,0,0,1,2.16-1.18,2.4,2.4,0,0,1,2.21,1.37,3.54,3.54,0,0,1,.34,1.63,3.6,3.6,0,0,1-.34,1.65,2.36,2.36,0,0,1-.91,1A2.51,2.51,0,0,1,220.43,626.35Z"/><path class="cls-3" d="M224.94,623.61V623h4.73l-.13.19v-.11a2.39,2.39,0,0,0-.24-1.06,2,2,0,0,0-.71-.79,2,2,0,0,0-1.11-.29,2.31,2.31,0,0,0-1.19.3,2.2,2.2,0,0,0-.79.84,2.54,2.54,0,0,0-.29,1.25,2.69,2.69,0,0,0,.28,1.26,2.09,2.09,0,0,0,.8.84,2.31,2.31,0,0,0,1.19.3,2.53,2.53,0,0,0,.87-.13,1.9,1.9,0,0,0,.62-.32,1.6,1.6,0,0,0,.37-.43,1,1,0,0,0,.15-.44h.68a1.49,1.49,0,0,1-.21.67,2.29,2.29,0,0,1-.52.63,2.65,2.65,0,0,1-.83.47,3.43,3.43,0,0,1-1.15.17A2.9,2.9,0,0,1,226,626a2.83,2.83,0,0,1-1-1.06,3.43,3.43,0,0,1,0-3.14,2.79,2.79,0,0,1,1-1.06,2.89,2.89,0,0,1,1.5-.39,2.76,2.76,0,0,1,1.49.39,2.61,2.61,0,0,1,1,1.06,3.24,3.24,0,0,1,.34,1.5v.18a1.1,1.1,0,0,0,0,.16Z"/><path class="cls-3" d="M232.09,626.24V620.4h.68v5.84Zm4.2,0V622.6a2.09,2.09,0,0,0-.17-.86,1.32,1.32,0,0,0-.53-.57,1.82,1.82,0,0,0-.92-.21,1.91,1.91,0,0,0-.93.25,1.93,1.93,0,0,0-.7.66,1.69,1.69,0,0,0-.27.94l-.41-.15a2.12,2.12,0,0,1,.34-1.19,2.37,2.37,0,0,1,.91-.84,2.34,2.34,0,0,1,1.18-.31,2.51,2.51,0,0,1,1.16.25,1.86,1.86,0,0,1,.75.72,2.26,2.26,0,0,1,.27,1.14v3.81Z"/><path class="cls-3" d="M244,626.33a1.86,1.86,0,0,1-.48-.06,1,1,0,0,1-.42-.21,1.09,1.09,0,0,1-.29-.44,2,2,0,0,1-.1-.7V621h-1.41v-.6h1.24a.13.13,0,0,0,.11,0,.26.26,0,0,0,.05-.14c0-.06,0-.15,0-.26v-1.42h.68v1.88h1.87v.6h-1.87v3.68a1.76,1.76,0,0,0,.14.77.57.57,0,0,0,.56.28l.3,0a.9.9,0,0,0,.23-.07v.6a1.2,1.2,0,0,1-.26.07Z"/><path class="cls-3" d="M246.79,626.24v-8.59h.68v8.59Zm4.21,0v-3.42a2.07,2.07,0,0,0-.4-1.37,1.5,1.5,0,0,0-1.22-.49,2,2,0,0,0-1,.24,1.72,1.72,0,0,0-.67.61,1.56,1.56,0,0,0-.25.84l-.45-.13a2,2,0,0,1,.32-1.09,2.32,2.32,0,0,1,.87-.8,2.58,2.58,0,0,1,1.28-.31,2.07,2.07,0,0,1,1.62.63,2.54,2.54,0,0,1,.57,1.75v3.54Z"/><path class="cls-3" d="M253.85,623.61V623h4.73l-.13.19v-.11a2.4,2.4,0,0,0-.25-1.06,1.91,1.91,0,0,0-.7-.79,2.07,2.07,0,0,0-1.12-.29,2.3,2.3,0,0,0-1.18.3,2.22,2.22,0,0,0-.8.84,2.65,2.65,0,0,0-.28,1.25,2.69,2.69,0,0,0,.28,1.26,2.07,2.07,0,0,0,.79.84,2.35,2.35,0,0,0,1.2.3,2.57,2.57,0,0,0,.87-.13,2,2,0,0,0,.62-.32,1.81,1.81,0,0,0,.37-.43,1,1,0,0,0,.15-.44h.68a1.79,1.79,0,0,1-.21.67,2.49,2.49,0,0,1-.52.63,2.71,2.71,0,0,1-.84.47,3.33,3.33,0,0,1-1.14.17,2.9,2.9,0,0,1-1.51-.38,2.76,2.76,0,0,1-1-1.06,3.43,3.43,0,0,1,0-3.14,2.72,2.72,0,0,1,1-1.06,2.89,2.89,0,0,1,1.5-.39,2.78,2.78,0,0,1,1.49.39,2.68,2.68,0,0,1,1,1.06,3.37,3.37,0,0,1,.34,1.5,1.21,1.21,0,0,1,0,.18.67.67,0,0,1,0,.16Z"/><path class="cls-3" d="M266.64,626.35a3,3,0,0,1-1.47-.36,2.74,2.74,0,0,1-1.07-1,3.5,3.5,0,0,1,0-3.25,2.62,2.62,0,0,1,1.07-1,3,3,0,0,1,1.47-.36,2.86,2.86,0,0,1,1.09.19,2.62,2.62,0,0,1,.83.5,2.33,2.33,0,0,1,.51.68,1.8,1.8,0,0,1,.17.73h0v0h-.67s0,0,0-.06v-.07a1.36,1.36,0,0,0-.32-.71,2.05,2.05,0,0,0-.68-.49,2.27,2.27,0,0,0-.93-.18,2.33,2.33,0,0,0-1.1.27,2.07,2.07,0,0,0-.82.79,3,3,0,0,0,0,2.65,2.13,2.13,0,0,0,.82.81,2.3,2.3,0,0,0,1.1.27,2.26,2.26,0,0,0,1.07-.22,1.59,1.59,0,0,0,.64-.55,1.49,1.49,0,0,0,.23-.71h.67a1.69,1.69,0,0,1-.17.74,2,2,0,0,1-.49.68,2.34,2.34,0,0,1-.81.49A3.08,3.08,0,0,1,266.64,626.35Z"/><path class="cls-3" d="M273.74,626.34a2.91,2.91,0,0,1-1.52-.39,2.77,2.77,0,0,1-1-1.08,3.32,3.32,0,0,1-.37-1.55,3.26,3.26,0,0,1,.37-1.55,2.79,2.79,0,0,1,1-1.06,3.21,3.21,0,0,1,3,0,2.79,2.79,0,0,1,1,1.06,3.14,3.14,0,0,1,.37,1.55,3.2,3.2,0,0,1-.37,1.55,2.77,2.77,0,0,1-1,1.08A2.9,2.9,0,0,1,273.74,626.34Zm0-.62a2.13,2.13,0,0,0,1.95-1.16,2.64,2.64,0,0,0,.29-1.24,2.61,2.61,0,0,0-.29-1.24,2.11,2.11,0,0,0-.79-.83,2.23,2.23,0,0,0-1.16-.3,2.2,2.2,0,0,0-1.16.3,2.06,2.06,0,0,0-.8.83,2.61,2.61,0,0,0-.28,1.24,2.63,2.63,0,0,0,.28,1.24,2.16,2.16,0,0,0,2,1.16Z"/><path class="cls-3" d="M278.49,626.24V620.4h.68v5.84Zm4.2,0V622.6a2.09,2.09,0,0,0-.17-.86,1.39,1.39,0,0,0-.53-.57,1.82,1.82,0,0,0-.92-.21,1.91,1.91,0,0,0-.93.25,1.85,1.85,0,0,0-.7.66,1.69,1.69,0,0,0-.27.94l-.41-.15a2.12,2.12,0,0,1,.34-1.19,2.56,2.56,0,0,1,3.24-.9,1.82,1.82,0,0,1,.76.72,2.26,2.26,0,0,1,.27,1.14v3.81Z"/><path class="cls-3" d="M285.4,626.24V620.4h.68v5.84Zm4.2,0V622.6a1.94,1.94,0,0,0-.17-.86,1.32,1.32,0,0,0-.53-.57A1.79,1.79,0,0,0,288,621a1.91,1.91,0,0,0-.93.25,1.93,1.93,0,0,0-.7.66,1.69,1.69,0,0,0-.27.94l-.41-.15a2.2,2.2,0,0,1,.34-1.19,2.37,2.37,0,0,1,.91-.84,2.34,2.34,0,0,1,1.18-.31,2.48,2.48,0,0,1,1.16.25,1.8,1.8,0,0,1,.75.72,2.26,2.26,0,0,1,.27,1.14v3.81Z"/><path class="cls-3" d="M292.45,623.61V623h4.73l-.14.19v-.11a2.39,2.39,0,0,0-.24-1.06,1.91,1.91,0,0,0-.7-.79,2.07,2.07,0,0,0-1.12-.29,2.28,2.28,0,0,0-1.18.3,2.22,2.22,0,0,0-.8.84,2.65,2.65,0,0,0-.28,1.25,2.69,2.69,0,0,0,.28,1.26,2.07,2.07,0,0,0,.79.84,2.35,2.35,0,0,0,1.2.3,2.57,2.57,0,0,0,.87-.13,2,2,0,0,0,.62-.32,1.81,1.81,0,0,0,.37-.43,1,1,0,0,0,.15-.44h.68a1.79,1.79,0,0,1-.21.67,2.49,2.49,0,0,1-.52.63,2.83,2.83,0,0,1-.84.47,3.33,3.33,0,0,1-1.14.17,2.9,2.9,0,0,1-1.51-.38,2.76,2.76,0,0,1-1-1.06,3.43,3.43,0,0,1,0-3.14,2.72,2.72,0,0,1,1-1.06,2.89,2.89,0,0,1,1.5-.39,2.78,2.78,0,0,1,1.49.39,2.59,2.59,0,0,1,1,1.06,3.25,3.25,0,0,1,.35,1.5c0,.05,0,.11,0,.18a.67.67,0,0,1,0,.16Z"/><path class="cls-3" d="M302.26,626.35a3,3,0,0,1-1.46-.36,2.74,2.74,0,0,1-1.07-1,3.5,3.5,0,0,1,0-3.25,2.62,2.62,0,0,1,1.07-1,3,3,0,0,1,1.46-.36,2.92,2.92,0,0,1,1.1.19,2.47,2.47,0,0,1,.82.5,2,2,0,0,1,.51.68,1.67,1.67,0,0,1,.18.73h0v0h-.68v-.06a.15.15,0,0,0,0-.07,1.27,1.27,0,0,0-.31-.71,2.05,2.05,0,0,0-.68-.49,2.27,2.27,0,0,0-.93-.18,2.33,2.33,0,0,0-1.1.27,2.07,2.07,0,0,0-.82.79,3,3,0,0,0,0,2.65,2.13,2.13,0,0,0,.82.81,2.53,2.53,0,0,0,2.17,0A1.59,1.59,0,0,0,304,625a1.37,1.37,0,0,0,.22-.71h.68a1.85,1.85,0,0,1-.17.74,2,2,0,0,1-.49.68,2.3,2.3,0,0,1-.82.49A3,3,0,0,1,302.26,626.35Z"/><path class="cls-3" d="M308.61,626.33a2,2,0,0,1-.49-.06,1.07,1.07,0,0,1-.41-.21,1,1,0,0,1-.29-.44,1.94,1.94,0,0,1-.11-.7V621H305.9v-.6h1.24a.14.14,0,0,0,.12,0,.38.38,0,0,0,.05-.14v-1.68H308v1.88h1.87v.6H308v3.68a1.62,1.62,0,0,0,.15.77.56.56,0,0,0,.55.28l.31,0a.71.71,0,0,0,.22-.07v.6a1.05,1.05,0,0,1-.26.07Z"/><path class="cls-3" d="M311.77,618.93a.59.59,0,0,1-.37-.12.43.43,0,0,1-.15-.34.39.39,0,0,1,.15-.32.54.54,0,0,1,.37-.13.52.52,0,0,1,.36.13.4.4,0,0,1,.16.32.44.44,0,0,1-.16.34A.56.56,0,0,1,311.77,618.93Zm-.34,7.31V620.4h.67v5.84Z"/><path class="cls-3" d="M316.9,626.34a2.9,2.9,0,0,1-1.51-.39,2.77,2.77,0,0,1-1-1.08,3.2,3.2,0,0,1-.37-1.55,3.14,3.14,0,0,1,.37-1.55,2.79,2.79,0,0,1,1-1.06,3.21,3.21,0,0,1,3,0,2.79,2.79,0,0,1,1,1.06,3.14,3.14,0,0,1,.37,1.55,3.2,3.2,0,0,1-.37,1.55,2.77,2.77,0,0,1-1,1.08A2.91,2.91,0,0,1,316.9,626.34Zm0-.62a2.13,2.13,0,0,0,2-1.16,2.63,2.63,0,0,0,.28-1.24,2.61,2.61,0,0,0-.28-1.24,2.11,2.11,0,0,0-.79-.83,2.41,2.41,0,0,0-2.33,0,2.11,2.11,0,0,0-.79.83,2.61,2.61,0,0,0-.28,1.24,2.63,2.63,0,0,0,.28,1.24,2.13,2.13,0,0,0,1.95,1.16Z"/><path class="cls-3" d="M321.66,626.24V620.4h.68v5.84Zm4.2,0V622.6a2.09,2.09,0,0,0-.17-.86,1.35,1.35,0,0,0-.54-.57,1.75,1.75,0,0,0-.91-.21,1.91,1.91,0,0,0-.93.25,1.85,1.85,0,0,0-.7.66,1.69,1.69,0,0,0-.27.94l-.41-.15a2.12,2.12,0,0,1,.34-1.19,2.42,2.42,0,0,1,.9-.84,2.38,2.38,0,0,1,1.19-.31,2.44,2.44,0,0,1,1.15.25,1.82,1.82,0,0,1,.76.72,2.26,2.26,0,0,1,.27,1.14v3.81Z"/><path class="cls-3" d="M330.69,626.35a4.08,4.08,0,0,1-1-.11,2.33,2.33,0,0,1-.75-.32,1.62,1.62,0,0,1-.49-.52,1.45,1.45,0,0,1-.18-.7v-.19H329v.16a.93.93,0,0,0,.47.79,2.4,2.4,0,0,0,1.24.27,3,3,0,0,0,.89-.11,1.35,1.35,0,0,0,.6-.34.7.7,0,0,0,.22-.54A.78.78,0,0,0,332,624a5.21,5.21,0,0,0-1.35-.38,6.41,6.41,0,0,1-.86-.2,2.66,2.66,0,0,1-.7-.32,1.32,1.32,0,0,1-.47-.47,1.36,1.36,0,0,1-.17-.69,1.27,1.27,0,0,1,.31-.87,1.82,1.82,0,0,1,.83-.54,3.52,3.52,0,0,1,2.28,0,2,2,0,0,1,.84.56,1.43,1.43,0,0,1,.31.95v.12h-.68V622a.9.9,0,0,0-.23-.64,1.34,1.34,0,0,0-.59-.36,2.76,2.76,0,0,0-.77-.11,2.88,2.88,0,0,0-.78.1,1.53,1.53,0,0,0-.61.31.7.7,0,0,0-.23.56.73.73,0,0,0,.22.56,1.57,1.57,0,0,0,.62.34,7.9,7.9,0,0,0,.93.23,8.59,8.59,0,0,1,.9.21,2.84,2.84,0,0,1,.7.31,1.32,1.32,0,0,1,.47.47,1.46,1.46,0,0,1,.16.69,1.39,1.39,0,0,1-.18.71,1.55,1.55,0,0,1-.51.51,2.25,2.25,0,0,1-.76.31A4,4,0,0,1,330.69,626.35Z"/><path class="cls-3" d="M335.32,626.38a.55.55,0,0,1-.55-.55.53.53,0,0,1,.16-.39.53.53,0,0,1,.39-.16.57.57,0,0,1,.39.16.53.53,0,0,1,.16.39.5.5,0,0,1-.16.39A.53.53,0,0,1,335.32,626.38Z"/></g></g></svg>