<svg xmlns="http://www.w3.org/2000/svg" viewBox="0 0 440 650"><defs><style>.cls-1,.cls-2{fill:#fff;}.cls-1{opacity:0.05;}.cls-3{fill:#c10cc1;}.cls-4,.cls-5{fill:none;stroke-miterlimit:10;}.cls-4{stroke:#fff;}.cls-5{stroke:aqua;stroke-linecap:round;stroke-width:0.8px;stroke-dasharray:1.61 4.01;}.cls-6{fill:#1a171b;}.cls-7{fill:#009245;}</style></defs><g id="Layer_2" data-name="Layer 2"><g id="Layer_1-2" data-name="Layer 1"><rect class="cls-1" width="440" height="650" rx="21.66"/><path class="cls-2" d="M130.29,602.84a3.61,3.61,0,0,1-1.72-.41,2.93,2.93,0,0,1-1.19-1.15,3.47,3.47,0,0,1-.44-1.77,3.36,3.36,0,0,1,.44-1.74,3,3,0,0,1,1.19-1.14,3.72,3.72,0,0,1,1.72-.39,3.49,3.49,0,0,1,1.29.22,2.92,2.92,0,0,1,.95.58,2.63,2.63,0,0,1,.6.79,2.07,2.07,0,0,1,.2.86v0H132a.13.13,0,0,0,0-.06.19.19,0,0,0,0-.08,1.19,1.19,0,0,0-.27-.63,1.8,1.8,0,0,0-.6-.44,2.33,2.33,0,0,0-1.88.08,1.78,1.78,0,0,0-.73.71,2.32,2.32,0,0,0-.28,1.2,2.46,2.46,0,0,0,.27,1.21,1.82,1.82,0,0,0,.74.74,2,2,0,0,0,1,.26,2.12,2.12,0,0,0,1-.19,1.31,1.31,0,0,0,.57-.49,1.44,1.44,0,0,0,.22-.67h1.29a2.2,2.2,0,0,1-.2.88,2.44,2.44,0,0,1-.58.8,2.8,2.8,0,0,1-1,.57A3.56,3.56,0,0,1,130.29,602.84Z"/><path class="cls-2" d="M136.14,593.33v9.38h-1.28v-9.38Z"/><path class="cls-2" d="M138.55,595a1,1,0,0,1-.58-.18.6.6,0,0,1-.24-.51.59.59,0,0,1,.24-.5,1,1,0,0,1,.58-.18.92.92,0,0,1,.57.18.64.64,0,0,1,0,1A.92.92,0,0,1,138.55,595Zm-.65,7.69v-6.37h1.29v6.37Z"/><path class="cls-2" d="M144,602.84a3.54,3.54,0,0,1-1.71-.41,3,3,0,0,1-1.2-1.15,3.46,3.46,0,0,1-.43-1.77,3.35,3.35,0,0,1,.43-1.74,3,3,0,0,1,1.2-1.14,3.65,3.65,0,0,1,1.71-.39,3.42,3.42,0,0,1,1.29.22,2.86,2.86,0,0,1,1,.58,2.44,2.44,0,0,1,.59.79,1.94,1.94,0,0,1,.21.86v0h-1.29s0,0,0-.06,0-.06,0-.08a1.21,1.21,0,0,0-.28-.63,1.62,1.62,0,0,0-.6-.44,2.14,2.14,0,0,0-.87-.16,2.11,2.11,0,0,0-1,.24,1.8,1.8,0,0,0-.74.71,2.42,2.42,0,0,0-.27,1.2,2.46,2.46,0,0,0,.27,1.21,1.74,1.74,0,0,0,.73.74,2.05,2.05,0,0,0,1,.26,2.09,2.09,0,0,0,1-.19,1.21,1.21,0,0,0,.57-.49,1.45,1.45,0,0,0,.23-.67h1.29a2.2,2.2,0,0,1-.2.88,2.6,2.6,0,0,1-.58.8,2.85,2.85,0,0,1-1,.57A3.49,3.49,0,0,1,144,602.84Z"/><path class="cls-2" d="M148.49,602.71v-9.38h1.23V599l-.32-.15,2.85-2.47h1.64l-3.09,2.73.31-.58,2.78,4.22H152.5l-2.23-3.52.29.09-1,.89.16-.6v3.14Z"/><path class="cls-2" d="M158.55,595a1,1,0,0,1-.58-.18.6.6,0,0,1-.24-.51.59.59,0,0,1,.24-.5,1,1,0,0,1,1.16,0,.59.59,0,0,1,.24.5.6.6,0,0,1-.24.51A1,1,0,0,1,158.55,595Zm-.64,7.69v-6.37h1.28v6.37Z"/><path class="cls-2" d="M163.64,602.82a2.7,2.7,0,0,1-.63-.07,1.55,1.55,0,0,1-.58-.24A1.24,1.24,0,0,1,162,602a1.91,1.91,0,0,1-.16-.86v-3.72h-1.53v-1.08h.8l.41,0a.3.3,0,0,0,.21-.1.44.44,0,0,0,.09-.26c0-.12,0-.29,0-.5v-1.23h1.3v2.11h2v1.08h-2v3.29a1.89,1.89,0,0,0,.12.75.52.52,0,0,0,.54.28,1.87,1.87,0,0,0,.34,0,.77.77,0,0,0,.24-.07v1.07a2.28,2.28,0,0,1-.3.07A2.13,2.13,0,0,1,163.64,602.82Z"/><path class="cls-2" d="M172.08,602.82a2.79,2.79,0,0,1-.64-.07,1.45,1.45,0,0,1-.57-.24,1.26,1.26,0,0,1-.42-.51,2.07,2.07,0,0,1-.15-.86v-3.72h-1.53v-1.08h.8l.4,0a.35.35,0,0,0,.22-.1.44.44,0,0,0,.09-.26c0-.12,0-.29,0-.5v-1.23h1.3v2.11h2v1.08h-2v3.29a2.12,2.12,0,0,0,.11.75.52.52,0,0,0,.54.28,1.79,1.79,0,0,0,.34,0,1,1,0,0,0,.25-.07v1.07a2.13,2.13,0,0,1-.31.07A2,2,0,0,1,172.08,602.82Z"/><path class="cls-2" d="M177.68,602.83a3.5,3.5,0,0,1-1.74-.42,3.11,3.11,0,0,1-1.18-1.18,3.41,3.41,0,0,1-.42-1.71,3.37,3.37,0,0,1,.42-1.7,3.06,3.06,0,0,1,1.18-1.16,3.79,3.79,0,0,1,3.47,0,3.06,3.06,0,0,1,1.18,1.16,3.37,3.37,0,0,1,.42,1.7,3.41,3.41,0,0,1-.42,1.71,3.11,3.11,0,0,1-1.18,1.18A3.49,3.49,0,0,1,177.68,602.83Zm0-1.11a2,2,0,0,0,1-.27,1.91,1.91,0,0,0,.72-.77,2.51,2.51,0,0,0,.25-1.16,2.47,2.47,0,0,0-.25-1.15,1.92,1.92,0,0,0-.72-.75,2.1,2.1,0,0,0-1-.26,2.16,2.16,0,0,0-1.06.26,1.9,1.9,0,0,0-.71.75,2.35,2.35,0,0,0-.26,1.15,2.39,2.39,0,0,0,.26,1.16,1.89,1.89,0,0,0,.71.77A2.06,2.06,0,0,0,177.68,601.72Z"/><path class="cls-2" d="M188,602.84a4.21,4.21,0,0,1-1.08-.13,2.68,2.68,0,0,1-.88-.37,1.81,1.81,0,0,1-.6-.6,1.63,1.63,0,0,1-.21-.83v-.17h1.3v.12a.72.72,0,0,0,.4.67,2.29,2.29,0,0,0,1.1.22,3.45,3.45,0,0,0,.75-.08,1.24,1.24,0,0,0,.54-.26.57.57,0,0,0,.2-.44.64.64,0,0,0-.43-.63,6.29,6.29,0,0,0-1.3-.33,8.63,8.63,0,0,1-.91-.21,3.37,3.37,0,0,1-.79-.35,1.73,1.73,0,0,1-.56-.55,1.43,1.43,0,0,1-.21-.79,1.51,1.51,0,0,1,.36-1,2.32,2.32,0,0,1,1-.64,4.15,4.15,0,0,1,1.35-.21,3.83,3.83,0,0,1,1.33.23,2.38,2.38,0,0,1,1,.67,1.56,1.56,0,0,1,.37,1.06v.11h-1.29v-.09a.73.73,0,0,0-.2-.51,1.16,1.16,0,0,0-.51-.29,2.09,2.09,0,0,0-.67-.1,2.88,2.88,0,0,0-.65.07,1.21,1.21,0,0,0-.54.23.52.52,0,0,0-.22.45.57.57,0,0,0,.21.46,1.71,1.71,0,0,0,.59.28c.26.07.56.14.9.2s.61.13.91.21a3.63,3.63,0,0,1,.8.34,1.64,1.64,0,0,1,.57.54,1.48,1.48,0,0,1,.21.81,1.6,1.6,0,0,1-.22.86,1.91,1.91,0,0,1-.63.6,3.06,3.06,0,0,1-.89.35A4.44,4.44,0,0,1,188,602.84Z"/><path class="cls-2" d="M192.68,600v-1h4.69l-.18.3v-.15a1.91,1.91,0,0,0-.21-.89,1.54,1.54,0,0,0-.63-.66,2,2,0,0,0-1-.25,2.19,2.19,0,0,0-1.1.27,1.88,1.88,0,0,0-.73.75,2.52,2.52,0,0,0-.26,1.17,2.73,2.73,0,0,0,.25,1.2,1.75,1.75,0,0,0,.73.77,2.25,2.25,0,0,0,1.13.27,3.09,3.09,0,0,0,.8-.09,1.72,1.72,0,0,0,.56-.25,1.22,1.22,0,0,0,.34-.34.87.87,0,0,0,.13-.36h1.29a1.88,1.88,0,0,1-.25.77,2.49,2.49,0,0,1-.62.69,3,3,0,0,1-1,.49,4.39,4.39,0,0,1-1.32.18,3.5,3.5,0,0,1-1.74-.42,3,3,0,0,1-1.17-1.16,3.73,3.73,0,0,1,0-3.44,3,3,0,0,1,1.18-1.16,3.56,3.56,0,0,1,1.74-.42,3.37,3.37,0,0,1,1.72.42,2.87,2.87,0,0,1,1.13,1.16,3.54,3.54,0,0,1,.39,1.69v.27a1.8,1.8,0,0,1,0,.2Z"/><path class="cls-2" d="M200.45,600v-1h4.69l-.18.3v-.15a1.91,1.91,0,0,0-.21-.89,1.58,1.58,0,0,0-.62-.66,2,2,0,0,0-1-.25,2.16,2.16,0,0,0-1.1.27,1.82,1.82,0,0,0-.73.75,2.41,2.41,0,0,0-.26,1.17,2.6,2.6,0,0,0,.25,1.2,1.75,1.75,0,0,0,.73.77,2.22,2.22,0,0,0,1.13.27,3.15,3.15,0,0,0,.8-.09,1.82,1.82,0,0,0,.56-.25,1.17,1.17,0,0,0,.33-.34.75.75,0,0,0,.13-.36h1.3a1.76,1.76,0,0,1-.26.77,2.45,2.45,0,0,1-.61.69,3,3,0,0,1-1,.49,4.37,4.37,0,0,1-1.31.18,3.51,3.51,0,0,1-1.75-.42,3,3,0,0,1-1.17-1.16,3.45,3.45,0,0,1-.42-1.72,3.33,3.33,0,0,1,.43-1.72,2.93,2.93,0,0,1,1.18-1.16,3.49,3.49,0,0,1,1.73-.42,3.41,3.41,0,0,1,1.73.42,2.84,2.84,0,0,1,1.12,1.16,3.43,3.43,0,0,1,.4,1.69,2.62,2.62,0,0,1,0,.27c0,.1,0,.17,0,.2Z"/><path class="cls-2" d="M213.29,602.84a4.21,4.21,0,0,1-1.08-.13,2.68,2.68,0,0,1-.88-.37,1.72,1.72,0,0,1-.6-.6,1.63,1.63,0,0,1-.21-.83v-.17h1.3v.12a.72.72,0,0,0,.4.67,2.29,2.29,0,0,0,1.1.22,3.52,3.52,0,0,0,.75-.08,1.36,1.36,0,0,0,.54-.26.57.57,0,0,0,.2-.44.64.64,0,0,0-.43-.63,6.47,6.47,0,0,0-1.3-.33,8.63,8.63,0,0,1-.91-.21,3.65,3.65,0,0,1-.8-.35,1.7,1.7,0,0,1-.55-.55,1.43,1.43,0,0,1-.21-.79,1.51,1.51,0,0,1,.36-1,2.26,2.26,0,0,1,1-.64,4.15,4.15,0,0,1,1.35-.21,3.73,3.73,0,0,1,1.32.23,2.35,2.35,0,0,1,1,.67,1.61,1.61,0,0,1,.37,1.06v.11h-1.29v-.09a.73.73,0,0,0-.2-.51,1.16,1.16,0,0,0-.51-.29,2.13,2.13,0,0,0-.67-.1,2.81,2.81,0,0,0-.65.07,1.31,1.31,0,0,0-.55.23.54.54,0,0,0-.21.45.57.57,0,0,0,.21.46,1.71,1.71,0,0,0,.59.28c.26.07.56.14.9.2s.61.13.91.21a3.85,3.85,0,0,1,.8.34,1.64,1.64,0,0,1,.57.54,1.48,1.48,0,0,1,.21.81,1.52,1.52,0,0,1-.23.86,1.88,1.88,0,0,1-.62.6,3.06,3.06,0,0,1-.89.35A4.57,4.57,0,0,1,213.29,602.84Z"/><path class="cls-2" d="M220.6,602.83a3.5,3.5,0,0,1-1.74-.42,3.08,3.08,0,0,1-1.17-1.18,3.32,3.32,0,0,1-.43-1.71,3.28,3.28,0,0,1,.43-1.7,3,3,0,0,1,1.17-1.16,3.81,3.81,0,0,1,3.48,0,3,3,0,0,1,1.17,1.16,3.38,3.38,0,0,1,.43,1.7,3.42,3.42,0,0,1-.43,1.71,3.08,3.08,0,0,1-1.17,1.18A3.53,3.53,0,0,1,220.6,602.83Zm0-1.11a2.06,2.06,0,0,0,1.06-.27,1.89,1.89,0,0,0,.71-.77,2.51,2.51,0,0,0,.26-1.16,2.47,2.47,0,0,0-.26-1.15,1.9,1.9,0,0,0-.71-.75,2.16,2.16,0,0,0-1.06-.26,2.1,2.1,0,0,0-1,.26,1.86,1.86,0,0,0-.72.75,2.47,2.47,0,0,0-.26,1.15,2.51,2.51,0,0,0,.26,1.16,1.85,1.85,0,0,0,.72.77A2,2,0,0,0,220.6,601.72Z"/><path class="cls-2" d="M225.38,602.71v-6.37h1.3v6.37Zm3.94,0v-3.78a4.32,4.32,0,0,0,0-.5,1.69,1.69,0,0,0-.14-.5.89.89,0,0,0-.35-.37,1.17,1.17,0,0,0-.64-.15,1.36,1.36,0,0,0-.69.17,1.26,1.26,0,0,0-.46.43,1.84,1.84,0,0,0-.25.59,3,3,0,0,0-.08.66l-.55-.3a3.09,3.09,0,0,1,.3-1.37,2.44,2.44,0,0,1,.84-1,2.19,2.19,0,0,1,1.28-.37,2.05,2.05,0,0,1,1.2.31,1.73,1.73,0,0,1,.66.84,3.21,3.21,0,0,1,.2,1.2v4.12Zm3.93,0v-3.8a4.49,4.49,0,0,0,0-.51,1.34,1.34,0,0,0-.15-.48.81.81,0,0,0-.35-.36,1.2,1.2,0,0,0-.65-.15,1.48,1.48,0,0,0-.7.16,1.36,1.36,0,0,0-.44.42,1.55,1.55,0,0,0-.24.58,2.55,2.55,0,0,0-.08.61l-.55-.28a3.08,3.08,0,0,1,.29-1.33,2.45,2.45,0,0,1,.83-1,2.24,2.24,0,0,1,1.28-.36,2.13,2.13,0,0,1,1.18.29,1.69,1.69,0,0,1,.68.79,2.94,2.94,0,0,1,.22,1.19v4.2Z"/><path class="cls-2" d="M236.66,600v-1h4.69l-.18.3v-.15a1.91,1.91,0,0,0-.21-.89,1.54,1.54,0,0,0-.63-.66,2,2,0,0,0-1-.25,2.19,2.19,0,0,0-1.1.27,1.88,1.88,0,0,0-.73.75,2.52,2.52,0,0,0-.26,1.17,2.73,2.73,0,0,0,.25,1.2,1.75,1.75,0,0,0,.73.77,2.25,2.25,0,0,0,1.13.27,3.23,3.23,0,0,0,.81-.09,1.75,1.75,0,0,0,.55-.25,1.22,1.22,0,0,0,.34-.34,1,1,0,0,0,.13-.36h1.29a1.88,1.88,0,0,1-.25.77,2.49,2.49,0,0,1-.62.69,3,3,0,0,1-1,.49,4.39,4.39,0,0,1-1.32.18,3.5,3.5,0,0,1-1.74-.42,3,3,0,0,1-1.17-1.16,3.73,3.73,0,0,1,0-3.44,3,3,0,0,1,1.18-1.16,3.56,3.56,0,0,1,1.74-.42,3.37,3.37,0,0,1,1.72.42,2.87,2.87,0,0,1,1.13,1.16,3.54,3.54,0,0,1,.39,1.69v.27a1.8,1.8,0,0,1,0,.2Z"/><path class="cls-2" d="M250.07,602.84a3.61,3.61,0,0,1-1.72-.41,3,3,0,0,1-1.19-1.15,3.47,3.47,0,0,1-.44-1.77,3.36,3.36,0,0,1,.44-1.74,3,3,0,0,1,1.19-1.14,3.72,3.72,0,0,1,1.72-.39,3.45,3.45,0,0,1,1.29.22,2.82,2.82,0,0,1,.95.58,2.48,2.48,0,0,1,.6.79,2.07,2.07,0,0,1,.2.86v0h-1.29v-.06s0-.06,0-.08a1.19,1.19,0,0,0-.27-.63,1.62,1.62,0,0,0-.6-.44,2.14,2.14,0,0,0-.87-.16,2.18,2.18,0,0,0-1,.24,1.78,1.78,0,0,0-.73.71,2.32,2.32,0,0,0-.28,1.2,2.36,2.36,0,0,0,.28,1.21,1.74,1.74,0,0,0,.73.74,2,2,0,0,0,1,.26,2.09,2.09,0,0,0,1-.19,1.31,1.31,0,0,0,.57-.49,1.44,1.44,0,0,0,.22-.67h1.29a2,2,0,0,1-.2.88,2.44,2.44,0,0,1-.58.8,2.7,2.7,0,0,1-1,.57A3.53,3.53,0,0,1,250.07,602.84Z"/><path class="cls-2" d="M257.63,602.83a3.56,3.56,0,0,1-1.74-.42,3.08,3.08,0,0,1-1.17-1.18,3.42,3.42,0,0,1-.43-1.71,3.38,3.38,0,0,1,.43-1.7,3,3,0,0,1,1.17-1.16,3.56,3.56,0,0,1,1.74-.42,3.5,3.5,0,0,1,1.74.42,3,3,0,0,1,1.17,1.16,3.28,3.28,0,0,1,.43,1.7,3.32,3.32,0,0,1-.43,1.71,3.08,3.08,0,0,1-1.17,1.18A3.5,3.5,0,0,1,257.63,602.83Zm0-1.11a2.06,2.06,0,0,0,1.06-.27,1.89,1.89,0,0,0,.71-.77,2.51,2.51,0,0,0,.26-1.16,2.47,2.47,0,0,0-.26-1.15,1.9,1.9,0,0,0-.71-.75,2.16,2.16,0,0,0-1.06-.26,2.12,2.12,0,0,0-1.05.26,1.86,1.86,0,0,0-.72.75,2.47,2.47,0,0,0-.26,1.15,2.51,2.51,0,0,0,.26,1.16,1.85,1.85,0,0,0,.72.77A2,2,0,0,0,257.63,601.72Z"/><path class="cls-2" d="M262.41,602.71v-6.37h1.31v6.37Zm4.54,0V599a2.37,2.37,0,0,0-.14-.83,1.12,1.12,0,0,0-.48-.55,1.61,1.61,0,0,0-.88-.21,1.66,1.66,0,0,0-.88.24,1.71,1.71,0,0,0-.62.66,1.78,1.78,0,0,0-.23.93l-.56-.28a2.72,2.72,0,0,1,.36-1.39,2.76,2.76,0,0,1,1-1,2.62,2.62,0,0,1,1.35-.36,2.67,2.67,0,0,1,1.29.29,2,2,0,0,1,.83.83,2.69,2.69,0,0,1,.28,1.28v4.07Z"/><path class="cls-2" d="M272.4,602.84a4.08,4.08,0,0,1-1.07-.13,2.74,2.74,0,0,1-.89-.37,1.78,1.78,0,0,1-.59-.6,1.63,1.63,0,0,1-.21-.83v-.17h1.29v.12a.72.72,0,0,0,.41.67,2.26,2.26,0,0,0,1.1.22,3.52,3.52,0,0,0,.75-.08,1.36,1.36,0,0,0,.54-.26.57.57,0,0,0,.2-.44.65.65,0,0,0-.43-.63,6.47,6.47,0,0,0-1.3-.33,8.81,8.81,0,0,1-.92-.21,3.78,3.78,0,0,1-.79-.35,1.84,1.84,0,0,1-.56-.55,1.64,1.64,0,0,1,.16-1.81,2.26,2.26,0,0,1,1-.64,4.15,4.15,0,0,1,1.35-.21,3.77,3.77,0,0,1,1.32.23,2.32,2.32,0,0,1,1,.67,1.56,1.56,0,0,1,.37,1.06v.11h-1.29v-.09a.72.72,0,0,0-.19-.51,1.26,1.26,0,0,0-.52-.29,2.09,2.09,0,0,0-.67-.1,2.94,2.94,0,0,0-.65.07,1.32,1.32,0,0,0-.54.23.55.55,0,0,0-.22.45.61.61,0,0,0,.21.46,1.68,1.68,0,0,0,.6.28c.25.07.55.14.89.2s.62.13.92.21a3.85,3.85,0,0,1,.8.34,1.84,1.84,0,0,1,.57.54,1.48,1.48,0,0,1,.21.81,1.6,1.6,0,0,1-.23.86,1.88,1.88,0,0,1-.62.6,3.06,3.06,0,0,1-.89.35A4.59,4.59,0,0,1,272.4,602.84Z"/><path class="cls-2" d="M277.1,600v-1h4.69l-.18.3v-.15a1.91,1.91,0,0,0-.21-.89,1.58,1.58,0,0,0-.62-.66,2,2,0,0,0-1-.25,2.16,2.16,0,0,0-1.1.27,1.82,1.82,0,0,0-.73.75,2.41,2.41,0,0,0-.26,1.17,2.6,2.6,0,0,0,.25,1.2,1.79,1.79,0,0,0,.72.77,2.29,2.29,0,0,0,1.14.27,3.15,3.15,0,0,0,.8-.09,1.82,1.82,0,0,0,.56-.25,1.32,1.32,0,0,0,.33-.34.75.75,0,0,0,.13-.36h1.3a1.76,1.76,0,0,1-.26.77,2.45,2.45,0,0,1-.61.69,3,3,0,0,1-1,.49,4.37,4.37,0,0,1-1.31.18,3.51,3.51,0,0,1-1.75-.42,3,3,0,0,1-1.17-1.16,3.45,3.45,0,0,1-.42-1.72,3.33,3.33,0,0,1,.43-1.72,2.93,2.93,0,0,1,1.18-1.16,3.49,3.49,0,0,1,1.73-.42,3.41,3.41,0,0,1,1.73.42,2.84,2.84,0,0,1,1.12,1.16,3.43,3.43,0,0,1,.4,1.69,2.62,2.62,0,0,1,0,.27c0,.1,0,.17,0,.2Z"/><path class="cls-2" d="M287.51,602.84a3.58,3.58,0,0,1-1.72-.41,3,3,0,0,1-1.2-1.15,3.46,3.46,0,0,1-.43-1.77,3.35,3.35,0,0,1,.43-1.74,3,3,0,0,1,1.2-1.14,3.69,3.69,0,0,1,1.72-.39,3.49,3.49,0,0,1,1.29.22,2.92,2.92,0,0,1,.95.58,2.44,2.44,0,0,1,.59.79,1.94,1.94,0,0,1,.21.86v0h-1.29a.13.13,0,0,0,0-.06s0-.06,0-.08A1.13,1.13,0,0,0,289,598a1.62,1.62,0,0,0-.6-.44,2.08,2.08,0,0,0-.87-.16,2.11,2.11,0,0,0-1,.24,1.8,1.8,0,0,0-.74.71,2.42,2.42,0,0,0-.27,1.2,2.46,2.46,0,0,0,.27,1.21,1.8,1.8,0,0,0,.73.74,2.05,2.05,0,0,0,1,.26,2.17,2.17,0,0,0,1-.19A1.31,1.31,0,0,0,289,601a1.56,1.56,0,0,0,.22-.67h1.29a2.2,2.2,0,0,1-.2.88,2.6,2.6,0,0,1-.58.8,2.9,2.9,0,0,1-.95.57A3.56,3.56,0,0,1,287.51,602.84Z"/><path class="cls-2" d="M294.31,602.83a2.52,2.52,0,0,1-1.13-.23,1.94,1.94,0,0,1-.71-.61,2.26,2.26,0,0,1-.37-.82,3.37,3.37,0,0,1-.11-.88v-3.95h1.31V600a2.82,2.82,0,0,0,.12.85,1.26,1.26,0,0,0,.42.63,1.32,1.32,0,0,0,.85.23,1.41,1.41,0,0,0,.89-.3,2,2,0,0,0,.58-.77,2.24,2.24,0,0,0,.21-.93l.57.31a3.19,3.19,0,0,1-.18,1.06,3,3,0,0,1-.52.91,2.52,2.52,0,0,1-1.93.88Zm2.06-.12v-6.37h1.31v6.37Z"/><path class="cls-2" d="M299.78,600v-1h4.69l-.18.3v-.15a1.91,1.91,0,0,0-.21-.89,1.58,1.58,0,0,0-.62-.66,2,2,0,0,0-1-.25,2.16,2.16,0,0,0-1.1.27,1.82,1.82,0,0,0-.73.75,2.41,2.41,0,0,0-.26,1.17,2.6,2.6,0,0,0,.25,1.2,1.75,1.75,0,0,0,.73.77,2.22,2.22,0,0,0,1.13.27,3.15,3.15,0,0,0,.8-.09,1.82,1.82,0,0,0,.56-.25,1.17,1.17,0,0,0,.33-.34.75.75,0,0,0,.13-.36h1.3a1.76,1.76,0,0,1-.26.77,2.45,2.45,0,0,1-.61.69,3,3,0,0,1-1,.49,4.37,4.37,0,0,1-1.31.18,3.51,3.51,0,0,1-1.75-.42,3,3,0,0,1-1.17-1.16,3.45,3.45,0,0,1-.42-1.72,3.33,3.33,0,0,1,.43-1.72,2.93,2.93,0,0,1,1.18-1.16,3.49,3.49,0,0,1,1.73-.42,3.41,3.41,0,0,1,1.73.42,2.78,2.78,0,0,1,1.12,1.16,3.43,3.43,0,0,1,.4,1.69,2.62,2.62,0,0,1,0,.27c0,.1,0,.17,0,.2Z"/><path class="cls-2" d="M307.1,602.71v-6.37h1.3v6.37Zm4.53,0V599a2.37,2.37,0,0,0-.14-.83,1.12,1.12,0,0,0-.48-.55,1.61,1.61,0,0,0-.88-.21,1.66,1.66,0,0,0-.88.24,1.71,1.71,0,0,0-.62.66,1.89,1.89,0,0,0-.23.93l-.56-.28a2.63,2.63,0,0,1,.37-1.39,2.68,2.68,0,0,1,1-1,2.61,2.61,0,0,1,1.34-.36,2.74,2.74,0,0,1,1.3.29,1.93,1.93,0,0,1,.82.83,2.69,2.69,0,0,1,.28,1.28v4.07Z"/><path class="cls-2" d="M317.67,602.84a3.58,3.58,0,0,1-1.72-.41,3,3,0,0,1-1.2-1.15,3.46,3.46,0,0,1-.43-1.77,3.35,3.35,0,0,1,.43-1.74,3,3,0,0,1,1.2-1.14,3.69,3.69,0,0,1,1.72-.39,3.49,3.49,0,0,1,1.29.22,2.92,2.92,0,0,1,1,.58,2.63,2.63,0,0,1,.6.79,2.07,2.07,0,0,1,.2.86v0h-1.29a.13.13,0,0,0,0-.06.19.19,0,0,0,0-.08,1.19,1.19,0,0,0-.27-.63,1.8,1.8,0,0,0-.6-.44,2.33,2.33,0,0,0-1.88.08,1.72,1.72,0,0,0-.73.71,2.32,2.32,0,0,0-.28,1.2,2.46,2.46,0,0,0,.27,1.21,1.8,1.8,0,0,0,.73.74,2.09,2.09,0,0,0,1,.26,2.12,2.12,0,0,0,1-.19,1.31,1.31,0,0,0,.57-.49,1.44,1.44,0,0,0,.22-.67h1.29a2.2,2.2,0,0,1-.2.88,2.44,2.44,0,0,1-.58.8,2.8,2.8,0,0,1-.95.57A3.56,3.56,0,0,1,317.67,602.84Z"/><path class="cls-2" d="M322.61,600v-1h4.69l-.18.3v-.15a1.91,1.91,0,0,0-.21-.89,1.58,1.58,0,0,0-.62-.66,2,2,0,0,0-1-.25,2.16,2.16,0,0,0-1.1.27,1.82,1.82,0,0,0-.73.75,2.52,2.52,0,0,0-.26,1.17,2.6,2.6,0,0,0,.25,1.2,1.75,1.75,0,0,0,.73.77,2.22,2.22,0,0,0,1.13.27,3.15,3.15,0,0,0,.8-.09,1.82,1.82,0,0,0,.56-.25,1.17,1.17,0,0,0,.33-.34.75.75,0,0,0,.13-.36h1.3a1.76,1.76,0,0,1-.26.77,2.45,2.45,0,0,1-.61.69,3,3,0,0,1-1,.49,4.37,4.37,0,0,1-1.31.18,3.51,3.51,0,0,1-1.75-.42,3,3,0,0,1-1.17-1.16,3.45,3.45,0,0,1-.42-1.72,3.33,3.33,0,0,1,.43-1.72,2.93,2.93,0,0,1,1.18-1.16,3.49,3.49,0,0,1,1.73-.42,3.41,3.41,0,0,1,1.73.42,2.78,2.78,0,0,1,1.12,1.16,3.43,3.43,0,0,1,.4,1.69,2.62,2.62,0,0,1,0,.27c0,.1,0,.17,0,.2Z"/><path class="cls-2" d="M332.43,602.84a4.13,4.13,0,0,1-1.07-.13,2.6,2.6,0,0,1-.88-.37,1.72,1.72,0,0,1-.6-.6,1.63,1.63,0,0,1-.21-.83v-.17H331v.12a.72.72,0,0,0,.41.67,2.29,2.29,0,0,0,1.1.22,3.52,3.52,0,0,0,.75-.08,1.36,1.36,0,0,0,.54-.26.57.57,0,0,0,.2-.44.64.64,0,0,0-.43-.63,6.47,6.47,0,0,0-1.3-.33,8.09,8.09,0,0,1-.91-.21,3.65,3.65,0,0,1-.8-.35,1.84,1.84,0,0,1-.56-.55,1.64,1.64,0,0,1,.16-1.81,2.26,2.26,0,0,1,1-.64,4.15,4.15,0,0,1,1.35-.21,3.73,3.73,0,0,1,1.32.23,2.26,2.26,0,0,1,1,.67,1.57,1.57,0,0,1,.38,1.06v.11h-1.29v-.09a.73.73,0,0,0-.2-.51,1.16,1.16,0,0,0-.51-.29,2.13,2.13,0,0,0-.67-.1,3,3,0,0,0-.66.07,1.32,1.32,0,0,0-.54.23.54.54,0,0,0-.21.45.57.57,0,0,0,.21.46,1.62,1.62,0,0,0,.59.28c.26.07.55.14.89.2s.62.13.92.21a3.85,3.85,0,0,1,.8.34,1.74,1.74,0,0,1,.57.54,1.48,1.48,0,0,1,.21.81,1.6,1.6,0,0,1-.23.86,1.88,1.88,0,0,1-.62.6,3.06,3.06,0,0,1-.89.35A4.59,4.59,0,0,1,332.43,602.84Z"/><path class="cls-2" d="M337.34,602.87a.77.77,0,0,1-.57-.22.81.81,0,0,1,0-1.13.78.78,0,0,1,.57-.23.79.79,0,0,1,.55,1.36A.75.75,0,0,1,337.34,602.87Zm.64-9-.24,6.63h-.82l-.24-6.63Z"/><circle class="cls-3" cx="79.78" cy="598.98" r="8.28"/><line class="cls-4" x1="115.58" y1="598.87" x2="101.92" y2="598.87"/><line class="cls-4" x1="107.25" y1="595.78" x2="101.44" y2="598.98"/><line class="cls-4" x1="107.25" y1="602" x2="101.41" y2="598.77"/><path class="cls-2" d="M94.51,78a2.77,2.77,0,0,1,2,.71,2.52,2.52,0,0,1,.76,2,2.71,2.71,0,0,1-.83,2,3.24,3.24,0,0,1-2.34.8,2.92,2.92,0,0,1-2.4-1,4.06,4.06,0,0,1-.83-2.65,4.87,4.87,0,0,1,.76-2.73,7.17,7.17,0,0,1,1.91-2,10.54,10.54,0,0,1,2.29-1.28l.6,1.23a7.5,7.5,0,0,0-1.55.86,6,6,0,0,0-1.28,1.23,2.42,2.42,0,0,0-.53,1.39,1.11,1.11,0,0,1,.47-.31A2.37,2.37,0,0,1,94.51,78Zm7.72,0a2.72,2.72,0,0,1,2,.71,2.52,2.52,0,0,1,.76,2,2.7,2.7,0,0,1-.82,2,3.26,3.26,0,0,1-2.35.8,2.88,2.88,0,0,1-2.39-1,4.06,4.06,0,0,1-.84-2.65,4.87,4.87,0,0,1,.76-2.73,7.31,7.31,0,0,1,1.91-2,10.78,10.78,0,0,1,2.29-1.28l.61,1.23a7.26,7.26,0,0,0-1.55.86,6,6,0,0,0-1.28,1.23,2.43,2.43,0,0,0-.54,1.39,1.11,1.11,0,0,1,.47-.31A2.39,2.39,0,0,1,102.23,78Z"/><path class="cls-2" d="M126.41,78.82h-8.87l1.84-2.48v26.52h-5V76.34l1.94,2.48h-9v-4h19Z"/><path class="cls-2" d="M130.27,102.86V73.16h5v29.7Zm14.29,0v-11a6.47,6.47,0,0,0-1-3.85,3.85,3.85,0,0,0-3.33-1.34,5.46,5.46,0,0,0-2.69.62,4.14,4.14,0,0,0-1.7,1.72,5.21,5.21,0,0,0-.59,2.54l-1.83-1a8.34,8.34,0,0,1,1.1-4.28,7.66,7.66,0,0,1,3-2.94A9.05,9.05,0,0,1,142,82.34a7.08,7.08,0,0,1,5.61,2.18,8.78,8.78,0,0,1,1.94,6v12.29Z"/><path class="cls-2" d="M156.24,94.39V90.83h14.12l-.57,1v-.49a5.34,5.34,0,0,0-.59-2.46A4.54,4.54,0,0,0,167.42,87a5.85,5.85,0,0,0-3-.72,6.28,6.28,0,0,0-3.17.77,5.23,5.23,0,0,0-2.07,2.22,7.51,7.51,0,0,0-.73,3.45,8.3,8.3,0,0,0,.7,3.57,5.13,5.13,0,0,0,2.06,2.28,6.58,6.58,0,0,0,3.32.79,9.63,9.63,0,0,0,2.3-.25,4.92,4.92,0,0,0,1.58-.68,3.18,3.18,0,0,0,.94-.92,2.36,2.36,0,0,0,.37-1h5a5.6,5.6,0,0,1-.84,2.48,7.78,7.78,0,0,1-2,2.19,10.66,10.66,0,0,1-3.19,1.56,14.58,14.58,0,0,1-4.26.58,11.71,11.71,0,0,1-5.68-1.33,9.53,9.53,0,0,1-3.79-3.71,11.57,11.57,0,0,1,0-10.92,9.6,9.6,0,0,1,3.82-3.68,11.7,11.7,0,0,1,5.63-1.32A11.38,11.38,0,0,1,170,83.67a9.23,9.23,0,0,1,3.68,3.7,11.29,11.29,0,0,1,1.29,5.5c0,.26,0,.55,0,.85a4.28,4.28,0,0,1-.06.67Z"/><path class="cls-2" d="M103.31,156.28a11,11,0,0,1-5.94-1.67,11.66,11.66,0,0,1-4.24-4.89,17.46,17.46,0,0,1-1.58-7.81,17.21,17.21,0,0,1,1.63-7.84,11.88,11.88,0,0,1,4.42-4.93,11.65,11.65,0,0,1,6.22-1.7,11.23,11.23,0,0,1,4.84.94,9.31,9.31,0,0,1,3.23,2.42,9.78,9.78,0,0,1,1.8,3.11,9.28,9.28,0,0,1,.56,3v.23h-4.86V137a5.61,5.61,0,0,0-.34-1.93,5.16,5.16,0,0,0-2.79-3,6.14,6.14,0,0,0-2.44-.45,6.48,6.48,0,0,0-3.52,1A7.3,7.3,0,0,0,97.64,136a14.66,14.66,0,0,0-1,5.95,17.11,17.11,0,0,0,.57,4.75,9.08,9.08,0,0,0,1.55,3.18,6,6,0,0,0,2.24,1.77,6.43,6.43,0,0,0,2.67.56,7,7,0,0,0,3.17-.64,5.42,5.42,0,0,0,2-1.62,4.69,4.69,0,0,0,.9-1.9v-2.18h-6v-3.76h10.47v13.79h-2.89l-.42-3.12a3.85,3.85,0,0,1-.62.94,6.45,6.45,0,0,1-1.37,1.18,8.41,8.41,0,0,1-2.27,1A11.8,11.8,0,0,1,103.31,156.28Z"/><path class="cls-2" d="M129.13,156.26a11.48,11.48,0,0,1-5.62-1.34,9.73,9.73,0,0,1-3.81-3.72,10.59,10.59,0,0,1-1.38-5.43,10.48,10.48,0,0,1,1.38-5.42,9.77,9.77,0,0,1,3.81-3.68,12.54,12.54,0,0,1,11.24,0,9.64,9.64,0,0,1,3.81,3.68,10.48,10.48,0,0,1,1.38,5.42,10.59,10.59,0,0,1-1.38,5.43,9.6,9.6,0,0,1-3.81,3.72A11.48,11.48,0,0,1,129.13,156.26Zm0-4.09a5.64,5.64,0,0,0,3-.79,5.56,5.56,0,0,0,2-2.24,7.41,7.41,0,0,0,.72-3.37,7.29,7.29,0,0,0-.72-3.35,5.38,5.38,0,0,0-2-2.2,6.22,6.22,0,0,0-6,0,5.25,5.25,0,0,0-2,2.2,7.17,7.17,0,0,0-.73,3.35,7.28,7.28,0,0,0,.73,3.37,5.42,5.42,0,0,0,2,2.24A5.66,5.66,0,0,0,129.13,152.17Z"/><path class="cls-2" d="M161.11,135.68l-6.33,20.18h-6.71l-6.47-20.18h5.16l5.08,18.43H151l4.9-18.43Z"/><path class="cls-2" d="M165.27,147.39v-3.56h14.12l-.57.95v-.49a5.34,5.34,0,0,0-.59-2.46,4.57,4.57,0,0,0-1.79-1.86,5.82,5.82,0,0,0-3-.72,6.27,6.27,0,0,0-3.16.77,5.12,5.12,0,0,0-2.07,2.22,7.51,7.51,0,0,0-.73,3.45,8.3,8.3,0,0,0,.7,3.57,5.08,5.08,0,0,0,2.06,2.28,6.58,6.58,0,0,0,3.32.79,9.54,9.54,0,0,0,2.29-.25,4.88,4.88,0,0,0,1.59-.68,3.26,3.26,0,0,0,.93-.92,2.36,2.36,0,0,0,.37-1h5a5.74,5.74,0,0,1-.85,2.48,7.5,7.5,0,0,1-2,2.19,10.49,10.49,0,0,1-3.18,1.56,14.65,14.65,0,0,1-4.27.58,11.74,11.74,0,0,1-5.68-1.33,9.59,9.59,0,0,1-3.79-3.71,10.78,10.78,0,0,1-1.36-5.43,10.66,10.66,0,0,1,1.38-5.49,9.69,9.69,0,0,1,3.83-3.68,11.66,11.66,0,0,1,5.62-1.32,11.42,11.42,0,0,1,5.66,1.33,9.2,9.2,0,0,1,3.67,3.7,11.29,11.29,0,0,1,1.3,5.5c0,.26,0,.55,0,.85s0,.53-.06.67Z"/><path class="cls-2" d="M188.09,155.86V135.68h5v6.71l-1.15-.65a9.42,9.42,0,0,1,.7-2.48,6.88,6.88,0,0,1,1.37-2,6,6,0,0,1,2.07-1.38,7.28,7.28,0,0,1,2.77-.49,8.32,8.32,0,0,1,1.95.18,4,4,0,0,1,.88.29l-.91,4.58a3.93,3.93,0,0,0-.77-.33,5,5,0,0,0-1.55-.2,5.79,5.79,0,0,0-2.57.52,4.27,4.27,0,0,0-1.64,1.41,5.89,5.89,0,0,0-.88,1.94,8.4,8.4,0,0,0-.27,2.1v10Z"/><path class="cls-2" d="M204.83,155.86V135.68h5v20.18Zm14.27,0V144.52a7.47,7.47,0,0,0-.39-2.46,3.37,3.37,0,0,0-1.33-1.72,4.65,4.65,0,0,0-2.6-.63,4.76,4.76,0,0,0-2.56.69,4.88,4.88,0,0,0-1.76,1.9,6,6,0,0,0-.64,2.79L208.13,144a8.8,8.8,0,0,1,1.15-4.49,8.48,8.48,0,0,1,3.09-3.09,8.38,8.38,0,0,1,4.29-1.12,8.18,8.18,0,0,1,4.1.95,6.08,6.08,0,0,1,2.51,2.7,9.35,9.35,0,0,1,.84,4.1v12.77Z"/><path class="cls-2" d="M228.92,155.86V135.68h5v20.18Zm12.54,0V144.29a12,12,0,0,0-.1-1.55,4.75,4.75,0,0,0-.41-1.49,2.61,2.61,0,0,0-1-1.11,3.4,3.4,0,0,0-1.85-.43,3.63,3.63,0,0,0-1.93.47,3.8,3.8,0,0,0-1.29,1.23,5.5,5.5,0,0,0-.74,1.75,8.88,8.88,0,0,0-.22,2L232.24,144a10.19,10.19,0,0,1,.93-4.44,7.62,7.62,0,0,1,2.66-3.11,7.1,7.1,0,0,1,4.07-1.15,6.52,6.52,0,0,1,3.86,1,5.54,5.54,0,0,1,2,2.74,11.53,11.53,0,0,1,.62,3.88v12.88Zm12.46,0V144.25a14.61,14.61,0,0,0-.09-1.61,4.85,4.85,0,0,0-.42-1.46,2.57,2.57,0,0,0-1-1.06,3.61,3.61,0,0,0-1.86-.41,3.8,3.8,0,0,0-1.95.46,3.65,3.65,0,0,0-1.26,1.21,5.39,5.39,0,0,0-.69,1.71,8.27,8.27,0,0,0-.22,1.9l-1.67-1.1a10.05,10.05,0,0,1,.91-4.35,7.34,7.34,0,0,1,2.62-3.07,7.25,7.25,0,0,1,4.07-1.13,6.68,6.68,0,0,1,3.81,1,5.42,5.42,0,0,1,2.1,2.65,10.43,10.43,0,0,1,.66,3.83v13.07Z"/><path class="cls-2" d="M265.61,147.39v-3.56h14.11l-.57.95v-.49a5.34,5.34,0,0,0-.58-2.46,4.57,4.57,0,0,0-1.79-1.86,5.82,5.82,0,0,0-3-.72,6.24,6.24,0,0,0-3.16.77,5.2,5.2,0,0,0-2.08,2.22,7.64,7.64,0,0,0-.73,3.45,8.3,8.3,0,0,0,.71,3.57,5,5,0,0,0,2.06,2.28,6.54,6.54,0,0,0,3.31.79,9.57,9.57,0,0,0,2.3-.25,4.88,4.88,0,0,0,1.59-.68,3.26,3.26,0,0,0,.93-.92,2.36,2.36,0,0,0,.37-1h5a5.74,5.74,0,0,1-.85,2.48,7.78,7.78,0,0,1-2,2.19,10.49,10.49,0,0,1-3.18,1.56,14.65,14.65,0,0,1-4.27.58A11.74,11.74,0,0,1,268,155a9.59,9.59,0,0,1-3.79-3.71,11.57,11.57,0,0,1,0-10.92,9.62,9.62,0,0,1,3.83-3.68,11.66,11.66,0,0,1,5.62-1.32,11.35,11.35,0,0,1,5.65,1.33,9.23,9.23,0,0,1,3.68,3.7,11.29,11.29,0,0,1,1.29,5.5c0,.26,0,.55,0,.85a6.67,6.67,0,0,1,0,.67Z"/><path class="cls-2" d="M288.43,155.86V135.68h5v20.18Zm14.27,0V144.52a7.47,7.47,0,0,0-.39-2.46,3.37,3.37,0,0,0-1.33-1.72,4.65,4.65,0,0,0-2.6-.63,4.76,4.76,0,0,0-2.56.69,4.88,4.88,0,0,0-1.76,1.9,5.86,5.86,0,0,0-.64,2.79L291.73,144a8.8,8.8,0,0,1,1.15-4.49,8.48,8.48,0,0,1,3.09-3.09,8.38,8.38,0,0,1,4.29-1.12,8.21,8.21,0,0,1,4.1.95,6.08,6.08,0,0,1,2.51,2.7,9.35,9.35,0,0,1,.84,4.1v12.77Z"/><path class="cls-2" d="M321.3,156.24a12,12,0,0,1-2.21-.21,6,6,0,0,1-2-.78,4.15,4.15,0,0,1-1.5-1.67,6.33,6.33,0,0,1-.57-2.91v-11H310.2v-4h1.94a12.44,12.44,0,0,0,1.56-.08,1.31,1.31,0,0,0,.83-.41,1.94,1.94,0,0,0,.35-1,15.81,15.81,0,0,0,.09-1.93V129h5v6.65h6v4h-6v9.48a6.12,6.12,0,0,0,.35,2.26c.22.57.76.86,1.61.86a5.27,5.27,0,0,0,1.15-.12,4.87,4.87,0,0,0,.81-.22v3.91a7,7,0,0,1-1,.27A8,8,0,0,1,321.3,156.24Z"/><path class="cls-2" d="M100.52,209.28a14.59,14.59,0,0,1-3.43-.4,9.77,9.77,0,0,1-2.89-1.2,6.07,6.07,0,0,1-2-2,5.14,5.14,0,0,1-.74-2.75v-.44h5v.35a2,2,0,0,0,1.13,1.85,6.51,6.51,0,0,0,3.09.62,8.5,8.5,0,0,0,2-.23,3.64,3.64,0,0,0,1.52-.71,1.48,1.48,0,0,0,.58-1.21,1.76,1.76,0,0,0-1.22-1.71,18.42,18.42,0,0,0-3.85-.93,25.61,25.61,0,0,1-2.85-.67,10.79,10.79,0,0,1-2.56-1.12A5.82,5.82,0,0,1,92.45,197a4.48,4.48,0,0,1-.69-2.54A4.9,4.9,0,0,1,93,191.1,7.4,7.4,0,0,1,96.14,189a13.22,13.22,0,0,1,4.42-.7,12,12,0,0,1,4.31.76,7.86,7.86,0,0,1,3.22,2.18,5.08,5.08,0,0,1,1.22,3.44V195h-4.94v-.25a1.9,1.9,0,0,0-.55-1.42,3.31,3.31,0,0,0-1.42-.82,6.21,6.21,0,0,0-1.84-.27,9.17,9.17,0,0,0-1.77.18,3.69,3.69,0,0,0-1.52.63,1.44,1.44,0,0,0-.61,1.24,1.49,1.49,0,0,0,.63,1.24,5.2,5.2,0,0,0,1.75.79,25.73,25.73,0,0,0,2.58.56,24.38,24.38,0,0,1,2.8.63,11.61,11.61,0,0,1,2.6,1.06,5.48,5.48,0,0,1,1.9,1.74,4.57,4.57,0,0,1,.74,2.65,5.22,5.22,0,0,1-.76,2.85,6.26,6.26,0,0,1-2.07,1.95,9.88,9.88,0,0,1-2.93,1.13A15.7,15.7,0,0,1,100.52,209.28Z"/><path class="cls-2" d="M113.78,208.86v-29.7h5v29.7Zm14.29,0v-11a6.47,6.47,0,0,0-1-3.85,3.87,3.87,0,0,0-3.34-1.34,5.45,5.45,0,0,0-2.68.62,4.09,4.09,0,0,0-1.7,1.72,5.21,5.21,0,0,0-.59,2.54l-1.83-1a8.43,8.43,0,0,1,1.09-4.28,7.75,7.75,0,0,1,3-2.94,9.05,9.05,0,0,1,4.44-1.06,7.1,7.1,0,0,1,5.61,2.18,8.77,8.77,0,0,1,1.93,6v12.29Z"/><path class="cls-2" d="M147.81,209.26a11.54,11.54,0,0,1-5.63-1.34,9.73,9.73,0,0,1-3.81-3.72,10.69,10.69,0,0,1-1.37-5.43,10.57,10.57,0,0,1,1.37-5.42,9.77,9.77,0,0,1,3.81-3.68,12.56,12.56,0,0,1,11.25,0,9.77,9.77,0,0,1,3.81,3.68,10.48,10.48,0,0,1,1.38,5.42,10.59,10.59,0,0,1-1.38,5.43,9.73,9.73,0,0,1-3.81,3.72A11.48,11.48,0,0,1,147.81,209.26Zm0-4.09a5.64,5.64,0,0,0,3-.79,5.46,5.46,0,0,0,2-2.24,7.41,7.41,0,0,0,.72-3.37,7.29,7.29,0,0,0-.72-3.35,5.29,5.29,0,0,0-2-2.2,6.22,6.22,0,0,0-6,0,5.27,5.27,0,0,0-2,2.2,7.29,7.29,0,0,0-.72,3.35,7.41,7.41,0,0,0,.72,3.37,5.44,5.44,0,0,0,2,2.24A5.63,5.63,0,0,0,147.81,205.17Z"/><path class="cls-2" d="M170,209.24a7.81,7.81,0,0,1-3.56-.72,5.88,5.88,0,0,1-2.23-1.9,8,8,0,0,1-1.14-2.6,12.75,12.75,0,0,1-.33-2.86V188.68h5v11.19a9.06,9.06,0,0,0,.32,2.5,3.51,3.51,0,0,0,1.19,1.85,3.75,3.75,0,0,0,2.44.71,4,4,0,0,0,2.58-.89,5.88,5.88,0,0,0,1.69-2.23,6.83,6.83,0,0,0,.59-2.74l1.71,1.15a10.38,10.38,0,0,1-.57,3.46,8.73,8.73,0,0,1-1.65,2.88,7.7,7.7,0,0,1-2.61,2A8.15,8.15,0,0,1,170,209.24Zm6.57-.38V188.68h5v20.18Z"/><path class="cls-2" d="M191.6,179.16v29.7h-4.92v-29.7Z"/><path class="cls-2" d="M205.09,209.28a9.13,9.13,0,0,1-4.61-1.21,8.77,8.77,0,0,1-3.39-3.56,12,12,0,0,1-1.27-5.8,11.39,11.39,0,0,1,1.3-5.66,9,9,0,0,1,3.42-3.51,9.08,9.08,0,0,1,4.55-1.2,8.56,8.56,0,0,1,4.39,1.17,8.88,8.88,0,0,1,3.23,3.24,9.2,9.2,0,0,1,1.22,4.75v.3l-2.47.06v-.25a4.6,4.6,0,0,0-.75-2.62,5.38,5.38,0,0,0-1.94-1.76,5.29,5.29,0,0,0-2.52-.63,5.17,5.17,0,0,0-3.72,1.47,6.15,6.15,0,0,0-1.54,4.64,6.23,6.23,0,0,0,1.54,4.66,5.32,5.32,0,0,0,6.29.83,5.31,5.31,0,0,0,1.91-1.83,5,5,0,0,0,.73-2.69l2.47.12a9.8,9.8,0,0,1-1.19,4.81,9.09,9.09,0,0,1-3.18,3.41A8.2,8.2,0,0,1,205.09,209.28Zm6.37-.42v-29.7h5v29.7Z"/><path class="cls-2" d="M101.64,262.24a12.05,12.05,0,0,1-2.21-.21,6.06,6.06,0,0,1-2.05-.78,4.15,4.15,0,0,1-1.5-1.67,6.33,6.33,0,0,1-.57-2.91v-11H90.54v-4h1.94A12.44,12.44,0,0,0,94,241.6a1.29,1.29,0,0,0,.83-.41,2,2,0,0,0,.36-1,18.68,18.68,0,0,0,.08-1.93V235h5v6.65h6v4h-6v9.48a6.14,6.14,0,0,0,.34,2.26,1.54,1.54,0,0,0,1.61.86,5.27,5.27,0,0,0,1.15-.12,4.87,4.87,0,0,0,.81-.22v3.91a7.16,7.16,0,0,1-1,.27A8.19,8.19,0,0,1,101.64,262.24Z"/><path class="cls-2" d="M116.46,262.28a10.15,10.15,0,0,1-4-.72,6,6,0,0,1-2.68-2.06,5.39,5.39,0,0,1-1-3.25,5.14,5.14,0,0,1,1.13-3.41,7.31,7.31,0,0,1,3-2.07,16.22,16.22,0,0,1,4.26-.94,46.1,46.1,0,0,0,4.83-.65q1.38-.31,1.38-1v0a2.27,2.27,0,0,0-1.2-2.05,6.58,6.58,0,0,0-3.38-.72,6.42,6.42,0,0,0-3.53.81,2.84,2.84,0,0,0-1.22,2.55h-4.94a6.43,6.43,0,0,1,1.26-4,7.93,7.93,0,0,1,3.47-2.5,13.72,13.72,0,0,1,5-.85,14,14,0,0,1,4.77.78,7.79,7.79,0,0,1,3.47,2.36,5.9,5.9,0,0,1,1.31,3.93v9.19c0,.49,0,1,.05,1.42a6.18,6.18,0,0,0,.2,1.24,4.3,4.3,0,0,0,.46,1,3.28,3.28,0,0,0,.41.57h-4.93a3,3,0,0,1-.38-.52,5.15,5.15,0,0,1-.42-.91,7,7,0,0,1-.29-1.22,10.74,10.74,0,0,1-.09-1.45l1,.68a5.54,5.54,0,0,1-1.74,2A8.61,8.61,0,0,1,120,261.8,12.26,12.26,0,0,1,116.46,262.28Zm1.21-3.93a7.59,7.59,0,0,0,2.89-.54,4.82,4.82,0,0,0,2.15-1.64,4.73,4.73,0,0,0,.82-2.86v-2.7l1.21,1.37a16.87,16.87,0,0,1-2.92.75c-1.14.2-2.3.35-3.46.47A9.76,9.76,0,0,0,115,254a1.92,1.92,0,0,0-1.14,1.86,2.1,2.1,0,0,0,1,1.88A5.2,5.2,0,0,0,117.67,258.35Z"/><path class="cls-2" d="M139.81,250.86l0,2.28-8.23-11.46H137l6.19,9-3,0,6.08-9h5.36l-7.89,10.81-.13-2.09,8.13,11.46h-5.47l-6.29-9,3.38-.3-6.78,9.27h-5.36Z"/><path class="cls-2" d="M173.76,262.24a11.87,11.87,0,0,1-2.2-.21,6,6,0,0,1-2.05-.78,4.1,4.1,0,0,1-1.51-1.67,6.33,6.33,0,0,1-.57-2.91v-11h-4.76v-4h1.93a12.44,12.44,0,0,0,1.56-.08,1.34,1.34,0,0,0,.84-.41,2.13,2.13,0,0,0,.35-1,16.2,16.2,0,0,0,.08-1.93V235h5v6.65h6v4h-6v9.48a6.14,6.14,0,0,0,.34,2.26,1.55,1.55,0,0,0,1.62.86,5.34,5.34,0,0,0,1.15-.12,4.44,4.44,0,0,0,.8-.22v3.91a6.82,6.82,0,0,1-1,.27A8.19,8.19,0,0,1,173.76,262.24Z"/><path class="cls-2" d="M182.22,261.86v-29.7h5v29.7Zm14.28,0v-11a6.48,6.48,0,0,0-1-3.85,3.89,3.89,0,0,0-3.34-1.34,5.49,5.49,0,0,0-2.69.62,4.14,4.14,0,0,0-1.7,1.72,5.32,5.32,0,0,0-.59,2.54l-1.82-1a8.33,8.33,0,0,1,1.09-4.28,7.79,7.79,0,0,1,3-2.94,9.09,9.09,0,0,1,4.45-1.06,7.08,7.08,0,0,1,5.6,2.18,8.78,8.78,0,0,1,1.94,6v12.29Z"/><path class="cls-2" d="M208.19,253.39v-3.56h14.12l-.57.95v-.49a5.34,5.34,0,0,0-.59-2.46,4.57,4.57,0,0,0-1.79-1.86,5.82,5.82,0,0,0-3-.72,6.27,6.27,0,0,0-3.16.77,5.12,5.12,0,0,0-2.07,2.22,7.51,7.51,0,0,0-.73,3.45,8.3,8.3,0,0,0,.7,3.57,5.08,5.08,0,0,0,2.06,2.28,6.58,6.58,0,0,0,3.32.79,9.54,9.54,0,0,0,2.29-.25,4.88,4.88,0,0,0,1.59-.68,3.26,3.26,0,0,0,.93-.92,2.36,2.36,0,0,0,.37-1h5a5.74,5.74,0,0,1-.85,2.48,7.5,7.5,0,0,1-2,2.19,10.49,10.49,0,0,1-3.18,1.56,14.65,14.65,0,0,1-4.27.58,11.74,11.74,0,0,1-5.68-1.33,9.59,9.59,0,0,1-3.79-3.71,10.78,10.78,0,0,1-1.36-5.43,10.66,10.66,0,0,1,1.38-5.49,9.69,9.69,0,0,1,3.83-3.68,11.66,11.66,0,0,1,5.62-1.32,11.42,11.42,0,0,1,5.66,1.33,9.2,9.2,0,0,1,3.67,3.7,11.29,11.29,0,0,1,1.29,5.5c0,.26,0,.55,0,.85s0,.53-.06.67Z"/><path class="cls-2" d="M92.37,314.86V294.68h5v6.71l-1.16-.65a9.83,9.83,0,0,1,.71-2.48,6.88,6.88,0,0,1,1.37-2.05,6,6,0,0,1,2.07-1.38,7.28,7.28,0,0,1,2.77-.49,8.38,8.38,0,0,1,1.95.18,4,4,0,0,1,.88.29l-.91,4.58a3.93,3.93,0,0,0-.77-.33,5,5,0,0,0-1.55-.2,5.79,5.79,0,0,0-2.57.52,4.38,4.38,0,0,0-1.65,1.41,6.08,6.08,0,0,0-.87,1.94,8.4,8.4,0,0,0-.27,2.1v10Z"/><path class="cls-2" d="M111.5,291a3.49,3.49,0,0,1-2.12-.66,2.13,2.13,0,0,1-.9-1.83,2.11,2.11,0,0,1,.9-1.81,3.55,3.55,0,0,1,2.12-.64,3.48,3.48,0,0,1,2.09.64,2.12,2.12,0,0,1,.89,1.81,2.15,2.15,0,0,1-.89,1.83A3.43,3.43,0,0,1,111.5,291ZM109,314.86V294.68H114v20.18Z"/><path class="cls-2" d="M128.86,315.28a11.85,11.85,0,0,1-5.64-1.31,9.74,9.74,0,0,1-3.84-3.69,10.88,10.88,0,0,1-1.38-5.57,10.66,10.66,0,0,1,1.38-5.51,9.52,9.52,0,0,1,3.84-3.6,12.2,12.2,0,0,1,5.64-1.26,11.82,11.82,0,0,1,4.24.7,9.66,9.66,0,0,1,3.11,1.87,8.64,8.64,0,0,1,1.93,2.57,6.47,6.47,0,0,1,.66,2.78v.15h-5a.71.71,0,0,0,0-.2l0-.23a3.89,3.89,0,0,0-.78-1.76,4.33,4.33,0,0,0-1.68-1.26,6.53,6.53,0,0,0-5.4.22,5,5,0,0,0-2.07,2.08,7,7,0,0,0-.77,3.45,7.35,7.35,0,0,0,.76,3.49,5.32,5.32,0,0,0,2.06,2.19,5.7,5.7,0,0,0,2.9.75,6.25,6.25,0,0,0,2.76-.53,3.76,3.76,0,0,0,1.63-1.4,4.23,4.23,0,0,0,.62-1.93h5a6.72,6.72,0,0,1-.64,2.82,8.32,8.32,0,0,1-1.9,2.59,9.17,9.17,0,0,1-3.11,1.88A12,12,0,0,1,128.86,315.28Z"/><path class="cls-2" d="M142.92,314.86v-29.7h5v29.7Zm14.29,0v-11a6.4,6.4,0,0,0-1-3.85,3.85,3.85,0,0,0-3.33-1.34,5.49,5.49,0,0,0-2.69.62,4.14,4.14,0,0,0-1.7,1.72,5.32,5.32,0,0,0-.59,2.54l-1.82-1a8.33,8.33,0,0,1,1.09-4.28,7.79,7.79,0,0,1,3-2.94,9.07,9.07,0,0,1,4.45-1.06,7.08,7.08,0,0,1,5.6,2.18,8.78,8.78,0,0,1,1.94,6.05v12.29Z"/><path class="cls-2" d="M169.51,315.39a2.8,2.8,0,0,1-2.82-2.81,2.76,2.76,0,0,1,.82-2,2.82,2.82,0,0,1,4,0,2.73,2.73,0,0,1,.83,2,2.82,2.82,0,0,1-2.81,2.81ZM172,286.87,171,307.43H168l-1-20.56Z"/><path class="cls-2" d="M179.56,291.62a2.75,2.75,0,0,1-2-.72,2.57,2.57,0,0,1-.75-1.94,2.74,2.74,0,0,1,.83-2,3.2,3.2,0,0,1,2.34-.81,2.88,2.88,0,0,1,2.39,1,4.15,4.15,0,0,1,.82,2.67,5,5,0,0,1-.75,2.72,7,7,0,0,1-1.9,2,10.37,10.37,0,0,1-2.3,1.28l-.59-1.23a7.72,7.72,0,0,0,1.55-.87,5.69,5.69,0,0,0,1.27-1.22,2.47,2.47,0,0,0,.52-1.39,1.29,1.29,0,0,1-.46.3A2.14,2.14,0,0,1,179.56,291.62Zm7.71,0a2.76,2.76,0,0,1-2-.72,2.57,2.57,0,0,1-.75-1.94,2.74,2.74,0,0,1,.83-2,3.19,3.19,0,0,1,2.33-.81,2.89,2.89,0,0,1,2.4,1,4.15,4.15,0,0,1,.83,2.67,5,5,0,0,1-.76,2.72,7.32,7.32,0,0,1-1.9,2,10.37,10.37,0,0,1-2.3,1.28l-.59-1.23a8.24,8.24,0,0,0,1.54-.87,5.69,5.69,0,0,0,1.27-1.22,2.42,2.42,0,0,0,.53-1.39,1.29,1.29,0,0,1-.46.3A2.2,2.2,0,0,1,187.27,291.62Z"/><polyline class="cls-5" points="89.86 402.27 204.37 402.27 236.83 423.82 232.07 402.27 321.95 402.27"/><path class="cls-2" d="M225.07,564.6s2.29-18,8.16-26.83a121,121,0,0,1,10.93-14.29,5.66,5.66,0,0,1,1.91-3.11,90.94,90.94,0,0,0,7.14-5.8c2.09-2,3.43-6.87,4.85-8.8s2.29-3,3.74-2.91l1.45.14-.3-2.89a12.35,12.35,0,0,1-3.29-2.27,32.85,32.85,0,0,0-3.2-2.68s-4.88,1.09-6.7-2.84c-2.1-4.53-.65-7.61-.65-7.61l-2.36-2.93s-5.43-4.25-3.38-10.13,17.48-17.42,17.48-17.42l16.25,2.56,8.71,5.91,2.06,8.19s2.32,4.07,2.32,7.75c0,5.19-4.1,6.17-4.1,6.17l-.59,5,3.07,14.46s2.3-1,3.66-.39,5.36,5.17,7.12,8,7.21,2.53,9.94,5.65,5.26,7.52,7.1,8.44,4.58.92,8.44,7.53A111.08,111.08,0,0,1,332,549.42s-16.3,13.4-50.62,15.18S225.07,564.6,225.07,564.6Z"/><path class="cls-2" d="M325.93,540.71v-3.85a113.47,113.47,0,0,1-1.11-14.29,83.72,83.72,0,0,1,1.11-11l1.36-13,3.89-21.12,2.28-7.09a1.76,1.76,0,0,1,1.74-1.62c1.58,0,1,2.77,1,2.77l-2,10.13-.76,4.09s1.73-.85,2.4.57,1.06,1.45,1.06,1.45a1.7,1.7,0,0,1,2.19-.65,8,8,0,0,1,2.31,1.93s1.19-.86,1.67,0,2,3.47,1.41,6.24-1.41,3.3-1.41,3.3a50.16,50.16,0,0,1-.65,6.12c-.47,2.22-3,3.87-3.33,5.1a4.38,4.38,0,0,1-.83,1.77s1.19-.39,2.36,2.09,5.51,12.32,6.81,16.36,2.57,7.81,1.14,12.84-3,5.61-3,5.61a221.82,221.82,0,0,1-44.77,13.61"/><path d="M248.84,483.8a9.36,9.36,0,0,0,.25,8.42,7.27,7.27,0,0,0,2.54,3,5.53,5.53,0,0,0,4.51.47c.71-.23.41-1.36-.31-1.13a4.32,4.32,0,0,1-3.84-.5,7,7,0,0,1-2-2.62,8.09,8.09,0,0,1-.17-7.1c.31-.68-.7-1.27-1-.59Z"/><path d="M255.9,495.49c1.34,1.24,2.72,2.44,4.16,3.54a9.4,9.4,0,0,0,4.51,2,.59.59,0,0,0,.59-.59.6.6,0,0,0-.59-.59,8.23,8.23,0,0,1-4-1.91c-1.31-1.05-2.6-2.14-3.83-3.27-.55-.52-1.38.31-.83.82Z"/><path d="M262.45,500.54A19.36,19.36,0,0,1,263.84,512c-.13.74,1,1.06,1.13.31A20.67,20.67,0,0,0,263.46,500c-.33-.68-1.34-.08-1,.59Z"/><path d="M286,471.05c2.46-.49,3.22,4.19,3.47,5.78.36,2.2.16,4.95-1.86,6.34-.6.41-1.45.49-1.91,1.08s-.3,1.34-.34,2a12.78,12.78,0,0,1-2.22,6.45c-.42.62.6,1.21,1,.59a14,14,0,0,0,2.38-7,4.52,4.52,0,0,1,0-1c.12-.34.51-.44.79-.57a6.57,6.57,0,0,0,1.22-.73,5.87,5.87,0,0,0,1.74-2.48c1-2.47.35-5.29-.38-7.74-.55-1.88-1.95-4.21-4.25-3.76-.74.15-.42,1.28.32,1.13Z"/><path d="M284.94,489.51a175.34,175.34,0,0,1,3.83,19.15c.09.74,1.27.75,1.17,0a177.32,177.32,0,0,0-3.87-19.47c-.18-.73-1.31-.42-1.13.32Z"/><path d="M252.48,478c2.29-1.86,5-4.06,8.21-3.5.74.13,1.06-1,.31-1.13-3.64-.65-6.68,1.63-9.34,3.8-.59.48.24,1.3.82.83Z"/><path d="M267.66,472c2-2.37,5.09-3.16,7.95-3.86a.59.59,0,0,0-.31-1.13c-3.05.75-6.37,1.64-8.47,4.16-.48.58.34,1.41.83.83Z"/><path d="M267,486a10,10,0,0,0,2.25-1.84.59.59,0,0,0-.83-.83,8.71,8.71,0,0,1-1,.94l-.14.11-.05,0,.06,0,0,0-.27.2c-.19.13-.38.26-.58.37a.59.59,0,0,0-.21.81.6.6,0,0,0,.8.21Z"/><path d="M263,511.33a15.14,15.14,0,0,0,2.71,9c1.92,2.51,5.13,4.34,8,5.52a13.38,13.38,0,0,0,10.32,0,12.19,12.19,0,0,0,6.6-8.54,26.93,26.93,0,0,0,.56-7.6c-.06-1.44.13-4-1.7-4.39a.59.59,0,0,0-.31,1.13c1,.24.8,2.5.84,3.26.05,1.24.07,2.48,0,3.71a16.49,16.49,0,0,1-1.8,7,10.44,10.44,0,0,1-10.29,5.29,14.52,14.52,0,0,1-5.89-2A21.72,21.72,0,0,1,267.9,521c-2.66-2.39-3.74-6.15-3.75-9.65a.59.59,0,0,0-1.17,0Z"/><path d="M263.41,502.35c-3.1-.77-5.39,1.81-6.52,4.38a38.53,38.53,0,0,1-2.16,4.82,20.47,20.47,0,0,1-3.4,4c-1.25,1.18-2.58,2.26-3.92,3.33-1.16.94-2.66,1.86-3.39,3.2-.84,1.54-.79,3.73-1,5.43l-.83,6.13c-.06.45.39,1,.86.66q4.72-3.24,9.23-6.8h-.83c.68.59,0,1.78-.09,2.52a3.05,3.05,0,0,0,.17,1.84,12.15,12.15,0,0,0,1.64,2.14l2.18,2.64,9,11c.48.58,1.31-.25.83-.83l-9-11L254,533.2c-.78-.94-1.68-1.7-1.48-3s.89-2.53-.24-3.5a.61.61,0,0,0-.83,0q-4.39,3.46-9,6.62l.86.66.74-5.42a36.63,36.63,0,0,1,.77-5.23c.44-1.54,2.11-2.51,3.29-3.47s2.36-1.9,3.49-2.92a20.08,20.08,0,0,0,5.24-6.92c1.1-2.57,2.48-7.48,6.28-6.54a.59.59,0,0,0,.31-1.13Z"/><path d="M263.27,510.83a9,9,0,0,0-4.58,4.65,11.93,11.93,0,0,0-.26,7.36,79.74,79.74,0,0,0,6.1,16.47c.32.68,1.33.09,1-.59a96.51,96.51,0,0,1-5.52-14.4c-.68-2.37-1.29-5.08-.57-7.52a7.93,7.93,0,0,1,4.41-5c.69-.3.1-1.31-.59-1Z"/><path d="M289.39,504.11c4.85-1,7.13,5.07,9.72,8a12.32,12.32,0,0,0,4.74,3.13c1.9.78,3.91,1.41,5.46,2.82,2.62,2.39,3.7,6.08,6.68,8.14,1.77,1.23,3.86,1.69,5.46,3.22a20.37,20.37,0,0,1,3.66,5.42c.35.67,1.36.08,1-.59-1.49-2.87-3.25-5.81-6.21-7.37-1.61-.84-3.23-1.37-4.51-2.72a26.16,26.16,0,0,1-2.78-3.83,16,16,0,0,0-2.75-3.33A14,14,0,0,0,306,514.8a17.11,17.11,0,0,1-5.05-2.58,20.85,20.85,0,0,1-3.36-4.23c-1.94-2.82-4.72-5.76-8.48-5-.74.15-.42,1.28.31,1.13Z"/><path d="M314,524.52l-.72,16.81.88-.51-13.67-8.58c-.59-.37-1.12.44-.71.93,1.58,1.86-1.57,3.81-2.69,4.88a23.32,23.32,0,0,0-3.15,3.72,21.81,21.81,0,0,0-3.84,8.94c-.11.74,1,1.06,1.14.31a21.81,21.81,0,0,1,5.33-10.74c1.74-2,6.67-4.84,4-7.94l-.71.92,13.67,8.57a.59.59,0,0,0,.88-.5l.72-16.81c0-.76-1.14-.76-1.17,0Z"/><path d="M289.54,505.94c4.32,1.27,6.62,5.73,6.72,10,.12,5-2.14,9.61-4.21,14a53.05,53.05,0,0,0-4.42,13.13,119.77,119.77,0,0,0-1.5,14.39c-.05.76,1.12.75,1.17,0,.53-8.34,1.19-16.7,4.61-24.44,2.92-6.6,7.51-14.15,4.7-21.58a10.63,10.63,0,0,0-6.76-6.65.59.59,0,0,0-.31,1.13Z"/><path d="M243.75,523a66.38,66.38,0,0,0-19.27,41.53c-.07.75,1.11.75,1.17,0a65.22,65.22,0,0,1,18.92-40.7.58.58,0,0,0-.82-.83Z"/><path d="M253.78,487.55a4.92,4.92,0,0,0-1.7-1.95c-.71-.55-1.38-1.12-2-1.72a18.89,18.89,0,0,1-1.56-1.54,13.7,13.7,0,0,1-1.22-1.69c-.4-.64-1.42,0-1,.59A15.81,15.81,0,0,0,249,484.5c.67.62,1.34,1.23,2.06,1.78a4.65,4.65,0,0,1,1.6,1.58.59.59,0,1,0,1.13-.31Z"/><path d="M253.78,487.55c-.51-2.75-1-5.51-1.51-8.26-.46-2.53-1-5.28.28-7.67l-.8.21a1.82,1.82,0,0,0,2.43-.5c.25-.36.17-1.57.44-1.74s1.45.35,1.73.38a2,2,0,0,0,1.35-.21c.56-.36.64-1.22,1.16-1.52s1.5.16,2.07.27a3,3,0,0,0,1.74-.05.6.6,0,0,0,.41-.72c-.27-1.11,2.48-.87,3-1a2.3,2.3,0,0,0,1.8-1c.14-.28.05-.74.18-1,.45-.75,2-.28,2.57-.16a15,15,0,0,1,4.25,1.58.59.59,0,0,0,.71-.1,2.23,2.23,0,0,0,.51-2l-.86.66a15.39,15.39,0,0,1,8.33,12,.59.59,0,0,0,1.15.15l1.64-6.28a.59.59,0,0,0-1.14-.31l-1.63,6.28,1.15.16a16.53,16.53,0,0,0-8.91-13,.59.59,0,0,0-.86.66l-.21.85.71-.1a16.22,16.22,0,0,0-5.37-1.84c-1.16-.17-2.82-.47-3.2,1-.07.29.06.73-.15,1s-1,.35-1.43.37a6.42,6.42,0,0,0-1.9.18,1.85,1.85,0,0,0-1.49,2.19l.41-.72c-1.1.39-2.18-.46-3.3-.34a1.81,1.81,0,0,0-1.06.45c-.49.42-.57,1.27-1.31,1.39s-1.7-.69-2.62-.3a1.29,1.29,0,0,0-.63.59c-.27.52,0,2.33-1.1,1.7a.59.59,0,0,0-.8.21c-1.23,2.28-1,4.8-.63,7.27.53,3.19,1.15,6.38,1.74,9.56.13.74,1.26.43,1.13-.31Z"/><ellipse class="cls-6" cx="258.78" cy="480.15" rx="1.51" ry="2.31" transform="translate(-144.73 113.15) rotate(-19.39)"/><ellipse class="cls-6" cx="272.96" cy="475.43" rx="1.51" ry="2.31" transform="translate(-142.36 117.59) rotate(-19.39)"/><path class="cls-6" d="M256.61,479.79l3.21-1.33a.61.61,0,0,0,.41-.72.59.59,0,0,0-.72-.41l-3.21,1.33a.61.61,0,0,0-.41.72.59.59,0,0,0,.72.41Z"/><path class="cls-6" d="M270.69,474.85l3.19-1.37a.58.58,0,0,0,.21-.8.61.61,0,0,0-.8-.21l-3.19,1.37a.59.59,0,0,0-.21.8.61.61,0,0,0,.8.21Z"/><path class="cls-7" d="M249.34,484.1c-2-2.13-5.72-4-7.63-10.66a20.43,20.43,0,0,1-.34-8.6,61.67,61.67,0,0,1,3.44-13.15,21.81,21.81,0,0,1,4.17-7.32,9.54,9.54,0,0,1,7.54-3.21c2.75.26,5.19,2,7.94,2.25,1.91.13,4-.49,5.68.34,1.53.73,2.38,2.43,3.82,3.33a14.89,14.89,0,0,0,3.68,1.23c5.89,1.84,13.2,15.46,10.26,22.76-6.95-11.69-15.47-12.55-22.76-11.58-5,.67-9.93,2.43-13.65,5.79s-8.76,12.27-2.15,18.82"/><path d="M249.76,483.68c-1.4-1.48-3.08-2.65-4.38-4.23a17,17,0,0,1-3.7-10.05,40.75,40.75,0,0,1,2-12.43c1.06-3.72,2.33-7.68,4.62-10.83,2.5-3.44,6.34-5.25,10.49-3.85a27.56,27.56,0,0,0,5.2,1.65c1.79.23,3.71-.39,5.44.16s2.54,2.24,3.9,3.23,2.88,1.07,4.36,1.61c2.2.8,4,2.8,5.3,4.64,3.33,4.55,6.54,11.67,4.37,17.33l1.07-.14c-2.46-4.09-5.66-7.89-10-10.07A20.63,20.63,0,0,0,268,458.65c-8.61.41-17.64,4.08-21.2,12.44-2,4.69-1.47,9.71,2.17,13.42.53.54,1.36-.29.83-.83-6.34-6.47-1.57-16.14,5.12-20.17a27.8,27.8,0,0,1,12.56-3.66,20.3,20.3,0,0,1,9.59,1.47c4.54,2,7.85,5.87,10.37,10a.59.59,0,0,0,1.07-.14c2.06-5.37-.51-12-3.36-16.56a19,19,0,0,0-5.34-5.94,11.77,11.77,0,0,0-3.68-1.42,5.91,5.91,0,0,1-2.7-1.44c-.66-.63-1.23-1.36-1.93-1.94-1.45-1.2-3.13-1.25-4.92-1.14a14.36,14.36,0,0,1-6.29-1.19,11.22,11.22,0,0,0-5.41-1,10.26,10.26,0,0,0-5,2.16c-3.18,2.48-4.81,6.39-6.13,10.08A58.66,58.66,0,0,0,240.64,466a19.43,19.43,0,0,0,2.75,12.72c1.5,2.33,3.67,3.84,5.54,5.81.52.55,1.35-.28.83-.83Z"/><path d="M338.69,511.37c-1.28,1.72-2.5,3-4.77,3.1-2.83.08-5.37-2.16-7.53-3.73a.5.5,0,0,0-.68.18,12.77,12.77,0,0,0-1,4,58.07,58.07,0,0,0-.58,7.21c-.14,5.59.25,11.52,2.42,16.73.24.58,1.2.32,1-.26-2.11-5-2.5-10.73-2.4-16.14a56.92,56.92,0,0,1,.54-7.15,12.4,12.4,0,0,1,.91-3.9l-.68.18c2.57,1.87,5.33,4.19,8.7,3.82,2.32-.25,3.63-1.76,5-3.54.38-.51-.48-1-.85-.5Z"/><path d="M338.76,512a13.68,13.68,0,0,1,2.49,3.88c1.16,2.25,2.17,4.57,3.1,6.91,1.83,4.6,3.76,9.57,4.21,14.53a16,16,0,0,1-3.25,11c-.38.51.48,1,.86.5a17.09,17.09,0,0,0,3.44-10.19,26.32,26.32,0,0,0-1.12-6.7,87.28,87.28,0,0,0-5.93-15.63,16.68,16.68,0,0,0-3.1-5c-.46-.43-1.16.27-.7.7Z"/><path d="M338.7,512.8a4.74,4.74,0,0,1,1.6-3.6,10.56,10.56,0,0,0,2.17-3,19.42,19.42,0,0,0,1.11-7.53.49.49,0,0,0-1,0c0,2.59-.07,5.4-1.32,7.74a24.24,24.24,0,0,1-2.43,3,5,5,0,0,0-1.14,3.42c.05.63,1,.63,1,0Z"/><path d="M326.42,510.83a253.42,253.42,0,0,1,4.86-31.47,35.87,35.87,0,0,1,2.22-7.45c.29-.64,1.05-2.63,2-2.61s.38,2.46.31,3c-.7,4.77-2.23,9.39-3,14.15-.1.62.85.89.95.26.77-4.81,2.31-9.47,3-14.28.15-1,.47-2.65-.17-3.59a1.48,1.48,0,0,0-2.21-.06,8.12,8.12,0,0,0-2,3.34,34.59,34.59,0,0,0-1.48,4.59c-1.23,4.73-2,9.62-2.88,14.43-1.14,6.52-2,13.09-2.56,19.69-.05.63.94.63,1,0Z"/><path d="M333.81,486.14a.16.16,0,0,1,.11-.07.86.86,0,0,1,.28,0,2.27,2.27,0,0,1,.77.17,2.44,2.44,0,0,1,1.18,1.56,11.11,11.11,0,0,1,.09,4.87c0,.27.26.49.5.5a.51.51,0,0,0,.49-.5c.25-1.93.45-4-.42-5.84a2.88,2.88,0,0,0-1.81-1.62,1.86,1.86,0,0,0-1.89.26c-.42.48.28,1.19.7.7Z"/><path d="M337.27,488.16a1.71,1.71,0,0,1,1.78-.51,2.61,2.61,0,0,1,1.67,1.36,6.67,6.67,0,0,1,.7,2.47,12,12,0,0,1,0,3.33c-.1.62.85.89,1,.26a13.34,13.34,0,0,0,0-3.94,6.7,6.7,0,0,0-1-3,3.43,3.43,0,0,0-2.31-1.5,2.64,2.64,0,0,0-2.47.81c-.4.49.3,1.2.7.7Z"/><path d="M341.71,489.28c.53-.24,1.08.22,1.34.64a5.92,5.92,0,0,1,.6,1.68,12.13,12.13,0,0,1,.31,4,4.23,4.23,0,0,1-.49,1.78c-.4.68-1,.48-1.49,0s-1.19.29-.7.7a2.06,2.06,0,0,0,2.29.55,2.77,2.77,0,0,0,1.16-1.79A9.31,9.31,0,0,0,345,494a12.09,12.09,0,0,0-.78-4c-.49-1.2-1.65-2.21-3-1.61-.58.26-.08,1.12.5.86Z"/><path d="M333.23,490.09a10,10,0,0,1-.91,3.16.51.51,0,0,0,.18.68.5.5,0,0,0,.67-.18,11.15,11.15,0,0,0,1.05-3.66.5.5,0,0,0-1,0Z"/><path d="M331,493.76c1.82.14,3.62.35,5.41.66.88.16,1.77.33,2.64.53.63.14,1.51.28,1.78,1a1.57,1.57,0,0,1-.41,1.6,2.6,2.6,0,0,1-2,.64c-1.34,0-2.76-.92-3.94.08a.46.46,0,0,0-.13.48l1.13,3c.22.6,1.17.34.95-.26l-1.13-3-.12.48c.48-.41,1.26-.15,1.8,0a6.46,6.46,0,0,0,1.9.22,3.1,3.1,0,0,0,2.8-1.79,2.22,2.22,0,0,0-1-2.89,8.36,8.36,0,0,0-2-.58c-.78-.16-1.57-.32-2.36-.45q-2.67-.45-5.39-.64c-.63,0-.63.94,0,1Z"/><path d="M273.84,485.22a21.76,21.76,0,0,0-3.47,1.5,8.66,8.66,0,0,0-2.47,1.81,3.66,3.66,0,0,0-1,2.82c.15,1.16,1.25,1.57,2.26,1.79a7.46,7.46,0,0,0,5.31-.84,6.75,6.75,0,0,0,3.22-4.12,3,3,0,0,0-.59-2.76c-.93-.92-2.16-.45-3.24-.2-.86.2-.5,1.52.36,1.32.52-.12,1.49-.62,1.95-.12a1.77,1.77,0,0,1,.18,1.51A5.44,5.44,0,0,1,274,491a6.14,6.14,0,0,1-3.83.93,5.14,5.14,0,0,1-.95-.18c-.28-.07-.79-.16-.94-.45a1.42,1.42,0,0,1,.1-.95,2.71,2.71,0,0,1,.61-1,8.46,8.46,0,0,1,2.25-1.58,19.17,19.17,0,0,1,3-1.27c.83-.28.47-1.6-.36-1.32Z"/></g></g></svg>