<svg xmlns="http://www.w3.org/2000/svg" viewBox="0 0 440 672"><defs><style>.cls-1,.cls-6{fill:#fff;}.cls-1{opacity:0.05;}.cls-2{fill:#d6d6f2;}.cls-3,.cls-4{fill:none;stroke-miterlimit:10;}.cls-3{stroke:aqua;stroke-linecap:round;stroke-width:0.8px;stroke-dasharray:1.61 4.01;}.cls-4{stroke:#fff;stroke-width:0.5px;}.cls-5{fill:#e200ff;}.cls-7{fill:#8c33ff;}.cls-8{fill:#1a171b;}</style></defs><g id="Layer_2" data-name="Layer 2"><g id="Layer_2-2" data-name="Layer 2"><rect class="cls-1" width="440" height="672" rx="22.03"/><path class="cls-2" d="M89.81,77.52a2.81,2.81,0,0,1,2,.71,2.57,2.57,0,0,1,.76,2,2.71,2.71,0,0,1-.83,2,3.24,3.24,0,0,1-2.34.8A2.92,2.92,0,0,1,87,82a4.06,4.06,0,0,1-.83-2.65,4.87,4.87,0,0,1,.76-2.73,7.17,7.17,0,0,1,1.91-2A10.48,10.48,0,0,1,91.1,73.3l.61,1.23a7.5,7.5,0,0,0-1.55.86,5.82,5.82,0,0,0-1.28,1.24A2.36,2.36,0,0,0,88.35,78a1.11,1.11,0,0,1,.47-.31A2.34,2.34,0,0,1,89.81,77.52Zm7.72,0a2.77,2.77,0,0,1,2,.71,2.53,2.53,0,0,1,.76,2,2.7,2.7,0,0,1-.82,2,3.28,3.28,0,0,1-2.35.8,2.88,2.88,0,0,1-2.39-1,4.06,4.06,0,0,1-.84-2.65,4.87,4.87,0,0,1,.76-2.73,7.31,7.31,0,0,1,1.91-2,10.54,10.54,0,0,1,2.29-1.28l.61,1.23a7.26,7.26,0,0,0-1.55.86,5.82,5.82,0,0,0-1.28,1.24A2.38,2.38,0,0,0,96.06,78a1.11,1.11,0,0,1,.47-.31A2.39,2.39,0,0,1,97.53,77.52Z"/><path class="cls-2" d="M122.66,78.32h-8.87l1.84-2.49v26.52h-5V75.83l1.93,2.49h-8.94v-4h19Z"/><path class="cls-2" d="M127.47,102.35V72.65h5v29.7Zm14.29,0v-11a6.47,6.47,0,0,0-1-3.85,3.85,3.85,0,0,0-3.33-1.34,5.46,5.46,0,0,0-2.69.62,4.14,4.14,0,0,0-1.7,1.72,5.21,5.21,0,0,0-.59,2.54l-1.83-1a8.34,8.34,0,0,1,1.1-4.28,7.66,7.66,0,0,1,3-2.94,9.16,9.16,0,0,1,4.44-1.06A7.12,7.12,0,0,1,144.82,84a8.77,8.77,0,0,1,1.93,6v12.29Z"/><path class="cls-2" d="M154.39,93.88V90.32h14.12l-.57,1v-.49a5.37,5.37,0,0,0-.59-2.46,4.5,4.5,0,0,0-1.79-1.86,5.78,5.78,0,0,0-3-.72,6.28,6.28,0,0,0-3.17.77,5.29,5.29,0,0,0-2.07,2.22,7.52,7.52,0,0,0-.73,3.46,8.28,8.28,0,0,0,.7,3.56A5.13,5.13,0,0,0,159.32,98a6.58,6.58,0,0,0,3.32.79,9.63,9.63,0,0,0,2.3-.25,4.91,4.91,0,0,0,1.58-.67,3.33,3.33,0,0,0,.94-.93,2.47,2.47,0,0,0,.37-1h5a5.68,5.68,0,0,1-.84,2.48,7.88,7.88,0,0,1-2,2.18,10.66,10.66,0,0,1-3.19,1.56,14.25,14.25,0,0,1-4.26.58,11.6,11.6,0,0,1-5.68-1.33A9.53,9.53,0,0,1,153,97.75a11.57,11.57,0,0,1,0-10.92,9.6,9.6,0,0,1,3.82-3.68,11.7,11.7,0,0,1,5.63-1.32,11.38,11.38,0,0,1,5.65,1.33,9.23,9.23,0,0,1,3.68,3.7,11.29,11.29,0,0,1,1.29,5.5c0,.26,0,.55,0,.85a4.16,4.16,0,0,1-.06.67Z"/><path class="cls-2" d="M98.61,155.77a11,11,0,0,1-5.94-1.67,11.66,11.66,0,0,1-4.24-4.89,17.46,17.46,0,0,1-1.58-7.81,17.21,17.21,0,0,1,1.63-7.84,11.82,11.82,0,0,1,4.42-4.93,11.65,11.65,0,0,1,6.22-1.7,11.23,11.23,0,0,1,4.84.94,9.31,9.31,0,0,1,3.23,2.42,9.72,9.72,0,0,1,1.8,3.12,9.23,9.23,0,0,1,.56,3v.22h-4.86v-.22a5.62,5.62,0,0,0-.34-1.94,5.15,5.15,0,0,0-1-1.73,5.09,5.09,0,0,0-1.75-1.24,6.06,6.06,0,0,0-2.43-.45,6.48,6.48,0,0,0-3.52,1,7.3,7.3,0,0,0-2.66,3.32,14.66,14.66,0,0,0-1,6,17.11,17.11,0,0,0,.57,4.75A9.08,9.08,0,0,0,94,149.33a6,6,0,0,0,2.24,1.77,6.44,6.44,0,0,0,2.67.57,7,7,0,0,0,3.17-.65,5.42,5.42,0,0,0,2-1.62,4.69,4.69,0,0,0,.9-1.9v-2.18H99v-3.76h10.47v13.79h-2.89l-.42-3.12a3.85,3.85,0,0,1-.62.94,6.45,6.45,0,0,1-1.37,1.18,8.41,8.41,0,0,1-2.27,1A11.8,11.8,0,0,1,98.61,155.77Z"/><path class="cls-2" d="M125.38,155.75a11.48,11.48,0,0,1-5.62-1.34A9.71,9.71,0,0,1,116,150.7a10.65,10.65,0,0,1-1.38-5.44,10.48,10.48,0,0,1,1.38-5.42,9.7,9.7,0,0,1,3.81-3.68,12.54,12.54,0,0,1,11.24,0,9.64,9.64,0,0,1,3.81,3.68,10.48,10.48,0,0,1,1.38,5.42,10.65,10.65,0,0,1-1.38,5.44,9.65,9.65,0,0,1-3.81,3.71A11.48,11.48,0,0,1,125.38,155.75Zm0-4.08a5.65,5.65,0,0,0,3-.8,5.49,5.49,0,0,0,2-2.24,7.41,7.41,0,0,0,.72-3.37,7.29,7.29,0,0,0-.72-3.35,5.45,5.45,0,0,0-2-2.2,6.22,6.22,0,0,0-6,0,5.31,5.31,0,0,0-2,2.2,7.17,7.17,0,0,0-.73,3.35,7.28,7.28,0,0,0,.73,3.37,5.36,5.36,0,0,0,2,2.24A5.66,5.66,0,0,0,125.38,151.67Z"/><path class="cls-2" d="M158.31,135.17,152,155.35h-6.71l-6.48-20.18H144L149,153.6h-.8l4.9-18.43Z"/><path class="cls-2" d="M163.42,146.88v-3.56h14.12l-.57,1v-.49a5.37,5.37,0,0,0-.59-2.46,4.57,4.57,0,0,0-1.79-1.86,5.82,5.82,0,0,0-3-.72,6.24,6.24,0,0,0-3.16.77,5.17,5.17,0,0,0-2.07,2.22,7.52,7.52,0,0,0-.74,3.46,8.28,8.28,0,0,0,.71,3.56,5.08,5.08,0,0,0,2.06,2.28,6.55,6.55,0,0,0,3.32.79,9.54,9.54,0,0,0,2.29-.25,4.88,4.88,0,0,0,1.59-.67,3.42,3.42,0,0,0,.93-.93,2.33,2.33,0,0,0,.37-1h5a5.83,5.83,0,0,1-.85,2.48,7.59,7.59,0,0,1-2,2.18,10.49,10.49,0,0,1-3.18,1.56,14.32,14.32,0,0,1-4.27.58,11.63,11.63,0,0,1-5.68-1.33,9.59,9.59,0,0,1-3.79-3.71,10.78,10.78,0,0,1-1.36-5.43,10.66,10.66,0,0,1,1.38-5.49,9.69,9.69,0,0,1,3.83-3.68,11.66,11.66,0,0,1,5.62-1.32,11.42,11.42,0,0,1,5.66,1.33,9.2,9.2,0,0,1,3.67,3.7,11.29,11.29,0,0,1,1.3,5.5c0,.26,0,.55,0,.85s0,.53-.06.67Z"/><path class="cls-2" d="M187.19,155.35V135.17h5v6.71l-1.15-.65a9.42,9.42,0,0,1,.7-2.48,6.88,6.88,0,0,1,1.37-2.05,6,6,0,0,1,2.07-1.38,7.48,7.48,0,0,1,2.77-.49,8.32,8.32,0,0,1,1.95.18,3.4,3.4,0,0,1,.88.3l-.91,4.58a3.79,3.79,0,0,0-.77-.34,4.94,4.94,0,0,0-1.55-.2,5.65,5.65,0,0,0-2.57.53,4.27,4.27,0,0,0-1.65,1.4,6.18,6.18,0,0,0-.87,1.94,8.4,8.4,0,0,0-.27,2.1v10Z"/><path class="cls-2" d="M204.88,155.35V135.17h5v20.18Zm14.27,0V144a7.3,7.3,0,0,0-.39-2.46,3.41,3.41,0,0,0-1.33-1.72,4.63,4.63,0,0,0-2.6-.63,4.79,4.79,0,0,0-2.56.69,4.88,4.88,0,0,0-1.76,1.9,6,6,0,0,0-.64,2.79l-1.69-1.05a8.8,8.8,0,0,1,1.15-4.49,8.48,8.48,0,0,1,3.09-3.09,8.38,8.38,0,0,1,4.29-1.12,8.21,8.21,0,0,1,4.1.95,6.08,6.08,0,0,1,2.51,2.7,9.35,9.35,0,0,1,.84,4.1v12.77Z"/><path class="cls-2" d="M229.92,155.35V135.17h5v20.18Zm12.54,0V143.78a12.07,12.07,0,0,0-.1-1.55,4.83,4.83,0,0,0-.41-1.49,2.61,2.61,0,0,0-1-1.11,3.41,3.41,0,0,0-1.86-.43,3.69,3.69,0,0,0-1.92.47,3.8,3.8,0,0,0-1.29,1.23,5.28,5.28,0,0,0-.74,1.75,8.89,8.89,0,0,0-.23,2l-1.67-1.12a10.19,10.19,0,0,1,.93-4.44,7.6,7.6,0,0,1,2.65-3.11,7.16,7.16,0,0,1,4.08-1.15,6.52,6.52,0,0,1,3.86,1,5.54,5.54,0,0,1,2,2.74,11.57,11.57,0,0,1,.62,3.88v12.88Zm12.46,0V143.74a14.44,14.44,0,0,0-.09-1.6,4.83,4.83,0,0,0-.42-1.47,2.57,2.57,0,0,0-1-1.06,3.64,3.64,0,0,0-1.86-.41,3.8,3.8,0,0,0-1.95.46,3.57,3.57,0,0,0-1.26,1.21,5.65,5.65,0,0,0-.7,1.71,8.85,8.85,0,0,0-.21,1.9l-1.68-1.1a10.05,10.05,0,0,1,.92-4.35,7.41,7.41,0,0,1,2.62-3.07,7.21,7.21,0,0,1,4.06-1.13,6.7,6.7,0,0,1,3.82,1,5.46,5.46,0,0,1,2.1,2.65,10.43,10.43,0,0,1,.66,3.83v13.07Z"/><path class="cls-2" d="M267.56,146.88v-3.56h14.11l-.57,1v-.49a5.25,5.25,0,0,0-.59-2.46,4.48,4.48,0,0,0-1.78-1.86,5.82,5.82,0,0,0-3-.72,6.24,6.24,0,0,0-3.16.77,5.25,5.25,0,0,0-2.08,2.22,7.52,7.52,0,0,0-.73,3.46,8.28,8.28,0,0,0,.71,3.56,5,5,0,0,0,2.06,2.28,6.54,6.54,0,0,0,3.31.79,9.57,9.57,0,0,0,2.3-.25,4.88,4.88,0,0,0,1.59-.67,3.42,3.42,0,0,0,.93-.93,2.33,2.33,0,0,0,.37-1h5a5.83,5.83,0,0,1-.85,2.48,7.88,7.88,0,0,1-2,2.18,10.6,10.6,0,0,1-3.18,1.56,14.32,14.32,0,0,1-4.27.58,11.6,11.6,0,0,1-5.68-1.33,9.53,9.53,0,0,1-3.79-3.71,11.57,11.57,0,0,1,0-10.92,9.62,9.62,0,0,1,3.83-3.68,11.66,11.66,0,0,1,5.62-1.32,11.38,11.38,0,0,1,5.65,1.33,9.23,9.23,0,0,1,3.68,3.7,11.29,11.29,0,0,1,1.29,5.5c0,.26,0,.55,0,.85a6.42,6.42,0,0,1-.05.67Z"/><path class="cls-2" d="M291.32,155.35V135.17h5v20.18Zm14.27,0V144a7.56,7.56,0,0,0-.38-2.46,3.41,3.41,0,0,0-1.33-1.72,4.65,4.65,0,0,0-2.6-.63,4.76,4.76,0,0,0-2.56.69,4.88,4.88,0,0,0-1.76,1.9,5.86,5.86,0,0,0-.64,2.79l-1.69-1.05a8.7,8.7,0,0,1,1.15-4.49,8.48,8.48,0,0,1,3.09-3.09,8.38,8.38,0,0,1,4.29-1.12,8.21,8.21,0,0,1,4.1.95,6,6,0,0,1,2.5,2.7,9.21,9.21,0,0,1,.85,4.1v12.77Z"/><path class="cls-2" d="M325.14,155.73a12,12,0,0,1-2.2-.21,6,6,0,0,1-2.05-.78,4.08,4.08,0,0,1-1.5-1.67,6.33,6.33,0,0,1-.57-2.91v-11h-4.77v-4H316a12.38,12.38,0,0,0,1.55-.08,1.34,1.34,0,0,0,.84-.41,1.9,1.9,0,0,0,.35-1,15.81,15.81,0,0,0,.09-1.93v-3.21h5v6.65h6v4h-6v9.48a6.09,6.09,0,0,0,.35,2.26c.22.57.76.86,1.61.86a6,6,0,0,0,1.15-.11,5.84,5.84,0,0,0,.81-.23v3.91a7,7,0,0,1-1.05.27A8,8,0,0,1,325.14,155.73Z"/><path class="cls-2" d="M95.82,208.77a14.08,14.08,0,0,1-3.43-.4,9.77,9.77,0,0,1-2.89-1.2,6.2,6.2,0,0,1-2-2,5.2,5.2,0,0,1-.73-2.75V202h5v.34a2,2,0,0,0,1.13,1.85,6.48,6.48,0,0,0,3.09.62,8.5,8.5,0,0,0,2-.23,3.76,3.76,0,0,0,1.52-.7,1.51,1.51,0,0,0,.58-1.22A1.76,1.76,0,0,0,98.85,201,18.42,18.42,0,0,0,95,200a25.61,25.61,0,0,1-2.85-.67,10.4,10.4,0,0,1-2.56-1.12,5.82,5.82,0,0,1-1.84-1.75,4.48,4.48,0,0,1-.69-2.54,4.86,4.86,0,0,1,1.19-3.35,7.32,7.32,0,0,1,3.19-2.07,13.46,13.46,0,0,1,4.41-.7,12,12,0,0,1,4.32.76,7.88,7.88,0,0,1,3.22,2.19,5.07,5.07,0,0,1,1.22,3.44v.3H99.67v-.25a1.9,1.9,0,0,0-.55-1.42A3.31,3.31,0,0,0,97.7,192a6.22,6.22,0,0,0-1.85-.27,9.14,9.14,0,0,0-1.76.18,3.69,3.69,0,0,0-1.52.63,1.45,1.45,0,0,0-.61,1.25,1.48,1.48,0,0,0,.63,1.23,5.14,5.14,0,0,0,1.74.79,23.94,23.94,0,0,0,2.59.56,24.38,24.38,0,0,1,2.8.63,11.53,11.53,0,0,1,2.59,1.06,5.43,5.43,0,0,1,1.91,1.74,4.59,4.59,0,0,1,.74,2.65,5.2,5.2,0,0,1-.76,2.85,6.16,6.16,0,0,1-2.07,1.95,9.88,9.88,0,0,1-2.93,1.13A15.7,15.7,0,0,1,95.82,208.77Z"/><path class="cls-2" d="M110,208.35v-29.7h5v29.7Zm14.29,0v-11a6.47,6.47,0,0,0-1-3.85A3.87,3.87,0,0,0,120,192.2a5.51,5.51,0,0,0-2.69.62,4.12,4.12,0,0,0-1.69,1.72,5.21,5.21,0,0,0-.59,2.54l-1.83-1a8.43,8.43,0,0,1,1.09-4.28,7.79,7.79,0,0,1,3-2.94,9.23,9.23,0,0,1,4.45-1.06,7.15,7.15,0,0,1,5.61,2.18,8.77,8.77,0,0,1,1.93,6.05v12.29Z"/><path class="cls-2" d="M145,208.75a11.52,11.52,0,0,1-5.63-1.34,9.78,9.78,0,0,1-3.81-3.71,10.65,10.65,0,0,1-1.37-5.44,10.47,10.47,0,0,1,1.37-5.42,9.77,9.77,0,0,1,3.81-3.68,12.56,12.56,0,0,1,11.25,0,9.77,9.77,0,0,1,3.81,3.68,10.48,10.48,0,0,1,1.38,5.42,10.65,10.65,0,0,1-1.38,5.44,9.78,9.78,0,0,1-3.81,3.71A11.5,11.5,0,0,1,145,208.75Zm0-4.08a5.65,5.65,0,0,0,3-.8,5.4,5.4,0,0,0,2-2.24,7.41,7.41,0,0,0,.72-3.37,7.29,7.29,0,0,0-.72-3.35,5.35,5.35,0,0,0-2-2.2,6.22,6.22,0,0,0-6,0,5.33,5.33,0,0,0-2,2.2,7.29,7.29,0,0,0-.72,3.35,7.41,7.41,0,0,0,.72,3.37,5.38,5.38,0,0,0,2,2.24A5.64,5.64,0,0,0,145,204.67Z"/><path class="cls-2" d="M168.15,208.73a7.81,7.81,0,0,1-3.56-.72,5.88,5.88,0,0,1-2.23-1.9,7.78,7.78,0,0,1-1.14-2.6,12.6,12.6,0,0,1-.33-2.85V188.17h5v11.19a9,9,0,0,0,.32,2.5,3.58,3.58,0,0,0,1.19,1.86,3.81,3.81,0,0,0,2.44.7,4,4,0,0,0,2.58-.89,5.9,5.9,0,0,0,1.69-2.23,6.82,6.82,0,0,0,.59-2.73l1.71,1.14a10.38,10.38,0,0,1-.57,3.46,8.73,8.73,0,0,1-1.65,2.88,7.7,7.7,0,0,1-2.61,2A8.15,8.15,0,0,1,168.15,208.73Zm6.57-.38V188.17h5v20.18Z"/><path class="cls-2" d="M190.7,178.65v29.7h-4.92v-29.7Z"/><path class="cls-2" d="M205.14,208.77a9.13,9.13,0,0,1-4.61-1.21,8.77,8.77,0,0,1-3.39-3.56,12,12,0,0,1-1.27-5.8,11.41,11.41,0,0,1,1.3-5.66,9,9,0,0,1,8-4.71,8.59,8.59,0,0,1,4.39,1.17,8.88,8.88,0,0,1,3.23,3.24A9.2,9.2,0,0,1,214,197v.3l-2.47.06v-.25a4.6,4.6,0,0,0-.75-2.62,5.38,5.38,0,0,0-1.94-1.76,5.29,5.29,0,0,0-2.52-.63,5.17,5.17,0,0,0-3.72,1.47A6.15,6.15,0,0,0,201,198.2a6.23,6.23,0,0,0,1.54,4.66,5.12,5.12,0,0,0,3.72,1.5,5.2,5.2,0,0,0,2.57-.66,5.42,5.42,0,0,0,1.91-1.84,5,5,0,0,0,.73-2.69l2.47.12a9.8,9.8,0,0,1-1.19,4.81,9.19,9.19,0,0,1-3.18,3.42A8.27,8.27,0,0,1,205.14,208.77Zm6.37-.42v-29.7h5v29.7Z"/><path class="cls-2" d="M246.39,206.36a12.49,12.49,0,0,1,3.14.66,4.59,4.59,0,0,1,2.1,1.47,4.16,4.16,0,0,1,.76,2.62,4.5,4.5,0,0,1-1.23,3.15,7.92,7.92,0,0,1-3.62,2.05,20.51,20.51,0,0,1-5.86.72,16.76,16.76,0,0,1-7.77-1.45q-2.72-1.46-2.72-3.94a4.61,4.61,0,0,1,.17-1.28,3.28,3.28,0,0,1,.42-.94l4.58.66a1.79,1.79,0,0,0-.23.48,2.48,2.48,0,0,0-.11.81c0,.79.52,1.35,1.58,1.7a13.85,13.85,0,0,0,4.23.53,16.34,16.34,0,0,0,3.24-.27,5,5,0,0,0,2-.76,1.43,1.43,0,0,0,.68-1.16,1.21,1.21,0,0,0-.89-1.27,9.35,9.35,0,0,0-2.13-.38l-7.66-.71a6.54,6.54,0,0,1-3.37-1.21,3.18,3.18,0,0,1-1.32-2.66,3.42,3.42,0,0,1,.54-1.86,6.26,6.26,0,0,1,1.24-1.44,3.59,3.59,0,0,1,1.2-.71l2.85,1.4a2,2,0,0,0-.94.52,1.36,1.36,0,0,0-.54,1.08,1.19,1.19,0,0,0,.53,1,4.54,4.54,0,0,0,2.05.54Zm2.26-18.19h4.48L251.31,196a12.14,12.14,0,0,1-1.65,3.95,8.09,8.09,0,0,1-3,2.76,10.18,10.18,0,0,1-4.79,1,12.6,12.6,0,0,1-5.18-1A7.67,7.67,0,0,1,233.3,200a7.19,7.19,0,0,1-1.18-4.09,7.34,7.34,0,0,1,1.21-4.19,8.11,8.11,0,0,1,3.32-2.84,10.78,10.78,0,0,1,4.8-1,10.3,10.3,0,0,1,3.9.71,7.62,7.62,0,0,1,2.76,1.86,3.92,3.92,0,0,1,1.11,2.43l-1.12.21Zm-6.84,11.69a6.11,6.11,0,0,0,2.53-.48A3.66,3.66,0,0,0,246,198a4,4,0,0,0,.59-2.2,3.92,3.92,0,0,0-.59-2.18,3.72,3.72,0,0,0-1.65-1.4,6.07,6.07,0,0,0-2.51-.49,5.92,5.92,0,0,0-2.49.5,4,4,0,0,0-1.7,1.41,3.89,3.89,0,0,0-.62,2.2,3.81,3.81,0,0,0,.6,2.17,3.71,3.71,0,0,0,1.67,1.37A6.33,6.33,0,0,0,241.81,199.86Z"/><path class="cls-2" d="M259.86,184.45a3.49,3.49,0,0,1-2.12-.66,2.29,2.29,0,0,1,0-3.64,3.55,3.55,0,0,1,2.12-.64,3.46,3.46,0,0,1,2.09.64,2.31,2.31,0,0,1,0,3.64A3.41,3.41,0,0,1,259.86,184.45Zm-2.49,23.9V188.17h4.94v20.18Z"/><path class="cls-2" d="M285.91,188.17l-6.33,20.18h-6.7l-6.48-20.18h5.16l5.08,18.43h-.8l4.9-18.43Z"/><path class="cls-2" d="M291,199.88v-3.56h14.12l-.57,1v-.49a5.37,5.37,0,0,0-.59-2.46,4.5,4.5,0,0,0-1.79-1.86,5.82,5.82,0,0,0-3-.72,6.27,6.27,0,0,0-3.16.77,5.29,5.29,0,0,0-2.07,2.22,7.52,7.52,0,0,0-.73,3.46,8.28,8.28,0,0,0,.7,3.56A5.08,5.08,0,0,0,296,204a6.58,6.58,0,0,0,3.32.79,9.69,9.69,0,0,0,2.3-.25,4.91,4.91,0,0,0,1.58-.67,3.28,3.28,0,0,0,.93-.93,2.2,2.2,0,0,0,.37-1h5a5.81,5.81,0,0,1-.84,2.48,7.78,7.78,0,0,1-2,2.18,10.49,10.49,0,0,1-3.18,1.56,14.3,14.3,0,0,1-4.26.58,11.67,11.67,0,0,1-5.69-1.33,9.5,9.5,0,0,1-3.78-3.71,11.6,11.6,0,0,1,0-10.92,9.69,9.69,0,0,1,3.83-3.68,11.7,11.7,0,0,1,5.63-1.32,11.4,11.4,0,0,1,5.65,1.33,9.29,9.29,0,0,1,3.68,3.7,11.29,11.29,0,0,1,1.29,5.5c0,.26,0,.55,0,.85a4.16,4.16,0,0,1-.06.67Z"/><path class="cls-2" d="M87.67,261.35V241.17h5v20.18Zm12.54,0V249.78a14.19,14.19,0,0,0-.1-1.55,4.58,4.58,0,0,0-.42-1.49,2.58,2.58,0,0,0-1-1.11,3.41,3.41,0,0,0-1.86-.43,3.75,3.75,0,0,0-1.93.47,4,4,0,0,0-1.29,1.23,5.49,5.49,0,0,0-.73,1.75,8.89,8.89,0,0,0-.23,2L91,249.53a10.19,10.19,0,0,1,.93-4.44A7.6,7.6,0,0,1,94.57,242a7.16,7.16,0,0,1,4.08-1.15,6.49,6.49,0,0,1,3.85,1,5.56,5.56,0,0,1,2,2.74,11.57,11.57,0,0,1,.61,3.88v12.88Zm12.46,0V249.74a12.38,12.38,0,0,0-.1-1.6,4.56,4.56,0,0,0-.41-1.47,2.57,2.57,0,0,0-1-1.06,3.66,3.66,0,0,0-1.86-.41,3.8,3.8,0,0,0-2,.46,3.48,3.48,0,0,0-1.26,1.21,5.65,5.65,0,0,0-.7,1.71,8.87,8.87,0,0,0-.22,1.9l-1.67-1.1a10.2,10.2,0,0,1,.91-4.35A7.43,7.43,0,0,1,107,242a7.21,7.21,0,0,1,4.06-1.13,6.7,6.7,0,0,1,3.82,1,5.58,5.58,0,0,1,2.1,2.65,10.43,10.43,0,0,1,.66,3.83v13.07Z"/><path class="cls-2" d="M133.36,261.75a11.48,11.48,0,0,1-5.62-1.34,9.71,9.71,0,0,1-3.81-3.71,10.65,10.65,0,0,1-1.38-5.44,10.48,10.48,0,0,1,1.38-5.42,9.7,9.7,0,0,1,3.81-3.68,12.54,12.54,0,0,1,11.24,0,9.64,9.64,0,0,1,3.81,3.68,10.48,10.48,0,0,1,1.38,5.42,10.65,10.65,0,0,1-1.38,5.44,9.65,9.65,0,0,1-3.81,3.71A11.48,11.48,0,0,1,133.36,261.75Zm0-4.08a5.65,5.65,0,0,0,3-.8,5.4,5.4,0,0,0,2-2.24,7.28,7.28,0,0,0,.73-3.37,7.17,7.17,0,0,0-.73-3.35,5.35,5.35,0,0,0-2-2.2,6.22,6.22,0,0,0-6,0,5.31,5.31,0,0,0-2,2.2,7.17,7.17,0,0,0-.73,3.35,7.28,7.28,0,0,0,.73,3.37,5.36,5.36,0,0,0,2,2.24A5.66,5.66,0,0,0,133.36,257.67Z"/><path class="cls-2" d="M149.24,261.35V241.17h5v6.71l-1.16-.65a9.43,9.43,0,0,1,.71-2.48,6.85,6.85,0,0,1,1.36-2.05,6,6,0,0,1,2.07-1.38,7.53,7.53,0,0,1,2.78-.49A8.38,8.38,0,0,1,162,241a3.56,3.56,0,0,1,.88.3l-.91,4.58a4.08,4.08,0,0,0-.77-.34,5,5,0,0,0-1.55-.2,5.67,5.67,0,0,0-2.58.53,4.24,4.24,0,0,0-1.64,1.4,5.76,5.76,0,0,0-.87,1.94,8.4,8.4,0,0,0-.27,2.1v10Z"/><path class="cls-2" d="M168.42,252.88v-3.56h14.11l-.57,1v-.49a5.25,5.25,0,0,0-.59-2.46,4.54,4.54,0,0,0-1.78-1.86,5.82,5.82,0,0,0-3-.72,6.31,6.31,0,0,0-3.17.77,5.29,5.29,0,0,0-2.07,2.22,7.52,7.52,0,0,0-.73,3.46,8.28,8.28,0,0,0,.7,3.56,5.1,5.1,0,0,0,2.07,2.28,6.54,6.54,0,0,0,3.31.79,9.63,9.63,0,0,0,2.3-.25,5,5,0,0,0,1.59-.67,3.42,3.42,0,0,0,.93-.93,2.33,2.33,0,0,0,.37-1h5a5.83,5.83,0,0,1-.85,2.48,7.88,7.88,0,0,1-2,2.18,10.72,10.72,0,0,1-3.18,1.56,14.32,14.32,0,0,1-4.27.58,11.6,11.6,0,0,1-5.68-1.33,9.53,9.53,0,0,1-3.79-3.71,11.57,11.57,0,0,1,0-10.92,9.62,9.62,0,0,1,3.83-3.68,11.66,11.66,0,0,1,5.62-1.32,11.38,11.38,0,0,1,5.65,1.33,9.23,9.23,0,0,1,3.68,3.7,11.29,11.29,0,0,1,1.29,5.5c0,.26,0,.55,0,.85a6.42,6.42,0,0,1-.05.67Z"/><path class="cls-2" d="M90.12,314.35V298.16H85.84v-4h4.28v-1.8a9.46,9.46,0,0,1,.47-3.11,6.69,6.69,0,0,1,3.17-3.78,8,8,0,0,1,2.26-.84,10.9,10.9,0,0,1,2.4-.27,8.53,8.53,0,0,1,1.74.13,5.32,5.32,0,0,1,.81.23v4a7.76,7.76,0,0,0-.79-.18,6.64,6.64,0,0,0-1.21-.11,4.68,4.68,0,0,0-1.92.34,2.68,2.68,0,0,0-1.18.92,3.55,3.55,0,0,0-.58,1.36,7.34,7.34,0,0,0-.18,1.68v1.4h5.59v4H95.11v16.19Zm16.22-23.9a3.52,3.52,0,0,1-2.12-.66,2.29,2.29,0,0,1,0-3.64,3.57,3.57,0,0,1,2.12-.64,3.46,3.46,0,0,1,2.09.64,2.29,2.29,0,0,1,0,3.64A3.41,3.41,0,0,1,106.34,290.45Zm-2.49,23.9V294.17h4.94v20.18Z"/><path class="cls-2" d="M114.66,314.35V294.17h5v20.18Zm14.27,0V303a7.3,7.3,0,0,0-.39-2.46,3.36,3.36,0,0,0-1.33-1.72,4.59,4.59,0,0,0-2.59-.63,4.82,4.82,0,0,0-2.57.69,4.93,4.93,0,0,0-1.75,1.9,5.86,5.86,0,0,0-.64,2.79L118,302.53a8.7,8.7,0,0,1,1.15-4.49,8.48,8.48,0,0,1,3.09-3.09,8.38,8.38,0,0,1,4.29-1.12,8.21,8.21,0,0,1,4.1.95,6.06,6.06,0,0,1,2.5,2.7,9.21,9.21,0,0,1,.85,4.1v12.77Z"/><path class="cls-2" d="M146.62,314.77a10.34,10.34,0,0,1-4-.71A6.16,6.16,0,0,1,140,312a5.43,5.43,0,0,1-1-3.24,5.12,5.12,0,0,1,1.13-3.41,7.3,7.3,0,0,1,3.05-2.08,16.22,16.22,0,0,1,4.26-.94,43.12,43.12,0,0,0,4.83-.65q1.38-.32,1.38-1v0a2.28,2.28,0,0,0-1.19-2.05,6.62,6.62,0,0,0-3.39-.72,6.39,6.39,0,0,0-3.52.81,2.83,2.83,0,0,0-1.23,2.55h-4.94a6.37,6.37,0,0,1,1.27-4,7.81,7.81,0,0,1,3.46-2.49,13.76,13.76,0,0,1,5-.86,14,14,0,0,1,4.77.78,7.88,7.88,0,0,1,3.48,2.36,6,6,0,0,1,1.31,3.93v9.2c0,.48,0,.95,0,1.41a7.27,7.27,0,0,0,.2,1.25,4.4,4.4,0,0,0,.46,1,3.79,3.79,0,0,0,.42.57h-4.94a3.13,3.13,0,0,1-.37-.52,5.39,5.39,0,0,1-.43-.9,6.51,6.51,0,0,1-.28-1.23,9.26,9.26,0,0,1-.1-1.45l1,.68a5.54,5.54,0,0,1-1.74,2,8.66,8.66,0,0,1-2.78,1.34A12.33,12.33,0,0,1,146.62,314.77Zm1.22-3.93a7.62,7.62,0,0,0,2.89-.54,4.79,4.79,0,0,0,2.14-1.64,4.66,4.66,0,0,0,.82-2.86v-2.7l1.22,1.37a17,17,0,0,1-2.93.75c-1.14.2-2.29.35-3.46.47a9.82,9.82,0,0,0-3.37.78,1.94,1.94,0,0,0-1.13,1.86,2.12,2.12,0,0,0,.95,1.88A5.24,5.24,0,0,0,147.84,310.84Z"/><path class="cls-2" d="M164.27,314.35V294.17h5v20.18Zm14.27,0V303a7.3,7.3,0,0,0-.39-2.46,3.36,3.36,0,0,0-1.33-1.72,4.59,4.59,0,0,0-2.59-.63,4.82,4.82,0,0,0-2.57.69,4.93,4.93,0,0,0-1.75,1.9,5.86,5.86,0,0,0-.64,2.79l-1.69-1.05a8.7,8.7,0,0,1,1.15-4.49,8.37,8.37,0,0,1,7.38-4.21,8.14,8.14,0,0,1,4.09.95,6,6,0,0,1,2.51,2.7,9.21,9.21,0,0,1,.85,4.1v12.77Z"/><path class="cls-2" d="M199.29,314.77a11.8,11.8,0,0,1-5.64-1.31,9.54,9.54,0,0,1-3.84-3.69,10.79,10.79,0,0,1-1.39-5.57,10.57,10.57,0,0,1,1.39-5.51,9.39,9.39,0,0,1,3.84-3.6,13.23,13.23,0,0,1,9.88-.56,9.56,9.56,0,0,1,3.1,1.88,8.31,8.31,0,0,1,1.93,2.56,6.47,6.47,0,0,1,.66,2.78v.16h-4.95a1.49,1.49,0,0,0,0-.21,1.85,1.85,0,0,1,0-.23,3.68,3.68,0,0,0-.78-1.76,4.5,4.5,0,0,0-1.67-1.26,6,6,0,0,0-2.53-.48,6,6,0,0,0-2.88.7,5.06,5.06,0,0,0-2.07,2.08,7,7,0,0,0-.77,3.45,7.47,7.47,0,0,0,.76,3.49,5.39,5.39,0,0,0,2.06,2.19,5.72,5.72,0,0,0,2.9.75,6.33,6.33,0,0,0,2.77-.53,3.79,3.79,0,0,0,1.62-1.4,4.12,4.12,0,0,0,.63-1.93h5a6.72,6.72,0,0,1-.64,2.82,8.05,8.05,0,0,1-1.9,2.59,9.25,9.25,0,0,1-3.11,1.89A12.19,12.19,0,0,1,199.29,314.77Z"/><path class="cls-2" d="M216.69,290.45a3.52,3.52,0,0,1-2.12-.66,2.29,2.29,0,0,1,0-3.64,3.57,3.57,0,0,1,2.12-.64,3.46,3.46,0,0,1,2.09.64,2.29,2.29,0,0,1,0,3.64A3.41,3.41,0,0,1,216.69,290.45Zm-2.49,23.9V294.17h4.94v20.18Z"/><path class="cls-2" d="M232,314.77a10.34,10.34,0,0,1-4-.71A6.16,6.16,0,0,1,225.3,312a5.36,5.36,0,0,1-1-3.24,5.12,5.12,0,0,1,1.13-3.41,7.24,7.24,0,0,1,3-2.08,16.22,16.22,0,0,1,4.26-.94,43.48,43.48,0,0,0,4.83-.65q1.38-.32,1.38-1v0a2.27,2.27,0,0,0-1.2-2.05,6.58,6.58,0,0,0-3.38-.72,6.36,6.36,0,0,0-3.52.81,2.83,2.83,0,0,0-1.23,2.55h-4.94a6.43,6.43,0,0,1,1.26-4,7.89,7.89,0,0,1,3.47-2.49,13.76,13.76,0,0,1,5-.86,14,14,0,0,1,4.77.78,7.79,7.79,0,0,1,3.47,2.36A5.9,5.9,0,0,1,244,300.9v9.2c0,.48,0,.95,0,1.41a6.41,6.41,0,0,0,.2,1.25,4.4,4.4,0,0,0,.46,1,3.2,3.2,0,0,0,.42.57h-4.94a3,3,0,0,1-.38-.52,5.39,5.39,0,0,1-.42-.9,7.38,7.38,0,0,1-.29-1.23,10.74,10.74,0,0,1-.09-1.45l1,.68a5.54,5.54,0,0,1-1.74,2,8.61,8.61,0,0,1-2.79,1.34A12.26,12.26,0,0,1,232,314.77Zm1.21-3.93a7.59,7.59,0,0,0,2.89-.54,4.82,4.82,0,0,0,2.15-1.64,4.73,4.73,0,0,0,.82-2.86v-2.7l1.21,1.37a16.87,16.87,0,0,1-2.92.75c-1.14.2-2.3.35-3.46.47a9.76,9.76,0,0,0-3.37.78,1.93,1.93,0,0,0-1.13,1.86,2.1,2.1,0,0,0,1,1.88A5.2,5.2,0,0,0,233.16,310.84Z"/><path class="cls-2" d="M254.81,284.65v29.7h-4.93v-29.7Z"/><path class="cls-2" d="M95.82,367.77a14.08,14.08,0,0,1-3.43-.4,9.77,9.77,0,0,1-2.89-1.2,6.2,6.2,0,0,1-2-2,5.2,5.2,0,0,1-.73-2.75V361h5v.34a2,2,0,0,0,1.13,1.85,6.48,6.48,0,0,0,3.09.62,8.5,8.5,0,0,0,2-.23,3.76,3.76,0,0,0,1.52-.7,1.51,1.51,0,0,0,.58-1.22A1.76,1.76,0,0,0,98.85,360,18.42,18.42,0,0,0,95,359a25.61,25.61,0,0,1-2.85-.67,10.4,10.4,0,0,1-2.56-1.12,5.82,5.82,0,0,1-1.84-1.75,4.48,4.48,0,0,1-.69-2.54,4.86,4.86,0,0,1,1.19-3.35,7.32,7.32,0,0,1,3.19-2.07,13.46,13.46,0,0,1,4.41-.7,12,12,0,0,1,4.32.76,7.88,7.88,0,0,1,3.22,2.19,5.07,5.07,0,0,1,1.22,3.44v.3H99.67v-.25a1.9,1.9,0,0,0-.55-1.42A3.31,3.31,0,0,0,97.7,351a6.22,6.22,0,0,0-1.85-.27,9.14,9.14,0,0,0-1.76.18,3.69,3.69,0,0,0-1.52.63,1.45,1.45,0,0,0-.61,1.25,1.48,1.48,0,0,0,.63,1.23,5.14,5.14,0,0,0,1.74.79,23.94,23.94,0,0,0,2.59.56,24.38,24.38,0,0,1,2.8.63,11.53,11.53,0,0,1,2.59,1.06,5.43,5.43,0,0,1,1.91,1.74,4.59,4.59,0,0,1,.74,2.65,5.2,5.2,0,0,1-.76,2.85,6.16,6.16,0,0,1-2.07,1.95,9.88,9.88,0,0,1-2.93,1.13A15.7,15.7,0,0,1,95.82,367.77Z"/><path class="cls-2" d="M117.29,367.73a7.88,7.88,0,0,1-3.57-.72,5.92,5.92,0,0,1-2.22-1.9,7.59,7.59,0,0,1-1.14-2.6,12.6,12.6,0,0,1-.33-2.85V347.17h5v11.19a9,9,0,0,0,.33,2.5,3.57,3.57,0,0,0,1.18,1.86,3.86,3.86,0,0,0,2.45.7,4,4,0,0,0,2.58-.89,5.88,5.88,0,0,0,1.68-2.23,6.67,6.67,0,0,0,.6-2.73l1.71,1.14a10.38,10.38,0,0,1-.57,3.46,8.73,8.73,0,0,1-1.65,2.88,7.74,7.74,0,0,1-2.62,2A8.11,8.11,0,0,1,117.29,367.73Zm6.57-.38V347.17h5v20.18Z"/><path class="cls-2" d="M134.63,375.65V347.17h5v28.48ZM146,367.77a8.2,8.2,0,0,1-4.37-1.23,9.28,9.28,0,0,1-3.23-3.35,9.48,9.48,0,0,1-1.22-4.79v-.26l2.47-.06v.19a4.78,4.78,0,0,0,.74,2.63,5.32,5.32,0,0,0,1.93,1.81,5.25,5.25,0,0,0,2.54.65,5.15,5.15,0,0,0,3.72-1.5,7.81,7.81,0,0,0,0-9.3,5.19,5.19,0,0,0-3.73-1.47,5.29,5.29,0,0,0-2.52.63,5.38,5.38,0,0,0-1.94,1.76,4.6,4.6,0,0,0-.75,2.62l-2.47-.11a9.2,9.2,0,0,1,1.22-4.75,9,9,0,0,1,3.23-3.24,8.52,8.52,0,0,1,4.37-1.17,9.09,9.09,0,0,1,4.56,1.2,8.89,8.89,0,0,1,3.42,3.51,11.41,11.41,0,0,1,1.31,5.66A12,12,0,0,1,154,363a8.75,8.75,0,0,1-3.38,3.56A9.09,9.09,0,0,1,146,367.77Z"/><path class="cls-2" d="M160.36,375.65V347.17h5v28.48Zm11.36-7.88a8.19,8.19,0,0,1-4.36-1.23,9.2,9.2,0,0,1-3.23-3.35,9.38,9.38,0,0,1-1.22-4.79v-.26l2.47-.06v.19a4.7,4.7,0,0,0,.74,2.63,5.26,5.26,0,0,0,4.46,2.46,5.12,5.12,0,0,0,3.72-1.5,7.81,7.81,0,0,0,0-9.3,5.18,5.18,0,0,0-3.73-1.47,5.32,5.32,0,0,0-4.45,2.39,4.6,4.6,0,0,0-.75,2.62l-2.47-.11a9.11,9.11,0,0,1,1.22-4.75,9,9,0,0,1,3.23-3.24,8.51,8.51,0,0,1,4.36-1.17,9,9,0,0,1,8,4.71,11.41,11.41,0,0,1,1.3,5.66,12,12,0,0,1-1.27,5.8,8.81,8.81,0,0,1-3.38,3.56A9.13,9.13,0,0,1,171.72,367.77Z"/><path class="cls-2" d="M196,367.75a11.5,11.5,0,0,1-5.62-1.34,9.78,9.78,0,0,1-3.81-3.71,10.65,10.65,0,0,1-1.38-5.44,10.48,10.48,0,0,1,1.38-5.42,9.77,9.77,0,0,1,3.81-3.68,12.56,12.56,0,0,1,11.25,0,9.77,9.77,0,0,1,3.81,3.68,10.57,10.57,0,0,1,1.37,5.42,10.75,10.75,0,0,1-1.37,5.44,9.78,9.78,0,0,1-3.81,3.71A11.52,11.52,0,0,1,196,367.75Zm0-4.08a5.63,5.63,0,0,0,3-.8,5.42,5.42,0,0,0,2-2.24,7.41,7.41,0,0,0,.72-3.37,7.29,7.29,0,0,0-.72-3.35,5.38,5.38,0,0,0-2-2.2,6.22,6.22,0,0,0-6,0,5.31,5.31,0,0,0-2,2.2,7.29,7.29,0,0,0-.72,3.35,7.41,7.41,0,0,0,.72,3.37,5.36,5.36,0,0,0,2,2.24A5.66,5.66,0,0,0,196,363.67Z"/><path class="cls-2" d="M211.89,367.35V347.17h5v6.71l-1.16-.65a9.83,9.83,0,0,1,.71-2.48,6.85,6.85,0,0,1,1.36-2.05,6,6,0,0,1,2.08-1.38,7.48,7.48,0,0,1,2.77-.49,8.38,8.38,0,0,1,2,.18,3.4,3.4,0,0,1,.88.3l-.91,4.58a3.79,3.79,0,0,0-.77-.34,5,5,0,0,0-1.55-.2,5.63,5.63,0,0,0-2.57.53,4.27,4.27,0,0,0-1.65,1.4,6.18,6.18,0,0,0-.87,1.94,8.4,8.4,0,0,0-.27,2.1v10Z"/><path class="cls-2" d="M238.85,367.73a12.05,12.05,0,0,1-2.21-.21,6,6,0,0,1-2-.78,4.08,4.08,0,0,1-1.5-1.67,6.33,6.33,0,0,1-.57-2.91v-11h-4.77v-4h1.94a12.44,12.44,0,0,0,1.56-.08,1.29,1.29,0,0,0,.83-.41,1.9,1.9,0,0,0,.35-1,15.81,15.81,0,0,0,.09-1.93v-3.21h5v6.65h6v4h-6v9.48a6.11,6.11,0,0,0,.34,2.26,1.53,1.53,0,0,0,1.61.86,6,6,0,0,0,1.15-.11,5.84,5.84,0,0,0,.81-.23v3.91a7,7,0,0,1-1,.27A8,8,0,0,1,238.85,367.73Z"/><path class="cls-2" d="M250.72,367.88a2.81,2.81,0,0,1-2-4.79,2.66,2.66,0,0,1,2-.83,2.82,2.82,0,0,1,2,4.81A2.75,2.75,0,0,1,250.72,367.88Zm2.47-28.52-.95,20.56h-3.06l-1-20.56Z"/><path class="cls-2" d="M261.72,344.11a2.74,2.74,0,0,1-2-.72,2.55,2.55,0,0,1-.75-1.94,2.74,2.74,0,0,1,.82-2,3.22,3.22,0,0,1,2.35-.81,2.86,2.86,0,0,1,2.38,1,4.15,4.15,0,0,1,.83,2.67,5,5,0,0,1-.75,2.73,7.13,7.13,0,0,1-1.9,2,10.66,10.66,0,0,1-2.31,1.28l-.59-1.23a8.08,8.08,0,0,0,1.56-.87,5.43,5.43,0,0,0,1.26-1.22,2.49,2.49,0,0,0,.53-1.39,1.25,1.25,0,0,1-.46.3A2.16,2.16,0,0,1,261.72,344.11Zm7.72,0a2.75,2.75,0,0,1-2-.72,2.55,2.55,0,0,1-.75-1.94,2.74,2.74,0,0,1,.83-2,3.17,3.17,0,0,1,2.32-.81,2.9,2.9,0,0,1,2.41,1,4.15,4.15,0,0,1,.82,2.67,4.94,4.94,0,0,1-.76,2.73,7.27,7.27,0,0,1-1.9,2,10.31,10.31,0,0,1-2.29,1.28l-.59-1.23a8.17,8.17,0,0,0,1.53-.87,5.74,5.74,0,0,0,1.28-1.22,2.42,2.42,0,0,0,.53-1.39,1.23,1.23,0,0,1-.47.3A2.15,2.15,0,0,1,269.44,344.11Z"/><polyline class="cls-3" points="89.86 402.27 204.37 402.27 236.83 423.82 232.07 402.27 321.95 402.27"/><line class="cls-4" x1="91.96" y1="621.27" x2="86.69" y2="619.01"/><line class="cls-4" x1="94.81" y1="617.76" x2="91.96" y2="613.74"/><line class="cls-4" x1="92.07" y1="625.49" x2="86.58" y2="626.67"/><circle class="cls-5" cx="105.16" cy="626.91" r="10.35"/><path class="cls-6" d="M115.23,628.57l-.23-.75-.75.22-.22-.75-1.51.45-.22-.75-2.26.67-.22-.75-1.51.45-.9-3-.75.23-.23-.75-1.5.45.23.75-.76.22,2,6.77-.75.23-.23-.75-2.25.67.22.75.11.38.34,1.13.75-.23.23.75.75-.22.45,1.5.75-.22.45,1.5.76-.22.45,1.5.75-.22.45,1.5.22.75,6.77-2,.75-.22-.67-2.26.75-.22-.67-2.26.75-.22L116,628.34Z"/><rect x="105.74" y="624.94" width="0.78" height="9.42" transform="translate(-176.17 56.91) rotate(-16.67)"/><rect x="105.01" y="624.04" width="1.57" height="0.78" transform="translate(-174.69 56.6) rotate(-16.67)"/><rect x="107.66" y="624.32" width="0.78" height="7.06" transform="translate(-175.58 57.39) rotate(-16.67)"/><rect x="108.39" y="627.12" width="1.57" height="0.78" transform="translate(-175.43 57.7) rotate(-16.67)"/><rect x="110.59" y="628.25" width="0.79" height="2.35" transform="translate(-175.91 58.29) rotate(-16.67)"/><rect x="110.1" y="627.31" width="2.35" height="0.78" transform="translate(-175.4 58.31) rotate(-16.67)"/><rect x="113.07" y="628.33" width="0.78" height="2.35" transform="translate(-175.82 59.01) rotate(-16.67)"/><rect x="112.6" y="627.5" width="1.57" height="0.78" transform="translate(-175.36 58.92) rotate(-16.67)"/><rect x="114.35" y="627.91" width="0.79" height="0.79" transform="translate(-175.42 59.33) rotate(-16.67)"/><rect x="116" y="628.34" width="0.78" height="5.49" transform="translate(-176.15 59.92) rotate(-16.67)"/><rect x="116.37" y="633.9" width="0.79" height="2.35" transform="translate(-177.28 60.19) rotate(-16.67)"/><rect x="116.3" y="636.38" width="0.78" height="2.35" transform="matrix(0.96, -0.29, 0.29, 0.96, -178, 60.27)"/><rect x="109.62" y="639.04" width="7.06" height="0.78" transform="translate(-178.68 59.34) rotate(-16.67)"/><rect x="105.77" y="632.12" width="0.78" height="0.78" transform="matrix(0.96, -0.29, 0.29, 0.96, -176.99, 57.04)"/><rect x="103.26" y="631.82" width="2.35" height="0.78" transform="translate(-176.98 56.53) rotate(-16.67)"/><rect x="103.63" y="632.78" width="0.79" height="1.57" transform="translate(-177.38 56.47) rotate(-16.67)"/><rect x="104.72" y="634.07" width="0.78" height="0.78" transform="translate(-177.6 56.82) rotate(-16.67)"/><rect x="105.81" y="634.58" width="0.78" height="1.57" transform="translate(-177.81 57.17) rotate(-16.67)"/><rect x="107.01" y="635.86" width="0.78" height="1.57" transform="translate(-178.13 57.57) rotate(-16.67)"/><rect x="108.22" y="637.14" width="0.78" height="1.57" transform="matrix(0.96, -0.29, 0.29, 0.96, -178.44, 57.97)"/><rect x="109.42" y="638.42" width="0.79" height="1.57" transform="translate(-178.76 58.37) rotate(-16.67)"/><path class="cls-6" d="M86.66,608.79H86v-5.9h1.66a2.28,2.28,0,0,1,1.13.25,1.71,1.71,0,0,1,.68.68,2.05,2.05,0,0,1,.22,1,2,2,0,0,1-.23,1,1.74,1.74,0,0,1-.68.72,2.16,2.16,0,0,1-1.12.27h-1Zm0-2.31-.3-.35h1.19a1.72,1.72,0,0,0,.8-.17,1.17,1.17,0,0,0,.48-.48,1.57,1.57,0,0,0,.15-.7,1.48,1.48,0,0,0-.15-.7,1,1,0,0,0-.46-.44,2,2,0,0,0-.82-.15H86.36l.3-.39Z"/><path class="cls-6" d="M91.38,608.79v-5.9h2.05a1.74,1.74,0,0,1,1.23.38,1.49,1.49,0,0,1,.43,1.17,1.61,1.61,0,0,1-.18.8,1.46,1.46,0,0,1-.43.51A1,1,0,0,1,94,606a1.16,1.16,0,0,1,.43.12.94.94,0,0,1,.35.31,1,1,0,0,1,.14.57v1.34a2.69,2.69,0,0,0,0,.31.39.39,0,0,0,.07.18h-.69a.93.93,0,0,1-.06-.18,2.69,2.69,0,0,1,0-.31V607a.7.7,0,0,0-.25-.58,1.12,1.12,0,0,0-.7-.19H91.86l.19-.26v2.78Zm.67-2.84-.19-.28h1.46a1,1,0,0,0,.53-.15,1,1,0,0,0,.39-.41,1.2,1.2,0,0,0,.15-.61.94.94,0,0,0-.29-.78,1.26,1.26,0,0,0-.83-.23H91.84l.21-.3Z"/><path class="cls-6" d="M99.14,608.87a2.17,2.17,0,0,1-1-.21,2.08,2.08,0,0,1-.74-.59,2.73,2.73,0,0,1-.5-1,4.9,4.9,0,0,1,0-2.56,2.68,2.68,0,0,1,.5-.95,2.14,2.14,0,0,1,.75-.59,2.23,2.23,0,0,1,.94-.19,2.3,2.3,0,0,1,1,.19,2.14,2.14,0,0,1,.75.59,2.84,2.84,0,0,1,.49.95,4.9,4.9,0,0,1,0,2.56,2.89,2.89,0,0,1-.49,1,2,2,0,0,1-.75.59A2.17,2.17,0,0,1,99.14,608.87Zm0-.62A1.45,1.45,0,0,0,100,608a1.72,1.72,0,0,0,.59-.8,3.75,3.75,0,0,0,.21-1.35,3.44,3.44,0,0,0-.22-1.34,1.58,1.58,0,0,0-.59-.79,1.41,1.41,0,0,0-.86-.26,1.43,1.43,0,0,0-.86.26,1.64,1.64,0,0,0-.59.79,3.44,3.44,0,0,0-.22,1.34,3.53,3.53,0,0,0,.22,1.35,1.75,1.75,0,0,0,.59.81A1.5,1.5,0,0,0,99.14,608.25Z"/><path class="cls-6" d="M105.23,602.89a2.52,2.52,0,0,1,.93.15,1.19,1.19,0,0,1,.59.46,1.47,1.47,0,0,1,.2.79,1.38,1.38,0,0,1-.19.76,1.25,1.25,0,0,1-.47.47,1.51,1.51,0,0,1-.61.17,1.87,1.87,0,0,1,.66.15,1.26,1.26,0,0,1,.53.47,1.49,1.49,0,0,1,.21.84,1.78,1.78,0,0,1-.21.89,1.29,1.29,0,0,1-.62.55,2.49,2.49,0,0,1-1,.2h-1.93v-5.9Zm-1.3,2.76-.23-.24h1.21a1.7,1.7,0,0,0,1-.25,1,1,0,0,0,.21-1.3.86.86,0,0,0-.42-.29,2.35,2.35,0,0,0-.63-.08h-1.45l.31-.39Zm1.14,2.54a1.56,1.56,0,0,0,1-.27,1,1,0,0,0,.35-.8,1.08,1.08,0,0,0-.12-.54.92.92,0,0,0-.31-.34,1.33,1.33,0,0,0-.46-.17A2.35,2.35,0,0,0,105,606H103.7l.23-.23v2.79l-.31-.38Z"/><path class="cls-6" d="M108.93,608.79v-5.9h.68v5.68l-.31-.38h2.64v.6Z"/><path class="cls-6" d="M114,603.49l.31-.39v2.66l-.17-.23h2.26v.6h-2.26l.17-.24v2.68l-.31-.38h2.85v.6h-3.23v-5.9h3.23v.6Z"/><path class="cls-6" d="M122.94,602.89h1.18v5.9h-.65v-5.36h0l-1.5,5.35h-1l-1.51-5.35h0v5.36h-.65v-5.9h1.18l1.45,5.35h0Z"/><path class="cls-6" d="M140.59,626.36A3.29,3.29,0,0,1,139,626a2.71,2.71,0,0,1-1.09-1.06,3.14,3.14,0,0,1-.4-1.62,3,3,0,0,1,.4-1.6,2.73,2.73,0,0,1,1.09-1,3.4,3.4,0,0,1,1.58-.36,3.32,3.32,0,0,1,1.18.2,2.6,2.6,0,0,1,.87.53,2.38,2.38,0,0,1,.55.73,1.91,1.91,0,0,1,.19.79v0h-1.19v-.13a1.14,1.14,0,0,0-.26-.58,1.43,1.43,0,0,0-.55-.4,1.92,1.92,0,0,0-.79-.15,1.9,1.9,0,0,0-.92.22,1.63,1.63,0,0,0-.68.65,2.18,2.18,0,0,0-.25,1.1,2.22,2.22,0,0,0,.25,1.11,1.69,1.69,0,0,0,.67.68,2.18,2.18,0,0,0,1.82.06,1.21,1.21,0,0,0,.52-.45,1.23,1.23,0,0,0,.2-.61h1.19a1.84,1.84,0,0,1-.19.8,2.17,2.17,0,0,1-.53.73,2.51,2.51,0,0,1-.87.53A3.43,3.43,0,0,1,140.59,626.36Z"/><path class="cls-6" d="M146.18,617.65v8.59H145v-8.59Z"/><path class="cls-6" d="M148.6,619.19a.88.88,0,0,1-.53-.16.56.56,0,0,1-.22-.47.54.54,0,0,1,.22-.46.91.91,0,0,1,1.06,0,.57.57,0,0,1,.22.46.59.59,0,0,1-.22.47A.88.88,0,0,1,148.6,619.19Zm-.59,7V620.4h1.17v5.84Z"/><path class="cls-6" d="M153.82,626.36a3.29,3.29,0,0,1-1.58-.37,2.78,2.78,0,0,1-1.09-1.06,3.14,3.14,0,0,1-.4-1.62,3,3,0,0,1,.4-1.6,2.79,2.79,0,0,1,1.09-1,3.4,3.4,0,0,1,1.58-.36,3.32,3.32,0,0,1,1.18.2,2.65,2.65,0,0,1,.88.53,2.2,2.2,0,0,1,.54.73,1.76,1.76,0,0,1,.19.79v0h-1.18s0,0,0-.07v-.06a1.12,1.12,0,0,0-.25-.58,1.51,1.51,0,0,0-.55-.4,2,2,0,0,0-.8-.15,1.92,1.92,0,0,0-.92.22,1.63,1.63,0,0,0-.68.65,2.29,2.29,0,0,0-.25,1.1,2.22,2.22,0,0,0,.25,1.11,1.69,1.69,0,0,0,.67.68,2.18,2.18,0,0,0,1.82.06,1.16,1.16,0,0,0,.52-.45,1.35,1.35,0,0,0,.21-.61h1.18a2,2,0,0,1-.18.8,2.2,2.2,0,0,1-.54.73,2.51,2.51,0,0,1-.87.53A3.39,3.39,0,0,1,153.82,626.36Z"/><path class="cls-6" d="M158.15,626.24v-8.59h1.13v5.15l-.29-.14,2.61-2.26h1.5l-2.83,2.51.29-.54,2.54,3.87h-1.27L159.78,623l.27.08-.92.81.15-.54v2.87Z"/><path class="cls-6" d="M170,626.34a2.9,2.9,0,0,1-1.51-.39,2.77,2.77,0,0,1-1-1.08,3.2,3.2,0,0,1-.37-1.55,3.14,3.14,0,0,1,.37-1.55,2.79,2.79,0,0,1,1-1.06,3.21,3.21,0,0,1,3,0,2.79,2.79,0,0,1,1,1.06,3.26,3.26,0,0,1,.37,1.55,3.32,3.32,0,0,1-.37,1.55,2.77,2.77,0,0,1-1,1.08A2.91,2.91,0,0,1,170,626.34Zm0-.62a2.13,2.13,0,0,0,2-1.16,2.63,2.63,0,0,0,.28-1.24,2.61,2.61,0,0,0-.28-1.24,2.11,2.11,0,0,0-.79-.83,2.41,2.41,0,0,0-2.33,0,2.11,2.11,0,0,0-.79.83,2.61,2.61,0,0,0-.29,1.24,2.64,2.64,0,0,0,.29,1.24,2.13,2.13,0,0,0,2,1.16Z"/><path class="cls-6" d="M174.78,626.24V620.4h.68v5.84Zm4.2,0V622.6a1.94,1.94,0,0,0-.18-.86,1.27,1.27,0,0,0-.53-.57,1.75,1.75,0,0,0-.91-.21,1.85,1.85,0,0,0-.93.25,2,2,0,0,0-.71.66,1.77,1.77,0,0,0-.26.94l-.42-.15a2.13,2.13,0,0,1,.35-1.19,2.42,2.42,0,0,1,.9-.84,2.38,2.38,0,0,1,1.19-.31,2.47,2.47,0,0,1,1.15.25,1.82,1.82,0,0,1,.76.72,2.37,2.37,0,0,1,.26,1.14v3.81Z"/><path class="cls-6" d="M185.05,618.93a.59.59,0,0,1-.37-.12.43.43,0,0,1-.15-.34.39.39,0,0,1,.15-.32.54.54,0,0,1,.37-.13.52.52,0,0,1,.36.13.4.4,0,0,1,.16.32.44.44,0,0,1-.16.34A.56.56,0,0,1,185.05,618.93Zm-.34,7.31V620.4h.67v5.84Z"/><path class="cls-6" d="M189.57,626.33a1.86,1.86,0,0,1-.48-.06,1,1,0,0,1-.42-.21,1.09,1.09,0,0,1-.29-.44,2,2,0,0,1-.1-.7V621h-1.41v-.6h1.24a.17.17,0,0,0,.12,0,.39.39,0,0,0,0-.14c0-.06,0-.15,0-.26v-1.42H189v1.88h1.87v.6H189v3.68a1.62,1.62,0,0,0,.15.77.55.55,0,0,0,.55.28l.3,0a.9.9,0,0,0,.23-.07v.6a1.2,1.2,0,0,1-.26.07Z"/><path class="cls-6" d="M197.36,626.33a1.86,1.86,0,0,1-.48-.06,1,1,0,0,1-.42-.21,1.09,1.09,0,0,1-.29-.44,2,2,0,0,1-.1-.7V621h-1.41v-.6h1.24a.13.13,0,0,0,.11,0,.26.26,0,0,0,.05-.14c0-.06,0-.15,0-.26v-1.42h.68v1.88h1.87v.6h-1.87v3.68a1.76,1.76,0,0,0,.14.77.57.57,0,0,0,.56.28l.3,0a.71.71,0,0,0,.22-.07v.6a1,1,0,0,1-.25.07Z"/><path class="cls-6" d="M202.6,626.34a2.94,2.94,0,0,1-1.52-.39,2.75,2.75,0,0,1-1-1.08,3.2,3.2,0,0,1-.38-1.55,3.15,3.15,0,0,1,.38-1.55,2.76,2.76,0,0,1,1-1.06,3.23,3.23,0,0,1,3,0,2.76,2.76,0,0,1,1,1.06,3.15,3.15,0,0,1,.38,1.55,3.2,3.2,0,0,1-.38,1.55,2.75,2.75,0,0,1-1,1.08A2.94,2.94,0,0,1,202.6,626.34Zm0-.62a2.12,2.12,0,0,0,1.16-.31,2.09,2.09,0,0,0,.79-.85,2.64,2.64,0,0,0,.29-1.24,2.61,2.61,0,0,0-.29-1.24,2,2,0,0,0-.79-.83,2.2,2.2,0,0,0-1.16-.3,2.23,2.23,0,0,0-1.16.3,2,2,0,0,0-.79.83,2.61,2.61,0,0,0-.29,1.24,2.64,2.64,0,0,0,.29,1.24,2.09,2.09,0,0,0,.79.85A2.14,2.14,0,0,0,202.6,625.72Z"/><path class="cls-6" d="M213,626.34a2.9,2.9,0,0,1-1.51-.39,2.77,2.77,0,0,1-1-1.08,3.2,3.2,0,0,1-.37-1.55,3.14,3.14,0,0,1,.37-1.55,2.79,2.79,0,0,1,1-1.06,3.21,3.21,0,0,1,3,0,2.79,2.79,0,0,1,1,1.06,3.14,3.14,0,0,1,.37,1.55,3.2,3.2,0,0,1-.37,1.55,2.77,2.77,0,0,1-1,1.08A2.91,2.91,0,0,1,213,626.34Zm0-.62a2.13,2.13,0,0,0,2-1.16,2.63,2.63,0,0,0,.28-1.24,2.61,2.61,0,0,0-.28-1.24,2.11,2.11,0,0,0-.79-.83,2.41,2.41,0,0,0-2.33,0,2.11,2.11,0,0,0-.79.83,2.61,2.61,0,0,0-.28,1.24,2.63,2.63,0,0,0,.28,1.24,2.13,2.13,0,0,0,1.95,1.16Z"/><path class="cls-6" d="M217.74,628.65V620.4h.68v8.25Zm2.69-2.3a2.57,2.57,0,0,1-2.16-1.21,2.21,2.21,0,0,1-.35-1.24v0h.5v0a1.64,1.64,0,0,0,.27.91,2,2,0,0,0,.7.67,2,2,0,0,0,1,.25,1.82,1.82,0,0,0,1.4-.61,3.2,3.2,0,0,0,0-3.56,1.82,1.82,0,0,0-1.4-.6,1.88,1.88,0,0,0-1,.25,1.93,1.93,0,0,0-.7.66,1.64,1.64,0,0,0-.27.91h-.5a2.22,2.22,0,0,1,.35-1.25,2.57,2.57,0,0,1,2.16-1.18,2.4,2.4,0,0,1,2.21,1.37,3.54,3.54,0,0,1,.34,1.63,3.6,3.6,0,0,1-.34,1.65,2.36,2.36,0,0,1-.91,1A2.51,2.51,0,0,1,220.43,626.35Z"/><path class="cls-6" d="M224.94,623.61V623h4.73l-.13.19v-.11a2.39,2.39,0,0,0-.24-1.06,2,2,0,0,0-.71-.79,2,2,0,0,0-1.11-.29,2.31,2.31,0,0,0-1.19.3,2.2,2.2,0,0,0-.79.84,2.54,2.54,0,0,0-.29,1.25,2.69,2.69,0,0,0,.28,1.26,2.09,2.09,0,0,0,.8.84,2.31,2.31,0,0,0,1.19.3,2.53,2.53,0,0,0,.87-.13,1.9,1.9,0,0,0,.62-.32,1.6,1.6,0,0,0,.37-.43,1,1,0,0,0,.15-.44h.68a1.49,1.49,0,0,1-.21.67,2.29,2.29,0,0,1-.52.63,2.65,2.65,0,0,1-.83.47,3.43,3.43,0,0,1-1.15.17A2.9,2.9,0,0,1,226,626a2.83,2.83,0,0,1-1-1.06,3.43,3.43,0,0,1,0-3.14,2.79,2.79,0,0,1,1-1.06,2.89,2.89,0,0,1,1.5-.39,2.76,2.76,0,0,1,1.49.39,2.61,2.61,0,0,1,1,1.06,3.24,3.24,0,0,1,.34,1.5v.18a1.1,1.1,0,0,0,0,.16Z"/><path class="cls-6" d="M232.09,626.24V620.4h.68v5.84Zm4.2,0V622.6a2.09,2.09,0,0,0-.17-.86,1.32,1.32,0,0,0-.53-.57,1.82,1.82,0,0,0-.92-.21,1.91,1.91,0,0,0-.93.25,1.93,1.93,0,0,0-.7.66,1.69,1.69,0,0,0-.27.94l-.41-.15a2.12,2.12,0,0,1,.34-1.19,2.37,2.37,0,0,1,.91-.84,2.34,2.34,0,0,1,1.18-.31,2.51,2.51,0,0,1,1.16.25,1.86,1.86,0,0,1,.75.72,2.26,2.26,0,0,1,.27,1.14v3.81Z"/><path class="cls-6" d="M244,626.33a1.86,1.86,0,0,1-.48-.06,1,1,0,0,1-.42-.21,1.09,1.09,0,0,1-.29-.44,2,2,0,0,1-.1-.7V621h-1.41v-.6h1.24a.13.13,0,0,0,.11,0,.26.26,0,0,0,.05-.14c0-.06,0-.15,0-.26v-1.42h.68v1.88h1.87v.6h-1.87v3.68a1.76,1.76,0,0,0,.14.77.57.57,0,0,0,.56.28l.3,0a.9.9,0,0,0,.23-.07v.6a1.2,1.2,0,0,1-.26.07Z"/><path class="cls-6" d="M246.79,626.24v-8.59h.68v8.59Zm4.21,0v-3.42a2.07,2.07,0,0,0-.4-1.37,1.5,1.5,0,0,0-1.22-.49,2,2,0,0,0-1,.24,1.72,1.72,0,0,0-.67.61,1.56,1.56,0,0,0-.25.84l-.45-.13a2,2,0,0,1,.32-1.09,2.32,2.32,0,0,1,.87-.8,2.58,2.58,0,0,1,1.28-.31,2.07,2.07,0,0,1,1.62.63,2.54,2.54,0,0,1,.57,1.75v3.54Z"/><path class="cls-6" d="M253.85,623.61V623h4.73l-.13.19v-.11a2.4,2.4,0,0,0-.25-1.06,1.91,1.91,0,0,0-.7-.79,2.07,2.07,0,0,0-1.12-.29,2.3,2.3,0,0,0-1.18.3,2.22,2.22,0,0,0-.8.84,2.65,2.65,0,0,0-.28,1.25,2.69,2.69,0,0,0,.28,1.26,2.07,2.07,0,0,0,.79.84,2.35,2.35,0,0,0,1.2.3,2.57,2.57,0,0,0,.87-.13,2,2,0,0,0,.62-.32,1.81,1.81,0,0,0,.37-.43,1,1,0,0,0,.15-.44h.68a1.79,1.79,0,0,1-.21.67,2.49,2.49,0,0,1-.52.63,2.71,2.71,0,0,1-.84.47,3.33,3.33,0,0,1-1.14.17,2.9,2.9,0,0,1-1.51-.38,2.76,2.76,0,0,1-1-1.06,3.43,3.43,0,0,1,0-3.14,2.72,2.72,0,0,1,1-1.06,2.89,2.89,0,0,1,1.5-.39,2.78,2.78,0,0,1,1.49.39,2.68,2.68,0,0,1,1,1.06,3.37,3.37,0,0,1,.34,1.5,1.21,1.21,0,0,1,0,.18.67.67,0,0,1,0,.16Z"/><path class="cls-6" d="M266.64,626.35a3,3,0,0,1-1.47-.36,2.74,2.74,0,0,1-1.07-1,3.5,3.5,0,0,1,0-3.25,2.62,2.62,0,0,1,1.07-1,3,3,0,0,1,1.47-.36,2.86,2.86,0,0,1,1.09.19,2.62,2.62,0,0,1,.83.5,2.33,2.33,0,0,1,.51.68,1.8,1.8,0,0,1,.17.73h0v0h-.67s0,0,0-.06v-.07a1.36,1.36,0,0,0-.32-.71,2.05,2.05,0,0,0-.68-.49,2.27,2.27,0,0,0-.93-.18,2.33,2.33,0,0,0-1.1.27,2.07,2.07,0,0,0-.82.79,3,3,0,0,0,0,2.65,2.13,2.13,0,0,0,.82.81,2.3,2.3,0,0,0,1.1.27,2.26,2.26,0,0,0,1.07-.22,1.59,1.59,0,0,0,.64-.55,1.49,1.49,0,0,0,.23-.71h.67a1.69,1.69,0,0,1-.17.74,2,2,0,0,1-.49.68,2.34,2.34,0,0,1-.81.49A3.08,3.08,0,0,1,266.64,626.35Z"/><path class="cls-6" d="M273.74,626.34a2.91,2.91,0,0,1-1.52-.39,2.77,2.77,0,0,1-1-1.08,3.32,3.32,0,0,1-.37-1.55,3.26,3.26,0,0,1,.37-1.55,2.79,2.79,0,0,1,1-1.06,3.21,3.21,0,0,1,3,0,2.79,2.79,0,0,1,1,1.06,3.14,3.14,0,0,1,.37,1.55,3.2,3.2,0,0,1-.37,1.55,2.77,2.77,0,0,1-1,1.08A2.9,2.9,0,0,1,273.74,626.34Zm0-.62a2.13,2.13,0,0,0,1.95-1.16,2.64,2.64,0,0,0,.29-1.24,2.61,2.61,0,0,0-.29-1.24,2.11,2.11,0,0,0-.79-.83,2.23,2.23,0,0,0-1.16-.3,2.2,2.2,0,0,0-1.16.3,2.06,2.06,0,0,0-.8.83,2.61,2.61,0,0,0-.28,1.24,2.63,2.63,0,0,0,.28,1.24,2.16,2.16,0,0,0,2,1.16Z"/><path class="cls-6" d="M278.49,626.24V620.4h.68v5.84Zm4.2,0V622.6a2.09,2.09,0,0,0-.17-.86,1.39,1.39,0,0,0-.53-.57,1.82,1.82,0,0,0-.92-.21,1.91,1.91,0,0,0-.93.25,1.85,1.85,0,0,0-.7.66,1.69,1.69,0,0,0-.27.94l-.41-.15a2.12,2.12,0,0,1,.34-1.19,2.56,2.56,0,0,1,3.24-.9,1.82,1.82,0,0,1,.76.72,2.26,2.26,0,0,1,.27,1.14v3.81Z"/><path class="cls-6" d="M285.4,626.24V620.4h.68v5.84Zm4.2,0V622.6a1.94,1.94,0,0,0-.17-.86,1.32,1.32,0,0,0-.53-.57A1.79,1.79,0,0,0,288,621a1.91,1.91,0,0,0-.93.25,1.93,1.93,0,0,0-.7.66,1.69,1.69,0,0,0-.27.94l-.41-.15a2.2,2.2,0,0,1,.34-1.19,2.37,2.37,0,0,1,.91-.84,2.34,2.34,0,0,1,1.18-.31,2.48,2.48,0,0,1,1.16.25,1.8,1.8,0,0,1,.75.72,2.26,2.26,0,0,1,.27,1.14v3.81Z"/><path class="cls-6" d="M292.45,623.61V623h4.73l-.14.19v-.11a2.39,2.39,0,0,0-.24-1.06,1.91,1.91,0,0,0-.7-.79,2.07,2.07,0,0,0-1.12-.29,2.28,2.28,0,0,0-1.18.3,2.22,2.22,0,0,0-.8.84,2.65,2.65,0,0,0-.28,1.25,2.69,2.69,0,0,0,.28,1.26,2.07,2.07,0,0,0,.79.84,2.35,2.35,0,0,0,1.2.3,2.57,2.57,0,0,0,.87-.13,2,2,0,0,0,.62-.32,1.81,1.81,0,0,0,.37-.43,1,1,0,0,0,.15-.44h.68a1.79,1.79,0,0,1-.21.67,2.49,2.49,0,0,1-.52.63,2.83,2.83,0,0,1-.84.47,3.33,3.33,0,0,1-1.14.17,2.9,2.9,0,0,1-1.51-.38,2.76,2.76,0,0,1-1-1.06,3.43,3.43,0,0,1,0-3.14,2.72,2.72,0,0,1,1-1.06,2.89,2.89,0,0,1,1.5-.39,2.78,2.78,0,0,1,1.49.39,2.59,2.59,0,0,1,1,1.06,3.25,3.25,0,0,1,.35,1.5c0,.05,0,.11,0,.18a.67.67,0,0,1,0,.16Z"/><path class="cls-6" d="M302.26,626.35a3,3,0,0,1-1.46-.36,2.74,2.74,0,0,1-1.07-1,3.5,3.5,0,0,1,0-3.25,2.62,2.62,0,0,1,1.07-1,3,3,0,0,1,1.46-.36,2.92,2.92,0,0,1,1.1.19,2.47,2.47,0,0,1,.82.5,2,2,0,0,1,.51.68,1.67,1.67,0,0,1,.18.73h0v0h-.68v-.06a.15.15,0,0,0,0-.07,1.27,1.27,0,0,0-.31-.71,2.05,2.05,0,0,0-.68-.49,2.27,2.27,0,0,0-.93-.18,2.33,2.33,0,0,0-1.1.27,2.07,2.07,0,0,0-.82.79,3,3,0,0,0,0,2.65,2.13,2.13,0,0,0,.82.81,2.53,2.53,0,0,0,2.17,0A1.59,1.59,0,0,0,304,625a1.37,1.37,0,0,0,.22-.71h.68a1.85,1.85,0,0,1-.17.74,2,2,0,0,1-.49.68,2.3,2.3,0,0,1-.82.49A3,3,0,0,1,302.26,626.35Z"/><path class="cls-6" d="M308.61,626.33a2,2,0,0,1-.49-.06,1.07,1.07,0,0,1-.41-.21,1,1,0,0,1-.29-.44,1.94,1.94,0,0,1-.11-.7V621H305.9v-.6h1.24a.14.14,0,0,0,.12,0,.38.38,0,0,0,.05-.14v-1.68H308v1.88h1.87v.6H308v3.68a1.62,1.62,0,0,0,.15.77.56.56,0,0,0,.55.28l.31,0a.71.71,0,0,0,.22-.07v.6a1.05,1.05,0,0,1-.26.07Z"/><path class="cls-6" d="M311.77,618.93a.59.59,0,0,1-.37-.12.43.43,0,0,1-.15-.34.39.39,0,0,1,.15-.32.54.54,0,0,1,.37-.13.52.52,0,0,1,.36.13.4.4,0,0,1,.16.32.44.44,0,0,1-.16.34A.56.56,0,0,1,311.77,618.93Zm-.34,7.31V620.4h.67v5.84Z"/><path class="cls-6" d="M316.9,626.34a2.9,2.9,0,0,1-1.51-.39,2.77,2.77,0,0,1-1-1.08,3.2,3.2,0,0,1-.37-1.55,3.14,3.14,0,0,1,.37-1.55,2.79,2.79,0,0,1,1-1.06,3.21,3.21,0,0,1,3,0,2.79,2.79,0,0,1,1,1.06,3.14,3.14,0,0,1,.37,1.55,3.2,3.2,0,0,1-.37,1.55,2.77,2.77,0,0,1-1,1.08A2.91,2.91,0,0,1,316.9,626.34Zm0-.62a2.13,2.13,0,0,0,2-1.16,2.63,2.63,0,0,0,.28-1.24,2.61,2.61,0,0,0-.28-1.24,2.11,2.11,0,0,0-.79-.83,2.41,2.41,0,0,0-2.33,0,2.11,2.11,0,0,0-.79.83,2.61,2.61,0,0,0-.28,1.24,2.63,2.63,0,0,0,.28,1.24,2.13,2.13,0,0,0,1.95,1.16Z"/><path class="cls-6" d="M321.66,626.24V620.4h.68v5.84Zm4.2,0V622.6a2.09,2.09,0,0,0-.17-.86,1.35,1.35,0,0,0-.54-.57,1.75,1.75,0,0,0-.91-.21,1.91,1.91,0,0,0-.93.25,1.85,1.85,0,0,0-.7.66,1.69,1.69,0,0,0-.27.94l-.41-.15a2.12,2.12,0,0,1,.34-1.19,2.42,2.42,0,0,1,.9-.84,2.38,2.38,0,0,1,1.19-.31,2.44,2.44,0,0,1,1.15.25,1.82,1.82,0,0,1,.76.72,2.26,2.26,0,0,1,.27,1.14v3.81Z"/><path class="cls-6" d="M330.69,626.35a4.08,4.08,0,0,1-1-.11,2.33,2.33,0,0,1-.75-.32,1.62,1.62,0,0,1-.49-.52,1.45,1.45,0,0,1-.18-.7v-.19H329v.16a.93.93,0,0,0,.47.79,2.4,2.4,0,0,0,1.24.27,3,3,0,0,0,.89-.11,1.35,1.35,0,0,0,.6-.34.7.7,0,0,0,.22-.54A.78.78,0,0,0,332,624a5.21,5.21,0,0,0-1.35-.38,6.41,6.41,0,0,1-.86-.2,2.66,2.66,0,0,1-.7-.32,1.32,1.32,0,0,1-.47-.47,1.36,1.36,0,0,1-.17-.69,1.27,1.27,0,0,1,.31-.87,1.82,1.82,0,0,1,.83-.54,3.52,3.52,0,0,1,2.28,0,2,2,0,0,1,.84.56,1.43,1.43,0,0,1,.31.95v.12h-.68V622a.9.9,0,0,0-.23-.64,1.34,1.34,0,0,0-.59-.36,2.76,2.76,0,0,0-.77-.11,2.88,2.88,0,0,0-.78.1,1.53,1.53,0,0,0-.61.31.7.7,0,0,0-.23.56.73.73,0,0,0,.22.56,1.57,1.57,0,0,0,.62.34,7.9,7.9,0,0,0,.93.23,8.59,8.59,0,0,1,.9.21,2.84,2.84,0,0,1,.7.31,1.32,1.32,0,0,1,.47.47,1.46,1.46,0,0,1,.16.69,1.39,1.39,0,0,1-.18.71,1.55,1.55,0,0,1-.51.51,2.25,2.25,0,0,1-.76.31A4,4,0,0,1,330.69,626.35Z"/><path class="cls-6" d="M335.32,626.38a.55.55,0,0,1-.55-.55.53.53,0,0,1,.16-.39.53.53,0,0,1,.39-.16.57.57,0,0,1,.39.16.53.53,0,0,1,.16.39.5.5,0,0,1-.16.39A.53.53,0,0,1,335.32,626.38Z"/><path class="cls-6" d="M273.75,554a62,62,0,0,1,5.41-16.34c3.94-7.51,5.32-9.85,7.21-12a48.22,48.22,0,0,1,5.31-4.77s.07-5,2.2-6.17a16.05,16.05,0,0,1,4.69-1.61v-4.68a18.32,18.32,0,0,1-4.61-3.23,24.83,24.83,0,0,1-2.63-3.27,17.9,17.9,0,0,1-6.55,2.82c-3.41.56-11.93-3.69-11.93-3.69s-2.48-1.64-3-3.5a20.45,20.45,0,0,1,0-11.44c1.56-5.09,4.76-16.14,4.76-16.14s2-11,2.87-13.08,4.22-9.53,8.77-12.14a40.69,40.69,0,0,1,18-5.57c7.85-.59,11.47-.17,15.61,2.53s6.83,5,9.87,12.48,8.84,23.93,8.84,23.93,3.41,11.37,2.34,14.43-1.31,3.16-2.75,4.12a18.81,18.81,0,0,1-6.33,2.48,24,24,0,0,1-6.32-.25,29.13,29.13,0,0,1-2.53,4.47,11.29,11.29,0,0,0-1.53,2.34l1.8,4.5a3.69,3.69,0,0,1,2.51.16,11.72,11.72,0,0,1,2.77,2.73l1.7,3.43.24,1.66a15,15,0,0,1,4.75,2.69c2,1.81,5.64,4.25,8.42,10.58a84.5,84.5,0,0,1,4.05,11.05l2,9.28s-9,5.66-36.73,6.12C287.86,558.31,273.75,554,273.75,554Z"/><path class="cls-6" d="M291.33,520.28l-16.72,5.13a25,25,0,0,1-7.7,1.39c-4.62.15-6.27-.66-6.27-.66a51.48,51.48,0,0,0,3.05-9.23,66.72,66.72,0,0,0,1.21-12c0-2.18.86-13.34.86-13.34l.24-17.76a51.14,51.14,0,0,0-.61-9.61c-.79-3.68-1-6.36-2.48-6.18s-1.52,4.42-1.52,4.42l.39,10.65v3.3s-1.16-.76-1.8-.55-2,2.14-2,2.14a3,3,0,0,0-2.2-1.24,4,4,0,0,0-2.61,1.24s-1.56-.63-2.3,0a9.32,9.32,0,0,0-2.26,5.44c.11,1.86-.56,2.67,0,3.67s.11,3.32.11,3.32-.49,4.75.46,6.61,1.95,2.69,2.16,3.95a4.19,4.19,0,0,1-.19,2.15s-.82-.44-1.88.87-5.54,7.78-7.34,12.43-3.09,7.74-2.45,11.59a19.37,19.37,0,0,0,1.9,6.47c.67,1.35,17.67,26.63,72,22.06C367.93,551.93,291.33,520.28,291.33,520.28Z"/><path class="cls-7" d="M291.12,502.05s-3.87,2.58-7.37,2.82-10.6-3.44-10.6-3.44-3-1.52-3.56-4.34A24.08,24.08,0,0,1,270,485c1.52-5.11,4-12.42,4.68-16.23S277.4,456,279,453.21s4.63-8.36,10.62-10.48,10.61-3.73,17.46-3.82,10.87.56,14.77,4.52,7,7.19,10.45,18.49,6.33,16.84,7.18,20.94,2.08,9.06.41,11.69a11.56,11.56,0,0,1-8.37,4.74,31.72,31.72,0,0,1-6.24-.44,18.65,18.65,0,0,0,1.65-6.16,36.62,36.62,0,0,1,.87-5.75,4.38,4.38,0,0,0,3.07-.53,5.4,5.4,0,0,0,2.72-4.65c-.13-1.77-.71-3.95-2.55-4.7a16.87,16.87,0,0,1-2.83-1.42s-1.26,1.09-1.76.92-1.5-2.78-1.5-2.78.15-1.8-.64-1.89-2,1-2,1a22.05,22.05,0,0,1-1.17-5.26c-.25-2.84-.39-3.46-.39-3.46s-1.82,1.46-3.76,3.05a21.61,21.61,0,0,1-12.2,4.68c-5.77.24-7.64-1.09-11.22,0a38.45,38.45,0,0,0-5.22,1.89l-2,9.6a8.34,8.34,0,0,1-1.83-2.5,11.78,11.78,0,0,0-1.29-2.31s-3.42-.09-3.92,1.58-2.22,4.48.31,6.79,4.69,3,5.39,4.21,2.82,5.76,3.44,6.77S291.12,502.05,291.12,502.05Z"/><path d="M283.91,478.31c-3.15-.79-6,2.17-5.88,5.27a7,7,0,0,0,1.87,4.21,9,9,0,0,0,1.91,1.63c1,.63,2.11,1,2.87,1.86,1.31,1.54,2,3.8,2.87,5.59a43.52,43.52,0,0,0,3.15,5.3,21.36,21.36,0,0,0,8.8,7.37,20,20,0,0,0,20.56-2.63,21.17,21.17,0,0,0,6.09-8.55,22.11,22.11,0,0,0,1.39-5.37c.12-.95.17-1.91.25-2.87.06-.58,0-2.39.56-2.69.15-.09.8.1,1,.09a3.88,3.88,0,0,0,1.07-.19,4.77,4.77,0,0,0,1.72-1.06,7.29,7.29,0,0,0,2.05-4,6.14,6.14,0,0,0-5.81-6.91c-.64,0-.64.95,0,1a5.14,5.14,0,0,1,4.49,7.05,4.94,4.94,0,0,1-2.65,3c-.76.28-1.3,0-2,0a.86.86,0,0,0-.69.35c-.68.84-.62,2.61-.7,3.6a31.92,31.92,0,0,1-.69,5,21,21,0,0,1-4.54,8.76,18.61,18.61,0,0,1-18.27,5.68c-7.34-1.7-11.82-7.31-15.07-13.74a33.93,33.93,0,0,0-2.6-5.14c-1-1.36-2.72-1.77-4-2.81-1.56-1.26-2.9-3.29-2.56-5.4s2.42-4,4.6-3.4c.61.15.88-.8.26-.95Z"/><path d="M306.42,493.76l2.37-.6a.49.49,0,0,0,.35-.6.51.51,0,0,0-.61-.35l-2.37.59a.51.51,0,0,0-.35.61.52.52,0,0,0,.61.35Z"/><path d="M298,508.55a24,24,0,0,1-.64,8.23.5.5,0,0,0,1,.27,25.1,25.1,0,0,0,.67-8.5c-.06-.63-1.05-.63-1,0Z"/><path d="M320.81,506l3.61,9c.23.59,1.19.33.95-.26l-3.61-9c-.23-.58-1.19-.33-.95.26Z"/><path d="M295.55,517.45c9.58,3.87,21.18,4.35,29.69-2.26.51-.39-.2-1.08-.69-.7-8.23,6.38-19.53,5.72-28.74,2-.59-.24-.85.72-.26,1Z"/><path d="M298.2,512.74a6.65,6.65,0,0,0-4,1.11,7.75,7.75,0,0,0-2.49,3.59,20.49,20.49,0,0,0-.91,3.17c-.14.62.81.88.95.26a12.08,12.08,0,0,1,2.26-5.51,5.28,5.28,0,0,1,4.23-1.63.5.5,0,0,0,0-1Z"/><path d="M323.09,510.84a4.85,4.85,0,0,1,4.16,1.61,10.67,10.67,0,0,1,1.85,3.16,7.56,7.56,0,0,1,.58,1.52c.21,1.28-.25,1.47-1,2a35.24,35.24,0,0,1-11.73,5.12c-8.15,2-18.54,1.63-25.34-3.86-.49-.4-1.19.3-.7.7,6.1,4.93,14.91,5.87,22.45,4.84a38.19,38.19,0,0,0,11.16-3.31,26.18,26.18,0,0,0,5.3-3.08c1.45-1.17.95-2.49.33-4a11,11,0,0,0-3.08-4.64,5.78,5.78,0,0,0-4-1,.5.5,0,0,0,0,1Z"/><path d="M330,518.71c13.09,5.65,16.53,20.72,19.11,33.35.13.62,1.08.36,1-.26-2.64-12.87-6.24-28.19-19.57-33.94-.58-.25-1.08.6-.5.85Z"/><path d="M283.87,478.94a6.52,6.52,0,0,0,2.34,4.8.5.5,0,0,0,.83-.22l1-5.29c.22-1.19.23-3.06.91-4.11.31-.48.76-.46,1.29-.54a13.83,13.83,0,0,0,2.94-.95c2.91-1.14,6.47-.42,9.52-.33a22.67,22.67,0,0,0,6.62-.62,22.9,22.9,0,0,0,7.4-3.46,29.39,29.39,0,0,0,2.35-2c.37-.33.72-.68,1.09-1a4.33,4.33,0,0,0,.73-.58l-.28-.16a1.16,1.16,0,0,1,0,.18,2.19,2.19,0,0,0,.08.47c.05.46.08.92.11,1.38.07,1.19.13,2.38.25,3.56.09.87.1,3.42,1.42,3.43.47,0,.8-.41,1.1-.72.11-.12.4-.58.6-.58,0,0,.29.92.34,1.14.26,1.13.22,2.63,1.36,3.3a2.51,2.51,0,0,0,2.82-.51c.48-.43-.22-1.13-.69-.7-1.18,1.05-2.11,0-2.35-1.22a12.18,12.18,0,0,0-.34-1.7c-.16-.5-.42-1.15-1-1.27a1.21,1.21,0,0,0-1.05.42c-.18.16-.31.35-.48.52s-.18.24-.26.26,0,0,0,0c-.5-.27-.5-2.58-.54-3-.1-1.16-.15-2.32-.23-3.49-.06-.74,0-2.66-1.25-2.24a4.56,4.56,0,0,0-1.4,1.11c-.8.74-1.6,1.48-2.45,2.15a21.61,21.61,0,0,1-8.24,3.87,26.15,26.15,0,0,1-7.23.37c-2.78-.12-5.83-.59-8.48.49a17,17,0,0,1-3.25,1,1.83,1.83,0,0,0-1.28.73c-.68.95-.74,2.49-.94,3.58l-1.17,6.25.83-.22a5.51,5.51,0,0,1-2.05-4.1c0-.63-1-.63-1,0Z"/><ellipse class="cls-8" cx="298.62" cy="483.39" rx="1.27" ry="1.95" transform="translate(-27.09 17.83) rotate(-3.27)"/><path class="cls-8" d="M297,482.59l2.91-.33a.51.51,0,0,0,.49-.49c0-.25-.22-.53-.49-.5l-2.91.33a.51.51,0,0,0-.49.5.5.5,0,0,0,.49.49Z"/><ellipse class="cls-8" cx="316.42" cy="482.37" rx="1.95" ry="1.27" transform="translate(-186.28 765.39) rotate(-86.12)"/><path class="cls-8" d="M314.92,481.38l2.93,0a.49.49,0,0,0,.49-.49.51.51,0,0,0-.49-.5l-2.93,0a.5.5,0,0,0,0,1Z"/><path d="M291,501.63c-2.78,1.5-5.73,3-9,2.71a15.23,15.23,0,0,1-4.81-1.64c-1.1-.49-2.21-1-3.27-1.54a7.58,7.58,0,0,1-4-5.31,23.31,23.31,0,0,1,.6-10.69c.91-3.58,2.23-7,3.31-10.57.91-3,1.56-6.07,2.18-9.14,1.2-5.9,2.54-11.89,6.54-16.6,4.15-4.88,10.14-7.25,16.3-8.4,6.47-1.21,13.67-2,19.67,1.21,4.93,2.65,8.26,7.26,10.46,12.31,1.43,3.3,2.55,6.76,3.79,10.14l4,10.91c1.94,5.28,4.13,11.39,3.42,17.11a6.32,6.32,0,0,1-1.18,3.25,8.11,8.11,0,0,1-2.57,1.78,15,15,0,0,1-10.4,1.4c-.62-.14-.88.81-.26.95a15.71,15.71,0,0,0,9.39-.69c1.78-.71,4-1.68,5-3.38,1.2-2,1.21-4.54,1-6.76a42.57,42.57,0,0,0-1.65-8.44c-.94-3.28-2.19-6.46-3.37-9.66l-4.43-12.07c-2.14-5.82-4.58-11.58-9.55-15.57a20.71,20.71,0,0,0-7.79-4c-3.59-.91-7.41-.56-11.05-.17-6.34.68-12.95,2.15-18.12,6.1s-7.92,10-9.38,16.39c-.75,3.29-1.32,6.62-2.14,9.9-1,3.82-2.36,7.5-3.49,11.27a30.52,30.52,0,0,0-1.63,11.24c.21,2.54.85,5.16,2.82,6.92s4.33,2.48,6.53,3.5a11.69,11.69,0,0,0,9.55.3,36.05,36.05,0,0,0,4-1.95c.56-.3.06-1.16-.5-.85Z"/><path d="M292.77,478.74a28.48,28.48,0,0,1,9.69-.7c.64.06.63-.92,0-1a29.76,29.76,0,0,0-9.95.73.5.5,0,0,0,.26,1Z"/><path d="M311.25,478.42a28.22,28.22,0,0,1,9.57-.18c.62.1.89-.85.26-.95a29.48,29.48,0,0,0-10.09.18c-.63.12-.36,1.07.26.95Z"/><path d="M292.18,519.77c-5.61,1.39-11.09,3.18-16.62,4.84-4.67,1.39-9.75,2.42-14.55,1-.65-.2-.93.83-.28,1,4.79,1.41,9.92.51,14.61-.86,5.71-1.67,11.34-3.55,17.12-5a.53.53,0,0,0-.28-1Z"/><path d="M250.38,502.81c1.08,2.18,2.24,4,4.7,4.66,3.45.93,6.8-1,9.82-2.46l-.78-.32a11,11,0,0,1,.22,3.71,45.9,45.9,0,0,1-.79,6.6,41.62,41.62,0,0,1-5.62,15c-.37.58.55,1.11.92.54A42.48,42.48,0,0,0,264.63,515a46.76,46.76,0,0,0,.77-6.56,11.63,11.63,0,0,0-.26-4,.54.54,0,0,0-.78-.32c-2.73,1.32-5.87,3.2-9,2.35-2.18-.59-3.11-2.25-4.06-4.16-.3-.62-1.22-.08-.92.53Z"/><path d="M250.58,502.09a15.72,15.72,0,0,0-4.26,4.84,55,55,0,0,0-4.51,8.34,32.81,32.81,0,0,0-2.76,8.72,18.44,18.44,0,0,0,1.84,10.73c.3.61,1.22.07.92-.54A17.23,17.23,0,0,1,240.29,523a37.79,37.79,0,0,1,2.72-7.87,57.48,57.48,0,0,1,4.05-7.43c1.09-1.66,2.34-3.62,4.05-4.72.57-.37,0-1.28-.53-.91Z"/><path d="M252.09,504.1a5.4,5.4,0,0,0-.43-3.66c-.62-1.33-1.63-2.41-2.08-3.83-.87-2.71-.39-5.67.07-8.41.12-.67-.91-1-1-.28a21.65,21.65,0,0,0-.32,8,9.6,9.6,0,0,0,1.56,3.52c.88,1.32,1.6,2.74,1.19,4.36a.53.53,0,0,0,1,.28Z"/><path d="M265.45,504.23c.66-6.49,1-13,1.06-19.52.06-5.6.12-11.26-.22-16.85-.17-2.88-.36-6.21-1.69-8.83-.42-.84-1.25-1.84-2.33-1.52s-1.22,1.9-1.32,2.81a47.46,47.46,0,0,0,.08,7.54c.16,3.12.33,6.24.27,9.36a.53.53,0,0,0,1.06,0c.1-4.75-.42-9.48-.45-14.22a22.1,22.1,0,0,1,.08-2.44c0-.46.07-1.54.46-1.89.71-.63,1.43,1.31,1.6,1.82a29.59,29.59,0,0,1,1.22,8.1c.22,5.36.24,10.75.18,16.12-.08,6.52-.4,13-1.06,19.52-.07.68,1,.68,1.06,0Z"/><path d="M262.24,476.09a2.09,2.09,0,0,0-2.14-.65,3.21,3.21,0,0,0-2.22,1.57c-1.16,1.72-1.31,3.94-1.42,5.95,0,.68,1,.68,1.07,0a11.66,11.66,0,0,1,1-4.92,2.71,2.71,0,0,1,1.49-1.5,2.36,2.36,0,0,1,.88-.08l.3.07.15.08s0,0,0,0a.53.53,0,0,0,.92-.53Z"/><path d="M258.18,477.56a2.78,2.78,0,0,0-2.39-1.37,3.69,3.69,0,0,0-2.77,1.1,7.45,7.45,0,0,0-1.68,3,13.75,13.75,0,0,0-.75,4.11.53.53,0,0,0,1.06,0,12.33,12.33,0,0,1,.62-3.51,7.26,7.26,0,0,1,1.21-2.52,2.79,2.79,0,0,1,2-1.11,1.82,1.82,0,0,1,1.75.84.53.53,0,0,0,.91-.53Z"/><path d="M253,477.59c-1.16-.8-2.52,0-3.24,1a11.72,11.72,0,0,0-1.68,4,10.55,10.55,0,0,0-.36,3.06,3.48,3.48,0,0,0,.71,2.18,2.1,2.1,0,0,0,2.68.06.53.53,0,0,0-.53-.92c-.6.34-1.26.55-1.58-.2a4.5,4.5,0,0,1-.21-2,12.68,12.68,0,0,1,1-4c.37-.88,1.36-3.14,2.67-2.24.57.38,1.1-.54.54-.92Z"/><path d="M260.14,480.84a12.09,12.09,0,0,0,.39,3.93.53.53,0,0,0,1-.28,11,11,0,0,1-.36-3.65.53.53,0,0,0-1.06,0Z"/><path d="M262.91,484.19a59.12,59.12,0,0,0-6.91-.35,19.32,19.32,0,0,0-3.14.15A2.4,2.4,0,0,0,251,485.3a3,3,0,0,0,1.65,3.81,5.48,5.48,0,0,0,2.56.43c.75,0,1.72-.22,2.26.43l-.08-.64-1.78,3a.53.53,0,0,0,.91.53l1.78-3a.54.54,0,0,0-.08-.64c-1-1.2-2.69-.6-4-.77s-3-1.24-2.24-2.73c.35-.72,1.29-.73,2-.76,1,0,1.95-.07,2.92-.06a58.27,58.27,0,0,1,6.05.35c.68.07.67-1,0-1.06Z"/><path d="M311.63,496.75a32.73,32.73,0,0,0-5.33-.11,13.07,13.07,0,0,0-4.07.74,4.81,4.81,0,0,0-2.68,2.25c-.61,1.27.31,2.16,1.27,2.89a10.56,10.56,0,0,0,7.09,2,9.74,9.74,0,0,0,6.52-2.89c.72-.84,1.38-2.16.89-3.27-.61-1.38-2.33-1.38-3.58-1.62-.53-.09-.75.71-.22.81.94.17,2.56.1,3,1.14s-.36,2-1,2.63a9.14,9.14,0,0,1-5.46,2.35,10,10,0,0,1-5.86-1.22,8.07,8.07,0,0,1-1.24-.86c-.63-.52-1.06-1.11-.56-1.9a4.72,4.72,0,0,1,2.7-1.77,23,23,0,0,1,8.48-.36c.53.06.53-.78,0-.83Z"/></g></g></svg>